<?xml version="1.0" encoding="utf-8" standalone="no"?>
<!DOCTYPE svg PUBLIC "-//W3C//DTD SVG 1.1//EN"
  "http://www.w3.org/Graphics/SVG/1.1/DTD/svg11.dtd">
<!-- Created with matplotlib (http://matplotlib.org/) -->
<svg height="323pt" version="1.1" viewBox="0 0 491 323" width="491pt" xmlns="http://www.w3.org/2000/svg" xmlns:xlink="http://www.w3.org/1999/xlink">
 <defs>
  <style type="text/css">
*{stroke-linecap:butt;stroke-linejoin:round;stroke-miterlimit:100000;}
  </style>
 </defs>
 <g id="figure_1">
  <g id="patch_1">
   <path d="M 0 323.820625 
L 491.51875 323.820625 
L 491.51875 0 
L 0 0 
z
" style="fill:#ffffff;"/>
  </g>
  <g id="axes_1">
   <g id="patch_2">
    <path d="M 30.28375 301.006875 
L 476.68375 301.006875 
L 476.68375 13.006875 
L 30.28375 13.006875 
z
" style="fill:#ffffff;"/>
   </g>
   <g id="line2d_1">
    <path clip-path="url(#p0a892e24dc)" d="M 30.28375 14.521142 
L 31.776727 14.010466 
L 33.269703 13.960936 
L 34.76268 14.50171 
L 36.255656 14.625132 
L 37.748633 15.982836 
L 39.24161 15.060365 
L 40.734586 15.770093 
L 42.227563 15.037924 
L 43.720539 17.129948 
L 45.213516 14.862722 
L 48.199469 14.952025 
L 49.692446 14.547658 
L 51.185422 15.547616 
L 52.678399 15.352945 
L 54.171375 15.668992 
L 55.664352 16.230154 
L 57.157329 15.768352 
L 60.143282 16.435168 
L 61.636258 17.950234 
L 63.129235 15.79204 
L 64.622212 16.176385 
L 66.115188 15.879624 
L 67.608165 16.458038 
L 69.101141 17.530753 
L 72.087094 20.630356 
L 73.580071 23.59011 
L 75.073048 20.932725 
L 76.566024 19.905659 
L 78.059001 19.838289 
L 79.551977 22.152123 
L 81.044954 20.377122 
L 82.537931 17.797377 
L 84.030907 19.421085 
L 85.523884 26.239723 
L 87.01686 27.281423 
L 88.509837 22.55844 
L 90.002814 24.283936 
L 91.49579 21.311769 
L 92.988767 24.787726 
L 94.481743 22.649312 
L 95.97472 24.869772 
L 97.467696 28.442919 
L 98.960673 27.205152 
L 100.45365 28.854772 
L 101.946626 20.859169 
L 103.439603 28.060252 
L 104.932579 36.035259 
L 106.425556 33.219996 
L 107.918533 34.394483 
L 109.411509 29.640139 
L 110.904486 33.680285 
L 112.397462 39.988044 
L 113.890439 37.63203 
L 115.383416 46.415394 
L 116.876392 54.064528 
L 118.369369 50.207512 
L 119.862345 48.297832 
L 121.355322 39.164806 
L 122.848298 46.729126 
L 124.341275 52.200214 
L 125.834252 59.825687 
L 127.327228 57.104287 
L 128.820205 78.988694 
L 130.313181 46.603904 
L 131.806158 114.898176 
L 133.299135 101.971139 
L 134.792111 94.824351 
L 136.285088 65.959648 
L 137.778064 84.868423 
L 139.271041 105.738312 
L 140.764018 82.905001 
L 142.256994 149.315774 
L 143.749971 144.13394 
L 145.242947 81.694148 
L 146.735924 137.379607 
L 148.228901 110.102547 
L 149.721877 136.127836 
L 151.214854 177.004736 
L 152.70783 91.123371 
L 154.200807 141.771545 
L 155.693783 170.688445 
L 157.18676 181.650024 
L 158.679737 190.184955 
L 160.172713 171.305374 
L 161.66569 164.569296 
L 163.158666 179.456269 
L 164.651643 132.330321 
L 166.14462 164.07206 
L 167.637596 162.517629 
L 169.130573 180.413136 
L 170.623549 173.730272 
L 172.116526 215.099423 
L 173.609503 181.331756 
L 175.102479 244.032633 
L 176.595456 184.587003 
L 179.581409 279.715175 
L 181.074385 269.762511 
L 182.567362 279.08392 
L 184.060339 258.034732 
L 185.553315 286.760238 
L 187.046292 275.8168 
L 188.539268 263.664041 
L 190.032245 288.338189 
L 191.525222 259.923856 
L 193.018198 297.507618 
L 194.511175 286.749056 
L 196.004151 292.70972 
L 197.497128 269.46018 
L 198.990105 289.708937 
L 200.483081 286.347179 
L 201.976058 279.788696 
L 203.469034 300.442314 
L 204.962011 295.098026 
L 206.454987 297.815771 
L 207.947964 300.88069 
L 209.440941 298.441835 
L 210.933917 300.244746 
L 212.426894 299.405503 
L 213.91987 291.723189 
L 215.412847 300.903933 
L 218.3988 301.006483 
L 219.891777 300.974258 
L 221.384753 300.799472 
L 222.87773 300.975645 
L 230.342613 301.00679 
L 234.821543 301.006189 
L 476.68375 301.006875 
L 476.68375 301.006875 
" style="fill:none;stroke:#0000ff;stroke-linecap:square;"/>
   </g>
   <g id="line2d_2">
    <path clip-path="url(#p0a892e24dc)" d="M 30.28375 13.192774 
L 31.776727 13.415215 
L 34.76268 13.463129 
L 36.255656 13.55611 
L 37.748633 13.317857 
L 39.24161 13.425083 
L 42.227563 13.374442 
L 43.720539 13.730485 
L 45.213516 13.755781 
L 46.706492 13.401849 
L 49.692446 13.655347 
L 54.171375 13.60382 
L 55.664352 13.46044 
L 57.157329 13.715722 
L 58.650305 13.779124 
L 60.143282 14.085625 
L 61.636258 13.945821 
L 63.129235 14.506822 
L 64.622212 13.923512 
L 66.115188 14.158101 
L 67.608165 14.022766 
L 69.101141 14.408725 
L 70.594118 14.239983 
L 72.087094 15.519833 
L 76.566024 14.022539 
L 78.059001 16.124419 
L 79.551977 15.635456 
L 81.044954 15.548655 
L 82.537931 15.323693 
L 85.523884 15.819512 
L 87.01686 15.478627 
L 88.509837 15.461454 
L 90.002814 15.806671 
L 91.49579 15.440292 
L 92.988767 19.100615 
L 94.481743 15.209926 
L 95.97472 19.316051 
L 97.467696 16.526285 
L 98.960673 17.700394 
L 100.45365 16.017569 
L 101.946626 20.068057 
L 103.439603 18.94347 
L 104.932579 17.424078 
L 106.425556 18.066189 
L 107.918533 21.675158 
L 109.411509 22.809707 
L 110.904486 21.040017 
L 112.397462 25.328957 
L 113.890439 20.667362 
L 115.383416 27.124805 
L 116.876392 22.770101 
L 118.369369 26.219892 
L 119.862345 25.727175 
L 121.355322 38.035574 
L 122.848298 22.576384 
L 124.341275 33.121455 
L 125.834252 30.593425 
L 127.327228 29.914264 
L 128.820205 31.022974 
L 130.313181 36.695161 
L 131.806158 36.44942 
L 133.299135 29.046987 
L 134.792111 43.157382 
L 136.285088 33.547413 
L 137.778064 31.634446 
L 139.271041 32.370477 
L 140.764018 44.246853 
L 142.256994 47.714487 
L 143.749971 47.947507 
L 145.242947 44.581685 
L 146.735924 61.072481 
L 148.228901 46.756695 
L 149.721877 47.886034 
L 151.214854 60.689554 
L 152.70783 53.462163 
L 154.200807 60.568197 
L 155.693783 57.813755 
L 157.18676 54.454058 
L 158.679737 57.136907 
L 160.172713 76.956803 
L 161.66569 118.031003 
L 163.158666 87.568288 
L 164.651643 130.886911 
L 166.14462 57.825223 
L 167.637596 68.849979 
L 169.130573 85.995405 
L 170.623549 135.679331 
L 172.116526 59.469221 
L 173.609503 127.200869 
L 175.102479 84.988335 
L 176.595456 107.441545 
L 178.088432 104.954599 
L 179.581409 137.505229 
L 181.074385 144.955333 
L 182.567362 117.425244 
L 184.060339 176.805453 
L 185.553315 160.469681 
L 187.046292 185.189001 
L 188.539268 156.662032 
L 191.525222 220.126526 
L 193.018198 157.556897 
L 194.511175 216.53992 
L 196.004151 199.952977 
L 197.497128 223.795658 
L 198.990105 262.310105 
L 200.483081 253.348272 
L 201.976058 245.736313 
L 203.469034 230.163421 
L 204.962011 291.663562 
L 206.454987 247.844029 
L 207.947964 247.36813 
L 209.440941 281.051916 
L 210.933917 283.168409 
L 212.426894 279.698341 
L 213.91987 277.458073 
L 215.412847 284.541137 
L 216.905824 290.892922 
L 218.3988 293.91776 
L 219.891777 294.913267 
L 221.384753 300.08413 
L 222.87773 298.16286 
L 224.370707 300.113763 
L 225.863683 300.577448 
L 227.35666 298.166055 
L 228.849636 300.831807 
L 230.342613 300.760883 
L 231.835589 300.891014 
L 234.821543 300.772488 
L 236.314519 300.96983 
L 237.807496 300.094986 
L 239.300472 300.948554 
L 243.779402 301.005987 
L 431.894452 301.006875 
L 476.68375 301.006875 
L 476.68375 301.006875 
" style="fill:none;stroke:#008000;stroke-linecap:square;"/>
   </g>
   <g id="line2d_3">
    <path clip-path="url(#p0a892e24dc)" d="M 30.28375 13.139367 
L 31.776727 13.061572 
L 33.269703 13.067617 
L 64.622212 13.32794 
L 67.608165 13.409048 
L 69.101141 13.569722 
L 70.594118 13.385183 
L 72.087094 13.483088 
L 75.073048 13.792461 
L 76.566024 13.527616 
L 78.059001 13.979618 
L 79.551977 13.38861 
L 81.044954 13.624065 
L 82.537931 13.99646 
L 84.030907 13.776022 
L 85.523884 13.891803 
L 87.01686 13.666453 
L 90.002814 13.841322 
L 91.49579 14.232592 
L 92.988767 14.460757 
L 94.481743 14.327785 
L 95.97472 14.561137 
L 97.467696 15.290672 
L 98.960673 16.26655 
L 100.45365 15.426836 
L 101.946626 15.008264 
L 103.439603 15.786907 
L 104.932579 16.264284 
L 106.425556 15.549244 
L 107.918533 15.627889 
L 109.411509 14.959662 
L 110.904486 18.252034 
L 112.397462 15.782758 
L 113.890439 16.503233 
L 115.383416 16.983532 
L 116.876392 17.687773 
L 118.369369 22.411326 
L 119.862345 20.126077 
L 121.355322 17.432841 
L 122.848298 16.143673 
L 124.341275 18.723751 
L 125.834252 18.357003 
L 128.820205 19.712635 
L 130.313181 18.93129 
L 131.806158 22.1507 
L 133.299135 20.22041 
L 134.792111 20.345515 
L 136.285088 22.219652 
L 137.778064 24.611697 
L 139.271041 21.138023 
L 140.764018 28.687258 
L 142.256994 24.609828 
L 143.749971 21.908812 
L 145.242947 30.396587 
L 146.735924 40.814706 
L 148.228901 28.348467 
L 149.721877 37.042251 
L 151.214854 31.6264 
L 152.70783 31.866674 
L 154.200807 33.841211 
L 155.693783 45.718589 
L 157.18676 31.378305 
L 158.679737 50.166256 
L 160.172713 38.51432 
L 161.66569 38.928832 
L 164.651643 71.008885 
L 166.14462 64.24683 
L 167.637596 54.286721 
L 169.130573 62.020023 
L 170.623549 49.547301 
L 172.116526 53.461524 
L 173.609503 55.412104 
L 175.102479 66.153095 
L 176.595456 100.157569 
L 178.088432 116.465813 
L 179.581409 88.303556 
L 181.074385 103.682195 
L 182.567362 95.291167 
L 184.060339 82.366617 
L 185.553315 100.034538 
L 187.046292 164.817753 
L 188.539268 110.791076 
L 190.032245 78.839525 
L 191.525222 91.499574 
L 193.018198 121.409812 
L 194.511175 148.715729 
L 196.004151 139.123652 
L 197.497128 176.356921 
L 198.990105 137.172654 
L 200.483081 141.864472 
L 201.976058 156.610592 
L 203.469034 166.382549 
L 204.962011 220.077706 
L 206.454987 208.576762 
L 207.947964 167.259295 
L 209.440941 196.567133 
L 210.933917 249.217071 
L 212.426894 186.101579 
L 213.91987 223.785705 
L 215.412847 155.472553 
L 216.905824 180.223041 
L 218.3988 243.015863 
L 219.891777 295.078816 
L 221.384753 300.503154 
L 222.87773 234.374534 
L 224.370707 278.650282 
L 225.863683 294.362938 
L 227.35666 267.464241 
L 228.849636 283.253822 
L 230.342613 294.328565 
L 231.835589 299.172292 
L 233.328566 272.727526 
L 234.821543 288.053664 
L 236.314519 296.902856 
L 237.807496 298.590596 
L 239.300472 297.201512 
L 240.793449 300.772879 
L 242.286426 298.084584 
L 243.779402 300.475026 
L 245.272379 300.471023 
L 246.765355 300.078564 
L 248.258332 301.001253 
L 249.751309 300.957306 
L 251.244285 298.181899 
L 252.737262 301.003708 
L 254.230238 300.834486 
L 255.723215 300.383686 
L 257.216191 301.006044 
L 260.202145 300.828273 
L 263.188098 301.006557 
L 476.68375 301.006875 
L 476.68375 301.006875 
" style="fill:none;stroke:#ff0000;stroke-linecap:square;"/>
   </g>
   <g id="line2d_4">
    <path clip-path="url(#p0a892e24dc)" d="M 30.28375 13.023346 
L 67.608165 13.050354 
L 72.087094 13.168989 
L 75.073048 13.131522 
L 78.059001 13.103267 
L 82.537931 13.111426 
L 87.01686 13.162921 
L 92.988767 13.232223 
L 94.481743 13.407149 
L 95.97472 13.124991 
L 101.946626 13.302059 
L 103.439603 13.201684 
L 106.425556 13.499844 
L 107.918533 13.383153 
L 109.411509 13.731318 
L 110.904486 13.439568 
L 112.397462 13.474018 
L 113.890439 13.863202 
L 115.383416 13.6294 
L 116.876392 14.021118 
L 118.369369 13.613399 
L 119.862345 13.549869 
L 121.355322 13.653499 
L 122.848298 13.899517 
L 124.341275 14.355318 
L 125.834252 13.839197 
L 127.327228 13.640757 
L 128.820205 13.983822 
L 130.313181 13.652055 
L 131.806158 14.917251 
L 133.299135 14.516353 
L 134.792111 14.828464 
L 136.285088 14.145467 
L 137.778064 14.56068 
L 139.271041 14.219772 
L 140.764018 15.537283 
L 142.256994 14.378394 
L 143.749971 15.394499 
L 146.735924 15.015199 
L 148.228901 16.967657 
L 149.721877 14.85339 
L 151.214854 15.975125 
L 154.200807 17.258575 
L 155.693783 16.791122 
L 157.18676 16.198874 
L 158.679737 16.969551 
L 160.172713 15.821835 
L 161.66569 15.601107 
L 163.158666 15.795042 
L 164.651643 16.362502 
L 166.14462 18.921556 
L 167.637596 18.528296 
L 169.130573 22.12515 
L 170.623549 19.44417 
L 172.116526 17.353257 
L 173.609503 23.267 
L 175.102479 25.25282 
L 176.595456 20.240124 
L 178.088432 21.70609 
L 179.581409 22.70014 
L 181.074385 24.029481 
L 182.567362 21.552203 
L 184.060339 22.625535 
L 185.553315 27.048952 
L 187.046292 24.211725 
L 188.539268 34.547368 
L 190.032245 25.306014 
L 191.525222 25.966592 
L 193.018198 31.837144 
L 194.511175 31.628485 
L 196.004151 29.020017 
L 197.497128 37.190234 
L 198.990105 37.331344 
L 200.483081 33.417991 
L 201.976058 38.850784 
L 203.469034 54.448462 
L 204.962011 65.880579 
L 206.454987 45.015631 
L 207.947964 31.775215 
L 209.440941 42.582431 
L 210.933917 62.731315 
L 212.426894 53.736819 
L 213.91987 64.05149 
L 215.412847 62.312696 
L 216.905824 59.110373 
L 218.3988 51.644879 
L 219.891777 64.140286 
L 221.384753 64.512753 
L 222.87773 71.755946 
L 224.370707 61.01373 
L 225.863683 62.331865 
L 227.35666 79.360241 
L 228.849636 59.040736 
L 230.342613 115.396682 
L 231.835589 89.415751 
L 233.328566 85.790206 
L 234.821543 102.962008 
L 236.314519 127.676467 
L 237.807496 163.957774 
L 239.300472 125.22655 
L 240.793449 116.26598 
L 242.286426 123.635536 
L 243.779402 110.244743 
L 245.272379 128.080819 
L 246.765355 118.126452 
L 248.258332 125.031343 
L 249.751309 198.962813 
L 251.244285 195.356171 
L 252.737262 177.476533 
L 254.230238 165.026388 
L 255.723215 183.298452 
L 257.216191 182.562925 
L 258.709168 156.189801 
L 260.202145 207.129759 
L 261.695121 162.586109 
L 263.188098 187.297252 
L 264.681074 182.119205 
L 266.174051 267.516974 
L 267.667028 267.691247 
L 269.160004 229.411664 
L 270.652981 247.319276 
L 272.145957 253.675782 
L 273.638934 261.023157 
L 275.131911 286.027382 
L 276.624887 295.112336 
L 278.117864 292.830965 
L 279.61084 288.08148 
L 281.103817 287.390721 
L 282.596793 298.419491 
L 284.08977 296.834186 
L 285.582747 290.672531 
L 287.075723 295.945466 
L 288.5687 273.68043 
L 290.061676 299.143681 
L 291.554653 294.554003 
L 293.04763 300.873565 
L 294.540606 297.853445 
L 296.033583 300.869367 
L 297.526559 300.18065 
L 299.019536 299.716648 
L 300.512513 300.899037 
L 302.005489 299.350923 
L 303.498466 300.949679 
L 304.991442 300.821755 
L 306.484419 300.089278 
L 307.977395 301.006647 
L 316.935255 300.986749 
L 331.865021 301.006875 
L 476.68375 301.006875 
L 476.68375 301.006875 
" style="fill:none;stroke:#00bfbf;stroke-linecap:square;"/>
   </g>
   <g id="line2d_5">
    <path clip-path="url(#p0a892e24dc)" d="M 30.28375 13.009598 
L 122.848298 13.178644 
L 125.834252 13.319918 
L 133.299135 13.248141 
L 136.285088 13.143593 
L 137.778064 13.352562 
L 139.271041 13.254988 
L 140.764018 13.471205 
L 142.256994 13.534174 
L 143.749971 13.468484 
L 145.242947 13.669399 
L 146.735924 13.69872 
L 149.721877 13.264067 
L 151.214854 14.002889 
L 152.70783 13.391087 
L 154.200807 13.919458 
L 155.693783 13.751129 
L 157.18676 14.044804 
L 158.679737 13.770843 
L 160.172713 13.963507 
L 161.66569 13.675074 
L 163.158666 14.192939 
L 164.651643 14.193064 
L 166.14462 15.031342 
L 167.637596 14.465433 
L 169.130573 14.407081 
L 170.623549 14.63389 
L 172.116526 14.702021 
L 173.609503 14.593943 
L 175.102479 14.796901 
L 176.595456 14.210377 
L 178.088432 14.815594 
L 179.581409 16.050109 
L 181.074385 15.012791 
L 182.567362 15.46524 
L 184.060339 14.752693 
L 185.553315 16.031499 
L 187.046292 16.204695 
L 188.539268 16.831265 
L 190.032245 15.208993 
L 191.525222 17.304142 
L 193.018198 17.897959 
L 194.511175 17.126616 
L 196.004151 17.990723 
L 197.497128 17.18643 
L 198.990105 16.254888 
L 200.483081 16.452901 
L 201.976058 21.258032 
L 203.469034 19.128401 
L 206.454987 18.26846 
L 207.947964 26.172839 
L 209.440941 23.287071 
L 210.933917 18.786736 
L 212.426894 19.380421 
L 213.91987 20.453907 
L 216.905824 21.158717 
L 218.3988 23.494312 
L 219.891777 22.981744 
L 221.384753 31.563313 
L 222.87773 28.284402 
L 225.863683 20.75691 
L 227.35666 33.461893 
L 228.849636 28.383052 
L 230.342613 24.614142 
L 231.835589 35.459056 
L 233.328566 29.273938 
L 234.821543 37.480631 
L 236.314519 43.238109 
L 237.807496 32.727473 
L 239.300472 43.295653 
L 240.793449 27.834986 
L 242.286426 46.258572 
L 243.779402 47.285064 
L 245.272379 46.709007 
L 246.765355 37.606139 
L 248.258332 38.817704 
L 249.751309 56.290959 
L 251.244285 52.567328 
L 252.737262 58.069655 
L 254.230238 51.614044 
L 255.723215 75.331718 
L 257.216191 58.151957 
L 258.709168 75.999061 
L 260.202145 57.562399 
L 261.695121 61.797214 
L 263.188098 88.907637 
L 264.681074 49.5515 
L 266.174051 67.290688 
L 267.667028 79.087536 
L 269.160004 119.349549 
L 270.652981 71.220916 
L 272.145957 81.356444 
L 273.638934 132.803438 
L 275.131911 87.189235 
L 276.624887 94.722999 
L 278.117864 88.630919 
L 279.61084 101.546248 
L 281.103817 93.585558 
L 282.596793 113.778157 
L 284.08977 154.230321 
L 285.582747 125.349952 
L 287.075723 144.013568 
L 288.5687 127.031807 
L 290.061676 159.592773 
L 291.554653 172.383325 
L 293.04763 125.674066 
L 294.540606 166.507604 
L 296.033583 133.29289 
L 297.526559 159.8907 
L 299.019536 229.329483 
L 300.512513 154.813205 
L 302.005489 206.850335 
L 303.498466 195.442199 
L 304.991442 190.942314 
L 306.484419 249.853466 
L 307.977395 219.544793 
L 309.470372 236.481232 
L 310.963349 238.247966 
L 312.456325 257.362943 
L 313.949302 228.451793 
L 315.442278 203.614856 
L 316.935255 290.236811 
L 318.428232 261.91816 
L 319.921208 290.073135 
L 321.414185 290.900383 
L 322.907161 261.717943 
L 324.400138 257.601682 
L 325.893115 287.848987 
L 327.386091 295.732618 
L 328.879068 294.465933 
L 330.372044 295.226373 
L 331.865021 298.213962 
L 333.357997 293.994622 
L 334.850974 296.475136 
L 336.343951 284.079433 
L 337.836927 275.936029 
L 339.329904 297.005256 
L 340.82288 300.075015 
L 342.315857 300.947016 
L 343.808834 300.975517 
L 345.30181 300.426969 
L 346.794787 300.999816 
L 348.287763 300.549705 
L 351.273717 301.006584 
L 476.68375 301.006875 
L 476.68375 301.006875 
" style="fill:none;stroke:#bf00bf;stroke-linecap:square;"/>
   </g>
   <g id="line2d_6">
    <path clip-path="url(#p0a892e24dc)" d="M 30.28375 13.007822 
L 124.341275 13.046224 
L 127.327228 13.072055 
L 155.693783 13.139403 
L 158.679737 13.144955 
L 166.14462 13.22949 
L 167.637596 13.403649 
L 169.130573 13.205589 
L 170.623549 13.365569 
L 172.116526 13.383357 
L 173.609503 13.269792 
L 176.595456 13.607465 
L 178.088432 13.358916 
L 179.581409 13.299297 
L 181.074385 13.536559 
L 185.553315 13.378377 
L 187.046292 13.439247 
L 188.539268 13.851095 
L 190.032245 13.440069 
L 191.525222 14.539499 
L 193.018198 13.998178 
L 194.511175 14.126508 
L 196.004151 13.789497 
L 198.990105 13.775238 
L 200.483081 13.904143 
L 201.976058 14.169257 
L 203.469034 15.508015 
L 204.962011 14.329511 
L 206.454987 14.06406 
L 207.947964 14.095722 
L 209.440941 14.48415 
L 210.933917 14.458443 
L 212.426894 15.523651 
L 213.91987 15.200155 
L 215.412847 14.447456 
L 216.905824 16.873771 
L 218.3988 15.521324 
L 219.891777 15.863051 
L 221.384753 16.577455 
L 222.87773 16.642277 
L 224.370707 18.618232 
L 225.863683 16.894979 
L 227.35666 18.886352 
L 228.849636 16.558487 
L 230.342613 21.851847 
L 231.835589 17.98935 
L 234.821543 16.935774 
L 237.807496 16.902361 
L 239.300472 17.76484 
L 240.793449 21.324733 
L 242.286426 20.150877 
L 243.779402 20.653617 
L 245.272379 19.550369 
L 246.765355 21.575671 
L 248.258332 20.990469 
L 249.751309 24.622802 
L 251.244285 19.644912 
L 252.737262 30.633932 
L 254.230238 23.487729 
L 255.723215 23.550903 
L 257.216191 25.103485 
L 258.709168 41.920649 
L 260.202145 27.697748 
L 261.695121 32.278435 
L 263.188098 31.681906 
L 264.681074 33.794063 
L 266.174051 38.962006 
L 267.667028 32.879724 
L 269.160004 38.810487 
L 270.652981 31.713538 
L 272.145957 26.288435 
L 273.638934 32.301848 
L 275.131911 44.844813 
L 276.624887 47.694921 
L 278.117864 61.015842 
L 279.61084 57.805309 
L 281.103817 53.550135 
L 282.596793 76.514318 
L 284.08977 52.901035 
L 285.582747 71.839857 
L 287.075723 80.77673 
L 288.5687 92.665508 
L 290.061676 43.938521 
L 291.554653 85.782473 
L 293.04763 50.20131 
L 294.540606 79.961762 
L 296.033583 77.79427 
L 297.526559 83.307873 
L 299.019536 75.920549 
L 302.005489 126.357188 
L 303.498466 121.78819 
L 304.991442 124.049622 
L 306.484419 155.483599 
L 307.977395 121.563002 
L 309.470372 224.311623 
L 310.963349 162.320584 
L 312.456325 130.944337 
L 313.949302 186.635313 
L 315.442278 154.16819 
L 316.935255 165.547977 
L 318.428232 212.900089 
L 319.921208 207.319673 
L 321.414185 244.232235 
L 322.907161 222.62806 
L 324.400138 258.936446 
L 325.893115 233.736882 
L 327.386091 178.47454 
L 328.879068 187.75198 
L 330.372044 222.696898 
L 331.865021 199.207468 
L 333.357997 202.949068 
L 334.850974 271.359457 
L 336.343951 258.815588 
L 337.836927 283.235731 
L 339.329904 286.707851 
L 340.82288 289.62489 
L 342.315857 293.18103 
L 343.808834 286.774406 
L 345.30181 294.203861 
L 346.794787 292.499504 
L 348.287763 293.627201 
L 349.78074 281.121837 
L 351.273717 297.550145 
L 352.766693 299.659 
L 354.25967 300.661145 
L 355.752646 300.759605 
L 357.245623 300.48546 
L 358.738599 300.997384 
L 360.231576 300.361125 
L 361.724553 298.675153 
L 363.217529 300.874936 
L 364.710506 300.180824 
L 366.203482 300.943883 
L 370.682412 301.002897 
L 372.175389 300.476793 
L 373.668365 301.004962 
L 375.161342 300.929283 
L 378.147295 301.006872 
L 443.838265 301.006875 
L 476.68375 301.006875 
L 476.68375 301.006875 
" style="fill:none;stroke:#bfbf00;stroke-linecap:square;"/>
   </g>
   <g id="line2d_7">
    <path clip-path="url(#p0a892e24dc)" d="M 30.28375 13.007023 
L 176.595456 13.083621 
L 178.088432 13.163802 
L 179.581409 13.068516 
L 185.553315 13.100255 
L 193.018198 13.209611 
L 194.511175 13.112685 
L 201.976058 13.313714 
L 204.962011 13.227445 
L 209.440941 13.522175 
L 210.933917 13.379774 
L 212.426894 13.424053 
L 213.91987 13.733528 
L 215.412847 13.497378 
L 216.905824 13.874494 
L 218.3988 13.470343 
L 219.891777 13.590953 
L 221.384753 13.873688 
L 222.87773 13.508604 
L 224.370707 13.687837 
L 225.863683 13.707384 
L 227.35666 13.956886 
L 228.849636 13.626878 
L 230.342613 14.009518 
L 231.835589 13.770734 
L 233.328566 13.864209 
L 234.821543 13.846339 
L 237.807496 15.117369 
L 239.300472 14.627244 
L 240.793449 15.057746 
L 242.286426 14.505706 
L 243.779402 14.547188 
L 245.272379 14.854214 
L 246.765355 14.718718 
L 248.258332 15.149497 
L 249.751309 15.168475 
L 251.244285 15.040126 
L 252.737262 15.142399 
L 254.230238 16.606725 
L 255.723215 16.431825 
L 257.216191 16.76919 
L 258.709168 16.035706 
L 260.202145 16.893727 
L 261.695121 14.828656 
L 263.188098 15.471489 
L 264.681074 17.474845 
L 266.174051 22.86605 
L 267.667028 23.120809 
L 269.160004 15.888583 
L 272.145957 24.464677 
L 273.638934 22.910154 
L 275.131911 24.522526 
L 276.624887 24.692868 
L 278.117864 21.976556 
L 279.61084 20.134954 
L 281.103817 21.561315 
L 282.596793 29.230053 
L 284.08977 23.36948 
L 285.582747 37.692725 
L 287.075723 29.876647 
L 288.5687 27.442994 
L 290.061676 22.904538 
L 291.554653 29.469673 
L 293.04763 50.779447 
L 294.540606 44.456592 
L 296.033583 46.069937 
L 297.526559 37.43865 
L 299.019536 61.467503 
L 300.512513 41.599503 
L 302.005489 50.003592 
L 303.498466 43.531699 
L 304.991442 61.383153 
L 306.484419 52.113379 
L 307.977395 60.665241 
L 309.470372 58.871417 
L 310.963349 60.39897 
L 312.456325 57.595426 
L 315.442278 83.547859 
L 316.935255 68.271747 
L 318.428232 76.900788 
L 319.921208 68.849733 
L 321.414185 94.044818 
L 322.907161 123.209021 
L 324.400138 72.786324 
L 325.893115 53.85878 
L 327.386091 121.493328 
L 328.879068 128.745626 
L 330.372044 101.212279 
L 331.865021 83.253873 
L 333.357997 110.081565 
L 334.850974 144.378629 
L 336.343951 118.204312 
L 337.836927 117.337499 
L 339.329904 139.665654 
L 340.82288 145.756072 
L 342.315857 169.020945 
L 343.808834 215.654829 
L 345.30181 156.641417 
L 346.794787 234.019326 
L 348.287763 203.962172 
L 349.78074 195.883198 
L 351.273717 210.005757 
L 352.766693 184.778565 
L 354.25967 251.012511 
L 355.752646 256.843653 
L 357.245623 270.439323 
L 358.738599 242.658179 
L 360.231576 234.87071 
L 361.724553 274.007998 
L 363.217529 299.056673 
L 364.710506 279.168933 
L 366.203482 289.831048 
L 367.696459 281.199331 
L 369.189436 270.065717 
L 370.682412 292.755372 
L 372.175389 300.725739 
L 373.668365 299.705041 
L 375.161342 295.252906 
L 376.654319 298.361787 
L 378.147295 294.2214 
L 379.640272 299.604751 
L 381.133248 296.467211 
L 382.626225 300.457736 
L 384.119202 300.565162 
L 385.612178 300.885622 
L 387.105155 300.916825 
L 388.598131 295.902112 
L 390.091108 300.958509 
L 391.584084 299.324409 
L 393.077061 300.984846 
L 400.541944 301.006438 
L 409.499804 301.006875 
L 458.768031 301.006875 
L 476.68375 301.006875 
L 476.68375 301.006875 
" style="fill:none;stroke:#000000;stroke-linecap:square;"/>
   </g>
   <g id="line2d_8">
    <path clip-path="url(#p0a892e24dc)" d="M 30.28375 13.006907 
L 206.454987 13.097161 
L 209.440941 13.108285 
L 212.426894 13.131602 
L 216.905824 13.093444 
L 225.863683 13.148148 
L 227.35666 13.104405 
L 228.849636 13.198745 
L 230.342613 13.157702 
L 233.328566 13.351424 
L 236.314519 13.290175 
L 237.807496 13.340773 
L 240.793449 13.273672 
L 242.286426 13.360207 
L 245.272379 13.241153 
L 248.258332 13.545662 
L 249.751309 13.380706 
L 251.244285 13.502302 
L 252.737262 13.30921 
L 255.723215 13.319243 
L 257.216191 13.61017 
L 258.709168 13.451061 
L 260.202145 13.754115 
L 261.695121 13.437231 
L 263.188098 14.038058 
L 264.681074 14.009679 
L 266.174051 13.648574 
L 267.667028 13.737597 
L 270.652981 14.288011 
L 272.145957 14.240593 
L 273.638934 13.687596 
L 275.131911 13.699468 
L 276.624887 14.361747 
L 278.117864 14.071384 
L 279.61084 14.476233 
L 281.103817 15.358132 
L 282.596793 15.487317 
L 284.08977 15.905043 
L 285.582747 14.684887 
L 287.075723 14.812386 
L 290.061676 15.407555 
L 291.554653 14.427412 
L 293.04763 14.408286 
L 294.540606 15.305251 
L 297.526559 15.86307 
L 299.019536 16.605302 
L 300.512513 14.254777 
L 302.005489 16.061757 
L 303.498466 19.64594 
L 304.991442 16.511794 
L 306.484419 16.227198 
L 307.977395 16.947572 
L 309.470372 20.480385 
L 310.963349 16.991565 
L 312.456325 17.357246 
L 313.949302 20.338847 
L 315.442278 21.025767 
L 316.935255 19.613999 
L 318.428232 18.55801 
L 319.921208 18.914353 
L 321.414185 19.749603 
L 322.907161 28.185167 
L 324.400138 26.393629 
L 325.893115 26.972422 
L 327.386091 29.568936 
L 328.879068 32.609009 
L 330.372044 25.979754 
L 331.865021 29.223776 
L 333.357997 24.161703 
L 334.850974 22.080868 
L 336.343951 28.734391 
L 337.836927 34.694475 
L 339.329904 27.448662 
L 340.82288 34.944918 
L 342.315857 35.551871 
L 343.808834 34.222321 
L 345.30181 25.449628 
L 346.794787 34.115661 
L 348.287763 41.480327 
L 349.78074 42.032354 
L 351.273717 36.261603 
L 352.766693 54.417298 
L 354.25967 33.414915 
L 355.752646 46.971366 
L 357.245623 49.443946 
L 358.738599 51.008441 
L 360.231576 92.697052 
L 361.724553 74.099487 
L 363.217529 51.34315 
L 364.710506 53.453557 
L 366.203482 70.75 
L 367.696459 69.358872 
L 369.189436 79.441971 
L 370.682412 92.253035 
L 372.175389 81.781591 
L 373.668365 85.840786 
L 375.161342 113.56382 
L 376.654319 103.31157 
L 378.147295 69.068227 
L 379.640272 92.007985 
L 381.133248 73.178255 
L 382.626225 101.567916 
L 384.119202 88.826699 
L 385.612178 146.567296 
L 387.105155 128.53193 
L 390.091108 109.812451 
L 391.584084 113.437043 
L 393.077061 138.378875 
L 394.570038 146.747216 
L 396.063014 104.765072 
L 397.555991 166.969044 
L 399.048967 137.762462 
L 400.541944 178.623864 
L 402.034921 201.161494 
L 403.527897 180.049625 
L 405.020874 203.096427 
L 406.51385 233.056062 
L 408.006827 194.000611 
L 409.499804 186.033411 
L 410.99278 241.742591 
L 412.485757 222.294611 
L 413.978733 217.947666 
L 415.47171 262.334866 
L 416.964686 241.561289 
L 418.457663 259.193322 
L 419.95064 204.48406 
L 421.443616 272.943471 
L 422.936593 293.440575 
L 424.429569 280.892019 
L 425.922546 258.512606 
L 427.415523 277.422452 
L 428.908499 247.032669 
L 430.401476 289.860609 
L 431.894452 294.641951 
L 433.387429 272.877201 
L 434.880406 296.063826 
L 436.373382 292.588997 
L 437.866359 300.296083 
L 439.359335 300.153899 
L 440.852312 300.496479 
L 442.345288 299.0911 
L 443.838265 300.110193 
L 445.331242 300.965536 
L 446.824218 300.906146 
L 448.317195 300.688239 
L 449.810171 301.002235 
L 451.303148 300.431621 
L 452.796125 301.000869 
L 454.289101 300.827564 
L 455.782078 300.265257 
L 457.275054 300.961159 
L 461.753984 301.006875 
L 476.68375 301.006875 
L 476.68375 301.006875 
" style="fill:none;stroke:#0000ff;stroke-linecap:square;"/>
   </g>
   <g id="patch_3">
    <path d="M 30.28375 301.006875 
L 30.28375 13.006875 
" style="fill:none;stroke:#000000;stroke-linecap:square;stroke-linejoin:miter;"/>
   </g>
   <g id="patch_4">
    <path d="M 30.28375 301.006875 
L 476.68375 301.006875 
" style="fill:none;stroke:#000000;stroke-linecap:square;stroke-linejoin:miter;"/>
   </g>
   <g id="patch_5">
    <path d="M 30.28375 13.006875 
L 476.68375 13.006875 
" style="fill:none;stroke:#000000;stroke-linecap:square;stroke-linejoin:miter;"/>
   </g>
   <g id="patch_6">
    <path d="M 476.68375 301.006875 
L 476.68375 13.006875 
" style="fill:none;stroke:#000000;stroke-linecap:square;stroke-linejoin:miter;"/>
   </g>
   <g id="matplotlib.axis_1">
    <g id="xtick_1">
     <g id="line2d_9">
      <defs>
       <path d="M 0 0 
L 0 -4 
" id="md6167615f2" style="stroke:#000000;stroke-width:0.5;"/>
      </defs>
      <g>
       <use style="stroke:#000000;stroke-width:0.5;" x="30.28375" xlink:href="#md6167615f2" y="301.006875"/>
      </g>
     </g>
     <g id="line2d_10">
      <defs>
       <path d="M 0 0 
L 0 4 
" id="m34e349ea27" style="stroke:#000000;stroke-width:0.5;"/>
      </defs>
      <g>
       <use style="stroke:#000000;stroke-width:0.5;" x="30.28375" xlink:href="#m34e349ea27" y="13.006875"/>
      </g>
     </g>
     <g id="text_1">
      <!-- −10 -->
      <defs>
       <path d="M 10.59375 35.5 
L 73.1875 35.5 
L 73.1875 27.203125 
L 10.59375 27.203125 
z
" id="BitstreamVeraSans-Roman-2212"/>
       <path d="M 12.40625 8.296875 
L 28.515625 8.296875 
L 28.515625 63.921875 
L 10.984375 60.40625 
L 10.984375 69.390625 
L 28.421875 72.90625 
L 38.28125 72.90625 
L 38.28125 8.296875 
L 54.390625 8.296875 
L 54.390625 0 
L 12.40625 0 
z
" id="BitstreamVeraSans-Roman-31"/>
       <path d="M 31.78125 66.40625 
Q 24.171875 66.40625 20.328125 58.90625 
Q 16.5 51.421875 16.5 36.375 
Q 16.5 21.390625 20.328125 13.890625 
Q 24.171875 6.390625 31.78125 6.390625 
Q 39.453125 6.390625 43.28125 13.890625 
Q 47.125 21.390625 47.125 36.375 
Q 47.125 51.421875 43.28125 58.90625 
Q 39.453125 66.40625 31.78125 66.40625 
M 31.78125 74.21875 
Q 44.046875 74.21875 50.515625 64.515625 
Q 56.984375 54.828125 56.984375 36.375 
Q 56.984375 17.96875 50.515625 8.265625 
Q 44.046875 -1.421875 31.78125 -1.421875 
Q 19.53125 -1.421875 13.0625 8.265625 
Q 6.59375 17.96875 6.59375 36.375 
Q 6.59375 54.828125 13.0625 64.515625 
Q 19.53125 74.21875 31.78125 74.21875 
" id="BitstreamVeraSans-Roman-30"/>
      </defs>
      <g transform="translate(17.6209375 314.125)scale(0.12 -0.12)">
       <use xlink:href="#BitstreamVeraSans-Roman-2212"/>
       <use x="83.7890625" xlink:href="#BitstreamVeraSans-Roman-31"/>
       <use x="147.412109375" xlink:href="#BitstreamVeraSans-Roman-30"/>
      </g>
     </g>
    </g>
    <g id="xtick_2">
     <g id="line2d_11">
      <g>
       <use style="stroke:#000000;stroke-width:0.5;" x="141.88375" xlink:href="#md6167615f2" y="301.006875"/>
      </g>
     </g>
     <g id="line2d_12">
      <g>
       <use style="stroke:#000000;stroke-width:0.5;" x="141.88375" xlink:href="#m34e349ea27" y="13.006875"/>
      </g>
     </g>
     <g id="text_2">
      <!-- −5 -->
      <defs>
       <path d="M 10.796875 72.90625 
L 49.515625 72.90625 
L 49.515625 64.59375 
L 19.828125 64.59375 
L 19.828125 46.734375 
Q 21.96875 47.46875 24.109375 47.828125 
Q 26.265625 48.1875 28.421875 48.1875 
Q 40.625 48.1875 47.75 41.5 
Q 54.890625 34.8125 54.890625 23.390625 
Q 54.890625 11.625 47.5625 5.09375 
Q 40.234375 -1.421875 26.90625 -1.421875 
Q 22.3125 -1.421875 17.546875 -0.640625 
Q 12.796875 0.140625 7.71875 1.703125 
L 7.71875 11.625 
Q 12.109375 9.234375 16.796875 8.0625 
Q 21.484375 6.890625 26.703125 6.890625 
Q 35.15625 6.890625 40.078125 11.328125 
Q 45.015625 15.765625 45.015625 23.390625 
Q 45.015625 31 40.078125 35.4375 
Q 35.15625 39.890625 26.703125 39.890625 
Q 22.75 39.890625 18.8125 39.015625 
Q 14.890625 38.140625 10.796875 36.28125 
z
" id="BitstreamVeraSans-Roman-35"/>
      </defs>
      <g transform="translate(133.0384375 314.125)scale(0.12 -0.12)">
       <use xlink:href="#BitstreamVeraSans-Roman-2212"/>
       <use x="83.7890625" xlink:href="#BitstreamVeraSans-Roman-35"/>
      </g>
     </g>
    </g>
    <g id="xtick_3">
     <g id="line2d_13">
      <g>
       <use style="stroke:#000000;stroke-width:0.5;" x="253.48375" xlink:href="#md6167615f2" y="301.006875"/>
      </g>
     </g>
     <g id="line2d_14">
      <g>
       <use style="stroke:#000000;stroke-width:0.5;" x="253.48375" xlink:href="#m34e349ea27" y="13.006875"/>
      </g>
     </g>
     <g id="text_3">
      <!-- 0 -->
      <g transform="translate(249.66625 314.125)scale(0.12 -0.12)">
       <use xlink:href="#BitstreamVeraSans-Roman-30"/>
      </g>
     </g>
    </g>
    <g id="xtick_4">
     <g id="line2d_15">
      <g>
       <use style="stroke:#000000;stroke-width:0.5;" x="365.08375" xlink:href="#md6167615f2" y="301.006875"/>
      </g>
     </g>
     <g id="line2d_16">
      <g>
       <use style="stroke:#000000;stroke-width:0.5;" x="365.08375" xlink:href="#m34e349ea27" y="13.006875"/>
      </g>
     </g>
     <g id="text_4">
      <!-- 5 -->
      <g transform="translate(361.26625 314.125)scale(0.12 -0.12)">
       <use xlink:href="#BitstreamVeraSans-Roman-35"/>
      </g>
     </g>
    </g>
    <g id="xtick_5">
     <g id="line2d_17">
      <g>
       <use style="stroke:#000000;stroke-width:0.5;" x="476.68375" xlink:href="#md6167615f2" y="301.006875"/>
      </g>
     </g>
     <g id="line2d_18">
      <g>
       <use style="stroke:#000000;stroke-width:0.5;" x="476.68375" xlink:href="#m34e349ea27" y="13.006875"/>
      </g>
     </g>
     <g id="text_5">
      <!-- 10 -->
      <g transform="translate(469.04875 314.125)scale(0.12 -0.12)">
       <use xlink:href="#BitstreamVeraSans-Roman-31"/>
       <use x="63.623046875" xlink:href="#BitstreamVeraSans-Roman-30"/>
      </g>
     </g>
    </g>
   </g>
   <g id="matplotlib.axis_2">
    <g id="ytick_1">
     <g id="line2d_19">
      <defs>
       <path d="M 0 0 
L 4 0 
" id="m0585a7bf89" style="stroke:#000000;stroke-width:0.5;"/>
      </defs>
      <g>
       <use style="stroke:#000000;stroke-width:0.5;" x="30.28375" xlink:href="#m0585a7bf89" y="301.006875"/>
      </g>
     </g>
     <g id="line2d_20">
      <defs>
       <path d="M 0 0 
L -4 0 
" id="m4e7e4f11a8" style="stroke:#000000;stroke-width:0.5;"/>
      </defs>
      <g>
       <use style="stroke:#000000;stroke-width:0.5;" x="476.68375" xlink:href="#m4e7e4f11a8" y="301.006875"/>
      </g>
     </g>
     <g id="text_6">
      <!-- 0.0 -->
      <defs>
       <path d="M 10.6875 12.40625 
L 21 12.40625 
L 21 0 
L 10.6875 0 
z
" id="BitstreamVeraSans-Roman-2e"/>
      </defs>
      <g transform="translate(7.2 304.318125)scale(0.12 -0.12)">
       <use xlink:href="#BitstreamVeraSans-Roman-30"/>
       <use x="63.623046875" xlink:href="#BitstreamVeraSans-Roman-2e"/>
       <use x="95.41015625" xlink:href="#BitstreamVeraSans-Roman-30"/>
      </g>
     </g>
    </g>
    <g id="ytick_2">
     <g id="line2d_21">
      <g>
       <use style="stroke:#000000;stroke-width:0.5;" x="30.28375" xlink:href="#m0585a7bf89" y="243.406875"/>
      </g>
     </g>
     <g id="line2d_22">
      <g>
       <use style="stroke:#000000;stroke-width:0.5;" x="476.68375" xlink:href="#m4e7e4f11a8" y="243.406875"/>
      </g>
     </g>
     <g id="text_7">
      <!-- 0.2 -->
      <defs>
       <path d="M 19.1875 8.296875 
L 53.609375 8.296875 
L 53.609375 0 
L 7.328125 0 
L 7.328125 8.296875 
Q 12.9375 14.109375 22.625 23.890625 
Q 32.328125 33.6875 34.8125 36.53125 
Q 39.546875 41.84375 41.421875 45.53125 
Q 43.3125 49.21875 43.3125 52.78125 
Q 43.3125 58.59375 39.234375 62.25 
Q 35.15625 65.921875 28.609375 65.921875 
Q 23.96875 65.921875 18.8125 64.3125 
Q 13.671875 62.703125 7.8125 59.421875 
L 7.8125 69.390625 
Q 13.765625 71.78125 18.9375 73 
Q 24.125 74.21875 28.421875 74.21875 
Q 39.75 74.21875 46.484375 68.546875 
Q 53.21875 62.890625 53.21875 53.421875 
Q 53.21875 48.921875 51.53125 44.890625 
Q 49.859375 40.875 45.40625 35.40625 
Q 44.1875 33.984375 37.640625 27.21875 
Q 31.109375 20.453125 19.1875 8.296875 
" id="BitstreamVeraSans-Roman-32"/>
      </defs>
      <g transform="translate(7.2 246.718125)scale(0.12 -0.12)">
       <use xlink:href="#BitstreamVeraSans-Roman-30"/>
       <use x="63.623046875" xlink:href="#BitstreamVeraSans-Roman-2e"/>
       <use x="95.41015625" xlink:href="#BitstreamVeraSans-Roman-32"/>
      </g>
     </g>
    </g>
    <g id="ytick_3">
     <g id="line2d_23">
      <g>
       <use style="stroke:#000000;stroke-width:0.5;" x="30.28375" xlink:href="#m0585a7bf89" y="185.806875"/>
      </g>
     </g>
     <g id="line2d_24">
      <g>
       <use style="stroke:#000000;stroke-width:0.5;" x="476.68375" xlink:href="#m4e7e4f11a8" y="185.806875"/>
      </g>
     </g>
     <g id="text_8">
      <!-- 0.4 -->
      <defs>
       <path d="M 37.796875 64.3125 
L 12.890625 25.390625 
L 37.796875 25.390625 
z
M 35.203125 72.90625 
L 47.609375 72.90625 
L 47.609375 25.390625 
L 58.015625 25.390625 
L 58.015625 17.1875 
L 47.609375 17.1875 
L 47.609375 0 
L 37.796875 0 
L 37.796875 17.1875 
L 4.890625 17.1875 
L 4.890625 26.703125 
z
" id="BitstreamVeraSans-Roman-34"/>
      </defs>
      <g transform="translate(7.2 189.118125)scale(0.12 -0.12)">
       <use xlink:href="#BitstreamVeraSans-Roman-30"/>
       <use x="63.623046875" xlink:href="#BitstreamVeraSans-Roman-2e"/>
       <use x="95.41015625" xlink:href="#BitstreamVeraSans-Roman-34"/>
      </g>
     </g>
    </g>
    <g id="ytick_4">
     <g id="line2d_25">
      <g>
       <use style="stroke:#000000;stroke-width:0.5;" x="30.28375" xlink:href="#m0585a7bf89" y="128.206875"/>
      </g>
     </g>
     <g id="line2d_26">
      <g>
       <use style="stroke:#000000;stroke-width:0.5;" x="476.68375" xlink:href="#m4e7e4f11a8" y="128.206875"/>
      </g>
     </g>
     <g id="text_9">
      <!-- 0.6 -->
      <defs>
       <path d="M 33.015625 40.375 
Q 26.375 40.375 22.484375 35.828125 
Q 18.609375 31.296875 18.609375 23.390625 
Q 18.609375 15.53125 22.484375 10.953125 
Q 26.375 6.390625 33.015625 6.390625 
Q 39.65625 6.390625 43.53125 10.953125 
Q 47.40625 15.53125 47.40625 23.390625 
Q 47.40625 31.296875 43.53125 35.828125 
Q 39.65625 40.375 33.015625 40.375 
M 52.59375 71.296875 
L 52.59375 62.3125 
Q 48.875 64.0625 45.09375 64.984375 
Q 41.3125 65.921875 37.59375 65.921875 
Q 27.828125 65.921875 22.671875 59.328125 
Q 17.53125 52.734375 16.796875 39.40625 
Q 19.671875 43.65625 24.015625 45.921875 
Q 28.375 48.1875 33.59375 48.1875 
Q 44.578125 48.1875 50.953125 41.515625 
Q 57.328125 34.859375 57.328125 23.390625 
Q 57.328125 12.15625 50.6875 5.359375 
Q 44.046875 -1.421875 33.015625 -1.421875 
Q 20.359375 -1.421875 13.671875 8.265625 
Q 6.984375 17.96875 6.984375 36.375 
Q 6.984375 53.65625 15.1875 63.9375 
Q 23.390625 74.21875 37.203125 74.21875 
Q 40.921875 74.21875 44.703125 73.484375 
Q 48.484375 72.75 52.59375 71.296875 
" id="BitstreamVeraSans-Roman-36"/>
      </defs>
      <g transform="translate(7.2 131.518125)scale(0.12 -0.12)">
       <use xlink:href="#BitstreamVeraSans-Roman-30"/>
       <use x="63.623046875" xlink:href="#BitstreamVeraSans-Roman-2e"/>
       <use x="95.41015625" xlink:href="#BitstreamVeraSans-Roman-36"/>
      </g>
     </g>
    </g>
    <g id="ytick_5">
     <g id="line2d_27">
      <g>
       <use style="stroke:#000000;stroke-width:0.5;" x="30.28375" xlink:href="#m0585a7bf89" y="70.606875"/>
      </g>
     </g>
     <g id="line2d_28">
      <g>
       <use style="stroke:#000000;stroke-width:0.5;" x="476.68375" xlink:href="#m4e7e4f11a8" y="70.606875"/>
      </g>
     </g>
     <g id="text_10">
      <!-- 0.8 -->
      <defs>
       <path d="M 31.78125 34.625 
Q 24.75 34.625 20.71875 30.859375 
Q 16.703125 27.09375 16.703125 20.515625 
Q 16.703125 13.921875 20.71875 10.15625 
Q 24.75 6.390625 31.78125 6.390625 
Q 38.8125 6.390625 42.859375 10.171875 
Q 46.921875 13.96875 46.921875 20.515625 
Q 46.921875 27.09375 42.890625 30.859375 
Q 38.875 34.625 31.78125 34.625 
M 21.921875 38.8125 
Q 15.578125 40.375 12.03125 44.71875 
Q 8.5 49.078125 8.5 55.328125 
Q 8.5 64.0625 14.71875 69.140625 
Q 20.953125 74.21875 31.78125 74.21875 
Q 42.671875 74.21875 48.875 69.140625 
Q 55.078125 64.0625 55.078125 55.328125 
Q 55.078125 49.078125 51.53125 44.71875 
Q 48 40.375 41.703125 38.8125 
Q 48.828125 37.15625 52.796875 32.3125 
Q 56.78125 27.484375 56.78125 20.515625 
Q 56.78125 9.90625 50.3125 4.234375 
Q 43.84375 -1.421875 31.78125 -1.421875 
Q 19.734375 -1.421875 13.25 4.234375 
Q 6.78125 9.90625 6.78125 20.515625 
Q 6.78125 27.484375 10.78125 32.3125 
Q 14.796875 37.15625 21.921875 38.8125 
M 18.3125 54.390625 
Q 18.3125 48.734375 21.84375 45.5625 
Q 25.390625 42.390625 31.78125 42.390625 
Q 38.140625 42.390625 41.71875 45.5625 
Q 45.3125 48.734375 45.3125 54.390625 
Q 45.3125 60.0625 41.71875 63.234375 
Q 38.140625 66.40625 31.78125 66.40625 
Q 25.390625 66.40625 21.84375 63.234375 
Q 18.3125 60.0625 18.3125 54.390625 
" id="BitstreamVeraSans-Roman-38"/>
      </defs>
      <g transform="translate(7.2 73.918125)scale(0.12 -0.12)">
       <use xlink:href="#BitstreamVeraSans-Roman-30"/>
       <use x="63.623046875" xlink:href="#BitstreamVeraSans-Roman-2e"/>
       <use x="95.41015625" xlink:href="#BitstreamVeraSans-Roman-38"/>
      </g>
     </g>
    </g>
    <g id="ytick_6">
     <g id="line2d_29">
      <g>
       <use style="stroke:#000000;stroke-width:0.5;" x="30.28375" xlink:href="#m0585a7bf89" y="13.006875"/>
      </g>
     </g>
     <g id="line2d_30">
      <g>
       <use style="stroke:#000000;stroke-width:0.5;" x="476.68375" xlink:href="#m4e7e4f11a8" y="13.006875"/>
      </g>
     </g>
     <g id="text_11">
      <!-- 1.0 -->
      <g transform="translate(7.2 16.318125)scale(0.12 -0.12)">
       <use xlink:href="#BitstreamVeraSans-Roman-31"/>
       <use x="63.623046875" xlink:href="#BitstreamVeraSans-Roman-2e"/>
       <use x="95.41015625" xlink:href="#BitstreamVeraSans-Roman-30"/>
      </g>
     </g>
    </g>
   </g>
  </g>
 </g>
 <defs>
  <clipPath id="p0a892e24dc">
   <rect height="288.0" width="446.4" x="30.28375" y="13.006875"/>
  </clipPath>
 </defs>
</svg>
