<?xml version="1.0" encoding="utf-8" standalone="no"?>
<!DOCTYPE svg PUBLIC "-//W3C//DTD SVG 1.1//EN"
  "http://www.w3.org/Graphics/SVG/1.1/DTD/svg11.dtd">
<!-- Created with matplotlib (http://matplotlib.org/) -->
<svg height="350pt" version="1.1" viewBox="0 0 508 350" width="508pt" xmlns="http://www.w3.org/2000/svg" xmlns:xlink="http://www.w3.org/1999/xlink">
 <defs>
  <style type="text/css">
*{stroke-linecap:butt;stroke-linejoin:round;stroke-miterlimit:100000;}
  </style>
 </defs>
 <g id="figure_1">
  <g id="patch_1">
   <path d="M 0 350.56925 
L 508.1325 350.56925 
L 508.1325 0 
L 0 0 
z
" style="fill:#ffffff;"/>
  </g>
  <g id="axes_1">
   <g id="patch_2">
    <path d="M 46.8975 311.14175 
L 493.2975 311.14175 
L 493.2975 23.14175 
L 46.8975 23.14175 
z
" style="fill:#ffffff;"/>
   </g>
   <g id="line2d_1">
    <path clip-path="url(#p1b47a4ce26)" d="M 46.8975 24.430167 
L 48.390477 24.745296 
L 49.883453 25.758254 
L 51.37643 24.857757 
L 52.869406 24.290109 
L 54.362383 25.229034 
L 55.85536 25.159266 
L 57.348336 26.374241 
L 58.841313 26.194696 
L 60.334289 24.310199 
L 61.827266 26.065534 
L 63.320242 26.465972 
L 64.813219 26.342351 
L 66.306196 25.773788 
L 67.799172 25.800176 
L 69.292149 26.378698 
L 70.785125 26.512652 
L 72.278102 27.145988 
L 73.771079 31.222911 
L 75.264055 27.732864 
L 76.757032 28.445642 
L 78.250008 26.673329 
L 79.742985 28.433222 
L 81.235962 29.426068 
L 82.728938 30.94113 
L 84.221915 31.023962 
L 85.714891 28.270958 
L 87.207868 30.192736 
L 88.700844 34.697262 
L 90.193821 32.10475 
L 91.686798 33.262318 
L 93.179774 28.128898 
L 94.672751 35.135262 
L 96.165727 32.352559 
L 97.658704 33.111789 
L 99.151681 37.044901 
L 100.644657 34.190299 
L 102.137634 39.340664 
L 103.63061 36.959002 
L 105.123587 40.014382 
L 106.616564 34.530182 
L 108.10954 37.805499 
L 111.095493 46.661298 
L 112.58847 45.034083 
L 114.081446 47.484332 
L 115.574423 39.767327 
L 117.0674 39.077553 
L 118.560376 44.14758 
L 120.053353 57.560469 
L 121.546329 45.009692 
L 123.039306 54.669429 
L 124.532283 49.830433 
L 126.025259 53.255791 
L 127.518236 48.726122 
L 129.011212 76.108167 
L 130.504189 62.556233 
L 131.997166 79.369762 
L 133.490142 92.501344 
L 134.983119 62.978475 
L 136.476095 66.760172 
L 137.969072 96.925576 
L 139.462048 111.576456 
L 140.955025 70.067301 
L 142.448002 73.370043 
L 143.940978 114.860736 
L 145.433955 92.772607 
L 146.926931 105.159795 
L 148.419908 99.831081 
L 149.912885 97.502233 
L 151.405861 86.215319 
L 152.898838 100.902952 
L 154.391814 134.334754 
L 155.884791 126.877323 
L 157.377768 141.544522 
L 158.870744 176.677118 
L 160.363721 102.008927 
L 161.856697 126.744185 
L 163.349674 175.821973 
L 164.842651 137.899645 
L 166.335627 161.151087 
L 167.828604 165.207378 
L 169.32158 160.126162 
L 170.814557 133.618181 
L 172.307533 130.043077 
L 173.80051 175.282277 
L 175.293487 181.407867 
L 176.786463 246.924936 
L 178.27944 220.586716 
L 179.772416 230.445652 
L 181.265393 223.518581 
L 182.75837 228.787864 
L 184.251346 226.582282 
L 185.744323 229.937878 
L 187.237299 276.653093 
L 188.730276 281.745046 
L 190.223253 217.109301 
L 191.716229 249.200549 
L 193.209206 308.937806 
L 194.702182 302.641943 
L 196.195159 254.956233 
L 197.688135 290.450266 
L 199.181112 290.158258 
L 200.674089 281.809873 
L 202.167065 283.391343 
L 203.660042 308.246392 
L 205.153018 267.684481 
L 206.645995 298.29232 
L 208.138972 303.644062 
L 209.631948 308.114269 
L 211.124925 308.641139 
L 212.617901 293.042115 
L 214.110878 309.238303 
L 215.603855 310.657938 
L 217.096831 301.034745 
L 218.589808 310.573372 
L 220.082784 304.666008 
L 221.575761 310.140116 
L 223.068737 311.138518 
L 224.561714 311.127514 
L 226.054691 310.696475 
L 227.547667 309.498037 
L 229.040644 310.89896 
L 230.53362 310.87407 
L 232.026597 311.130696 
L 233.519574 310.571737 
L 235.01255 311.141694 
L 493.2975 311.14175 
L 493.2975 311.14175 
" style="fill:none;stroke:#0000ff;stroke-linecap:square;"/>
   </g>
   <g id="line2d_2">
    <path clip-path="url(#p1b47a4ce26)" d="M 46.8975 23.37891 
L 48.390477 23.529313 
L 49.883453 23.583992 
L 51.37643 23.407906 
L 52.869406 23.490858 
L 54.362383 23.409985 
L 55.85536 23.616326 
L 58.841313 23.354022 
L 60.334289 23.460633 
L 61.827266 23.874329 
L 63.320242 23.764464 
L 64.813219 23.920855 
L 66.306196 23.599253 
L 67.799172 23.966261 
L 70.785125 23.993263 
L 72.278102 24.285277 
L 73.771079 24.001326 
L 75.264055 24.359185 
L 76.757032 24.15634 
L 78.250008 24.500391 
L 79.742985 24.571399 
L 81.235962 24.381935 
L 82.728938 23.996122 
L 84.221915 24.515026 
L 85.714891 24.201596 
L 87.207868 24.39915 
L 88.700844 24.94507 
L 90.193821 25.636776 
L 91.686798 25.463393 
L 93.179774 24.401759 
L 94.672751 25.288356 
L 96.165727 25.675277 
L 97.658704 25.748728 
L 99.151681 25.510586 
L 100.644657 26.44469 
L 102.137634 27.067493 
L 103.63061 26.752811 
L 105.123587 27.193159 
L 106.616564 27.38915 
L 108.10954 30.946015 
L 109.602517 26.473655 
L 111.095493 29.380138 
L 112.58847 27.488772 
L 114.081446 27.535173 
L 115.574423 29.880526 
L 117.0674 30.515424 
L 118.560376 30.686657 
L 120.053353 27.789273 
L 121.546329 26.68714 
L 123.039306 32.872314 
L 124.532283 28.657104 
L 126.025259 29.651049 
L 127.518236 31.708976 
L 129.011212 30.16674 
L 130.504189 30.308162 
L 131.997166 31.88254 
L 133.490142 32.690226 
L 134.983119 32.690217 
L 136.476095 28.959098 
L 137.969072 33.302419 
L 139.462048 36.568814 
L 140.955025 31.445373 
L 142.448002 42.587393 
L 143.940978 33.174623 
L 145.433955 41.900015 
L 146.926931 37.308949 
L 148.419908 34.97329 
L 149.912885 45.498415 
L 151.405861 45.539023 
L 152.898838 43.753193 
L 154.391814 52.674881 
L 155.884791 44.599354 
L 157.377768 48.002387 
L 158.870744 53.218291 
L 160.363721 52.778946 
L 161.856697 52.05583 
L 163.349674 42.187552 
L 164.842651 48.982301 
L 166.335627 89.482792 
L 167.828604 54.782101 
L 169.32158 72.153048 
L 170.814557 76.284271 
L 172.307533 59.950212 
L 173.80051 66.08515 
L 175.293487 94.429403 
L 176.786463 72.965354 
L 178.27944 121.248045 
L 179.772416 75.607177 
L 181.265393 128.604786 
L 182.75837 86.191656 
L 184.251346 83.779647 
L 185.744323 87.047997 
L 187.237299 120.333195 
L 188.730276 150.177608 
L 190.223253 151.190264 
L 191.716229 142.51732 
L 193.209206 124.82797 
L 194.702182 166.112681 
L 196.195159 160.53748 
L 197.688135 135.018429 
L 199.181112 125.829714 
L 200.674089 190.821879 
L 202.167065 229.138024 
L 203.660042 144.652944 
L 205.153018 243.297494 
L 206.645995 194.123069 
L 208.138972 150.339234 
L 209.631948 196.384706 
L 211.124925 208.171677 
L 212.617901 223.228263 
L 214.110878 272.71557 
L 215.603855 205.393732 
L 217.096831 237.691143 
L 218.589808 203.063377 
L 220.082784 273.01112 
L 221.575761 273.326962 
L 223.068737 294.213455 
L 224.561714 287.929687 
L 226.054691 282.426821 
L 227.547667 266.677286 
L 229.040644 307.80429 
L 230.53362 294.790135 
L 232.026597 306.331515 
L 233.519574 293.217898 
L 235.01255 292.718655 
L 236.505527 303.476658 
L 237.998503 301.844262 
L 239.49148 310.705625 
L 240.984457 310.643818 
L 242.477433 310.965403 
L 243.97041 310.648429 
L 245.463386 309.798951 
L 246.956363 309.486132 
L 248.449339 308.933 
L 249.942316 309.752247 
L 251.435293 311.120416 
L 252.928269 311.048843 
L 257.407199 311.140927 
L 258.900176 310.163435 
L 260.393152 306.318582 
L 261.886129 311.118575 
L 269.351012 311.141749 
L 493.2975 311.14175 
L 493.2975 311.14175 
" style="fill:none;stroke:#008000;stroke-linecap:square;"/>
   </g>
   <g id="line2d_3">
    <path clip-path="url(#p1b47a4ce26)" d="M 46.8975 23.20165 
L 54.362383 23.242152 
L 57.348336 23.241091 
L 61.827266 23.252221 
L 75.264055 23.363538 
L 78.250008 23.446682 
L 79.742985 23.300752 
L 82.728938 23.35009 
L 84.221915 23.445249 
L 87.207868 23.357885 
L 88.700844 23.602477 
L 91.686798 23.62715 
L 96.165727 23.688835 
L 97.658704 23.882746 
L 99.151681 23.499558 
L 100.644657 23.703298 
L 102.137634 24.069387 
L 103.63061 23.678639 
L 105.123587 23.628079 
L 109.602517 24.343512 
L 111.095493 24.079881 
L 114.081446 24.018824 
L 115.574423 24.684567 
L 117.0674 24.509895 
L 118.560376 23.918956 
L 120.053353 24.461709 
L 121.546329 24.541879 
L 123.039306 24.990027 
L 124.532283 24.588354 
L 126.025259 24.701278 
L 127.518236 25.709752 
L 129.011212 24.872097 
L 130.504189 25.663481 
L 131.997166 24.76501 
L 133.490142 24.637315 
L 134.983119 25.830373 
L 136.476095 26.220592 
L 137.969072 26.933353 
L 139.462048 25.705558 
L 140.955025 26.01089 
L 142.448002 26.507987 
L 145.433955 26.06553 
L 146.926931 25.197629 
L 149.912885 26.133689 
L 151.405861 27.798583 
L 152.898838 26.605685 
L 154.391814 27.356225 
L 155.884791 32.460441 
L 157.377768 29.310996 
L 158.870744 28.792808 
L 160.363721 29.622962 
L 161.856697 31.596066 
L 163.349674 30.750497 
L 164.842651 32.451043 
L 166.335627 32.805463 
L 167.828604 32.7926 
L 169.32158 29.866293 
L 170.814557 32.420394 
L 172.307533 31.287565 
L 173.80051 53.501236 
L 175.293487 35.451914 
L 176.786463 37.818788 
L 178.27944 34.559525 
L 179.772416 40.514224 
L 181.265393 40.358229 
L 182.75837 38.619757 
L 184.251346 51.018917 
L 185.744323 43.13743 
L 187.237299 47.858018 
L 188.730276 38.045838 
L 190.223253 42.199918 
L 191.716229 45.613723 
L 193.209206 43.300648 
L 196.195159 44.064376 
L 197.688135 52.023703 
L 199.181112 49.514287 
L 200.674089 72.498315 
L 202.167065 64.785037 
L 203.660042 71.891601 
L 205.153018 83.708302 
L 206.645995 84.395009 
L 208.138972 72.056514 
L 209.631948 62.616897 
L 211.124925 71.774508 
L 212.617901 63.315808 
L 214.110878 87.324767 
L 215.603855 101.759505 
L 217.096831 91.623848 
L 218.589808 123.366912 
L 220.082784 103.806893 
L 221.575761 120.32991 
L 223.068737 110.134706 
L 224.561714 151.422477 
L 226.054691 157.596679 
L 227.547667 83.335995 
L 229.040644 127.907864 
L 230.53362 142.679015 
L 232.026597 111.399752 
L 233.519574 139.215406 
L 235.01255 142.532473 
L 236.505527 212.572259 
L 237.998503 186.711813 
L 239.49148 189.474141 
L 240.984457 185.103486 
L 242.477433 179.579252 
L 243.97041 197.764311 
L 245.463386 239.211975 
L 246.956363 206.281137 
L 248.449339 251.734059 
L 249.942316 215.997563 
L 251.435293 235.896551 
L 252.928269 288.794891 
L 254.421246 275.544823 
L 255.914222 239.966358 
L 257.407199 279.43815 
L 258.900176 296.24627 
L 260.393152 283.275914 
L 261.886129 264.542939 
L 263.379105 302.059442 
L 264.872082 280.366383 
L 266.365059 290.695203 
L 267.858035 297.413506 
L 269.351012 308.88162 
L 270.843988 299.673678 
L 272.336965 304.990775 
L 273.829941 305.327511 
L 275.322918 306.662249 
L 276.815895 308.993621 
L 278.308871 309.185654 
L 279.801848 310.072909 
L 281.294824 311.139082 
L 282.787801 309.105103 
L 284.280778 310.544675 
L 285.773754 311.007866 
L 287.266731 311.141697 
L 288.759707 310.424659 
L 290.252684 310.339528 
L 291.745661 311.141742 
L 296.22459 311.141512 
L 421.634624 311.14175 
L 493.2975 311.14175 
L 493.2975 311.14175 
" style="fill:none;stroke:#ff0000;stroke-linecap:square;"/>
   </g>
   <g id="line2d_4">
    <path clip-path="url(#p1b47a4ce26)" d="M 46.8975 23.159477 
L 76.757032 23.181451 
L 81.235962 23.239433 
L 85.714891 23.244984 
L 106.616564 23.338453 
L 109.602517 23.383607 
L 112.58847 23.407163 
L 114.081446 23.605204 
L 115.574423 23.414177 
L 118.560376 23.640809 
L 120.053353 23.5016 
L 121.546329 23.627934 
L 123.039306 23.96655 
L 124.532283 23.664355 
L 126.025259 23.742991 
L 129.011212 23.588429 
L 130.504189 23.792525 
L 133.490142 23.600045 
L 134.983119 23.768766 
L 136.476095 23.821159 
L 137.969072 24.530782 
L 139.462048 23.630562 
L 140.955025 24.074499 
L 142.448002 23.934168 
L 143.940978 24.123334 
L 145.433955 24.600876 
L 146.926931 24.673432 
L 148.419908 24.303178 
L 149.912885 24.670954 
L 151.405861 24.743334 
L 152.898838 24.414722 
L 154.391814 24.493522 
L 155.884791 25.134418 
L 157.377768 26.643575 
L 158.870744 25.324463 
L 160.363721 25.009344 
L 161.856697 25.179798 
L 163.349674 26.974446 
L 164.842651 26.234507 
L 166.335627 26.217744 
L 167.828604 26.897501 
L 169.32158 26.135065 
L 170.814557 26.400668 
L 172.307533 26.845138 
L 173.80051 25.480792 
L 175.293487 26.688881 
L 176.786463 26.549035 
L 178.27944 27.262798 
L 179.772416 27.707093 
L 181.265393 28.382491 
L 185.744323 28.523559 
L 187.237299 29.470797 
L 188.730276 31.507054 
L 190.223253 29.565593 
L 191.716229 29.987994 
L 193.209206 34.917791 
L 194.702182 35.423613 
L 196.195159 27.801993 
L 197.688135 30.244226 
L 199.181112 35.679044 
L 200.674089 40.157389 
L 202.167065 37.948023 
L 203.660042 36.874581 
L 205.153018 40.332287 
L 206.645995 47.276795 
L 208.138972 33.594188 
L 209.631948 41.756734 
L 211.124925 57.95199 
L 212.617901 59.80354 
L 214.110878 41.108175 
L 215.603855 44.260651 
L 217.096831 38.215474 
L 218.589808 61.616566 
L 220.082784 62.685912 
L 221.575761 63.305467 
L 223.068737 63.5005 
L 224.561714 67.577062 
L 226.054691 66.828986 
L 227.547667 64.708411 
L 229.040644 84.171112 
L 230.53362 78.262114 
L 232.026597 95.516518 
L 233.519574 105.082743 
L 235.01255 91.412332 
L 236.505527 96.256446 
L 237.998503 81.516881 
L 239.49148 105.526898 
L 240.984457 100.676988 
L 242.477433 95.202289 
L 243.97041 166.129578 
L 245.463386 182.641836 
L 246.956363 122.683468 
L 248.449339 128.99869 
L 249.942316 173.792294 
L 251.435293 143.705534 
L 252.928269 136.637655 
L 254.421246 184.684989 
L 255.914222 185.587158 
L 257.407199 192.809524 
L 258.900176 162.824999 
L 260.393152 205.514238 
L 261.886129 202.68011 
L 263.379105 223.462872 
L 264.872082 199.875386 
L 266.365059 240.162267 
L 267.858035 177.642595 
L 269.351012 226.971272 
L 270.843988 228.430158 
L 272.336965 275.155261 
L 273.829941 281.651477 
L 275.322918 290.870556 
L 276.815895 255.310265 
L 278.308871 291.774012 
L 279.801848 265.093406 
L 281.294824 273.301032 
L 282.787801 278.367507 
L 284.280778 302.277891 
L 285.773754 290.825037 
L 287.266731 309.727435 
L 288.759707 302.58623 
L 290.252684 306.521546 
L 291.745661 300.260504 
L 293.238637 302.3631 
L 294.731614 306.55053 
L 296.22459 309.524429 
L 297.717567 299.535586 
L 299.210543 303.895783 
L 300.70352 310.294733 
L 303.689473 309.226532 
L 305.18245 310.806674 
L 306.675426 310.686925 
L 308.168403 311.015384 
L 309.66138 310.112316 
L 311.154356 310.768658 
L 312.647333 311.107353 
L 318.619239 311.14175 
L 324.591145 311.141243 
L 493.2975 311.14175 
L 493.2975 311.14175 
" style="fill:none;stroke:#00bfbf;stroke-linecap:square;"/>
   </g>
   <g id="line2d_5">
    <path clip-path="url(#p1b47a4ce26)" d="M 46.8975 23.145218 
L 126.025259 23.285745 
L 137.969072 23.415555 
L 139.462048 23.289543 
L 146.926931 23.469517 
L 148.419908 23.349817 
L 149.912885 23.371592 
L 151.405861 23.543883 
L 158.870744 23.459981 
L 160.363721 23.639452 
L 161.856697 23.374727 
L 163.349674 23.620568 
L 164.842651 23.617826 
L 166.335627 23.825403 
L 167.828604 23.638941 
L 169.32158 23.774449 
L 170.814557 24.153323 
L 172.307533 23.79407 
L 173.80051 23.96926 
L 175.293487 23.883371 
L 176.786463 24.291247 
L 178.27944 23.788517 
L 179.772416 23.82823 
L 181.265393 23.685472 
L 182.75837 23.82169 
L 184.251346 24.148499 
L 185.744323 24.279128 
L 187.237299 24.194188 
L 190.223253 24.568968 
L 196.195159 24.549 
L 197.688135 25.886649 
L 199.181112 26.113401 
L 200.674089 25.591497 
L 202.167065 25.903865 
L 203.660042 25.530226 
L 205.153018 25.961362 
L 206.645995 25.054893 
L 208.138972 25.746608 
L 209.631948 25.63682 
L 211.124925 26.133824 
L 212.617901 27.541987 
L 214.110878 25.443943 
L 215.603855 27.4686 
L 217.096831 25.870473 
L 220.082784 28.395795 
L 221.575761 29.084918 
L 223.068737 29.140907 
L 224.561714 30.345571 
L 226.054691 29.562837 
L 227.547667 30.192909 
L 229.040644 29.709548 
L 230.53362 30.120335 
L 232.026597 31.092121 
L 233.519574 34.261344 
L 235.01255 38.190106 
L 236.505527 30.330292 
L 237.998503 33.894636 
L 239.49148 43.12597 
L 240.984457 40.996915 
L 242.477433 42.522216 
L 243.97041 41.668404 
L 246.956363 43.372107 
L 248.449339 47.351054 
L 249.942316 49.70798 
L 251.435293 50.391381 
L 252.928269 52.3404 
L 254.421246 63.035788 
L 255.914222 41.854668 
L 257.407199 47.617748 
L 258.900176 76.947893 
L 260.393152 64.015908 
L 261.886129 74.350469 
L 263.379105 56.802313 
L 264.872082 56.543293 
L 266.365059 79.808012 
L 267.858035 69.850502 
L 269.351012 92.449631 
L 270.843988 84.18776 
L 272.336965 111.390042 
L 273.829941 74.981977 
L 275.322918 120.877267 
L 276.815895 132.914081 
L 278.308871 80.642527 
L 279.801848 177.082814 
L 281.294824 96.440018 
L 282.787801 96.362661 
L 284.280778 107.175414 
L 285.773754 135.641319 
L 287.266731 137.442055 
L 288.759707 131.021141 
L 290.252684 114.455944 
L 291.745661 162.729982 
L 293.238637 157.33345 
L 294.731614 200.017606 
L 296.22459 152.512054 
L 297.717567 205.030169 
L 299.210543 193.8773 
L 300.70352 157.859728 
L 302.196497 220.311713 
L 303.689473 229.698772 
L 305.18245 148.260626 
L 306.675426 219.332808 
L 308.168403 198.679036 
L 309.66138 210.972277 
L 311.154356 256.517053 
L 312.647333 263.403617 
L 314.140309 251.057409 
L 315.633286 237.333269 
L 317.126263 283.07777 
L 318.619239 276.972263 
L 320.112216 305.43128 
L 321.605192 243.523486 
L 323.098169 252.240089 
L 324.591145 270.827092 
L 326.084122 280.215789 
L 327.577099 303.416282 
L 329.070075 302.592811 
L 330.563052 308.253704 
L 332.056028 304.620152 
L 333.549005 310.762842 
L 335.041982 298.032224 
L 336.534958 306.912003 
L 338.027935 295.086202 
L 339.520911 310.155254 
L 341.013888 310.86102 
L 342.506865 310.433588 
L 343.999841 311.132557 
L 345.492818 303.997775 
L 346.985794 310.766406 
L 348.478771 304.907207 
L 349.971747 311.128955 
L 351.464724 310.44108 
L 352.957701 308.475396 
L 354.450677 310.99741 
L 357.43663 311.10201 
L 358.929607 310.916216 
L 361.91556 311.141695 
L 363.408537 310.93885 
L 364.901513 311.1417 
L 366.39449 311.050927 
L 369.380443 311.141672 
L 493.2975 311.14175 
L 493.2975 311.14175 
" style="fill:none;stroke:#bf00bf;stroke-linecap:square;"/>
   </g>
   <g id="line2d_6">
    <path clip-path="url(#p1b47a4ce26)" d="M 46.8975 23.142483 
L 161.856697 23.225327 
L 167.828604 23.278879 
L 170.814557 23.231323 
L 172.307533 23.400859 
L 173.80051 23.217021 
L 179.772416 23.304034 
L 182.75837 23.294027 
L 184.251346 23.357533 
L 185.744323 23.294198 
L 188.730276 23.39208 
L 190.223253 23.33667 
L 193.209206 23.670509 
L 194.702182 23.422655 
L 196.195159 23.485505 
L 197.688135 23.35787 
L 200.674089 23.671016 
L 202.167065 23.463036 
L 205.153018 23.877529 
L 208.138972 23.561303 
L 211.124925 24.019395 
L 214.110878 23.637691 
L 215.603855 23.902202 
L 217.096831 23.55536 
L 218.589808 24.310354 
L 220.082784 24.059226 
L 221.575761 23.950067 
L 223.068737 24.569275 
L 224.561714 24.020888 
L 226.054691 24.005336 
L 227.547667 24.237586 
L 229.040644 25.275431 
L 230.53362 24.026999 
L 232.026597 24.471611 
L 233.519574 25.122397 
L 235.01255 24.829581 
L 236.505527 25.844234 
L 237.998503 26.675787 
L 239.49148 24.6506 
L 240.984457 25.079781 
L 242.477433 24.927907 
L 243.97041 25.479598 
L 245.463386 27.444776 
L 246.956363 26.429701 
L 248.449339 24.899656 
L 249.942316 28.162533 
L 251.435293 28.724149 
L 252.928269 28.245047 
L 254.421246 27.476014 
L 255.914222 28.87907 
L 257.407199 27.643055 
L 260.393152 27.633829 
L 261.886129 29.551336 
L 263.379105 27.36621 
L 264.872082 30.370776 
L 266.365059 32.74236 
L 267.858035 29.159271 
L 269.351012 27.724174 
L 270.843988 28.372759 
L 272.336965 30.074741 
L 273.829941 38.147914 
L 275.322918 29.240868 
L 276.815895 40.072509 
L 278.308871 34.41268 
L 279.801848 37.920732 
L 281.294824 36.407404 
L 282.787801 41.8532 
L 284.280778 36.549594 
L 285.773754 34.453202 
L 287.266731 44.607736 
L 288.759707 52.185552 
L 290.252684 45.335355 
L 291.745661 53.189603 
L 293.238637 45.097721 
L 294.731614 38.837441 
L 296.22459 51.411912 
L 297.717567 56.852419 
L 299.210543 47.014186 
L 300.70352 43.645483 
L 302.196497 48.68342 
L 303.689473 78.617127 
L 305.18245 79.071692 
L 306.675426 52.655627 
L 308.168403 59.435107 
L 309.66138 62.532843 
L 311.154356 61.953834 
L 312.647333 71.573391 
L 314.140309 72.645131 
L 315.633286 62.439892 
L 317.126263 50.210547 
L 318.619239 95.410661 
L 320.112216 79.780019 
L 321.605192 88.076175 
L 323.098169 84.039567 
L 324.591145 136.1604 
L 326.084122 85.747798 
L 327.577099 119.11349 
L 329.070075 99.245351 
L 330.563052 110.906748 
L 332.056028 142.635177 
L 333.549005 111.710464 
L 335.041982 155.248371 
L 336.534958 127.751976 
L 338.027935 167.098038 
L 339.520911 216.855128 
L 341.013888 208.330459 
L 342.506865 142.56271 
L 343.999841 178.395481 
L 345.492818 210.157234 
L 346.985794 135.091201 
L 348.478771 189.029563 
L 349.971747 179.716553 
L 351.464724 255.465785 
L 352.957701 238.585089 
L 355.943654 215.454474 
L 357.43663 261.536135 
L 358.929607 232.487062 
L 360.422584 283.080336 
L 361.91556 279.950139 
L 363.408537 272.549321 
L 364.901513 263.411582 
L 366.39449 213.301972 
L 367.887467 296.936219 
L 369.380443 302.956112 
L 370.87342 301.215692 
L 372.366396 300.278492 
L 373.859373 282.821531 
L 375.352349 298.350714 
L 376.845326 296.518296 
L 378.338303 310.066942 
L 379.831279 302.187582 
L 381.324256 309.727031 
L 382.817232 309.831318 
L 384.310209 310.184788 
L 385.803186 308.808846 
L 387.296162 305.020187 
L 390.282115 311.135646 
L 391.775092 311.113005 
L 394.761045 310.696745 
L 396.254022 310.880555 
L 397.746998 310.304701 
L 399.239975 311.118982 
L 408.197834 311.1417 
L 493.2975 311.14175 
L 493.2975 311.14175 
" style="fill:none;stroke:#bfbf00;stroke-linecap:square;"/>
   </g>
   <g id="line2d_7">
    <path clip-path="url(#p1b47a4ce26)" d="M 46.8975 23.141873 
L 178.27944 23.190282 
L 179.772416 23.305356 
L 181.265393 23.184877 
L 199.181112 23.276685 
L 200.674089 23.489733 
L 202.167065 23.258159 
L 205.153018 23.381094 
L 208.138972 23.313214 
L 209.631948 23.554932 
L 211.124925 23.319019 
L 212.617901 23.420615 
L 214.110878 23.304815 
L 217.096831 23.495349 
L 218.589808 23.449163 
L 220.082784 23.80588 
L 221.575761 23.521893 
L 223.068737 23.685037 
L 224.561714 23.423598 
L 226.054691 23.456259 
L 227.547667 23.676249 
L 229.040644 24.049638 
L 232.026597 23.646857 
L 233.519574 23.844676 
L 235.01255 24.296513 
L 236.505527 23.899593 
L 237.998503 23.784543 
L 240.984457 24.105698 
L 242.477433 23.695979 
L 243.97041 23.625061 
L 245.463386 23.91125 
L 246.956363 24.368792 
L 248.449339 24.064398 
L 249.942316 24.546058 
L 252.928269 24.878728 
L 254.421246 25.27469 
L 255.914222 25.543436 
L 257.407199 27.17557 
L 258.900176 25.380663 
L 260.393152 25.944964 
L 261.886129 25.772589 
L 263.379105 26.402564 
L 264.872082 28.36784 
L 266.365059 25.608343 
L 267.858035 28.047255 
L 269.351012 27.83801 
L 270.843988 30.948751 
L 272.336965 26.967049 
L 273.829941 28.804687 
L 275.322918 26.941107 
L 276.815895 29.703881 
L 278.308871 31.013192 
L 279.801848 30.059982 
L 281.294824 31.647802 
L 282.787801 30.007235 
L 284.280778 28.793153 
L 285.773754 31.936351 
L 287.266731 36.230101 
L 288.759707 36.371591 
L 290.252684 34.445268 
L 291.745661 38.938791 
L 293.238637 34.592183 
L 294.731614 33.873994 
L 296.22459 40.027224 
L 297.717567 37.743883 
L 299.210543 39.517215 
L 300.70352 43.192586 
L 302.196497 47.231597 
L 303.689473 37.051942 
L 305.18245 40.300838 
L 306.675426 39.540563 
L 308.168403 47.758905 
L 309.66138 47.728425 
L 311.154356 69.225837 
L 312.647333 50.909643 
L 314.140309 59.90681 
L 315.633286 57.919154 
L 317.126263 64.579016 
L 318.619239 79.400029 
L 320.112216 74.215634 
L 321.605192 89.00318 
L 323.098169 74.03956 
L 324.591145 73.997164 
L 326.084122 76.853584 
L 327.577099 80.158761 
L 329.070075 68.422991 
L 330.563052 88.19015 
L 332.056028 113.435513 
L 333.549005 109.37833 
L 335.041982 87.099695 
L 336.534958 119.677382 
L 338.027935 127.627809 
L 339.520911 128.391852 
L 341.013888 91.972894 
L 342.506865 94.178772 
L 343.999841 172.042332 
L 345.492818 137.50101 
L 346.985794 114.100549 
L 349.971747 164.403834 
L 351.464724 182.058447 
L 352.957701 180.829786 
L 354.450677 161.246919 
L 355.943654 209.804291 
L 357.43663 168.710439 
L 358.929607 153.670989 
L 360.422584 151.593993 
L 361.91556 217.742386 
L 363.408537 167.097621 
L 364.901513 221.414748 
L 366.39449 254.374334 
L 367.887467 230.852488 
L 369.380443 265.556381 
L 370.87342 248.536486 
L 372.366396 258.907967 
L 373.859373 264.800725 
L 375.352349 281.70478 
L 376.845326 289.267089 
L 378.338303 290.931871 
L 379.831279 258.971365 
L 381.324256 259.770212 
L 382.817232 291.372614 
L 384.310209 268.27751 
L 385.803186 293.698193 
L 387.296162 305.508443 
L 388.789139 260.427216 
L 390.282115 292.004083 
L 391.775092 306.224909 
L 393.268069 304.84931 
L 394.761045 310.698019 
L 396.254022 309.217761 
L 397.746998 297.871769 
L 399.239975 310.729213 
L 400.732952 310.127683 
L 402.225928 308.377004 
L 403.718905 307.891522 
L 405.211881 311.133078 
L 409.690811 311.077009 
L 412.676764 311.141315 
L 414.169741 310.887836 
L 415.662717 311.141746 
L 418.648671 311.141713 
L 457.466062 311.14175 
L 493.2975 311.14175 
L 493.2975 311.14175 
" style="fill:none;stroke:#000000;stroke-linecap:square;"/>
   </g>
   <g id="line2d_8">
    <path clip-path="url(#p1b47a4ce26)" d="M 46.8975 23.141792 
L 218.589808 23.190951 
L 220.082784 23.274991 
L 223.068737 23.270462 
L 229.040644 23.298047 
L 239.49148 23.336705 
L 240.984457 23.730904 
L 242.477433 23.423883 
L 243.97041 23.38001 
L 245.463386 23.480577 
L 246.956363 23.331415 
L 248.449339 23.513269 
L 249.942316 23.460448 
L 251.435293 23.65694 
L 252.928269 23.362382 
L 254.421246 23.375259 
L 255.914222 23.880189 
L 257.407199 23.410818 
L 258.900176 23.774705 
L 260.393152 23.534788 
L 261.886129 23.644236 
L 263.379105 23.46332 
L 264.872082 23.585911 
L 266.365059 23.545596 
L 267.858035 23.627759 
L 269.351012 24.089077 
L 270.843988 23.962003 
L 272.336965 24.524763 
L 275.322918 23.782122 
L 276.815895 24.603102 
L 278.308871 24.183461 
L 281.294824 23.71943 
L 282.787801 24.031791 
L 284.280778 23.616471 
L 285.773754 24.357807 
L 287.266731 24.340894 
L 288.759707 24.52461 
L 290.252684 24.988399 
L 293.238637 25.227849 
L 294.731614 24.126699 
L 296.22459 24.255302 
L 297.717567 25.902667 
L 299.210543 25.238293 
L 300.70352 26.148573 
L 302.196497 26.276787 
L 303.689473 26.279293 
L 305.18245 25.382159 
L 306.675426 27.930804 
L 308.168403 26.452054 
L 309.66138 26.910622 
L 311.154356 26.582476 
L 312.647333 25.902672 
L 314.140309 26.06679 
L 315.633286 31.461592 
L 317.126263 27.627746 
L 318.619239 27.546763 
L 320.112216 30.022789 
L 321.605192 29.33413 
L 323.098169 28.415209 
L 324.591145 32.038604 
L 326.084122 28.19718 
L 327.577099 31.029123 
L 329.070075 31.276723 
L 330.563052 29.791278 
L 332.056028 32.342845 
L 333.549005 33.982435 
L 335.041982 32.873764 
L 336.534958 33.126388 
L 338.027935 31.270262 
L 339.520911 33.316149 
L 342.506865 41.486341 
L 343.999841 36.014343 
L 345.492818 44.825172 
L 346.985794 47.5377 
L 348.478771 44.547676 
L 349.971747 56.823587 
L 351.464724 47.269325 
L 352.957701 56.983884 
L 354.450677 44.381971 
L 355.943654 47.087023 
L 357.43663 45.526762 
L 358.929607 43.624543 
L 360.422584 54.386974 
L 361.91556 91.368814 
L 363.408537 66.20413 
L 364.901513 78.109929 
L 366.39449 65.422414 
L 367.887467 67.172794 
L 369.380443 74.110597 
L 370.87342 68.527165 
L 372.366396 106.544778 
L 373.859373 88.527545 
L 375.352349 112.609836 
L 376.845326 106.546446 
L 378.338303 75.830341 
L 379.831279 105.218674 
L 381.324256 109.475995 
L 382.817232 130.268112 
L 384.310209 72.531847 
L 385.803186 132.343928 
L 387.296162 122.840556 
L 388.789139 121.364926 
L 390.282115 107.705346 
L 391.775092 99.613557 
L 393.268069 124.446533 
L 394.761045 165.066349 
L 396.254022 134.382319 
L 397.746998 136.086402 
L 399.239975 191.085755 
L 400.732952 151.986427 
L 402.225928 156.301169 
L 403.718905 163.513323 
L 405.211881 244.204592 
L 406.704858 223.524551 
L 408.197834 160.981369 
L 409.690811 199.116135 
L 411.183788 246.157292 
L 412.676764 267.622607 
L 414.169741 260.906596 
L 415.662717 251.467517 
L 417.155694 222.676892 
L 418.648671 272.040294 
L 420.141647 264.472114 
L 421.634624 209.067012 
L 423.1276 279.320989 
L 424.620577 283.188438 
L 426.113554 277.620337 
L 427.60653 234.13702 
L 429.099507 278.319925 
L 430.592483 244.653777 
L 432.08546 281.464036 
L 433.578436 292.466607 
L 435.071413 254.165644 
L 436.56439 274.5755 
L 438.057366 300.836985 
L 439.550343 306.041749 
L 442.536296 308.843021 
L 444.029273 311.112064 
L 445.522249 309.472795 
L 447.015226 304.621555 
L 448.508202 311.140276 
L 450.001179 311.069972 
L 451.494156 308.20826 
L 452.987132 310.940692 
L 454.480109 311.138157 
L 455.973085 310.88568 
L 457.466062 311.140837 
L 458.959038 310.732902 
L 460.452015 311.141703 
L 463.437968 311.133015 
L 464.930945 310.889457 
L 466.423921 311.13433 
L 488.81857 311.14175 
L 493.2975 311.14175 
L 493.2975 311.14175 
" style="fill:none;stroke:#0000ff;stroke-linecap:square;"/>
   </g>
   <g id="patch_3">
    <path d="M 46.8975 311.14175 
L 46.8975 23.14175 
" style="fill:none;stroke:#000000;stroke-linecap:square;stroke-linejoin:miter;"/>
   </g>
   <g id="patch_4">
    <path d="M 46.8975 23.14175 
L 493.2975 23.14175 
" style="fill:none;stroke:#000000;stroke-linecap:square;stroke-linejoin:miter;"/>
   </g>
   <g id="patch_5">
    <path d="M 493.2975 311.14175 
L 493.2975 23.14175 
" style="fill:none;stroke:#000000;stroke-linecap:square;stroke-linejoin:miter;"/>
   </g>
   <g id="patch_6">
    <path d="M 46.8975 311.14175 
L 493.2975 311.14175 
" style="fill:none;stroke:#000000;stroke-linecap:square;stroke-linejoin:miter;"/>
   </g>
   <g id="matplotlib.axis_1">
    <g id="xtick_1">
     <g id="line2d_9">
      <defs>
       <path d="M 0 0 
L 0 -4 
" id="m0a93dea6e8" style="stroke:#000000;stroke-width:0.5;"/>
      </defs>
      <g>
       <use style="stroke:#000000;stroke-width:0.5;" x="46.8975" xlink:href="#m0a93dea6e8" y="311.14175"/>
      </g>
     </g>
     <g id="line2d_10">
      <defs>
       <path d="M 0 0 
L 0 4 
" id="m1a8553d7a2" style="stroke:#000000;stroke-width:0.5;"/>
      </defs>
      <g>
       <use style="stroke:#000000;stroke-width:0.5;" x="46.8975" xlink:href="#m1a8553d7a2" y="23.14175"/>
      </g>
     </g>
     <g id="text_1">
      <!-- −10 -->
      <defs>
       <path d="M 10.59375 35.5 
L 73.1875 35.5 
L 73.1875 27.203125 
L 10.59375 27.203125 
z
" id="BitstreamVeraSans-Roman-2212"/>
       <path d="M 31.78125 66.40625 
Q 24.171875 66.40625 20.328125 58.90625 
Q 16.5 51.421875 16.5 36.375 
Q 16.5 21.390625 20.328125 13.890625 
Q 24.171875 6.390625 31.78125 6.390625 
Q 39.453125 6.390625 43.28125 13.890625 
Q 47.125 21.390625 47.125 36.375 
Q 47.125 51.421875 43.28125 58.90625 
Q 39.453125 66.40625 31.78125 66.40625 
M 31.78125 74.21875 
Q 44.046875 74.21875 50.515625 64.515625 
Q 56.984375 54.828125 56.984375 36.375 
Q 56.984375 17.96875 50.515625 8.265625 
Q 44.046875 -1.421875 31.78125 -1.421875 
Q 19.53125 -1.421875 13.0625 8.265625 
Q 6.59375 17.96875 6.59375 36.375 
Q 6.59375 54.828125 13.0625 64.515625 
Q 19.53125 74.21875 31.78125 74.21875 
" id="BitstreamVeraSans-Roman-30"/>
       <path d="M 12.40625 8.296875 
L 28.515625 8.296875 
L 28.515625 63.921875 
L 10.984375 60.40625 
L 10.984375 69.390625 
L 28.421875 72.90625 
L 38.28125 72.90625 
L 38.28125 8.296875 
L 54.390625 8.296875 
L 54.390625 0 
L 12.40625 0 
z
" id="BitstreamVeraSans-Roman-31"/>
      </defs>
      <g transform="translate(34.2346875 324.259875)scale(0.12 -0.12)">
       <use xlink:href="#BitstreamVeraSans-Roman-2212"/>
       <use x="83.7890625" xlink:href="#BitstreamVeraSans-Roman-31"/>
       <use x="147.412109375" xlink:href="#BitstreamVeraSans-Roman-30"/>
      </g>
     </g>
    </g>
    <g id="xtick_2">
     <g id="line2d_11">
      <g>
       <use style="stroke:#000000;stroke-width:0.5;" x="158.4975" xlink:href="#m0a93dea6e8" y="311.14175"/>
      </g>
     </g>
     <g id="line2d_12">
      <g>
       <use style="stroke:#000000;stroke-width:0.5;" x="158.4975" xlink:href="#m1a8553d7a2" y="23.14175"/>
      </g>
     </g>
     <g id="text_2">
      <!-- −5 -->
      <defs>
       <path d="M 10.796875 72.90625 
L 49.515625 72.90625 
L 49.515625 64.59375 
L 19.828125 64.59375 
L 19.828125 46.734375 
Q 21.96875 47.46875 24.109375 47.828125 
Q 26.265625 48.1875 28.421875 48.1875 
Q 40.625 48.1875 47.75 41.5 
Q 54.890625 34.8125 54.890625 23.390625 
Q 54.890625 11.625 47.5625 5.09375 
Q 40.234375 -1.421875 26.90625 -1.421875 
Q 22.3125 -1.421875 17.546875 -0.640625 
Q 12.796875 0.140625 7.71875 1.703125 
L 7.71875 11.625 
Q 12.109375 9.234375 16.796875 8.0625 
Q 21.484375 6.890625 26.703125 6.890625 
Q 35.15625 6.890625 40.078125 11.328125 
Q 45.015625 15.765625 45.015625 23.390625 
Q 45.015625 31 40.078125 35.4375 
Q 35.15625 39.890625 26.703125 39.890625 
Q 22.75 39.890625 18.8125 39.015625 
Q 14.890625 38.140625 10.796875 36.28125 
z
" id="BitstreamVeraSans-Roman-35"/>
      </defs>
      <g transform="translate(149.6521875 324.259875)scale(0.12 -0.12)">
       <use xlink:href="#BitstreamVeraSans-Roman-2212"/>
       <use x="83.7890625" xlink:href="#BitstreamVeraSans-Roman-35"/>
      </g>
     </g>
    </g>
    <g id="xtick_3">
     <g id="line2d_13">
      <g>
       <use style="stroke:#000000;stroke-width:0.5;" x="270.0975" xlink:href="#m0a93dea6e8" y="311.14175"/>
      </g>
     </g>
     <g id="line2d_14">
      <g>
       <use style="stroke:#000000;stroke-width:0.5;" x="270.0975" xlink:href="#m1a8553d7a2" y="23.14175"/>
      </g>
     </g>
     <g id="text_3">
      <!-- 0 -->
      <g transform="translate(266.28 324.259875)scale(0.12 -0.12)">
       <use xlink:href="#BitstreamVeraSans-Roman-30"/>
      </g>
     </g>
    </g>
    <g id="xtick_4">
     <g id="line2d_15">
      <g>
       <use style="stroke:#000000;stroke-width:0.5;" x="381.6975" xlink:href="#m0a93dea6e8" y="311.14175"/>
      </g>
     </g>
     <g id="line2d_16">
      <g>
       <use style="stroke:#000000;stroke-width:0.5;" x="381.6975" xlink:href="#m1a8553d7a2" y="23.14175"/>
      </g>
     </g>
     <g id="text_4">
      <!-- 5 -->
      <g transform="translate(377.88 324.259875)scale(0.12 -0.12)">
       <use xlink:href="#BitstreamVeraSans-Roman-35"/>
      </g>
     </g>
    </g>
    <g id="xtick_5">
     <g id="line2d_17">
      <g>
       <use style="stroke:#000000;stroke-width:0.5;" x="493.2975" xlink:href="#m0a93dea6e8" y="311.14175"/>
      </g>
     </g>
     <g id="line2d_18">
      <g>
       <use style="stroke:#000000;stroke-width:0.5;" x="493.2975" xlink:href="#m1a8553d7a2" y="23.14175"/>
      </g>
     </g>
     <g id="text_5">
      <!-- 10 -->
      <g transform="translate(485.6625 324.259875)scale(0.12 -0.12)">
       <use xlink:href="#BitstreamVeraSans-Roman-31"/>
       <use x="63.623046875" xlink:href="#BitstreamVeraSans-Roman-30"/>
      </g>
     </g>
    </g>
    <g id="text_6">
     <!-- This is the x-axis -->
     <defs>
      <path d="M 9.421875 54.6875 
L 18.40625 54.6875 
L 18.40625 0 
L 9.421875 0 
z
M 9.421875 75.984375 
L 18.40625 75.984375 
L 18.40625 64.59375 
L 9.421875 64.59375 
z
" id="BitstreamVeraSans-Roman-69"/>
      <path d="M 34.28125 27.484375 
Q 23.390625 27.484375 19.1875 25 
Q 14.984375 22.515625 14.984375 16.5 
Q 14.984375 11.71875 18.140625 8.90625 
Q 21.296875 6.109375 26.703125 6.109375 
Q 34.1875 6.109375 38.703125 11.40625 
Q 43.21875 16.703125 43.21875 25.484375 
L 43.21875 27.484375 
z
M 52.203125 31.203125 
L 52.203125 0 
L 43.21875 0 
L 43.21875 8.296875 
Q 40.140625 3.328125 35.546875 0.953125 
Q 30.953125 -1.421875 24.3125 -1.421875 
Q 15.921875 -1.421875 10.953125 3.296875 
Q 6 8.015625 6 15.921875 
Q 6 25.140625 12.171875 29.828125 
Q 18.359375 34.515625 30.609375 34.515625 
L 43.21875 34.515625 
L 43.21875 35.40625 
Q 43.21875 41.609375 39.140625 45 
Q 35.0625 48.390625 27.6875 48.390625 
Q 23 48.390625 18.546875 47.265625 
Q 14.109375 46.140625 10.015625 43.890625 
L 10.015625 52.203125 
Q 14.9375 54.109375 19.578125 55.046875 
Q 24.21875 56 28.609375 56 
Q 40.484375 56 46.34375 49.84375 
Q 52.203125 43.703125 52.203125 31.203125 
" id="BitstreamVeraSans-Roman-61"/>
      <path d="M 18.3125 70.21875 
L 18.3125 54.6875 
L 36.8125 54.6875 
L 36.8125 47.703125 
L 18.3125 47.703125 
L 18.3125 18.015625 
Q 18.3125 11.328125 20.140625 9.421875 
Q 21.96875 7.515625 27.59375 7.515625 
L 36.8125 7.515625 
L 36.8125 0 
L 27.59375 0 
Q 17.1875 0 13.234375 3.875 
Q 9.28125 7.765625 9.28125 18.015625 
L 9.28125 47.703125 
L 2.6875 47.703125 
L 2.6875 54.6875 
L 9.28125 54.6875 
L 9.28125 70.21875 
z
" id="BitstreamVeraSans-Roman-74"/>
      <path d="M -0.296875 72.90625 
L 61.375 72.90625 
L 61.375 64.59375 
L 35.5 64.59375 
L 35.5 0 
L 25.59375 0 
L 25.59375 64.59375 
L -0.296875 64.59375 
z
" id="BitstreamVeraSans-Roman-54"/>
      <path d="M 54.890625 54.6875 
L 35.109375 28.078125 
L 55.90625 0 
L 45.3125 0 
L 29.390625 21.484375 
L 13.484375 0 
L 2.875 0 
L 24.125 28.609375 
L 4.6875 54.6875 
L 15.28125 54.6875 
L 29.78125 35.203125 
L 44.28125 54.6875 
z
" id="BitstreamVeraSans-Roman-78"/>
      <path d="M 56.203125 29.59375 
L 56.203125 25.203125 
L 14.890625 25.203125 
Q 15.484375 15.921875 20.484375 11.0625 
Q 25.484375 6.203125 34.421875 6.203125 
Q 39.59375 6.203125 44.453125 7.46875 
Q 49.3125 8.734375 54.109375 11.28125 
L 54.109375 2.78125 
Q 49.265625 0.734375 44.1875 -0.34375 
Q 39.109375 -1.421875 33.890625 -1.421875 
Q 20.796875 -1.421875 13.15625 6.1875 
Q 5.515625 13.8125 5.515625 26.8125 
Q 5.515625 40.234375 12.765625 48.109375 
Q 20.015625 56 32.328125 56 
Q 43.359375 56 49.78125 48.890625 
Q 56.203125 41.796875 56.203125 29.59375 
M 47.21875 32.234375 
Q 47.125 39.59375 43.09375 43.984375 
Q 39.0625 48.390625 32.421875 48.390625 
Q 24.90625 48.390625 20.390625 44.140625 
Q 15.875 39.890625 15.1875 32.171875 
z
" id="BitstreamVeraSans-Roman-65"/>
      <path d="M 44.28125 53.078125 
L 44.28125 44.578125 
Q 40.484375 46.53125 36.375 47.5 
Q 32.28125 48.484375 27.875 48.484375 
Q 21.1875 48.484375 17.84375 46.4375 
Q 14.5 44.390625 14.5 40.28125 
Q 14.5 37.15625 16.890625 35.375 
Q 19.28125 33.59375 26.515625 31.984375 
L 29.59375 31.296875 
Q 39.15625 29.25 43.1875 25.515625 
Q 47.21875 21.78125 47.21875 15.09375 
Q 47.21875 7.46875 41.1875 3.015625 
Q 35.15625 -1.421875 24.609375 -1.421875 
Q 20.21875 -1.421875 15.453125 -0.5625 
Q 10.6875 0.296875 5.421875 2 
L 5.421875 11.28125 
Q 10.40625 8.6875 15.234375 7.390625 
Q 20.0625 6.109375 24.8125 6.109375 
Q 31.15625 6.109375 34.5625 8.28125 
Q 37.984375 10.453125 37.984375 14.40625 
Q 37.984375 18.0625 35.515625 20.015625 
Q 33.0625 21.96875 24.703125 23.78125 
L 21.578125 24.515625 
Q 13.234375 26.265625 9.515625 29.90625 
Q 5.8125 33.546875 5.8125 39.890625 
Q 5.8125 47.609375 11.28125 51.796875 
Q 16.75 56 26.8125 56 
Q 31.78125 56 36.171875 55.265625 
Q 40.578125 54.546875 44.28125 53.078125 
" id="BitstreamVeraSans-Roman-73"/>
      <path d="M 54.890625 33.015625 
L 54.890625 0 
L 45.90625 0 
L 45.90625 32.71875 
Q 45.90625 40.484375 42.875 44.328125 
Q 39.84375 48.1875 33.796875 48.1875 
Q 26.515625 48.1875 22.3125 43.546875 
Q 18.109375 38.921875 18.109375 30.90625 
L 18.109375 0 
L 9.078125 0 
L 9.078125 75.984375 
L 18.109375 75.984375 
L 18.109375 46.1875 
Q 21.34375 51.125 25.703125 53.5625 
Q 30.078125 56 35.796875 56 
Q 45.21875 56 50.046875 50.171875 
Q 54.890625 44.34375 54.890625 33.015625 
" id="BitstreamVeraSans-Roman-68"/>
      <path id="BitstreamVeraSans-Roman-20"/>
      <path d="M 4.890625 31.390625 
L 31.203125 31.390625 
L 31.203125 23.390625 
L 4.890625 23.390625 
z
" id="BitstreamVeraSans-Roman-2d"/>
     </defs>
     <g transform="translate(219.7415625 340.873625)scale(0.12 -0.12)">
      <use xlink:href="#BitstreamVeraSans-Roman-54"/>
      <use x="61.083984375" xlink:href="#BitstreamVeraSans-Roman-68"/>
      <use x="124.462890625" xlink:href="#BitstreamVeraSans-Roman-69"/>
      <use x="152.24609375" xlink:href="#BitstreamVeraSans-Roman-73"/>
      <use x="204.345703125" xlink:href="#BitstreamVeraSans-Roman-20"/>
      <use x="236.1328125" xlink:href="#BitstreamVeraSans-Roman-69"/>
      <use x="263.916015625" xlink:href="#BitstreamVeraSans-Roman-73"/>
      <use x="316.015625" xlink:href="#BitstreamVeraSans-Roman-20"/>
      <use x="347.802734375" xlink:href="#BitstreamVeraSans-Roman-74"/>
      <use x="387.01171875" xlink:href="#BitstreamVeraSans-Roman-68"/>
      <use x="450.390625" xlink:href="#BitstreamVeraSans-Roman-65"/>
      <use x="511.9140625" xlink:href="#BitstreamVeraSans-Roman-20"/>
      <use x="543.701171875" xlink:href="#BitstreamVeraSans-Roman-78"/>
      <use x="602.880859375" xlink:href="#BitstreamVeraSans-Roman-2d"/>
      <use x="638.96484375" xlink:href="#BitstreamVeraSans-Roman-61"/>
      <use x="700.244140625" xlink:href="#BitstreamVeraSans-Roman-78"/>
      <use x="759.423828125" xlink:href="#BitstreamVeraSans-Roman-69"/>
      <use x="787.20703125" xlink:href="#BitstreamVeraSans-Roman-73"/>
     </g>
    </g>
   </g>
   <g id="matplotlib.axis_2">
    <g id="ytick_1">
     <g id="line2d_19">
      <defs>
       <path d="M 0 0 
L 4 0 
" id="ma7f8b234b6" style="stroke:#000000;stroke-width:0.5;"/>
      </defs>
      <g>
       <use style="stroke:#000000;stroke-width:0.5;" x="46.8975" xlink:href="#ma7f8b234b6" y="311.14175"/>
      </g>
     </g>
     <g id="line2d_20">
      <defs>
       <path d="M 0 0 
L -4 0 
" id="m4ab78dcc79" style="stroke:#000000;stroke-width:0.5;"/>
      </defs>
      <g>
       <use style="stroke:#000000;stroke-width:0.5;" x="493.2975" xlink:href="#m4ab78dcc79" y="311.14175"/>
      </g>
     </g>
     <g id="text_7">
      <!-- 0.0 -->
      <defs>
       <path d="M 10.6875 12.40625 
L 21 12.40625 
L 21 0 
L 10.6875 0 
z
" id="BitstreamVeraSans-Roman-2e"/>
      </defs>
      <g transform="translate(23.81375 314.453)scale(0.12 -0.12)">
       <use xlink:href="#BitstreamVeraSans-Roman-30"/>
       <use x="63.623046875" xlink:href="#BitstreamVeraSans-Roman-2e"/>
       <use x="95.41015625" xlink:href="#BitstreamVeraSans-Roman-30"/>
      </g>
     </g>
    </g>
    <g id="ytick_2">
     <g id="line2d_21">
      <g>
       <use style="stroke:#000000;stroke-width:0.5;" x="46.8975" xlink:href="#ma7f8b234b6" y="253.54175"/>
      </g>
     </g>
     <g id="line2d_22">
      <g>
       <use style="stroke:#000000;stroke-width:0.5;" x="493.2975" xlink:href="#m4ab78dcc79" y="253.54175"/>
      </g>
     </g>
     <g id="text_8">
      <!-- 0.2 -->
      <defs>
       <path d="M 19.1875 8.296875 
L 53.609375 8.296875 
L 53.609375 0 
L 7.328125 0 
L 7.328125 8.296875 
Q 12.9375 14.109375 22.625 23.890625 
Q 32.328125 33.6875 34.8125 36.53125 
Q 39.546875 41.84375 41.421875 45.53125 
Q 43.3125 49.21875 43.3125 52.78125 
Q 43.3125 58.59375 39.234375 62.25 
Q 35.15625 65.921875 28.609375 65.921875 
Q 23.96875 65.921875 18.8125 64.3125 
Q 13.671875 62.703125 7.8125 59.421875 
L 7.8125 69.390625 
Q 13.765625 71.78125 18.9375 73 
Q 24.125 74.21875 28.421875 74.21875 
Q 39.75 74.21875 46.484375 68.546875 
Q 53.21875 62.890625 53.21875 53.421875 
Q 53.21875 48.921875 51.53125 44.890625 
Q 49.859375 40.875 45.40625 35.40625 
Q 44.1875 33.984375 37.640625 27.21875 
Q 31.109375 20.453125 19.1875 8.296875 
" id="BitstreamVeraSans-Roman-32"/>
      </defs>
      <g transform="translate(23.81375 256.853)scale(0.12 -0.12)">
       <use xlink:href="#BitstreamVeraSans-Roman-30"/>
       <use x="63.623046875" xlink:href="#BitstreamVeraSans-Roman-2e"/>
       <use x="95.41015625" xlink:href="#BitstreamVeraSans-Roman-32"/>
      </g>
     </g>
    </g>
    <g id="ytick_3">
     <g id="line2d_23">
      <g>
       <use style="stroke:#000000;stroke-width:0.5;" x="46.8975" xlink:href="#ma7f8b234b6" y="195.94175"/>
      </g>
     </g>
     <g id="line2d_24">
      <g>
       <use style="stroke:#000000;stroke-width:0.5;" x="493.2975" xlink:href="#m4ab78dcc79" y="195.94175"/>
      </g>
     </g>
     <g id="text_9">
      <!-- 0.4 -->
      <defs>
       <path d="M 37.796875 64.3125 
L 12.890625 25.390625 
L 37.796875 25.390625 
z
M 35.203125 72.90625 
L 47.609375 72.90625 
L 47.609375 25.390625 
L 58.015625 25.390625 
L 58.015625 17.1875 
L 47.609375 17.1875 
L 47.609375 0 
L 37.796875 0 
L 37.796875 17.1875 
L 4.890625 17.1875 
L 4.890625 26.703125 
z
" id="BitstreamVeraSans-Roman-34"/>
      </defs>
      <g transform="translate(23.81375 199.253)scale(0.12 -0.12)">
       <use xlink:href="#BitstreamVeraSans-Roman-30"/>
       <use x="63.623046875" xlink:href="#BitstreamVeraSans-Roman-2e"/>
       <use x="95.41015625" xlink:href="#BitstreamVeraSans-Roman-34"/>
      </g>
     </g>
    </g>
    <g id="ytick_4">
     <g id="line2d_25">
      <g>
       <use style="stroke:#000000;stroke-width:0.5;" x="46.8975" xlink:href="#ma7f8b234b6" y="138.34175"/>
      </g>
     </g>
     <g id="line2d_26">
      <g>
       <use style="stroke:#000000;stroke-width:0.5;" x="493.2975" xlink:href="#m4ab78dcc79" y="138.34175"/>
      </g>
     </g>
     <g id="text_10">
      <!-- 0.6 -->
      <defs>
       <path d="M 33.015625 40.375 
Q 26.375 40.375 22.484375 35.828125 
Q 18.609375 31.296875 18.609375 23.390625 
Q 18.609375 15.53125 22.484375 10.953125 
Q 26.375 6.390625 33.015625 6.390625 
Q 39.65625 6.390625 43.53125 10.953125 
Q 47.40625 15.53125 47.40625 23.390625 
Q 47.40625 31.296875 43.53125 35.828125 
Q 39.65625 40.375 33.015625 40.375 
M 52.59375 71.296875 
L 52.59375 62.3125 
Q 48.875 64.0625 45.09375 64.984375 
Q 41.3125 65.921875 37.59375 65.921875 
Q 27.828125 65.921875 22.671875 59.328125 
Q 17.53125 52.734375 16.796875 39.40625 
Q 19.671875 43.65625 24.015625 45.921875 
Q 28.375 48.1875 33.59375 48.1875 
Q 44.578125 48.1875 50.953125 41.515625 
Q 57.328125 34.859375 57.328125 23.390625 
Q 57.328125 12.15625 50.6875 5.359375 
Q 44.046875 -1.421875 33.015625 -1.421875 
Q 20.359375 -1.421875 13.671875 8.265625 
Q 6.984375 17.96875 6.984375 36.375 
Q 6.984375 53.65625 15.1875 63.9375 
Q 23.390625 74.21875 37.203125 74.21875 
Q 40.921875 74.21875 44.703125 73.484375 
Q 48.484375 72.75 52.59375 71.296875 
" id="BitstreamVeraSans-Roman-36"/>
      </defs>
      <g transform="translate(23.81375 141.653)scale(0.12 -0.12)">
       <use xlink:href="#BitstreamVeraSans-Roman-30"/>
       <use x="63.623046875" xlink:href="#BitstreamVeraSans-Roman-2e"/>
       <use x="95.41015625" xlink:href="#BitstreamVeraSans-Roman-36"/>
      </g>
     </g>
    </g>
    <g id="ytick_5">
     <g id="line2d_27">
      <g>
       <use style="stroke:#000000;stroke-width:0.5;" x="46.8975" xlink:href="#ma7f8b234b6" y="80.74175"/>
      </g>
     </g>
     <g id="line2d_28">
      <g>
       <use style="stroke:#000000;stroke-width:0.5;" x="493.2975" xlink:href="#m4ab78dcc79" y="80.74175"/>
      </g>
     </g>
     <g id="text_11">
      <!-- 0.8 -->
      <defs>
       <path d="M 31.78125 34.625 
Q 24.75 34.625 20.71875 30.859375 
Q 16.703125 27.09375 16.703125 20.515625 
Q 16.703125 13.921875 20.71875 10.15625 
Q 24.75 6.390625 31.78125 6.390625 
Q 38.8125 6.390625 42.859375 10.171875 
Q 46.921875 13.96875 46.921875 20.515625 
Q 46.921875 27.09375 42.890625 30.859375 
Q 38.875 34.625 31.78125 34.625 
M 21.921875 38.8125 
Q 15.578125 40.375 12.03125 44.71875 
Q 8.5 49.078125 8.5 55.328125 
Q 8.5 64.0625 14.71875 69.140625 
Q 20.953125 74.21875 31.78125 74.21875 
Q 42.671875 74.21875 48.875 69.140625 
Q 55.078125 64.0625 55.078125 55.328125 
Q 55.078125 49.078125 51.53125 44.71875 
Q 48 40.375 41.703125 38.8125 
Q 48.828125 37.15625 52.796875 32.3125 
Q 56.78125 27.484375 56.78125 20.515625 
Q 56.78125 9.90625 50.3125 4.234375 
Q 43.84375 -1.421875 31.78125 -1.421875 
Q 19.734375 -1.421875 13.25 4.234375 
Q 6.78125 9.90625 6.78125 20.515625 
Q 6.78125 27.484375 10.78125 32.3125 
Q 14.796875 37.15625 21.921875 38.8125 
M 18.3125 54.390625 
Q 18.3125 48.734375 21.84375 45.5625 
Q 25.390625 42.390625 31.78125 42.390625 
Q 38.140625 42.390625 41.71875 45.5625 
Q 45.3125 48.734375 45.3125 54.390625 
Q 45.3125 60.0625 41.71875 63.234375 
Q 38.140625 66.40625 31.78125 66.40625 
Q 25.390625 66.40625 21.84375 63.234375 
Q 18.3125 60.0625 18.3125 54.390625 
" id="BitstreamVeraSans-Roman-38"/>
      </defs>
      <g transform="translate(23.81375 84.053)scale(0.12 -0.12)">
       <use xlink:href="#BitstreamVeraSans-Roman-30"/>
       <use x="63.623046875" xlink:href="#BitstreamVeraSans-Roman-2e"/>
       <use x="95.41015625" xlink:href="#BitstreamVeraSans-Roman-38"/>
      </g>
     </g>
    </g>
    <g id="ytick_6">
     <g id="line2d_29">
      <g>
       <use style="stroke:#000000;stroke-width:0.5;" x="46.8975" xlink:href="#ma7f8b234b6" y="23.14175"/>
      </g>
     </g>
     <g id="line2d_30">
      <g>
       <use style="stroke:#000000;stroke-width:0.5;" x="493.2975" xlink:href="#m4ab78dcc79" y="23.14175"/>
      </g>
     </g>
     <g id="text_12">
      <!-- 1.0 -->
      <g transform="translate(23.81375 26.453)scale(0.12 -0.12)">
       <use xlink:href="#BitstreamVeraSans-Roman-31"/>
       <use x="63.623046875" xlink:href="#BitstreamVeraSans-Roman-2e"/>
       <use x="95.41015625" xlink:href="#BitstreamVeraSans-Roman-30"/>
      </g>
     </g>
    </g>
    <g id="text_13">
     <!-- Random but decaying values -->
     <defs>
      <path d="M 48.78125 52.59375 
L 48.78125 44.1875 
Q 44.96875 46.296875 41.140625 47.34375 
Q 37.3125 48.390625 33.40625 48.390625 
Q 24.65625 48.390625 19.8125 42.84375 
Q 14.984375 37.3125 14.984375 27.296875 
Q 14.984375 17.28125 19.8125 11.734375 
Q 24.65625 6.203125 33.40625 6.203125 
Q 37.3125 6.203125 41.140625 7.25 
Q 44.96875 8.296875 48.78125 10.40625 
L 48.78125 2.09375 
Q 45.015625 0.34375 40.984375 -0.53125 
Q 36.96875 -1.421875 32.421875 -1.421875 
Q 20.0625 -1.421875 12.78125 6.34375 
Q 5.515625 14.109375 5.515625 27.296875 
Q 5.515625 40.671875 12.859375 48.328125 
Q 20.21875 56 33.015625 56 
Q 37.15625 56 41.109375 55.140625 
Q 45.0625 54.296875 48.78125 52.59375 
" id="BitstreamVeraSans-Roman-63"/>
      <path d="M 30.609375 48.390625 
Q 23.390625 48.390625 19.1875 42.75 
Q 14.984375 37.109375 14.984375 27.296875 
Q 14.984375 17.484375 19.15625 11.84375 
Q 23.34375 6.203125 30.609375 6.203125 
Q 37.796875 6.203125 41.984375 11.859375 
Q 46.1875 17.53125 46.1875 27.296875 
Q 46.1875 37.015625 41.984375 42.703125 
Q 37.796875 48.390625 30.609375 48.390625 
M 30.609375 56 
Q 42.328125 56 49.015625 48.375 
Q 55.71875 40.765625 55.71875 27.296875 
Q 55.71875 13.875 49.015625 6.21875 
Q 42.328125 -1.421875 30.609375 -1.421875 
Q 18.84375 -1.421875 12.171875 6.21875 
Q 5.515625 13.875 5.515625 27.296875 
Q 5.515625 40.765625 12.171875 48.375 
Q 18.84375 56 30.609375 56 
" id="BitstreamVeraSans-Roman-6f"/>
      <path d="M 9.421875 75.984375 
L 18.40625 75.984375 
L 18.40625 0 
L 9.421875 0 
z
" id="BitstreamVeraSans-Roman-6c"/>
      <path d="M 45.40625 46.390625 
L 45.40625 75.984375 
L 54.390625 75.984375 
L 54.390625 0 
L 45.40625 0 
L 45.40625 8.203125 
Q 42.578125 3.328125 38.25 0.953125 
Q 33.9375 -1.421875 27.875 -1.421875 
Q 17.96875 -1.421875 11.734375 6.484375 
Q 5.515625 14.40625 5.515625 27.296875 
Q 5.515625 40.1875 11.734375 48.09375 
Q 17.96875 56 27.875 56 
Q 33.9375 56 38.25 53.625 
Q 42.578125 51.265625 45.40625 46.390625 
M 14.796875 27.296875 
Q 14.796875 17.390625 18.875 11.75 
Q 22.953125 6.109375 30.078125 6.109375 
Q 37.203125 6.109375 41.296875 11.75 
Q 45.40625 17.390625 45.40625 27.296875 
Q 45.40625 37.203125 41.296875 42.84375 
Q 37.203125 48.484375 30.078125 48.484375 
Q 22.953125 48.484375 18.875 42.84375 
Q 14.796875 37.203125 14.796875 27.296875 
" id="BitstreamVeraSans-Roman-64"/>
      <path d="M 48.6875 27.296875 
Q 48.6875 37.203125 44.609375 42.84375 
Q 40.53125 48.484375 33.40625 48.484375 
Q 26.265625 48.484375 22.1875 42.84375 
Q 18.109375 37.203125 18.109375 27.296875 
Q 18.109375 17.390625 22.1875 11.75 
Q 26.265625 6.109375 33.40625 6.109375 
Q 40.53125 6.109375 44.609375 11.75 
Q 48.6875 17.390625 48.6875 27.296875 
M 18.109375 46.390625 
Q 20.953125 51.265625 25.265625 53.625 
Q 29.59375 56 35.59375 56 
Q 45.5625 56 51.78125 48.09375 
Q 58.015625 40.1875 58.015625 27.296875 
Q 58.015625 14.40625 51.78125 6.484375 
Q 45.5625 -1.421875 35.59375 -1.421875 
Q 29.59375 -1.421875 25.265625 0.953125 
Q 20.953125 3.328125 18.109375 8.203125 
L 18.109375 0 
L 9.078125 0 
L 9.078125 75.984375 
L 18.109375 75.984375 
z
" id="BitstreamVeraSans-Roman-62"/>
      <path d="M 44.390625 34.1875 
Q 47.5625 33.109375 50.5625 29.59375 
Q 53.5625 26.078125 56.59375 19.921875 
L 66.609375 0 
L 56 0 
L 46.6875 18.703125 
Q 43.0625 26.03125 39.671875 28.421875 
Q 36.28125 30.8125 30.421875 30.8125 
L 19.671875 30.8125 
L 19.671875 0 
L 9.8125 0 
L 9.8125 72.90625 
L 32.078125 72.90625 
Q 44.578125 72.90625 50.734375 67.671875 
Q 56.890625 62.453125 56.890625 51.90625 
Q 56.890625 45.015625 53.6875 40.46875 
Q 50.484375 35.9375 44.390625 34.1875 
M 19.671875 64.796875 
L 19.671875 38.921875 
L 32.078125 38.921875 
Q 39.203125 38.921875 42.84375 42.21875 
Q 46.484375 45.515625 46.484375 51.90625 
Q 46.484375 58.296875 42.84375 61.546875 
Q 39.203125 64.796875 32.078125 64.796875 
z
" id="BitstreamVeraSans-Roman-52"/>
      <path d="M 8.5 21.578125 
L 8.5 54.6875 
L 17.484375 54.6875 
L 17.484375 21.921875 
Q 17.484375 14.15625 20.5 10.265625 
Q 23.53125 6.390625 29.59375 6.390625 
Q 36.859375 6.390625 41.078125 11.03125 
Q 45.3125 15.671875 45.3125 23.6875 
L 45.3125 54.6875 
L 54.296875 54.6875 
L 54.296875 0 
L 45.3125 0 
L 45.3125 8.40625 
Q 42.046875 3.421875 37.71875 1 
Q 33.40625 -1.421875 27.6875 -1.421875 
Q 18.265625 -1.421875 13.375 4.4375 
Q 8.5 10.296875 8.5 21.578125 
" id="BitstreamVeraSans-Roman-75"/>
      <path d="M 54.890625 33.015625 
L 54.890625 0 
L 45.90625 0 
L 45.90625 32.71875 
Q 45.90625 40.484375 42.875 44.328125 
Q 39.84375 48.1875 33.796875 48.1875 
Q 26.515625 48.1875 22.3125 43.546875 
Q 18.109375 38.921875 18.109375 30.90625 
L 18.109375 0 
L 9.078125 0 
L 9.078125 54.6875 
L 18.109375 54.6875 
L 18.109375 46.1875 
Q 21.34375 51.125 25.703125 53.5625 
Q 30.078125 56 35.796875 56 
Q 45.21875 56 50.046875 50.171875 
Q 54.890625 44.34375 54.890625 33.015625 
" id="BitstreamVeraSans-Roman-6e"/>
      <path d="M 45.40625 27.984375 
Q 45.40625 37.75 41.375 43.109375 
Q 37.359375 48.484375 30.078125 48.484375 
Q 22.859375 48.484375 18.828125 43.109375 
Q 14.796875 37.75 14.796875 27.984375 
Q 14.796875 18.265625 18.828125 12.890625 
Q 22.859375 7.515625 30.078125 7.515625 
Q 37.359375 7.515625 41.375 12.890625 
Q 45.40625 18.265625 45.40625 27.984375 
M 54.390625 6.78125 
Q 54.390625 -7.171875 48.1875 -13.984375 
Q 42 -20.796875 29.203125 -20.796875 
Q 24.46875 -20.796875 20.265625 -20.09375 
Q 16.0625 -19.390625 12.109375 -17.921875 
L 12.109375 -9.1875 
Q 16.0625 -11.328125 19.921875 -12.34375 
Q 23.78125 -13.375 27.78125 -13.375 
Q 36.625 -13.375 41.015625 -8.765625 
Q 45.40625 -4.15625 45.40625 5.171875 
L 45.40625 9.625 
Q 42.625 4.78125 38.28125 2.390625 
Q 33.9375 0 27.875 0 
Q 17.828125 0 11.671875 7.65625 
Q 5.515625 15.328125 5.515625 27.984375 
Q 5.515625 40.671875 11.671875 48.328125 
Q 17.828125 56 27.875 56 
Q 33.9375 56 38.28125 53.609375 
Q 42.625 51.21875 45.40625 46.390625 
L 45.40625 54.6875 
L 54.390625 54.6875 
z
" id="BitstreamVeraSans-Roman-67"/>
      <path d="M 52 44.1875 
Q 55.375 50.25 60.0625 53.125 
Q 64.75 56 71.09375 56 
Q 79.640625 56 84.28125 50.015625 
Q 88.921875 44.046875 88.921875 33.015625 
L 88.921875 0 
L 79.890625 0 
L 79.890625 32.71875 
Q 79.890625 40.578125 77.09375 44.375 
Q 74.3125 48.1875 68.609375 48.1875 
Q 61.625 48.1875 57.5625 43.546875 
Q 53.515625 38.921875 53.515625 30.90625 
L 53.515625 0 
L 44.484375 0 
L 44.484375 32.71875 
Q 44.484375 40.625 41.703125 44.40625 
Q 38.921875 48.1875 33.109375 48.1875 
Q 26.21875 48.1875 22.15625 43.53125 
Q 18.109375 38.875 18.109375 30.90625 
L 18.109375 0 
L 9.078125 0 
L 9.078125 54.6875 
L 18.109375 54.6875 
L 18.109375 46.1875 
Q 21.1875 51.21875 25.484375 53.609375 
Q 29.78125 56 35.6875 56 
Q 41.65625 56 45.828125 52.96875 
Q 50 49.953125 52 44.1875 
" id="BitstreamVeraSans-Roman-6d"/>
      <path d="M 2.984375 54.6875 
L 12.5 54.6875 
L 29.59375 8.796875 
L 46.6875 54.6875 
L 56.203125 54.6875 
L 35.6875 0 
L 23.484375 0 
z
" id="BitstreamVeraSans-Roman-76"/>
      <path d="M 32.171875 -5.078125 
Q 28.375 -14.84375 24.75 -17.8125 
Q 21.140625 -20.796875 15.09375 -20.796875 
L 7.90625 -20.796875 
L 7.90625 -13.28125 
L 13.1875 -13.28125 
Q 16.890625 -13.28125 18.9375 -11.515625 
Q 21 -9.765625 23.484375 -3.21875 
L 25.09375 0.875 
L 2.984375 54.6875 
L 12.5 54.6875 
L 29.59375 11.921875 
L 46.6875 54.6875 
L 56.203125 54.6875 
z
" id="BitstreamVeraSans-Roman-79"/>
     </defs>
     <g transform="translate(16.318125 254.6189375)rotate(-90.0)scale(0.12 -0.12)">
      <use xlink:href="#BitstreamVeraSans-Roman-52"/>
      <use x="69.451171875" xlink:href="#BitstreamVeraSans-Roman-61"/>
      <use x="130.73046875" xlink:href="#BitstreamVeraSans-Roman-6e"/>
      <use x="194.109375" xlink:href="#BitstreamVeraSans-Roman-64"/>
      <use x="257.5859375" xlink:href="#BitstreamVeraSans-Roman-6f"/>
      <use x="318.767578125" xlink:href="#BitstreamVeraSans-Roman-6d"/>
      <use x="416.1796875" xlink:href="#BitstreamVeraSans-Roman-20"/>
      <use x="447.966796875" xlink:href="#BitstreamVeraSans-Roman-62"/>
      <use x="511.443359375" xlink:href="#BitstreamVeraSans-Roman-75"/>
      <use x="574.822265625" xlink:href="#BitstreamVeraSans-Roman-74"/>
      <use x="614.03125" xlink:href="#BitstreamVeraSans-Roman-20"/>
      <use x="645.818359375" xlink:href="#BitstreamVeraSans-Roman-64"/>
      <use x="709.294921875" xlink:href="#BitstreamVeraSans-Roman-65"/>
      <use x="770.818359375" xlink:href="#BitstreamVeraSans-Roman-63"/>
      <use x="825.798828125" xlink:href="#BitstreamVeraSans-Roman-61"/>
      <use x="887.078125" xlink:href="#BitstreamVeraSans-Roman-79"/>
      <use x="946.2578125" xlink:href="#BitstreamVeraSans-Roman-69"/>
      <use x="974.041015625" xlink:href="#BitstreamVeraSans-Roman-6e"/>
      <use x="1037.419921875" xlink:href="#BitstreamVeraSans-Roman-67"/>
      <use x="1100.896484375" xlink:href="#BitstreamVeraSans-Roman-20"/>
      <use x="1132.68359375" xlink:href="#BitstreamVeraSans-Roman-76"/>
      <use x="1191.86328125" xlink:href="#BitstreamVeraSans-Roman-61"/>
      <use x="1253.142578125" xlink:href="#BitstreamVeraSans-Roman-6c"/>
      <use x="1280.92578125" xlink:href="#BitstreamVeraSans-Roman-75"/>
      <use x="1344.3046875" xlink:href="#BitstreamVeraSans-Roman-65"/>
      <use x="1405.828125" xlink:href="#BitstreamVeraSans-Roman-73"/>
     </g>
    </g>
   </g>
   <g id="text_14">
    <!-- Qualitatively Different Lines -->
    <defs>
     <path d="M 9.8125 72.90625 
L 19.671875 72.90625 
L 19.671875 8.296875 
L 55.171875 8.296875 
L 55.171875 0 
L 9.8125 0 
z
" id="BitstreamVeraSans-Roman-4c"/>
     <path d="M 41.109375 46.296875 
Q 39.59375 47.171875 37.8125 47.578125 
Q 36.03125 48 33.890625 48 
Q 26.265625 48 22.1875 43.046875 
Q 18.109375 38.09375 18.109375 28.8125 
L 18.109375 0 
L 9.078125 0 
L 9.078125 54.6875 
L 18.109375 54.6875 
L 18.109375 46.1875 
Q 20.953125 51.171875 25.484375 53.578125 
Q 30.03125 56 36.53125 56 
Q 37.453125 56 38.578125 55.875 
Q 39.703125 55.765625 41.0625 55.515625 
z
" id="BitstreamVeraSans-Roman-72"/>
     <path d="M 19.671875 64.796875 
L 19.671875 8.109375 
L 31.59375 8.109375 
Q 46.6875 8.109375 53.6875 14.9375 
Q 60.6875 21.78125 60.6875 36.53125 
Q 60.6875 51.171875 53.6875 57.984375 
Q 46.6875 64.796875 31.59375 64.796875 
z
M 9.8125 72.90625 
L 30.078125 72.90625 
Q 51.265625 72.90625 61.171875 64.09375 
Q 71.09375 55.28125 71.09375 36.53125 
Q 71.09375 17.671875 61.125 8.828125 
Q 51.171875 0 30.078125 0 
L 9.8125 0 
z
" id="BitstreamVeraSans-Roman-44"/>
     <path d="M 37.109375 75.984375 
L 37.109375 68.5 
L 28.515625 68.5 
Q 23.6875 68.5 21.796875 66.546875 
Q 19.921875 64.59375 19.921875 59.515625 
L 19.921875 54.6875 
L 34.71875 54.6875 
L 34.71875 47.703125 
L 19.921875 47.703125 
L 19.921875 0 
L 10.890625 0 
L 10.890625 47.703125 
L 2.296875 47.703125 
L 2.296875 54.6875 
L 10.890625 54.6875 
L 10.890625 58.5 
Q 10.890625 67.625 15.140625 71.796875 
Q 19.390625 75.984375 28.609375 75.984375 
z
" id="BitstreamVeraSans-Roman-66"/>
     <path d="M 39.40625 66.21875 
Q 28.65625 66.21875 22.328125 58.203125 
Q 16.015625 50.203125 16.015625 36.375 
Q 16.015625 22.609375 22.328125 14.59375 
Q 28.65625 6.59375 39.40625 6.59375 
Q 50.140625 6.59375 56.421875 14.59375 
Q 62.703125 22.609375 62.703125 36.375 
Q 62.703125 50.203125 56.421875 58.203125 
Q 50.140625 66.21875 39.40625 66.21875 
M 53.21875 1.3125 
L 66.21875 -12.890625 
L 54.296875 -12.890625 
L 43.5 -1.21875 
Q 41.890625 -1.3125 41.03125 -1.359375 
Q 40.1875 -1.421875 39.40625 -1.421875 
Q 24.03125 -1.421875 14.8125 8.859375 
Q 5.609375 19.140625 5.609375 36.375 
Q 5.609375 53.65625 14.8125 63.9375 
Q 24.03125 74.21875 39.40625 74.21875 
Q 54.734375 74.21875 63.90625 63.9375 
Q 73.09375 53.65625 73.09375 36.375 
Q 73.09375 23.6875 67.984375 14.640625 
Q 62.890625 5.609375 53.21875 1.3125 
" id="BitstreamVeraSans-Roman-51"/>
    </defs>
    <g transform="translate(169.293 18.14175)scale(0.144 -0.144)">
     <use xlink:href="#BitstreamVeraSans-Roman-51"/>
     <use x="78.7109375" xlink:href="#BitstreamVeraSans-Roman-75"/>
     <use x="142.08984375" xlink:href="#BitstreamVeraSans-Roman-61"/>
     <use x="203.369140625" xlink:href="#BitstreamVeraSans-Roman-6c"/>
     <use x="231.15234375" xlink:href="#BitstreamVeraSans-Roman-69"/>
     <use x="258.935546875" xlink:href="#BitstreamVeraSans-Roman-74"/>
     <use x="298.14453125" xlink:href="#BitstreamVeraSans-Roman-61"/>
     <use x="359.423828125" xlink:href="#BitstreamVeraSans-Roman-74"/>
     <use x="398.6328125" xlink:href="#BitstreamVeraSans-Roman-69"/>
     <use x="426.416015625" xlink:href="#BitstreamVeraSans-Roman-76"/>
     <use x="485.595703125" xlink:href="#BitstreamVeraSans-Roman-65"/>
     <use x="547.119140625" xlink:href="#BitstreamVeraSans-Roman-6c"/>
     <use x="574.90234375" xlink:href="#BitstreamVeraSans-Roman-79"/>
     <use x="634.08203125" xlink:href="#BitstreamVeraSans-Roman-20"/>
     <use x="665.869140625" xlink:href="#BitstreamVeraSans-Roman-44"/>
     <use x="742.87109375" xlink:href="#BitstreamVeraSans-Roman-69"/>
     <use x="770.654296875" xlink:href="#BitstreamVeraSans-Roman-66"/>
     <use x="805.859375" xlink:href="#BitstreamVeraSans-Roman-66"/>
     <use x="841.064453125" xlink:href="#BitstreamVeraSans-Roman-65"/>
     <use x="902.587890625" xlink:href="#BitstreamVeraSans-Roman-72"/>
     <use x="943.669921875" xlink:href="#BitstreamVeraSans-Roman-65"/>
     <use x="1005.193359375" xlink:href="#BitstreamVeraSans-Roman-6e"/>
     <use x="1068.572265625" xlink:href="#BitstreamVeraSans-Roman-74"/>
     <use x="1107.78125" xlink:href="#BitstreamVeraSans-Roman-20"/>
     <use x="1139.568359375" xlink:href="#BitstreamVeraSans-Roman-4c"/>
     <use x="1195.28125" xlink:href="#BitstreamVeraSans-Roman-69"/>
     <use x="1223.064453125" xlink:href="#BitstreamVeraSans-Roman-6e"/>
     <use x="1286.443359375" xlink:href="#BitstreamVeraSans-Roman-65"/>
     <use x="1347.966796875" xlink:href="#BitstreamVeraSans-Roman-73"/>
    </g>
   </g>
  </g>
 </g>
 <defs>
  <clipPath id="p1b47a4ce26">
   <rect height="288.0" width="446.4" x="46.8975" y="23.14175"/>
  </clipPath>
 </defs>
</svg>
