<?xml version="1.0" encoding="utf-8" standalone="no"?>
<!DOCTYPE svg PUBLIC "-//W3C//DTD SVG 1.1//EN"
  "http://www.w3.org/Graphics/SVG/1.1/DTD/svg11.dtd">
<!-- Created with matplotlib (http://matplotlib.org/) -->
<svg height="355pt" version="1.1" viewBox="0 0 510 355" width="510pt" xmlns="http://www.w3.org/2000/svg" xmlns:xlink="http://www.w3.org/1999/xlink">
 <defs>
  <style type="text/css">
*{stroke-linecap:butt;stroke-linejoin:round;stroke-miterlimit:100000;}
  </style>
 </defs>
 <g id="figure_1">
  <g id="patch_1">
   <path d="M 0 355.08035 
L 510.45525 355.08035 
L 510.45525 0 
L 0 0 
z
" style="fill:#ffffff;"/>
  </g>
  <g id="axes_1">
   <g id="patch_2">
    <path d="M 49.22025 313.3301 
L 495.62025 313.3301 
L 495.62025 25.3301 
L 49.22025 25.3301 
z
" style="fill:#ffffff;"/>
   </g>
   <g id="line2d_1">
    <path clip-path="url(#p87131fca25)" d="M 49.22025 26.192252 
L 50.713227 26.880564 
L 52.206203 26.971208 
L 53.69918 26.372502 
L 55.192156 27.725871 
L 56.685133 27.061965 
L 58.17811 27.093358 
L 59.671086 27.499219 
L 61.164063 28.089097 
L 62.657039 26.948549 
L 64.150016 27.960223 
L 65.642992 27.575025 
L 67.135969 29.253513 
L 68.628946 29.836773 
L 70.121922 27.727562 
L 71.614899 28.8337 
L 73.107875 28.520439 
L 74.600852 30.608105 
L 76.093829 28.742871 
L 77.586805 30.460114 
L 79.079782 29.998774 
L 80.572758 28.987645 
L 82.065735 32.137289 
L 83.558712 30.917417 
L 85.051688 31.749974 
L 86.544665 30.788783 
L 88.037641 37.472926 
L 89.530618 32.189427 
L 91.023594 34.487681 
L 92.516571 32.881647 
L 95.502524 41.846126 
L 96.995501 34.733328 
L 98.488477 45.515273 
L 99.981454 32.317116 
L 101.474431 39.832736 
L 102.967407 43.265616 
L 104.460384 40.775893 
L 105.95336 35.937429 
L 107.446337 42.036383 
L 108.939314 39.106335 
L 110.43229 51.236165 
L 111.925267 41.910443 
L 113.418243 43.413492 
L 114.91122 45.321463 
L 116.404196 53.244067 
L 117.897173 41.605939 
L 119.39015 55.362821 
L 120.883126 44.5424 
L 122.376103 58.612455 
L 123.869079 58.731084 
L 125.362056 68.990533 
L 126.855033 51.521261 
L 128.348009 59.521078 
L 129.840986 54.684432 
L 131.333962 75.611415 
L 132.826939 53.597519 
L 134.319916 71.619489 
L 135.812892 66.704222 
L 137.305869 104.479576 
L 138.798845 113.061091 
L 140.291822 105.236743 
L 141.784798 118.920825 
L 143.277775 127.051137 
L 144.770752 105.097865 
L 146.263728 122.647278 
L 147.756705 109.449661 
L 149.249681 137.13364 
L 150.742658 98.571151 
L 152.235635 168.574777 
L 153.728611 126.044279 
L 155.221588 128.385105 
L 156.714564 132.915277 
L 158.207541 174.77592 
L 159.700518 138.126653 
L 161.193494 216.839555 
L 162.686471 165.234858 
L 164.179447 172.552478 
L 165.672424 184.463688 
L 167.165401 225.155051 
L 168.658377 245.277832 
L 170.151354 239.657015 
L 171.64433 215.6196 
L 173.137307 216.815957 
L 174.630283 192.053935 
L 176.12326 232.586223 
L 177.616237 235.815213 
L 179.109213 240.19033 
L 180.60219 293.138612 
L 182.095166 270.336761 
L 183.588143 264.166103 
L 185.08112 274.841449 
L 186.574096 276.267333 
L 188.067073 280.605516 
L 189.560049 265.306264 
L 191.053026 295.630697 
L 192.546003 287.951678 
L 194.038979 299.781662 
L 195.531956 299.615316 
L 197.024932 307.807416 
L 198.517909 312.70207 
L 200.010885 282.115089 
L 201.503862 297.891515 
L 202.996839 300.830037 
L 204.489815 311.084939 
L 205.982792 313.287603 
L 207.475768 310.565624 
L 208.968745 312.80386 
L 210.461722 308.023936 
L 211.954698 312.274537 
L 213.447675 313.308916 
L 214.940651 312.955217 
L 217.926605 313.28368 
L 219.419581 313.209941 
L 222.405534 313.316419 
L 228.377441 313.249181 
L 234.349347 313.330097 
L 495.62025 313.3301 
L 495.62025 313.3301 
" style="fill:none;stroke:#4daf4a;stroke-linecap:square;stroke-width:2.0;"/>
   </g>
   <g id="line2d_2">
    <path clip-path="url(#p87131fca25)" d="M 49.22025 25.557596 
L 50.713227 25.735894 
L 56.685133 25.710725 
L 58.17811 25.734416 
L 59.671086 25.644209 
L 65.642992 26.190708 
L 67.135969 25.72603 
L 70.121922 25.985123 
L 71.614899 25.88415 
L 74.600852 26.31479 
L 76.093829 26.05337 
L 77.586805 26.638569 
L 79.079782 26.614536 
L 80.572758 26.446323 
L 82.065735 26.589953 
L 83.558712 26.312486 
L 85.051688 26.990797 
L 86.544665 25.964998 
L 88.037641 26.421892 
L 89.530618 26.607559 
L 91.023594 26.381712 
L 92.516571 26.406374 
L 94.009548 26.648731 
L 95.502524 27.582256 
L 96.995501 27.062348 
L 98.488477 27.443384 
L 99.981454 28.142281 
L 101.474431 27.872924 
L 102.967407 28.008782 
L 104.460384 29.080407 
L 105.95336 29.053619 
L 107.446337 27.7433 
L 108.939314 28.95749 
L 110.43229 29.286157 
L 111.925267 30.096307 
L 113.418243 30.730232 
L 114.91122 29.43854 
L 116.404196 32.148108 
L 117.897173 28.780429 
L 119.39015 29.839188 
L 120.883126 30.258795 
L 122.376103 33.418748 
L 123.869079 31.205397 
L 125.362056 32.679838 
L 126.855033 37.610879 
L 128.348009 30.621961 
L 129.840986 31.327113 
L 131.333962 37.763855 
L 132.826939 36.312376 
L 134.319916 32.966978 
L 135.812892 36.980169 
L 137.305869 36.300308 
L 138.798845 38.301422 
L 140.291822 36.859764 
L 141.784798 42.970926 
L 143.277775 32.317048 
L 144.770752 40.137824 
L 146.263728 41.118567 
L 147.756705 56.071034 
L 149.249681 46.720271 
L 150.742658 41.518735 
L 152.235635 45.145597 
L 153.728611 43.204094 
L 155.221588 58.142031 
L 156.714564 40.390606 
L 158.207541 61.075207 
L 159.700518 52.773761 
L 161.193494 71.512567 
L 162.686471 53.662427 
L 164.179447 61.215042 
L 165.672424 117.542266 
L 167.165401 61.405609 
L 168.658377 78.895138 
L 170.151354 94.235671 
L 171.64433 104.175022 
L 173.137307 79.193367 
L 174.630283 81.048256 
L 176.12326 84.068461 
L 177.616237 87.700502 
L 179.109213 124.361278 
L 180.60219 148.369463 
L 182.095166 131.009225 
L 183.588143 165.579138 
L 185.08112 100.33202 
L 186.574096 151.883177 
L 188.067073 105.743905 
L 189.560049 159.036696 
L 191.053026 171.255792 
L 192.546003 244.108057 
L 194.038979 176.415793 
L 195.531956 172.53035 
L 197.024932 226.560236 
L 198.517909 214.126774 
L 200.010885 192.332442 
L 201.503862 221.898913 
L 202.996839 180.476322 
L 204.489815 206.864177 
L 205.982792 251.236905 
L 207.475768 219.597845 
L 208.968745 232.702455 
L 210.461722 217.602246 
L 211.954698 255.227716 
L 213.447675 262.481559 
L 214.940651 260.681742 
L 216.433628 278.663576 
L 217.926605 300.15914 
L 219.419581 271.664848 
L 220.912558 270.501143 
L 222.405534 267.580663 
L 223.898511 282.754729 
L 225.391487 292.286245 
L 226.884464 287.665887 
L 228.377441 309.237017 
L 229.870417 303.311562 
L 231.363394 308.392294 
L 232.85637 293.888033 
L 234.349347 299.27907 
L 235.842324 304.038314 
L 237.3353 292.828952 
L 238.828277 311.374586 
L 240.321253 313.233881 
L 241.81423 312.274285 
L 243.307207 313.328564 
L 244.800183 313.237897 
L 246.29316 307.974692 
L 247.786136 312.834771 
L 249.279113 313.282097 
L 250.772089 313.327525 
L 252.265066 310.556529 
L 253.758043 313.305183 
L 255.251019 310.189781 
L 256.743996 313.329099 
L 423.957374 313.3301 
L 495.62025 313.3301 
L 495.62025 313.3301 
" style="fill:none;stroke:#419388;stroke-linecap:square;stroke-width:2.0;"/>
   </g>
   <g id="line2d_3">
    <path clip-path="url(#p87131fca25)" d="M 49.22025 25.381318 
L 71.614899 25.481405 
L 76.093829 25.558103 
L 79.079782 25.464898 
L 80.572758 25.581298 
L 82.065735 25.474558 
L 83.558712 25.609416 
L 85.051688 25.551578 
L 91.023594 25.983073 
L 92.516571 25.686861 
L 95.502524 25.993094 
L 96.995501 25.566584 
L 98.488477 25.676529 
L 99.981454 25.997451 
L 101.474431 25.764052 
L 102.967407 26.317196 
L 104.460384 26.134252 
L 105.95336 26.393729 
L 107.446337 25.811053 
L 111.925267 25.85432 
L 113.418243 26.190021 
L 114.91122 26.237567 
L 116.404196 25.995616 
L 117.897173 26.897597 
L 119.39015 26.903894 
L 120.883126 26.26904 
L 122.376103 26.609761 
L 125.362056 26.89852 
L 126.855033 27.294864 
L 131.333962 26.694909 
L 132.826939 26.752256 
L 134.319916 27.97805 
L 135.812892 27.142756 
L 137.305869 27.42763 
L 138.798845 28.181554 
L 140.291822 27.375817 
L 141.784798 27.400722 
L 143.277775 29.472429 
L 144.770752 29.686535 
L 146.263728 31.500938 
L 147.756705 28.614655 
L 149.249681 28.558808 
L 150.742658 28.253493 
L 152.235635 32.942336 
L 153.728611 36.729376 
L 155.221588 30.391412 
L 156.714564 31.316138 
L 158.207541 34.715064 
L 159.700518 35.379723 
L 161.193494 35.78048 
L 162.686471 34.537557 
L 164.179447 35.035134 
L 165.672424 33.578586 
L 167.165401 34.672126 
L 168.658377 42.077065 
L 170.151354 37.067245 
L 171.64433 37.641945 
L 173.137307 35.036131 
L 174.630283 42.539808 
L 176.12326 45.791488 
L 177.616237 34.475947 
L 179.109213 55.466406 
L 180.60219 68.819119 
L 182.095166 44.108271 
L 183.588143 50.060384 
L 185.08112 49.086643 
L 186.574096 48.419144 
L 188.067073 45.560331 
L 189.560049 60.014883 
L 191.053026 57.607105 
L 192.546003 53.017314 
L 194.038979 50.578285 
L 195.531956 70.914203 
L 197.024932 78.985395 
L 198.517909 64.874025 
L 200.010885 74.329349 
L 201.503862 79.967918 
L 202.996839 54.938664 
L 204.489815 107.767671 
L 205.982792 108.782142 
L 207.475768 98.438603 
L 208.968745 77.793375 
L 210.461722 145.241953 
L 211.954698 125.360339 
L 213.447675 122.429494 
L 214.940651 83.066774 
L 216.433628 146.426571 
L 217.926605 132.368458 
L 219.419581 107.715988 
L 220.912558 161.21068 
L 222.405534 109.58446 
L 223.898511 160.253006 
L 225.391487 134.098494 
L 226.884464 182.632101 
L 228.377441 129.059836 
L 229.870417 222.946808 
L 231.363394 214.186556 
L 232.85637 154.157502 
L 234.349347 148.037802 
L 235.842324 211.413226 
L 237.3353 156.020949 
L 238.828277 158.794904 
L 240.321253 167.27843 
L 241.81423 148.426743 
L 243.307207 234.478976 
L 244.800183 245.773576 
L 246.29316 286.410748 
L 247.786136 285.501547 
L 249.279113 237.366954 
L 250.772089 249.754369 
L 252.265066 283.484952 
L 253.758043 272.245706 
L 255.251019 282.432975 
L 256.743996 266.365422 
L 258.236972 247.744679 
L 259.729949 300.034759 
L 261.222926 276.334111 
L 262.715902 284.881235 
L 264.208879 283.124848 
L 265.701855 299.974293 
L 267.194832 301.826712 
L 268.687809 310.431292 
L 270.180785 305.325816 
L 271.673762 310.13878 
L 273.166738 308.49402 
L 274.659715 311.678409 
L 276.152691 312.623804 
L 277.645668 296.65502 
L 279.138645 304.466643 
L 280.631621 297.680005 
L 282.124598 308.664828 
L 283.617574 310.861602 
L 285.110551 313.299328 
L 286.603528 312.147349 
L 288.096504 313.105807 
L 289.589481 313.311133 
L 295.561387 313.326306 
L 300.040317 313.329258 
L 495.62025 313.3301 
L 495.62025 313.3301 
" style="fill:none;stroke:#4577b5;stroke-linecap:square;stroke-width:2.0;"/>
   </g>
   <g id="line2d_4">
    <path clip-path="url(#p87131fca25)" d="M 49.22025 25.346934 
L 67.135969 25.346167 
L 77.586805 25.396589 
L 89.530618 25.367175 
L 95.502524 25.419198 
L 102.967407 25.427762 
L 104.460384 25.533727 
L 107.446337 25.487318 
L 108.939314 25.463863 
L 110.43229 25.641754 
L 111.925267 25.481921 
L 114.91122 25.608164 
L 116.404196 25.519963 
L 117.897173 25.774225 
L 119.39015 25.525718 
L 122.376103 25.595045 
L 128.348009 25.502379 
L 129.840986 25.805975 
L 132.826939 25.890246 
L 134.319916 25.654762 
L 137.305869 25.636549 
L 138.798845 25.803531 
L 140.291822 25.750432 
L 141.784798 26.1416 
L 143.277775 25.988918 
L 146.263728 26.027942 
L 147.756705 25.84839 
L 149.249681 26.081639 
L 150.742658 26.129204 
L 152.235635 26.403632 
L 155.221588 26.050469 
L 156.714564 26.120765 
L 158.207541 26.59632 
L 159.700518 26.357369 
L 161.193494 26.345852 
L 162.686471 26.831305 
L 164.179447 28.243733 
L 165.672424 26.566013 
L 167.165401 27.2505 
L 168.658377 27.326385 
L 170.151354 27.234191 
L 171.64433 28.358461 
L 173.137307 27.842784 
L 174.630283 27.105335 
L 176.12326 28.420499 
L 179.109213 30.435742 
L 180.60219 28.080214 
L 182.095166 29.655636 
L 183.588143 29.556728 
L 185.08112 31.566256 
L 186.574096 28.460641 
L 188.067073 30.00103 
L 189.560049 28.74921 
L 191.053026 31.207535 
L 192.546003 31.430296 
L 194.038979 31.970279 
L 195.531956 31.103977 
L 197.024932 29.556621 
L 198.517909 32.050506 
L 200.010885 30.030073 
L 201.503862 30.018136 
L 202.996839 31.881888 
L 204.489815 32.208863 
L 205.982792 32.40752 
L 207.475768 33.186674 
L 208.968745 39.696391 
L 210.461722 35.925521 
L 211.954698 34.870829 
L 213.447675 38.110599 
L 214.940651 39.554239 
L 217.926605 36.590975 
L 219.419581 35.758151 
L 220.912558 46.172099 
L 222.405534 46.495319 
L 223.898511 45.981738 
L 225.391487 54.281613 
L 226.884464 56.489386 
L 228.377441 68.677402 
L 229.870417 72.175239 
L 231.363394 58.50407 
L 232.85637 47.255391 
L 234.349347 48.514433 
L 235.842324 61.563841 
L 237.3353 76.44363 
L 238.828277 77.344056 
L 240.321253 53.300831 
L 241.81423 66.802129 
L 243.307207 61.45457 
L 244.800183 54.324738 
L 246.29316 66.74205 
L 247.786136 89.275696 
L 249.279113 81.265907 
L 250.772089 94.283886 
L 252.265066 91.331877 
L 253.758043 102.543662 
L 255.251019 106.689866 
L 256.743996 102.994804 
L 258.236972 96.838376 
L 259.729949 102.496473 
L 261.222926 77.681181 
L 262.715902 164.709825 
L 264.208879 167.074216 
L 265.701855 101.681193 
L 267.194832 160.285348 
L 268.687809 151.957051 
L 270.180785 134.512997 
L 271.673762 155.708329 
L 273.166738 174.376478 
L 274.659715 181.269171 
L 276.152691 149.146916 
L 277.645668 187.86367 
L 279.138645 141.935289 
L 280.631621 169.711366 
L 282.124598 194.989668 
L 283.617574 192.545304 
L 285.110551 220.722796 
L 286.603528 139.973561 
L 288.096504 170.785773 
L 289.589481 184.832238 
L 291.082457 249.21915 
L 292.575434 265.029817 
L 294.068411 252.546906 
L 295.561387 221.751297 
L 297.054364 249.284428 
L 298.54734 214.14515 
L 300.040317 261.944779 
L 301.533293 271.846843 
L 303.02627 269.372961 
L 304.519247 294.303784 
L 306.012223 287.079294 
L 307.5052 307.643542 
L 308.998176 282.858045 
L 310.491153 308.997068 
L 311.98413 303.576783 
L 313.477106 268.51806 
L 314.970083 299.76514 
L 316.463059 308.801178 
L 317.956036 295.478711 
L 319.449013 309.93913 
L 320.941989 307.236199 
L 322.434966 312.640839 
L 323.927942 312.722024 
L 325.420919 308.868191 
L 326.913895 312.706148 
L 328.406872 312.743282 
L 329.899849 312.314924 
L 331.392825 312.219022 
L 332.885802 313.257533 
L 335.871755 313.302862 
L 337.364732 312.98232 
L 338.857708 313.292357 
L 343.336638 313.329754 
L 362.745334 313.3301 
L 495.62025 313.3301 
L 495.62025 313.3301 
" style="fill:none;stroke:#7c5ca9;stroke-linecap:square;stroke-width:2.0;"/>
   </g>
   <g id="line2d_5">
    <path clip-path="url(#p87131fca25)" d="M 49.22025 25.332135 
L 126.855033 25.436435 
L 138.798845 25.516381 
L 140.291822 25.445076 
L 144.770752 25.525717 
L 147.756705 25.525789 
L 152.235635 25.515262 
L 153.728611 25.793084 
L 155.221588 25.733641 
L 156.714564 25.492598 
L 158.207541 25.797527 
L 159.700518 25.57033 
L 161.193494 25.88999 
L 162.686471 25.666214 
L 164.179447 26.020202 
L 165.672424 25.923305 
L 167.165401 25.986387 
L 168.658377 25.841983 
L 171.64433 25.993148 
L 173.137307 26.475851 
L 174.630283 26.190424 
L 176.12326 26.290334 
L 179.109213 26.231936 
L 180.60219 26.450993 
L 182.095166 27.12959 
L 183.588143 27.257086 
L 185.08112 27.178956 
L 186.574096 26.513914 
L 188.067073 26.327842 
L 191.053026 26.956752 
L 192.546003 27.370014 
L 194.038979 26.666053 
L 195.531956 27.90952 
L 197.024932 28.578955 
L 198.517909 28.858037 
L 200.010885 27.924343 
L 201.503862 27.312029 
L 202.996839 30.613508 
L 204.489815 28.366314 
L 205.982792 30.969633 
L 207.475768 29.011183 
L 208.968745 31.932675 
L 210.461722 32.807067 
L 211.954698 30.707123 
L 213.447675 32.356091 
L 214.940651 30.674814 
L 216.433628 30.21706 
L 217.926605 31.277103 
L 219.419581 36.023089 
L 220.912558 33.97425 
L 222.405534 32.906068 
L 223.898511 36.885833 
L 225.391487 32.630735 
L 226.884464 32.981579 
L 228.377441 32.764834 
L 229.870417 40.851312 
L 231.363394 42.007732 
L 232.85637 39.040002 
L 234.349347 38.546314 
L 235.842324 43.267252 
L 237.3353 46.742361 
L 238.828277 40.548259 
L 240.321253 40.900867 
L 241.81423 44.843959 
L 243.307207 50.578624 
L 244.800183 42.069365 
L 246.29316 39.630261 
L 247.786136 51.564746 
L 249.279113 44.572682 
L 250.772089 60.385525 
L 252.265066 56.646462 
L 253.758043 44.06114 
L 255.251019 61.472208 
L 256.743996 65.56932 
L 258.236972 77.837016 
L 259.729949 58.575091 
L 261.222926 62.938342 
L 262.715902 57.989293 
L 264.208879 62.243567 
L 265.701855 91.205399 
L 267.194832 107.59325 
L 268.687809 88.373517 
L 270.180785 88.769699 
L 271.673762 91.677548 
L 273.166738 77.735712 
L 274.659715 79.917854 
L 276.152691 116.608457 
L 277.645668 114.071104 
L 279.138645 107.959175 
L 280.631621 88.5466 
L 282.124598 97.391051 
L 283.617574 121.110898 
L 285.110551 174.442402 
L 286.603528 143.596481 
L 288.096504 176.755318 
L 289.589481 172.481053 
L 291.082457 135.41844 
L 292.575434 206.54185 
L 294.068411 172.535583 
L 295.561387 208.423767 
L 297.054364 216.343015 
L 298.54734 232.375264 
L 300.040317 198.67882 
L 301.533293 254.561238 
L 303.02627 254.131792 
L 304.519247 246.799795 
L 306.012223 262.316507 
L 307.5052 255.206751 
L 308.998176 227.443919 
L 310.491153 243.860515 
L 311.98413 234.967002 
L 313.477106 294.068911 
L 314.970083 297.096878 
L 316.463059 288.306479 
L 317.956036 276.232344 
L 319.449013 306.032343 
L 320.941989 306.042988 
L 322.434966 263.087698 
L 323.927942 308.960792 
L 325.420919 286.131828 
L 326.913895 285.805546 
L 328.406872 297.275599 
L 329.899849 311.916893 
L 331.392825 296.792275 
L 332.885802 310.747175 
L 334.378778 311.395269 
L 335.871755 312.336384 
L 337.364732 312.698685 
L 338.857708 310.414128 
L 340.350685 312.528747 
L 341.843661 313.256694 
L 343.336638 312.872946 
L 344.829615 311.024726 
L 346.322591 313.151951 
L 347.815568 313.310717 
L 353.787474 313.330098 
L 443.366069 313.3301 
L 495.62025 313.3301 
L 495.62025 313.3301 
" style="fill:none;stroke:#ae3f7c;stroke-linecap:square;stroke-width:2.0;"/>
   </g>
   <g id="line2d_6">
    <path clip-path="url(#p87131fca25)" d="M 49.22025 25.33112 
L 149.249681 25.400701 
L 150.742658 25.485258 
L 152.235635 25.3794 
L 183.588143 25.660336 
L 189.560049 25.85141 
L 191.053026 25.600732 
L 192.546003 26.344409 
L 194.038979 25.658711 
L 195.531956 25.990887 
L 197.024932 25.755624 
L 201.503862 25.95584 
L 202.996839 25.716484 
L 204.489815 26.583093 
L 205.982792 26.408868 
L 207.475768 26.115751 
L 208.968745 25.952299 
L 210.461722 27.164833 
L 211.954698 26.000391 
L 213.447675 26.823762 
L 214.940651 26.512184 
L 216.433628 26.541563 
L 217.926605 26.729619 
L 219.419581 26.686749 
L 220.912558 26.808455 
L 223.898511 27.460052 
L 225.391487 27.16553 
L 226.884464 27.08238 
L 228.377441 27.776149 
L 229.870417 28.28451 
L 231.363394 27.250252 
L 232.85637 28.132815 
L 234.349347 27.990001 
L 235.842324 29.035528 
L 237.3353 29.03095 
L 238.828277 28.321506 
L 240.321253 27.882882 
L 241.81423 28.629544 
L 243.307207 29.116714 
L 244.800183 30.163811 
L 246.29316 30.298859 
L 247.786136 29.975216 
L 249.279113 31.349596 
L 250.772089 30.944197 
L 252.265066 36.140131 
L 253.758043 37.640956 
L 255.251019 41.119764 
L 256.743996 37.569493 
L 258.236972 31.825404 
L 259.729949 33.615135 
L 262.715902 31.140799 
L 264.208879 34.655133 
L 265.701855 44.870103 
L 267.194832 36.658118 
L 268.687809 40.305559 
L 270.180785 40.868104 
L 271.673762 43.650109 
L 273.166738 45.607906 
L 274.659715 46.886451 
L 276.152691 60.521894 
L 277.645668 46.790861 
L 279.138645 46.365748 
L 280.631621 46.557433 
L 282.124598 44.577185 
L 283.617574 45.889 
L 285.110551 52.686491 
L 286.603528 61.046905 
L 288.096504 55.306184 
L 289.589481 76.081336 
L 291.082457 64.636646 
L 292.575434 60.7478 
L 294.068411 70.000275 
L 295.561387 71.343857 
L 297.054364 64.878378 
L 298.54734 69.743885 
L 300.040317 126.184944 
L 301.533293 101.092006 
L 303.02627 78.292031 
L 304.519247 145.253984 
L 306.012223 103.940531 
L 307.5052 161.763087 
L 308.998176 85.574916 
L 310.491153 122.332708 
L 311.98413 132.854473 
L 313.477106 127.699058 
L 314.970083 168.748724 
L 316.463059 135.710349 
L 317.956036 191.285605 
L 319.449013 161.270439 
L 320.941989 136.872041 
L 322.434966 122.586932 
L 323.927942 250.262596 
L 325.420919 200.906871 
L 326.913895 172.019832 
L 328.406872 201.099689 
L 329.899849 277.891969 
L 331.392825 211.133968 
L 332.885802 237.623227 
L 334.378778 227.783801 
L 335.871755 248.771656 
L 337.364732 247.584468 
L 338.857708 290.332964 
L 340.350685 275.253703 
L 341.843661 283.656374 
L 343.336638 305.565097 
L 344.829615 298.220393 
L 346.322591 294.269486 
L 347.815568 303.817833 
L 349.308544 283.928018 
L 350.801521 293.654412 
L 352.294497 304.870626 
L 353.787474 310.791004 
L 355.280451 312.483036 
L 356.773427 307.955424 
L 358.266404 312.280492 
L 359.75938 305.179283 
L 361.252357 312.210532 
L 362.745334 312.645491 
L 365.731287 313.217922 
L 495.62025 313.3301 
L 495.62025 313.3301 
" style="fill:none;stroke:#d92230;stroke-linecap:square;stroke-width:2.0;"/>
   </g>
   <g id="line2d_7">
    <path clip-path="url(#p87131fca25)" d="M 49.22025 25.330265 
L 191.053026 25.423243 
L 195.531956 25.444519 
L 198.517909 25.444167 
L 205.982792 25.437811 
L 207.475768 25.55032 
L 208.968745 25.464608 
L 210.461722 25.528714 
L 211.954698 25.455389 
L 214.940651 25.60799 
L 216.433628 25.501281 
L 219.419581 25.677405 
L 220.912558 25.521594 
L 226.884464 25.958739 
L 228.377441 25.662332 
L 229.870417 25.901975 
L 231.363394 25.875543 
L 232.85637 25.967837 
L 234.349347 26.265221 
L 235.842324 26.034128 
L 237.3353 26.308541 
L 238.828277 26.367197 
L 240.321253 26.241397 
L 241.81423 26.649712 
L 243.307207 26.583091 
L 244.800183 26.087645 
L 246.29316 26.470057 
L 247.786136 27.022208 
L 249.279113 26.840485 
L 250.772089 26.449265 
L 252.265066 27.616397 
L 253.758043 26.417038 
L 255.251019 27.116828 
L 256.743996 28.319479 
L 258.236972 27.418174 
L 259.729949 28.060246 
L 261.222926 29.135204 
L 262.715902 27.908889 
L 264.208879 27.855107 
L 265.701855 28.291458 
L 267.194832 29.83202 
L 268.687809 29.885101 
L 270.180785 27.840677 
L 271.673762 29.661382 
L 273.166738 32.159125 
L 274.659715 33.335512 
L 276.152691 29.970272 
L 277.645668 35.775133 
L 279.138645 31.417391 
L 280.631621 30.642037 
L 282.124598 32.532276 
L 283.617574 40.63922 
L 285.110551 35.924947 
L 286.603528 33.673022 
L 288.096504 35.279952 
L 289.589481 31.995129 
L 291.082457 38.000318 
L 292.575434 43.300865 
L 294.068411 36.773374 
L 295.561387 34.47067 
L 297.054364 47.498263 
L 300.040317 33.116463 
L 301.533293 42.541155 
L 303.02627 37.913483 
L 304.519247 46.373189 
L 306.012223 43.306009 
L 307.5052 43.354223 
L 308.998176 42.297854 
L 310.491153 49.977733 
L 311.98413 56.255168 
L 313.477106 52.939773 
L 314.970083 44.819695 
L 317.956036 40.453297 
L 319.449013 72.042582 
L 320.941989 47.087437 
L 322.434966 53.109741 
L 323.927942 54.231424 
L 325.420919 72.051347 
L 326.913895 54.602 
L 328.406872 73.241334 
L 329.899849 101.10395 
L 331.392825 91.067992 
L 332.885802 77.825373 
L 334.378778 60.487491 
L 335.871755 79.693695 
L 337.364732 67.430051 
L 338.857708 101.205835 
L 340.350685 98.816903 
L 341.843661 85.265001 
L 343.336638 99.058735 
L 344.829615 120.663957 
L 346.322591 146.01482 
L 347.815568 157.627498 
L 349.308544 180.127847 
L 350.801521 96.554713 
L 352.294497 139.126412 
L 353.787474 149.650997 
L 355.280451 192.686482 
L 356.773427 190.281019 
L 358.266404 196.050481 
L 359.75938 157.460271 
L 361.252357 222.542848 
L 362.745334 206.226837 
L 365.731287 159.650677 
L 367.224263 171.023332 
L 368.71724 201.961477 
L 370.210217 222.343139 
L 371.703193 207.053317 
L 373.19617 218.091479 
L 374.689146 184.633678 
L 376.182123 218.212584 
L 377.675099 234.508569 
L 379.168076 259.917136 
L 380.661053 292.671572 
L 382.154029 304.418621 
L 383.647006 259.088299 
L 385.139982 254.054545 
L 386.632959 299.956659 
L 388.125936 301.05992 
L 389.618912 296.236017 
L 391.111889 306.334962 
L 392.604865 311.214069 
L 394.097842 305.273913 
L 395.590819 305.944636 
L 397.083795 312.491997 
L 398.576772 304.985317 
L 400.069748 308.676712 
L 401.562725 289.790087 
L 403.055702 313.263496 
L 404.548678 306.961012 
L 406.041655 298.868521 
L 407.534631 311.966031 
L 409.027608 313.263345 
L 410.520584 313.208799 
L 412.013561 313.325212 
L 413.506538 313.314158 
L 414.999514 312.16524 
L 416.492491 313.321021 
L 420.971421 313.330009 
L 495.62025 313.3301 
L 495.62025 313.3301 
" style="fill:none;stroke:#f04610;stroke-linecap:square;stroke-width:2.0;"/>
   </g>
   <g id="line2d_8">
    <path clip-path="url(#p87131fca25)" d="M 49.22025 25.330143 
L 225.391487 25.373172 
L 226.884464 25.485893 
L 229.870417 25.426857 
L 232.85637 25.473224 
L 237.3353 25.532413 
L 244.800183 25.580379 
L 247.786136 25.699887 
L 249.279113 25.479628 
L 252.265066 25.790045 
L 253.758043 25.542955 
L 262.715902 26.044014 
L 264.208879 25.818979 
L 265.701855 25.947577 
L 267.194832 25.838484 
L 268.687809 25.863894 
L 270.180785 26.091708 
L 273.166738 26.15145 
L 274.659715 26.949716 
L 276.152691 26.427599 
L 277.645668 27.071308 
L 279.138645 25.822237 
L 280.631621 26.055281 
L 282.124598 26.553687 
L 283.617574 26.835363 
L 285.110551 26.794019 
L 286.603528 26.539876 
L 288.096504 26.613724 
L 289.589481 28.985812 
L 291.082457 27.55947 
L 292.575434 28.454217 
L 294.068411 27.454409 
L 295.561387 27.074757 
L 297.054364 27.097203 
L 298.54734 28.73627 
L 300.040317 28.043796 
L 301.533293 29.501738 
L 303.02627 28.539718 
L 304.519247 28.608321 
L 306.012223 28.931647 
L 307.5052 33.627147 
L 308.998176 29.596197 
L 310.491153 28.008547 
L 311.98413 30.116334 
L 314.970083 30.492583 
L 316.463059 33.345181 
L 317.956036 31.59958 
L 320.941989 33.250557 
L 322.434966 36.54428 
L 323.927942 33.260776 
L 325.420919 33.277252 
L 326.913895 36.430196 
L 328.406872 33.518642 
L 329.899849 35.527628 
L 331.392825 36.835597 
L 332.885802 35.723966 
L 334.378778 39.141042 
L 335.871755 38.084808 
L 337.364732 44.152637 
L 338.857708 45.414532 
L 340.350685 38.440403 
L 341.843661 49.742451 
L 343.336638 51.239887 
L 344.829615 52.172575 
L 346.322591 51.470505 
L 347.815568 68.572619 
L 349.308544 57.399399 
L 350.801521 55.086393 
L 352.294497 57.293007 
L 353.787474 58.471755 
L 355.280451 59.280468 
L 356.773427 64.613574 
L 358.266404 79.345636 
L 359.75938 80.403087 
L 361.252357 83.798684 
L 362.745334 78.926343 
L 364.23831 69.462681 
L 365.731287 90.522446 
L 367.224263 100.262523 
L 368.71724 81.705245 
L 370.210217 75.197009 
L 371.703193 77.510558 
L 373.19617 127.555646 
L 374.689146 70.913457 
L 376.182123 140.727853 
L 377.675099 113.398547 
L 379.168076 128.206922 
L 380.661053 156.761248 
L 382.154029 108.093924 
L 383.647006 164.42316 
L 385.139982 109.680462 
L 386.632959 129.184222 
L 388.125936 157.466661 
L 389.618912 201.892913 
L 391.111889 274.92208 
L 392.604865 194.330738 
L 394.097842 149.535444 
L 395.590819 225.84653 
L 397.083795 253.550511 
L 398.576772 182.84168 
L 400.069748 198.911002 
L 401.562725 188.953519 
L 403.055702 198.910696 
L 404.548678 266.989004 
L 406.041655 298.682593 
L 407.534631 229.335102 
L 409.027608 254.897978 
L 410.520584 283.481085 
L 412.013561 241.801559 
L 413.506538 286.583185 
L 414.999514 288.926475 
L 417.985467 299.097888 
L 419.478444 306.373801 
L 420.971421 285.499655 
L 422.464397 302.369029 
L 423.957374 297.37249 
L 425.45035 306.205116 
L 426.943327 312.860838 
L 428.436304 304.85132 
L 429.92928 308.539983 
L 431.422257 312.882146 
L 432.915233 313.086072 
L 434.40821 312.965737 
L 435.901186 313.327093 
L 437.394163 311.857961 
L 438.88714 313.21418 
L 440.380116 310.843944 
L 441.873093 313.327139 
L 443.366069 313.315817 
L 444.859046 310.332104 
L 446.352023 313.151808 
L 450.830952 313.330003 
L 495.62025 313.3301 
L 495.62025 313.3301 
" style="fill:none;stroke:#ff7f00;stroke-linecap:square;stroke-width:2.0;"/>
   </g>
   <g id="patch_3">
    <path d="M 49.22025 313.3301 
L 495.62025 313.3301 
" style="fill:none;stroke:#000000;stroke-linecap:square;stroke-linejoin:miter;"/>
   </g>
   <g id="patch_4">
    <path d="M 49.22025 313.3301 
L 49.22025 25.3301 
" style="fill:none;stroke:#000000;stroke-linecap:square;stroke-linejoin:miter;"/>
   </g>
   <g id="patch_5">
    <path d="M 49.22025 25.3301 
L 495.62025 25.3301 
" style="fill:none;stroke:#000000;stroke-linecap:square;stroke-linejoin:miter;"/>
   </g>
   <g id="patch_6">
    <path d="M 495.62025 313.3301 
L 495.62025 25.3301 
" style="fill:none;stroke:#000000;stroke-linecap:square;stroke-linejoin:miter;"/>
   </g>
   <g id="matplotlib.axis_1">
    <g id="xtick_1">
     <g id="line2d_9">
      <defs>
       <path d="M 0 0 
L 0 -4 
" id="m0e2e25b573" style="stroke:#000000;stroke-width:0.5;"/>
      </defs>
      <g>
       <use style="stroke:#000000;stroke-width:0.5;" x="49.22025" xlink:href="#m0e2e25b573" y="313.3301"/>
      </g>
     </g>
     <g id="line2d_10">
      <defs>
       <path d="M 0 0 
L 0 4 
" id="m842654f335" style="stroke:#000000;stroke-width:0.5;"/>
      </defs>
      <g>
       <use style="stroke:#000000;stroke-width:0.5;" x="49.22025" xlink:href="#m842654f335" y="25.3301"/>
      </g>
     </g>
     <g id="text_1">
      <!-- −10 -->
      <defs>
       <path d="M 10.59375 35.5 
L 73.1875 35.5 
L 73.1875 27.203125 
L 10.59375 27.203125 
z
" id="BitstreamVeraSans-Roman-2212"/>
       <path d="M 12.40625 8.296875 
L 28.515625 8.296875 
L 28.515625 63.921875 
L 10.984375 60.40625 
L 10.984375 69.390625 
L 28.421875 72.90625 
L 38.28125 72.90625 
L 38.28125 8.296875 
L 54.390625 8.296875 
L 54.390625 0 
L 12.40625 0 
z
" id="BitstreamVeraSans-Roman-31"/>
       <path d="M 31.78125 66.40625 
Q 24.171875 66.40625 20.328125 58.90625 
Q 16.5 51.421875 16.5 36.375 
Q 16.5 21.390625 20.328125 13.890625 
Q 24.171875 6.390625 31.78125 6.390625 
Q 39.453125 6.390625 43.28125 13.890625 
Q 47.125 21.390625 47.125 36.375 
Q 47.125 51.421875 43.28125 58.90625 
Q 39.453125 66.40625 31.78125 66.40625 
M 31.78125 74.21875 
Q 44.046875 74.21875 50.515625 64.515625 
Q 56.984375 54.828125 56.984375 36.375 
Q 56.984375 17.96875 50.515625 8.265625 
Q 44.046875 -1.421875 31.78125 -1.421875 
Q 19.53125 -1.421875 13.0625 8.265625 
Q 6.59375 17.96875 6.59375 36.375 
Q 6.59375 54.828125 13.0625 64.515625 
Q 19.53125 74.21875 31.78125 74.21875 
" id="BitstreamVeraSans-Roman-30"/>
      </defs>
      <g transform="translate(36.5574375 326.448225)scale(0.12 -0.12)">
       <use xlink:href="#BitstreamVeraSans-Roman-2212"/>
       <use x="83.7890625" xlink:href="#BitstreamVeraSans-Roman-31"/>
       <use x="147.412109375" xlink:href="#BitstreamVeraSans-Roman-30"/>
      </g>
     </g>
    </g>
    <g id="xtick_2">
     <g id="line2d_11">
      <g>
       <use style="stroke:#000000;stroke-width:0.5;" x="160.82025" xlink:href="#m0e2e25b573" y="313.3301"/>
      </g>
     </g>
     <g id="line2d_12">
      <g>
       <use style="stroke:#000000;stroke-width:0.5;" x="160.82025" xlink:href="#m842654f335" y="25.3301"/>
      </g>
     </g>
     <g id="text_2">
      <!-- −5 -->
      <defs>
       <path d="M 10.796875 72.90625 
L 49.515625 72.90625 
L 49.515625 64.59375 
L 19.828125 64.59375 
L 19.828125 46.734375 
Q 21.96875 47.46875 24.109375 47.828125 
Q 26.265625 48.1875 28.421875 48.1875 
Q 40.625 48.1875 47.75 41.5 
Q 54.890625 34.8125 54.890625 23.390625 
Q 54.890625 11.625 47.5625 5.09375 
Q 40.234375 -1.421875 26.90625 -1.421875 
Q 22.3125 -1.421875 17.546875 -0.640625 
Q 12.796875 0.140625 7.71875 1.703125 
L 7.71875 11.625 
Q 12.109375 9.234375 16.796875 8.0625 
Q 21.484375 6.890625 26.703125 6.890625 
Q 35.15625 6.890625 40.078125 11.328125 
Q 45.015625 15.765625 45.015625 23.390625 
Q 45.015625 31 40.078125 35.4375 
Q 35.15625 39.890625 26.703125 39.890625 
Q 22.75 39.890625 18.8125 39.015625 
Q 14.890625 38.140625 10.796875 36.28125 
z
" id="BitstreamVeraSans-Roman-35"/>
      </defs>
      <g transform="translate(151.9749375 326.448225)scale(0.12 -0.12)">
       <use xlink:href="#BitstreamVeraSans-Roman-2212"/>
       <use x="83.7890625" xlink:href="#BitstreamVeraSans-Roman-35"/>
      </g>
     </g>
    </g>
    <g id="xtick_3">
     <g id="line2d_13">
      <g>
       <use style="stroke:#000000;stroke-width:0.5;" x="272.42025" xlink:href="#m0e2e25b573" y="313.3301"/>
      </g>
     </g>
     <g id="line2d_14">
      <g>
       <use style="stroke:#000000;stroke-width:0.5;" x="272.42025" xlink:href="#m842654f335" y="25.3301"/>
      </g>
     </g>
     <g id="text_3">
      <!-- 0 -->
      <g transform="translate(268.60275 326.448225)scale(0.12 -0.12)">
       <use xlink:href="#BitstreamVeraSans-Roman-30"/>
      </g>
     </g>
    </g>
    <g id="xtick_4">
     <g id="line2d_15">
      <g>
       <use style="stroke:#000000;stroke-width:0.5;" x="384.02025" xlink:href="#m0e2e25b573" y="313.3301"/>
      </g>
     </g>
     <g id="line2d_16">
      <g>
       <use style="stroke:#000000;stroke-width:0.5;" x="384.02025" xlink:href="#m842654f335" y="25.3301"/>
      </g>
     </g>
     <g id="text_4">
      <!-- 5 -->
      <g transform="translate(380.20275 326.448225)scale(0.12 -0.12)">
       <use xlink:href="#BitstreamVeraSans-Roman-35"/>
      </g>
     </g>
    </g>
    <g id="xtick_5">
     <g id="line2d_17">
      <g>
       <use style="stroke:#000000;stroke-width:0.5;" x="495.62025" xlink:href="#m0e2e25b573" y="313.3301"/>
      </g>
     </g>
     <g id="line2d_18">
      <g>
       <use style="stroke:#000000;stroke-width:0.5;" x="495.62025" xlink:href="#m842654f335" y="25.3301"/>
      </g>
     </g>
     <g id="text_5">
      <!-- 10 -->
      <g transform="translate(487.98525 326.448225)scale(0.12 -0.12)">
       <use xlink:href="#BitstreamVeraSans-Roman-31"/>
       <use x="63.623046875" xlink:href="#BitstreamVeraSans-Roman-30"/>
      </g>
     </g>
    </g>
    <g id="text_6">
     <!-- This is the x-axis -->
     <defs>
      <path d="M 4.890625 31.390625 
L 31.203125 31.390625 
L 31.203125 23.390625 
L 4.890625 23.390625 
z
" id="BitstreamVeraSans-Roman-2d"/>
      <path d="M 34.28125 27.484375 
Q 23.390625 27.484375 19.1875 25 
Q 14.984375 22.515625 14.984375 16.5 
Q 14.984375 11.71875 18.140625 8.90625 
Q 21.296875 6.109375 26.703125 6.109375 
Q 34.1875 6.109375 38.703125 11.40625 
Q 43.21875 16.703125 43.21875 25.484375 
L 43.21875 27.484375 
z
M 52.203125 31.203125 
L 52.203125 0 
L 43.21875 0 
L 43.21875 8.296875 
Q 40.140625 3.328125 35.546875 0.953125 
Q 30.953125 -1.421875 24.3125 -1.421875 
Q 15.921875 -1.421875 10.953125 3.296875 
Q 6 8.015625 6 15.921875 
Q 6 25.140625 12.171875 29.828125 
Q 18.359375 34.515625 30.609375 34.515625 
L 43.21875 34.515625 
L 43.21875 35.40625 
Q 43.21875 41.609375 39.140625 45 
Q 35.0625 48.390625 27.6875 48.390625 
Q 23 48.390625 18.546875 47.265625 
Q 14.109375 46.140625 10.015625 43.890625 
L 10.015625 52.203125 
Q 14.9375 54.109375 19.578125 55.046875 
Q 24.21875 56 28.609375 56 
Q 40.484375 56 46.34375 49.84375 
Q 52.203125 43.703125 52.203125 31.203125 
" id="BitstreamVeraSans-Roman-61"/>
      <path id="BitstreamVeraSans-Roman-20"/>
      <path d="M 18.3125 70.21875 
L 18.3125 54.6875 
L 36.8125 54.6875 
L 36.8125 47.703125 
L 18.3125 47.703125 
L 18.3125 18.015625 
Q 18.3125 11.328125 20.140625 9.421875 
Q 21.96875 7.515625 27.59375 7.515625 
L 36.8125 7.515625 
L 36.8125 0 
L 27.59375 0 
Q 17.1875 0 13.234375 3.875 
Q 9.28125 7.765625 9.28125 18.015625 
L 9.28125 47.703125 
L 2.6875 47.703125 
L 2.6875 54.6875 
L 9.28125 54.6875 
L 9.28125 70.21875 
z
" id="BitstreamVeraSans-Roman-74"/>
      <path d="M -0.296875 72.90625 
L 61.375 72.90625 
L 61.375 64.59375 
L 35.5 64.59375 
L 35.5 0 
L 25.59375 0 
L 25.59375 64.59375 
L -0.296875 64.59375 
z
" id="BitstreamVeraSans-Roman-54"/>
      <path d="M 54.890625 33.015625 
L 54.890625 0 
L 45.90625 0 
L 45.90625 32.71875 
Q 45.90625 40.484375 42.875 44.328125 
Q 39.84375 48.1875 33.796875 48.1875 
Q 26.515625 48.1875 22.3125 43.546875 
Q 18.109375 38.921875 18.109375 30.90625 
L 18.109375 0 
L 9.078125 0 
L 9.078125 75.984375 
L 18.109375 75.984375 
L 18.109375 46.1875 
Q 21.34375 51.125 25.703125 53.5625 
Q 30.078125 56 35.796875 56 
Q 45.21875 56 50.046875 50.171875 
Q 54.890625 44.34375 54.890625 33.015625 
" id="BitstreamVeraSans-Roman-68"/>
      <path d="M 9.421875 54.6875 
L 18.40625 54.6875 
L 18.40625 0 
L 9.421875 0 
z
M 9.421875 75.984375 
L 18.40625 75.984375 
L 18.40625 64.59375 
L 9.421875 64.59375 
z
" id="BitstreamVeraSans-Roman-69"/>
      <path d="M 54.890625 54.6875 
L 35.109375 28.078125 
L 55.90625 0 
L 45.3125 0 
L 29.390625 21.484375 
L 13.484375 0 
L 2.875 0 
L 24.125 28.609375 
L 4.6875 54.6875 
L 15.28125 54.6875 
L 29.78125 35.203125 
L 44.28125 54.6875 
z
" id="BitstreamVeraSans-Roman-78"/>
      <path d="M 44.28125 53.078125 
L 44.28125 44.578125 
Q 40.484375 46.53125 36.375 47.5 
Q 32.28125 48.484375 27.875 48.484375 
Q 21.1875 48.484375 17.84375 46.4375 
Q 14.5 44.390625 14.5 40.28125 
Q 14.5 37.15625 16.890625 35.375 
Q 19.28125 33.59375 26.515625 31.984375 
L 29.59375 31.296875 
Q 39.15625 29.25 43.1875 25.515625 
Q 47.21875 21.78125 47.21875 15.09375 
Q 47.21875 7.46875 41.1875 3.015625 
Q 35.15625 -1.421875 24.609375 -1.421875 
Q 20.21875 -1.421875 15.453125 -0.5625 
Q 10.6875 0.296875 5.421875 2 
L 5.421875 11.28125 
Q 10.40625 8.6875 15.234375 7.390625 
Q 20.0625 6.109375 24.8125 6.109375 
Q 31.15625 6.109375 34.5625 8.28125 
Q 37.984375 10.453125 37.984375 14.40625 
Q 37.984375 18.0625 35.515625 20.015625 
Q 33.0625 21.96875 24.703125 23.78125 
L 21.578125 24.515625 
Q 13.234375 26.265625 9.515625 29.90625 
Q 5.8125 33.546875 5.8125 39.890625 
Q 5.8125 47.609375 11.28125 51.796875 
Q 16.75 56 26.8125 56 
Q 31.78125 56 36.171875 55.265625 
Q 40.578125 54.546875 44.28125 53.078125 
" id="BitstreamVeraSans-Roman-73"/>
      <path d="M 56.203125 29.59375 
L 56.203125 25.203125 
L 14.890625 25.203125 
Q 15.484375 15.921875 20.484375 11.0625 
Q 25.484375 6.203125 34.421875 6.203125 
Q 39.59375 6.203125 44.453125 7.46875 
Q 49.3125 8.734375 54.109375 11.28125 
L 54.109375 2.78125 
Q 49.265625 0.734375 44.1875 -0.34375 
Q 39.109375 -1.421875 33.890625 -1.421875 
Q 20.796875 -1.421875 13.15625 6.1875 
Q 5.515625 13.8125 5.515625 26.8125 
Q 5.515625 40.234375 12.765625 48.109375 
Q 20.015625 56 32.328125 56 
Q 43.359375 56 49.78125 48.890625 
Q 56.203125 41.796875 56.203125 29.59375 
M 47.21875 32.234375 
Q 47.125 39.59375 43.09375 43.984375 
Q 39.0625 48.390625 32.421875 48.390625 
Q 24.90625 48.390625 20.390625 44.140625 
Q 15.875 39.890625 15.1875 32.171875 
z
" id="BitstreamVeraSans-Roman-65"/>
     </defs>
     <g transform="translate(211.993125 344.8856)scale(0.144 -0.144)">
      <use xlink:href="#BitstreamVeraSans-Roman-54"/>
      <use x="61.083984375" xlink:href="#BitstreamVeraSans-Roman-68"/>
      <use x="124.462890625" xlink:href="#BitstreamVeraSans-Roman-69"/>
      <use x="152.24609375" xlink:href="#BitstreamVeraSans-Roman-73"/>
      <use x="204.345703125" xlink:href="#BitstreamVeraSans-Roman-20"/>
      <use x="236.1328125" xlink:href="#BitstreamVeraSans-Roman-69"/>
      <use x="263.916015625" xlink:href="#BitstreamVeraSans-Roman-73"/>
      <use x="316.015625" xlink:href="#BitstreamVeraSans-Roman-20"/>
      <use x="347.802734375" xlink:href="#BitstreamVeraSans-Roman-74"/>
      <use x="387.01171875" xlink:href="#BitstreamVeraSans-Roman-68"/>
      <use x="450.390625" xlink:href="#BitstreamVeraSans-Roman-65"/>
      <use x="511.9140625" xlink:href="#BitstreamVeraSans-Roman-20"/>
      <use x="543.701171875" xlink:href="#BitstreamVeraSans-Roman-78"/>
      <use x="602.880859375" xlink:href="#BitstreamVeraSans-Roman-2d"/>
      <use x="638.96484375" xlink:href="#BitstreamVeraSans-Roman-61"/>
      <use x="700.244140625" xlink:href="#BitstreamVeraSans-Roman-78"/>
      <use x="759.423828125" xlink:href="#BitstreamVeraSans-Roman-69"/>
      <use x="787.20703125" xlink:href="#BitstreamVeraSans-Roman-73"/>
     </g>
    </g>
   </g>
   <g id="matplotlib.axis_2">
    <g id="ytick_1">
     <g id="line2d_19">
      <defs>
       <path d="M 0 0 
L 4 0 
" id="me0dc0d2a4d" style="stroke:#000000;stroke-width:0.5;"/>
      </defs>
      <g>
       <use style="stroke:#000000;stroke-width:0.5;" x="49.22025" xlink:href="#me0dc0d2a4d" y="313.3301"/>
      </g>
     </g>
     <g id="line2d_20">
      <defs>
       <path d="M 0 0 
L -4 0 
" id="mc4d2ddb196" style="stroke:#000000;stroke-width:0.5;"/>
      </defs>
      <g>
       <use style="stroke:#000000;stroke-width:0.5;" x="495.62025" xlink:href="#mc4d2ddb196" y="313.3301"/>
      </g>
     </g>
     <g id="text_7">
      <!-- 0.0 -->
      <defs>
       <path d="M 10.6875 12.40625 
L 21 12.40625 
L 21 0 
L 10.6875 0 
z
" id="BitstreamVeraSans-Roman-2e"/>
      </defs>
      <g transform="translate(26.1365 316.64135)scale(0.12 -0.12)">
       <use xlink:href="#BitstreamVeraSans-Roman-30"/>
       <use x="63.623046875" xlink:href="#BitstreamVeraSans-Roman-2e"/>
       <use x="95.41015625" xlink:href="#BitstreamVeraSans-Roman-30"/>
      </g>
     </g>
    </g>
    <g id="ytick_2">
     <g id="line2d_21">
      <g>
       <use style="stroke:#000000;stroke-width:0.5;" x="49.22025" xlink:href="#me0dc0d2a4d" y="255.7301"/>
      </g>
     </g>
     <g id="line2d_22">
      <g>
       <use style="stroke:#000000;stroke-width:0.5;" x="495.62025" xlink:href="#mc4d2ddb196" y="255.7301"/>
      </g>
     </g>
     <g id="text_8">
      <!-- 0.2 -->
      <defs>
       <path d="M 19.1875 8.296875 
L 53.609375 8.296875 
L 53.609375 0 
L 7.328125 0 
L 7.328125 8.296875 
Q 12.9375 14.109375 22.625 23.890625 
Q 32.328125 33.6875 34.8125 36.53125 
Q 39.546875 41.84375 41.421875 45.53125 
Q 43.3125 49.21875 43.3125 52.78125 
Q 43.3125 58.59375 39.234375 62.25 
Q 35.15625 65.921875 28.609375 65.921875 
Q 23.96875 65.921875 18.8125 64.3125 
Q 13.671875 62.703125 7.8125 59.421875 
L 7.8125 69.390625 
Q 13.765625 71.78125 18.9375 73 
Q 24.125 74.21875 28.421875 74.21875 
Q 39.75 74.21875 46.484375 68.546875 
Q 53.21875 62.890625 53.21875 53.421875 
Q 53.21875 48.921875 51.53125 44.890625 
Q 49.859375 40.875 45.40625 35.40625 
Q 44.1875 33.984375 37.640625 27.21875 
Q 31.109375 20.453125 19.1875 8.296875 
" id="BitstreamVeraSans-Roman-32"/>
      </defs>
      <g transform="translate(26.1365 259.04135)scale(0.12 -0.12)">
       <use xlink:href="#BitstreamVeraSans-Roman-30"/>
       <use x="63.623046875" xlink:href="#BitstreamVeraSans-Roman-2e"/>
       <use x="95.41015625" xlink:href="#BitstreamVeraSans-Roman-32"/>
      </g>
     </g>
    </g>
    <g id="ytick_3">
     <g id="line2d_23">
      <g>
       <use style="stroke:#000000;stroke-width:0.5;" x="49.22025" xlink:href="#me0dc0d2a4d" y="198.1301"/>
      </g>
     </g>
     <g id="line2d_24">
      <g>
       <use style="stroke:#000000;stroke-width:0.5;" x="495.62025" xlink:href="#mc4d2ddb196" y="198.1301"/>
      </g>
     </g>
     <g id="text_9">
      <!-- 0.4 -->
      <defs>
       <path d="M 37.796875 64.3125 
L 12.890625 25.390625 
L 37.796875 25.390625 
z
M 35.203125 72.90625 
L 47.609375 72.90625 
L 47.609375 25.390625 
L 58.015625 25.390625 
L 58.015625 17.1875 
L 47.609375 17.1875 
L 47.609375 0 
L 37.796875 0 
L 37.796875 17.1875 
L 4.890625 17.1875 
L 4.890625 26.703125 
z
" id="BitstreamVeraSans-Roman-34"/>
      </defs>
      <g transform="translate(26.1365 201.44135)scale(0.12 -0.12)">
       <use xlink:href="#BitstreamVeraSans-Roman-30"/>
       <use x="63.623046875" xlink:href="#BitstreamVeraSans-Roman-2e"/>
       <use x="95.41015625" xlink:href="#BitstreamVeraSans-Roman-34"/>
      </g>
     </g>
    </g>
    <g id="ytick_4">
     <g id="line2d_25">
      <g>
       <use style="stroke:#000000;stroke-width:0.5;" x="49.22025" xlink:href="#me0dc0d2a4d" y="140.5301"/>
      </g>
     </g>
     <g id="line2d_26">
      <g>
       <use style="stroke:#000000;stroke-width:0.5;" x="495.62025" xlink:href="#mc4d2ddb196" y="140.5301"/>
      </g>
     </g>
     <g id="text_10">
      <!-- 0.6 -->
      <defs>
       <path d="M 33.015625 40.375 
Q 26.375 40.375 22.484375 35.828125 
Q 18.609375 31.296875 18.609375 23.390625 
Q 18.609375 15.53125 22.484375 10.953125 
Q 26.375 6.390625 33.015625 6.390625 
Q 39.65625 6.390625 43.53125 10.953125 
Q 47.40625 15.53125 47.40625 23.390625 
Q 47.40625 31.296875 43.53125 35.828125 
Q 39.65625 40.375 33.015625 40.375 
M 52.59375 71.296875 
L 52.59375 62.3125 
Q 48.875 64.0625 45.09375 64.984375 
Q 41.3125 65.921875 37.59375 65.921875 
Q 27.828125 65.921875 22.671875 59.328125 
Q 17.53125 52.734375 16.796875 39.40625 
Q 19.671875 43.65625 24.015625 45.921875 
Q 28.375 48.1875 33.59375 48.1875 
Q 44.578125 48.1875 50.953125 41.515625 
Q 57.328125 34.859375 57.328125 23.390625 
Q 57.328125 12.15625 50.6875 5.359375 
Q 44.046875 -1.421875 33.015625 -1.421875 
Q 20.359375 -1.421875 13.671875 8.265625 
Q 6.984375 17.96875 6.984375 36.375 
Q 6.984375 53.65625 15.1875 63.9375 
Q 23.390625 74.21875 37.203125 74.21875 
Q 40.921875 74.21875 44.703125 73.484375 
Q 48.484375 72.75 52.59375 71.296875 
" id="BitstreamVeraSans-Roman-36"/>
      </defs>
      <g transform="translate(26.1365 143.84135)scale(0.12 -0.12)">
       <use xlink:href="#BitstreamVeraSans-Roman-30"/>
       <use x="63.623046875" xlink:href="#BitstreamVeraSans-Roman-2e"/>
       <use x="95.41015625" xlink:href="#BitstreamVeraSans-Roman-36"/>
      </g>
     </g>
    </g>
    <g id="ytick_5">
     <g id="line2d_27">
      <g>
       <use style="stroke:#000000;stroke-width:0.5;" x="49.22025" xlink:href="#me0dc0d2a4d" y="82.9301"/>
      </g>
     </g>
     <g id="line2d_28">
      <g>
       <use style="stroke:#000000;stroke-width:0.5;" x="495.62025" xlink:href="#mc4d2ddb196" y="82.9301"/>
      </g>
     </g>
     <g id="text_11">
      <!-- 0.8 -->
      <defs>
       <path d="M 31.78125 34.625 
Q 24.75 34.625 20.71875 30.859375 
Q 16.703125 27.09375 16.703125 20.515625 
Q 16.703125 13.921875 20.71875 10.15625 
Q 24.75 6.390625 31.78125 6.390625 
Q 38.8125 6.390625 42.859375 10.171875 
Q 46.921875 13.96875 46.921875 20.515625 
Q 46.921875 27.09375 42.890625 30.859375 
Q 38.875 34.625 31.78125 34.625 
M 21.921875 38.8125 
Q 15.578125 40.375 12.03125 44.71875 
Q 8.5 49.078125 8.5 55.328125 
Q 8.5 64.0625 14.71875 69.140625 
Q 20.953125 74.21875 31.78125 74.21875 
Q 42.671875 74.21875 48.875 69.140625 
Q 55.078125 64.0625 55.078125 55.328125 
Q 55.078125 49.078125 51.53125 44.71875 
Q 48 40.375 41.703125 38.8125 
Q 48.828125 37.15625 52.796875 32.3125 
Q 56.78125 27.484375 56.78125 20.515625 
Q 56.78125 9.90625 50.3125 4.234375 
Q 43.84375 -1.421875 31.78125 -1.421875 
Q 19.734375 -1.421875 13.25 4.234375 
Q 6.78125 9.90625 6.78125 20.515625 
Q 6.78125 27.484375 10.78125 32.3125 
Q 14.796875 37.15625 21.921875 38.8125 
M 18.3125 54.390625 
Q 18.3125 48.734375 21.84375 45.5625 
Q 25.390625 42.390625 31.78125 42.390625 
Q 38.140625 42.390625 41.71875 45.5625 
Q 45.3125 48.734375 45.3125 54.390625 
Q 45.3125 60.0625 41.71875 63.234375 
Q 38.140625 66.40625 31.78125 66.40625 
Q 25.390625 66.40625 21.84375 63.234375 
Q 18.3125 60.0625 18.3125 54.390625 
" id="BitstreamVeraSans-Roman-38"/>
      </defs>
      <g transform="translate(26.1365 86.24135)scale(0.12 -0.12)">
       <use xlink:href="#BitstreamVeraSans-Roman-30"/>
       <use x="63.623046875" xlink:href="#BitstreamVeraSans-Roman-2e"/>
       <use x="95.41015625" xlink:href="#BitstreamVeraSans-Roman-38"/>
      </g>
     </g>
    </g>
    <g id="ytick_6">
     <g id="line2d_29">
      <g>
       <use style="stroke:#000000;stroke-width:0.5;" x="49.22025" xlink:href="#me0dc0d2a4d" y="25.3301"/>
      </g>
     </g>
     <g id="line2d_30">
      <g>
       <use style="stroke:#000000;stroke-width:0.5;" x="495.62025" xlink:href="#mc4d2ddb196" y="25.3301"/>
      </g>
     </g>
     <g id="text_12">
      <!-- 1.0 -->
      <g transform="translate(26.1365 28.64135)scale(0.12 -0.12)">
       <use xlink:href="#BitstreamVeraSans-Roman-31"/>
       <use x="63.623046875" xlink:href="#BitstreamVeraSans-Roman-2e"/>
       <use x="95.41015625" xlink:href="#BitstreamVeraSans-Roman-30"/>
      </g>
     </g>
    </g>
    <g id="text_13">
     <!-- Random but decaying values -->
     <defs>
      <path d="M 48.6875 27.296875 
Q 48.6875 37.203125 44.609375 42.84375 
Q 40.53125 48.484375 33.40625 48.484375 
Q 26.265625 48.484375 22.1875 42.84375 
Q 18.109375 37.203125 18.109375 27.296875 
Q 18.109375 17.390625 22.1875 11.75 
Q 26.265625 6.109375 33.40625 6.109375 
Q 40.53125 6.109375 44.609375 11.75 
Q 48.6875 17.390625 48.6875 27.296875 
M 18.109375 46.390625 
Q 20.953125 51.265625 25.265625 53.625 
Q 29.59375 56 35.59375 56 
Q 45.5625 56 51.78125 48.09375 
Q 58.015625 40.1875 58.015625 27.296875 
Q 58.015625 14.40625 51.78125 6.484375 
Q 45.5625 -1.421875 35.59375 -1.421875 
Q 29.59375 -1.421875 25.265625 0.953125 
Q 20.953125 3.328125 18.109375 8.203125 
L 18.109375 0 
L 9.078125 0 
L 9.078125 75.984375 
L 18.109375 75.984375 
z
" id="BitstreamVeraSans-Roman-62"/>
      <path d="M 45.40625 46.390625 
L 45.40625 75.984375 
L 54.390625 75.984375 
L 54.390625 0 
L 45.40625 0 
L 45.40625 8.203125 
Q 42.578125 3.328125 38.25 0.953125 
Q 33.9375 -1.421875 27.875 -1.421875 
Q 17.96875 -1.421875 11.734375 6.484375 
Q 5.515625 14.40625 5.515625 27.296875 
Q 5.515625 40.1875 11.734375 48.09375 
Q 17.96875 56 27.875 56 
Q 33.9375 56 38.25 53.625 
Q 42.578125 51.265625 45.40625 46.390625 
M 14.796875 27.296875 
Q 14.796875 17.390625 18.875 11.75 
Q 22.953125 6.109375 30.078125 6.109375 
Q 37.203125 6.109375 41.296875 11.75 
Q 45.40625 17.390625 45.40625 27.296875 
Q 45.40625 37.203125 41.296875 42.84375 
Q 37.203125 48.484375 30.078125 48.484375 
Q 22.953125 48.484375 18.875 42.84375 
Q 14.796875 37.203125 14.796875 27.296875 
" id="BitstreamVeraSans-Roman-64"/>
      <path d="M 32.171875 -5.078125 
Q 28.375 -14.84375 24.75 -17.8125 
Q 21.140625 -20.796875 15.09375 -20.796875 
L 7.90625 -20.796875 
L 7.90625 -13.28125 
L 13.1875 -13.28125 
Q 16.890625 -13.28125 18.9375 -11.515625 
Q 21 -9.765625 23.484375 -3.21875 
L 25.09375 0.875 
L 2.984375 54.6875 
L 12.5 54.6875 
L 29.59375 11.921875 
L 46.6875 54.6875 
L 56.203125 54.6875 
z
" id="BitstreamVeraSans-Roman-79"/>
      <path d="M 54.890625 33.015625 
L 54.890625 0 
L 45.90625 0 
L 45.90625 32.71875 
Q 45.90625 40.484375 42.875 44.328125 
Q 39.84375 48.1875 33.796875 48.1875 
Q 26.515625 48.1875 22.3125 43.546875 
Q 18.109375 38.921875 18.109375 30.90625 
L 18.109375 0 
L 9.078125 0 
L 9.078125 54.6875 
L 18.109375 54.6875 
L 18.109375 46.1875 
Q 21.34375 51.125 25.703125 53.5625 
Q 30.078125 56 35.796875 56 
Q 45.21875 56 50.046875 50.171875 
Q 54.890625 44.34375 54.890625 33.015625 
" id="BitstreamVeraSans-Roman-6e"/>
      <path d="M 52 44.1875 
Q 55.375 50.25 60.0625 53.125 
Q 64.75 56 71.09375 56 
Q 79.640625 56 84.28125 50.015625 
Q 88.921875 44.046875 88.921875 33.015625 
L 88.921875 0 
L 79.890625 0 
L 79.890625 32.71875 
Q 79.890625 40.578125 77.09375 44.375 
Q 74.3125 48.1875 68.609375 48.1875 
Q 61.625 48.1875 57.5625 43.546875 
Q 53.515625 38.921875 53.515625 30.90625 
L 53.515625 0 
L 44.484375 0 
L 44.484375 32.71875 
Q 44.484375 40.625 41.703125 44.40625 
Q 38.921875 48.1875 33.109375 48.1875 
Q 26.21875 48.1875 22.15625 43.53125 
Q 18.109375 38.875 18.109375 30.90625 
L 18.109375 0 
L 9.078125 0 
L 9.078125 54.6875 
L 18.109375 54.6875 
L 18.109375 46.1875 
Q 21.1875 51.21875 25.484375 53.609375 
Q 29.78125 56 35.6875 56 
Q 41.65625 56 45.828125 52.96875 
Q 50 49.953125 52 44.1875 
" id="BitstreamVeraSans-Roman-6d"/>
      <path d="M 48.78125 52.59375 
L 48.78125 44.1875 
Q 44.96875 46.296875 41.140625 47.34375 
Q 37.3125 48.390625 33.40625 48.390625 
Q 24.65625 48.390625 19.8125 42.84375 
Q 14.984375 37.3125 14.984375 27.296875 
Q 14.984375 17.28125 19.8125 11.734375 
Q 24.65625 6.203125 33.40625 6.203125 
Q 37.3125 6.203125 41.140625 7.25 
Q 44.96875 8.296875 48.78125 10.40625 
L 48.78125 2.09375 
Q 45.015625 0.34375 40.984375 -0.53125 
Q 36.96875 -1.421875 32.421875 -1.421875 
Q 20.0625 -1.421875 12.78125 6.34375 
Q 5.515625 14.109375 5.515625 27.296875 
Q 5.515625 40.671875 12.859375 48.328125 
Q 20.21875 56 33.015625 56 
Q 37.15625 56 41.109375 55.140625 
Q 45.0625 54.296875 48.78125 52.59375 
" id="BitstreamVeraSans-Roman-63"/>
      <path d="M 9.421875 75.984375 
L 18.40625 75.984375 
L 18.40625 0 
L 9.421875 0 
z
" id="BitstreamVeraSans-Roman-6c"/>
      <path d="M 45.40625 27.984375 
Q 45.40625 37.75 41.375 43.109375 
Q 37.359375 48.484375 30.078125 48.484375 
Q 22.859375 48.484375 18.828125 43.109375 
Q 14.796875 37.75 14.796875 27.984375 
Q 14.796875 18.265625 18.828125 12.890625 
Q 22.859375 7.515625 30.078125 7.515625 
Q 37.359375 7.515625 41.375 12.890625 
Q 45.40625 18.265625 45.40625 27.984375 
M 54.390625 6.78125 
Q 54.390625 -7.171875 48.1875 -13.984375 
Q 42 -20.796875 29.203125 -20.796875 
Q 24.46875 -20.796875 20.265625 -20.09375 
Q 16.0625 -19.390625 12.109375 -17.921875 
L 12.109375 -9.1875 
Q 16.0625 -11.328125 19.921875 -12.34375 
Q 23.78125 -13.375 27.78125 -13.375 
Q 36.625 -13.375 41.015625 -8.765625 
Q 45.40625 -4.15625 45.40625 5.171875 
L 45.40625 9.625 
Q 42.625 4.78125 38.28125 2.390625 
Q 33.9375 0 27.875 0 
Q 17.828125 0 11.671875 7.65625 
Q 5.515625 15.328125 5.515625 27.984375 
Q 5.515625 40.671875 11.671875 48.328125 
Q 17.828125 56 27.875 56 
Q 33.9375 56 38.28125 53.609375 
Q 42.625 51.21875 45.40625 46.390625 
L 45.40625 54.6875 
L 54.390625 54.6875 
z
" id="BitstreamVeraSans-Roman-67"/>
      <path d="M 44.390625 34.1875 
Q 47.5625 33.109375 50.5625 29.59375 
Q 53.5625 26.078125 56.59375 19.921875 
L 66.609375 0 
L 56 0 
L 46.6875 18.703125 
Q 43.0625 26.03125 39.671875 28.421875 
Q 36.28125 30.8125 30.421875 30.8125 
L 19.671875 30.8125 
L 19.671875 0 
L 9.8125 0 
L 9.8125 72.90625 
L 32.078125 72.90625 
Q 44.578125 72.90625 50.734375 67.671875 
Q 56.890625 62.453125 56.890625 51.90625 
Q 56.890625 45.015625 53.6875 40.46875 
Q 50.484375 35.9375 44.390625 34.1875 
M 19.671875 64.796875 
L 19.671875 38.921875 
L 32.078125 38.921875 
Q 39.203125 38.921875 42.84375 42.21875 
Q 46.484375 45.515625 46.484375 51.90625 
Q 46.484375 58.296875 42.84375 61.546875 
Q 39.203125 64.796875 32.078125 64.796875 
z
" id="BitstreamVeraSans-Roman-52"/>
      <path d="M 8.5 21.578125 
L 8.5 54.6875 
L 17.484375 54.6875 
L 17.484375 21.921875 
Q 17.484375 14.15625 20.5 10.265625 
Q 23.53125 6.390625 29.59375 6.390625 
Q 36.859375 6.390625 41.078125 11.03125 
Q 45.3125 15.671875 45.3125 23.6875 
L 45.3125 54.6875 
L 54.296875 54.6875 
L 54.296875 0 
L 45.3125 0 
L 45.3125 8.40625 
Q 42.046875 3.421875 37.71875 1 
Q 33.40625 -1.421875 27.6875 -1.421875 
Q 18.265625 -1.421875 13.375 4.4375 
Q 8.5 10.296875 8.5 21.578125 
" id="BitstreamVeraSans-Roman-75"/>
      <path d="M 30.609375 48.390625 
Q 23.390625 48.390625 19.1875 42.75 
Q 14.984375 37.109375 14.984375 27.296875 
Q 14.984375 17.484375 19.15625 11.84375 
Q 23.34375 6.203125 30.609375 6.203125 
Q 37.796875 6.203125 41.984375 11.859375 
Q 46.1875 17.53125 46.1875 27.296875 
Q 46.1875 37.015625 41.984375 42.703125 
Q 37.796875 48.390625 30.609375 48.390625 
M 30.609375 56 
Q 42.328125 56 49.015625 48.375 
Q 55.71875 40.765625 55.71875 27.296875 
Q 55.71875 13.875 49.015625 6.21875 
Q 42.328125 -1.421875 30.609375 -1.421875 
Q 18.84375 -1.421875 12.171875 6.21875 
Q 5.515625 13.875 5.515625 27.296875 
Q 5.515625 40.765625 12.171875 48.375 
Q 18.84375 56 30.609375 56 
" id="BitstreamVeraSans-Roman-6f"/>
      <path d="M 2.984375 54.6875 
L 12.5 54.6875 
L 29.59375 8.796875 
L 46.6875 54.6875 
L 56.203125 54.6875 
L 35.6875 0 
L 23.484375 0 
z
" id="BitstreamVeraSans-Roman-76"/>
     </defs>
     <g transform="translate(18.14175 274.302725)rotate(-90.0)scale(0.144 -0.144)">
      <use xlink:href="#BitstreamVeraSans-Roman-52"/>
      <use x="69.451171875" xlink:href="#BitstreamVeraSans-Roman-61"/>
      <use x="130.73046875" xlink:href="#BitstreamVeraSans-Roman-6e"/>
      <use x="194.109375" xlink:href="#BitstreamVeraSans-Roman-64"/>
      <use x="257.5859375" xlink:href="#BitstreamVeraSans-Roman-6f"/>
      <use x="318.767578125" xlink:href="#BitstreamVeraSans-Roman-6d"/>
      <use x="416.1796875" xlink:href="#BitstreamVeraSans-Roman-20"/>
      <use x="447.966796875" xlink:href="#BitstreamVeraSans-Roman-62"/>
      <use x="511.443359375" xlink:href="#BitstreamVeraSans-Roman-75"/>
      <use x="574.822265625" xlink:href="#BitstreamVeraSans-Roman-74"/>
      <use x="614.03125" xlink:href="#BitstreamVeraSans-Roman-20"/>
      <use x="645.818359375" xlink:href="#BitstreamVeraSans-Roman-64"/>
      <use x="709.294921875" xlink:href="#BitstreamVeraSans-Roman-65"/>
      <use x="770.818359375" xlink:href="#BitstreamVeraSans-Roman-63"/>
      <use x="825.798828125" xlink:href="#BitstreamVeraSans-Roman-61"/>
      <use x="887.078125" xlink:href="#BitstreamVeraSans-Roman-79"/>
      <use x="946.2578125" xlink:href="#BitstreamVeraSans-Roman-69"/>
      <use x="974.041015625" xlink:href="#BitstreamVeraSans-Roman-6e"/>
      <use x="1037.419921875" xlink:href="#BitstreamVeraSans-Roman-67"/>
      <use x="1100.896484375" xlink:href="#BitstreamVeraSans-Roman-20"/>
      <use x="1132.68359375" xlink:href="#BitstreamVeraSans-Roman-76"/>
      <use x="1191.86328125" xlink:href="#BitstreamVeraSans-Roman-61"/>
      <use x="1253.142578125" xlink:href="#BitstreamVeraSans-Roman-6c"/>
      <use x="1280.92578125" xlink:href="#BitstreamVeraSans-Roman-75"/>
      <use x="1344.3046875" xlink:href="#BitstreamVeraSans-Roman-65"/>
      <use x="1405.828125" xlink:href="#BitstreamVeraSans-Roman-73"/>
     </g>
    </g>
   </g>
   <g id="text_14">
    <!-- Diverging Datasets -->
    <defs>
     <path d="M 19.671875 64.796875 
L 19.671875 8.109375 
L 31.59375 8.109375 
Q 46.6875 8.109375 53.6875 14.9375 
Q 60.6875 21.78125 60.6875 36.53125 
Q 60.6875 51.171875 53.6875 57.984375 
Q 46.6875 64.796875 31.59375 64.796875 
z
M 9.8125 72.90625 
L 30.078125 72.90625 
Q 51.265625 72.90625 61.171875 64.09375 
Q 71.09375 55.28125 71.09375 36.53125 
Q 71.09375 17.671875 61.125 8.828125 
Q 51.171875 0 30.078125 0 
L 9.8125 0 
z
" id="BitstreamVeraSans-Roman-44"/>
     <path d="M 41.109375 46.296875 
Q 39.59375 47.171875 37.8125 47.578125 
Q 36.03125 48 33.890625 48 
Q 26.265625 48 22.1875 43.046875 
Q 18.109375 38.09375 18.109375 28.8125 
L 18.109375 0 
L 9.078125 0 
L 9.078125 54.6875 
L 18.109375 54.6875 
L 18.109375 46.1875 
Q 20.953125 51.171875 25.484375 53.578125 
Q 30.03125 56 36.53125 56 
Q 37.453125 56 38.578125 55.875 
Q 39.703125 55.765625 41.0625 55.515625 
z
" id="BitstreamVeraSans-Roman-72"/>
    </defs>
    <g transform="translate(189.46005 20.3301)scale(0.1728 -0.1728)">
     <use xlink:href="#BitstreamVeraSans-Roman-44"/>
     <use x="77.001953125" xlink:href="#BitstreamVeraSans-Roman-69"/>
     <use x="104.78515625" xlink:href="#BitstreamVeraSans-Roman-76"/>
     <use x="163.96484375" xlink:href="#BitstreamVeraSans-Roman-65"/>
     <use x="225.48828125" xlink:href="#BitstreamVeraSans-Roman-72"/>
     <use x="266.5859375" xlink:href="#BitstreamVeraSans-Roman-67"/>
     <use x="330.0625" xlink:href="#BitstreamVeraSans-Roman-69"/>
     <use x="357.845703125" xlink:href="#BitstreamVeraSans-Roman-6e"/>
     <use x="421.224609375" xlink:href="#BitstreamVeraSans-Roman-67"/>
     <use x="484.701171875" xlink:href="#BitstreamVeraSans-Roman-20"/>
     <use x="516.48828125" xlink:href="#BitstreamVeraSans-Roman-44"/>
     <use x="593.490234375" xlink:href="#BitstreamVeraSans-Roman-61"/>
     <use x="654.76953125" xlink:href="#BitstreamVeraSans-Roman-74"/>
     <use x="693.978515625" xlink:href="#BitstreamVeraSans-Roman-61"/>
     <use x="755.2578125" xlink:href="#BitstreamVeraSans-Roman-73"/>
     <use x="807.357421875" xlink:href="#BitstreamVeraSans-Roman-65"/>
     <use x="868.880859375" xlink:href="#BitstreamVeraSans-Roman-74"/>
     <use x="908.08984375" xlink:href="#BitstreamVeraSans-Roman-73"/>
    </g>
   </g>
   <g id="legend_1">
    <g id="patch_7">
     <path d="M 56.21745 308.3321 
L 116.580795 308.3321 
Q 118.579995 308.3321 118.579995 306.3329 
L 118.579995 189.95447 
Q 118.579995 187.95527 116.580795 187.95527 
L 56.21745 187.95527 
Q 54.21825 187.95527 54.21825 189.95447 
L 54.21825 306.3329 
Q 54.21825 308.3321 56.21745 308.3321 
z
" style="fill:#ffffff;opacity:0.8;stroke:#000000;stroke-linejoin:miter;stroke-width:0.5;"/>
    </g>
    <g id="line2d_31">
     <path d="M 61.21545 196.050468 
L 75.20985 196.050468 
" style="fill:none;stroke:#4daf4a;stroke-linecap:square;stroke-width:2.0;"/>
    </g>
    <g id="line2d_32"/>
    <g id="text_15">
     <!-- Plot 1 -->
     <defs>
      <path d="M 19.671875 64.796875 
L 19.671875 37.40625 
L 32.078125 37.40625 
Q 38.96875 37.40625 42.71875 40.96875 
Q 46.484375 44.53125 46.484375 51.125 
Q 46.484375 57.671875 42.71875 61.234375 
Q 38.96875 64.796875 32.078125 64.796875 
z
M 9.8125 72.90625 
L 32.078125 72.90625 
Q 44.34375 72.90625 50.609375 67.359375 
Q 56.890625 61.8125 56.890625 51.125 
Q 56.890625 40.328125 50.609375 34.8125 
Q 44.34375 29.296875 32.078125 29.296875 
L 19.671875 29.296875 
L 19.671875 0 
L 9.8125 0 
z
" id="BitstreamVeraSans-Roman-50"/>
     </defs>
     <g transform="translate(86.20545 199.549068125)scale(0.09996 -0.09996)">
      <use xlink:href="#BitstreamVeraSans-Roman-50"/>
      <use x="60.302734375" xlink:href="#BitstreamVeraSans-Roman-6c"/>
      <use x="88.0859375" xlink:href="#BitstreamVeraSans-Roman-6f"/>
      <use x="149.267578125" xlink:href="#BitstreamVeraSans-Roman-74"/>
      <use x="188.4765625" xlink:href="#BitstreamVeraSans-Roman-20"/>
      <use x="220.263671875" xlink:href="#BitstreamVeraSans-Roman-31"/>
     </g>
    </g>
    <g id="line2d_33">
     <path d="M 61.21545 210.722722 
L 75.20985 210.722722 
" style="fill:none;stroke:#419388;stroke-linecap:square;stroke-width:2.0;"/>
    </g>
    <g id="line2d_34"/>
    <g id="text_16">
     <!-- Plot 2 -->
     <g transform="translate(86.20545 214.221321875)scale(0.09996 -0.09996)">
      <use xlink:href="#BitstreamVeraSans-Roman-50"/>
      <use x="60.302734375" xlink:href="#BitstreamVeraSans-Roman-6c"/>
      <use x="88.0859375" xlink:href="#BitstreamVeraSans-Roman-6f"/>
      <use x="149.267578125" xlink:href="#BitstreamVeraSans-Roman-74"/>
      <use x="188.4765625" xlink:href="#BitstreamVeraSans-Roman-20"/>
      <use x="220.263671875" xlink:href="#BitstreamVeraSans-Roman-32"/>
     </g>
    </g>
    <g id="line2d_35">
     <path d="M 61.21545 225.394976 
L 75.20985 225.394976 
" style="fill:none;stroke:#4577b5;stroke-linecap:square;stroke-width:2.0;"/>
    </g>
    <g id="line2d_36"/>
    <g id="text_17">
     <!-- Plot 3 -->
     <defs>
      <path d="M 40.578125 39.3125 
Q 47.65625 37.796875 51.625 33 
Q 55.609375 28.21875 55.609375 21.1875 
Q 55.609375 10.40625 48.1875 4.484375 
Q 40.765625 -1.421875 27.09375 -1.421875 
Q 22.515625 -1.421875 17.65625 -0.515625 
Q 12.796875 0.390625 7.625 2.203125 
L 7.625 11.71875 
Q 11.71875 9.328125 16.59375 8.109375 
Q 21.484375 6.890625 26.8125 6.890625 
Q 36.078125 6.890625 40.9375 10.546875 
Q 45.796875 14.203125 45.796875 21.1875 
Q 45.796875 27.640625 41.28125 31.265625 
Q 36.765625 34.90625 28.71875 34.90625 
L 20.21875 34.90625 
L 20.21875 43.015625 
L 29.109375 43.015625 
Q 36.375 43.015625 40.234375 45.921875 
Q 44.09375 48.828125 44.09375 54.296875 
Q 44.09375 59.90625 40.109375 62.90625 
Q 36.140625 65.921875 28.71875 65.921875 
Q 24.65625 65.921875 20.015625 65.03125 
Q 15.375 64.15625 9.8125 62.3125 
L 9.8125 71.09375 
Q 15.4375 72.65625 20.34375 73.4375 
Q 25.25 74.21875 29.59375 74.21875 
Q 40.828125 74.21875 47.359375 69.109375 
Q 53.90625 64.015625 53.90625 55.328125 
Q 53.90625 49.265625 50.4375 45.09375 
Q 46.96875 40.921875 40.578125 39.3125 
" id="BitstreamVeraSans-Roman-33"/>
     </defs>
     <g transform="translate(86.20545 228.893575625)scale(0.09996 -0.09996)">
      <use xlink:href="#BitstreamVeraSans-Roman-50"/>
      <use x="60.302734375" xlink:href="#BitstreamVeraSans-Roman-6c"/>
      <use x="88.0859375" xlink:href="#BitstreamVeraSans-Roman-6f"/>
      <use x="149.267578125" xlink:href="#BitstreamVeraSans-Roman-74"/>
      <use x="188.4765625" xlink:href="#BitstreamVeraSans-Roman-20"/>
      <use x="220.263671875" xlink:href="#BitstreamVeraSans-Roman-33"/>
     </g>
    </g>
    <g id="line2d_37">
     <path d="M 61.21545 240.067229 
L 75.20985 240.067229 
" style="fill:none;stroke:#7c5ca9;stroke-linecap:square;stroke-width:2.0;"/>
    </g>
    <g id="line2d_38"/>
    <g id="text_18">
     <!-- Plot 4 -->
     <g transform="translate(86.20545 243.565829375)scale(0.09996 -0.09996)">
      <use xlink:href="#BitstreamVeraSans-Roman-50"/>
      <use x="60.302734375" xlink:href="#BitstreamVeraSans-Roman-6c"/>
      <use x="88.0859375" xlink:href="#BitstreamVeraSans-Roman-6f"/>
      <use x="149.267578125" xlink:href="#BitstreamVeraSans-Roman-74"/>
      <use x="188.4765625" xlink:href="#BitstreamVeraSans-Roman-20"/>
      <use x="220.263671875" xlink:href="#BitstreamVeraSans-Roman-34"/>
     </g>
    </g>
    <g id="line2d_39">
     <path d="M 61.21545 254.739483 
L 75.20985 254.739483 
" style="fill:none;stroke:#ae3f7c;stroke-linecap:square;stroke-width:2.0;"/>
    </g>
    <g id="line2d_40"/>
    <g id="text_19">
     <!-- Plot 5 -->
     <g transform="translate(86.20545 258.238083125)scale(0.09996 -0.09996)">
      <use xlink:href="#BitstreamVeraSans-Roman-50"/>
      <use x="60.302734375" xlink:href="#BitstreamVeraSans-Roman-6c"/>
      <use x="88.0859375" xlink:href="#BitstreamVeraSans-Roman-6f"/>
      <use x="149.267578125" xlink:href="#BitstreamVeraSans-Roman-74"/>
      <use x="188.4765625" xlink:href="#BitstreamVeraSans-Roman-20"/>
      <use x="220.263671875" xlink:href="#BitstreamVeraSans-Roman-35"/>
     </g>
    </g>
    <g id="line2d_41">
     <path d="M 61.21545 269.411737 
L 75.20985 269.411737 
" style="fill:none;stroke:#d92230;stroke-linecap:square;stroke-width:2.0;"/>
    </g>
    <g id="line2d_42"/>
    <g id="text_20">
     <!-- Plot 6 -->
     <g transform="translate(86.20545 272.910336875)scale(0.09996 -0.09996)">
      <use xlink:href="#BitstreamVeraSans-Roman-50"/>
      <use x="60.302734375" xlink:href="#BitstreamVeraSans-Roman-6c"/>
      <use x="88.0859375" xlink:href="#BitstreamVeraSans-Roman-6f"/>
      <use x="149.267578125" xlink:href="#BitstreamVeraSans-Roman-74"/>
      <use x="188.4765625" xlink:href="#BitstreamVeraSans-Roman-20"/>
      <use x="220.263671875" xlink:href="#BitstreamVeraSans-Roman-36"/>
     </g>
    </g>
    <g id="line2d_43">
     <path d="M 61.21545 284.083991 
L 75.20985 284.083991 
" style="fill:none;stroke:#f04610;stroke-linecap:square;stroke-width:2.0;"/>
    </g>
    <g id="line2d_44"/>
    <g id="text_21">
     <!-- Plot 7 -->
     <defs>
      <path d="M 8.203125 72.90625 
L 55.078125 72.90625 
L 55.078125 68.703125 
L 28.609375 0 
L 18.3125 0 
L 43.21875 64.59375 
L 8.203125 64.59375 
z
" id="BitstreamVeraSans-Roman-37"/>
     </defs>
     <g transform="translate(86.20545 287.582590625)scale(0.09996 -0.09996)">
      <use xlink:href="#BitstreamVeraSans-Roman-50"/>
      <use x="60.302734375" xlink:href="#BitstreamVeraSans-Roman-6c"/>
      <use x="88.0859375" xlink:href="#BitstreamVeraSans-Roman-6f"/>
      <use x="149.267578125" xlink:href="#BitstreamVeraSans-Roman-74"/>
      <use x="188.4765625" xlink:href="#BitstreamVeraSans-Roman-20"/>
      <use x="220.263671875" xlink:href="#BitstreamVeraSans-Roman-37"/>
     </g>
    </g>
    <g id="line2d_45">
     <path d="M 61.21545 298.756244 
L 75.20985 298.756244 
" style="fill:none;stroke:#ff7f00;stroke-linecap:square;stroke-width:2.0;"/>
    </g>
    <g id="line2d_46"/>
    <g id="text_22">
     <!-- Plot 8 -->
     <g transform="translate(86.20545 302.254844375)scale(0.09996 -0.09996)">
      <use xlink:href="#BitstreamVeraSans-Roman-50"/>
      <use x="60.302734375" xlink:href="#BitstreamVeraSans-Roman-6c"/>
      <use x="88.0859375" xlink:href="#BitstreamVeraSans-Roman-6f"/>
      <use x="149.267578125" xlink:href="#BitstreamVeraSans-Roman-74"/>
      <use x="188.4765625" xlink:href="#BitstreamVeraSans-Roman-20"/>
      <use x="220.263671875" xlink:href="#BitstreamVeraSans-Roman-38"/>
     </g>
    </g>
   </g>
  </g>
 </g>
 <defs>
  <clipPath id="p87131fca25">
   <rect height="288.0" width="446.4" x="49.22025" y="25.3301"/>
  </clipPath>
 </defs>
</svg>
