<?xml version="1.0" encoding="utf-8" standalone="no"?>
<!DOCTYPE svg PUBLIC "-//W3C//DTD SVG 1.1//EN"
  "http://www.w3.org/Graphics/SVG/1.1/DTD/svg11.dtd">
<!-- Created with matplotlib (http://matplotlib.org/) -->
<svg height="221pt" version="1.1" viewBox="0 0 280 221" width="280pt" xmlns="http://www.w3.org/2000/svg" xmlns:xlink="http://www.w3.org/1999/xlink">
 <defs>
  <style type="text/css">
*{stroke-linecap:butt;stroke-linejoin:round;stroke-miterlimit:100000;}
  </style>
 </defs>
 <g id="figure_1">
  <g id="patch_1">
   <path d="M 0 221.909754 
L 280.470469 221.909754 
L 280.470469 0 
L 0 0 
z
" style="fill:#ffffff;"/>
  </g>
  <g id="axes_1">
   <g id="patch_2">
    <path d="M 43.710514 184.42175 
L 266.910514 184.42175 
L 266.910514 23.14175 
L 43.710514 23.14175 
z
" style="fill:#ffffff;"/>
   </g>
   <g id="line2d_1">
    <path clip-path="url(#pe6e728cb77)" d="M 43.710514 23.863263 
L 44.457002 24.039736 
L 45.20349 24.606992 
L 45.949979 24.102714 
L 46.696467 23.784831 
L 47.442955 24.310629 
L 48.189444 24.271559 
L 48.935932 24.951945 
L 49.68242 24.8514 
L 50.428908 23.796081 
L 51.175397 24.779069 
L 51.921885 25.003314 
L 52.668373 24.934087 
L 53.414862 24.615691 
L 54.16135 24.630469 
L 54.907838 24.954441 
L 55.654326 25.029455 
L 56.400815 25.384123 
L 57.147303 27.6672 
L 57.893791 25.712774 
L 58.64028 26.11193 
L 59.386768 25.119434 
L 60.133256 26.104975 
L 60.879745 26.660968 
L 61.626233 27.509403 
L 62.372721 27.555789 
L 63.119209 26.014107 
L 63.865698 27.090302 
L 64.612186 29.612837 
L 65.358674 28.16103 
L 66.105163 28.809268 
L 66.851651 25.934553 
L 67.598139 29.858117 
L 68.344627 28.299803 
L 69.091116 28.724972 
L 69.837604 30.927515 
L 70.584092 29.328937 
L 71.330581 32.213142 
L 72.077069 30.879411 
L 72.823557 32.590424 
L 73.570046 29.519272 
L 74.316534 31.353449 
L 75.80951 36.312697 
L 76.555999 35.401456 
L 77.302487 36.773596 
L 78.048975 32.452073 
L 78.795464 32.0658 
L 79.541952 34.905015 
L 80.28844 42.416233 
L 81.034928 35.387797 
L 81.781417 40.79725 
L 82.527905 38.087412 
L 83.274393 40.005613 
L 84.020882 37.468998 
L 84.76737 52.802943 
L 85.513858 45.213861 
L 86.260347 54.629437 
L 87.006835 61.983122 
L 87.753323 45.450316 
L 88.499811 47.568066 
L 89.2463 64.460692 
L 89.992788 72.665185 
L 90.739276 49.420059 
L 91.485765 51.269594 
L 92.232253 74.504382 
L 92.978741 62.13503 
L 93.725229 69.071855 
L 94.471718 66.087775 
L 95.218206 64.783621 
L 95.964694 58.462949 
L 96.711183 66.688023 
L 97.457671 85.409832 
L 98.204159 81.233671 
L 98.950648 89.447302 
L 99.697136 109.121556 
L 100.443624 67.307369 
L 101.190112 81.159114 
L 101.936601 108.642675 
L 102.683089 87.406171 
L 103.429577 100.426979 
L 104.176066 102.698502 
L 104.922554 99.853021 
L 105.669042 85.008552 
L 106.41553 83.006493 
L 107.162019 108.340445 
L 107.908507 111.770776 
L 108.654995 148.460334 
L 109.401484 133.710931 
L 110.147972 139.231935 
L 110.89446 135.352775 
L 111.640949 138.303574 
L 112.387437 137.068448 
L 113.133925 138.947582 
L 113.880413 165.108102 
L 114.626902 167.959596 
L 115.37339 131.763578 
L 116.119878 149.734677 
L 116.866367 183.187541 
L 117.612855 179.661858 
L 118.359343 152.95786 
L 119.105831 172.834519 
L 119.85232 172.670994 
L 120.598808 167.995899 
L 121.345296 168.881522 
L 122.091785 182.80035 
L 122.838273 160.085679 
L 123.584761 177.226069 
L 124.33125 180.223045 
L 125.077738 182.72636 
L 125.824226 183.021408 
L 126.570714 174.285955 
L 127.317203 183.35582 
L 128.063691 184.150815 
L 128.810179 178.761827 
L 129.556668 184.103458 
L 130.303156 180.795335 
L 131.049644 183.860835 
L 131.796132 184.41994 
L 132.542621 184.413778 
L 133.289109 184.172396 
L 134.035597 183.501271 
L 134.782086 184.285788 
L 135.528574 184.271849 
L 136.275062 184.41556 
L 137.021551 184.102543 
L 137.768039 184.421719 
L 266.910514 184.42175 
L 266.910514 184.42175 
" style="fill:none;stroke:#4daf4a;stroke-linecap:square;stroke-width:2.0;"/>
   </g>
   <g id="line2d_2">
    <path clip-path="url(#pe6e728cb77)" d="M 43.710514 23.27456 
L 44.457002 23.358785 
L 45.20349 23.389406 
L 45.949979 23.290797 
L 48.189444 23.407512 
L 49.68242 23.260622 
L 50.428908 23.320325 
L 51.175397 23.551994 
L 51.921885 23.49047 
L 52.668373 23.578049 
L 53.414862 23.397952 
L 54.16135 23.603476 
L 55.654326 23.618597 
L 56.400815 23.782125 
L 57.147303 23.623113 
L 57.893791 23.823514 
L 58.64028 23.709921 
L 59.386768 23.902589 
L 60.133256 23.942353 
L 61.626233 23.620198 
L 62.372721 23.910785 
L 63.119209 23.735264 
L 63.865698 23.845894 
L 65.358674 24.538964 
L 66.105163 24.44187 
L 66.851651 23.847355 
L 67.598139 24.343849 
L 68.344627 24.560525 
L 69.091116 24.601657 
L 69.837604 24.468298 
L 70.584092 24.991396 
L 71.330581 25.340166 
L 72.077069 25.163944 
L 72.823557 25.410539 
L 73.570046 25.520294 
L 74.316534 27.512138 
L 75.063022 25.007617 
L 75.80951 26.635247 
L 76.555999 25.576083 
L 77.302487 25.602067 
L 78.048975 26.915464 
L 78.795464 27.271008 
L 79.541952 27.366898 
L 80.28844 25.744363 
L 81.034928 25.127169 
L 81.781417 28.590866 
L 82.527905 26.230348 
L 83.274393 26.786957 
L 84.020882 27.939396 
L 84.76737 27.075745 
L 85.513858 27.154941 
L 86.260347 28.036593 
L 87.006835 28.488897 
L 87.753323 28.488891 
L 88.499811 26.399465 
L 89.2463 28.831725 
L 89.992788 30.660906 
L 90.739276 27.791779 
L 91.485765 34.03131 
L 92.232253 28.760159 
L 92.978741 33.646378 
L 93.725229 31.075381 
L 94.471718 29.767412 
L 95.218206 35.661483 
L 95.964694 35.684223 
L 96.711183 34.684158 
L 97.457671 39.680303 
L 98.204159 35.158008 
L 98.950648 37.063707 
L 99.697136 39.984613 
L 100.443624 39.73858 
L 101.190112 39.333635 
L 101.936601 33.807399 
L 102.683089 37.612459 
L 103.429577 60.292733 
L 104.176066 40.860347 
L 104.922554 50.588077 
L 105.669042 52.901562 
L 106.41553 43.754489 
L 107.162019 47.190054 
L 107.908507 63.062836 
L 108.654995 51.042968 
L 109.401484 78.081275 
L 110.147972 52.522389 
L 110.89446 82.20105 
L 111.640949 58.449697 
L 112.387437 57.098972 
L 113.133925 58.929249 
L 114.626902 94.281831 
L 115.37339 94.848918 
L 116.119878 89.992069 
L 116.866367 80.086033 
L 117.612855 103.205471 
L 118.359343 100.083359 
L 119.105831 85.79269 
L 119.85232 80.64701 
L 120.598808 117.042622 
L 121.345296 138.499664 
L 122.091785 91.188019 
L 122.838273 146.428967 
L 124.33125 94.372341 
L 125.077738 120.157806 
L 125.824226 126.758509 
L 126.570714 135.190197 
L 127.317203 162.903089 
L 128.063691 125.20286 
L 128.810179 143.28941 
L 129.556668 123.897861 
L 130.303156 163.068597 
L 131.049644 163.245468 
L 131.796132 174.941905 
L 133.289109 168.34139 
L 134.035597 159.52165 
L 134.782086 182.552772 
L 135.528574 175.264846 
L 136.275062 181.728018 
L 137.021551 174.384393 
L 137.768039 174.104817 
L 138.514527 180.129298 
L 139.261015 179.215157 
L 140.007504 184.17752 
L 140.753992 184.142908 
L 141.50048 184.322996 
L 142.246969 184.14549 
L 142.993457 183.669783 
L 143.739945 183.494604 
L 144.486433 183.18485 
L 145.232922 183.643628 
L 145.97941 184.409803 
L 147.472387 184.393843 
L 148.965363 184.421289 
L 149.711852 183.873894 
L 150.45834 181.720776 
L 151.204828 184.408772 
L 157.923223 184.421748 
L 266.910514 184.42175 
L 266.910514 184.42175 
" style="fill:none;stroke:#419388;stroke-linecap:square;stroke-width:2.0;"/>
   </g>
   <g id="line2d_3">
    <path clip-path="url(#pe6e728cb77)" d="M 43.710514 23.175294 
L 52.668373 23.224106 
L 59.386768 23.312512 
L 60.879745 23.226343 
L 69.091116 23.556708 
L 69.837604 23.342122 
L 71.330581 23.661226 
L 72.077069 23.442408 
L 72.823557 23.414094 
L 75.063022 23.814737 
L 75.80951 23.667103 
L 77.302487 23.632911 
L 78.048975 24.005727 
L 78.795464 23.907911 
L 79.541952 23.576986 
L 80.28844 23.880927 
L 81.034928 23.925822 
L 81.781417 24.176785 
L 82.527905 23.951848 
L 83.274393 24.015086 
L 84.020882 24.579831 
L 84.76737 24.110744 
L 85.513858 24.553919 
L 86.260347 24.050776 
L 87.006835 23.979267 
L 87.753323 24.647379 
L 88.499811 24.865902 
L 89.2463 25.265048 
L 89.992788 24.577482 
L 91.485765 25.026843 
L 92.978741 24.779067 
L 93.725229 24.293042 
L 95.218206 24.817236 
L 95.964694 25.749576 
L 96.711183 25.081554 
L 97.457671 25.501856 
L 98.204159 28.360217 
L 98.950648 26.596528 
L 99.697136 26.306342 
L 100.443624 26.771229 
L 101.190112 27.876167 
L 101.936601 27.402648 
L 102.683089 28.354954 
L 103.429577 28.55343 
L 104.176066 28.546226 
L 104.922554 26.907494 
L 105.669042 28.337791 
L 106.41553 27.703407 
L 107.162019 40.143062 
L 107.908507 30.035442 
L 108.654995 31.360891 
L 109.401484 29.535704 
L 110.147972 32.870335 
L 110.89446 32.782978 
L 111.640949 31.809434 
L 112.387437 38.752963 
L 113.133925 34.339331 
L 113.880413 36.98286 
L 114.626902 31.488039 
L 115.37339 33.814324 
L 116.119878 35.726055 
L 116.866367 34.430733 
L 118.359343 34.85842 
L 119.105831 39.315644 
L 119.85232 37.910371 
L 120.598808 50.781427 
L 121.345296 46.461991 
L 122.091785 50.441667 
L 122.838273 57.059019 
L 123.584761 57.443575 
L 124.33125 50.534018 
L 125.077738 45.247833 
L 125.824226 50.376095 
L 126.570714 45.639222 
L 127.317203 59.084239 
L 128.063691 67.167693 
L 128.810179 61.491725 
L 129.556668 79.267841 
L 130.303156 68.31423 
L 131.049644 77.56712 
L 131.796132 71.857805 
L 132.542621 94.978957 
L 133.289109 98.43651 
L 134.035597 56.850527 
L 134.782086 81.810774 
L 135.528574 90.082619 
L 136.275062 72.566231 
L 137.021551 88.142997 
L 137.768039 90.000555 
L 138.514527 129.222835 
L 139.261015 114.740985 
L 140.007504 116.287889 
L 140.753992 113.840322 
L 141.50048 110.746751 
L 142.246969 120.930384 
L 142.993457 144.141076 
L 143.739945 125.699806 
L 144.486433 151.153443 
L 145.232922 131.141005 
L 145.97941 142.284438 
L 146.725898 171.907509 
L 147.472387 164.487471 
L 148.218875 144.56353 
L 148.965363 166.667734 
L 149.711852 176.080281 
L 150.45834 168.816882 
L 151.204828 158.326416 
L 151.951316 179.335658 
L 152.697805 167.187545 
L 153.444293 172.971684 
L 154.190781 176.733934 
L 154.93727 183.156077 
L 155.683758 177.99963 
L 156.430246 180.977204 
L 157.176734 181.165776 
L 157.923223 181.913229 
L 158.669711 183.218798 
L 159.416199 183.326336 
L 160.909176 184.420256 
L 161.655664 183.281228 
L 162.402153 184.087388 
L 163.148641 184.346775 
L 163.895129 184.42172 
L 164.641617 184.020179 
L 165.388106 183.972506 
L 166.134594 184.421746 
L 170.613524 184.420454 
L 254.220213 184.42175 
L 266.910514 184.42175 
L 266.910514 184.42175 
" style="fill:none;stroke:#4577b5;stroke-linecap:square;stroke-width:2.0;"/>
   </g>
   <g id="line2d_4">
    <path clip-path="url(#pe6e728cb77)" d="M 43.710514 23.151677 
L 63.865698 23.200822 
L 67.598139 23.229339 
L 69.091116 23.211995 
L 75.063022 23.27719 
L 76.555999 23.290381 
L 77.302487 23.401284 
L 78.048975 23.294309 
L 79.541952 23.421223 
L 80.28844 23.343266 
L 81.034928 23.414013 
L 81.781417 23.603638 
L 82.527905 23.434409 
L 84.020882 23.441339 
L 84.76737 23.39189 
L 85.513858 23.506184 
L 87.006835 23.398395 
L 88.499811 23.522219 
L 89.2463 23.919608 
L 89.992788 23.415485 
L 90.739276 23.66409 
L 91.485765 23.585504 
L 92.232253 23.691437 
L 92.978741 23.95886 
L 93.725229 23.999492 
L 94.471718 23.79215 
L 95.218206 23.998104 
L 95.964694 24.038637 
L 96.711183 23.854614 
L 97.457671 23.898742 
L 98.204159 24.257644 
L 98.950648 25.102772 
L 99.697136 24.364069 
L 100.443624 24.187602 
L 101.190112 24.283057 
L 101.936601 25.28806 
L 102.683089 24.873694 
L 103.429577 24.864307 
L 104.176066 25.244971 
L 104.922554 24.818006 
L 106.41553 25.215647 
L 107.162019 24.451614 
L 107.908507 25.128144 
L 108.654995 25.04983 
L 109.401484 25.449537 
L 110.147972 25.698342 
L 110.89446 26.076565 
L 113.133925 26.155563 
L 113.880413 26.686016 
L 114.626902 27.82632 
L 115.37339 26.739102 
L 116.119878 26.975647 
L 116.866367 29.736333 
L 117.612855 30.019593 
L 118.359343 25.751486 
L 119.105831 27.119137 
L 119.85232 30.162635 
L 120.598808 32.670508 
L 121.345296 31.433263 
L 122.091785 30.832135 
L 122.838273 32.768451 
L 123.584761 36.657375 
L 124.33125 28.995115 
L 125.077738 33.566141 
L 125.824226 42.635485 
L 126.570714 43.672353 
L 127.317203 33.202948 
L 128.063691 34.968335 
L 128.810179 31.583035 
L 129.556668 44.687647 
L 130.303156 45.286481 
L 131.049644 45.633432 
L 131.796132 45.74265 
L 132.542621 48.025525 
L 133.289109 47.606602 
L 134.035597 46.41908 
L 134.782086 57.318192 
L 135.528574 54.009154 
L 136.275062 63.67162 
L 137.021551 69.028706 
L 137.768039 61.373276 
L 138.514527 64.08598 
L 139.261015 55.831823 
L 140.007504 69.277433 
L 141.50048 63.495652 
L 142.246969 103.214934 
L 142.993457 112.461798 
L 143.739945 78.885112 
L 144.486433 82.421636 
L 145.232922 107.506055 
L 145.97941 90.657469 
L 146.725898 86.699457 
L 147.472387 113.605964 
L 148.218875 114.111179 
L 148.965363 118.155704 
L 149.711852 101.364369 
L 150.45834 125.270343 
L 151.204828 123.683232 
L 151.951316 135.321578 
L 152.697805 122.112586 
L 153.444293 144.673239 
L 154.190781 109.662223 
L 154.93727 137.286282 
L 155.683758 138.103258 
L 156.430246 164.269316 
L 157.176734 167.907197 
L 157.923223 173.069881 
L 158.669711 153.156119 
L 159.416199 173.575817 
L 160.162688 158.634677 
L 160.909176 163.230948 
L 161.655664 166.068174 
L 162.402153 179.457989 
L 163.148641 173.044391 
L 163.895129 183.629734 
L 164.641617 179.630659 
L 165.388106 181.834436 
L 166.134594 178.328252 
L 166.881082 179.505706 
L 167.627571 181.850667 
L 168.374059 183.51605 
L 169.120547 177.922298 
L 169.867035 180.364008 
L 170.613524 183.94742 
L 172.1065 183.349228 
L 172.852989 184.234108 
L 173.599477 184.167048 
L 174.345965 184.350985 
L 175.092454 183.845267 
L 175.838942 184.212818 
L 176.58543 184.402488 
L 181.06436 184.417453 
L 201.219544 184.42175 
L 266.910514 184.42175 
L 266.910514 184.42175 
" style="fill:none;stroke:#7c5ca9;stroke-linecap:square;stroke-width:2.0;"/>
   </g>
   <g id="line2d_5">
    <path clip-path="url(#pe6e728cb77)" d="M 43.710514 23.143692 
L 87.753323 23.253688 
L 89.2463 23.295081 
L 90.739276 23.241827 
L 93.725229 23.325299 
L 95.218206 23.270461 
L 95.964694 23.366945 
L 99.697136 23.31996 
L 100.443624 23.420463 
L 101.190112 23.272217 
L 101.936601 23.409888 
L 102.683089 23.408353 
L 103.429577 23.524596 
L 104.176066 23.420177 
L 104.922554 23.496062 
L 105.669042 23.708231 
L 106.41553 23.507049 
L 107.162019 23.605156 
L 107.908507 23.557058 
L 108.654995 23.785469 
L 109.401484 23.503939 
L 111.640949 23.522516 
L 113.133925 23.778682 
L 113.880413 23.731115 
L 115.37339 23.940992 
L 118.359343 23.92981 
L 119.105831 24.678894 
L 119.85232 24.805875 
L 120.598808 24.513608 
L 121.345296 24.688535 
L 122.091785 24.479296 
L 122.838273 24.720733 
L 123.584761 24.21311 
L 124.33125 24.60047 
L 125.077738 24.538989 
L 125.824226 24.817311 
L 126.570714 25.605883 
L 127.317203 24.430978 
L 128.063691 25.564786 
L 128.810179 24.669835 
L 130.303156 26.084015 
L 131.049644 26.469924 
L 131.796132 26.501278 
L 132.542621 27.17589 
L 133.289109 26.737559 
L 134.035597 27.090399 
L 134.782086 26.819717 
L 135.528574 27.049758 
L 136.275062 27.593958 
L 137.021551 29.368723 
L 137.768039 31.568829 
L 138.514527 27.167333 
L 139.261015 29.163366 
L 140.007504 34.332913 
L 140.753992 33.140642 
L 141.50048 33.994811 
L 142.246969 33.516676 
L 143.739945 34.47075 
L 144.486433 36.69896 
L 145.232922 38.018839 
L 145.97941 38.401543 
L 146.725898 39.492994 
L 147.472387 45.482411 
L 148.218875 33.620984 
L 148.965363 36.848309 
L 149.711852 53.27319 
L 150.45834 46.031279 
L 151.204828 51.818632 
L 151.951316 41.991665 
L 152.697805 41.846614 
L 153.444293 54.874857 
L 154.190781 49.298651 
L 154.93727 61.954163 
L 155.683758 57.327515 
L 156.430246 72.560794 
L 157.176734 52.172277 
L 157.923223 77.87364 
L 158.669711 84.614256 
L 159.416199 55.342185 
L 160.162688 109.348746 
L 160.909176 64.18878 
L 161.655664 64.14546 
L 162.402153 70.200602 
L 163.148641 86.141509 
L 163.895129 87.149921 
L 164.641617 83.554209 
L 165.388106 74.277699 
L 166.134594 101.31116 
L 166.881082 98.289102 
L 167.627571 122.192229 
L 168.374059 95.58912 
L 169.120547 124.999265 
L 169.867035 118.753658 
L 170.613524 98.583818 
L 171.360012 133.556929 
L 172.1065 138.813683 
L 172.852989 93.208321 
L 173.599477 133.008742 
L 174.345965 121.44263 
L 175.092454 128.326845 
L 175.838942 153.83192 
L 176.58543 157.688396 
L 178.078407 143.089001 
L 178.824895 168.705921 
L 179.571383 165.286837 
L 180.317872 181.223887 
L 181.06436 146.555522 
L 181.810848 151.43682 
L 182.557336 161.845542 
L 183.303825 167.103212 
L 184.050313 180.095488 
L 184.796801 179.634344 
L 185.54329 182.804444 
L 186.289778 180.769655 
L 187.036266 184.209562 
L 187.782755 177.080415 
L 188.529243 182.053092 
L 189.275731 175.430643 
L 190.022219 183.869312 
L 190.768708 184.264541 
L 191.515196 184.025179 
L 192.261684 184.416602 
L 193.008173 180.421124 
L 193.754661 184.211557 
L 194.501149 180.930406 
L 195.247637 184.414585 
L 195.994126 184.029375 
L 196.740614 182.928592 
L 197.487102 184.34092 
L 198.980079 184.399496 
L 199.726567 184.295451 
L 201.219544 184.421719 
L 201.966032 184.308126 
L 202.71252 184.421722 
L 204.205497 184.42175 
L 266.910514 184.42175 
L 266.910514 184.42175 
" style="fill:none;stroke:#ae3f7c;stroke-linecap:square;stroke-width:2.0;"/>
   </g>
   <g id="line2d_6">
    <path clip-path="url(#pe6e728cb77)" d="M 43.710514 23.14216 
L 105.669042 23.191911 
L 106.41553 23.286851 
L 107.162019 23.183902 
L 112.387437 23.262589 
L 113.880413 23.283958 
L 116.119878 23.34104 
L 116.866367 23.437855 
L 117.612855 23.299057 
L 120.598808 23.438139 
L 121.345296 23.32167 
L 122.838273 23.553786 
L 124.33125 23.376699 
L 125.824226 23.633231 
L 127.317203 23.419477 
L 128.063691 23.567603 
L 128.810179 23.373372 
L 129.556668 23.796168 
L 131.049644 23.594407 
L 131.796132 23.941164 
L 132.542621 23.634067 
L 133.289109 23.625358 
L 134.035597 23.755418 
L 134.782086 24.336611 
L 135.528574 23.63749 
L 137.021551 24.250912 
L 137.768039 24.086935 
L 139.261015 25.120811 
L 140.007504 23.986706 
L 140.753992 24.227047 
L 141.50048 24.141998 
L 142.246969 24.450945 
L 142.993457 25.551445 
L 143.739945 24.983003 
L 144.486433 24.126177 
L 145.232922 25.953388 
L 145.97941 26.267893 
L 146.725898 25.999596 
L 147.472387 25.568938 
L 148.218875 26.354649 
L 148.965363 25.662481 
L 150.45834 25.657314 
L 151.204828 26.731118 
L 151.951316 25.507448 
L 152.697805 27.190004 
L 153.444293 28.518092 
L 154.190781 26.511562 
L 154.93727 25.707907 
L 155.683758 26.071115 
L 156.430246 27.024225 
L 157.176734 31.545202 
L 157.923223 26.557256 
L 158.669711 32.622975 
L 159.416199 29.453471 
L 160.162688 31.41798 
L 160.909176 30.570516 
L 161.655664 33.620162 
L 162.402153 30.650143 
L 163.148641 29.476163 
L 163.895129 35.162702 
L 164.641617 39.406279 
L 165.388106 35.570169 
L 166.134594 39.968548 
L 166.881082 35.437094 
L 167.627571 31.931337 
L 168.374059 38.973041 
L 169.120547 42.019725 
L 169.867035 36.510314 
L 170.613524 34.623841 
L 171.360012 37.445085 
L 172.1065 54.207961 
L 172.852989 54.462518 
L 173.599477 39.669521 
L 174.345965 43.46603 
L 175.092454 45.200762 
L 175.838942 44.876517 
L 176.58543 50.263469 
L 177.331918 50.863643 
L 178.078407 45.14871 
L 178.824895 38.300276 
L 179.571383 63.61234 
L 180.317872 54.859181 
L 181.06436 59.505028 
L 181.810848 57.244528 
L 182.557336 86.432194 
L 183.303825 58.201137 
L 184.050313 76.885924 
L 184.796801 65.759767 
L 185.54329 72.290149 
L 186.289778 90.058069 
L 187.036266 72.74023 
L 187.782755 97.121458 
L 188.529243 81.723477 
L 189.275731 103.757271 
L 190.022219 131.621242 
L 190.768708 126.847427 
L 191.515196 90.017487 
L 193.008173 127.870421 
L 193.754661 85.833443 
L 194.501149 116.038925 
L 195.247637 110.82364 
L 195.994126 153.24321 
L 196.740614 143.79002 
L 198.233591 130.836875 
L 198.980079 156.642605 
L 199.726567 140.375125 
L 200.473056 168.707358 
L 201.219544 166.954448 
L 201.966032 162.80999 
L 202.71252 157.692856 
L 203.459009 129.631474 
L 204.205497 176.466653 
L 204.951985 179.837793 
L 205.698474 178.863157 
L 206.444962 178.338325 
L 207.19145 168.562428 
L 207.937938 177.25877 
L 208.684427 176.232616 
L 209.430915 183.819858 
L 210.177403 179.407416 
L 210.923892 183.629507 
L 211.67038 183.687908 
L 212.416868 183.885851 
L 213.163357 183.115324 
L 213.909845 180.993675 
L 215.402821 184.418332 
L 216.895798 184.301671 
L 217.642286 184.172547 
L 218.388775 184.275481 
L 219.135263 183.953003 
L 219.881751 184.409 
L 227.346634 184.421749 
L 266.910514 184.42175 
L 266.910514 184.42175 
" style="fill:none;stroke:#d92230;stroke-linecap:square;stroke-width:2.0;"/>
   </g>
   <g id="line2d_7">
    <path clip-path="url(#pe6e728cb77)" d="M 43.710514 23.141819 
L 119.85232 23.217313 
L 120.598808 23.33662 
L 121.345296 23.206939 
L 123.584761 23.281602 
L 124.33125 23.23777 
L 125.077738 23.373132 
L 125.824226 23.24102 
L 126.570714 23.297914 
L 127.317203 23.233066 
L 130.303156 23.513663 
L 131.049644 23.35463 
L 131.796132 23.445991 
L 132.542621 23.299585 
L 134.035597 23.441069 
L 134.782086 23.650167 
L 136.275062 23.42461 
L 137.021551 23.535389 
L 137.768039 23.788417 
L 138.514527 23.566142 
L 139.261015 23.501714 
L 140.753992 23.681561 
L 141.50048 23.452118 
L 142.246969 23.412404 
L 143.739945 23.828893 
L 144.486433 23.658433 
L 145.232922 23.928163 
L 147.472387 24.336196 
L 148.218875 24.486694 
L 148.965363 25.400689 
L 149.711852 24.395541 
L 150.45834 24.71155 
L 151.204828 24.61502 
L 151.951316 24.967806 
L 152.697805 26.06836 
L 153.444293 24.523042 
L 154.190781 25.888833 
L 154.93727 25.771655 
L 155.683758 27.513671 
L 156.430246 25.283918 
L 157.176734 26.312995 
L 157.923223 25.26939 
L 158.669711 26.816543 
L 159.416199 27.549758 
L 160.162688 27.01596 
L 160.909176 27.905139 
L 161.655664 26.986422 
L 162.402153 26.306536 
L 163.148641 28.066727 
L 163.895129 30.471227 
L 164.641617 30.550461 
L 165.388106 29.47172 
L 166.134594 31.988093 
L 166.881082 29.553992 
L 167.627571 29.151807 
L 168.374059 32.597615 
L 169.120547 31.318945 
L 169.867035 32.31201 
L 171.360012 36.632065 
L 172.1065 30.931458 
L 172.852989 32.750839 
L 173.599477 32.325085 
L 174.345965 36.927357 
L 175.092454 36.910288 
L 175.838942 48.948839 
L 176.58543 38.69177 
L 177.331918 43.730183 
L 178.078407 42.617096 
L 178.824895 46.346619 
L 179.571383 54.646386 
L 180.317872 51.743125 
L 181.06436 60.024151 
L 181.810848 51.644523 
L 182.557336 51.620782 
L 184.050313 55.071276 
L 184.796801 48.499245 
L 185.54329 59.568854 
L 186.289778 73.706257 
L 187.036266 71.434235 
L 187.782755 58.958199 
L 188.529243 77.201704 
L 189.275731 81.653943 
L 190.022219 82.081807 
L 190.768708 61.687191 
L 191.515196 62.922482 
L 192.261684 106.526076 
L 193.008173 87.182936 
L 193.754661 74.078678 
L 195.247637 102.248517 
L 195.994126 112.1351 
L 196.740614 111.44705 
L 197.487102 100.480645 
L 198.233591 127.672773 
L 198.980079 104.660216 
L 199.726567 96.238124 
L 200.473056 95.075006 
L 201.219544 132.118106 
L 201.966032 103.757037 
L 202.71252 134.174629 
L 203.459009 152.631997 
L 204.205497 139.459763 
L 204.951985 158.893944 
L 205.698474 149.362802 
L 206.444962 155.170832 
L 207.19145 158.470776 
L 207.937938 167.937047 
L 208.684427 172.17194 
L 209.430915 173.104218 
L 210.177403 155.206335 
L 210.923892 155.653689 
L 211.67038 173.351034 
L 212.416868 160.417776 
L 213.163357 174.653358 
L 213.909845 181.267098 
L 214.656333 156.021611 
L 215.402821 173.704657 
L 216.14931 181.668319 
L 216.895798 180.897984 
L 217.642286 184.173261 
L 218.388775 183.344316 
L 219.135263 176.990561 
L 219.881751 184.190729 
L 220.62824 183.853873 
L 221.374728 182.873492 
L 222.121216 182.601622 
L 222.867704 184.416894 
L 228.839611 184.390938 
L 231.825564 184.421539 
L 266.910514 184.42175 
L 266.910514 184.42175 
" style="fill:none;stroke:#f04610;stroke-linecap:square;stroke-width:2.0;"/>
   </g>
   <g id="line2d_8">
    <path clip-path="url(#pe6e728cb77)" d="M 43.710514 23.141773 
L 140.007504 23.250925 
L 140.753992 23.471676 
L 141.50048 23.299745 
L 143.739945 23.247962 
L 144.486433 23.349801 
L 145.232922 23.320221 
L 145.97941 23.430257 
L 146.725898 23.265304 
L 147.472387 23.272515 
L 148.218875 23.555276 
L 148.965363 23.292428 
L 149.711852 23.496205 
L 150.45834 23.361852 
L 151.204828 23.423142 
L 151.951316 23.321829 
L 153.444293 23.367904 
L 154.190781 23.413915 
L 154.93727 23.672253 
L 155.683758 23.601091 
L 156.430246 23.916237 
L 157.923223 23.500358 
L 158.669711 23.960107 
L 160.162688 23.597508 
L 160.909176 23.465251 
L 161.655664 23.640173 
L 162.402153 23.407594 
L 163.148641 23.822742 
L 163.895129 23.813271 
L 164.641617 23.916151 
L 165.388106 24.175873 
L 166.881082 24.309965 
L 167.627571 23.693321 
L 168.374059 23.765339 
L 169.120547 24.687864 
L 169.867035 24.315814 
L 170.613524 24.825571 
L 172.1065 24.898774 
L 172.852989 24.396379 
L 173.599477 25.82362 
L 174.345965 24.99552 
L 175.092454 25.252319 
L 175.838942 25.068557 
L 176.58543 24.687867 
L 177.331918 24.779772 
L 178.078407 27.800862 
L 178.824895 25.653908 
L 179.571383 25.608557 
L 180.317872 26.995132 
L 181.06436 26.609483 
L 181.810848 26.094887 
L 182.557336 28.123988 
L 183.303825 25.972791 
L 184.050313 27.558679 
L 184.796801 27.697335 
L 185.54329 26.865485 
L 186.289778 28.294363 
L 187.036266 29.212534 
L 187.782755 28.591678 
L 188.529243 28.733147 
L 189.275731 27.693717 
L 190.022219 28.839413 
L 191.515196 33.414721 
L 192.261684 30.350402 
L 193.008173 35.284466 
L 193.754661 36.803482 
L 194.501149 35.129068 
L 195.247637 42.003579 
L 195.994126 36.653192 
L 196.740614 42.093345 
L 197.487102 35.036274 
L 198.233591 36.551103 
L 198.980079 35.677357 
L 199.726567 34.612114 
L 200.473056 40.639076 
L 201.219544 61.348906 
L 201.966032 47.256683 
L 202.71252 53.92393 
L 203.459009 46.818922 
L 204.205497 47.799135 
L 204.951985 51.684304 
L 205.698474 48.557583 
L 206.444962 69.847446 
L 207.19145 59.757795 
L 207.937938 73.243878 
L 208.684427 69.84838 
L 209.430915 52.647361 
L 210.177403 69.104828 
L 210.923892 71.488927 
L 211.67038 83.132513 
L 212.416868 50.800205 
L 213.163357 84.29497 
L 213.909845 78.973081 
L 214.656333 78.146729 
L 215.402821 70.497364 
L 216.14931 65.965962 
L 216.895798 79.872429 
L 217.642286 102.619525 
L 218.388775 85.436469 
L 219.135263 86.390755 
L 219.881751 117.190393 
L 220.62824 95.294769 
L 221.374728 97.711025 
L 222.121216 101.749831 
L 222.867704 146.936941 
L 223.614193 135.356119 
L 224.360681 100.331937 
L 225.107169 121.687405 
L 225.853658 148.030454 
L 226.600146 160.05103 
L 227.346634 156.290064 
L 228.093122 151.00418 
L 228.839611 134.881429 
L 229.586099 162.524935 
L 230.332587 158.286754 
L 231.079076 127.259897 
L 231.825564 166.602124 
L 232.572052 168.767895 
L 233.318541 165.649759 
L 234.065029 141.299101 
L 234.811517 166.041528 
L 235.558005 147.188485 
L 236.304494 167.80223 
L 237.050982 173.96367 
L 237.79747 152.51513 
L 238.543959 163.94465 
L 239.290447 178.651082 
L 240.036935 181.565749 
L 241.529912 183.134462 
L 242.2764 184.405126 
L 243.022888 183.487135 
L 243.769377 180.770441 
L 244.515865 184.420925 
L 245.262353 184.381554 
L 246.008842 182.778996 
L 246.75533 184.309158 
L 247.501818 184.419738 
L 248.248306 184.278351 
L 248.994795 184.421239 
L 249.741283 184.192795 
L 250.487771 184.421724 
L 254.220213 184.421748 
L 266.910514 184.42175 
L 266.910514 184.42175 
" style="fill:none;stroke:#ff7f00;stroke-linecap:square;stroke-width:2.0;"/>
   </g>
   <g id="patch_3">
    <path d="M 43.710514 184.42175 
L 43.710514 23.14175 
" style="fill:none;stroke:#000000;stroke-linecap:square;stroke-linejoin:miter;"/>
   </g>
   <g id="patch_4">
    <path d="M 43.710514 23.14175 
L 266.910514 23.14175 
" style="fill:none;stroke:#000000;stroke-linecap:square;stroke-linejoin:miter;"/>
   </g>
   <g id="patch_5">
    <path d="M 266.910514 184.42175 
L 266.910514 23.14175 
" style="fill:none;stroke:#000000;stroke-linecap:square;stroke-linejoin:miter;"/>
   </g>
   <g id="patch_6">
    <path d="M 43.710514 184.42175 
L 266.910514 184.42175 
" style="fill:none;stroke:#000000;stroke-linecap:square;stroke-linejoin:miter;"/>
   </g>
   <g id="matplotlib.axis_1">
    <g id="xtick_1">
     <g id="line2d_9">
      <defs>
       <path d="M 0 0 
L 0 -4 
" id="m7a28e30a63" style="stroke:#000000;stroke-width:0.5;"/>
      </defs>
      <g>
       <use style="stroke:#000000;stroke-width:0.5;" x="43.71051375" xlink:href="#m7a28e30a63" y="184.42175"/>
      </g>
     </g>
     <g id="line2d_10">
      <defs>
       <path d="M 0 0 
L 0 4 
" id="m3a8ecd9955" style="stroke:#000000;stroke-width:0.5;"/>
      </defs>
      <g>
       <use style="stroke:#000000;stroke-width:0.5;" x="43.71051375" xlink:href="#m3a8ecd9955" y="23.14175"/>
      </g>
     </g>
     <g id="text_1">
      <!-- −10 -->
      <defs>
       <path d="M 10.59375 35.5 
L 73.1875 35.5 
L 73.1875 27.203125 
L 10.59375 27.203125 
z
" id="BitstreamVeraSans-Roman-2212"/>
       <path d="M 31.78125 66.40625 
Q 24.171875 66.40625 20.328125 58.90625 
Q 16.5 51.421875 16.5 36.375 
Q 16.5 21.390625 20.328125 13.890625 
Q 24.171875 6.390625 31.78125 6.390625 
Q 39.453125 6.390625 43.28125 13.890625 
Q 47.125 21.390625 47.125 36.375 
Q 47.125 51.421875 43.28125 58.90625 
Q 39.453125 66.40625 31.78125 66.40625 
M 31.78125 74.21875 
Q 44.046875 74.21875 50.515625 64.515625 
Q 56.984375 54.828125 56.984375 36.375 
Q 56.984375 17.96875 50.515625 8.265625 
Q 44.046875 -1.421875 31.78125 -1.421875 
Q 19.53125 -1.421875 13.0625 8.265625 
Q 6.59375 17.96875 6.59375 36.375 
Q 6.59375 54.828125 13.0625 64.515625 
Q 19.53125 74.21875 31.78125 74.21875 
" id="BitstreamVeraSans-Roman-30"/>
       <path d="M 12.40625 8.296875 
L 28.515625 8.296875 
L 28.515625 63.921875 
L 10.984375 60.40625 
L 10.984375 69.390625 
L 28.421875 72.90625 
L 38.28125 72.90625 
L 38.28125 8.296875 
L 54.390625 8.296875 
L 54.390625 0 
L 12.40625 0 
z
" id="BitstreamVeraSans-Roman-31"/>
      </defs>
      <g transform="translate(33.1623909375 196.017148125)scale(0.09996 -0.09996)">
       <use xlink:href="#BitstreamVeraSans-Roman-2212"/>
       <use x="83.7890625" xlink:href="#BitstreamVeraSans-Roman-31"/>
       <use x="147.412109375" xlink:href="#BitstreamVeraSans-Roman-30"/>
      </g>
     </g>
    </g>
    <g id="xtick_2">
     <g id="line2d_11">
      <g>
       <use style="stroke:#000000;stroke-width:0.5;" x="99.51051375" xlink:href="#m7a28e30a63" y="184.42175"/>
      </g>
     </g>
     <g id="line2d_12">
      <g>
       <use style="stroke:#000000;stroke-width:0.5;" x="99.51051375" xlink:href="#m3a8ecd9955" y="23.14175"/>
      </g>
     </g>
     <g id="text_2">
      <!-- −5 -->
      <defs>
       <path d="M 10.796875 72.90625 
L 49.515625 72.90625 
L 49.515625 64.59375 
L 19.828125 64.59375 
L 19.828125 46.734375 
Q 21.96875 47.46875 24.109375 47.828125 
Q 26.265625 48.1875 28.421875 48.1875 
Q 40.625 48.1875 47.75 41.5 
Q 54.890625 34.8125 54.890625 23.390625 
Q 54.890625 11.625 47.5625 5.09375 
Q 40.234375 -1.421875 26.90625 -1.421875 
Q 22.3125 -1.421875 17.546875 -0.640625 
Q 12.796875 0.140625 7.71875 1.703125 
L 7.71875 11.625 
Q 12.109375 9.234375 16.796875 8.0625 
Q 21.484375 6.890625 26.703125 6.890625 
Q 35.15625 6.890625 40.078125 11.328125 
Q 45.015625 15.765625 45.015625 23.390625 
Q 45.015625 31 40.078125 35.4375 
Q 35.15625 39.890625 26.703125 39.890625 
Q 22.75 39.890625 18.8125 39.015625 
Q 14.890625 38.140625 10.796875 36.28125 
z
" id="BitstreamVeraSans-Roman-35"/>
      </defs>
      <g transform="translate(92.1423684375 196.017148125)scale(0.09996 -0.09996)">
       <use xlink:href="#BitstreamVeraSans-Roman-2212"/>
       <use x="83.7890625" xlink:href="#BitstreamVeraSans-Roman-35"/>
      </g>
     </g>
    </g>
    <g id="xtick_3">
     <g id="line2d_13">
      <g>
       <use style="stroke:#000000;stroke-width:0.5;" x="155.31051375" xlink:href="#m7a28e30a63" y="184.42175"/>
      </g>
     </g>
     <g id="line2d_14">
      <g>
       <use style="stroke:#000000;stroke-width:0.5;" x="155.31051375" xlink:href="#m3a8ecd9955" y="23.14175"/>
      </g>
     </g>
     <g id="text_3">
      <!-- 0 -->
      <g transform="translate(152.13053625 196.017148125)scale(0.09996 -0.09996)">
       <use xlink:href="#BitstreamVeraSans-Roman-30"/>
      </g>
     </g>
    </g>
    <g id="xtick_4">
     <g id="line2d_15">
      <g>
       <use style="stroke:#000000;stroke-width:0.5;" x="211.11051375" xlink:href="#m7a28e30a63" y="184.42175"/>
      </g>
     </g>
     <g id="line2d_16">
      <g>
       <use style="stroke:#000000;stroke-width:0.5;" x="211.11051375" xlink:href="#m3a8ecd9955" y="23.14175"/>
      </g>
     </g>
     <g id="text_4">
      <!-- 5 -->
      <g transform="translate(207.93053625 196.017148125)scale(0.09996 -0.09996)">
       <use xlink:href="#BitstreamVeraSans-Roman-35"/>
      </g>
     </g>
    </g>
    <g id="xtick_5">
     <g id="line2d_17">
      <g>
       <use style="stroke:#000000;stroke-width:0.5;" x="266.91051375" xlink:href="#m7a28e30a63" y="184.42175"/>
      </g>
     </g>
     <g id="line2d_18">
      <g>
       <use style="stroke:#000000;stroke-width:0.5;" x="266.91051375" xlink:href="#m3a8ecd9955" y="23.14175"/>
      </g>
     </g>
     <g id="text_5">
      <!-- 10 -->
      <g transform="translate(260.55055875 196.017148125)scale(0.09996 -0.09996)">
       <use xlink:href="#BitstreamVeraSans-Roman-31"/>
       <use x="63.623046875" xlink:href="#BitstreamVeraSans-Roman-30"/>
      </g>
     </g>
    </g>
    <g id="text_6">
     <!-- This is the x-axis -->
     <defs>
      <path d="M 9.421875 54.6875 
L 18.40625 54.6875 
L 18.40625 0 
L 9.421875 0 
z
M 9.421875 75.984375 
L 18.40625 75.984375 
L 18.40625 64.59375 
L 9.421875 64.59375 
z
" id="BitstreamVeraSans-Roman-69"/>
      <path d="M 34.28125 27.484375 
Q 23.390625 27.484375 19.1875 25 
Q 14.984375 22.515625 14.984375 16.5 
Q 14.984375 11.71875 18.140625 8.90625 
Q 21.296875 6.109375 26.703125 6.109375 
Q 34.1875 6.109375 38.703125 11.40625 
Q 43.21875 16.703125 43.21875 25.484375 
L 43.21875 27.484375 
z
M 52.203125 31.203125 
L 52.203125 0 
L 43.21875 0 
L 43.21875 8.296875 
Q 40.140625 3.328125 35.546875 0.953125 
Q 30.953125 -1.421875 24.3125 -1.421875 
Q 15.921875 -1.421875 10.953125 3.296875 
Q 6 8.015625 6 15.921875 
Q 6 25.140625 12.171875 29.828125 
Q 18.359375 34.515625 30.609375 34.515625 
L 43.21875 34.515625 
L 43.21875 35.40625 
Q 43.21875 41.609375 39.140625 45 
Q 35.0625 48.390625 27.6875 48.390625 
Q 23 48.390625 18.546875 47.265625 
Q 14.109375 46.140625 10.015625 43.890625 
L 10.015625 52.203125 
Q 14.9375 54.109375 19.578125 55.046875 
Q 24.21875 56 28.609375 56 
Q 40.484375 56 46.34375 49.84375 
Q 52.203125 43.703125 52.203125 31.203125 
" id="BitstreamVeraSans-Roman-61"/>
      <path d="M 18.3125 70.21875 
L 18.3125 54.6875 
L 36.8125 54.6875 
L 36.8125 47.703125 
L 18.3125 47.703125 
L 18.3125 18.015625 
Q 18.3125 11.328125 20.140625 9.421875 
Q 21.96875 7.515625 27.59375 7.515625 
L 36.8125 7.515625 
L 36.8125 0 
L 27.59375 0 
Q 17.1875 0 13.234375 3.875 
Q 9.28125 7.765625 9.28125 18.015625 
L 9.28125 47.703125 
L 2.6875 47.703125 
L 2.6875 54.6875 
L 9.28125 54.6875 
L 9.28125 70.21875 
z
" id="BitstreamVeraSans-Roman-74"/>
      <path d="M -0.296875 72.90625 
L 61.375 72.90625 
L 61.375 64.59375 
L 35.5 64.59375 
L 35.5 0 
L 25.59375 0 
L 25.59375 64.59375 
L -0.296875 64.59375 
z
" id="BitstreamVeraSans-Roman-54"/>
      <path d="M 54.890625 54.6875 
L 35.109375 28.078125 
L 55.90625 0 
L 45.3125 0 
L 29.390625 21.484375 
L 13.484375 0 
L 2.875 0 
L 24.125 28.609375 
L 4.6875 54.6875 
L 15.28125 54.6875 
L 29.78125 35.203125 
L 44.28125 54.6875 
z
" id="BitstreamVeraSans-Roman-78"/>
      <path d="M 56.203125 29.59375 
L 56.203125 25.203125 
L 14.890625 25.203125 
Q 15.484375 15.921875 20.484375 11.0625 
Q 25.484375 6.203125 34.421875 6.203125 
Q 39.59375 6.203125 44.453125 7.46875 
Q 49.3125 8.734375 54.109375 11.28125 
L 54.109375 2.78125 
Q 49.265625 0.734375 44.1875 -0.34375 
Q 39.109375 -1.421875 33.890625 -1.421875 
Q 20.796875 -1.421875 13.15625 6.1875 
Q 5.515625 13.8125 5.515625 26.8125 
Q 5.515625 40.234375 12.765625 48.109375 
Q 20.015625 56 32.328125 56 
Q 43.359375 56 49.78125 48.890625 
Q 56.203125 41.796875 56.203125 29.59375 
M 47.21875 32.234375 
Q 47.125 39.59375 43.09375 43.984375 
Q 39.0625 48.390625 32.421875 48.390625 
Q 24.90625 48.390625 20.390625 44.140625 
Q 15.875 39.890625 15.1875 32.171875 
z
" id="BitstreamVeraSans-Roman-65"/>
      <path d="M 44.28125 53.078125 
L 44.28125 44.578125 
Q 40.484375 46.53125 36.375 47.5 
Q 32.28125 48.484375 27.875 48.484375 
Q 21.1875 48.484375 17.84375 46.4375 
Q 14.5 44.390625 14.5 40.28125 
Q 14.5 37.15625 16.890625 35.375 
Q 19.28125 33.59375 26.515625 31.984375 
L 29.59375 31.296875 
Q 39.15625 29.25 43.1875 25.515625 
Q 47.21875 21.78125 47.21875 15.09375 
Q 47.21875 7.46875 41.1875 3.015625 
Q 35.15625 -1.421875 24.609375 -1.421875 
Q 20.21875 -1.421875 15.453125 -0.5625 
Q 10.6875 0.296875 5.421875 2 
L 5.421875 11.28125 
Q 10.40625 8.6875 15.234375 7.390625 
Q 20.0625 6.109375 24.8125 6.109375 
Q 31.15625 6.109375 34.5625 8.28125 
Q 37.984375 10.453125 37.984375 14.40625 
Q 37.984375 18.0625 35.515625 20.015625 
Q 33.0625 21.96875 24.703125 23.78125 
L 21.578125 24.515625 
Q 13.234375 26.265625 9.515625 29.90625 
Q 5.8125 33.546875 5.8125 39.890625 
Q 5.8125 47.609375 11.28125 51.796875 
Q 16.75 56 26.8125 56 
Q 31.78125 56 36.171875 55.265625 
Q 40.578125 54.546875 44.28125 53.078125 
" id="BitstreamVeraSans-Roman-73"/>
      <path d="M 54.890625 33.015625 
L 54.890625 0 
L 45.90625 0 
L 45.90625 32.71875 
Q 45.90625 40.484375 42.875 44.328125 
Q 39.84375 48.1875 33.796875 48.1875 
Q 26.515625 48.1875 22.3125 43.546875 
Q 18.109375 38.921875 18.109375 30.90625 
L 18.109375 0 
L 9.078125 0 
L 9.078125 75.984375 
L 18.109375 75.984375 
L 18.109375 46.1875 
Q 21.34375 51.125 25.703125 53.5625 
Q 30.078125 56 35.796875 56 
Q 45.21875 56 50.046875 50.171875 
Q 54.890625 44.34375 54.890625 33.015625 
" id="BitstreamVeraSans-Roman-68"/>
      <path id="BitstreamVeraSans-Roman-20"/>
      <path d="M 4.890625 31.390625 
L 31.203125 31.390625 
L 31.203125 23.390625 
L 4.890625 23.390625 
z
" id="BitstreamVeraSans-Roman-2d"/>
     </defs>
     <g transform="translate(104.95457625 212.21412875)scale(0.12 -0.12)">
      <use xlink:href="#BitstreamVeraSans-Roman-54"/>
      <use x="61.083984375" xlink:href="#BitstreamVeraSans-Roman-68"/>
      <use x="124.462890625" xlink:href="#BitstreamVeraSans-Roman-69"/>
      <use x="152.24609375" xlink:href="#BitstreamVeraSans-Roman-73"/>
      <use x="204.345703125" xlink:href="#BitstreamVeraSans-Roman-20"/>
      <use x="236.1328125" xlink:href="#BitstreamVeraSans-Roman-69"/>
      <use x="263.916015625" xlink:href="#BitstreamVeraSans-Roman-73"/>
      <use x="316.015625" xlink:href="#BitstreamVeraSans-Roman-20"/>
      <use x="347.802734375" xlink:href="#BitstreamVeraSans-Roman-74"/>
      <use x="387.01171875" xlink:href="#BitstreamVeraSans-Roman-68"/>
      <use x="450.390625" xlink:href="#BitstreamVeraSans-Roman-65"/>
      <use x="511.9140625" xlink:href="#BitstreamVeraSans-Roman-20"/>
      <use x="543.701171875" xlink:href="#BitstreamVeraSans-Roman-78"/>
      <use x="602.880859375" xlink:href="#BitstreamVeraSans-Roman-2d"/>
      <use x="638.96484375" xlink:href="#BitstreamVeraSans-Roman-61"/>
      <use x="700.244140625" xlink:href="#BitstreamVeraSans-Roman-78"/>
      <use x="759.423828125" xlink:href="#BitstreamVeraSans-Roman-69"/>
      <use x="787.20703125" xlink:href="#BitstreamVeraSans-Roman-73"/>
     </g>
    </g>
   </g>
   <g id="matplotlib.axis_2">
    <g id="ytick_1">
     <g id="line2d_19">
      <defs>
       <path d="M 0 0 
L 4 0 
" id="m0af8766108" style="stroke:#000000;stroke-width:0.5;"/>
      </defs>
      <g>
       <use style="stroke:#000000;stroke-width:0.5;" x="43.71051375" xlink:href="#m0af8766108" y="184.42175"/>
      </g>
     </g>
     <g id="line2d_20">
      <defs>
       <path d="M 0 0 
L -4 0 
" id="m14d842c5b9" style="stroke:#000000;stroke-width:0.5;"/>
      </defs>
      <g>
       <use style="stroke:#000000;stroke-width:0.5;" x="266.91051375" xlink:href="#m14d842c5b9" y="184.42175"/>
      </g>
     </g>
     <g id="text_7">
      <!-- 0.0 -->
      <defs>
       <path d="M 10.6875 12.40625 
L 21 12.40625 
L 21 0 
L 10.6875 0 
z
" id="BitstreamVeraSans-Roman-2e"/>
      </defs>
      <g transform="translate(23.81375 187.18002125)scale(0.09996 -0.09996)">
       <use xlink:href="#BitstreamVeraSans-Roman-30"/>
       <use x="63.623046875" xlink:href="#BitstreamVeraSans-Roman-2e"/>
       <use x="95.41015625" xlink:href="#BitstreamVeraSans-Roman-30"/>
      </g>
     </g>
    </g>
    <g id="ytick_2">
     <g id="line2d_21">
      <g>
       <use style="stroke:#000000;stroke-width:0.5;" x="43.71051375" xlink:href="#m0af8766108" y="152.16575"/>
      </g>
     </g>
     <g id="line2d_22">
      <g>
       <use style="stroke:#000000;stroke-width:0.5;" x="266.91051375" xlink:href="#m14d842c5b9" y="152.16575"/>
      </g>
     </g>
     <g id="text_8">
      <!-- 0.2 -->
      <defs>
       <path d="M 19.1875 8.296875 
L 53.609375 8.296875 
L 53.609375 0 
L 7.328125 0 
L 7.328125 8.296875 
Q 12.9375 14.109375 22.625 23.890625 
Q 32.328125 33.6875 34.8125 36.53125 
Q 39.546875 41.84375 41.421875 45.53125 
Q 43.3125 49.21875 43.3125 52.78125 
Q 43.3125 58.59375 39.234375 62.25 
Q 35.15625 65.921875 28.609375 65.921875 
Q 23.96875 65.921875 18.8125 64.3125 
Q 13.671875 62.703125 7.8125 59.421875 
L 7.8125 69.390625 
Q 13.765625 71.78125 18.9375 73 
Q 24.125 74.21875 28.421875 74.21875 
Q 39.75 74.21875 46.484375 68.546875 
Q 53.21875 62.890625 53.21875 53.421875 
Q 53.21875 48.921875 51.53125 44.890625 
Q 49.859375 40.875 45.40625 35.40625 
Q 44.1875 33.984375 37.640625 27.21875 
Q 31.109375 20.453125 19.1875 8.296875 
" id="BitstreamVeraSans-Roman-32"/>
      </defs>
      <g transform="translate(23.81375 154.92402125)scale(0.09996 -0.09996)">
       <use xlink:href="#BitstreamVeraSans-Roman-30"/>
       <use x="63.623046875" xlink:href="#BitstreamVeraSans-Roman-2e"/>
       <use x="95.41015625" xlink:href="#BitstreamVeraSans-Roman-32"/>
      </g>
     </g>
    </g>
    <g id="ytick_3">
     <g id="line2d_23">
      <g>
       <use style="stroke:#000000;stroke-width:0.5;" x="43.71051375" xlink:href="#m0af8766108" y="119.90975"/>
      </g>
     </g>
     <g id="line2d_24">
      <g>
       <use style="stroke:#000000;stroke-width:0.5;" x="266.91051375" xlink:href="#m14d842c5b9" y="119.90975"/>
      </g>
     </g>
     <g id="text_9">
      <!-- 0.4 -->
      <defs>
       <path d="M 37.796875 64.3125 
L 12.890625 25.390625 
L 37.796875 25.390625 
z
M 35.203125 72.90625 
L 47.609375 72.90625 
L 47.609375 25.390625 
L 58.015625 25.390625 
L 58.015625 17.1875 
L 47.609375 17.1875 
L 47.609375 0 
L 37.796875 0 
L 37.796875 17.1875 
L 4.890625 17.1875 
L 4.890625 26.703125 
z
" id="BitstreamVeraSans-Roman-34"/>
      </defs>
      <g transform="translate(23.81375 122.66802125)scale(0.09996 -0.09996)">
       <use xlink:href="#BitstreamVeraSans-Roman-30"/>
       <use x="63.623046875" xlink:href="#BitstreamVeraSans-Roman-2e"/>
       <use x="95.41015625" xlink:href="#BitstreamVeraSans-Roman-34"/>
      </g>
     </g>
    </g>
    <g id="ytick_4">
     <g id="line2d_25">
      <g>
       <use style="stroke:#000000;stroke-width:0.5;" x="43.71051375" xlink:href="#m0af8766108" y="87.65375"/>
      </g>
     </g>
     <g id="line2d_26">
      <g>
       <use style="stroke:#000000;stroke-width:0.5;" x="266.91051375" xlink:href="#m14d842c5b9" y="87.65375"/>
      </g>
     </g>
     <g id="text_10">
      <!-- 0.6 -->
      <defs>
       <path d="M 33.015625 40.375 
Q 26.375 40.375 22.484375 35.828125 
Q 18.609375 31.296875 18.609375 23.390625 
Q 18.609375 15.53125 22.484375 10.953125 
Q 26.375 6.390625 33.015625 6.390625 
Q 39.65625 6.390625 43.53125 10.953125 
Q 47.40625 15.53125 47.40625 23.390625 
Q 47.40625 31.296875 43.53125 35.828125 
Q 39.65625 40.375 33.015625 40.375 
M 52.59375 71.296875 
L 52.59375 62.3125 
Q 48.875 64.0625 45.09375 64.984375 
Q 41.3125 65.921875 37.59375 65.921875 
Q 27.828125 65.921875 22.671875 59.328125 
Q 17.53125 52.734375 16.796875 39.40625 
Q 19.671875 43.65625 24.015625 45.921875 
Q 28.375 48.1875 33.59375 48.1875 
Q 44.578125 48.1875 50.953125 41.515625 
Q 57.328125 34.859375 57.328125 23.390625 
Q 57.328125 12.15625 50.6875 5.359375 
Q 44.046875 -1.421875 33.015625 -1.421875 
Q 20.359375 -1.421875 13.671875 8.265625 
Q 6.984375 17.96875 6.984375 36.375 
Q 6.984375 53.65625 15.1875 63.9375 
Q 23.390625 74.21875 37.203125 74.21875 
Q 40.921875 74.21875 44.703125 73.484375 
Q 48.484375 72.75 52.59375 71.296875 
" id="BitstreamVeraSans-Roman-36"/>
      </defs>
      <g transform="translate(23.81375 90.41202125)scale(0.09996 -0.09996)">
       <use xlink:href="#BitstreamVeraSans-Roman-30"/>
       <use x="63.623046875" xlink:href="#BitstreamVeraSans-Roman-2e"/>
       <use x="95.41015625" xlink:href="#BitstreamVeraSans-Roman-36"/>
      </g>
     </g>
    </g>
    <g id="ytick_5">
     <g id="line2d_27">
      <g>
       <use style="stroke:#000000;stroke-width:0.5;" x="43.71051375" xlink:href="#m0af8766108" y="55.39775"/>
      </g>
     </g>
     <g id="line2d_28">
      <g>
       <use style="stroke:#000000;stroke-width:0.5;" x="266.91051375" xlink:href="#m14d842c5b9" y="55.39775"/>
      </g>
     </g>
     <g id="text_11">
      <!-- 0.8 -->
      <defs>
       <path d="M 31.78125 34.625 
Q 24.75 34.625 20.71875 30.859375 
Q 16.703125 27.09375 16.703125 20.515625 
Q 16.703125 13.921875 20.71875 10.15625 
Q 24.75 6.390625 31.78125 6.390625 
Q 38.8125 6.390625 42.859375 10.171875 
Q 46.921875 13.96875 46.921875 20.515625 
Q 46.921875 27.09375 42.890625 30.859375 
Q 38.875 34.625 31.78125 34.625 
M 21.921875 38.8125 
Q 15.578125 40.375 12.03125 44.71875 
Q 8.5 49.078125 8.5 55.328125 
Q 8.5 64.0625 14.71875 69.140625 
Q 20.953125 74.21875 31.78125 74.21875 
Q 42.671875 74.21875 48.875 69.140625 
Q 55.078125 64.0625 55.078125 55.328125 
Q 55.078125 49.078125 51.53125 44.71875 
Q 48 40.375 41.703125 38.8125 
Q 48.828125 37.15625 52.796875 32.3125 
Q 56.78125 27.484375 56.78125 20.515625 
Q 56.78125 9.90625 50.3125 4.234375 
Q 43.84375 -1.421875 31.78125 -1.421875 
Q 19.734375 -1.421875 13.25 4.234375 
Q 6.78125 9.90625 6.78125 20.515625 
Q 6.78125 27.484375 10.78125 32.3125 
Q 14.796875 37.15625 21.921875 38.8125 
M 18.3125 54.390625 
Q 18.3125 48.734375 21.84375 45.5625 
Q 25.390625 42.390625 31.78125 42.390625 
Q 38.140625 42.390625 41.71875 45.5625 
Q 45.3125 48.734375 45.3125 54.390625 
Q 45.3125 60.0625 41.71875 63.234375 
Q 38.140625 66.40625 31.78125 66.40625 
Q 25.390625 66.40625 21.84375 63.234375 
Q 18.3125 60.0625 18.3125 54.390625 
" id="BitstreamVeraSans-Roman-38"/>
      </defs>
      <g transform="translate(23.81375 58.15602125)scale(0.09996 -0.09996)">
       <use xlink:href="#BitstreamVeraSans-Roman-30"/>
       <use x="63.623046875" xlink:href="#BitstreamVeraSans-Roman-2e"/>
       <use x="95.41015625" xlink:href="#BitstreamVeraSans-Roman-38"/>
      </g>
     </g>
    </g>
    <g id="ytick_6">
     <g id="line2d_29">
      <g>
       <use style="stroke:#000000;stroke-width:0.5;" x="43.71051375" xlink:href="#m0af8766108" y="23.14175"/>
      </g>
     </g>
     <g id="line2d_30">
      <g>
       <use style="stroke:#000000;stroke-width:0.5;" x="266.91051375" xlink:href="#m14d842c5b9" y="23.14175"/>
      </g>
     </g>
     <g id="text_12">
      <!-- 1.0 -->
      <g transform="translate(23.81375 25.90002125)scale(0.09996 -0.09996)">
       <use xlink:href="#BitstreamVeraSans-Roman-31"/>
       <use x="63.623046875" xlink:href="#BitstreamVeraSans-Roman-2e"/>
       <use x="95.41015625" xlink:href="#BitstreamVeraSans-Roman-30"/>
      </g>
     </g>
    </g>
    <g id="text_13">
     <!-- Random but decaying values -->
     <defs>
      <path d="M 48.78125 52.59375 
L 48.78125 44.1875 
Q 44.96875 46.296875 41.140625 47.34375 
Q 37.3125 48.390625 33.40625 48.390625 
Q 24.65625 48.390625 19.8125 42.84375 
Q 14.984375 37.3125 14.984375 27.296875 
Q 14.984375 17.28125 19.8125 11.734375 
Q 24.65625 6.203125 33.40625 6.203125 
Q 37.3125 6.203125 41.140625 7.25 
Q 44.96875 8.296875 48.78125 10.40625 
L 48.78125 2.09375 
Q 45.015625 0.34375 40.984375 -0.53125 
Q 36.96875 -1.421875 32.421875 -1.421875 
Q 20.0625 -1.421875 12.78125 6.34375 
Q 5.515625 14.109375 5.515625 27.296875 
Q 5.515625 40.671875 12.859375 48.328125 
Q 20.21875 56 33.015625 56 
Q 37.15625 56 41.109375 55.140625 
Q 45.0625 54.296875 48.78125 52.59375 
" id="BitstreamVeraSans-Roman-63"/>
      <path d="M 30.609375 48.390625 
Q 23.390625 48.390625 19.1875 42.75 
Q 14.984375 37.109375 14.984375 27.296875 
Q 14.984375 17.484375 19.15625 11.84375 
Q 23.34375 6.203125 30.609375 6.203125 
Q 37.796875 6.203125 41.984375 11.859375 
Q 46.1875 17.53125 46.1875 27.296875 
Q 46.1875 37.015625 41.984375 42.703125 
Q 37.796875 48.390625 30.609375 48.390625 
M 30.609375 56 
Q 42.328125 56 49.015625 48.375 
Q 55.71875 40.765625 55.71875 27.296875 
Q 55.71875 13.875 49.015625 6.21875 
Q 42.328125 -1.421875 30.609375 -1.421875 
Q 18.84375 -1.421875 12.171875 6.21875 
Q 5.515625 13.875 5.515625 27.296875 
Q 5.515625 40.765625 12.171875 48.375 
Q 18.84375 56 30.609375 56 
" id="BitstreamVeraSans-Roman-6f"/>
      <path d="M 9.421875 75.984375 
L 18.40625 75.984375 
L 18.40625 0 
L 9.421875 0 
z
" id="BitstreamVeraSans-Roman-6c"/>
      <path d="M 45.40625 46.390625 
L 45.40625 75.984375 
L 54.390625 75.984375 
L 54.390625 0 
L 45.40625 0 
L 45.40625 8.203125 
Q 42.578125 3.328125 38.25 0.953125 
Q 33.9375 -1.421875 27.875 -1.421875 
Q 17.96875 -1.421875 11.734375 6.484375 
Q 5.515625 14.40625 5.515625 27.296875 
Q 5.515625 40.1875 11.734375 48.09375 
Q 17.96875 56 27.875 56 
Q 33.9375 56 38.25 53.625 
Q 42.578125 51.265625 45.40625 46.390625 
M 14.796875 27.296875 
Q 14.796875 17.390625 18.875 11.75 
Q 22.953125 6.109375 30.078125 6.109375 
Q 37.203125 6.109375 41.296875 11.75 
Q 45.40625 17.390625 45.40625 27.296875 
Q 45.40625 37.203125 41.296875 42.84375 
Q 37.203125 48.484375 30.078125 48.484375 
Q 22.953125 48.484375 18.875 42.84375 
Q 14.796875 37.203125 14.796875 27.296875 
" id="BitstreamVeraSans-Roman-64"/>
      <path d="M 48.6875 27.296875 
Q 48.6875 37.203125 44.609375 42.84375 
Q 40.53125 48.484375 33.40625 48.484375 
Q 26.265625 48.484375 22.1875 42.84375 
Q 18.109375 37.203125 18.109375 27.296875 
Q 18.109375 17.390625 22.1875 11.75 
Q 26.265625 6.109375 33.40625 6.109375 
Q 40.53125 6.109375 44.609375 11.75 
Q 48.6875 17.390625 48.6875 27.296875 
M 18.109375 46.390625 
Q 20.953125 51.265625 25.265625 53.625 
Q 29.59375 56 35.59375 56 
Q 45.5625 56 51.78125 48.09375 
Q 58.015625 40.1875 58.015625 27.296875 
Q 58.015625 14.40625 51.78125 6.484375 
Q 45.5625 -1.421875 35.59375 -1.421875 
Q 29.59375 -1.421875 25.265625 0.953125 
Q 20.953125 3.328125 18.109375 8.203125 
L 18.109375 0 
L 9.078125 0 
L 9.078125 75.984375 
L 18.109375 75.984375 
z
" id="BitstreamVeraSans-Roman-62"/>
      <path d="M 44.390625 34.1875 
Q 47.5625 33.109375 50.5625 29.59375 
Q 53.5625 26.078125 56.59375 19.921875 
L 66.609375 0 
L 56 0 
L 46.6875 18.703125 
Q 43.0625 26.03125 39.671875 28.421875 
Q 36.28125 30.8125 30.421875 30.8125 
L 19.671875 30.8125 
L 19.671875 0 
L 9.8125 0 
L 9.8125 72.90625 
L 32.078125 72.90625 
Q 44.578125 72.90625 50.734375 67.671875 
Q 56.890625 62.453125 56.890625 51.90625 
Q 56.890625 45.015625 53.6875 40.46875 
Q 50.484375 35.9375 44.390625 34.1875 
M 19.671875 64.796875 
L 19.671875 38.921875 
L 32.078125 38.921875 
Q 39.203125 38.921875 42.84375 42.21875 
Q 46.484375 45.515625 46.484375 51.90625 
Q 46.484375 58.296875 42.84375 61.546875 
Q 39.203125 64.796875 32.078125 64.796875 
z
" id="BitstreamVeraSans-Roman-52"/>
      <path d="M 8.5 21.578125 
L 8.5 54.6875 
L 17.484375 54.6875 
L 17.484375 21.921875 
Q 17.484375 14.15625 20.5 10.265625 
Q 23.53125 6.390625 29.59375 6.390625 
Q 36.859375 6.390625 41.078125 11.03125 
Q 45.3125 15.671875 45.3125 23.6875 
L 45.3125 54.6875 
L 54.296875 54.6875 
L 54.296875 0 
L 45.3125 0 
L 45.3125 8.40625 
Q 42.046875 3.421875 37.71875 1 
Q 33.40625 -1.421875 27.6875 -1.421875 
Q 18.265625 -1.421875 13.375 4.4375 
Q 8.5 10.296875 8.5 21.578125 
" id="BitstreamVeraSans-Roman-75"/>
      <path d="M 54.890625 33.015625 
L 54.890625 0 
L 45.90625 0 
L 45.90625 32.71875 
Q 45.90625 40.484375 42.875 44.328125 
Q 39.84375 48.1875 33.796875 48.1875 
Q 26.515625 48.1875 22.3125 43.546875 
Q 18.109375 38.921875 18.109375 30.90625 
L 18.109375 0 
L 9.078125 0 
L 9.078125 54.6875 
L 18.109375 54.6875 
L 18.109375 46.1875 
Q 21.34375 51.125 25.703125 53.5625 
Q 30.078125 56 35.796875 56 
Q 45.21875 56 50.046875 50.171875 
Q 54.890625 44.34375 54.890625 33.015625 
" id="BitstreamVeraSans-Roman-6e"/>
      <path d="M 45.40625 27.984375 
Q 45.40625 37.75 41.375 43.109375 
Q 37.359375 48.484375 30.078125 48.484375 
Q 22.859375 48.484375 18.828125 43.109375 
Q 14.796875 37.75 14.796875 27.984375 
Q 14.796875 18.265625 18.828125 12.890625 
Q 22.859375 7.515625 30.078125 7.515625 
Q 37.359375 7.515625 41.375 12.890625 
Q 45.40625 18.265625 45.40625 27.984375 
M 54.390625 6.78125 
Q 54.390625 -7.171875 48.1875 -13.984375 
Q 42 -20.796875 29.203125 -20.796875 
Q 24.46875 -20.796875 20.265625 -20.09375 
Q 16.0625 -19.390625 12.109375 -17.921875 
L 12.109375 -9.1875 
Q 16.0625 -11.328125 19.921875 -12.34375 
Q 23.78125 -13.375 27.78125 -13.375 
Q 36.625 -13.375 41.015625 -8.765625 
Q 45.40625 -4.15625 45.40625 5.171875 
L 45.40625 9.625 
Q 42.625 4.78125 38.28125 2.390625 
Q 33.9375 0 27.875 0 
Q 17.828125 0 11.671875 7.65625 
Q 5.515625 15.328125 5.515625 27.984375 
Q 5.515625 40.671875 11.671875 48.328125 
Q 17.828125 56 27.875 56 
Q 33.9375 56 38.28125 53.609375 
Q 42.625 51.21875 45.40625 46.390625 
L 45.40625 54.6875 
L 54.390625 54.6875 
z
" id="BitstreamVeraSans-Roman-67"/>
      <path d="M 52 44.1875 
Q 55.375 50.25 60.0625 53.125 
Q 64.75 56 71.09375 56 
Q 79.640625 56 84.28125 50.015625 
Q 88.921875 44.046875 88.921875 33.015625 
L 88.921875 0 
L 79.890625 0 
L 79.890625 32.71875 
Q 79.890625 40.578125 77.09375 44.375 
Q 74.3125 48.1875 68.609375 48.1875 
Q 61.625 48.1875 57.5625 43.546875 
Q 53.515625 38.921875 53.515625 30.90625 
L 53.515625 0 
L 44.484375 0 
L 44.484375 32.71875 
Q 44.484375 40.625 41.703125 44.40625 
Q 38.921875 48.1875 33.109375 48.1875 
Q 26.21875 48.1875 22.15625 43.53125 
Q 18.109375 38.875 18.109375 30.90625 
L 18.109375 0 
L 9.078125 0 
L 9.078125 54.6875 
L 18.109375 54.6875 
L 18.109375 46.1875 
Q 21.1875 51.21875 25.484375 53.609375 
Q 29.78125 56 35.6875 56 
Q 41.65625 56 45.828125 52.96875 
Q 50 49.953125 52 44.1875 
" id="BitstreamVeraSans-Roman-6d"/>
      <path d="M 2.984375 54.6875 
L 12.5 54.6875 
L 29.59375 8.796875 
L 46.6875 54.6875 
L 56.203125 54.6875 
L 35.6875 0 
L 23.484375 0 
z
" id="BitstreamVeraSans-Roman-76"/>
      <path d="M 32.171875 -5.078125 
Q 28.375 -14.84375 24.75 -17.8125 
Q 21.140625 -20.796875 15.09375 -20.796875 
L 7.90625 -20.796875 
L 7.90625 -13.28125 
L 13.1875 -13.28125 
Q 16.890625 -13.28125 18.9375 -11.515625 
Q 21 -9.765625 23.484375 -3.21875 
L 25.09375 0.875 
L 2.984375 54.6875 
L 12.5 54.6875 
L 29.59375 11.921875 
L 46.6875 54.6875 
L 56.203125 54.6875 
z
" id="BitstreamVeraSans-Roman-79"/>
     </defs>
     <g transform="translate(16.318125 191.2589375)rotate(-90.0)scale(0.12 -0.12)">
      <use xlink:href="#BitstreamVeraSans-Roman-52"/>
      <use x="69.451171875" xlink:href="#BitstreamVeraSans-Roman-61"/>
      <use x="130.73046875" xlink:href="#BitstreamVeraSans-Roman-6e"/>
      <use x="194.109375" xlink:href="#BitstreamVeraSans-Roman-64"/>
      <use x="257.5859375" xlink:href="#BitstreamVeraSans-Roman-6f"/>
      <use x="318.767578125" xlink:href="#BitstreamVeraSans-Roman-6d"/>
      <use x="416.1796875" xlink:href="#BitstreamVeraSans-Roman-20"/>
      <use x="447.966796875" xlink:href="#BitstreamVeraSans-Roman-62"/>
      <use x="511.443359375" xlink:href="#BitstreamVeraSans-Roman-75"/>
      <use x="574.822265625" xlink:href="#BitstreamVeraSans-Roman-74"/>
      <use x="614.03125" xlink:href="#BitstreamVeraSans-Roman-20"/>
      <use x="645.818359375" xlink:href="#BitstreamVeraSans-Roman-64"/>
      <use x="709.294921875" xlink:href="#BitstreamVeraSans-Roman-65"/>
      <use x="770.818359375" xlink:href="#BitstreamVeraSans-Roman-63"/>
      <use x="825.798828125" xlink:href="#BitstreamVeraSans-Roman-61"/>
      <use x="887.078125" xlink:href="#BitstreamVeraSans-Roman-79"/>
      <use x="946.2578125" xlink:href="#BitstreamVeraSans-Roman-69"/>
      <use x="974.041015625" xlink:href="#BitstreamVeraSans-Roman-6e"/>
      <use x="1037.419921875" xlink:href="#BitstreamVeraSans-Roman-67"/>
      <use x="1100.896484375" xlink:href="#BitstreamVeraSans-Roman-20"/>
      <use x="1132.68359375" xlink:href="#BitstreamVeraSans-Roman-76"/>
      <use x="1191.86328125" xlink:href="#BitstreamVeraSans-Roman-61"/>
      <use x="1253.142578125" xlink:href="#BitstreamVeraSans-Roman-6c"/>
      <use x="1280.92578125" xlink:href="#BitstreamVeraSans-Roman-75"/>
      <use x="1344.3046875" xlink:href="#BitstreamVeraSans-Roman-65"/>
      <use x="1405.828125" xlink:href="#BitstreamVeraSans-Roman-73"/>
     </g>
    </g>
   </g>
   <g id="text_14">
    <!-- Diverging Datasets -->
    <defs>
     <path d="M 41.109375 46.296875 
Q 39.59375 47.171875 37.8125 47.578125 
Q 36.03125 48 33.890625 48 
Q 26.265625 48 22.1875 43.046875 
Q 18.109375 38.09375 18.109375 28.8125 
L 18.109375 0 
L 9.078125 0 
L 9.078125 54.6875 
L 18.109375 54.6875 
L 18.109375 46.1875 
Q 20.953125 51.171875 25.484375 53.578125 
Q 30.03125 56 36.53125 56 
Q 37.453125 56 38.578125 55.875 
Q 39.703125 55.765625 41.0625 55.515625 
z
" id="BitstreamVeraSans-Roman-72"/>
     <path d="M 19.671875 64.796875 
L 19.671875 8.109375 
L 31.59375 8.109375 
Q 46.6875 8.109375 53.6875 14.9375 
Q 60.6875 21.78125 60.6875 36.53125 
Q 60.6875 51.171875 53.6875 57.984375 
Q 46.6875 64.796875 31.59375 64.796875 
z
M 9.8125 72.90625 
L 30.078125 72.90625 
Q 51.265625 72.90625 61.171875 64.09375 
Q 71.09375 55.28125 71.09375 36.53125 
Q 71.09375 17.671875 61.125 8.828125 
Q 51.171875 0 30.078125 0 
L 9.8125 0 
z
" id="BitstreamVeraSans-Roman-44"/>
    </defs>
    <g transform="translate(86.17701375 18.14175)scale(0.144 -0.144)">
     <use xlink:href="#BitstreamVeraSans-Roman-44"/>
     <use x="77.001953125" xlink:href="#BitstreamVeraSans-Roman-69"/>
     <use x="104.78515625" xlink:href="#BitstreamVeraSans-Roman-76"/>
     <use x="163.96484375" xlink:href="#BitstreamVeraSans-Roman-65"/>
     <use x="225.48828125" xlink:href="#BitstreamVeraSans-Roman-72"/>
     <use x="266.5859375" xlink:href="#BitstreamVeraSans-Roman-67"/>
     <use x="330.0625" xlink:href="#BitstreamVeraSans-Roman-69"/>
     <use x="357.845703125" xlink:href="#BitstreamVeraSans-Roman-6e"/>
     <use x="421.224609375" xlink:href="#BitstreamVeraSans-Roman-67"/>
     <use x="484.701171875" xlink:href="#BitstreamVeraSans-Roman-20"/>
     <use x="516.48828125" xlink:href="#BitstreamVeraSans-Roman-44"/>
     <use x="593.490234375" xlink:href="#BitstreamVeraSans-Roman-61"/>
     <use x="654.76953125" xlink:href="#BitstreamVeraSans-Roman-74"/>
     <use x="693.978515625" xlink:href="#BitstreamVeraSans-Roman-61"/>
     <use x="755.2578125" xlink:href="#BitstreamVeraSans-Roman-73"/>
     <use x="807.357421875" xlink:href="#BitstreamVeraSans-Roman-65"/>
     <use x="868.880859375" xlink:href="#BitstreamVeraSans-Roman-74"/>
     <use x="908.08984375" xlink:href="#BitstreamVeraSans-Roman-73"/>
    </g>
   </g>
   <g id="legend_1">
    <g id="patch_7">
     <path d="M 48.568514 180.95175 
L 94.417624 180.95175 
Q 95.805624 180.95175 95.805624 179.56375 
L 95.805624 88.01821 
Q 95.805624 86.63021 94.417624 86.63021 
L 48.568514 86.63021 
Q 47.180514 86.63021 47.180514 88.01821 
L 47.180514 179.56375 
Q 47.180514 180.95175 48.568514 180.95175 
z
" style="fill:#ffffff;opacity:0.8;stroke:#000000;stroke-linejoin:miter;stroke-width:0.5;"/>
    </g>
    <g id="line2d_31">
     <path d="M 52.038514 93.305189 
L 61.754514 93.305189 
" style="fill:none;stroke:#4daf4a;stroke-linecap:square;stroke-width:2.0;"/>
    </g>
    <g id="line2d_32"/>
    <g id="text_15">
     <!-- Plot 1 -->
     <defs>
      <path d="M 19.671875 64.796875 
L 19.671875 37.40625 
L 32.078125 37.40625 
Q 38.96875 37.40625 42.71875 40.96875 
Q 46.484375 44.53125 46.484375 51.125 
Q 46.484375 57.671875 42.71875 61.234375 
Q 38.96875 64.796875 32.078125 64.796875 
z
M 9.8125 72.90625 
L 32.078125 72.90625 
Q 44.34375 72.90625 50.609375 67.359375 
Q 56.890625 61.8125 56.890625 51.125 
Q 56.890625 40.328125 50.609375 34.8125 
Q 44.34375 29.296875 32.078125 29.296875 
L 19.671875 29.296875 
L 19.671875 0 
L 9.8125 0 
z
" id="BitstreamVeraSans-Roman-50"/>
     </defs>
     <g transform="translate(69.38851375 95.73418875)scale(0.08327999999999999 -0.08327999999999999)">
      <use xlink:href="#BitstreamVeraSans-Roman-50"/>
      <use x="60.302734375" xlink:href="#BitstreamVeraSans-Roman-6c"/>
      <use x="88.0859375" xlink:href="#BitstreamVeraSans-Roman-6f"/>
      <use x="149.267578125" xlink:href="#BitstreamVeraSans-Roman-74"/>
      <use x="188.4765625" xlink:href="#BitstreamVeraSans-Roman-20"/>
      <use x="220.263671875" xlink:href="#BitstreamVeraSans-Roman-31"/>
     </g>
    </g>
    <g id="line2d_33">
     <path d="M 52.038514 104.835131 
L 61.754514 104.835131 
" style="fill:none;stroke:#419388;stroke-linecap:square;stroke-width:2.0;"/>
    </g>
    <g id="line2d_34"/>
    <g id="text_16">
     <!-- Plot 2 -->
     <g transform="translate(69.38851375 107.26413125)scale(0.08327999999999999 -0.08327999999999999)">
      <use xlink:href="#BitstreamVeraSans-Roman-50"/>
      <use x="60.302734375" xlink:href="#BitstreamVeraSans-Roman-6c"/>
      <use x="88.0859375" xlink:href="#BitstreamVeraSans-Roman-6f"/>
      <use x="149.267578125" xlink:href="#BitstreamVeraSans-Roman-74"/>
      <use x="188.4765625" xlink:href="#BitstreamVeraSans-Roman-20"/>
      <use x="220.263671875" xlink:href="#BitstreamVeraSans-Roman-32"/>
     </g>
    </g>
    <g id="line2d_35">
     <path d="M 52.038514 116.365074 
L 61.754514 116.365074 
" style="fill:none;stroke:#4577b5;stroke-linecap:square;stroke-width:2.0;"/>
    </g>
    <g id="line2d_36"/>
    <g id="text_17">
     <!-- Plot 3 -->
     <defs>
      <path d="M 40.578125 39.3125 
Q 47.65625 37.796875 51.625 33 
Q 55.609375 28.21875 55.609375 21.1875 
Q 55.609375 10.40625 48.1875 4.484375 
Q 40.765625 -1.421875 27.09375 -1.421875 
Q 22.515625 -1.421875 17.65625 -0.515625 
Q 12.796875 0.390625 7.625 2.203125 
L 7.625 11.71875 
Q 11.71875 9.328125 16.59375 8.109375 
Q 21.484375 6.890625 26.8125 6.890625 
Q 36.078125 6.890625 40.9375 10.546875 
Q 45.796875 14.203125 45.796875 21.1875 
Q 45.796875 27.640625 41.28125 31.265625 
Q 36.765625 34.90625 28.71875 34.90625 
L 20.21875 34.90625 
L 20.21875 43.015625 
L 29.109375 43.015625 
Q 36.375 43.015625 40.234375 45.921875 
Q 44.09375 48.828125 44.09375 54.296875 
Q 44.09375 59.90625 40.109375 62.90625 
Q 36.140625 65.921875 28.71875 65.921875 
Q 24.65625 65.921875 20.015625 65.03125 
Q 15.375 64.15625 9.8125 62.3125 
L 9.8125 71.09375 
Q 15.4375 72.65625 20.34375 73.4375 
Q 25.25 74.21875 29.59375 74.21875 
Q 40.828125 74.21875 47.359375 69.109375 
Q 53.90625 64.015625 53.90625 55.328125 
Q 53.90625 49.265625 50.4375 45.09375 
Q 46.96875 40.921875 40.578125 39.3125 
" id="BitstreamVeraSans-Roman-33"/>
     </defs>
     <g transform="translate(69.38851375 118.79407375)scale(0.08327999999999999 -0.08327999999999999)">
      <use xlink:href="#BitstreamVeraSans-Roman-50"/>
      <use x="60.302734375" xlink:href="#BitstreamVeraSans-Roman-6c"/>
      <use x="88.0859375" xlink:href="#BitstreamVeraSans-Roman-6f"/>
      <use x="149.267578125" xlink:href="#BitstreamVeraSans-Roman-74"/>
      <use x="188.4765625" xlink:href="#BitstreamVeraSans-Roman-20"/>
      <use x="220.263671875" xlink:href="#BitstreamVeraSans-Roman-33"/>
     </g>
    </g>
    <g id="line2d_37">
     <path d="M 52.038514 127.895016 
L 61.754514 127.895016 
" style="fill:none;stroke:#7c5ca9;stroke-linecap:square;stroke-width:2.0;"/>
    </g>
    <g id="line2d_38"/>
    <g id="text_18">
     <!-- Plot 4 -->
     <g transform="translate(69.38851375 130.32401625)scale(0.08327999999999999 -0.08327999999999999)">
      <use xlink:href="#BitstreamVeraSans-Roman-50"/>
      <use x="60.302734375" xlink:href="#BitstreamVeraSans-Roman-6c"/>
      <use x="88.0859375" xlink:href="#BitstreamVeraSans-Roman-6f"/>
      <use x="149.267578125" xlink:href="#BitstreamVeraSans-Roman-74"/>
      <use x="188.4765625" xlink:href="#BitstreamVeraSans-Roman-20"/>
      <use x="220.263671875" xlink:href="#BitstreamVeraSans-Roman-34"/>
     </g>
    </g>
    <g id="line2d_39">
     <path d="M 52.038514 139.424959 
L 61.754514 139.424959 
" style="fill:none;stroke:#ae3f7c;stroke-linecap:square;stroke-width:2.0;"/>
    </g>
    <g id="line2d_40"/>
    <g id="text_19">
     <!-- Plot 5 -->
     <g transform="translate(69.38851375 141.85395875)scale(0.08327999999999999 -0.08327999999999999)">
      <use xlink:href="#BitstreamVeraSans-Roman-50"/>
      <use x="60.302734375" xlink:href="#BitstreamVeraSans-Roman-6c"/>
      <use x="88.0859375" xlink:href="#BitstreamVeraSans-Roman-6f"/>
      <use x="149.267578125" xlink:href="#BitstreamVeraSans-Roman-74"/>
      <use x="188.4765625" xlink:href="#BitstreamVeraSans-Roman-20"/>
      <use x="220.263671875" xlink:href="#BitstreamVeraSans-Roman-35"/>
     </g>
    </g>
    <g id="line2d_41">
     <path d="M 52.038514 150.954901 
L 61.754514 150.954901 
" style="fill:none;stroke:#d92230;stroke-linecap:square;stroke-width:2.0;"/>
    </g>
    <g id="line2d_42"/>
    <g id="text_20">
     <!-- Plot 6 -->
     <g transform="translate(69.38851375 153.38390125)scale(0.08327999999999999 -0.08327999999999999)">
      <use xlink:href="#BitstreamVeraSans-Roman-50"/>
      <use x="60.302734375" xlink:href="#BitstreamVeraSans-Roman-6c"/>
      <use x="88.0859375" xlink:href="#BitstreamVeraSans-Roman-6f"/>
      <use x="149.267578125" xlink:href="#BitstreamVeraSans-Roman-74"/>
      <use x="188.4765625" xlink:href="#BitstreamVeraSans-Roman-20"/>
      <use x="220.263671875" xlink:href="#BitstreamVeraSans-Roman-36"/>
     </g>
    </g>
    <g id="line2d_43">
     <path d="M 52.038514 162.484844 
L 61.754514 162.484844 
" style="fill:none;stroke:#f04610;stroke-linecap:square;stroke-width:2.0;"/>
    </g>
    <g id="line2d_44"/>
    <g id="text_21">
     <!-- Plot 7 -->
     <defs>
      <path d="M 8.203125 72.90625 
L 55.078125 72.90625 
L 55.078125 68.703125 
L 28.609375 0 
L 18.3125 0 
L 43.21875 64.59375 
L 8.203125 64.59375 
z
" id="BitstreamVeraSans-Roman-37"/>
     </defs>
     <g transform="translate(69.38851375 164.91384375)scale(0.08327999999999999 -0.08327999999999999)">
      <use xlink:href="#BitstreamVeraSans-Roman-50"/>
      <use x="60.302734375" xlink:href="#BitstreamVeraSans-Roman-6c"/>
      <use x="88.0859375" xlink:href="#BitstreamVeraSans-Roman-6f"/>
      <use x="149.267578125" xlink:href="#BitstreamVeraSans-Roman-74"/>
      <use x="188.4765625" xlink:href="#BitstreamVeraSans-Roman-20"/>
      <use x="220.263671875" xlink:href="#BitstreamVeraSans-Roman-37"/>
     </g>
    </g>
    <g id="line2d_45">
     <path d="M 52.038514 174.014786 
L 61.754514 174.014786 
" style="fill:none;stroke:#ff7f00;stroke-linecap:square;stroke-width:2.0;"/>
    </g>
    <g id="line2d_46"/>
    <g id="text_22">
     <!-- Plot 8 -->
     <g transform="translate(69.38851375 176.44378625)scale(0.08327999999999999 -0.08327999999999999)">
      <use xlink:href="#BitstreamVeraSans-Roman-50"/>
      <use x="60.302734375" xlink:href="#BitstreamVeraSans-Roman-6c"/>
      <use x="88.0859375" xlink:href="#BitstreamVeraSans-Roman-6f"/>
      <use x="149.267578125" xlink:href="#BitstreamVeraSans-Roman-74"/>
      <use x="188.4765625" xlink:href="#BitstreamVeraSans-Roman-20"/>
      <use x="220.263671875" xlink:href="#BitstreamVeraSans-Roman-38"/>
     </g>
    </g>
   </g>
  </g>
 </g>
 <defs>
  <clipPath id="pe6e728cb77">
   <rect height="161.28" width="223.2" x="43.71051375" y="23.14175"/>
  </clipPath>
 </defs>
</svg>
