<?xml version="1.0" encoding="utf-8" standalone="no"?>
<!DOCTYPE svg PUBLIC "-//W3C//DTD SVG 1.1//EN"
  "http://www.w3.org/Graphics/SVG/1.1/DTD/svg11.dtd">
<!-- Created with matplotlib (http://matplotlib.org/) -->
<svg height="355pt" version="1.1" viewBox="0 0 510 355" width="510pt" xmlns="http://www.w3.org/2000/svg" xmlns:xlink="http://www.w3.org/1999/xlink">
 <defs>
  <style type="text/css">
*{stroke-linecap:butt;stroke-linejoin:round;stroke-miterlimit:100000;}
  </style>
 </defs>
 <g id="figure_1">
  <g id="patch_1">
   <path d="M 0 355.08035 
L 510.45525 355.08035 
L 510.45525 0 
L 0 0 
z
" style="fill:#ffffff;"/>
  </g>
  <g id="axes_1">
   <g id="patch_2">
    <path d="M 49.22025 313.3301 
L 495.62025 313.3301 
L 495.62025 25.3301 
L 49.22025 25.3301 
z
" style="fill:#ffffff;"/>
   </g>
   <g id="line2d_1">
    <path clip-path="url(#p9c1bf9d18f)" d="M 49.22025 26.259279 
L 50.713227 26.592856 
L 52.206203 26.758333 
L 53.69918 26.599771 
L 55.192156 27.066996 
L 56.685133 27.081259 
L 58.17811 27.440654 
L 59.671086 30.130911 
L 61.164063 26.991252 
L 62.657039 27.846409 
L 64.150016 28.447525 
L 65.642992 27.786594 
L 67.135969 27.956863 
L 68.628946 28.550105 
L 70.121922 28.817653 
L 71.614899 28.668668 
L 73.107875 31.133473 
L 74.600852 30.273618 
L 76.093829 28.754859 
L 77.586805 29.454335 
L 79.079782 34.085715 
L 80.572758 32.71446 
L 82.065735 35.618877 
L 83.558712 37.015988 
L 85.051688 35.694674 
L 86.544665 35.123083 
L 88.037641 37.976514 
L 89.530618 38.712042 
L 91.023594 33.952836 
L 92.516571 36.484169 
L 94.009548 47.454524 
L 95.502524 39.198121 
L 96.995501 45.824871 
L 98.488477 38.343491 
L 99.981454 47.435996 
L 101.474431 44.133707 
L 102.967407 41.536641 
L 104.460384 49.731252 
L 105.95336 39.995682 
L 107.446337 50.510008 
L 108.939314 44.753126 
L 110.43229 52.606783 
L 111.925267 61.933285 
L 113.418243 61.342893 
L 114.91122 59.083 
L 116.404196 75.019966 
L 117.897173 60.929448 
L 119.39015 72.397922 
L 120.883126 74.083293 
L 122.376103 91.370428 
L 123.869079 85.84442 
L 125.362056 74.589498 
L 126.855033 81.063128 
L 128.348009 67.068821 
L 129.840986 92.43105 
L 131.333962 99.504584 
L 132.826939 102.603042 
L 134.319916 125.402792 
L 135.812892 97.012393 
L 137.305869 106.154776 
L 138.798845 107.007565 
L 140.291822 103.600805 
L 141.784798 96.465942 
L 143.277775 132.945844 
L 144.770752 134.716358 
L 146.263728 105.175828 
L 147.756705 139.010357 
L 149.249681 139.422375 
L 150.742658 186.746283 
L 152.235635 176.872345 
L 153.728611 213.608448 
L 155.221588 151.838593 
L 156.714564 207.591985 
L 158.207541 214.670063 
L 159.700518 212.421915 
L 161.193494 183.971132 
L 162.686471 264.935508 
L 164.179447 217.827195 
L 165.672424 250.075589 
L 167.165401 255.478514 
L 168.658377 258.907999 
L 170.151354 245.547743 
L 171.64433 292.133131 
L 173.137307 301.211377 
L 174.630283 305.956476 
L 176.12326 275.10404 
L 177.616237 276.891977 
L 179.109213 276.551986 
L 180.60219 308.090184 
L 182.095166 301.618371 
L 183.588143 289.925794 
L 185.08112 305.108729 
L 186.574096 304.259081 
L 188.067073 311.461408 
L 189.560049 306.657387 
L 191.053026 309.281926 
L 192.546003 313.212674 
L 194.038979 311.948461 
L 195.531956 313.320547 
L 197.024932 312.840953 
L 198.517909 313.2313 
L 200.010885 312.663752 
L 201.503862 311.887042 
L 202.996839 313.27137 
L 204.489815 312.269062 
L 205.982792 312.228178 
L 207.475768 313.263719 
L 211.954698 313.329364 
L 213.447675 312.440979 
L 214.940651 313.327741 
L 286.603528 313.3301 
L 495.62025 313.3301 
L 495.62025 313.3301 
" style="fill:none;stroke:#4daf4a;stroke-linecap:square;stroke-width:2.0;"/>
   </g>
   <g id="line2d_2">
    <path clip-path="url(#p9c1bf9d18f)" d="M 49.22025 25.615314 
L 50.713227 25.655287 
L 52.206203 25.664701 
L 56.685133 25.629699 
L 59.671086 25.766293 
L 61.164063 25.856619 
L 64.150016 25.790612 
L 65.642992 26.285514 
L 67.135969 26.106235 
L 68.628946 25.741699 
L 71.614899 25.857468 
L 73.107875 26.194153 
L 76.093829 26.168089 
L 77.586805 26.62816 
L 79.079782 26.024392 
L 80.572758 25.961081 
L 83.558712 26.707355 
L 85.051688 26.892269 
L 86.544665 27.583447 
L 88.037641 26.71335 
L 89.530618 27.011281 
L 91.023594 27.989869 
L 92.516571 27.287609 
L 94.009548 27.674817 
L 95.502524 26.944656 
L 96.995501 26.952069 
L 98.488477 27.32291 
L 99.981454 28.715825 
L 101.474431 28.664176 
L 102.967407 27.869982 
L 104.460384 28.306855 
L 105.95336 29.616819 
L 107.446337 28.677512 
L 108.939314 29.342907 
L 110.43229 31.929714 
L 111.925267 29.115172 
L 113.418243 31.603415 
L 114.91122 32.354971 
L 116.404196 28.558715 
L 117.897173 30.025908 
L 119.39015 34.219902 
L 120.883126 31.330471 
L 122.376103 30.731482 
L 123.869079 32.529144 
L 125.362056 30.067951 
L 126.855033 32.317274 
L 128.348009 34.850591 
L 129.840986 35.555474 
L 132.826939 36.531318 
L 134.319916 36.805006 
L 135.812892 35.152889 
L 137.305869 38.755276 
L 138.798845 46.336033 
L 140.291822 43.945323 
L 141.784798 43.986416 
L 143.277775 48.710492 
L 144.770752 46.772228 
L 146.263728 38.845957 
L 147.756705 49.920663 
L 149.249681 47.017185 
L 150.742658 51.663647 
L 152.235635 77.440496 
L 153.728611 69.272976 
L 155.221588 68.354679 
L 156.714564 59.96998 
L 158.207541 49.60833 
L 159.700518 75.430852 
L 161.193494 68.195494 
L 162.686471 73.010521 
L 164.179447 66.402573 
L 165.672424 109.191007 
L 167.165401 98.701909 
L 168.658377 110.142386 
L 170.151354 108.847358 
L 171.64433 68.415659 
L 173.137307 82.085645 
L 174.630283 124.748296 
L 176.12326 84.5429 
L 177.616237 77.430271 
L 179.109213 114.344772 
L 180.60219 159.180596 
L 182.095166 187.698612 
L 183.588143 172.228535 
L 186.574096 130.110885 
L 188.067073 114.382515 
L 189.560049 129.244802 
L 191.053026 139.269964 
L 192.546003 110.783194 
L 194.038979 166.81314 
L 195.531956 151.730752 
L 197.024932 191.448582 
L 198.517909 164.772428 
L 201.503862 223.739979 
L 202.996839 199.379318 
L 204.489815 198.804419 
L 205.982792 204.592858 
L 207.475768 198.452583 
L 208.968745 192.981355 
L 210.461722 236.67638 
L 211.954698 208.626469 
L 213.447675 270.397722 
L 214.940651 241.186477 
L 216.433628 286.863808 
L 217.926605 262.536408 
L 219.419581 242.146995 
L 220.912558 275.281037 
L 222.405534 271.835101 
L 223.898511 284.452302 
L 225.391487 299.017447 
L 226.884464 302.725737 
L 228.377441 302.768624 
L 229.870417 297.022684 
L 231.363394 284.00406 
L 232.85637 286.315694 
L 234.349347 312.606149 
L 235.842324 295.315605 
L 237.3353 309.731915 
L 238.828277 302.449577 
L 240.321253 306.237694 
L 241.81423 306.401377 
L 243.307207 312.889296 
L 244.800183 307.363072 
L 246.29316 312.587447 
L 247.786136 313.256242 
L 249.279113 313.078947 
L 250.772089 313.131634 
L 253.758043 312.500027 
L 255.251019 313.32855 
L 256.743996 313.267996 
L 259.729949 313.295297 
L 265.701855 313.3301 
L 495.62025 313.3301 
L 495.62025 313.3301 
" style="fill:none;stroke:#419388;stroke-linecap:square;stroke-width:2.0;"/>
   </g>
   <g id="line2d_3">
    <path clip-path="url(#p9c1bf9d18f)" d="M 49.22025 25.376512 
L 50.713227 25.432879 
L 52.206203 25.408124 
L 62.657039 25.444378 
L 65.642992 25.426704 
L 71.614899 25.51272 
L 76.093829 25.450382 
L 82.065735 25.683783 
L 83.558712 25.724938 
L 85.051688 25.554012 
L 86.544665 25.788052 
L 88.037641 25.537803 
L 89.530618 25.731402 
L 91.023594 25.571265 
L 92.516571 25.595906 
L 94.009548 25.911818 
L 95.502524 25.648143 
L 96.995501 25.72707 
L 98.488477 25.589514 
L 99.981454 26.131962 
L 101.474431 25.691878 
L 105.95336 25.775005 
L 107.446337 26.174943 
L 110.43229 25.92821 
L 111.925267 26.476641 
L 113.418243 26.655524 
L 114.91122 26.483068 
L 116.404196 26.181823 
L 119.39015 26.098234 
L 120.883126 28.609787 
L 122.376103 25.976565 
L 123.869079 27.284343 
L 125.362056 27.431613 
L 126.855033 27.943209 
L 128.348009 28.13531 
L 129.840986 27.343256 
L 131.333962 27.012548 
L 132.826939 27.344728 
L 134.319916 28.423347 
L 135.812892 27.481034 
L 137.305869 28.355907 
L 138.798845 28.488403 
L 140.291822 28.362284 
L 141.784798 28.533418 
L 143.277775 28.155501 
L 144.770752 26.369796 
L 146.263728 28.969512 
L 147.756705 27.583633 
L 149.249681 31.21997 
L 150.742658 30.983134 
L 152.235635 29.559102 
L 153.728611 35.997968 
L 155.221588 28.602338 
L 156.714564 32.835013 
L 158.207541 35.036225 
L 159.700518 33.346678 
L 161.193494 33.063117 
L 162.686471 40.309984 
L 164.179447 31.964386 
L 165.672424 30.714506 
L 167.165401 39.106544 
L 168.658377 37.158326 
L 170.151354 37.705072 
L 171.64433 42.236171 
L 173.137307 33.511086 
L 174.630283 44.094373 
L 176.12326 48.633132 
L 177.616237 38.099391 
L 179.109213 41.410427 
L 180.60219 47.619575 
L 182.095166 42.787067 
L 183.588143 38.456486 
L 185.08112 43.14522 
L 186.574096 35.746662 
L 188.067073 52.132809 
L 189.560049 46.090466 
L 191.053026 43.747137 
L 192.546003 60.03428 
L 194.038979 70.803193 
L 195.531956 60.937777 
L 197.024932 56.924722 
L 198.517909 57.640426 
L 200.010885 50.835835 
L 201.503862 76.121503 
L 202.996839 64.241878 
L 204.489815 64.334139 
L 205.982792 74.102677 
L 207.475768 67.558498 
L 208.968745 92.259766 
L 210.461722 72.673014 
L 211.954698 90.444203 
L 213.447675 112.846561 
L 214.940651 88.659341 
L 216.433628 103.392571 
L 217.926605 149.603069 
L 219.419581 107.975204 
L 220.912558 91.313942 
L 222.405534 134.773962 
L 223.898511 136.132423 
L 225.391487 158.912065 
L 226.884464 165.32326 
L 228.377441 145.766386 
L 229.870417 190.805076 
L 231.363394 210.389178 
L 232.85637 185.169947 
L 234.349347 163.832826 
L 235.842324 171.214779 
L 237.3353 175.157436 
L 238.828277 182.679687 
L 240.321253 246.837217 
L 241.81423 171.357908 
L 243.307207 197.360971 
L 244.800183 244.467372 
L 246.29316 247.166686 
L 247.786136 245.596945 
L 249.279113 224.363231 
L 250.772089 247.332917 
L 252.265066 276.735445 
L 253.758043 279.792284 
L 255.251019 286.962986 
L 256.743996 272.234906 
L 258.236972 271.249775 
L 259.729949 280.287637 
L 261.222926 269.572704 
L 262.715902 268.510277 
L 264.208879 292.625739 
L 265.701855 295.976367 
L 267.194832 299.609666 
L 268.687809 313.237261 
L 270.180785 309.325548 
L 271.673762 308.956673 
L 273.166738 312.253556 
L 274.659715 312.862913 
L 276.152691 308.584975 
L 277.645668 310.031489 
L 279.138645 312.476751 
L 280.631621 305.501112 
L 282.124598 313.328033 
L 283.617574 313.142837 
L 285.110551 313.328663 
L 286.603528 313.123596 
L 288.096504 312.261639 
L 289.589481 313.301027 
L 307.5052 313.3301 
L 495.62025 313.3301 
L 495.62025 313.3301 
" style="fill:none;stroke:#4577b5;stroke-linecap:square;stroke-width:2.0;"/>
   </g>
   <g id="line2d_4">
    <path clip-path="url(#p9c1bf9d18f)" d="M 49.22025 25.345473 
L 65.642992 25.354603 
L 80.572758 25.38394 
L 88.037641 25.394465 
L 91.023594 25.458153 
L 92.516571 25.386899 
L 95.502524 25.465358 
L 98.488477 25.426862 
L 107.446337 25.490274 
L 110.43229 25.552458 
L 111.925267 25.440156 
L 116.404196 25.622571 
L 117.897173 25.481225 
L 119.39015 25.799386 
L 120.883126 25.577026 
L 123.869079 25.580951 
L 126.855033 25.724884 
L 131.333962 25.976813 
L 134.319916 25.735096 
L 135.812892 25.760783 
L 137.305869 26.151458 
L 138.798845 25.712071 
L 140.291822 26.152395 
L 141.784798 26.205935 
L 143.277775 25.739587 
L 146.263728 26.254957 
L 147.756705 26.072421 
L 149.249681 26.31814 
L 152.235635 27.035011 
L 153.728611 27.149502 
L 155.221588 26.752455 
L 156.714564 27.356447 
L 158.207541 26.717098 
L 159.700518 26.465996 
L 161.193494 26.797189 
L 162.686471 27.429447 
L 164.179447 26.822729 
L 165.672424 27.937591 
L 168.658377 26.980602 
L 170.151354 26.717413 
L 171.64433 29.642057 
L 173.137307 29.474612 
L 174.630283 27.7979 
L 176.12326 30.111466 
L 177.616237 27.863185 
L 179.109213 27.185228 
L 180.60219 28.992995 
L 182.095166 27.641759 
L 183.588143 29.393715 
L 185.08112 32.434572 
L 186.574096 30.297237 
L 188.067073 31.149415 
L 189.560049 31.177322 
L 191.053026 30.665386 
L 192.546003 28.527851 
L 194.038979 30.119413 
L 195.531956 32.63357 
L 197.024932 34.405372 
L 198.517909 31.18891 
L 200.010885 30.885179 
L 201.503862 34.654149 
L 202.996839 30.843193 
L 204.489815 37.900739 
L 205.982792 36.04021 
L 207.475768 33.144696 
L 208.968745 37.372017 
L 210.461722 36.121467 
L 213.447675 42.348117 
L 214.940651 32.069125 
L 216.433628 35.98705 
L 217.926605 37.366157 
L 219.419581 37.248818 
L 220.912558 36.297764 
L 222.405534 45.577618 
L 223.898511 48.394541 
L 225.391487 47.163679 
L 226.884464 48.139524 
L 228.377441 49.554745 
L 229.870417 66.020272 
L 231.363394 46.106519 
L 232.85637 55.167024 
L 234.349347 50.152251 
L 235.842324 44.550389 
L 237.3353 50.003948 
L 238.828277 53.938251 
L 240.321253 44.268502 
L 241.81423 65.400958 
L 243.307207 81.783308 
L 244.800183 68.876671 
L 246.29316 62.988745 
L 247.786136 77.681808 
L 249.279113 76.356689 
L 250.772089 80.26862 
L 252.265066 76.99529 
L 253.758043 96.039057 
L 255.251019 116.857543 
L 256.743996 90.239077 
L 258.236972 100.221046 
L 259.729949 111.433989 
L 261.222926 114.723126 
L 262.715902 80.626593 
L 264.208879 111.98104 
L 265.701855 95.354633 
L 267.194832 173.327591 
L 268.687809 96.607968 
L 270.180785 142.602024 
L 271.673762 227.534164 
L 273.166738 154.601914 
L 274.659715 165.869437 
L 276.152691 140.208906 
L 277.645668 219.732312 
L 279.138645 175.316024 
L 280.631621 151.851626 
L 282.124598 159.273129 
L 283.617574 137.440523 
L 285.110551 224.786648 
L 286.603528 227.128401 
L 288.096504 176.121374 
L 289.589481 283.80888 
L 291.082457 181.083251 
L 292.575434 226.644518 
L 294.068411 222.502401 
L 295.561387 278.292997 
L 297.054364 249.061566 
L 298.54734 261.688894 
L 300.040317 285.092227 
L 301.533293 292.645979 
L 303.02627 278.787158 
L 304.519247 250.004198 
L 306.012223 255.945881 
L 307.5052 269.093228 
L 308.998176 306.184425 
L 310.491153 295.05488 
L 311.98413 277.088419 
L 313.477106 286.048313 
L 314.970083 276.118639 
L 316.463059 271.277781 
L 317.956036 310.246647 
L 319.449013 266.361676 
L 320.941989 280.262332 
L 322.434966 312.848512 
L 323.927942 312.63958 
L 325.420919 310.621659 
L 326.913895 309.039011 
L 328.406872 289.056205 
L 329.899849 310.283963 
L 331.392825 276.544735 
L 332.885802 304.582782 
L 334.378778 302.280749 
L 335.871755 312.932539 
L 337.364732 312.518476 
L 338.857708 313.282608 
L 340.350685 311.895904 
L 341.843661 313.32193 
L 343.336638 313.107027 
L 344.829615 313.32168 
L 346.322591 313.112564 
L 347.815568 310.123293 
L 349.308544 313.327971 
L 377.675099 313.3301 
L 495.62025 313.3301 
L 495.62025 313.3301 
" style="fill:none;stroke:#7c5ca9;stroke-linecap:square;stroke-width:2.0;"/>
   </g>
   <g id="line2d_5">
    <path clip-path="url(#p9c1bf9d18f)" d="M 49.22025 25.333009 
L 141.784798 25.446672 
L 156.714564 25.569798 
L 158.207541 25.846573 
L 159.700518 25.512343 
L 164.179447 25.652856 
L 165.672424 25.671751 
L 167.165401 26.035009 
L 168.658377 25.712777 
L 173.137307 25.861878 
L 174.630283 26.130579 
L 176.12326 25.754147 
L 177.616237 26.104949 
L 179.109213 26.061781 
L 180.60219 25.740457 
L 182.095166 25.916676 
L 183.588143 26.236587 
L 185.08112 26.400939 
L 186.574096 26.083833 
L 188.067073 26.639049 
L 189.560049 26.44624 
L 191.053026 26.371442 
L 192.546003 27.21057 
L 194.038979 26.690087 
L 195.531956 26.458668 
L 197.024932 27.511549 
L 198.517909 27.030133 
L 200.010885 27.407773 
L 201.503862 27.136156 
L 204.489815 28.657028 
L 205.982792 27.062202 
L 207.475768 27.9498 
L 208.968745 27.699918 
L 210.461722 27.990883 
L 211.954698 29.051851 
L 213.447675 27.778913 
L 214.940651 30.037238 
L 216.433628 29.315181 
L 217.926605 30.728167 
L 219.419581 30.437183 
L 220.912558 31.937284 
L 222.405534 32.699837 
L 223.898511 31.464437 
L 225.391487 32.737861 
L 226.884464 38.824178 
L 228.377441 30.549766 
L 229.870417 33.763563 
L 231.363394 34.382199 
L 232.85637 31.834862 
L 234.349347 32.981383 
L 235.842324 36.247417 
L 237.3353 38.158393 
L 238.828277 36.555991 
L 240.321253 35.988786 
L 241.81423 40.171666 
L 243.307207 40.331578 
L 244.800183 40.259005 
L 246.29316 37.58166 
L 247.786136 42.446064 
L 249.279113 45.274573 
L 250.772089 58.574081 
L 252.265066 36.647572 
L 253.758043 57.305993 
L 255.251019 41.158794 
L 256.743996 48.752414 
L 258.236972 76.985222 
L 259.729949 49.295107 
L 261.222926 60.148848 
L 262.715902 60.202921 
L 264.208879 80.605876 
L 265.701855 57.085261 
L 267.194832 76.750476 
L 268.687809 52.8141 
L 270.180785 77.025326 
L 271.673762 62.57888 
L 273.166738 77.810675 
L 274.659715 70.788519 
L 276.152691 70.922312 
L 277.645668 94.226617 
L 279.138645 72.604885 
L 282.124598 124.844238 
L 283.617574 103.540724 
L 285.110551 126.021272 
L 286.603528 113.410518 
L 288.096504 159.953026 
L 289.589481 129.5668 
L 291.082457 138.159027 
L 292.575434 159.713278 
L 294.068411 136.466557 
L 295.561387 104.124752 
L 297.054364 137.399389 
L 298.54734 127.984852 
L 300.040317 137.905832 
L 301.533293 144.370708 
L 303.02627 196.040026 
L 304.519247 182.011589 
L 306.012223 162.494693 
L 307.5052 218.824769 
L 308.998176 196.260722 
L 310.491153 220.670539 
L 311.98413 205.984326 
L 313.477106 222.172001 
L 314.970083 251.578732 
L 316.463059 247.506307 
L 317.956036 248.849426 
L 319.449013 187.917654 
L 320.941989 268.874306 
L 322.434966 255.82818 
L 323.927942 278.574189 
L 325.420919 249.034846 
L 326.913895 292.133393 
L 328.406872 278.824731 
L 329.899849 256.841794 
L 331.392825 258.717176 
L 332.885802 222.340729 
L 334.378778 306.342368 
L 335.871755 283.533184 
L 337.364732 310.936141 
L 338.857708 308.282338 
L 340.350685 300.309177 
L 341.843661 312.734044 
L 343.336638 303.364578 
L 344.829615 307.311433 
L 346.322591 313.326058 
L 347.815568 312.265594 
L 349.308544 313.252574 
L 350.801521 313.195699 
L 352.294497 312.71473 
L 353.787474 313.29868 
L 358.266404 313.3293 
L 359.75938 313.213346 
L 361.252357 313.330097 
L 364.23831 313.330099 
L 495.62025 313.3301 
L 495.62025 313.3301 
" style="fill:none;stroke:#ae3f7c;stroke-linecap:square;stroke-width:2.0;"/>
   </g>
   <g id="line2d_6">
    <path clip-path="url(#p9c1bf9d18f)" d="M 49.22025 25.330526 
L 159.700518 25.436605 
L 161.193494 25.54103 
L 162.686471 25.386074 
L 165.672424 25.500053 
L 168.658377 25.555526 
L 170.151354 25.448507 
L 171.64433 25.461709 
L 173.137307 25.604454 
L 180.60219 25.446867 
L 182.095166 25.784311 
L 183.588143 25.559253 
L 185.08112 25.742155 
L 186.574096 25.498791 
L 188.067073 25.779061 
L 189.560049 25.807035 
L 191.053026 25.62061 
L 192.546003 25.70809 
L 195.531956 25.689732 
L 200.010885 25.854546 
L 201.503862 26.266083 
L 202.996839 25.999325 
L 204.489815 26.113888 
L 205.982792 25.980459 
L 210.461722 26.102049 
L 211.954698 26.752087 
L 213.447675 26.518624 
L 214.940651 26.0928 
L 216.433628 26.914533 
L 219.419581 26.589933 
L 220.912558 26.229311 
L 222.405534 27.383249 
L 223.898511 26.58134 
L 225.391487 27.559075 
L 226.884464 27.099636 
L 228.377441 27.513578 
L 229.870417 27.584649 
L 231.363394 26.661922 
L 232.85637 27.58945 
L 234.349347 28.811807 
L 235.842324 27.663911 
L 237.3353 28.278369 
L 238.828277 29.112395 
L 240.321253 28.563333 
L 241.81423 28.17106 
L 243.307207 29.059887 
L 244.800183 28.567187 
L 246.29316 28.247905 
L 247.786136 30.25593 
L 249.279113 28.476176 
L 250.772089 31.842048 
L 252.265066 30.70297 
L 253.758043 35.690113 
L 255.251019 29.582351 
L 256.743996 31.666474 
L 258.236972 35.443591 
L 259.729949 35.249574 
L 261.222926 31.778076 
L 262.715902 34.808084 
L 264.208879 38.734018 
L 265.701855 42.03985 
L 267.194832 33.439143 
L 268.687809 36.444961 
L 270.180785 38.610542 
L 271.673762 35.564129 
L 273.166738 38.609533 
L 274.659715 46.945668 
L 276.152691 36.880542 
L 277.645668 49.190602 
L 279.138645 48.55199 
L 280.631621 41.29548 
L 282.124598 37.157888 
L 283.617574 43.66601 
L 285.110551 59.124786 
L 286.603528 57.309464 
L 288.096504 44.130664 
L 289.589481 45.463388 
L 291.082457 51.628826 
L 292.575434 52.06894 
L 294.068411 55.597109 
L 295.561387 49.394966 
L 297.054364 80.613057 
L 298.54734 63.954473 
L 300.040317 68.931745 
L 301.533293 85.410647 
L 303.02627 81.825868 
L 304.519247 61.102901 
L 306.012223 70.039826 
L 307.5052 84.801398 
L 308.998176 85.808932 
L 310.491153 99.975356 
L 311.98413 96.219716 
L 313.477106 88.576756 
L 314.970083 108.853216 
L 316.463059 86.341684 
L 317.956036 128.374042 
L 319.449013 109.188817 
L 320.941989 104.421523 
L 322.434966 147.129657 
L 323.927942 93.263022 
L 325.420919 146.255497 
L 326.913895 92.945782 
L 328.406872 154.810968 
L 329.899849 176.826582 
L 331.392825 204.032141 
L 332.885802 119.507976 
L 334.378778 158.517864 
L 335.871755 150.849098 
L 337.364732 171.650076 
L 338.857708 159.332143 
L 340.350685 201.898361 
L 341.843661 237.093973 
L 343.336638 205.332332 
L 344.829615 197.777604 
L 346.322591 237.294086 
L 347.815568 212.754767 
L 349.308544 218.083542 
L 350.801521 179.072297 
L 352.294497 209.260956 
L 353.787474 199.325605 
L 355.280451 252.963996 
L 356.773427 232.623925 
L 358.266404 270.004335 
L 359.75938 217.214774 
L 361.252357 197.472697 
L 362.745334 241.983341 
L 364.23831 268.598492 
L 365.731287 279.110657 
L 367.224263 251.876873 
L 368.71724 305.539432 
L 370.210217 285.649503 
L 371.703193 283.086585 
L 373.19617 292.145381 
L 374.689146 302.713688 
L 376.182123 306.224593 
L 377.675099 309.400183 
L 379.168076 296.606647 
L 380.661053 291.598047 
L 382.154029 302.985256 
L 383.647006 305.431427 
L 385.139982 305.698091 
L 386.632959 295.588468 
L 388.125936 306.879128 
L 389.618912 311.979946 
L 391.111889 310.928992 
L 392.604865 313.248394 
L 394.097842 312.996214 
L 395.590819 311.221758 
L 397.083795 313.327474 
L 398.576772 313.206802 
L 400.069748 313.324106 
L 406.041655 313.302046 
L 412.013561 313.330079 
L 495.62025 313.3301 
L 495.62025 313.3301 
" style="fill:none;stroke:#d92230;stroke-linecap:square;stroke-width:2.0;"/>
   </g>
   <g id="line2d_7">
    <path clip-path="url(#p9c1bf9d18f)" d="M 49.22025 25.33031 
L 192.546003 25.433243 
L 195.531956 25.468685 
L 197.024932 25.404782 
L 201.503862 25.509814 
L 207.475768 25.524663 
L 208.968745 25.681174 
L 210.461722 25.515443 
L 211.954698 25.610535 
L 213.447675 25.544711 
L 214.940651 25.704401 
L 216.433628 25.539761 
L 217.926605 25.722476 
L 219.419581 25.697873 
L 220.912558 26.200673 
L 222.405534 25.656641 
L 223.898511 25.900767 
L 226.884464 25.686882 
L 228.377441 25.893627 
L 229.870417 25.709243 
L 231.363394 25.745959 
L 232.85637 26.189699 
L 234.349347 26.224646 
L 235.842324 27.164473 
L 237.3353 25.890316 
L 238.828277 26.337628 
L 243.307207 26.467289 
L 244.800183 26.295947 
L 246.29316 26.646 
L 247.786136 26.337977 
L 249.279113 26.835765 
L 250.772089 27.210651 
L 252.265066 26.689323 
L 253.758043 28.005343 
L 255.251019 26.738339 
L 256.743996 27.71314 
L 258.236972 27.734918 
L 259.729949 28.142809 
L 261.222926 31.967224 
L 262.715902 28.913886 
L 264.208879 27.836135 
L 265.701855 31.047939 
L 267.194832 28.904714 
L 268.687809 29.975308 
L 270.180785 29.073195 
L 271.673762 30.571415 
L 273.166738 29.618771 
L 274.659715 29.577946 
L 276.152691 30.76286 
L 277.645668 33.57171 
L 279.138645 32.844782 
L 280.631621 31.614399 
L 282.124598 39.360762 
L 283.617574 32.374853 
L 285.110551 31.519439 
L 286.603528 44.467439 
L 288.096504 31.873753 
L 289.589481 39.804892 
L 291.082457 36.101655 
L 292.575434 40.857307 
L 294.068411 43.506063 
L 295.561387 44.60606 
L 297.054364 52.015053 
L 298.54734 48.059754 
L 300.040317 34.960734 
L 301.533293 41.176568 
L 303.02627 49.132483 
L 304.519247 57.920891 
L 307.5052 48.469035 
L 308.998176 51.856923 
L 310.491153 50.341782 
L 311.98413 62.508421 
L 313.477106 59.446986 
L 314.970083 53.799868 
L 316.463059 68.58536 
L 317.956036 57.293492 
L 319.449013 57.9354 
L 320.941989 63.671809 
L 322.434966 58.229974 
L 323.927942 85.312828 
L 325.420919 116.754557 
L 326.913895 71.651165 
L 328.406872 55.489551 
L 329.899849 83.389041 
L 331.392825 103.281832 
L 332.885802 119.861673 
L 334.378778 126.065695 
L 335.871755 67.411968 
L 337.364732 144.256929 
L 338.857708 97.732974 
L 340.350685 117.341157 
L 341.843661 104.413 
L 343.336638 106.384521 
L 344.829615 139.880501 
L 346.322591 123.625601 
L 347.815568 194.626484 
L 349.308544 126.792321 
L 350.801521 207.202162 
L 352.294497 152.816762 
L 353.787474 147.494339 
L 355.280451 147.559104 
L 356.773427 181.211706 
L 358.266404 195.857023 
L 359.75938 167.471136 
L 361.252357 223.880246 
L 362.745334 232.391988 
L 364.23831 206.910764 
L 365.731287 217.407595 
L 367.224263 213.068751 
L 368.71724 169.398653 
L 370.210217 213.711218 
L 371.703193 200.788907 
L 373.19617 273.597264 
L 374.689146 256.872866 
L 376.182123 270.063711 
L 377.675099 266.974432 
L 379.168076 289.560358 
L 380.661053 294.554948 
L 382.154029 287.281942 
L 383.647006 308.464669 
L 385.139982 306.279474 
L 386.632959 308.897462 
L 388.125936 301.133328 
L 389.618912 305.834726 
L 391.111889 312.99977 
L 392.604865 304.283854 
L 394.097842 312.826929 
L 395.590819 312.754813 
L 397.083795 302.904086 
L 398.576772 313.168687 
L 400.069748 310.177985 
L 401.562725 312.60491 
L 403.055702 309.133155 
L 404.548678 312.412035 
L 406.041655 312.833167 
L 409.027608 313.233267 
L 410.520584 313.133915 
L 412.013561 313.322925 
L 414.999514 313.329113 
L 495.62025 313.3301 
L 495.62025 313.3301 
" style="fill:none;stroke:#f04610;stroke-linecap:square;stroke-width:2.0;"/>
   </g>
   <g id="line2d_8">
    <path clip-path="url(#p9c1bf9d18f)" d="M 49.22025 25.330139 
L 232.85637 25.419626 
L 234.349347 25.533595 
L 235.842324 25.410015 
L 249.279113 25.542423 
L 250.772089 25.742472 
L 253.758043 25.539134 
L 259.729949 25.96246 
L 264.208879 25.639854 
L 265.701855 26.170197 
L 268.687809 26.283618 
L 270.180785 26.067566 
L 271.673762 26.792515 
L 273.166738 25.835397 
L 274.659715 26.234887 
L 276.152691 26.02797 
L 277.645668 26.220363 
L 279.138645 26.142097 
L 280.631621 26.679809 
L 282.124598 26.795876 
L 283.617574 27.12297 
L 285.110551 26.648695 
L 286.603528 27.107818 
L 288.096504 26.529638 
L 289.589481 27.344251 
L 291.082457 28.650534 
L 292.575434 27.187694 
L 294.068411 27.877082 
L 295.561387 28.350555 
L 297.054364 28.382127 
L 298.54734 27.568786 
L 300.040317 28.409415 
L 301.533293 28.42152 
L 303.02627 28.223829 
L 306.012223 29.705197 
L 307.5052 29.592303 
L 308.998176 28.362595 
L 310.491153 30.701963 
L 311.98413 28.303402 
L 313.477106 32.294875 
L 314.970083 39.116819 
L 316.463059 32.099612 
L 317.956036 36.178758 
L 319.449013 30.790887 
L 320.941989 31.793135 
L 322.434966 34.736588 
L 323.927942 32.227045 
L 325.420919 40.472799 
L 326.913895 32.318304 
L 328.406872 34.413423 
L 329.899849 39.517599 
L 331.392825 35.705607 
L 332.885802 42.868089 
L 334.378778 43.606712 
L 335.871755 35.286979 
L 337.364732 54.394427 
L 338.857708 47.778164 
L 340.350685 60.80484 
L 341.843661 44.178378 
L 343.336638 48.672633 
L 344.829615 45.437555 
L 346.322591 64.055469 
L 347.815568 59.5448 
L 349.308544 54.02608 
L 350.801521 52.502348 
L 352.294497 59.176428 
L 353.787474 63.217937 
L 355.280451 48.761623 
L 356.773427 62.953974 
L 358.266404 74.886683 
L 359.75938 80.305391 
L 361.252357 51.661882 
L 362.745334 47.22669 
L 364.23831 86.916373 
L 365.731287 63.12661 
L 367.224263 56.360836 
L 368.71724 73.435367 
L 370.210217 100.330568 
L 371.703193 91.046863 
L 373.19617 121.685845 
L 374.689146 143.307439 
L 376.182123 77.302384 
L 377.675099 90.579044 
L 379.168076 119.079507 
L 380.661053 135.941905 
L 382.154029 116.467468 
L 383.647006 128.605943 
L 385.139982 124.697575 
L 386.632959 148.889046 
L 388.125936 136.871912 
L 389.618912 152.58299 
L 391.111889 176.275851 
L 392.604865 164.727573 
L 394.097842 116.944208 
L 395.590819 162.141482 
L 397.083795 143.532166 
L 398.576772 116.139187 
L 400.069748 224.869172 
L 401.562725 210.19278 
L 403.055702 215.359662 
L 404.548678 199.81955 
L 406.041655 175.862694 
L 407.534631 162.910066 
L 409.027608 176.049236 
L 410.520584 253.954491 
L 412.013561 244.853337 
L 413.506538 257.433892 
L 414.999514 193.358387 
L 416.492491 242.582914 
L 417.985467 223.851931 
L 419.478444 228.011798 
L 420.971421 280.037597 
L 422.464397 269.216151 
L 423.957374 297.635162 
L 425.45035 309.812924 
L 426.943327 280.324755 
L 428.436304 295.023239 
L 429.92928 270.407718 
L 431.422257 304.040542 
L 432.915233 275.621297 
L 434.40821 306.396797 
L 435.901186 294.699618 
L 437.394163 309.191454 
L 438.88714 309.9449 
L 440.380116 308.99606 
L 441.873093 311.876558 
L 443.366069 312.901448 
L 444.859046 307.437988 
L 446.352023 312.531454 
L 447.844999 311.072766 
L 449.337976 313.321749 
L 450.830952 313.314996 
L 452.323929 310.75367 
L 453.816906 313.302279 
L 455.309882 309.053814 
L 456.802859 312.283526 
L 458.295835 313.314761 
L 459.788812 309.744747 
L 461.281788 313.32699 
L 479.197508 313.330096 
L 495.62025 313.3301 
L 495.62025 313.3301 
" style="fill:none;stroke:#ff7f00;stroke-linecap:square;stroke-width:2.0;"/>
   </g>
   <g id="patch_3">
    <path d="M 49.22025 313.3301 
L 49.22025 25.3301 
" style="fill:none;stroke:#000000;stroke-linecap:square;stroke-linejoin:miter;"/>
   </g>
   <g id="patch_4">
    <path d="M 49.22025 313.3301 
L 495.62025 313.3301 
" style="fill:none;stroke:#000000;stroke-linecap:square;stroke-linejoin:miter;"/>
   </g>
   <g id="patch_5">
    <path d="M 49.22025 25.3301 
L 495.62025 25.3301 
" style="fill:none;stroke:#000000;stroke-linecap:square;stroke-linejoin:miter;"/>
   </g>
   <g id="patch_6">
    <path d="M 495.62025 313.3301 
L 495.62025 25.3301 
" style="fill:none;stroke:#000000;stroke-linecap:square;stroke-linejoin:miter;"/>
   </g>
   <g id="matplotlib.axis_1">
    <g id="xtick_1">
     <g id="line2d_9">
      <defs>
       <path d="M 0 0 
L 0 -4 
" id="mb020e22b29" style="stroke:#000000;stroke-width:0.5;"/>
      </defs>
      <g>
       <use style="stroke:#000000;stroke-width:0.5;" x="49.22025" xlink:href="#mb020e22b29" y="313.3301"/>
      </g>
     </g>
     <g id="line2d_10">
      <defs>
       <path d="M 0 0 
L 0 4 
" id="md6fc3fa506" style="stroke:#000000;stroke-width:0.5;"/>
      </defs>
      <g>
       <use style="stroke:#000000;stroke-width:0.5;" x="49.22025" xlink:href="#md6fc3fa506" y="25.3301"/>
      </g>
     </g>
     <g id="text_1">
      <!-- −10 -->
      <defs>
       <path d="M 10.59375 35.5 
L 73.1875 35.5 
L 73.1875 27.203125 
L 10.59375 27.203125 
z
" id="BitstreamVeraSans-Roman-2212"/>
       <path d="M 12.40625 8.296875 
L 28.515625 8.296875 
L 28.515625 63.921875 
L 10.984375 60.40625 
L 10.984375 69.390625 
L 28.421875 72.90625 
L 38.28125 72.90625 
L 38.28125 8.296875 
L 54.390625 8.296875 
L 54.390625 0 
L 12.40625 0 
z
" id="BitstreamVeraSans-Roman-31"/>
       <path d="M 31.78125 66.40625 
Q 24.171875 66.40625 20.328125 58.90625 
Q 16.5 51.421875 16.5 36.375 
Q 16.5 21.390625 20.328125 13.890625 
Q 24.171875 6.390625 31.78125 6.390625 
Q 39.453125 6.390625 43.28125 13.890625 
Q 47.125 21.390625 47.125 36.375 
Q 47.125 51.421875 43.28125 58.90625 
Q 39.453125 66.40625 31.78125 66.40625 
M 31.78125 74.21875 
Q 44.046875 74.21875 50.515625 64.515625 
Q 56.984375 54.828125 56.984375 36.375 
Q 56.984375 17.96875 50.515625 8.265625 
Q 44.046875 -1.421875 31.78125 -1.421875 
Q 19.53125 -1.421875 13.0625 8.265625 
Q 6.59375 17.96875 6.59375 36.375 
Q 6.59375 54.828125 13.0625 64.515625 
Q 19.53125 74.21875 31.78125 74.21875 
" id="BitstreamVeraSans-Roman-30"/>
      </defs>
      <g transform="translate(36.5574375 326.448225)scale(0.12 -0.12)">
       <use xlink:href="#BitstreamVeraSans-Roman-2212"/>
       <use x="83.7890625" xlink:href="#BitstreamVeraSans-Roman-31"/>
       <use x="147.412109375" xlink:href="#BitstreamVeraSans-Roman-30"/>
      </g>
     </g>
    </g>
    <g id="xtick_2">
     <g id="line2d_11">
      <g>
       <use style="stroke:#000000;stroke-width:0.5;" x="160.82025" xlink:href="#mb020e22b29" y="313.3301"/>
      </g>
     </g>
     <g id="line2d_12">
      <g>
       <use style="stroke:#000000;stroke-width:0.5;" x="160.82025" xlink:href="#md6fc3fa506" y="25.3301"/>
      </g>
     </g>
     <g id="text_2">
      <!-- −5 -->
      <defs>
       <path d="M 10.796875 72.90625 
L 49.515625 72.90625 
L 49.515625 64.59375 
L 19.828125 64.59375 
L 19.828125 46.734375 
Q 21.96875 47.46875 24.109375 47.828125 
Q 26.265625 48.1875 28.421875 48.1875 
Q 40.625 48.1875 47.75 41.5 
Q 54.890625 34.8125 54.890625 23.390625 
Q 54.890625 11.625 47.5625 5.09375 
Q 40.234375 -1.421875 26.90625 -1.421875 
Q 22.3125 -1.421875 17.546875 -0.640625 
Q 12.796875 0.140625 7.71875 1.703125 
L 7.71875 11.625 
Q 12.109375 9.234375 16.796875 8.0625 
Q 21.484375 6.890625 26.703125 6.890625 
Q 35.15625 6.890625 40.078125 11.328125 
Q 45.015625 15.765625 45.015625 23.390625 
Q 45.015625 31 40.078125 35.4375 
Q 35.15625 39.890625 26.703125 39.890625 
Q 22.75 39.890625 18.8125 39.015625 
Q 14.890625 38.140625 10.796875 36.28125 
z
" id="BitstreamVeraSans-Roman-35"/>
      </defs>
      <g transform="translate(151.9749375 326.448225)scale(0.12 -0.12)">
       <use xlink:href="#BitstreamVeraSans-Roman-2212"/>
       <use x="83.7890625" xlink:href="#BitstreamVeraSans-Roman-35"/>
      </g>
     </g>
    </g>
    <g id="xtick_3">
     <g id="line2d_13">
      <g>
       <use style="stroke:#000000;stroke-width:0.5;" x="272.42025" xlink:href="#mb020e22b29" y="313.3301"/>
      </g>
     </g>
     <g id="line2d_14">
      <g>
       <use style="stroke:#000000;stroke-width:0.5;" x="272.42025" xlink:href="#md6fc3fa506" y="25.3301"/>
      </g>
     </g>
     <g id="text_3">
      <!-- 0 -->
      <g transform="translate(268.60275 326.448225)scale(0.12 -0.12)">
       <use xlink:href="#BitstreamVeraSans-Roman-30"/>
      </g>
     </g>
    </g>
    <g id="xtick_4">
     <g id="line2d_15">
      <g>
       <use style="stroke:#000000;stroke-width:0.5;" x="384.02025" xlink:href="#mb020e22b29" y="313.3301"/>
      </g>
     </g>
     <g id="line2d_16">
      <g>
       <use style="stroke:#000000;stroke-width:0.5;" x="384.02025" xlink:href="#md6fc3fa506" y="25.3301"/>
      </g>
     </g>
     <g id="text_4">
      <!-- 5 -->
      <g transform="translate(380.20275 326.448225)scale(0.12 -0.12)">
       <use xlink:href="#BitstreamVeraSans-Roman-35"/>
      </g>
     </g>
    </g>
    <g id="xtick_5">
     <g id="line2d_17">
      <g>
       <use style="stroke:#000000;stroke-width:0.5;" x="495.62025" xlink:href="#mb020e22b29" y="313.3301"/>
      </g>
     </g>
     <g id="line2d_18">
      <g>
       <use style="stroke:#000000;stroke-width:0.5;" x="495.62025" xlink:href="#md6fc3fa506" y="25.3301"/>
      </g>
     </g>
     <g id="text_5">
      <!-- 10 -->
      <g transform="translate(487.98525 326.448225)scale(0.12 -0.12)">
       <use xlink:href="#BitstreamVeraSans-Roman-31"/>
       <use x="63.623046875" xlink:href="#BitstreamVeraSans-Roman-30"/>
      </g>
     </g>
    </g>
    <g id="text_6">
     <!-- This is the x-axis -->
     <defs>
      <path d="M 9.421875 54.6875 
L 18.40625 54.6875 
L 18.40625 0 
L 9.421875 0 
z
M 9.421875 75.984375 
L 18.40625 75.984375 
L 18.40625 64.59375 
L 9.421875 64.59375 
z
" id="BitstreamVeraSans-Roman-69"/>
      <path id="BitstreamVeraSans-Roman-20"/>
      <path d="M 34.28125 27.484375 
Q 23.390625 27.484375 19.1875 25 
Q 14.984375 22.515625 14.984375 16.5 
Q 14.984375 11.71875 18.140625 8.90625 
Q 21.296875 6.109375 26.703125 6.109375 
Q 34.1875 6.109375 38.703125 11.40625 
Q 43.21875 16.703125 43.21875 25.484375 
L 43.21875 27.484375 
z
M 52.203125 31.203125 
L 52.203125 0 
L 43.21875 0 
L 43.21875 8.296875 
Q 40.140625 3.328125 35.546875 0.953125 
Q 30.953125 -1.421875 24.3125 -1.421875 
Q 15.921875 -1.421875 10.953125 3.296875 
Q 6 8.015625 6 15.921875 
Q 6 25.140625 12.171875 29.828125 
Q 18.359375 34.515625 30.609375 34.515625 
L 43.21875 34.515625 
L 43.21875 35.40625 
Q 43.21875 41.609375 39.140625 45 
Q 35.0625 48.390625 27.6875 48.390625 
Q 23 48.390625 18.546875 47.265625 
Q 14.109375 46.140625 10.015625 43.890625 
L 10.015625 52.203125 
Q 14.9375 54.109375 19.578125 55.046875 
Q 24.21875 56 28.609375 56 
Q 40.484375 56 46.34375 49.84375 
Q 52.203125 43.703125 52.203125 31.203125 
" id="BitstreamVeraSans-Roman-61"/>
      <path d="M -0.296875 72.90625 
L 61.375 72.90625 
L 61.375 64.59375 
L 35.5 64.59375 
L 35.5 0 
L 25.59375 0 
L 25.59375 64.59375 
L -0.296875 64.59375 
z
" id="BitstreamVeraSans-Roman-54"/>
      <path d="M 44.28125 53.078125 
L 44.28125 44.578125 
Q 40.484375 46.53125 36.375 47.5 
Q 32.28125 48.484375 27.875 48.484375 
Q 21.1875 48.484375 17.84375 46.4375 
Q 14.5 44.390625 14.5 40.28125 
Q 14.5 37.15625 16.890625 35.375 
Q 19.28125 33.59375 26.515625 31.984375 
L 29.59375 31.296875 
Q 39.15625 29.25 43.1875 25.515625 
Q 47.21875 21.78125 47.21875 15.09375 
Q 47.21875 7.46875 41.1875 3.015625 
Q 35.15625 -1.421875 24.609375 -1.421875 
Q 20.21875 -1.421875 15.453125 -0.5625 
Q 10.6875 0.296875 5.421875 2 
L 5.421875 11.28125 
Q 10.40625 8.6875 15.234375 7.390625 
Q 20.0625 6.109375 24.8125 6.109375 
Q 31.15625 6.109375 34.5625 8.28125 
Q 37.984375 10.453125 37.984375 14.40625 
Q 37.984375 18.0625 35.515625 20.015625 
Q 33.0625 21.96875 24.703125 23.78125 
L 21.578125 24.515625 
Q 13.234375 26.265625 9.515625 29.90625 
Q 5.8125 33.546875 5.8125 39.890625 
Q 5.8125 47.609375 11.28125 51.796875 
Q 16.75 56 26.8125 56 
Q 31.78125 56 36.171875 55.265625 
Q 40.578125 54.546875 44.28125 53.078125 
" id="BitstreamVeraSans-Roman-73"/>
      <path d="M 4.890625 31.390625 
L 31.203125 31.390625 
L 31.203125 23.390625 
L 4.890625 23.390625 
z
" id="BitstreamVeraSans-Roman-2d"/>
      <path d="M 54.890625 54.6875 
L 35.109375 28.078125 
L 55.90625 0 
L 45.3125 0 
L 29.390625 21.484375 
L 13.484375 0 
L 2.875 0 
L 24.125 28.609375 
L 4.6875 54.6875 
L 15.28125 54.6875 
L 29.78125 35.203125 
L 44.28125 54.6875 
z
" id="BitstreamVeraSans-Roman-78"/>
      <path d="M 18.3125 70.21875 
L 18.3125 54.6875 
L 36.8125 54.6875 
L 36.8125 47.703125 
L 18.3125 47.703125 
L 18.3125 18.015625 
Q 18.3125 11.328125 20.140625 9.421875 
Q 21.96875 7.515625 27.59375 7.515625 
L 36.8125 7.515625 
L 36.8125 0 
L 27.59375 0 
Q 17.1875 0 13.234375 3.875 
Q 9.28125 7.765625 9.28125 18.015625 
L 9.28125 47.703125 
L 2.6875 47.703125 
L 2.6875 54.6875 
L 9.28125 54.6875 
L 9.28125 70.21875 
z
" id="BitstreamVeraSans-Roman-74"/>
      <path d="M 54.890625 33.015625 
L 54.890625 0 
L 45.90625 0 
L 45.90625 32.71875 
Q 45.90625 40.484375 42.875 44.328125 
Q 39.84375 48.1875 33.796875 48.1875 
Q 26.515625 48.1875 22.3125 43.546875 
Q 18.109375 38.921875 18.109375 30.90625 
L 18.109375 0 
L 9.078125 0 
L 9.078125 75.984375 
L 18.109375 75.984375 
L 18.109375 46.1875 
Q 21.34375 51.125 25.703125 53.5625 
Q 30.078125 56 35.796875 56 
Q 45.21875 56 50.046875 50.171875 
Q 54.890625 44.34375 54.890625 33.015625 
" id="BitstreamVeraSans-Roman-68"/>
      <path d="M 56.203125 29.59375 
L 56.203125 25.203125 
L 14.890625 25.203125 
Q 15.484375 15.921875 20.484375 11.0625 
Q 25.484375 6.203125 34.421875 6.203125 
Q 39.59375 6.203125 44.453125 7.46875 
Q 49.3125 8.734375 54.109375 11.28125 
L 54.109375 2.78125 
Q 49.265625 0.734375 44.1875 -0.34375 
Q 39.109375 -1.421875 33.890625 -1.421875 
Q 20.796875 -1.421875 13.15625 6.1875 
Q 5.515625 13.8125 5.515625 26.8125 
Q 5.515625 40.234375 12.765625 48.109375 
Q 20.015625 56 32.328125 56 
Q 43.359375 56 49.78125 48.890625 
Q 56.203125 41.796875 56.203125 29.59375 
M 47.21875 32.234375 
Q 47.125 39.59375 43.09375 43.984375 
Q 39.0625 48.390625 32.421875 48.390625 
Q 24.90625 48.390625 20.390625 44.140625 
Q 15.875 39.890625 15.1875 32.171875 
z
" id="BitstreamVeraSans-Roman-65"/>
     </defs>
     <g transform="translate(211.993125 344.8856)scale(0.144 -0.144)">
      <use xlink:href="#BitstreamVeraSans-Roman-54"/>
      <use x="61.083984375" xlink:href="#BitstreamVeraSans-Roman-68"/>
      <use x="124.462890625" xlink:href="#BitstreamVeraSans-Roman-69"/>
      <use x="152.24609375" xlink:href="#BitstreamVeraSans-Roman-73"/>
      <use x="204.345703125" xlink:href="#BitstreamVeraSans-Roman-20"/>
      <use x="236.1328125" xlink:href="#BitstreamVeraSans-Roman-69"/>
      <use x="263.916015625" xlink:href="#BitstreamVeraSans-Roman-73"/>
      <use x="316.015625" xlink:href="#BitstreamVeraSans-Roman-20"/>
      <use x="347.802734375" xlink:href="#BitstreamVeraSans-Roman-74"/>
      <use x="387.01171875" xlink:href="#BitstreamVeraSans-Roman-68"/>
      <use x="450.390625" xlink:href="#BitstreamVeraSans-Roman-65"/>
      <use x="511.9140625" xlink:href="#BitstreamVeraSans-Roman-20"/>
      <use x="543.701171875" xlink:href="#BitstreamVeraSans-Roman-78"/>
      <use x="602.880859375" xlink:href="#BitstreamVeraSans-Roman-2d"/>
      <use x="638.96484375" xlink:href="#BitstreamVeraSans-Roman-61"/>
      <use x="700.244140625" xlink:href="#BitstreamVeraSans-Roman-78"/>
      <use x="759.423828125" xlink:href="#BitstreamVeraSans-Roman-69"/>
      <use x="787.20703125" xlink:href="#BitstreamVeraSans-Roman-73"/>
     </g>
    </g>
   </g>
   <g id="matplotlib.axis_2">
    <g id="ytick_1">
     <g id="line2d_19">
      <defs>
       <path d="M 0 0 
L 4 0 
" id="m7842f28289" style="stroke:#000000;stroke-width:0.5;"/>
      </defs>
      <g>
       <use style="stroke:#000000;stroke-width:0.5;" x="49.22025" xlink:href="#m7842f28289" y="313.3301"/>
      </g>
     </g>
     <g id="line2d_20">
      <defs>
       <path d="M 0 0 
L -4 0 
" id="m74f90d8841" style="stroke:#000000;stroke-width:0.5;"/>
      </defs>
      <g>
       <use style="stroke:#000000;stroke-width:0.5;" x="495.62025" xlink:href="#m74f90d8841" y="313.3301"/>
      </g>
     </g>
     <g id="text_7">
      <!-- 0.0 -->
      <defs>
       <path d="M 10.6875 12.40625 
L 21 12.40625 
L 21 0 
L 10.6875 0 
z
" id="BitstreamVeraSans-Roman-2e"/>
      </defs>
      <g transform="translate(26.1365 316.64135)scale(0.12 -0.12)">
       <use xlink:href="#BitstreamVeraSans-Roman-30"/>
       <use x="63.623046875" xlink:href="#BitstreamVeraSans-Roman-2e"/>
       <use x="95.41015625" xlink:href="#BitstreamVeraSans-Roman-30"/>
      </g>
     </g>
    </g>
    <g id="ytick_2">
     <g id="line2d_21">
      <g>
       <use style="stroke:#000000;stroke-width:0.5;" x="49.22025" xlink:href="#m7842f28289" y="255.7301"/>
      </g>
     </g>
     <g id="line2d_22">
      <g>
       <use style="stroke:#000000;stroke-width:0.5;" x="495.62025" xlink:href="#m74f90d8841" y="255.7301"/>
      </g>
     </g>
     <g id="text_8">
      <!-- 0.2 -->
      <defs>
       <path d="M 19.1875 8.296875 
L 53.609375 8.296875 
L 53.609375 0 
L 7.328125 0 
L 7.328125 8.296875 
Q 12.9375 14.109375 22.625 23.890625 
Q 32.328125 33.6875 34.8125 36.53125 
Q 39.546875 41.84375 41.421875 45.53125 
Q 43.3125 49.21875 43.3125 52.78125 
Q 43.3125 58.59375 39.234375 62.25 
Q 35.15625 65.921875 28.609375 65.921875 
Q 23.96875 65.921875 18.8125 64.3125 
Q 13.671875 62.703125 7.8125 59.421875 
L 7.8125 69.390625 
Q 13.765625 71.78125 18.9375 73 
Q 24.125 74.21875 28.421875 74.21875 
Q 39.75 74.21875 46.484375 68.546875 
Q 53.21875 62.890625 53.21875 53.421875 
Q 53.21875 48.921875 51.53125 44.890625 
Q 49.859375 40.875 45.40625 35.40625 
Q 44.1875 33.984375 37.640625 27.21875 
Q 31.109375 20.453125 19.1875 8.296875 
" id="BitstreamVeraSans-Roman-32"/>
      </defs>
      <g transform="translate(26.1365 259.04135)scale(0.12 -0.12)">
       <use xlink:href="#BitstreamVeraSans-Roman-30"/>
       <use x="63.623046875" xlink:href="#BitstreamVeraSans-Roman-2e"/>
       <use x="95.41015625" xlink:href="#BitstreamVeraSans-Roman-32"/>
      </g>
     </g>
    </g>
    <g id="ytick_3">
     <g id="line2d_23">
      <g>
       <use style="stroke:#000000;stroke-width:0.5;" x="49.22025" xlink:href="#m7842f28289" y="198.1301"/>
      </g>
     </g>
     <g id="line2d_24">
      <g>
       <use style="stroke:#000000;stroke-width:0.5;" x="495.62025" xlink:href="#m74f90d8841" y="198.1301"/>
      </g>
     </g>
     <g id="text_9">
      <!-- 0.4 -->
      <defs>
       <path d="M 37.796875 64.3125 
L 12.890625 25.390625 
L 37.796875 25.390625 
z
M 35.203125 72.90625 
L 47.609375 72.90625 
L 47.609375 25.390625 
L 58.015625 25.390625 
L 58.015625 17.1875 
L 47.609375 17.1875 
L 47.609375 0 
L 37.796875 0 
L 37.796875 17.1875 
L 4.890625 17.1875 
L 4.890625 26.703125 
z
" id="BitstreamVeraSans-Roman-34"/>
      </defs>
      <g transform="translate(26.1365 201.44135)scale(0.12 -0.12)">
       <use xlink:href="#BitstreamVeraSans-Roman-30"/>
       <use x="63.623046875" xlink:href="#BitstreamVeraSans-Roman-2e"/>
       <use x="95.41015625" xlink:href="#BitstreamVeraSans-Roman-34"/>
      </g>
     </g>
    </g>
    <g id="ytick_4">
     <g id="line2d_25">
      <g>
       <use style="stroke:#000000;stroke-width:0.5;" x="49.22025" xlink:href="#m7842f28289" y="140.5301"/>
      </g>
     </g>
     <g id="line2d_26">
      <g>
       <use style="stroke:#000000;stroke-width:0.5;" x="495.62025" xlink:href="#m74f90d8841" y="140.5301"/>
      </g>
     </g>
     <g id="text_10">
      <!-- 0.6 -->
      <defs>
       <path d="M 33.015625 40.375 
Q 26.375 40.375 22.484375 35.828125 
Q 18.609375 31.296875 18.609375 23.390625 
Q 18.609375 15.53125 22.484375 10.953125 
Q 26.375 6.390625 33.015625 6.390625 
Q 39.65625 6.390625 43.53125 10.953125 
Q 47.40625 15.53125 47.40625 23.390625 
Q 47.40625 31.296875 43.53125 35.828125 
Q 39.65625 40.375 33.015625 40.375 
M 52.59375 71.296875 
L 52.59375 62.3125 
Q 48.875 64.0625 45.09375 64.984375 
Q 41.3125 65.921875 37.59375 65.921875 
Q 27.828125 65.921875 22.671875 59.328125 
Q 17.53125 52.734375 16.796875 39.40625 
Q 19.671875 43.65625 24.015625 45.921875 
Q 28.375 48.1875 33.59375 48.1875 
Q 44.578125 48.1875 50.953125 41.515625 
Q 57.328125 34.859375 57.328125 23.390625 
Q 57.328125 12.15625 50.6875 5.359375 
Q 44.046875 -1.421875 33.015625 -1.421875 
Q 20.359375 -1.421875 13.671875 8.265625 
Q 6.984375 17.96875 6.984375 36.375 
Q 6.984375 53.65625 15.1875 63.9375 
Q 23.390625 74.21875 37.203125 74.21875 
Q 40.921875 74.21875 44.703125 73.484375 
Q 48.484375 72.75 52.59375 71.296875 
" id="BitstreamVeraSans-Roman-36"/>
      </defs>
      <g transform="translate(26.1365 143.84135)scale(0.12 -0.12)">
       <use xlink:href="#BitstreamVeraSans-Roman-30"/>
       <use x="63.623046875" xlink:href="#BitstreamVeraSans-Roman-2e"/>
       <use x="95.41015625" xlink:href="#BitstreamVeraSans-Roman-36"/>
      </g>
     </g>
    </g>
    <g id="ytick_5">
     <g id="line2d_27">
      <g>
       <use style="stroke:#000000;stroke-width:0.5;" x="49.22025" xlink:href="#m7842f28289" y="82.9301"/>
      </g>
     </g>
     <g id="line2d_28">
      <g>
       <use style="stroke:#000000;stroke-width:0.5;" x="495.62025" xlink:href="#m74f90d8841" y="82.9301"/>
      </g>
     </g>
     <g id="text_11">
      <!-- 0.8 -->
      <defs>
       <path d="M 31.78125 34.625 
Q 24.75 34.625 20.71875 30.859375 
Q 16.703125 27.09375 16.703125 20.515625 
Q 16.703125 13.921875 20.71875 10.15625 
Q 24.75 6.390625 31.78125 6.390625 
Q 38.8125 6.390625 42.859375 10.171875 
Q 46.921875 13.96875 46.921875 20.515625 
Q 46.921875 27.09375 42.890625 30.859375 
Q 38.875 34.625 31.78125 34.625 
M 21.921875 38.8125 
Q 15.578125 40.375 12.03125 44.71875 
Q 8.5 49.078125 8.5 55.328125 
Q 8.5 64.0625 14.71875 69.140625 
Q 20.953125 74.21875 31.78125 74.21875 
Q 42.671875 74.21875 48.875 69.140625 
Q 55.078125 64.0625 55.078125 55.328125 
Q 55.078125 49.078125 51.53125 44.71875 
Q 48 40.375 41.703125 38.8125 
Q 48.828125 37.15625 52.796875 32.3125 
Q 56.78125 27.484375 56.78125 20.515625 
Q 56.78125 9.90625 50.3125 4.234375 
Q 43.84375 -1.421875 31.78125 -1.421875 
Q 19.734375 -1.421875 13.25 4.234375 
Q 6.78125 9.90625 6.78125 20.515625 
Q 6.78125 27.484375 10.78125 32.3125 
Q 14.796875 37.15625 21.921875 38.8125 
M 18.3125 54.390625 
Q 18.3125 48.734375 21.84375 45.5625 
Q 25.390625 42.390625 31.78125 42.390625 
Q 38.140625 42.390625 41.71875 45.5625 
Q 45.3125 48.734375 45.3125 54.390625 
Q 45.3125 60.0625 41.71875 63.234375 
Q 38.140625 66.40625 31.78125 66.40625 
Q 25.390625 66.40625 21.84375 63.234375 
Q 18.3125 60.0625 18.3125 54.390625 
" id="BitstreamVeraSans-Roman-38"/>
      </defs>
      <g transform="translate(26.1365 86.24135)scale(0.12 -0.12)">
       <use xlink:href="#BitstreamVeraSans-Roman-30"/>
       <use x="63.623046875" xlink:href="#BitstreamVeraSans-Roman-2e"/>
       <use x="95.41015625" xlink:href="#BitstreamVeraSans-Roman-38"/>
      </g>
     </g>
    </g>
    <g id="ytick_6">
     <g id="line2d_29">
      <g>
       <use style="stroke:#000000;stroke-width:0.5;" x="49.22025" xlink:href="#m7842f28289" y="25.3301"/>
      </g>
     </g>
     <g id="line2d_30">
      <g>
       <use style="stroke:#000000;stroke-width:0.5;" x="495.62025" xlink:href="#m74f90d8841" y="25.3301"/>
      </g>
     </g>
     <g id="text_12">
      <!-- 1.0 -->
      <g transform="translate(26.1365 28.64135)scale(0.12 -0.12)">
       <use xlink:href="#BitstreamVeraSans-Roman-31"/>
       <use x="63.623046875" xlink:href="#BitstreamVeraSans-Roman-2e"/>
       <use x="95.41015625" xlink:href="#BitstreamVeraSans-Roman-30"/>
      </g>
     </g>
    </g>
    <g id="text_13">
     <!-- Random but decaying values -->
     <defs>
      <path d="M 44.390625 34.1875 
Q 47.5625 33.109375 50.5625 29.59375 
Q 53.5625 26.078125 56.59375 19.921875 
L 66.609375 0 
L 56 0 
L 46.6875 18.703125 
Q 43.0625 26.03125 39.671875 28.421875 
Q 36.28125 30.8125 30.421875 30.8125 
L 19.671875 30.8125 
L 19.671875 0 
L 9.8125 0 
L 9.8125 72.90625 
L 32.078125 72.90625 
Q 44.578125 72.90625 50.734375 67.671875 
Q 56.890625 62.453125 56.890625 51.90625 
Q 56.890625 45.015625 53.6875 40.46875 
Q 50.484375 35.9375 44.390625 34.1875 
M 19.671875 64.796875 
L 19.671875 38.921875 
L 32.078125 38.921875 
Q 39.203125 38.921875 42.84375 42.21875 
Q 46.484375 45.515625 46.484375 51.90625 
Q 46.484375 58.296875 42.84375 61.546875 
Q 39.203125 64.796875 32.078125 64.796875 
z
" id="BitstreamVeraSans-Roman-52"/>
      <path d="M 30.609375 48.390625 
Q 23.390625 48.390625 19.1875 42.75 
Q 14.984375 37.109375 14.984375 27.296875 
Q 14.984375 17.484375 19.15625 11.84375 
Q 23.34375 6.203125 30.609375 6.203125 
Q 37.796875 6.203125 41.984375 11.859375 
Q 46.1875 17.53125 46.1875 27.296875 
Q 46.1875 37.015625 41.984375 42.703125 
Q 37.796875 48.390625 30.609375 48.390625 
M 30.609375 56 
Q 42.328125 56 49.015625 48.375 
Q 55.71875 40.765625 55.71875 27.296875 
Q 55.71875 13.875 49.015625 6.21875 
Q 42.328125 -1.421875 30.609375 -1.421875 
Q 18.84375 -1.421875 12.171875 6.21875 
Q 5.515625 13.875 5.515625 27.296875 
Q 5.515625 40.765625 12.171875 48.375 
Q 18.84375 56 30.609375 56 
" id="BitstreamVeraSans-Roman-6f"/>
      <path d="M 45.40625 46.390625 
L 45.40625 75.984375 
L 54.390625 75.984375 
L 54.390625 0 
L 45.40625 0 
L 45.40625 8.203125 
Q 42.578125 3.328125 38.25 0.953125 
Q 33.9375 -1.421875 27.875 -1.421875 
Q 17.96875 -1.421875 11.734375 6.484375 
Q 5.515625 14.40625 5.515625 27.296875 
Q 5.515625 40.1875 11.734375 48.09375 
Q 17.96875 56 27.875 56 
Q 33.9375 56 38.25 53.625 
Q 42.578125 51.265625 45.40625 46.390625 
M 14.796875 27.296875 
Q 14.796875 17.390625 18.875 11.75 
Q 22.953125 6.109375 30.078125 6.109375 
Q 37.203125 6.109375 41.296875 11.75 
Q 45.40625 17.390625 45.40625 27.296875 
Q 45.40625 37.203125 41.296875 42.84375 
Q 37.203125 48.484375 30.078125 48.484375 
Q 22.953125 48.484375 18.875 42.84375 
Q 14.796875 37.203125 14.796875 27.296875 
" id="BitstreamVeraSans-Roman-64"/>
      <path d="M 52 44.1875 
Q 55.375 50.25 60.0625 53.125 
Q 64.75 56 71.09375 56 
Q 79.640625 56 84.28125 50.015625 
Q 88.921875 44.046875 88.921875 33.015625 
L 88.921875 0 
L 79.890625 0 
L 79.890625 32.71875 
Q 79.890625 40.578125 77.09375 44.375 
Q 74.3125 48.1875 68.609375 48.1875 
Q 61.625 48.1875 57.5625 43.546875 
Q 53.515625 38.921875 53.515625 30.90625 
L 53.515625 0 
L 44.484375 0 
L 44.484375 32.71875 
Q 44.484375 40.625 41.703125 44.40625 
Q 38.921875 48.1875 33.109375 48.1875 
Q 26.21875 48.1875 22.15625 43.53125 
Q 18.109375 38.875 18.109375 30.90625 
L 18.109375 0 
L 9.078125 0 
L 9.078125 54.6875 
L 18.109375 54.6875 
L 18.109375 46.1875 
Q 21.1875 51.21875 25.484375 53.609375 
Q 29.78125 56 35.6875 56 
Q 41.65625 56 45.828125 52.96875 
Q 50 49.953125 52 44.1875 
" id="BitstreamVeraSans-Roman-6d"/>
      <path d="M 32.171875 -5.078125 
Q 28.375 -14.84375 24.75 -17.8125 
Q 21.140625 -20.796875 15.09375 -20.796875 
L 7.90625 -20.796875 
L 7.90625 -13.28125 
L 13.1875 -13.28125 
Q 16.890625 -13.28125 18.9375 -11.515625 
Q 21 -9.765625 23.484375 -3.21875 
L 25.09375 0.875 
L 2.984375 54.6875 
L 12.5 54.6875 
L 29.59375 11.921875 
L 46.6875 54.6875 
L 56.203125 54.6875 
z
" id="BitstreamVeraSans-Roman-79"/>
      <path d="M 54.890625 33.015625 
L 54.890625 0 
L 45.90625 0 
L 45.90625 32.71875 
Q 45.90625 40.484375 42.875 44.328125 
Q 39.84375 48.1875 33.796875 48.1875 
Q 26.515625 48.1875 22.3125 43.546875 
Q 18.109375 38.921875 18.109375 30.90625 
L 18.109375 0 
L 9.078125 0 
L 9.078125 54.6875 
L 18.109375 54.6875 
L 18.109375 46.1875 
Q 21.34375 51.125 25.703125 53.5625 
Q 30.078125 56 35.796875 56 
Q 45.21875 56 50.046875 50.171875 
Q 54.890625 44.34375 54.890625 33.015625 
" id="BitstreamVeraSans-Roman-6e"/>
      <path d="M 2.984375 54.6875 
L 12.5 54.6875 
L 29.59375 8.796875 
L 46.6875 54.6875 
L 56.203125 54.6875 
L 35.6875 0 
L 23.484375 0 
z
" id="BitstreamVeraSans-Roman-76"/>
      <path d="M 48.78125 52.59375 
L 48.78125 44.1875 
Q 44.96875 46.296875 41.140625 47.34375 
Q 37.3125 48.390625 33.40625 48.390625 
Q 24.65625 48.390625 19.8125 42.84375 
Q 14.984375 37.3125 14.984375 27.296875 
Q 14.984375 17.28125 19.8125 11.734375 
Q 24.65625 6.203125 33.40625 6.203125 
Q 37.3125 6.203125 41.140625 7.25 
Q 44.96875 8.296875 48.78125 10.40625 
L 48.78125 2.09375 
Q 45.015625 0.34375 40.984375 -0.53125 
Q 36.96875 -1.421875 32.421875 -1.421875 
Q 20.0625 -1.421875 12.78125 6.34375 
Q 5.515625 14.109375 5.515625 27.296875 
Q 5.515625 40.671875 12.859375 48.328125 
Q 20.21875 56 33.015625 56 
Q 37.15625 56 41.109375 55.140625 
Q 45.0625 54.296875 48.78125 52.59375 
" id="BitstreamVeraSans-Roman-63"/>
      <path d="M 9.421875 75.984375 
L 18.40625 75.984375 
L 18.40625 0 
L 9.421875 0 
z
" id="BitstreamVeraSans-Roman-6c"/>
      <path d="M 8.5 21.578125 
L 8.5 54.6875 
L 17.484375 54.6875 
L 17.484375 21.921875 
Q 17.484375 14.15625 20.5 10.265625 
Q 23.53125 6.390625 29.59375 6.390625 
Q 36.859375 6.390625 41.078125 11.03125 
Q 45.3125 15.671875 45.3125 23.6875 
L 45.3125 54.6875 
L 54.296875 54.6875 
L 54.296875 0 
L 45.3125 0 
L 45.3125 8.40625 
Q 42.046875 3.421875 37.71875 1 
Q 33.40625 -1.421875 27.6875 -1.421875 
Q 18.265625 -1.421875 13.375 4.4375 
Q 8.5 10.296875 8.5 21.578125 
" id="BitstreamVeraSans-Roman-75"/>
      <path d="M 45.40625 27.984375 
Q 45.40625 37.75 41.375 43.109375 
Q 37.359375 48.484375 30.078125 48.484375 
Q 22.859375 48.484375 18.828125 43.109375 
Q 14.796875 37.75 14.796875 27.984375 
Q 14.796875 18.265625 18.828125 12.890625 
Q 22.859375 7.515625 30.078125 7.515625 
Q 37.359375 7.515625 41.375 12.890625 
Q 45.40625 18.265625 45.40625 27.984375 
M 54.390625 6.78125 
Q 54.390625 -7.171875 48.1875 -13.984375 
Q 42 -20.796875 29.203125 -20.796875 
Q 24.46875 -20.796875 20.265625 -20.09375 
Q 16.0625 -19.390625 12.109375 -17.921875 
L 12.109375 -9.1875 
Q 16.0625 -11.328125 19.921875 -12.34375 
Q 23.78125 -13.375 27.78125 -13.375 
Q 36.625 -13.375 41.015625 -8.765625 
Q 45.40625 -4.15625 45.40625 5.171875 
L 45.40625 9.625 
Q 42.625 4.78125 38.28125 2.390625 
Q 33.9375 0 27.875 0 
Q 17.828125 0 11.671875 7.65625 
Q 5.515625 15.328125 5.515625 27.984375 
Q 5.515625 40.671875 11.671875 48.328125 
Q 17.828125 56 27.875 56 
Q 33.9375 56 38.28125 53.609375 
Q 42.625 51.21875 45.40625 46.390625 
L 45.40625 54.6875 
L 54.390625 54.6875 
z
" id="BitstreamVeraSans-Roman-67"/>
      <path d="M 48.6875 27.296875 
Q 48.6875 37.203125 44.609375 42.84375 
Q 40.53125 48.484375 33.40625 48.484375 
Q 26.265625 48.484375 22.1875 42.84375 
Q 18.109375 37.203125 18.109375 27.296875 
Q 18.109375 17.390625 22.1875 11.75 
Q 26.265625 6.109375 33.40625 6.109375 
Q 40.53125 6.109375 44.609375 11.75 
Q 48.6875 17.390625 48.6875 27.296875 
M 18.109375 46.390625 
Q 20.953125 51.265625 25.265625 53.625 
Q 29.59375 56 35.59375 56 
Q 45.5625 56 51.78125 48.09375 
Q 58.015625 40.1875 58.015625 27.296875 
Q 58.015625 14.40625 51.78125 6.484375 
Q 45.5625 -1.421875 35.59375 -1.421875 
Q 29.59375 -1.421875 25.265625 0.953125 
Q 20.953125 3.328125 18.109375 8.203125 
L 18.109375 0 
L 9.078125 0 
L 9.078125 75.984375 
L 18.109375 75.984375 
z
" id="BitstreamVeraSans-Roman-62"/>
     </defs>
     <g transform="translate(18.14175 274.302725)rotate(-90.0)scale(0.144 -0.144)">
      <use xlink:href="#BitstreamVeraSans-Roman-52"/>
      <use x="69.451171875" xlink:href="#BitstreamVeraSans-Roman-61"/>
      <use x="130.73046875" xlink:href="#BitstreamVeraSans-Roman-6e"/>
      <use x="194.109375" xlink:href="#BitstreamVeraSans-Roman-64"/>
      <use x="257.5859375" xlink:href="#BitstreamVeraSans-Roman-6f"/>
      <use x="318.767578125" xlink:href="#BitstreamVeraSans-Roman-6d"/>
      <use x="416.1796875" xlink:href="#BitstreamVeraSans-Roman-20"/>
      <use x="447.966796875" xlink:href="#BitstreamVeraSans-Roman-62"/>
      <use x="511.443359375" xlink:href="#BitstreamVeraSans-Roman-75"/>
      <use x="574.822265625" xlink:href="#BitstreamVeraSans-Roman-74"/>
      <use x="614.03125" xlink:href="#BitstreamVeraSans-Roman-20"/>
      <use x="645.818359375" xlink:href="#BitstreamVeraSans-Roman-64"/>
      <use x="709.294921875" xlink:href="#BitstreamVeraSans-Roman-65"/>
      <use x="770.818359375" xlink:href="#BitstreamVeraSans-Roman-63"/>
      <use x="825.798828125" xlink:href="#BitstreamVeraSans-Roman-61"/>
      <use x="887.078125" xlink:href="#BitstreamVeraSans-Roman-79"/>
      <use x="946.2578125" xlink:href="#BitstreamVeraSans-Roman-69"/>
      <use x="974.041015625" xlink:href="#BitstreamVeraSans-Roman-6e"/>
      <use x="1037.419921875" xlink:href="#BitstreamVeraSans-Roman-67"/>
      <use x="1100.896484375" xlink:href="#BitstreamVeraSans-Roman-20"/>
      <use x="1132.68359375" xlink:href="#BitstreamVeraSans-Roman-76"/>
      <use x="1191.86328125" xlink:href="#BitstreamVeraSans-Roman-61"/>
      <use x="1253.142578125" xlink:href="#BitstreamVeraSans-Roman-6c"/>
      <use x="1280.92578125" xlink:href="#BitstreamVeraSans-Roman-75"/>
      <use x="1344.3046875" xlink:href="#BitstreamVeraSans-Roman-65"/>
      <use x="1405.828125" xlink:href="#BitstreamVeraSans-Roman-73"/>
     </g>
    </g>
   </g>
   <g id="text_14">
    <!-- Diverging Datasets -->
    <defs>
     <path d="M 19.671875 64.796875 
L 19.671875 8.109375 
L 31.59375 8.109375 
Q 46.6875 8.109375 53.6875 14.9375 
Q 60.6875 21.78125 60.6875 36.53125 
Q 60.6875 51.171875 53.6875 57.984375 
Q 46.6875 64.796875 31.59375 64.796875 
z
M 9.8125 72.90625 
L 30.078125 72.90625 
Q 51.265625 72.90625 61.171875 64.09375 
Q 71.09375 55.28125 71.09375 36.53125 
Q 71.09375 17.671875 61.125 8.828125 
Q 51.171875 0 30.078125 0 
L 9.8125 0 
z
" id="BitstreamVeraSans-Roman-44"/>
     <path d="M 41.109375 46.296875 
Q 39.59375 47.171875 37.8125 47.578125 
Q 36.03125 48 33.890625 48 
Q 26.265625 48 22.1875 43.046875 
Q 18.109375 38.09375 18.109375 28.8125 
L 18.109375 0 
L 9.078125 0 
L 9.078125 54.6875 
L 18.109375 54.6875 
L 18.109375 46.1875 
Q 20.953125 51.171875 25.484375 53.578125 
Q 30.03125 56 36.53125 56 
Q 37.453125 56 38.578125 55.875 
Q 39.703125 55.765625 41.0625 55.515625 
z
" id="BitstreamVeraSans-Roman-72"/>
    </defs>
    <g transform="translate(189.46005 20.3301)scale(0.1728 -0.1728)">
     <use xlink:href="#BitstreamVeraSans-Roman-44"/>
     <use x="77.001953125" xlink:href="#BitstreamVeraSans-Roman-69"/>
     <use x="104.78515625" xlink:href="#BitstreamVeraSans-Roman-76"/>
     <use x="163.96484375" xlink:href="#BitstreamVeraSans-Roman-65"/>
     <use x="225.48828125" xlink:href="#BitstreamVeraSans-Roman-72"/>
     <use x="266.5859375" xlink:href="#BitstreamVeraSans-Roman-67"/>
     <use x="330.0625" xlink:href="#BitstreamVeraSans-Roman-69"/>
     <use x="357.845703125" xlink:href="#BitstreamVeraSans-Roman-6e"/>
     <use x="421.224609375" xlink:href="#BitstreamVeraSans-Roman-67"/>
     <use x="484.701171875" xlink:href="#BitstreamVeraSans-Roman-20"/>
     <use x="516.48828125" xlink:href="#BitstreamVeraSans-Roman-44"/>
     <use x="593.490234375" xlink:href="#BitstreamVeraSans-Roman-61"/>
     <use x="654.76953125" xlink:href="#BitstreamVeraSans-Roman-74"/>
     <use x="693.978515625" xlink:href="#BitstreamVeraSans-Roman-61"/>
     <use x="755.2578125" xlink:href="#BitstreamVeraSans-Roman-73"/>
     <use x="807.357421875" xlink:href="#BitstreamVeraSans-Roman-65"/>
     <use x="868.880859375" xlink:href="#BitstreamVeraSans-Roman-74"/>
     <use x="908.08984375" xlink:href="#BitstreamVeraSans-Roman-73"/>
    </g>
   </g>
   <g id="legend_1">
    <g id="patch_7">
     <path d="M 56.21745 308.3321 
L 116.580795 308.3321 
Q 118.579995 308.3321 118.579995 306.3329 
L 118.579995 189.95447 
Q 118.579995 187.95527 116.580795 187.95527 
L 56.21745 187.95527 
Q 54.21825 187.95527 54.21825 189.95447 
L 54.21825 306.3329 
Q 54.21825 308.3321 56.21745 308.3321 
z
" style="fill:#ffffff;opacity:0.8;stroke:#000000;stroke-linejoin:miter;stroke-width:0.5;"/>
    </g>
    <g id="line2d_31">
     <path d="M 61.21545 196.050468 
L 75.20985 196.050468 
" style="fill:none;stroke:#4daf4a;stroke-linecap:square;stroke-width:2.0;"/>
    </g>
    <g id="line2d_32"/>
    <g id="text_15">
     <!-- Plot 1 -->
     <defs>
      <path d="M 19.671875 64.796875 
L 19.671875 37.40625 
L 32.078125 37.40625 
Q 38.96875 37.40625 42.71875 40.96875 
Q 46.484375 44.53125 46.484375 51.125 
Q 46.484375 57.671875 42.71875 61.234375 
Q 38.96875 64.796875 32.078125 64.796875 
z
M 9.8125 72.90625 
L 32.078125 72.90625 
Q 44.34375 72.90625 50.609375 67.359375 
Q 56.890625 61.8125 56.890625 51.125 
Q 56.890625 40.328125 50.609375 34.8125 
Q 44.34375 29.296875 32.078125 29.296875 
L 19.671875 29.296875 
L 19.671875 0 
L 9.8125 0 
z
" id="BitstreamVeraSans-Roman-50"/>
     </defs>
     <g transform="translate(86.20545 199.549068125)scale(0.09996 -0.09996)">
      <use xlink:href="#BitstreamVeraSans-Roman-50"/>
      <use x="60.302734375" xlink:href="#BitstreamVeraSans-Roman-6c"/>
      <use x="88.0859375" xlink:href="#BitstreamVeraSans-Roman-6f"/>
      <use x="149.267578125" xlink:href="#BitstreamVeraSans-Roman-74"/>
      <use x="188.4765625" xlink:href="#BitstreamVeraSans-Roman-20"/>
      <use x="220.263671875" xlink:href="#BitstreamVeraSans-Roman-31"/>
     </g>
    </g>
    <g id="line2d_33">
     <path d="M 61.21545 210.722722 
L 75.20985 210.722722 
" style="fill:none;stroke:#419388;stroke-linecap:square;stroke-width:2.0;"/>
    </g>
    <g id="line2d_34"/>
    <g id="text_16">
     <!-- Plot 2 -->
     <g transform="translate(86.20545 214.221321875)scale(0.09996 -0.09996)">
      <use xlink:href="#BitstreamVeraSans-Roman-50"/>
      <use x="60.302734375" xlink:href="#BitstreamVeraSans-Roman-6c"/>
      <use x="88.0859375" xlink:href="#BitstreamVeraSans-Roman-6f"/>
      <use x="149.267578125" xlink:href="#BitstreamVeraSans-Roman-74"/>
      <use x="188.4765625" xlink:href="#BitstreamVeraSans-Roman-20"/>
      <use x="220.263671875" xlink:href="#BitstreamVeraSans-Roman-32"/>
     </g>
    </g>
    <g id="line2d_35">
     <path d="M 61.21545 225.394976 
L 75.20985 225.394976 
" style="fill:none;stroke:#4577b5;stroke-linecap:square;stroke-width:2.0;"/>
    </g>
    <g id="line2d_36"/>
    <g id="text_17">
     <!-- Plot 3 -->
     <defs>
      <path d="M 40.578125 39.3125 
Q 47.65625 37.796875 51.625 33 
Q 55.609375 28.21875 55.609375 21.1875 
Q 55.609375 10.40625 48.1875 4.484375 
Q 40.765625 -1.421875 27.09375 -1.421875 
Q 22.515625 -1.421875 17.65625 -0.515625 
Q 12.796875 0.390625 7.625 2.203125 
L 7.625 11.71875 
Q 11.71875 9.328125 16.59375 8.109375 
Q 21.484375 6.890625 26.8125 6.890625 
Q 36.078125 6.890625 40.9375 10.546875 
Q 45.796875 14.203125 45.796875 21.1875 
Q 45.796875 27.640625 41.28125 31.265625 
Q 36.765625 34.90625 28.71875 34.90625 
L 20.21875 34.90625 
L 20.21875 43.015625 
L 29.109375 43.015625 
Q 36.375 43.015625 40.234375 45.921875 
Q 44.09375 48.828125 44.09375 54.296875 
Q 44.09375 59.90625 40.109375 62.90625 
Q 36.140625 65.921875 28.71875 65.921875 
Q 24.65625 65.921875 20.015625 65.03125 
Q 15.375 64.15625 9.8125 62.3125 
L 9.8125 71.09375 
Q 15.4375 72.65625 20.34375 73.4375 
Q 25.25 74.21875 29.59375 74.21875 
Q 40.828125 74.21875 47.359375 69.109375 
Q 53.90625 64.015625 53.90625 55.328125 
Q 53.90625 49.265625 50.4375 45.09375 
Q 46.96875 40.921875 40.578125 39.3125 
" id="BitstreamVeraSans-Roman-33"/>
     </defs>
     <g transform="translate(86.20545 228.893575625)scale(0.09996 -0.09996)">
      <use xlink:href="#BitstreamVeraSans-Roman-50"/>
      <use x="60.302734375" xlink:href="#BitstreamVeraSans-Roman-6c"/>
      <use x="88.0859375" xlink:href="#BitstreamVeraSans-Roman-6f"/>
      <use x="149.267578125" xlink:href="#BitstreamVeraSans-Roman-74"/>
      <use x="188.4765625" xlink:href="#BitstreamVeraSans-Roman-20"/>
      <use x="220.263671875" xlink:href="#BitstreamVeraSans-Roman-33"/>
     </g>
    </g>
    <g id="line2d_37">
     <path d="M 61.21545 240.067229 
L 75.20985 240.067229 
" style="fill:none;stroke:#7c5ca9;stroke-linecap:square;stroke-width:2.0;"/>
    </g>
    <g id="line2d_38"/>
    <g id="text_18">
     <!-- Plot 4 -->
     <g transform="translate(86.20545 243.565829375)scale(0.09996 -0.09996)">
      <use xlink:href="#BitstreamVeraSans-Roman-50"/>
      <use x="60.302734375" xlink:href="#BitstreamVeraSans-Roman-6c"/>
      <use x="88.0859375" xlink:href="#BitstreamVeraSans-Roman-6f"/>
      <use x="149.267578125" xlink:href="#BitstreamVeraSans-Roman-74"/>
      <use x="188.4765625" xlink:href="#BitstreamVeraSans-Roman-20"/>
      <use x="220.263671875" xlink:href="#BitstreamVeraSans-Roman-34"/>
     </g>
    </g>
    <g id="line2d_39">
     <path d="M 61.21545 254.739483 
L 75.20985 254.739483 
" style="fill:none;stroke:#ae3f7c;stroke-linecap:square;stroke-width:2.0;"/>
    </g>
    <g id="line2d_40"/>
    <g id="text_19">
     <!-- Plot 5 -->
     <g transform="translate(86.20545 258.238083125)scale(0.09996 -0.09996)">
      <use xlink:href="#BitstreamVeraSans-Roman-50"/>
      <use x="60.302734375" xlink:href="#BitstreamVeraSans-Roman-6c"/>
      <use x="88.0859375" xlink:href="#BitstreamVeraSans-Roman-6f"/>
      <use x="149.267578125" xlink:href="#BitstreamVeraSans-Roman-74"/>
      <use x="188.4765625" xlink:href="#BitstreamVeraSans-Roman-20"/>
      <use x="220.263671875" xlink:href="#BitstreamVeraSans-Roman-35"/>
     </g>
    </g>
    <g id="line2d_41">
     <path d="M 61.21545 269.411737 
L 75.20985 269.411737 
" style="fill:none;stroke:#d92230;stroke-linecap:square;stroke-width:2.0;"/>
    </g>
    <g id="line2d_42"/>
    <g id="text_20">
     <!-- Plot 6 -->
     <g transform="translate(86.20545 272.910336875)scale(0.09996 -0.09996)">
      <use xlink:href="#BitstreamVeraSans-Roman-50"/>
      <use x="60.302734375" xlink:href="#BitstreamVeraSans-Roman-6c"/>
      <use x="88.0859375" xlink:href="#BitstreamVeraSans-Roman-6f"/>
      <use x="149.267578125" xlink:href="#BitstreamVeraSans-Roman-74"/>
      <use x="188.4765625" xlink:href="#BitstreamVeraSans-Roman-20"/>
      <use x="220.263671875" xlink:href="#BitstreamVeraSans-Roman-36"/>
     </g>
    </g>
    <g id="line2d_43">
     <path d="M 61.21545 284.083991 
L 75.20985 284.083991 
" style="fill:none;stroke:#f04610;stroke-linecap:square;stroke-width:2.0;"/>
    </g>
    <g id="line2d_44"/>
    <g id="text_21">
     <!-- Plot 7 -->
     <defs>
      <path d="M 8.203125 72.90625 
L 55.078125 72.90625 
L 55.078125 68.703125 
L 28.609375 0 
L 18.3125 0 
L 43.21875 64.59375 
L 8.203125 64.59375 
z
" id="BitstreamVeraSans-Roman-37"/>
     </defs>
     <g transform="translate(86.20545 287.582590625)scale(0.09996 -0.09996)">
      <use xlink:href="#BitstreamVeraSans-Roman-50"/>
      <use x="60.302734375" xlink:href="#BitstreamVeraSans-Roman-6c"/>
      <use x="88.0859375" xlink:href="#BitstreamVeraSans-Roman-6f"/>
      <use x="149.267578125" xlink:href="#BitstreamVeraSans-Roman-74"/>
      <use x="188.4765625" xlink:href="#BitstreamVeraSans-Roman-20"/>
      <use x="220.263671875" xlink:href="#BitstreamVeraSans-Roman-37"/>
     </g>
    </g>
    <g id="line2d_45">
     <path d="M 61.21545 298.756244 
L 75.20985 298.756244 
" style="fill:none;stroke:#ff7f00;stroke-linecap:square;stroke-width:2.0;"/>
    </g>
    <g id="line2d_46"/>
    <g id="text_22">
     <!-- Plot 8 -->
     <g transform="translate(86.20545 302.254844375)scale(0.09996 -0.09996)">
      <use xlink:href="#BitstreamVeraSans-Roman-50"/>
      <use x="60.302734375" xlink:href="#BitstreamVeraSans-Roman-6c"/>
      <use x="88.0859375" xlink:href="#BitstreamVeraSans-Roman-6f"/>
      <use x="149.267578125" xlink:href="#BitstreamVeraSans-Roman-74"/>
      <use x="188.4765625" xlink:href="#BitstreamVeraSans-Roman-20"/>
      <use x="220.263671875" xlink:href="#BitstreamVeraSans-Roman-38"/>
     </g>
    </g>
   </g>
  </g>
 </g>
 <defs>
  <clipPath id="p9c1bf9d18f">
   <rect height="288.0" width="446.4" x="49.22025" y="25.3301"/>
  </clipPath>
 </defs>
</svg>
