<?xml version="1.0" encoding="utf-8" standalone="no"?>
<!DOCTYPE svg PUBLIC "-//W3C//DTD SVG 1.1//EN"
  "http://www.w3.org/Graphics/SVG/1.1/DTD/svg11.dtd">
<!-- Created with matplotlib (http://matplotlib.org/) -->
<svg height="233pt" version="1.1" viewBox="0 0 280 233" width="280pt" xmlns="http://www.w3.org/2000/svg" xmlns:xlink="http://www.w3.org/1999/xlink">
 <defs>
  <style type="text/css">
*{stroke-linecap:butt;stroke-linejoin:round;stroke-miterlimit:100000;}
  </style>
 </defs>
 <g id="figure_1">
  <g id="patch_1">
   <path d="M 0 233.429754 
L 280.470469 233.429754 
L 280.470469 0 
L 0 0 
z
" style="fill:#ffffff;"/>
  </g>
  <g id="axes_1">
   <g id="patch_2">
    <path d="M 43.710514 195.94175 
L 266.910514 195.94175 
L 266.910514 23.14175 
L 43.710514 23.14175 
z
" style="fill:#ffffff;"/>
   </g>
   <g id="line2d_1">
    <path clip-path="url(#paa0be21ba9)" d="M 43.710514 23.661399 
L 44.457002 23.775652 
L 45.20349 24.478995 
L 45.949979 23.936792 
L 46.696467 23.886258 
L 48.935932 24.764511 
L 49.68242 24.078409 
L 51.175397 24.265725 
L 51.921885 25.068874 
L 52.668373 24.324077 
L 53.414862 25.844422 
L 54.16135 26.19761 
L 54.907838 25.061892 
L 55.654326 26.298213 
L 56.400815 26.588727 
L 57.147303 26.703753 
L 57.893791 27.462206 
L 58.64028 27.375159 
L 59.386768 26.596968 
L 60.879745 26.31808 
L 61.626233 27.904381 
L 62.372721 28.994313 
L 63.119209 27.17592 
L 63.865698 28.093419 
L 64.612186 26.979833 
L 65.358674 32.497644 
L 66.105163 30.537129 
L 66.851651 30.826966 
L 67.598139 30.530369 
L 68.344627 27.491853 
L 69.091116 28.486624 
L 69.837604 29.083627 
L 70.584092 33.000457 
L 71.330581 31.939849 
L 72.077069 28.360455 
L 72.823557 35.012379 
L 73.570046 33.761704 
L 74.316534 33.227488 
L 75.063022 30.51044 
L 75.80951 40.929359 
L 76.555999 32.297048 
L 77.302487 36.10107 
L 78.048975 49.263998 
L 78.795464 50.286505 
L 79.541952 44.240341 
L 80.28844 40.143777 
L 81.034928 39.278626 
L 81.781417 31.746379 
L 82.527905 45.765469 
L 83.274393 63.582709 
L 84.020882 46.783283 
L 84.76737 53.79433 
L 85.513858 65.032083 
L 86.260347 67.225167 
L 87.006835 43.961744 
L 87.753323 57.261294 
L 88.499811 62.817308 
L 89.2463 60.189098 
L 89.992788 78.755574 
L 90.739276 61.77634 
L 91.485765 55.484611 
L 92.232253 86.318623 
L 92.978741 85.146646 
L 93.725229 61.18321 
L 94.471718 73.012377 
L 95.218206 70.691052 
L 95.964694 86.306036 
L 96.711183 60.675842 
L 97.457671 103.379843 
L 98.204159 103.529485 
L 98.950648 104.80127 
L 99.697136 132.73459 
L 100.443624 89.457016 
L 101.190112 119.073432 
L 101.936601 117.264055 
L 102.683089 125.879825 
L 103.429577 109.666204 
L 104.176066 137.751005 
L 104.922554 145.643213 
L 105.669042 144.454535 
L 106.41553 149.993083 
L 107.162019 128.069288 
L 107.908507 157.809538 
L 108.654995 136.661569 
L 110.147972 191.085383 
L 110.89446 153.289964 
L 111.640949 168.597619 
L 112.387437 179.225316 
L 113.133925 161.334769 
L 113.880413 180.041152 
L 114.626902 183.590026 
L 115.37339 165.116805 
L 116.119878 184.028166 
L 116.866367 194.945848 
L 117.612855 192.105111 
L 118.359343 171.647554 
L 119.105831 193.395669 
L 119.85232 195.311024 
L 120.598808 195.210026 
L 121.345296 195.787058 
L 122.091785 189.265365 
L 122.838273 194.889059 
L 123.584761 195.822361 
L 124.33125 191.202277 
L 125.077738 195.112694 
L 125.824226 195.836581 
L 127.317203 195.764289 
L 128.063691 195.94121 
L 131.049644 195.94175 
L 266.910514 195.94175 
L 266.910514 195.94175 
" style="fill:none;stroke:#4daf4a;stroke-linecap:square;stroke-width:2.0;"/>
   </g>
   <g id="line2d_2">
    <path clip-path="url(#paa0be21ba9)" d="M 43.710514 23.313799 
L 46.696467 23.263791 
L 47.442955 23.48123 
L 48.189444 23.365987 
L 48.935932 23.501935 
L 49.68242 23.395679 
L 51.175397 23.381437 
L 53.414862 23.511456 
L 55.654326 23.700794 
L 56.400815 23.810237 
L 57.147303 23.757231 
L 57.893791 23.979545 
L 60.133256 23.724632 
L 60.879745 24.058524 
L 61.626233 24.744054 
L 62.372721 24.296406 
L 63.119209 24.451365 
L 63.865698 23.823973 
L 64.612186 24.312484 
L 65.358674 24.191347 
L 66.105163 24.314398 
L 66.851651 24.14843 
L 67.598139 24.388675 
L 68.344627 25.176827 
L 69.091116 25.764151 
L 69.837604 25.048557 
L 70.584092 24.691601 
L 71.330581 25.991895 
L 72.077069 24.733979 
L 72.823557 25.288491 
L 73.570046 25.430782 
L 74.316534 26.64825 
L 75.063022 26.017626 
L 75.80951 25.86154 
L 76.555999 25.88561 
L 77.302487 27.840046 
L 78.048975 26.343962 
L 78.795464 28.382979 
L 79.541952 24.932313 
L 80.28844 26.720531 
L 81.034928 26.999307 
L 81.781417 31.916655 
L 82.527905 28.760407 
L 83.274393 27.50728 
L 84.020882 33.007767 
L 84.76737 30.828406 
L 85.513858 32.016525 
L 86.260347 33.789219 
L 87.006835 32.254514 
L 87.753323 35.726818 
L 89.2463 29.259643 
L 89.992788 42.865212 
L 90.739276 35.654013 
L 91.485765 35.557264 
L 92.232253 31.312133 
L 92.978741 34.3224 
L 93.725229 33.212883 
L 94.471718 39.211768 
L 95.218206 42.332476 
L 95.964694 44.080951 
L 96.711183 46.524515 
L 97.457671 45.784881 
L 98.204159 77.214664 
L 98.950648 44.869138 
L 99.697136 50.181229 
L 100.443624 50.5143 
L 101.190112 51.518807 
L 101.936601 52.251361 
L 102.683089 73.995829 
L 104.176066 52.484924 
L 104.922554 64.135329 
L 105.669042 52.33631 
L 106.41553 86.557153 
L 107.162019 72.902777 
L 107.908507 49.649761 
L 108.654995 62.801873 
L 109.401484 59.820671 
L 110.89446 104.164176 
L 111.640949 79.042036 
L 112.387437 68.227565 
L 113.133925 112.963185 
L 113.880413 82.819372 
L 114.626902 74.659712 
L 115.37339 102.715497 
L 116.119878 115.544508 
L 116.866367 107.095222 
L 117.612855 147.097524 
L 118.359343 136.185627 
L 119.105831 127.087232 
L 119.85232 112.537767 
L 120.598808 150.455351 
L 121.345296 101.802238 
L 122.091785 152.637963 
L 122.838273 175.313976 
L 123.584761 149.364388 
L 124.33125 142.846652 
L 125.077738 169.43955 
L 125.824226 183.092512 
L 126.570714 177.665155 
L 127.317203 177.821184 
L 128.063691 182.39166 
L 128.810179 176.114381 
L 129.556668 190.195411 
L 130.303156 195.18607 
L 131.049644 189.59491 
L 131.796132 195.091999 
L 132.542621 195.642421 
L 133.289109 190.048926 
L 134.035597 193.975159 
L 134.782086 195.931892 
L 135.528574 195.724109 
L 136.275062 195.935825 
L 137.021551 195.690134 
L 137.768039 195.895316 
L 138.514527 195.499609 
L 139.261015 195.923024 
L 141.50048 195.941597 
L 142.246969 195.715909 
L 142.993457 195.941577 
L 163.148641 195.94175 
L 266.910514 195.94175 
L 266.910514 195.94175 
" style="fill:none;stroke:#419388;stroke-linecap:square;stroke-width:2.0;"/>
   </g>
   <g id="line2d_3">
    <path clip-path="url(#paa0be21ba9)" d="M 43.710514 23.176247 
L 61.626233 23.334636 
L 62.372721 23.570462 
L 63.119209 23.434702 
L 64.612186 23.372159 
L 65.358674 23.610232 
L 66.851651 23.560533 
L 69.091116 23.659984 
L 69.837604 23.527604 
L 71.330581 23.823302 
L 72.077069 23.719788 
L 72.823557 23.758047 
L 73.570046 24.012684 
L 74.316534 23.942333 
L 75.063022 23.745278 
L 75.80951 23.852267 
L 76.555999 24.527063 
L 77.302487 24.136859 
L 78.048975 24.060523 
L 78.795464 24.716066 
L 79.541952 24.276274 
L 80.28844 25.090541 
L 81.781417 24.498839 
L 82.527905 24.543631 
L 83.274393 24.939755 
L 84.020882 24.610759 
L 84.76737 25.376352 
L 86.260347 24.688371 
L 87.006835 24.947425 
L 87.753323 26.722958 
L 88.499811 25.339214 
L 89.2463 26.561173 
L 89.992788 30.931427 
L 90.739276 26.168304 
L 92.232253 27.248983 
L 92.978741 29.443549 
L 93.725229 26.786124 
L 94.471718 29.956175 
L 95.218206 30.666608 
L 95.964694 25.760381 
L 96.711183 29.303111 
L 97.457671 34.801904 
L 98.204159 29.836525 
L 98.950648 37.704227 
L 99.697136 31.380915 
L 101.190112 33.85918 
L 101.936601 36.307416 
L 102.683089 30.807143 
L 103.429577 31.713304 
L 104.176066 34.42211 
L 104.922554 33.75874 
L 105.669042 36.346356 
L 106.41553 35.64042 
L 107.162019 35.121853 
L 107.908507 47.607724 
L 108.654995 42.491428 
L 109.401484 42.95515 
L 110.147972 35.057354 
L 110.89446 42.929279 
L 111.640949 48.812391 
L 112.387437 35.378926 
L 113.133925 47.488182 
L 113.880413 47.391618 
L 114.626902 49.110421 
L 115.37339 40.676175 
L 116.119878 43.720908 
L 117.612855 65.648368 
L 118.359343 48.29877 
L 119.105831 64.813763 
L 119.85232 100.709306 
L 120.598808 82.833375 
L 121.345296 76.932633 
L 122.091785 61.454639 
L 122.838273 65.214878 
L 123.584761 91.868531 
L 124.33125 71.348318 
L 125.077738 111.09629 
L 125.824226 88.682296 
L 126.570714 100.563773 
L 127.317203 101.529191 
L 128.063691 107.043852 
L 128.810179 97.974804 
L 129.556668 93.45851 
L 130.303156 117.897794 
L 131.049644 127.757271 
L 131.796132 131.783271 
L 132.542621 92.155709 
L 133.289109 131.867251 
L 134.035597 101.423622 
L 134.782086 127.516364 
L 135.528574 147.212944 
L 136.275062 154.949865 
L 137.021551 137.113558 
L 137.768039 134.319197 
L 138.514527 133.638295 
L 139.261015 147.580472 
L 140.007504 168.487923 
L 140.753992 161.961408 
L 141.50048 135.88361 
L 142.246969 183.888403 
L 142.993457 170.274878 
L 143.739945 176.21296 
L 144.486433 187.702462 
L 145.232922 164.723576 
L 145.97941 193.748218 
L 146.725898 178.718608 
L 147.472387 178.079836 
L 148.218875 174.523816 
L 148.965363 188.856727 
L 149.711852 193.992577 
L 150.45834 190.588107 
L 151.204828 191.951158 
L 151.951316 193.678842 
L 152.697805 194.987615 
L 153.444293 179.592028 
L 154.190781 195.554773 
L 154.93727 195.854121 
L 155.683758 194.615459 
L 156.430246 195.937958 
L 157.923223 195.920031 
L 163.895129 195.941749 
L 166.881082 195.94175 
L 167.627571 195.771767 
L 168.374059 195.941749 
L 266.910514 195.94175 
L 266.910514 195.94175 
" style="fill:none;stroke:#4577b5;stroke-linecap:square;stroke-width:2.0;"/>
   </g>
   <g id="line2d_4">
    <path clip-path="url(#paa0be21ba9)" d="M 43.710514 23.149583 
L 61.626233 23.199288 
L 65.358674 23.207052 
L 67.598139 23.229165 
L 70.584092 23.229474 
L 73.570046 23.245726 
L 75.063022 23.378104 
L 81.781417 23.414238 
L 83.274393 23.716629 
L 84.020882 23.463472 
L 84.76737 23.393399 
L 86.260347 23.577699 
L 87.006835 23.429453 
L 88.499811 24.025053 
L 89.2463 23.627869 
L 89.992788 23.931842 
L 90.739276 24.09961 
L 91.485765 23.655147 
L 92.232253 23.682269 
L 92.978741 24.285845 
L 93.725229 23.94914 
L 94.471718 24.462813 
L 95.218206 24.703926 
L 95.964694 23.944189 
L 96.711183 25.722928 
L 97.457671 24.105308 
L 98.950648 24.152844 
L 99.697136 25.847624 
L 100.443624 24.416049 
L 101.190112 26.018648 
L 101.936601 25.108414 
L 102.683089 25.919108 
L 103.429577 25.463812 
L 104.176066 24.729679 
L 104.922554 28.715104 
L 105.669042 26.390596 
L 106.41553 26.018367 
L 107.162019 24.834059 
L 108.654995 26.941359 
L 110.147972 28.536946 
L 110.89446 25.992014 
L 111.640949 27.146095 
L 112.387437 26.760322 
L 113.880413 31.536492 
L 114.626902 27.773033 
L 115.37339 30.247173 
L 116.119878 30.327104 
L 116.866367 29.189247 
L 117.612855 31.629015 
L 118.359343 32.634627 
L 119.105831 33.903059 
L 119.85232 30.841606 
L 120.598808 36.435739 
L 121.345296 30.949327 
L 122.091785 33.98621 
L 122.838273 29.215565 
L 123.584761 36.869085 
L 124.33125 35.377238 
L 125.077738 33.132806 
L 125.824226 43.855086 
L 126.570714 47.6994 
L 127.317203 32.58553 
L 128.063691 55.95375 
L 128.810179 36.71453 
L 129.556668 40.551627 
L 130.303156 42.827449 
L 131.049644 50.450755 
L 131.796132 49.192789 
L 132.542621 56.738672 
L 133.289109 67.441095 
L 134.035597 51.458438 
L 134.782086 57.475223 
L 135.528574 56.61206 
L 136.275062 71.201716 
L 137.021551 59.50091 
L 137.768039 71.0078 
L 138.514527 57.534314 
L 139.261015 64.122522 
L 140.007504 76.84217 
L 140.753992 55.756221 
L 141.50048 92.966079 
L 142.246969 83.545361 
L 142.993457 85.794696 
L 143.739945 95.595181 
L 144.486433 85.977233 
L 145.232922 78.608258 
L 145.97941 100.540188 
L 146.725898 103.366681 
L 147.472387 129.332166 
L 148.218875 103.639482 
L 148.965363 93.055856 
L 149.711852 136.710133 
L 150.45834 117.877779 
L 151.204828 151.880195 
L 151.951316 153.659303 
L 152.697805 116.062313 
L 153.444293 126.690307 
L 154.190781 152.680477 
L 154.93727 136.768009 
L 155.683758 133.760245 
L 156.430246 163.615005 
L 157.176734 164.064509 
L 157.923223 136.262787 
L 158.669711 147.266213 
L 159.416199 167.856916 
L 160.162688 142.309124 
L 160.909176 174.922774 
L 161.655664 184.551293 
L 162.402153 190.53091 
L 163.148641 181.735951 
L 163.895129 194.180496 
L 164.641617 184.337199 
L 165.388106 183.452401 
L 166.134594 159.578333 
L 166.881082 185.240952 
L 167.627571 192.206975 
L 168.374059 189.630133 
L 169.120547 192.328728 
L 169.867035 191.477596 
L 170.613524 195.935064 
L 171.360012 192.574335 
L 172.1065 195.279927 
L 172.852989 192.892033 
L 173.599477 195.248538 
L 174.345965 194.810315 
L 175.092454 195.886776 
L 175.838942 195.787898 
L 176.58543 195.921428 
L 178.078407 195.941351 
L 178.824895 195.73223 
L 179.571383 195.911162 
L 184.050313 195.94175 
L 266.910514 195.94175 
L 266.910514 195.94175 
" style="fill:none;stroke:#7c5ca9;stroke-linecap:square;stroke-width:2.0;"/>
   </g>
   <g id="line2d_5">
    <path clip-path="url(#paa0be21ba9)" d="M 43.710514 23.144136 
L 90.739276 23.237814 
L 97.457671 23.343358 
L 98.950648 23.264595 
L 100.443624 23.368121 
L 106.41553 23.498974 
L 107.162019 23.796627 
L 107.908507 23.604601 
L 108.654995 23.611311 
L 109.401484 23.499717 
L 110.147972 23.521927 
L 110.89446 23.739252 
L 111.640949 23.623862 
L 112.387437 23.790808 
L 113.133925 23.662511 
L 113.880413 23.860501 
L 115.37339 23.643596 
L 116.119878 23.771949 
L 116.866367 25.041558 
L 117.612855 23.886971 
L 119.105831 23.888186 
L 119.85232 24.216179 
L 120.598808 24.067825 
L 121.345296 24.579999 
L 122.091785 24.565734 
L 122.838273 24.087619 
L 124.33125 25.585179 
L 125.077738 25.000298 
L 125.824226 25.638594 
L 126.570714 25.202121 
L 127.317203 25.465814 
L 128.063691 25.299732 
L 128.810179 26.042497 
L 129.556668 25.806654 
L 130.303156 26.733332 
L 131.049644 25.984704 
L 131.796132 26.354091 
L 132.542621 25.917555 
L 133.289109 26.191321 
L 134.035597 27.00597 
L 134.782086 26.381473 
L 135.528574 27.132977 
L 136.275062 28.899183 
L 137.021551 26.856449 
L 138.514527 29.50573 
L 139.261015 27.966621 
L 140.007504 29.5284 
L 140.753992 28.753289 
L 141.50048 31.333794 
L 142.246969 33.055483 
L 142.993457 30.969019 
L 143.739945 34.630359 
L 144.486433 29.656978 
L 145.232922 35.697908 
L 145.97941 31.404855 
L 146.725898 35.403641 
L 147.472387 32.690054 
L 148.218875 40.936511 
L 148.965363 38.902337 
L 149.711852 41.941883 
L 150.45834 38.355859 
L 151.204828 43.866813 
L 151.951316 46.999211 
L 152.697805 45.260025 
L 153.444293 42.371522 
L 154.190781 53.923016 
L 154.93727 46.809681 
L 155.683758 53.27569 
L 156.430246 80.264732 
L 157.176734 51.705048 
L 157.923223 53.468826 
L 158.669711 66.847566 
L 159.416199 66.744363 
L 160.162688 62.756094 
L 160.909176 49.743992 
L 161.655664 43.097113 
L 162.402153 65.102695 
L 163.148641 53.512207 
L 163.895129 81.696094 
L 164.641617 79.245112 
L 165.388106 71.865954 
L 166.134594 91.943747 
L 166.881082 104.509331 
L 167.627571 88.438111 
L 168.374059 92.431976 
L 169.120547 108.586406 
L 169.867035 110.416228 
L 170.613524 131.200517 
L 171.360012 142.355734 
L 172.1065 124.713106 
L 172.852989 186.182417 
L 173.599477 116.215998 
L 174.345965 141.717357 
L 175.092454 177.921017 
L 175.838942 146.811185 
L 176.58543 167.395358 
L 177.331918 144.895102 
L 178.078407 162.809832 
L 179.571383 135.406551 
L 180.317872 166.110878 
L 181.06436 172.406105 
L 181.810848 188.641512 
L 182.557336 170.469506 
L 183.303825 185.332867 
L 184.796801 161.159403 
L 185.54329 192.529501 
L 186.289778 192.187305 
L 187.036266 194.964446 
L 187.782755 189.05867 
L 188.529243 190.409672 
L 189.275731 194.909688 
L 190.022219 195.506139 
L 190.768708 194.690077 
L 191.515196 192.362155 
L 192.261684 195.558224 
L 193.008173 195.384966 
L 193.754661 195.926111 
L 194.501149 195.567745 
L 195.247637 193.396993 
L 195.994126 194.915056 
L 196.740614 193.038633 
L 197.487102 195.941657 
L 200.473056 195.835467 
L 201.219544 195.662709 
L 201.966032 195.940104 
L 266.910514 195.94175 
L 266.910514 195.94175 
" style="fill:none;stroke:#ae3f7c;stroke-linecap:square;stroke-width:2.0;"/>
   </g>
   <g id="line2d_6">
    <path clip-path="url(#paa0be21ba9)" d="M 43.710514 23.14218 
L 96.711183 23.195529 
L 97.457671 23.269426 
L 98.950648 23.221009 
L 99.697136 23.300539 
L 101.190112 23.230509 
L 108.654995 23.332501 
L 109.401484 23.253777 
L 110.147972 23.359125 
L 110.89446 23.336214 
L 111.640949 23.52498 
L 113.133925 23.420188 
L 113.880413 23.640069 
L 114.626902 23.453952 
L 116.119878 23.403448 
L 116.866367 23.665391 
L 117.612855 23.492914 
L 118.359343 23.699177 
L 119.85232 23.631493 
L 120.598808 24.189508 
L 121.345296 23.668407 
L 122.838273 24.658088 
L 123.584761 24.11148 
L 124.33125 23.983622 
L 125.077738 24.142366 
L 126.570714 23.814723 
L 127.317203 23.949555 
L 128.063691 24.307705 
L 128.810179 24.894203 
L 129.556668 24.195903 
L 130.303156 24.718191 
L 131.049644 25.614787 
L 131.796132 24.217081 
L 132.542621 24.781656 
L 133.289109 24.91784 
L 134.035597 25.643617 
L 134.782086 25.644335 
L 135.528574 24.977581 
L 136.275062 26.047914 
L 137.021551 24.692827 
L 137.768039 26.422576 
L 138.514527 25.812797 
L 139.261015 27.208961 
L 140.007504 28.132549 
L 140.753992 26.371222 
L 141.50048 26.932943 
L 142.246969 27.663894 
L 142.993457 27.230884 
L 143.739945 32.670422 
L 144.486433 29.328998 
L 145.232922 30.797087 
L 145.97941 31.354401 
L 146.725898 29.224231 
L 147.472387 29.736461 
L 148.218875 29.917401 
L 148.965363 31.909912 
L 149.711852 36.374556 
L 150.45834 33.454352 
L 151.204828 40.85231 
L 151.951316 33.675307 
L 152.697805 39.048951 
L 153.444293 33.775247 
L 154.190781 38.806594 
L 154.93727 46.62203 
L 155.683758 40.09889 
L 156.430246 52.402994 
L 157.176734 45.438781 
L 157.923223 45.785146 
L 158.669711 48.519966 
L 159.416199 34.102976 
L 160.162688 48.083683 
L 160.909176 51.116946 
L 161.655664 55.078201 
L 162.402153 46.054138 
L 163.148641 48.657779 
L 163.895129 56.44021 
L 164.641617 70.516661 
L 165.388106 69.837289 
L 166.134594 88.19569 
L 166.881082 61.499287 
L 167.627571 73.638364 
L 168.374059 53.396121 
L 169.120547 62.755256 
L 169.867035 87.76446 
L 170.613524 90.451593 
L 171.360012 125.457486 
L 172.1065 81.872349 
L 172.852989 75.552276 
L 174.345965 99.880458 
L 175.092454 126.630358 
L 175.838942 125.289301 
L 176.58543 101.90128 
L 177.331918 118.673661 
L 178.078407 89.849533 
L 178.824895 142.27794 
L 179.571383 144.44051 
L 180.317872 129.541542 
L 181.06436 97.106941 
L 181.810848 133.992239 
L 182.557336 148.752093 
L 183.303825 180.981004 
L 184.050313 142.129564 
L 185.54329 173.629331 
L 186.289778 172.831476 
L 187.036266 177.515287 
L 187.782755 175.303268 
L 188.529243 168.083637 
L 189.275731 186.520272 
L 190.022219 170.748494 
L 190.768708 191.273692 
L 192.261684 184.846052 
L 193.008173 190.711118 
L 193.754661 190.553245 
L 194.501149 189.734436 
L 195.247637 195.627618 
L 195.994126 195.233942 
L 196.740614 195.873978 
L 197.487102 195.388899 
L 198.233591 195.841977 
L 198.980079 191.734702 
L 199.726567 195.903402 
L 200.473056 195.687138 
L 201.219544 195.672437 
L 201.966032 195.919447 
L 202.71252 195.797328 
L 203.459009 194.607645 
L 204.205497 195.940352 
L 204.951985 195.941645 
L 205.698474 191.784824 
L 206.444962 195.889581 
L 208.684427 195.94175 
L 266.910514 195.94175 
L 266.910514 195.94175 
" style="fill:none;stroke:#d92230;stroke-linecap:square;stroke-width:2.0;"/>
   </g>
   <g id="line2d_7">
    <path clip-path="url(#paa0be21ba9)" d="M 43.710514 23.141867 
L 126.570714 23.237788 
L 128.063691 23.401756 
L 128.810179 23.234914 
L 130.303156 23.302105 
L 131.796132 23.427543 
L 133.289109 23.261983 
L 134.782086 23.439502 
L 136.275062 23.48023 
L 137.021551 23.535123 
L 137.768039 23.440516 
L 138.514527 23.59188 
L 142.246969 23.562653 
L 142.993457 23.743147 
L 143.739945 23.768079 
L 144.486433 23.66065 
L 145.232922 24.325187 
L 145.97941 23.86472 
L 146.725898 24.358481 
L 147.472387 23.678942 
L 148.218875 24.072599 
L 148.965363 24.063838 
L 149.711852 23.757205 
L 150.45834 24.365227 
L 151.204828 23.752488 
L 151.951316 24.119806 
L 152.697805 23.947022 
L 153.444293 24.027015 
L 154.190781 24.774969 
L 154.93727 25.08077 
L 155.683758 24.32568 
L 156.430246 23.880467 
L 157.176734 23.932713 
L 157.923223 25.022169 
L 158.669711 24.955672 
L 159.416199 25.005898 
L 160.162688 24.740992 
L 160.909176 24.874799 
L 161.655664 26.034002 
L 162.402153 25.537579 
L 163.148641 25.42269 
L 163.895129 25.831526 
L 164.641617 24.94023 
L 165.388106 27.258741 
L 166.134594 26.35839 
L 166.881082 28.446989 
L 167.627571 27.287215 
L 168.374059 25.565995 
L 169.120547 26.324942 
L 169.867035 27.434952 
L 170.613524 28.002988 
L 171.360012 29.864798 
L 172.1065 29.222856 
L 172.852989 28.748025 
L 173.599477 32.082823 
L 174.345965 29.003657 
L 175.092454 31.284309 
L 175.838942 29.746586 
L 176.58543 35.43623 
L 177.331918 35.353026 
L 178.078407 42.849866 
L 178.824895 32.548047 
L 179.571383 36.900316 
L 180.317872 32.726773 
L 181.06436 60.399913 
L 181.810848 43.222009 
L 182.557336 48.996846 
L 183.303825 47.064669 
L 184.050313 37.231843 
L 184.796801 44.056794 
L 185.54329 45.419625 
L 186.289778 40.809589 
L 187.036266 45.541985 
L 187.782755 54.604884 
L 188.529243 56.91504 
L 189.275731 50.737634 
L 190.022219 52.938167 
L 190.768708 68.071443 
L 191.515196 51.083765 
L 192.261684 61.084495 
L 193.008173 46.43452 
L 193.754661 76.122604 
L 194.501149 57.81492 
L 195.247637 82.368491 
L 195.994126 69.256782 
L 196.740614 59.08301 
L 197.487102 78.12961 
L 198.233591 80.485455 
L 198.980079 100.911359 
L 199.726567 75.542202 
L 200.473056 82.243872 
L 201.219544 115.129292 
L 201.966032 137.724982 
L 202.71252 86.980885 
L 203.459009 123.602565 
L 204.205497 124.736248 
L 204.951985 123.46068 
L 205.698474 104.760708 
L 206.444962 141.729229 
L 207.19145 125.620637 
L 207.937938 118.880779 
L 209.430915 99.714111 
L 210.177403 123.036714 
L 210.923892 108.37988 
L 211.67038 135.750564 
L 212.416868 143.619846 
L 213.163357 164.150843 
L 213.909845 117.176384 
L 214.656333 170.95328 
L 215.402821 147.44004 
L 216.14931 175.016269 
L 216.895798 174.702046 
L 217.642286 147.666033 
L 218.388775 168.415577 
L 219.135263 182.609557 
L 219.881751 184.77546 
L 220.62824 149.11909 
L 221.374728 186.618634 
L 222.121216 191.716293 
L 222.867704 193.517682 
L 223.614193 194.631965 
L 224.360681 192.406711 
L 225.107169 194.426355 
L 225.853658 188.344304 
L 226.600146 193.627917 
L 227.346634 193.43226 
L 228.093122 194.475912 
L 228.839611 189.732625 
L 229.586099 193.710026 
L 230.332587 195.79763 
L 231.079076 195.938403 
L 232.572052 195.854295 
L 234.065029 195.940756 
L 266.910514 195.94175 
L 266.910514 195.94175 
" style="fill:none;stroke:#f04610;stroke-linecap:square;stroke-width:2.0;"/>
   </g>
   <g id="line2d_8">
    <path clip-path="url(#paa0be21ba9)" d="M 43.710514 23.141766 
L 137.768039 23.19829 
L 139.261015 23.277201 
L 140.753992 23.230701 
L 149.711852 23.270004 
L 150.45834 23.466025 
L 151.951316 23.33398 
L 152.697805 23.477801 
L 153.444293 23.389723 
L 154.190781 23.505003 
L 154.93727 23.40312 
L 155.683758 23.651428 
L 156.430246 23.504722 
L 157.176734 23.718138 
L 157.923223 23.502516 
L 158.669711 23.881759 
L 160.162688 23.548159 
L 160.909176 23.746672 
L 162.402153 23.795336 
L 163.895129 23.653969 
L 164.641617 23.987321 
L 165.388106 23.871662 
L 166.134594 24.188261 
L 166.881082 24.020432 
L 167.627571 24.253738 
L 169.867035 24.050703 
L 170.613524 24.621355 
L 171.360012 24.341683 
L 172.1065 24.617404 
L 172.852989 23.999551 
L 173.599477 24.742418 
L 174.345965 24.432915 
L 175.092454 24.938856 
L 175.838942 24.472417 
L 176.58543 25.48758 
L 177.331918 25.449453 
L 178.078407 25.641261 
L 178.824895 27.152394 
L 179.571383 25.363448 
L 180.317872 26.141576 
L 181.06436 27.765473 
L 181.810848 25.254958 
L 182.557336 27.309721 
L 183.303825 25.686226 
L 184.050313 27.098902 
L 184.796801 29.142822 
L 185.54329 29.108714 
L 186.289778 27.806481 
L 187.036266 32.635887 
L 187.782755 29.497111 
L 188.529243 27.296762 
L 189.275731 28.047027 
L 190.022219 29.650435 
L 190.768708 33.273697 
L 191.515196 31.661772 
L 192.261684 28.359483 
L 193.008173 35.189828 
L 193.754661 33.067429 
L 194.501149 33.182314 
L 195.247637 37.782073 
L 195.994126 33.384571 
L 196.740614 35.278189 
L 197.487102 38.57181 
L 198.233591 47.437646 
L 198.980079 38.075493 
L 199.726567 35.999938 
L 200.473056 48.837662 
L 201.219544 42.534008 
L 201.966032 39.343536 
L 202.71252 46.913415 
L 203.459009 38.52467 
L 204.951985 64.657963 
L 205.698474 52.902954 
L 206.444962 53.470687 
L 207.19145 61.630177 
L 207.937938 58.162165 
L 208.684427 78.522132 
L 209.430915 77.986487 
L 210.177403 69.77296 
L 211.67038 79.100898 
L 212.416868 76.503428 
L 213.163357 89.281283 
L 213.909845 80.852057 
L 214.656333 78.288306 
L 215.402821 91.400216 
L 216.14931 108.950445 
L 216.895798 91.181818 
L 217.642286 87.805585 
L 218.388775 115.678702 
L 219.135263 134.157297 
L 219.881751 109.949736 
L 220.62824 98.269522 
L 221.374728 103.55 
L 222.121216 106.482215 
L 222.867704 162.518338 
L 223.614193 151.06543 
L 224.360681 154.484945 
L 225.107169 160.967639 
L 225.853658 159.272141 
L 226.600146 129.505035 
L 227.346634 168.558828 
L 228.093122 162.493466 
L 228.839611 132.473932 
L 229.586099 151.085207 
L 230.332587 157.518877 
L 231.079076 168.341663 
L 231.825564 181.820542 
L 232.572052 192.449693 
L 233.318541 190.630871 
L 234.065029 177.180066 
L 234.811517 181.665221 
L 235.558005 190.27766 
L 236.304494 164.87647 
L 237.050982 189.518499 
L 237.79747 193.302406 
L 238.543959 187.052073 
L 239.290447 194.211636 
L 240.036935 183.60394 
L 240.783423 195.418037 
L 241.529912 195.883598 
L 242.2764 194.211512 
L 243.022888 194.135343 
L 243.769377 194.559825 
L 244.515865 195.847313 
L 246.008842 195.790572 
L 246.75533 195.499293 
L 247.501818 193.785601 
L 248.248306 195.93352 
L 248.994795 195.868961 
L 250.487771 195.941301 
L 266.910514 195.94175 
L 266.910514 195.94175 
" style="fill:none;stroke:#ff7f00;stroke-linecap:square;stroke-width:2.0;"/>
   </g>
   <g id="patch_3">
    <path d="M 43.710514 195.94175 
L 266.910514 195.94175 
" style="fill:none;stroke:#000000;stroke-linecap:square;stroke-linejoin:miter;"/>
   </g>
   <g id="patch_4">
    <path d="M 43.710514 195.94175 
L 43.710514 23.14175 
" style="fill:none;stroke:#000000;stroke-linecap:square;stroke-linejoin:miter;"/>
   </g>
   <g id="patch_5">
    <path d="M 43.710514 23.14175 
L 266.910514 23.14175 
" style="fill:none;stroke:#000000;stroke-linecap:square;stroke-linejoin:miter;"/>
   </g>
   <g id="patch_6">
    <path d="M 266.910514 195.94175 
L 266.910514 23.14175 
" style="fill:none;stroke:#000000;stroke-linecap:square;stroke-linejoin:miter;"/>
   </g>
   <g id="matplotlib.axis_1">
    <g id="xtick_1">
     <g id="line2d_9">
      <defs>
       <path d="M 0 0 
L 0 -4 
" id="m4bb1ebc907" style="stroke:#000000;stroke-width:0.5;"/>
      </defs>
      <g>
       <use style="stroke:#000000;stroke-width:0.5;" x="43.71051375" xlink:href="#m4bb1ebc907" y="195.94175"/>
      </g>
     </g>
     <g id="line2d_10">
      <defs>
       <path d="M 0 0 
L 0 4 
" id="m24d8bc2453" style="stroke:#000000;stroke-width:0.5;"/>
      </defs>
      <g>
       <use style="stroke:#000000;stroke-width:0.5;" x="43.71051375" xlink:href="#m24d8bc2453" y="23.14175"/>
      </g>
     </g>
     <g id="text_1">
      <!-- −10 -->
      <defs>
       <path d="M 10.59375 35.5 
L 73.1875 35.5 
L 73.1875 27.203125 
L 10.59375 27.203125 
z
" id="BitstreamVeraSans-Roman-2212"/>
       <path d="M 12.40625 8.296875 
L 28.515625 8.296875 
L 28.515625 63.921875 
L 10.984375 60.40625 
L 10.984375 69.390625 
L 28.421875 72.90625 
L 38.28125 72.90625 
L 38.28125 8.296875 
L 54.390625 8.296875 
L 54.390625 0 
L 12.40625 0 
z
" id="BitstreamVeraSans-Roman-31"/>
       <path d="M 31.78125 66.40625 
Q 24.171875 66.40625 20.328125 58.90625 
Q 16.5 51.421875 16.5 36.375 
Q 16.5 21.390625 20.328125 13.890625 
Q 24.171875 6.390625 31.78125 6.390625 
Q 39.453125 6.390625 43.28125 13.890625 
Q 47.125 21.390625 47.125 36.375 
Q 47.125 51.421875 43.28125 58.90625 
Q 39.453125 66.40625 31.78125 66.40625 
M 31.78125 74.21875 
Q 44.046875 74.21875 50.515625 64.515625 
Q 56.984375 54.828125 56.984375 36.375 
Q 56.984375 17.96875 50.515625 8.265625 
Q 44.046875 -1.421875 31.78125 -1.421875 
Q 19.53125 -1.421875 13.0625 8.265625 
Q 6.59375 17.96875 6.59375 36.375 
Q 6.59375 54.828125 13.0625 64.515625 
Q 19.53125 74.21875 31.78125 74.21875 
" id="BitstreamVeraSans-Roman-30"/>
      </defs>
      <g transform="translate(33.1623909375 207.537148125)scale(0.09996 -0.09996)">
       <use xlink:href="#BitstreamVeraSans-Roman-2212"/>
       <use x="83.7890625" xlink:href="#BitstreamVeraSans-Roman-31"/>
       <use x="147.412109375" xlink:href="#BitstreamVeraSans-Roman-30"/>
      </g>
     </g>
    </g>
    <g id="xtick_2">
     <g id="line2d_11">
      <g>
       <use style="stroke:#000000;stroke-width:0.5;" x="99.51051375" xlink:href="#m4bb1ebc907" y="195.94175"/>
      </g>
     </g>
     <g id="line2d_12">
      <g>
       <use style="stroke:#000000;stroke-width:0.5;" x="99.51051375" xlink:href="#m24d8bc2453" y="23.14175"/>
      </g>
     </g>
     <g id="text_2">
      <!-- −5 -->
      <defs>
       <path d="M 10.796875 72.90625 
L 49.515625 72.90625 
L 49.515625 64.59375 
L 19.828125 64.59375 
L 19.828125 46.734375 
Q 21.96875 47.46875 24.109375 47.828125 
Q 26.265625 48.1875 28.421875 48.1875 
Q 40.625 48.1875 47.75 41.5 
Q 54.890625 34.8125 54.890625 23.390625 
Q 54.890625 11.625 47.5625 5.09375 
Q 40.234375 -1.421875 26.90625 -1.421875 
Q 22.3125 -1.421875 17.546875 -0.640625 
Q 12.796875 0.140625 7.71875 1.703125 
L 7.71875 11.625 
Q 12.109375 9.234375 16.796875 8.0625 
Q 21.484375 6.890625 26.703125 6.890625 
Q 35.15625 6.890625 40.078125 11.328125 
Q 45.015625 15.765625 45.015625 23.390625 
Q 45.015625 31 40.078125 35.4375 
Q 35.15625 39.890625 26.703125 39.890625 
Q 22.75 39.890625 18.8125 39.015625 
Q 14.890625 38.140625 10.796875 36.28125 
z
" id="BitstreamVeraSans-Roman-35"/>
      </defs>
      <g transform="translate(92.1423684375 207.537148125)scale(0.09996 -0.09996)">
       <use xlink:href="#BitstreamVeraSans-Roman-2212"/>
       <use x="83.7890625" xlink:href="#BitstreamVeraSans-Roman-35"/>
      </g>
     </g>
    </g>
    <g id="xtick_3">
     <g id="line2d_13">
      <g>
       <use style="stroke:#000000;stroke-width:0.5;" x="155.31051375" xlink:href="#m4bb1ebc907" y="195.94175"/>
      </g>
     </g>
     <g id="line2d_14">
      <g>
       <use style="stroke:#000000;stroke-width:0.5;" x="155.31051375" xlink:href="#m24d8bc2453" y="23.14175"/>
      </g>
     </g>
     <g id="text_3">
      <!-- 0 -->
      <g transform="translate(152.13053625 207.537148125)scale(0.09996 -0.09996)">
       <use xlink:href="#BitstreamVeraSans-Roman-30"/>
      </g>
     </g>
    </g>
    <g id="xtick_4">
     <g id="line2d_15">
      <g>
       <use style="stroke:#000000;stroke-width:0.5;" x="211.11051375" xlink:href="#m4bb1ebc907" y="195.94175"/>
      </g>
     </g>
     <g id="line2d_16">
      <g>
       <use style="stroke:#000000;stroke-width:0.5;" x="211.11051375" xlink:href="#m24d8bc2453" y="23.14175"/>
      </g>
     </g>
     <g id="text_4">
      <!-- 5 -->
      <g transform="translate(207.93053625 207.537148125)scale(0.09996 -0.09996)">
       <use xlink:href="#BitstreamVeraSans-Roman-35"/>
      </g>
     </g>
    </g>
    <g id="xtick_5">
     <g id="line2d_17">
      <g>
       <use style="stroke:#000000;stroke-width:0.5;" x="266.91051375" xlink:href="#m4bb1ebc907" y="195.94175"/>
      </g>
     </g>
     <g id="line2d_18">
      <g>
       <use style="stroke:#000000;stroke-width:0.5;" x="266.91051375" xlink:href="#m24d8bc2453" y="23.14175"/>
      </g>
     </g>
     <g id="text_5">
      <!-- 10 -->
      <g transform="translate(260.55055875 207.537148125)scale(0.09996 -0.09996)">
       <use xlink:href="#BitstreamVeraSans-Roman-31"/>
       <use x="63.623046875" xlink:href="#BitstreamVeraSans-Roman-30"/>
      </g>
     </g>
    </g>
    <g id="text_6">
     <!-- This is the x-axis -->
     <defs>
      <path d="M 4.890625 31.390625 
L 31.203125 31.390625 
L 31.203125 23.390625 
L 4.890625 23.390625 
z
" id="BitstreamVeraSans-Roman-2d"/>
      <path d="M 34.28125 27.484375 
Q 23.390625 27.484375 19.1875 25 
Q 14.984375 22.515625 14.984375 16.5 
Q 14.984375 11.71875 18.140625 8.90625 
Q 21.296875 6.109375 26.703125 6.109375 
Q 34.1875 6.109375 38.703125 11.40625 
Q 43.21875 16.703125 43.21875 25.484375 
L 43.21875 27.484375 
z
M 52.203125 31.203125 
L 52.203125 0 
L 43.21875 0 
L 43.21875 8.296875 
Q 40.140625 3.328125 35.546875 0.953125 
Q 30.953125 -1.421875 24.3125 -1.421875 
Q 15.921875 -1.421875 10.953125 3.296875 
Q 6 8.015625 6 15.921875 
Q 6 25.140625 12.171875 29.828125 
Q 18.359375 34.515625 30.609375 34.515625 
L 43.21875 34.515625 
L 43.21875 35.40625 
Q 43.21875 41.609375 39.140625 45 
Q 35.0625 48.390625 27.6875 48.390625 
Q 23 48.390625 18.546875 47.265625 
Q 14.109375 46.140625 10.015625 43.890625 
L 10.015625 52.203125 
Q 14.9375 54.109375 19.578125 55.046875 
Q 24.21875 56 28.609375 56 
Q 40.484375 56 46.34375 49.84375 
Q 52.203125 43.703125 52.203125 31.203125 
" id="BitstreamVeraSans-Roman-61"/>
      <path id="BitstreamVeraSans-Roman-20"/>
      <path d="M 18.3125 70.21875 
L 18.3125 54.6875 
L 36.8125 54.6875 
L 36.8125 47.703125 
L 18.3125 47.703125 
L 18.3125 18.015625 
Q 18.3125 11.328125 20.140625 9.421875 
Q 21.96875 7.515625 27.59375 7.515625 
L 36.8125 7.515625 
L 36.8125 0 
L 27.59375 0 
Q 17.1875 0 13.234375 3.875 
Q 9.28125 7.765625 9.28125 18.015625 
L 9.28125 47.703125 
L 2.6875 47.703125 
L 2.6875 54.6875 
L 9.28125 54.6875 
L 9.28125 70.21875 
z
" id="BitstreamVeraSans-Roman-74"/>
      <path d="M -0.296875 72.90625 
L 61.375 72.90625 
L 61.375 64.59375 
L 35.5 64.59375 
L 35.5 0 
L 25.59375 0 
L 25.59375 64.59375 
L -0.296875 64.59375 
z
" id="BitstreamVeraSans-Roman-54"/>
      <path d="M 54.890625 33.015625 
L 54.890625 0 
L 45.90625 0 
L 45.90625 32.71875 
Q 45.90625 40.484375 42.875 44.328125 
Q 39.84375 48.1875 33.796875 48.1875 
Q 26.515625 48.1875 22.3125 43.546875 
Q 18.109375 38.921875 18.109375 30.90625 
L 18.109375 0 
L 9.078125 0 
L 9.078125 75.984375 
L 18.109375 75.984375 
L 18.109375 46.1875 
Q 21.34375 51.125 25.703125 53.5625 
Q 30.078125 56 35.796875 56 
Q 45.21875 56 50.046875 50.171875 
Q 54.890625 44.34375 54.890625 33.015625 
" id="BitstreamVeraSans-Roman-68"/>
      <path d="M 9.421875 54.6875 
L 18.40625 54.6875 
L 18.40625 0 
L 9.421875 0 
z
M 9.421875 75.984375 
L 18.40625 75.984375 
L 18.40625 64.59375 
L 9.421875 64.59375 
z
" id="BitstreamVeraSans-Roman-69"/>
      <path d="M 54.890625 54.6875 
L 35.109375 28.078125 
L 55.90625 0 
L 45.3125 0 
L 29.390625 21.484375 
L 13.484375 0 
L 2.875 0 
L 24.125 28.609375 
L 4.6875 54.6875 
L 15.28125 54.6875 
L 29.78125 35.203125 
L 44.28125 54.6875 
z
" id="BitstreamVeraSans-Roman-78"/>
      <path d="M 44.28125 53.078125 
L 44.28125 44.578125 
Q 40.484375 46.53125 36.375 47.5 
Q 32.28125 48.484375 27.875 48.484375 
Q 21.1875 48.484375 17.84375 46.4375 
Q 14.5 44.390625 14.5 40.28125 
Q 14.5 37.15625 16.890625 35.375 
Q 19.28125 33.59375 26.515625 31.984375 
L 29.59375 31.296875 
Q 39.15625 29.25 43.1875 25.515625 
Q 47.21875 21.78125 47.21875 15.09375 
Q 47.21875 7.46875 41.1875 3.015625 
Q 35.15625 -1.421875 24.609375 -1.421875 
Q 20.21875 -1.421875 15.453125 -0.5625 
Q 10.6875 0.296875 5.421875 2 
L 5.421875 11.28125 
Q 10.40625 8.6875 15.234375 7.390625 
Q 20.0625 6.109375 24.8125 6.109375 
Q 31.15625 6.109375 34.5625 8.28125 
Q 37.984375 10.453125 37.984375 14.40625 
Q 37.984375 18.0625 35.515625 20.015625 
Q 33.0625 21.96875 24.703125 23.78125 
L 21.578125 24.515625 
Q 13.234375 26.265625 9.515625 29.90625 
Q 5.8125 33.546875 5.8125 39.890625 
Q 5.8125 47.609375 11.28125 51.796875 
Q 16.75 56 26.8125 56 
Q 31.78125 56 36.171875 55.265625 
Q 40.578125 54.546875 44.28125 53.078125 
" id="BitstreamVeraSans-Roman-73"/>
      <path d="M 56.203125 29.59375 
L 56.203125 25.203125 
L 14.890625 25.203125 
Q 15.484375 15.921875 20.484375 11.0625 
Q 25.484375 6.203125 34.421875 6.203125 
Q 39.59375 6.203125 44.453125 7.46875 
Q 49.3125 8.734375 54.109375 11.28125 
L 54.109375 2.78125 
Q 49.265625 0.734375 44.1875 -0.34375 
Q 39.109375 -1.421875 33.890625 -1.421875 
Q 20.796875 -1.421875 13.15625 6.1875 
Q 5.515625 13.8125 5.515625 26.8125 
Q 5.515625 40.234375 12.765625 48.109375 
Q 20.015625 56 32.328125 56 
Q 43.359375 56 49.78125 48.890625 
Q 56.203125 41.796875 56.203125 29.59375 
M 47.21875 32.234375 
Q 47.125 39.59375 43.09375 43.984375 
Q 39.0625 48.390625 32.421875 48.390625 
Q 24.90625 48.390625 20.390625 44.140625 
Q 15.875 39.890625 15.1875 32.171875 
z
" id="BitstreamVeraSans-Roman-65"/>
     </defs>
     <g transform="translate(104.95457625 223.73412875)scale(0.12 -0.12)">
      <use xlink:href="#BitstreamVeraSans-Roman-54"/>
      <use x="61.083984375" xlink:href="#BitstreamVeraSans-Roman-68"/>
      <use x="124.462890625" xlink:href="#BitstreamVeraSans-Roman-69"/>
      <use x="152.24609375" xlink:href="#BitstreamVeraSans-Roman-73"/>
      <use x="204.345703125" xlink:href="#BitstreamVeraSans-Roman-20"/>
      <use x="236.1328125" xlink:href="#BitstreamVeraSans-Roman-69"/>
      <use x="263.916015625" xlink:href="#BitstreamVeraSans-Roman-73"/>
      <use x="316.015625" xlink:href="#BitstreamVeraSans-Roman-20"/>
      <use x="347.802734375" xlink:href="#BitstreamVeraSans-Roman-74"/>
      <use x="387.01171875" xlink:href="#BitstreamVeraSans-Roman-68"/>
      <use x="450.390625" xlink:href="#BitstreamVeraSans-Roman-65"/>
      <use x="511.9140625" xlink:href="#BitstreamVeraSans-Roman-20"/>
      <use x="543.701171875" xlink:href="#BitstreamVeraSans-Roman-78"/>
      <use x="602.880859375" xlink:href="#BitstreamVeraSans-Roman-2d"/>
      <use x="638.96484375" xlink:href="#BitstreamVeraSans-Roman-61"/>
      <use x="700.244140625" xlink:href="#BitstreamVeraSans-Roman-78"/>
      <use x="759.423828125" xlink:href="#BitstreamVeraSans-Roman-69"/>
      <use x="787.20703125" xlink:href="#BitstreamVeraSans-Roman-73"/>
     </g>
    </g>
   </g>
   <g id="matplotlib.axis_2">
    <g id="ytick_1">
     <g id="line2d_19">
      <defs>
       <path d="M 0 0 
L 4 0 
" id="m7b9fef5b80" style="stroke:#000000;stroke-width:0.5;"/>
      </defs>
      <g>
       <use style="stroke:#000000;stroke-width:0.5;" x="43.71051375" xlink:href="#m7b9fef5b80" y="195.94175"/>
      </g>
     </g>
     <g id="line2d_20">
      <defs>
       <path d="M 0 0 
L -4 0 
" id="mee79920854" style="stroke:#000000;stroke-width:0.5;"/>
      </defs>
      <g>
       <use style="stroke:#000000;stroke-width:0.5;" x="266.91051375" xlink:href="#mee79920854" y="195.94175"/>
      </g>
     </g>
     <g id="text_7">
      <!-- 0.0 -->
      <defs>
       <path d="M 10.6875 12.40625 
L 21 12.40625 
L 21 0 
L 10.6875 0 
z
" id="BitstreamVeraSans-Roman-2e"/>
      </defs>
      <g transform="translate(23.81375 198.70002125)scale(0.09996 -0.09996)">
       <use xlink:href="#BitstreamVeraSans-Roman-30"/>
       <use x="63.623046875" xlink:href="#BitstreamVeraSans-Roman-2e"/>
       <use x="95.41015625" xlink:href="#BitstreamVeraSans-Roman-30"/>
      </g>
     </g>
    </g>
    <g id="ytick_2">
     <g id="line2d_21">
      <g>
       <use style="stroke:#000000;stroke-width:0.5;" x="43.71051375" xlink:href="#m7b9fef5b80" y="161.38175"/>
      </g>
     </g>
     <g id="line2d_22">
      <g>
       <use style="stroke:#000000;stroke-width:0.5;" x="266.91051375" xlink:href="#mee79920854" y="161.38175"/>
      </g>
     </g>
     <g id="text_8">
      <!-- 0.2 -->
      <defs>
       <path d="M 19.1875 8.296875 
L 53.609375 8.296875 
L 53.609375 0 
L 7.328125 0 
L 7.328125 8.296875 
Q 12.9375 14.109375 22.625 23.890625 
Q 32.328125 33.6875 34.8125 36.53125 
Q 39.546875 41.84375 41.421875 45.53125 
Q 43.3125 49.21875 43.3125 52.78125 
Q 43.3125 58.59375 39.234375 62.25 
Q 35.15625 65.921875 28.609375 65.921875 
Q 23.96875 65.921875 18.8125 64.3125 
Q 13.671875 62.703125 7.8125 59.421875 
L 7.8125 69.390625 
Q 13.765625 71.78125 18.9375 73 
Q 24.125 74.21875 28.421875 74.21875 
Q 39.75 74.21875 46.484375 68.546875 
Q 53.21875 62.890625 53.21875 53.421875 
Q 53.21875 48.921875 51.53125 44.890625 
Q 49.859375 40.875 45.40625 35.40625 
Q 44.1875 33.984375 37.640625 27.21875 
Q 31.109375 20.453125 19.1875 8.296875 
" id="BitstreamVeraSans-Roman-32"/>
      </defs>
      <g transform="translate(23.81375 164.14002125)scale(0.09996 -0.09996)">
       <use xlink:href="#BitstreamVeraSans-Roman-30"/>
       <use x="63.623046875" xlink:href="#BitstreamVeraSans-Roman-2e"/>
       <use x="95.41015625" xlink:href="#BitstreamVeraSans-Roman-32"/>
      </g>
     </g>
    </g>
    <g id="ytick_3">
     <g id="line2d_23">
      <g>
       <use style="stroke:#000000;stroke-width:0.5;" x="43.71051375" xlink:href="#m7b9fef5b80" y="126.82175"/>
      </g>
     </g>
     <g id="line2d_24">
      <g>
       <use style="stroke:#000000;stroke-width:0.5;" x="266.91051375" xlink:href="#mee79920854" y="126.82175"/>
      </g>
     </g>
     <g id="text_9">
      <!-- 0.4 -->
      <defs>
       <path d="M 37.796875 64.3125 
L 12.890625 25.390625 
L 37.796875 25.390625 
z
M 35.203125 72.90625 
L 47.609375 72.90625 
L 47.609375 25.390625 
L 58.015625 25.390625 
L 58.015625 17.1875 
L 47.609375 17.1875 
L 47.609375 0 
L 37.796875 0 
L 37.796875 17.1875 
L 4.890625 17.1875 
L 4.890625 26.703125 
z
" id="BitstreamVeraSans-Roman-34"/>
      </defs>
      <g transform="translate(23.81375 129.58002125)scale(0.09996 -0.09996)">
       <use xlink:href="#BitstreamVeraSans-Roman-30"/>
       <use x="63.623046875" xlink:href="#BitstreamVeraSans-Roman-2e"/>
       <use x="95.41015625" xlink:href="#BitstreamVeraSans-Roman-34"/>
      </g>
     </g>
    </g>
    <g id="ytick_4">
     <g id="line2d_25">
      <g>
       <use style="stroke:#000000;stroke-width:0.5;" x="43.71051375" xlink:href="#m7b9fef5b80" y="92.26175"/>
      </g>
     </g>
     <g id="line2d_26">
      <g>
       <use style="stroke:#000000;stroke-width:0.5;" x="266.91051375" xlink:href="#mee79920854" y="92.26175"/>
      </g>
     </g>
     <g id="text_10">
      <!-- 0.6 -->
      <defs>
       <path d="M 33.015625 40.375 
Q 26.375 40.375 22.484375 35.828125 
Q 18.609375 31.296875 18.609375 23.390625 
Q 18.609375 15.53125 22.484375 10.953125 
Q 26.375 6.390625 33.015625 6.390625 
Q 39.65625 6.390625 43.53125 10.953125 
Q 47.40625 15.53125 47.40625 23.390625 
Q 47.40625 31.296875 43.53125 35.828125 
Q 39.65625 40.375 33.015625 40.375 
M 52.59375 71.296875 
L 52.59375 62.3125 
Q 48.875 64.0625 45.09375 64.984375 
Q 41.3125 65.921875 37.59375 65.921875 
Q 27.828125 65.921875 22.671875 59.328125 
Q 17.53125 52.734375 16.796875 39.40625 
Q 19.671875 43.65625 24.015625 45.921875 
Q 28.375 48.1875 33.59375 48.1875 
Q 44.578125 48.1875 50.953125 41.515625 
Q 57.328125 34.859375 57.328125 23.390625 
Q 57.328125 12.15625 50.6875 5.359375 
Q 44.046875 -1.421875 33.015625 -1.421875 
Q 20.359375 -1.421875 13.671875 8.265625 
Q 6.984375 17.96875 6.984375 36.375 
Q 6.984375 53.65625 15.1875 63.9375 
Q 23.390625 74.21875 37.203125 74.21875 
Q 40.921875 74.21875 44.703125 73.484375 
Q 48.484375 72.75 52.59375 71.296875 
" id="BitstreamVeraSans-Roman-36"/>
      </defs>
      <g transform="translate(23.81375 95.02002125)scale(0.09996 -0.09996)">
       <use xlink:href="#BitstreamVeraSans-Roman-30"/>
       <use x="63.623046875" xlink:href="#BitstreamVeraSans-Roman-2e"/>
       <use x="95.41015625" xlink:href="#BitstreamVeraSans-Roman-36"/>
      </g>
     </g>
    </g>
    <g id="ytick_5">
     <g id="line2d_27">
      <g>
       <use style="stroke:#000000;stroke-width:0.5;" x="43.71051375" xlink:href="#m7b9fef5b80" y="57.70175"/>
      </g>
     </g>
     <g id="line2d_28">
      <g>
       <use style="stroke:#000000;stroke-width:0.5;" x="266.91051375" xlink:href="#mee79920854" y="57.70175"/>
      </g>
     </g>
     <g id="text_11">
      <!-- 0.8 -->
      <defs>
       <path d="M 31.78125 34.625 
Q 24.75 34.625 20.71875 30.859375 
Q 16.703125 27.09375 16.703125 20.515625 
Q 16.703125 13.921875 20.71875 10.15625 
Q 24.75 6.390625 31.78125 6.390625 
Q 38.8125 6.390625 42.859375 10.171875 
Q 46.921875 13.96875 46.921875 20.515625 
Q 46.921875 27.09375 42.890625 30.859375 
Q 38.875 34.625 31.78125 34.625 
M 21.921875 38.8125 
Q 15.578125 40.375 12.03125 44.71875 
Q 8.5 49.078125 8.5 55.328125 
Q 8.5 64.0625 14.71875 69.140625 
Q 20.953125 74.21875 31.78125 74.21875 
Q 42.671875 74.21875 48.875 69.140625 
Q 55.078125 64.0625 55.078125 55.328125 
Q 55.078125 49.078125 51.53125 44.71875 
Q 48 40.375 41.703125 38.8125 
Q 48.828125 37.15625 52.796875 32.3125 
Q 56.78125 27.484375 56.78125 20.515625 
Q 56.78125 9.90625 50.3125 4.234375 
Q 43.84375 -1.421875 31.78125 -1.421875 
Q 19.734375 -1.421875 13.25 4.234375 
Q 6.78125 9.90625 6.78125 20.515625 
Q 6.78125 27.484375 10.78125 32.3125 
Q 14.796875 37.15625 21.921875 38.8125 
M 18.3125 54.390625 
Q 18.3125 48.734375 21.84375 45.5625 
Q 25.390625 42.390625 31.78125 42.390625 
Q 38.140625 42.390625 41.71875 45.5625 
Q 45.3125 48.734375 45.3125 54.390625 
Q 45.3125 60.0625 41.71875 63.234375 
Q 38.140625 66.40625 31.78125 66.40625 
Q 25.390625 66.40625 21.84375 63.234375 
Q 18.3125 60.0625 18.3125 54.390625 
" id="BitstreamVeraSans-Roman-38"/>
      </defs>
      <g transform="translate(23.81375 60.46002125)scale(0.09996 -0.09996)">
       <use xlink:href="#BitstreamVeraSans-Roman-30"/>
       <use x="63.623046875" xlink:href="#BitstreamVeraSans-Roman-2e"/>
       <use x="95.41015625" xlink:href="#BitstreamVeraSans-Roman-38"/>
      </g>
     </g>
    </g>
    <g id="ytick_6">
     <g id="line2d_29">
      <g>
       <use style="stroke:#000000;stroke-width:0.5;" x="43.71051375" xlink:href="#m7b9fef5b80" y="23.14175"/>
      </g>
     </g>
     <g id="line2d_30">
      <g>
       <use style="stroke:#000000;stroke-width:0.5;" x="266.91051375" xlink:href="#mee79920854" y="23.14175"/>
      </g>
     </g>
     <g id="text_12">
      <!-- 1.0 -->
      <g transform="translate(23.81375 25.90002125)scale(0.09996 -0.09996)">
       <use xlink:href="#BitstreamVeraSans-Roman-31"/>
       <use x="63.623046875" xlink:href="#BitstreamVeraSans-Roman-2e"/>
       <use x="95.41015625" xlink:href="#BitstreamVeraSans-Roman-30"/>
      </g>
     </g>
    </g>
    <g id="text_13">
     <!-- Random but decaying values -->
     <defs>
      <path d="M 48.6875 27.296875 
Q 48.6875 37.203125 44.609375 42.84375 
Q 40.53125 48.484375 33.40625 48.484375 
Q 26.265625 48.484375 22.1875 42.84375 
Q 18.109375 37.203125 18.109375 27.296875 
Q 18.109375 17.390625 22.1875 11.75 
Q 26.265625 6.109375 33.40625 6.109375 
Q 40.53125 6.109375 44.609375 11.75 
Q 48.6875 17.390625 48.6875 27.296875 
M 18.109375 46.390625 
Q 20.953125 51.265625 25.265625 53.625 
Q 29.59375 56 35.59375 56 
Q 45.5625 56 51.78125 48.09375 
Q 58.015625 40.1875 58.015625 27.296875 
Q 58.015625 14.40625 51.78125 6.484375 
Q 45.5625 -1.421875 35.59375 -1.421875 
Q 29.59375 -1.421875 25.265625 0.953125 
Q 20.953125 3.328125 18.109375 8.203125 
L 18.109375 0 
L 9.078125 0 
L 9.078125 75.984375 
L 18.109375 75.984375 
z
" id="BitstreamVeraSans-Roman-62"/>
      <path d="M 45.40625 46.390625 
L 45.40625 75.984375 
L 54.390625 75.984375 
L 54.390625 0 
L 45.40625 0 
L 45.40625 8.203125 
Q 42.578125 3.328125 38.25 0.953125 
Q 33.9375 -1.421875 27.875 -1.421875 
Q 17.96875 -1.421875 11.734375 6.484375 
Q 5.515625 14.40625 5.515625 27.296875 
Q 5.515625 40.1875 11.734375 48.09375 
Q 17.96875 56 27.875 56 
Q 33.9375 56 38.25 53.625 
Q 42.578125 51.265625 45.40625 46.390625 
M 14.796875 27.296875 
Q 14.796875 17.390625 18.875 11.75 
Q 22.953125 6.109375 30.078125 6.109375 
Q 37.203125 6.109375 41.296875 11.75 
Q 45.40625 17.390625 45.40625 27.296875 
Q 45.40625 37.203125 41.296875 42.84375 
Q 37.203125 48.484375 30.078125 48.484375 
Q 22.953125 48.484375 18.875 42.84375 
Q 14.796875 37.203125 14.796875 27.296875 
" id="BitstreamVeraSans-Roman-64"/>
      <path d="M 32.171875 -5.078125 
Q 28.375 -14.84375 24.75 -17.8125 
Q 21.140625 -20.796875 15.09375 -20.796875 
L 7.90625 -20.796875 
L 7.90625 -13.28125 
L 13.1875 -13.28125 
Q 16.890625 -13.28125 18.9375 -11.515625 
Q 21 -9.765625 23.484375 -3.21875 
L 25.09375 0.875 
L 2.984375 54.6875 
L 12.5 54.6875 
L 29.59375 11.921875 
L 46.6875 54.6875 
L 56.203125 54.6875 
z
" id="BitstreamVeraSans-Roman-79"/>
      <path d="M 54.890625 33.015625 
L 54.890625 0 
L 45.90625 0 
L 45.90625 32.71875 
Q 45.90625 40.484375 42.875 44.328125 
Q 39.84375 48.1875 33.796875 48.1875 
Q 26.515625 48.1875 22.3125 43.546875 
Q 18.109375 38.921875 18.109375 30.90625 
L 18.109375 0 
L 9.078125 0 
L 9.078125 54.6875 
L 18.109375 54.6875 
L 18.109375 46.1875 
Q 21.34375 51.125 25.703125 53.5625 
Q 30.078125 56 35.796875 56 
Q 45.21875 56 50.046875 50.171875 
Q 54.890625 44.34375 54.890625 33.015625 
" id="BitstreamVeraSans-Roman-6e"/>
      <path d="M 52 44.1875 
Q 55.375 50.25 60.0625 53.125 
Q 64.75 56 71.09375 56 
Q 79.640625 56 84.28125 50.015625 
Q 88.921875 44.046875 88.921875 33.015625 
L 88.921875 0 
L 79.890625 0 
L 79.890625 32.71875 
Q 79.890625 40.578125 77.09375 44.375 
Q 74.3125 48.1875 68.609375 48.1875 
Q 61.625 48.1875 57.5625 43.546875 
Q 53.515625 38.921875 53.515625 30.90625 
L 53.515625 0 
L 44.484375 0 
L 44.484375 32.71875 
Q 44.484375 40.625 41.703125 44.40625 
Q 38.921875 48.1875 33.109375 48.1875 
Q 26.21875 48.1875 22.15625 43.53125 
Q 18.109375 38.875 18.109375 30.90625 
L 18.109375 0 
L 9.078125 0 
L 9.078125 54.6875 
L 18.109375 54.6875 
L 18.109375 46.1875 
Q 21.1875 51.21875 25.484375 53.609375 
Q 29.78125 56 35.6875 56 
Q 41.65625 56 45.828125 52.96875 
Q 50 49.953125 52 44.1875 
" id="BitstreamVeraSans-Roman-6d"/>
      <path d="M 48.78125 52.59375 
L 48.78125 44.1875 
Q 44.96875 46.296875 41.140625 47.34375 
Q 37.3125 48.390625 33.40625 48.390625 
Q 24.65625 48.390625 19.8125 42.84375 
Q 14.984375 37.3125 14.984375 27.296875 
Q 14.984375 17.28125 19.8125 11.734375 
Q 24.65625 6.203125 33.40625 6.203125 
Q 37.3125 6.203125 41.140625 7.25 
Q 44.96875 8.296875 48.78125 10.40625 
L 48.78125 2.09375 
Q 45.015625 0.34375 40.984375 -0.53125 
Q 36.96875 -1.421875 32.421875 -1.421875 
Q 20.0625 -1.421875 12.78125 6.34375 
Q 5.515625 14.109375 5.515625 27.296875 
Q 5.515625 40.671875 12.859375 48.328125 
Q 20.21875 56 33.015625 56 
Q 37.15625 56 41.109375 55.140625 
Q 45.0625 54.296875 48.78125 52.59375 
" id="BitstreamVeraSans-Roman-63"/>
      <path d="M 9.421875 75.984375 
L 18.40625 75.984375 
L 18.40625 0 
L 9.421875 0 
z
" id="BitstreamVeraSans-Roman-6c"/>
      <path d="M 45.40625 27.984375 
Q 45.40625 37.75 41.375 43.109375 
Q 37.359375 48.484375 30.078125 48.484375 
Q 22.859375 48.484375 18.828125 43.109375 
Q 14.796875 37.75 14.796875 27.984375 
Q 14.796875 18.265625 18.828125 12.890625 
Q 22.859375 7.515625 30.078125 7.515625 
Q 37.359375 7.515625 41.375 12.890625 
Q 45.40625 18.265625 45.40625 27.984375 
M 54.390625 6.78125 
Q 54.390625 -7.171875 48.1875 -13.984375 
Q 42 -20.796875 29.203125 -20.796875 
Q 24.46875 -20.796875 20.265625 -20.09375 
Q 16.0625 -19.390625 12.109375 -17.921875 
L 12.109375 -9.1875 
Q 16.0625 -11.328125 19.921875 -12.34375 
Q 23.78125 -13.375 27.78125 -13.375 
Q 36.625 -13.375 41.015625 -8.765625 
Q 45.40625 -4.15625 45.40625 5.171875 
L 45.40625 9.625 
Q 42.625 4.78125 38.28125 2.390625 
Q 33.9375 0 27.875 0 
Q 17.828125 0 11.671875 7.65625 
Q 5.515625 15.328125 5.515625 27.984375 
Q 5.515625 40.671875 11.671875 48.328125 
Q 17.828125 56 27.875 56 
Q 33.9375 56 38.28125 53.609375 
Q 42.625 51.21875 45.40625 46.390625 
L 45.40625 54.6875 
L 54.390625 54.6875 
z
" id="BitstreamVeraSans-Roman-67"/>
      <path d="M 44.390625 34.1875 
Q 47.5625 33.109375 50.5625 29.59375 
Q 53.5625 26.078125 56.59375 19.921875 
L 66.609375 0 
L 56 0 
L 46.6875 18.703125 
Q 43.0625 26.03125 39.671875 28.421875 
Q 36.28125 30.8125 30.421875 30.8125 
L 19.671875 30.8125 
L 19.671875 0 
L 9.8125 0 
L 9.8125 72.90625 
L 32.078125 72.90625 
Q 44.578125 72.90625 50.734375 67.671875 
Q 56.890625 62.453125 56.890625 51.90625 
Q 56.890625 45.015625 53.6875 40.46875 
Q 50.484375 35.9375 44.390625 34.1875 
M 19.671875 64.796875 
L 19.671875 38.921875 
L 32.078125 38.921875 
Q 39.203125 38.921875 42.84375 42.21875 
Q 46.484375 45.515625 46.484375 51.90625 
Q 46.484375 58.296875 42.84375 61.546875 
Q 39.203125 64.796875 32.078125 64.796875 
z
" id="BitstreamVeraSans-Roman-52"/>
      <path d="M 8.5 21.578125 
L 8.5 54.6875 
L 17.484375 54.6875 
L 17.484375 21.921875 
Q 17.484375 14.15625 20.5 10.265625 
Q 23.53125 6.390625 29.59375 6.390625 
Q 36.859375 6.390625 41.078125 11.03125 
Q 45.3125 15.671875 45.3125 23.6875 
L 45.3125 54.6875 
L 54.296875 54.6875 
L 54.296875 0 
L 45.3125 0 
L 45.3125 8.40625 
Q 42.046875 3.421875 37.71875 1 
Q 33.40625 -1.421875 27.6875 -1.421875 
Q 18.265625 -1.421875 13.375 4.4375 
Q 8.5 10.296875 8.5 21.578125 
" id="BitstreamVeraSans-Roman-75"/>
      <path d="M 30.609375 48.390625 
Q 23.390625 48.390625 19.1875 42.75 
Q 14.984375 37.109375 14.984375 27.296875 
Q 14.984375 17.484375 19.15625 11.84375 
Q 23.34375 6.203125 30.609375 6.203125 
Q 37.796875 6.203125 41.984375 11.859375 
Q 46.1875 17.53125 46.1875 27.296875 
Q 46.1875 37.015625 41.984375 42.703125 
Q 37.796875 48.390625 30.609375 48.390625 
M 30.609375 56 
Q 42.328125 56 49.015625 48.375 
Q 55.71875 40.765625 55.71875 27.296875 
Q 55.71875 13.875 49.015625 6.21875 
Q 42.328125 -1.421875 30.609375 -1.421875 
Q 18.84375 -1.421875 12.171875 6.21875 
Q 5.515625 13.875 5.515625 27.296875 
Q 5.515625 40.765625 12.171875 48.375 
Q 18.84375 56 30.609375 56 
" id="BitstreamVeraSans-Roman-6f"/>
      <path d="M 2.984375 54.6875 
L 12.5 54.6875 
L 29.59375 8.796875 
L 46.6875 54.6875 
L 56.203125 54.6875 
L 35.6875 0 
L 23.484375 0 
z
" id="BitstreamVeraSans-Roman-76"/>
     </defs>
     <g transform="translate(16.318125 197.0189375)rotate(-90.0)scale(0.12 -0.12)">
      <use xlink:href="#BitstreamVeraSans-Roman-52"/>
      <use x="69.451171875" xlink:href="#BitstreamVeraSans-Roman-61"/>
      <use x="130.73046875" xlink:href="#BitstreamVeraSans-Roman-6e"/>
      <use x="194.109375" xlink:href="#BitstreamVeraSans-Roman-64"/>
      <use x="257.5859375" xlink:href="#BitstreamVeraSans-Roman-6f"/>
      <use x="318.767578125" xlink:href="#BitstreamVeraSans-Roman-6d"/>
      <use x="416.1796875" xlink:href="#BitstreamVeraSans-Roman-20"/>
      <use x="447.966796875" xlink:href="#BitstreamVeraSans-Roman-62"/>
      <use x="511.443359375" xlink:href="#BitstreamVeraSans-Roman-75"/>
      <use x="574.822265625" xlink:href="#BitstreamVeraSans-Roman-74"/>
      <use x="614.03125" xlink:href="#BitstreamVeraSans-Roman-20"/>
      <use x="645.818359375" xlink:href="#BitstreamVeraSans-Roman-64"/>
      <use x="709.294921875" xlink:href="#BitstreamVeraSans-Roman-65"/>
      <use x="770.818359375" xlink:href="#BitstreamVeraSans-Roman-63"/>
      <use x="825.798828125" xlink:href="#BitstreamVeraSans-Roman-61"/>
      <use x="887.078125" xlink:href="#BitstreamVeraSans-Roman-79"/>
      <use x="946.2578125" xlink:href="#BitstreamVeraSans-Roman-69"/>
      <use x="974.041015625" xlink:href="#BitstreamVeraSans-Roman-6e"/>
      <use x="1037.419921875" xlink:href="#BitstreamVeraSans-Roman-67"/>
      <use x="1100.896484375" xlink:href="#BitstreamVeraSans-Roman-20"/>
      <use x="1132.68359375" xlink:href="#BitstreamVeraSans-Roman-76"/>
      <use x="1191.86328125" xlink:href="#BitstreamVeraSans-Roman-61"/>
      <use x="1253.142578125" xlink:href="#BitstreamVeraSans-Roman-6c"/>
      <use x="1280.92578125" xlink:href="#BitstreamVeraSans-Roman-75"/>
      <use x="1344.3046875" xlink:href="#BitstreamVeraSans-Roman-65"/>
      <use x="1405.828125" xlink:href="#BitstreamVeraSans-Roman-73"/>
     </g>
    </g>
   </g>
   <g id="text_14">
    <!-- Diverging Datasets -->
    <defs>
     <path d="M 19.671875 64.796875 
L 19.671875 8.109375 
L 31.59375 8.109375 
Q 46.6875 8.109375 53.6875 14.9375 
Q 60.6875 21.78125 60.6875 36.53125 
Q 60.6875 51.171875 53.6875 57.984375 
Q 46.6875 64.796875 31.59375 64.796875 
z
M 9.8125 72.90625 
L 30.078125 72.90625 
Q 51.265625 72.90625 61.171875 64.09375 
Q 71.09375 55.28125 71.09375 36.53125 
Q 71.09375 17.671875 61.125 8.828125 
Q 51.171875 0 30.078125 0 
L 9.8125 0 
z
" id="BitstreamVeraSans-Roman-44"/>
     <path d="M 41.109375 46.296875 
Q 39.59375 47.171875 37.8125 47.578125 
Q 36.03125 48 33.890625 48 
Q 26.265625 48 22.1875 43.046875 
Q 18.109375 38.09375 18.109375 28.8125 
L 18.109375 0 
L 9.078125 0 
L 9.078125 54.6875 
L 18.109375 54.6875 
L 18.109375 46.1875 
Q 20.953125 51.171875 25.484375 53.578125 
Q 30.03125 56 36.53125 56 
Q 37.453125 56 38.578125 55.875 
Q 39.703125 55.765625 41.0625 55.515625 
z
" id="BitstreamVeraSans-Roman-72"/>
    </defs>
    <g transform="translate(86.17701375 18.14175)scale(0.144 -0.144)">
     <use xlink:href="#BitstreamVeraSans-Roman-44"/>
     <use x="77.001953125" xlink:href="#BitstreamVeraSans-Roman-69"/>
     <use x="104.78515625" xlink:href="#BitstreamVeraSans-Roman-76"/>
     <use x="163.96484375" xlink:href="#BitstreamVeraSans-Roman-65"/>
     <use x="225.48828125" xlink:href="#BitstreamVeraSans-Roman-72"/>
     <use x="266.5859375" xlink:href="#BitstreamVeraSans-Roman-67"/>
     <use x="330.0625" xlink:href="#BitstreamVeraSans-Roman-69"/>
     <use x="357.845703125" xlink:href="#BitstreamVeraSans-Roman-6e"/>
     <use x="421.224609375" xlink:href="#BitstreamVeraSans-Roman-67"/>
     <use x="484.701171875" xlink:href="#BitstreamVeraSans-Roman-20"/>
     <use x="516.48828125" xlink:href="#BitstreamVeraSans-Roman-44"/>
     <use x="593.490234375" xlink:href="#BitstreamVeraSans-Roman-61"/>
     <use x="654.76953125" xlink:href="#BitstreamVeraSans-Roman-74"/>
     <use x="693.978515625" xlink:href="#BitstreamVeraSans-Roman-61"/>
     <use x="755.2578125" xlink:href="#BitstreamVeraSans-Roman-73"/>
     <use x="807.357421875" xlink:href="#BitstreamVeraSans-Roman-65"/>
     <use x="868.880859375" xlink:href="#BitstreamVeraSans-Roman-74"/>
     <use x="908.08984375" xlink:href="#BitstreamVeraSans-Roman-73"/>
    </g>
   </g>
   <g id="legend_1">
    <g id="patch_7">
     <path d="M 48.568514 192.47175 
L 94.417624 192.47175 
Q 95.805624 192.47175 95.805624 191.08375 
L 95.805624 99.53821 
Q 95.805624 98.15021 94.417624 98.15021 
L 48.568514 98.15021 
Q 47.180514 98.15021 47.180514 99.53821 
L 47.180514 191.08375 
Q 47.180514 192.47175 48.568514 192.47175 
z
" style="fill:#ffffff;opacity:0.8;stroke:#000000;stroke-linejoin:miter;stroke-width:0.5;"/>
    </g>
    <g id="line2d_31">
     <path d="M 52.038514 104.825189 
L 61.754514 104.825189 
" style="fill:none;stroke:#4daf4a;stroke-linecap:square;stroke-width:2.0;"/>
    </g>
    <g id="line2d_32"/>
    <g id="text_15">
     <!-- Plot 1 -->
     <defs>
      <path d="M 19.671875 64.796875 
L 19.671875 37.40625 
L 32.078125 37.40625 
Q 38.96875 37.40625 42.71875 40.96875 
Q 46.484375 44.53125 46.484375 51.125 
Q 46.484375 57.671875 42.71875 61.234375 
Q 38.96875 64.796875 32.078125 64.796875 
z
M 9.8125 72.90625 
L 32.078125 72.90625 
Q 44.34375 72.90625 50.609375 67.359375 
Q 56.890625 61.8125 56.890625 51.125 
Q 56.890625 40.328125 50.609375 34.8125 
Q 44.34375 29.296875 32.078125 29.296875 
L 19.671875 29.296875 
L 19.671875 0 
L 9.8125 0 
z
" id="BitstreamVeraSans-Roman-50"/>
     </defs>
     <g transform="translate(69.38851375 107.25418875)scale(0.08327999999999999 -0.08327999999999999)">
      <use xlink:href="#BitstreamVeraSans-Roman-50"/>
      <use x="60.302734375" xlink:href="#BitstreamVeraSans-Roman-6c"/>
      <use x="88.0859375" xlink:href="#BitstreamVeraSans-Roman-6f"/>
      <use x="149.267578125" xlink:href="#BitstreamVeraSans-Roman-74"/>
      <use x="188.4765625" xlink:href="#BitstreamVeraSans-Roman-20"/>
      <use x="220.263671875" xlink:href="#BitstreamVeraSans-Roman-31"/>
     </g>
    </g>
    <g id="line2d_33">
     <path d="M 52.038514 116.355131 
L 61.754514 116.355131 
" style="fill:none;stroke:#419388;stroke-linecap:square;stroke-width:2.0;"/>
    </g>
    <g id="line2d_34"/>
    <g id="text_16">
     <!-- Plot 2 -->
     <g transform="translate(69.38851375 118.78413125)scale(0.08327999999999999 -0.08327999999999999)">
      <use xlink:href="#BitstreamVeraSans-Roman-50"/>
      <use x="60.302734375" xlink:href="#BitstreamVeraSans-Roman-6c"/>
      <use x="88.0859375" xlink:href="#BitstreamVeraSans-Roman-6f"/>
      <use x="149.267578125" xlink:href="#BitstreamVeraSans-Roman-74"/>
      <use x="188.4765625" xlink:href="#BitstreamVeraSans-Roman-20"/>
      <use x="220.263671875" xlink:href="#BitstreamVeraSans-Roman-32"/>
     </g>
    </g>
    <g id="line2d_35">
     <path d="M 52.038514 127.885074 
L 61.754514 127.885074 
" style="fill:none;stroke:#4577b5;stroke-linecap:square;stroke-width:2.0;"/>
    </g>
    <g id="line2d_36"/>
    <g id="text_17">
     <!-- Plot 3 -->
     <defs>
      <path d="M 40.578125 39.3125 
Q 47.65625 37.796875 51.625 33 
Q 55.609375 28.21875 55.609375 21.1875 
Q 55.609375 10.40625 48.1875 4.484375 
Q 40.765625 -1.421875 27.09375 -1.421875 
Q 22.515625 -1.421875 17.65625 -0.515625 
Q 12.796875 0.390625 7.625 2.203125 
L 7.625 11.71875 
Q 11.71875 9.328125 16.59375 8.109375 
Q 21.484375 6.890625 26.8125 6.890625 
Q 36.078125 6.890625 40.9375 10.546875 
Q 45.796875 14.203125 45.796875 21.1875 
Q 45.796875 27.640625 41.28125 31.265625 
Q 36.765625 34.90625 28.71875 34.90625 
L 20.21875 34.90625 
L 20.21875 43.015625 
L 29.109375 43.015625 
Q 36.375 43.015625 40.234375 45.921875 
Q 44.09375 48.828125 44.09375 54.296875 
Q 44.09375 59.90625 40.109375 62.90625 
Q 36.140625 65.921875 28.71875 65.921875 
Q 24.65625 65.921875 20.015625 65.03125 
Q 15.375 64.15625 9.8125 62.3125 
L 9.8125 71.09375 
Q 15.4375 72.65625 20.34375 73.4375 
Q 25.25 74.21875 29.59375 74.21875 
Q 40.828125 74.21875 47.359375 69.109375 
Q 53.90625 64.015625 53.90625 55.328125 
Q 53.90625 49.265625 50.4375 45.09375 
Q 46.96875 40.921875 40.578125 39.3125 
" id="BitstreamVeraSans-Roman-33"/>
     </defs>
     <g transform="translate(69.38851375 130.31407375)scale(0.08327999999999999 -0.08327999999999999)">
      <use xlink:href="#BitstreamVeraSans-Roman-50"/>
      <use x="60.302734375" xlink:href="#BitstreamVeraSans-Roman-6c"/>
      <use x="88.0859375" xlink:href="#BitstreamVeraSans-Roman-6f"/>
      <use x="149.267578125" xlink:href="#BitstreamVeraSans-Roman-74"/>
      <use x="188.4765625" xlink:href="#BitstreamVeraSans-Roman-20"/>
      <use x="220.263671875" xlink:href="#BitstreamVeraSans-Roman-33"/>
     </g>
    </g>
    <g id="line2d_37">
     <path d="M 52.038514 139.415016 
L 61.754514 139.415016 
" style="fill:none;stroke:#7c5ca9;stroke-linecap:square;stroke-width:2.0;"/>
    </g>
    <g id="line2d_38"/>
    <g id="text_18">
     <!-- Plot 4 -->
     <g transform="translate(69.38851375 141.84401625)scale(0.08327999999999999 -0.08327999999999999)">
      <use xlink:href="#BitstreamVeraSans-Roman-50"/>
      <use x="60.302734375" xlink:href="#BitstreamVeraSans-Roman-6c"/>
      <use x="88.0859375" xlink:href="#BitstreamVeraSans-Roman-6f"/>
      <use x="149.267578125" xlink:href="#BitstreamVeraSans-Roman-74"/>
      <use x="188.4765625" xlink:href="#BitstreamVeraSans-Roman-20"/>
      <use x="220.263671875" xlink:href="#BitstreamVeraSans-Roman-34"/>
     </g>
    </g>
    <g id="line2d_39">
     <path d="M 52.038514 150.944959 
L 61.754514 150.944959 
" style="fill:none;stroke:#ae3f7c;stroke-linecap:square;stroke-width:2.0;"/>
    </g>
    <g id="line2d_40"/>
    <g id="text_19">
     <!-- Plot 5 -->
     <g transform="translate(69.38851375 153.37395875)scale(0.08327999999999999 -0.08327999999999999)">
      <use xlink:href="#BitstreamVeraSans-Roman-50"/>
      <use x="60.302734375" xlink:href="#BitstreamVeraSans-Roman-6c"/>
      <use x="88.0859375" xlink:href="#BitstreamVeraSans-Roman-6f"/>
      <use x="149.267578125" xlink:href="#BitstreamVeraSans-Roman-74"/>
      <use x="188.4765625" xlink:href="#BitstreamVeraSans-Roman-20"/>
      <use x="220.263671875" xlink:href="#BitstreamVeraSans-Roman-35"/>
     </g>
    </g>
    <g id="line2d_41">
     <path d="M 52.038514 162.474901 
L 61.754514 162.474901 
" style="fill:none;stroke:#d92230;stroke-linecap:square;stroke-width:2.0;"/>
    </g>
    <g id="line2d_42"/>
    <g id="text_20">
     <!-- Plot 6 -->
     <g transform="translate(69.38851375 164.90390125)scale(0.08327999999999999 -0.08327999999999999)">
      <use xlink:href="#BitstreamVeraSans-Roman-50"/>
      <use x="60.302734375" xlink:href="#BitstreamVeraSans-Roman-6c"/>
      <use x="88.0859375" xlink:href="#BitstreamVeraSans-Roman-6f"/>
      <use x="149.267578125" xlink:href="#BitstreamVeraSans-Roman-74"/>
      <use x="188.4765625" xlink:href="#BitstreamVeraSans-Roman-20"/>
      <use x="220.263671875" xlink:href="#BitstreamVeraSans-Roman-36"/>
     </g>
    </g>
    <g id="line2d_43">
     <path d="M 52.038514 174.004844 
L 61.754514 174.004844 
" style="fill:none;stroke:#f04610;stroke-linecap:square;stroke-width:2.0;"/>
    </g>
    <g id="line2d_44"/>
    <g id="text_21">
     <!-- Plot 7 -->
     <defs>
      <path d="M 8.203125 72.90625 
L 55.078125 72.90625 
L 55.078125 68.703125 
L 28.609375 0 
L 18.3125 0 
L 43.21875 64.59375 
L 8.203125 64.59375 
z
" id="BitstreamVeraSans-Roman-37"/>
     </defs>
     <g transform="translate(69.38851375 176.43384375)scale(0.08327999999999999 -0.08327999999999999)">
      <use xlink:href="#BitstreamVeraSans-Roman-50"/>
      <use x="60.302734375" xlink:href="#BitstreamVeraSans-Roman-6c"/>
      <use x="88.0859375" xlink:href="#BitstreamVeraSans-Roman-6f"/>
      <use x="149.267578125" xlink:href="#BitstreamVeraSans-Roman-74"/>
      <use x="188.4765625" xlink:href="#BitstreamVeraSans-Roman-20"/>
      <use x="220.263671875" xlink:href="#BitstreamVeraSans-Roman-37"/>
     </g>
    </g>
    <g id="line2d_45">
     <path d="M 52.038514 185.534786 
L 61.754514 185.534786 
" style="fill:none;stroke:#ff7f00;stroke-linecap:square;stroke-width:2.0;"/>
    </g>
    <g id="line2d_46"/>
    <g id="text_22">
     <!-- Plot 8 -->
     <g transform="translate(69.38851375 187.96378625)scale(0.08327999999999999 -0.08327999999999999)">
      <use xlink:href="#BitstreamVeraSans-Roman-50"/>
      <use x="60.302734375" xlink:href="#BitstreamVeraSans-Roman-6c"/>
      <use x="88.0859375" xlink:href="#BitstreamVeraSans-Roman-6f"/>
      <use x="149.267578125" xlink:href="#BitstreamVeraSans-Roman-74"/>
      <use x="188.4765625" xlink:href="#BitstreamVeraSans-Roman-20"/>
      <use x="220.263671875" xlink:href="#BitstreamVeraSans-Roman-38"/>
     </g>
    </g>
   </g>
  </g>
 </g>
 <defs>
  <clipPath id="paa0be21ba9">
   <rect height="172.8" width="223.2" x="43.71051375" y="23.14175"/>
  </clipPath>
 </defs>
</svg>
