<?xml version="1.0" encoding="utf-8" standalone="no"?>
<!DOCTYPE svg PUBLIC "-//W3C//DTD SVG 1.1//EN"
  "http://www.w3.org/Graphics/SVG/1.1/DTD/svg11.dtd">
<!-- Created with matplotlib (http://matplotlib.org/) -->
<svg height="233pt" version="1.1" viewBox="0 0 280 233" width="280pt" xmlns="http://www.w3.org/2000/svg" xmlns:xlink="http://www.w3.org/1999/xlink">
 <defs>
  <style type="text/css">
*{stroke-linecap:butt;stroke-linejoin:round;stroke-miterlimit:100000;}
  </style>
 </defs>
 <g id="figure_1">
  <g id="patch_1">
   <path d="M 0 233.429754 
L 280.470469 233.429754 
L 280.470469 0 
L 0 0 
z
" style="fill:#ffffff;"/>
  </g>
  <g id="axes_1">
   <g id="patch_2">
    <path d="M 43.710514 195.94175 
L 266.910514 195.94175 
L 266.910514 23.14175 
L 43.710514 23.14175 
z
" style="fill:#ffffff;"/>
   </g>
   <g id="line2d_1">
    <path clip-path="url(#pa7bcaf5db4)" d="M 43.710514 23.834022 
L 44.457002 24.10131 
L 45.20349 23.800651 
L 46.696467 23.659883 
L 47.442955 24.013989 
L 48.189444 23.930802 
L 48.935932 24.133332 
L 49.68242 24.771444 
L 50.428908 25.213627 
L 51.175397 24.480624 
L 51.921885 24.846192 
L 52.668373 24.368605 
L 53.414862 24.209886 
L 54.16135 24.64822 
L 54.907838 25.371829 
L 55.654326 24.790003 
L 56.400815 24.999213 
L 57.147303 24.732335 
L 57.893791 25.393913 
L 58.64028 25.494851 
L 59.386768 25.300299 
L 60.133256 27.520398 
L 60.879745 27.008247 
L 61.626233 27.29816 
L 62.372721 25.966273 
L 63.119209 28.207242 
L 63.865698 25.774976 
L 64.612186 31.160401 
L 65.358674 28.352308 
L 66.105163 27.909979 
L 66.851651 31.666152 
L 67.598139 29.633293 
L 68.344627 29.18233 
L 69.091116 31.584561 
L 69.837604 31.303089 
L 70.584092 31.788748 
L 71.330581 33.768927 
L 72.077069 28.229364 
L 72.823557 29.966702 
L 73.570046 31.306412 
L 75.063022 36.87716 
L 75.80951 32.668427 
L 76.555999 33.508857 
L 77.302487 42.398745 
L 78.048975 42.646242 
L 78.795464 34.754703 
L 79.541952 38.992513 
L 80.28844 37.936703 
L 81.034928 46.600007 
L 81.781417 40.282039 
L 82.527905 38.784464 
L 83.274393 38.106066 
L 84.020882 42.867778 
L 84.76737 54.944888 
L 85.513858 45.558521 
L 86.260347 58.492035 
L 87.006835 45.103749 
L 87.753323 47.5026 
L 88.499811 66.900231 
L 89.2463 49.902797 
L 89.992788 48.459897 
L 90.739276 62.638015 
L 91.485765 62.093866 
L 92.232253 65.244046 
L 92.978741 67.082532 
L 93.725229 63.033839 
L 94.471718 87.103315 
L 95.218206 80.375616 
L 95.964694 67.07776 
L 96.711183 91.509406 
L 97.457671 93.184006 
L 98.204159 85.581077 
L 98.950648 94.087941 
L 99.697136 132.099792 
L 100.443624 88.666935 
L 101.190112 94.918915 
L 102.683089 112.677881 
L 103.429577 92.284375 
L 104.922554 148.440008 
L 105.669042 148.297731 
L 106.41553 99.742951 
L 107.162019 152.880117 
L 107.908507 161.211022 
L 108.654995 118.176037 
L 109.401484 180.386363 
L 110.147972 176.737243 
L 110.89446 180.241745 
L 111.640949 175.850696 
L 113.133925 155.667326 
L 113.880413 181.484645 
L 114.626902 192.406608 
L 115.37339 186.337267 
L 116.119878 195.405962 
L 116.866367 183.569405 
L 117.612855 184.818483 
L 118.359343 191.750814 
L 119.105831 194.000747 
L 119.85232 194.27401 
L 120.598808 194.977025 
L 121.345296 193.001298 
L 122.091785 195.601864 
L 122.838273 194.189827 
L 123.584761 195.937764 
L 125.077738 195.941407 
L 125.824226 195.523138 
L 126.570714 195.941689 
L 127.317203 195.870505 
L 128.063691 195.941703 
L 128.810179 195.633536 
L 129.556668 195.941746 
L 142.246969 195.94175 
L 266.910514 195.94175 
L 266.910514 195.94175 
" style="fill:none;stroke:#4daf4a;stroke-linecap:square;stroke-width:2.0;"/>
   </g>
   <g id="line2d_2">
    <path clip-path="url(#pa7bcaf5db4)" d="M 43.710514 23.345366 
L 46.696467 23.27537 
L 47.442955 23.369769 
L 48.189444 23.350606 
L 48.935932 23.46453 
L 55.654326 23.474803 
L 57.147303 23.887832 
L 57.893791 23.588756 
L 58.64028 23.722469 
L 59.386768 23.57169 
L 60.133256 23.541289 
L 60.879745 23.748955 
L 61.626233 23.554145 
L 63.119209 23.644965 
L 64.612186 23.859301 
L 65.358674 24.211174 
L 66.105163 23.838044 
L 66.851651 24.535701 
L 68.344627 24.016787 
L 69.091116 24.337064 
L 69.837604 24.280111 
L 70.584092 24.692266 
L 71.330581 25.253979 
L 72.077069 25.29419 
L 72.823557 24.536527 
L 73.570046 24.478692 
L 74.316534 25.011024 
L 75.063022 25.127031 
L 75.80951 25.039072 
L 76.555999 26.394544 
L 77.302487 26.878792 
L 78.048975 25.998051 
L 78.795464 25.422253 
L 79.541952 26.425352 
L 80.28844 27.736146 
L 81.034928 26.091746 
L 81.781417 26.144482 
L 82.527905 25.552984 
L 83.274393 28.284077 
L 84.020882 26.711846 
L 84.76737 27.989553 
L 85.513858 26.603536 
L 86.260347 28.549086 
L 87.006835 29.628845 
L 87.753323 27.692535 
L 88.499811 33.895653 
L 89.2463 27.506461 
L 89.992788 40.437482 
L 90.739276 28.541892 
L 91.485765 27.910043 
L 92.232253 31.924668 
L 92.978741 28.279326 
L 93.725229 32.398995 
L 94.471718 31.783178 
L 95.218206 36.514635 
L 95.964694 36.39336 
L 96.711183 42.487952 
L 97.457671 40.19976 
L 98.204159 46.16395 
L 98.950648 50.187674 
L 99.697136 33.705562 
L 100.443624 57.598443 
L 101.190112 47.604244 
L 101.936601 40.990155 
L 102.683089 41.21164 
L 103.429577 37.831371 
L 104.176066 52.771052 
L 104.922554 43.188554 
L 105.669042 52.707653 
L 106.41553 44.971106 
L 107.162019 46.348999 
L 107.908507 49.940097 
L 108.654995 51.424259 
L 109.401484 59.826518 
L 110.147972 58.974942 
L 110.89446 51.739393 
L 111.640949 63.18274 
L 112.387437 78.082363 
L 113.133925 72.780157 
L 113.880413 65.356049 
L 114.626902 93.90076 
L 115.37339 73.373494 
L 116.119878 93.255578 
L 116.866367 106.637081 
L 117.612855 86.586684 
L 118.359343 77.155476 
L 119.105831 126.512824 
L 119.85232 94.909331 
L 120.598808 97.134443 
L 121.345296 129.048968 
L 122.091785 105.399897 
L 122.838273 117.428728 
L 123.584761 157.662014 
L 124.33125 128.301047 
L 125.077738 128.706063 
L 125.824226 138.30404 
L 126.570714 161.494263 
L 127.317203 136.381098 
L 128.063691 135.952884 
L 128.810179 173.5946 
L 129.556668 160.359282 
L 130.303156 166.938443 
L 131.796132 152.694044 
L 132.542621 177.636024 
L 133.289109 134.212147 
L 134.035597 137.662846 
L 134.782086 189.556911 
L 135.528574 168.26915 
L 136.275062 168.899847 
L 137.021551 178.249229 
L 137.768039 190.045086 
L 138.514527 181.303982 
L 139.261015 185.656565 
L 140.007504 176.111591 
L 140.753992 190.539709 
L 141.50048 188.116112 
L 142.246969 192.508341 
L 142.993457 173.936564 
L 143.739945 195.385422 
L 144.486433 191.275332 
L 145.232922 195.873621 
L 145.97941 195.379018 
L 146.725898 195.939795 
L 147.472387 195.672472 
L 148.218875 195.935203 
L 148.965363 195.751475 
L 149.711852 195.932531 
L 151.951316 195.901764 
L 152.697805 194.919574 
L 153.444293 195.941226 
L 161.655664 195.94175 
L 266.910514 195.94175 
L 266.910514 195.94175 
" style="fill:none;stroke:#419388;stroke-linecap:square;stroke-width:2.0;"/>
   </g>
   <g id="line2d_3">
    <path clip-path="url(#pa7bcaf5db4)" d="M 43.710514 23.171548 
L 60.879745 23.293626 
L 62.372721 23.281858 
L 63.119209 23.415602 
L 63.865698 23.325036 
L 66.851651 23.428418 
L 67.598139 23.353175 
L 68.344627 23.512813 
L 69.837604 23.463291 
L 71.330581 23.66057 
L 72.077069 23.522658 
L 73.570046 23.77825 
L 75.063022 23.55868 
L 75.80951 23.820504 
L 77.302487 23.722044 
L 78.048975 23.864292 
L 78.795464 23.888734 
L 79.541952 23.546508 
L 80.28844 24.288447 
L 81.034928 24.036774 
L 81.781417 24.443028 
L 82.527905 23.826093 
L 83.274393 24.873982 
L 84.76737 23.994239 
L 85.513858 24.855178 
L 86.260347 24.745588 
L 87.006835 25.412358 
L 87.753323 24.652468 
L 88.499811 25.500434 
L 89.2463 26.093346 
L 89.992788 24.814607 
L 90.739276 25.382719 
L 91.485765 25.401569 
L 92.232253 26.078665 
L 92.978741 27.230873 
L 93.725229 27.021744 
L 94.471718 25.769944 
L 95.218206 25.933568 
L 95.964694 27.061613 
L 96.711183 26.160321 
L 97.457671 28.009179 
L 98.204159 26.888327 
L 98.950648 27.033008 
L 99.697136 28.122188 
L 101.190112 27.119986 
L 101.936601 32.658132 
L 102.683089 29.605675 
L 103.429577 31.782173 
L 104.176066 28.709454 
L 104.922554 27.945582 
L 105.669042 28.107601 
L 106.41553 30.424615 
L 107.162019 33.226955 
L 107.908507 29.850711 
L 108.654995 36.761122 
L 109.401484 28.03773 
L 110.147972 36.243267 
L 110.89446 32.413828 
L 111.640949 34.655504 
L 112.387437 35.215727 
L 113.133925 36.415434 
L 113.880413 35.526421 
L 114.626902 36.436602 
L 115.37339 47.563959 
L 116.119878 50.145742 
L 116.866367 56.095442 
L 117.612855 46.812662 
L 118.359343 48.133975 
L 119.105831 58.825552 
L 119.85232 46.210536 
L 120.598808 59.513585 
L 121.345296 60.621014 
L 122.091785 67.809711 
L 122.838273 55.967251 
L 123.584761 51.731632 
L 124.33125 60.974329 
L 125.077738 85.368005 
L 125.824226 53.415889 
L 126.570714 76.450245 
L 127.317203 69.083783 
L 128.063691 65.078482 
L 128.810179 60.279777 
L 129.556668 78.602735 
L 130.303156 85.391996 
L 131.049644 101.781015 
L 131.796132 80.623805 
L 132.542621 73.047762 
L 133.289109 59.595456 
L 134.035597 75.795603 
L 134.782086 95.122992 
L 135.528574 89.003299 
L 136.275062 113.196853 
L 137.021551 108.639207 
L 137.768039 72.750323 
L 138.514527 114.561217 
L 139.261015 116.741668 
L 140.007504 136.073499 
L 140.753992 124.893422 
L 141.50048 140.198328 
L 142.246969 176.84541 
L 142.993457 150.072687 
L 143.739945 140.720368 
L 144.486433 171.918952 
L 145.232922 141.999798 
L 145.97941 177.375845 
L 146.725898 170.963393 
L 147.472387 186.394752 
L 148.218875 136.347305 
L 148.965363 164.117513 
L 149.711852 182.00572 
L 150.45834 186.11059 
L 151.204828 182.433926 
L 151.951316 194.313414 
L 152.697805 182.751849 
L 153.444293 187.124347 
L 154.190781 188.417408 
L 154.93727 195.17016 
L 155.683758 178.625464 
L 156.430246 193.595286 
L 157.176734 195.74402 
L 157.923223 193.588637 
L 158.669711 195.451203 
L 159.416199 194.470202 
L 160.162688 195.80621 
L 160.909176 194.220631 
L 161.655664 195.719507 
L 162.402153 195.863388 
L 163.148641 195.744415 
L 168.374059 195.941748 
L 266.910514 195.94175 
L 266.910514 195.94175 
" style="fill:none;stroke:#4577b5;stroke-linecap:square;stroke-width:2.0;"/>
   </g>
   <g id="line2d_4">
    <path clip-path="url(#pa7bcaf5db4)" d="M 43.710514 23.147299 
L 76.555999 23.258415 
L 77.302487 23.424959 
L 81.781417 23.297176 
L 82.527905 23.517785 
L 84.020882 23.490156 
L 85.513858 23.560849 
L 86.260347 23.400456 
L 87.006835 23.419287 
L 87.753323 23.766412 
L 89.992788 23.572997 
L 90.739276 23.792875 
L 91.485765 23.478032 
L 92.978741 23.738268 
L 93.725229 24.026661 
L 94.471718 23.775519 
L 95.218206 23.975898 
L 95.964694 24.797234 
L 96.711183 23.806629 
L 97.457671 24.087896 
L 98.204159 23.887409 
L 98.950648 24.131844 
L 99.697136 23.835811 
L 100.443624 24.566151 
L 101.190112 24.144708 
L 101.936601 24.453017 
L 102.683089 24.281292 
L 103.429577 25.991843 
L 104.176066 24.914861 
L 104.922554 24.870523 
L 105.669042 25.474318 
L 106.41553 25.730488 
L 107.162019 25.360628 
L 107.908507 25.759019 
L 108.654995 24.919473 
L 109.401484 26.436287 
L 110.147972 27.567462 
L 110.89446 30.044532 
L 111.640949 27.181557 
L 112.387437 26.8896 
L 113.133925 26.140733 
L 113.880413 26.772976 
L 114.626902 25.945652 
L 115.37339 28.738963 
L 116.119878 26.218433 
L 116.866367 27.710007 
L 117.612855 30.054792 
L 118.359343 30.553894 
L 119.105831 27.344505 
L 119.85232 27.495541 
L 120.598808 32.394418 
L 121.345296 31.431886 
L 122.091785 34.067786 
L 122.838273 26.706065 
L 123.584761 34.975471 
L 124.33125 31.059883 
L 125.077738 36.409185 
L 125.824226 31.703214 
L 126.570714 34.494582 
L 127.317203 34.911684 
L 128.063691 35.540487 
L 128.810179 33.468077 
L 129.556668 38.7887 
L 130.303156 41.783994 
L 131.049644 42.609748 
L 131.796132 44.946381 
L 132.542621 45.27624 
L 133.289109 40.535369 
L 134.035597 36.732844 
L 134.782086 53.599986 
L 135.528574 41.756692 
L 136.275062 41.153315 
L 137.021551 39.875918 
L 137.768039 62.269066 
L 139.261015 42.331812 
L 140.007504 38.44609 
L 141.50048 66.175662 
L 142.246969 61.367785 
L 142.993457 43.154694 
L 143.739945 45.840151 
L 144.486433 46.507523 
L 145.232922 64.150027 
L 145.97941 65.152016 
L 146.725898 76.046121 
L 147.472387 64.028522 
L 148.218875 72.934322 
L 148.965363 72.423624 
L 150.45834 92.331571 
L 151.204828 74.396394 
L 151.951316 81.948308 
L 152.697805 111.105445 
L 153.444293 87.875492 
L 154.190781 104.32174 
L 154.93727 116.331688 
L 155.683758 119.61949 
L 156.430246 90.890962 
L 157.176734 105.217318 
L 157.923223 144.859635 
L 158.669711 174.242766 
L 159.416199 116.900124 
L 160.162688 127.889131 
L 160.909176 158.237924 
L 161.655664 161.377481 
L 162.402153 169.918002 
L 163.148641 170.250703 
L 163.895129 163.373784 
L 164.641617 170.69818 
L 165.388106 163.419952 
L 166.134594 181.334383 
L 166.881082 178.366065 
L 167.627571 166.362159 
L 168.374059 182.496922 
L 169.120547 185.528871 
L 169.867035 163.000596 
L 170.613524 190.334773 
L 171.360012 191.8201 
L 172.1065 185.008454 
L 172.852989 187.817698 
L 173.599477 186.833901 
L 174.345965 192.137571 
L 175.092454 182.740696 
L 175.838942 193.054308 
L 176.58543 194.599606 
L 177.331918 195.256233 
L 178.078407 194.231747 
L 178.824895 192.59309 
L 179.571383 193.680543 
L 180.317872 195.77673 
L 181.06436 195.940921 
L 181.810848 194.346842 
L 182.557336 195.895497 
L 186.289778 195.941692 
L 266.910514 195.94175 
L 266.910514 195.94175 
" style="fill:none;stroke:#7c5ca9;stroke-linecap:square;stroke-width:2.0;"/>
   </g>
   <g id="line2d_5">
    <path clip-path="url(#pa7bcaf5db4)" d="M 43.710514 23.143572 
L 85.513858 23.249825 
L 86.260347 23.296953 
L 87.753323 23.23009 
L 89.992788 23.263592 
L 92.232253 23.302575 
L 95.218206 23.291956 
L 95.964694 23.416487 
L 96.711183 23.285863 
L 110.89446 23.672306 
L 112.387437 23.918825 
L 113.133925 23.951456 
L 113.880413 23.592032 
L 114.626902 23.637643 
L 115.37339 23.88662 
L 116.119878 23.921877 
L 116.866367 24.280239 
L 117.612855 23.957428 
L 118.359343 24.718512 
L 119.85232 24.587717 
L 120.598808 25.310555 
L 121.345296 25.521008 
L 122.091785 25.903458 
L 122.838273 24.831201 
L 123.584761 25.027591 
L 124.33125 26.153006 
L 125.077738 25.270105 
L 125.824226 24.741547 
L 126.570714 25.011424 
L 127.317203 26.647454 
L 128.063691 25.6255 
L 129.556668 28.01303 
L 130.303156 29.295666 
L 131.049644 26.054656 
L 131.796132 26.734118 
L 132.542621 26.28416 
L 133.289109 28.439738 
L 134.035597 27.408403 
L 134.782086 27.026024 
L 135.528574 31.081577 
L 136.275062 26.590329 
L 137.021551 30.740012 
L 137.768039 29.790906 
L 138.514527 30.600232 
L 139.261015 31.715442 
L 140.007504 35.060328 
L 140.753992 33.053888 
L 141.50048 34.140807 
L 142.246969 34.651808 
L 142.993457 33.856137 
L 143.739945 34.096678 
L 144.486433 35.759061 
L 145.232922 48.960533 
L 145.97941 39.186981 
L 146.725898 40.810794 
L 147.472387 42.123546 
L 148.218875 45.225433 
L 148.965363 45.066461 
L 149.711852 42.061182 
L 150.45834 55.435288 
L 151.204828 48.291074 
L 151.951316 42.343799 
L 152.697805 66.241709 
L 153.444293 47.955212 
L 154.190781 60.50289 
L 154.93727 64.852228 
L 155.683758 51.334375 
L 156.430246 52.55324 
L 157.176734 72.773177 
L 157.923223 51.657726 
L 158.669711 68.9204 
L 159.416199 60.330473 
L 160.162688 64.395662 
L 160.909176 97.300281 
L 161.655664 74.877357 
L 162.402153 67.62735 
L 163.148641 88.001336 
L 163.895129 97.820119 
L 164.641617 89.270212 
L 165.388106 136.013955 
L 166.134594 70.970019 
L 166.881082 118.156024 
L 167.627571 79.375485 
L 168.374059 101.347305 
L 169.120547 119.983411 
L 169.867035 98.657985 
L 170.613524 130.648105 
L 171.360012 121.214521 
L 172.1065 129.14503 
L 172.852989 93.519941 
L 173.599477 137.024786 
L 174.345965 120.05426 
L 175.838942 142.427429 
L 176.58543 116.205418 
L 177.331918 113.86297 
L 178.078407 174.525173 
L 178.824895 156.477214 
L 179.571383 109.205715 
L 180.317872 152.564203 
L 181.06436 174.739899 
L 181.810848 165.030501 
L 182.557336 167.291802 
L 183.303825 185.011369 
L 184.050313 151.207596 
L 184.796801 188.000858 
L 185.54329 185.701507 
L 187.036266 192.124839 
L 187.782755 194.015752 
L 188.529243 186.700456 
L 189.275731 195.78705 
L 190.022219 186.976175 
L 190.768708 194.271026 
L 191.515196 194.987475 
L 192.261684 189.941962 
L 193.008173 195.752188 
L 193.754661 195.848626 
L 194.501149 192.999966 
L 195.994126 195.900495 
L 198.233591 195.32401 
L 198.980079 195.941381 
L 266.910514 195.94175 
L 266.910514 195.94175 
" style="fill:none;stroke:#ae3f7c;stroke-linecap:square;stroke-width:2.0;"/>
   </g>
   <g id="line2d_6">
    <path clip-path="url(#pa7bcaf5db4)" d="M 43.710514 23.142232 
L 101.190112 23.217036 
L 104.176066 23.330226 
L 104.922554 23.24591 
L 106.41553 23.283843 
L 107.908507 23.258239 
L 111.640949 23.247868 
L 112.387437 23.437841 
L 113.133925 23.281466 
L 113.880413 23.284285 
L 115.37339 23.511491 
L 118.359343 23.380627 
L 119.105831 23.492356 
L 120.598808 23.549499 
L 121.345296 23.796006 
L 122.091785 23.463479 
L 122.838273 23.405269 
L 123.584761 23.803564 
L 124.33125 23.723193 
L 125.077738 24.561799 
L 125.824226 23.910972 
L 126.570714 24.109196 
L 127.317203 24.062883 
L 128.063691 24.127966 
L 128.810179 23.859997 
L 129.556668 24.28064 
L 130.303156 23.904384 
L 131.796132 24.735068 
L 132.542621 24.269291 
L 133.289109 24.032437 
L 134.035597 25.463556 
L 134.782086 24.515484 
L 135.528574 25.822245 
L 136.275062 25.928826 
L 137.021551 25.912084 
L 137.768039 25.156735 
L 138.514527 26.791745 
L 139.261015 25.235792 
L 140.007504 26.305837 
L 140.753992 25.577204 
L 141.50048 28.067509 
L 142.246969 27.723926 
L 142.993457 25.329387 
L 143.739945 26.841682 
L 144.486433 27.311501 
L 145.232922 26.839269 
L 145.97941 26.889407 
L 146.725898 29.002907 
L 147.472387 28.475157 
L 148.218875 27.410122 
L 148.965363 27.83933 
L 149.711852 29.169922 
L 150.45834 28.405765 
L 151.204828 31.841819 
L 151.951316 32.14632 
L 152.697805 32.212335 
L 153.444293 36.784246 
L 154.190781 32.535196 
L 154.93727 37.310515 
L 155.683758 36.824929 
L 156.430246 33.409106 
L 157.176734 32.306147 
L 157.923223 30.03023 
L 158.669711 40.378793 
L 159.416199 41.675269 
L 160.162688 41.897247 
L 160.909176 34.562434 
L 161.655664 34.537491 
L 162.402153 38.435293 
L 163.148641 35.360627 
L 163.895129 47.95477 
L 164.641617 40.113619 
L 165.388106 45.558266 
L 166.134594 46.444788 
L 166.881082 71.650371 
L 167.627571 47.600673 
L 168.374059 56.75763 
L 169.120547 47.573113 
L 169.867035 76.583127 
L 170.613524 58.920972 
L 171.360012 54.808843 
L 172.1065 74.017987 
L 172.852989 58.66982 
L 173.599477 60.510898 
L 174.345965 81.480042 
L 175.092454 83.049765 
L 175.838942 80.485344 
L 176.58543 92.472246 
L 177.331918 67.828146 
L 178.824895 93.783362 
L 179.571383 127.493378 
L 180.317872 106.854158 
L 181.06436 123.744575 
L 181.810848 136.679935 
L 182.557336 114.677149 
L 184.796801 164.728012 
L 185.54329 172.241401 
L 186.289778 161.873279 
L 187.036266 154.36903 
L 187.782755 152.08545 
L 188.529243 165.30892 
L 189.275731 138.95957 
L 190.022219 171.715818 
L 190.768708 155.695652 
L 191.515196 145.295961 
L 192.261684 187.352282 
L 193.008173 184.35381 
L 193.754661 183.825583 
L 194.501149 180.290779 
L 195.247637 175.561123 
L 195.994126 187.099669 
L 197.487102 177.947107 
L 198.233591 173.525519 
L 198.980079 181.715254 
L 199.726567 195.28262 
L 200.473056 193.394875 
L 201.219544 192.778883 
L 201.966032 194.247826 
L 202.71252 194.940947 
L 203.459009 195.297279 
L 204.205497 195.479203 
L 204.951985 194.362891 
L 205.698474 195.8761 
L 206.444962 193.404317 
L 207.19145 195.774436 
L 207.937938 195.94102 
L 208.684427 192.570782 
L 209.430915 195.839883 
L 210.177403 195.784368 
L 210.923892 195.911777 
L 214.656333 195.872996 
L 216.14931 195.941358 
L 216.895798 195.768087 
L 217.642286 195.94084 
L 222.121216 195.94175 
L 266.910514 195.94175 
L 266.910514 195.94175 
" style="fill:none;stroke:#d92230;stroke-linecap:square;stroke-width:2.0;"/>
   </g>
   <g id="line2d_7">
    <path clip-path="url(#pa7bcaf5db4)" d="M 43.710514 23.14191 
L 122.091785 23.204307 
L 124.33125 23.24822 
L 125.824226 23.250222 
L 127.317203 23.324038 
L 129.556668 23.26322 
L 131.049644 23.417757 
L 131.796132 23.28572 
L 136.275062 23.602114 
L 137.021551 23.489259 
L 138.514527 23.792286 
L 139.261015 23.402695 
L 140.007504 23.788862 
L 140.753992 23.419631 
L 141.50048 23.705208 
L 142.246969 23.552967 
L 142.993457 23.848858 
L 143.739945 23.836824 
L 144.486433 24.271109 
L 145.232922 23.608676 
L 145.97941 24.28521 
L 146.725898 24.381242 
L 147.472387 24.044884 
L 148.218875 24.446889 
L 148.965363 24.160136 
L 149.711852 24.04151 
L 151.204828 24.166699 
L 151.951316 24.010508 
L 152.697805 24.254402 
L 153.444293 24.735141 
L 154.190781 25.502973 
L 154.93727 24.901883 
L 155.683758 26.373348 
L 156.430246 25.151107 
L 157.176734 24.835795 
L 157.923223 24.988661 
L 158.669711 24.963665 
L 159.416199 26.340918 
L 160.162688 25.537133 
L 160.909176 25.292128 
L 161.655664 26.778631 
L 162.402153 26.506518 
L 163.148641 25.894792 
L 163.895129 27.019634 
L 165.388106 27.22764 
L 166.134594 26.159756 
L 166.881082 28.370623 
L 167.627571 25.939442 
L 168.374059 27.495061 
L 169.120547 29.796042 
L 169.867035 26.505964 
L 170.613524 28.690558 
L 171.360012 29.900408 
L 172.1065 28.242801 
L 172.852989 30.330532 
L 173.599477 29.087867 
L 174.345965 33.834275 
L 175.092454 31.752562 
L 175.838942 30.452014 
L 176.58543 30.339098 
L 177.331918 36.141988 
L 178.078407 33.844477 
L 178.824895 38.02085 
L 179.571383 38.553925 
L 180.317872 40.40628 
L 181.06436 37.209255 
L 181.810848 41.574228 
L 182.557336 43.092722 
L 183.303825 43.136729 
L 184.050313 45.053333 
L 184.796801 34.554855 
L 185.54329 59.289953 
L 186.289778 42.895731 
L 187.036266 52.097141 
L 187.782755 47.805857 
L 188.529243 50.867872 
L 189.275731 51.898329 
L 190.022219 51.698116 
L 190.768708 70.865861 
L 191.515196 65.450957 
L 192.261684 78.129617 
L 193.008173 63.184645 
L 193.754661 68.404928 
L 194.501149 93.481744 
L 195.247637 77.955411 
L 195.994126 84.304048 
L 196.740614 81.277369 
L 197.487102 91.773783 
L 198.233591 76.570069 
L 198.980079 98.590202 
L 199.726567 100.708538 
L 200.473056 94.134745 
L 201.966032 89.88318 
L 202.71252 121.955057 
L 203.459009 107.307111 
L 204.205497 143.462802 
L 204.951985 102.665619 
L 206.444962 172.553491 
L 207.19145 135.87501 
L 207.937938 162.511993 
L 208.684427 112.436345 
L 209.430915 168.256369 
L 210.177403 182.715332 
L 210.923892 166.42727 
L 211.67038 163.747288 
L 212.416868 175.566133 
L 213.163357 178.894465 
L 213.909845 174.574196 
L 214.656333 181.022872 
L 215.402821 172.442551 
L 216.14931 185.653461 
L 216.895798 149.948204 
L 217.642286 194.303036 
L 218.388775 194.198722 
L 219.135263 194.873491 
L 219.881751 191.10782 
L 220.62824 194.623116 
L 221.374728 195.723829 
L 222.121216 192.753289 
L 222.867704 195.911896 
L 224.360681 195.882574 
L 225.107169 195.583462 
L 225.853658 195.936874 
L 226.600146 195.809063 
L 227.346634 195.906541 
L 228.093122 195.792693 
L 228.839611 195.935726 
L 229.586099 195.741156 
L 230.332587 195.941745 
L 246.75533 195.94175 
L 266.910514 195.94175 
L 266.910514 195.94175 
" style="fill:none;stroke:#f04610;stroke-linecap:square;stroke-width:2.0;"/>
   </g>
   <g id="line2d_8">
    <path clip-path="url(#pa7bcaf5db4)" d="M 43.710514 23.141763 
L 131.049644 23.185248 
L 131.796132 23.273454 
L 133.289109 23.188962 
L 134.035597 23.267694 
L 135.528574 23.303768 
L 139.261015 23.29686 
L 140.753992 23.354114 
L 142.246969 23.325384 
L 142.993457 23.488221 
L 145.232922 23.481422 
L 145.97941 23.309024 
L 149.711852 23.770647 
L 151.204828 23.517158 
L 154.93727 23.763916 
L 155.683758 24.499327 
L 156.430246 24.011062 
L 157.176734 23.873072 
L 157.923223 24.563385 
L 158.669711 24.624886 
L 159.416199 24.060702 
L 160.162688 24.173399 
L 160.909176 24.031996 
L 161.655664 24.384736 
L 162.402153 24.208977 
L 163.148641 24.317309 
L 163.895129 24.603511 
L 164.641617 24.402423 
L 165.388106 25.436981 
L 166.134594 24.512782 
L 166.881082 24.313574 
L 167.627571 24.913575 
L 168.374059 25.88479 
L 169.120547 24.917766 
L 169.867035 25.861122 
L 170.613524 27.21457 
L 171.360012 25.809927 
L 172.1065 26.559715 
L 172.852989 28.654762 
L 173.599477 25.659219 
L 174.345965 26.129289 
L 175.092454 28.412957 
L 175.838942 26.777517 
L 176.58543 29.401369 
L 177.331918 26.857981 
L 178.078407 26.929029 
L 178.824895 29.601715 
L 179.571383 28.688147 
L 180.317872 28.545137 
L 181.06436 31.590551 
L 181.810848 30.840488 
L 182.557336 34.761095 
L 183.303825 29.019716 
L 184.050313 31.273207 
L 185.54329 31.65044 
L 186.289778 36.267419 
L 187.036266 31.978815 
L 187.782755 34.226287 
L 188.529243 47.379778 
L 189.275731 49.801676 
L 190.022219 34.428864 
L 190.768708 37.222079 
L 191.515196 47.252756 
L 192.261684 43.72887 
L 193.008173 37.026382 
L 194.501149 60.618124 
L 195.247637 62.463357 
L 195.994126 48.742392 
L 196.740614 48.253756 
L 197.487102 51.16972 
L 198.233591 52.806496 
L 198.980079 65.445955 
L 199.726567 51.014369 
L 200.473056 71.800366 
L 201.219544 47.861145 
L 202.71252 67.279146 
L 203.459009 64.013367 
L 204.205497 71.963641 
L 204.951985 67.360243 
L 205.698474 54.707113 
L 207.19145 99.964977 
L 207.937938 94.63166 
L 208.684427 74.407843 
L 209.430915 59.951089 
L 210.177403 103.778424 
L 210.923892 99.098455 
L 211.67038 106.408596 
L 212.416868 97.023287 
L 213.163357 106.98291 
L 213.909845 155.009104 
L 214.656333 120.951171 
L 215.402821 101.733973 
L 216.14931 106.779967 
L 216.895798 116.629262 
L 217.642286 154.407826 
L 218.388775 146.789481 
L 219.135263 135.130278 
L 219.881751 172.870273 
L 220.62824 132.486218 
L 221.374728 154.741809 
L 222.121216 162.980823 
L 222.867704 168.094403 
L 223.614193 148.846011 
L 224.360681 180.768518 
L 225.107169 167.040206 
L 225.853658 193.045075 
L 226.600146 186.372035 
L 227.346634 191.695497 
L 228.093122 191.403402 
L 228.839611 180.645696 
L 229.586099 193.366467 
L 230.332587 190.190382 
L 231.079076 188.0509 
L 231.825564 193.753616 
L 232.572052 194.080222 
L 233.318541 193.031505 
L 234.065029 195.575031 
L 234.811517 195.434125 
L 235.558005 194.712299 
L 236.304494 195.379997 
L 237.050982 193.048558 
L 237.79747 195.857295 
L 238.543959 195.805209 
L 239.290447 195.939795 
L 240.036935 195.723599 
L 240.783423 195.938786 
L 266.910514 195.94175 
L 266.910514 195.94175 
" style="fill:none;stroke:#ff7f00;stroke-linecap:square;stroke-width:2.0;"/>
   </g>
   <g id="patch_3">
    <path d="M 43.710514 195.94175 
L 43.710514 23.14175 
" style="fill:none;stroke:#000000;stroke-linecap:square;stroke-linejoin:miter;"/>
   </g>
   <g id="patch_4">
    <path d="M 43.710514 195.94175 
L 266.910514 195.94175 
" style="fill:none;stroke:#000000;stroke-linecap:square;stroke-linejoin:miter;"/>
   </g>
   <g id="patch_5">
    <path d="M 43.710514 23.14175 
L 266.910514 23.14175 
" style="fill:none;stroke:#000000;stroke-linecap:square;stroke-linejoin:miter;"/>
   </g>
   <g id="patch_6">
    <path d="M 266.910514 195.94175 
L 266.910514 23.14175 
" style="fill:none;stroke:#000000;stroke-linecap:square;stroke-linejoin:miter;"/>
   </g>
   <g id="matplotlib.axis_1">
    <g id="xtick_1">
     <g id="line2d_9">
      <defs>
       <path d="M 0 0 
L 0 -4 
" id="mbfcd98a5c0" style="stroke:#000000;stroke-width:0.5;"/>
      </defs>
      <g>
       <use style="stroke:#000000;stroke-width:0.5;" x="43.71051375" xlink:href="#mbfcd98a5c0" y="195.94175"/>
      </g>
     </g>
     <g id="line2d_10">
      <defs>
       <path d="M 0 0 
L 0 4 
" id="mca0eee7a97" style="stroke:#000000;stroke-width:0.5;"/>
      </defs>
      <g>
       <use style="stroke:#000000;stroke-width:0.5;" x="43.71051375" xlink:href="#mca0eee7a97" y="23.14175"/>
      </g>
     </g>
     <g id="text_1">
      <!-- −10 -->
      <defs>
       <path d="M 10.59375 35.5 
L 73.1875 35.5 
L 73.1875 27.203125 
L 10.59375 27.203125 
z
" id="BitstreamVeraSans-Roman-2212"/>
       <path d="M 12.40625 8.296875 
L 28.515625 8.296875 
L 28.515625 63.921875 
L 10.984375 60.40625 
L 10.984375 69.390625 
L 28.421875 72.90625 
L 38.28125 72.90625 
L 38.28125 8.296875 
L 54.390625 8.296875 
L 54.390625 0 
L 12.40625 0 
z
" id="BitstreamVeraSans-Roman-31"/>
       <path d="M 31.78125 66.40625 
Q 24.171875 66.40625 20.328125 58.90625 
Q 16.5 51.421875 16.5 36.375 
Q 16.5 21.390625 20.328125 13.890625 
Q 24.171875 6.390625 31.78125 6.390625 
Q 39.453125 6.390625 43.28125 13.890625 
Q 47.125 21.390625 47.125 36.375 
Q 47.125 51.421875 43.28125 58.90625 
Q 39.453125 66.40625 31.78125 66.40625 
M 31.78125 74.21875 
Q 44.046875 74.21875 50.515625 64.515625 
Q 56.984375 54.828125 56.984375 36.375 
Q 56.984375 17.96875 50.515625 8.265625 
Q 44.046875 -1.421875 31.78125 -1.421875 
Q 19.53125 -1.421875 13.0625 8.265625 
Q 6.59375 17.96875 6.59375 36.375 
Q 6.59375 54.828125 13.0625 64.515625 
Q 19.53125 74.21875 31.78125 74.21875 
" id="BitstreamVeraSans-Roman-30"/>
      </defs>
      <g transform="translate(33.1623909375 207.537148125)scale(0.09996 -0.09996)">
       <use xlink:href="#BitstreamVeraSans-Roman-2212"/>
       <use x="83.7890625" xlink:href="#BitstreamVeraSans-Roman-31"/>
       <use x="147.412109375" xlink:href="#BitstreamVeraSans-Roman-30"/>
      </g>
     </g>
    </g>
    <g id="xtick_2">
     <g id="line2d_11">
      <g>
       <use style="stroke:#000000;stroke-width:0.5;" x="99.51051375" xlink:href="#mbfcd98a5c0" y="195.94175"/>
      </g>
     </g>
     <g id="line2d_12">
      <g>
       <use style="stroke:#000000;stroke-width:0.5;" x="99.51051375" xlink:href="#mca0eee7a97" y="23.14175"/>
      </g>
     </g>
     <g id="text_2">
      <!-- −5 -->
      <defs>
       <path d="M 10.796875 72.90625 
L 49.515625 72.90625 
L 49.515625 64.59375 
L 19.828125 64.59375 
L 19.828125 46.734375 
Q 21.96875 47.46875 24.109375 47.828125 
Q 26.265625 48.1875 28.421875 48.1875 
Q 40.625 48.1875 47.75 41.5 
Q 54.890625 34.8125 54.890625 23.390625 
Q 54.890625 11.625 47.5625 5.09375 
Q 40.234375 -1.421875 26.90625 -1.421875 
Q 22.3125 -1.421875 17.546875 -0.640625 
Q 12.796875 0.140625 7.71875 1.703125 
L 7.71875 11.625 
Q 12.109375 9.234375 16.796875 8.0625 
Q 21.484375 6.890625 26.703125 6.890625 
Q 35.15625 6.890625 40.078125 11.328125 
Q 45.015625 15.765625 45.015625 23.390625 
Q 45.015625 31 40.078125 35.4375 
Q 35.15625 39.890625 26.703125 39.890625 
Q 22.75 39.890625 18.8125 39.015625 
Q 14.890625 38.140625 10.796875 36.28125 
z
" id="BitstreamVeraSans-Roman-35"/>
      </defs>
      <g transform="translate(92.1423684375 207.537148125)scale(0.09996 -0.09996)">
       <use xlink:href="#BitstreamVeraSans-Roman-2212"/>
       <use x="83.7890625" xlink:href="#BitstreamVeraSans-Roman-35"/>
      </g>
     </g>
    </g>
    <g id="xtick_3">
     <g id="line2d_13">
      <g>
       <use style="stroke:#000000;stroke-width:0.5;" x="155.31051375" xlink:href="#mbfcd98a5c0" y="195.94175"/>
      </g>
     </g>
     <g id="line2d_14">
      <g>
       <use style="stroke:#000000;stroke-width:0.5;" x="155.31051375" xlink:href="#mca0eee7a97" y="23.14175"/>
      </g>
     </g>
     <g id="text_3">
      <!-- 0 -->
      <g transform="translate(152.13053625 207.537148125)scale(0.09996 -0.09996)">
       <use xlink:href="#BitstreamVeraSans-Roman-30"/>
      </g>
     </g>
    </g>
    <g id="xtick_4">
     <g id="line2d_15">
      <g>
       <use style="stroke:#000000;stroke-width:0.5;" x="211.11051375" xlink:href="#mbfcd98a5c0" y="195.94175"/>
      </g>
     </g>
     <g id="line2d_16">
      <g>
       <use style="stroke:#000000;stroke-width:0.5;" x="211.11051375" xlink:href="#mca0eee7a97" y="23.14175"/>
      </g>
     </g>
     <g id="text_4">
      <!-- 5 -->
      <g transform="translate(207.93053625 207.537148125)scale(0.09996 -0.09996)">
       <use xlink:href="#BitstreamVeraSans-Roman-35"/>
      </g>
     </g>
    </g>
    <g id="xtick_5">
     <g id="line2d_17">
      <g>
       <use style="stroke:#000000;stroke-width:0.5;" x="266.91051375" xlink:href="#mbfcd98a5c0" y="195.94175"/>
      </g>
     </g>
     <g id="line2d_18">
      <g>
       <use style="stroke:#000000;stroke-width:0.5;" x="266.91051375" xlink:href="#mca0eee7a97" y="23.14175"/>
      </g>
     </g>
     <g id="text_5">
      <!-- 10 -->
      <g transform="translate(260.55055875 207.537148125)scale(0.09996 -0.09996)">
       <use xlink:href="#BitstreamVeraSans-Roman-31"/>
       <use x="63.623046875" xlink:href="#BitstreamVeraSans-Roman-30"/>
      </g>
     </g>
    </g>
    <g id="text_6">
     <!-- This is the x-axis -->
     <defs>
      <path d="M 9.421875 54.6875 
L 18.40625 54.6875 
L 18.40625 0 
L 9.421875 0 
z
M 9.421875 75.984375 
L 18.40625 75.984375 
L 18.40625 64.59375 
L 9.421875 64.59375 
z
" id="BitstreamVeraSans-Roman-69"/>
      <path id="BitstreamVeraSans-Roman-20"/>
      <path d="M 34.28125 27.484375 
Q 23.390625 27.484375 19.1875 25 
Q 14.984375 22.515625 14.984375 16.5 
Q 14.984375 11.71875 18.140625 8.90625 
Q 21.296875 6.109375 26.703125 6.109375 
Q 34.1875 6.109375 38.703125 11.40625 
Q 43.21875 16.703125 43.21875 25.484375 
L 43.21875 27.484375 
z
M 52.203125 31.203125 
L 52.203125 0 
L 43.21875 0 
L 43.21875 8.296875 
Q 40.140625 3.328125 35.546875 0.953125 
Q 30.953125 -1.421875 24.3125 -1.421875 
Q 15.921875 -1.421875 10.953125 3.296875 
Q 6 8.015625 6 15.921875 
Q 6 25.140625 12.171875 29.828125 
Q 18.359375 34.515625 30.609375 34.515625 
L 43.21875 34.515625 
L 43.21875 35.40625 
Q 43.21875 41.609375 39.140625 45 
Q 35.0625 48.390625 27.6875 48.390625 
Q 23 48.390625 18.546875 47.265625 
Q 14.109375 46.140625 10.015625 43.890625 
L 10.015625 52.203125 
Q 14.9375 54.109375 19.578125 55.046875 
Q 24.21875 56 28.609375 56 
Q 40.484375 56 46.34375 49.84375 
Q 52.203125 43.703125 52.203125 31.203125 
" id="BitstreamVeraSans-Roman-61"/>
      <path d="M -0.296875 72.90625 
L 61.375 72.90625 
L 61.375 64.59375 
L 35.5 64.59375 
L 35.5 0 
L 25.59375 0 
L 25.59375 64.59375 
L -0.296875 64.59375 
z
" id="BitstreamVeraSans-Roman-54"/>
      <path d="M 44.28125 53.078125 
L 44.28125 44.578125 
Q 40.484375 46.53125 36.375 47.5 
Q 32.28125 48.484375 27.875 48.484375 
Q 21.1875 48.484375 17.84375 46.4375 
Q 14.5 44.390625 14.5 40.28125 
Q 14.5 37.15625 16.890625 35.375 
Q 19.28125 33.59375 26.515625 31.984375 
L 29.59375 31.296875 
Q 39.15625 29.25 43.1875 25.515625 
Q 47.21875 21.78125 47.21875 15.09375 
Q 47.21875 7.46875 41.1875 3.015625 
Q 35.15625 -1.421875 24.609375 -1.421875 
Q 20.21875 -1.421875 15.453125 -0.5625 
Q 10.6875 0.296875 5.421875 2 
L 5.421875 11.28125 
Q 10.40625 8.6875 15.234375 7.390625 
Q 20.0625 6.109375 24.8125 6.109375 
Q 31.15625 6.109375 34.5625 8.28125 
Q 37.984375 10.453125 37.984375 14.40625 
Q 37.984375 18.0625 35.515625 20.015625 
Q 33.0625 21.96875 24.703125 23.78125 
L 21.578125 24.515625 
Q 13.234375 26.265625 9.515625 29.90625 
Q 5.8125 33.546875 5.8125 39.890625 
Q 5.8125 47.609375 11.28125 51.796875 
Q 16.75 56 26.8125 56 
Q 31.78125 56 36.171875 55.265625 
Q 40.578125 54.546875 44.28125 53.078125 
" id="BitstreamVeraSans-Roman-73"/>
      <path d="M 4.890625 31.390625 
L 31.203125 31.390625 
L 31.203125 23.390625 
L 4.890625 23.390625 
z
" id="BitstreamVeraSans-Roman-2d"/>
      <path d="M 54.890625 54.6875 
L 35.109375 28.078125 
L 55.90625 0 
L 45.3125 0 
L 29.390625 21.484375 
L 13.484375 0 
L 2.875 0 
L 24.125 28.609375 
L 4.6875 54.6875 
L 15.28125 54.6875 
L 29.78125 35.203125 
L 44.28125 54.6875 
z
" id="BitstreamVeraSans-Roman-78"/>
      <path d="M 18.3125 70.21875 
L 18.3125 54.6875 
L 36.8125 54.6875 
L 36.8125 47.703125 
L 18.3125 47.703125 
L 18.3125 18.015625 
Q 18.3125 11.328125 20.140625 9.421875 
Q 21.96875 7.515625 27.59375 7.515625 
L 36.8125 7.515625 
L 36.8125 0 
L 27.59375 0 
Q 17.1875 0 13.234375 3.875 
Q 9.28125 7.765625 9.28125 18.015625 
L 9.28125 47.703125 
L 2.6875 47.703125 
L 2.6875 54.6875 
L 9.28125 54.6875 
L 9.28125 70.21875 
z
" id="BitstreamVeraSans-Roman-74"/>
      <path d="M 54.890625 33.015625 
L 54.890625 0 
L 45.90625 0 
L 45.90625 32.71875 
Q 45.90625 40.484375 42.875 44.328125 
Q 39.84375 48.1875 33.796875 48.1875 
Q 26.515625 48.1875 22.3125 43.546875 
Q 18.109375 38.921875 18.109375 30.90625 
L 18.109375 0 
L 9.078125 0 
L 9.078125 75.984375 
L 18.109375 75.984375 
L 18.109375 46.1875 
Q 21.34375 51.125 25.703125 53.5625 
Q 30.078125 56 35.796875 56 
Q 45.21875 56 50.046875 50.171875 
Q 54.890625 44.34375 54.890625 33.015625 
" id="BitstreamVeraSans-Roman-68"/>
      <path d="M 56.203125 29.59375 
L 56.203125 25.203125 
L 14.890625 25.203125 
Q 15.484375 15.921875 20.484375 11.0625 
Q 25.484375 6.203125 34.421875 6.203125 
Q 39.59375 6.203125 44.453125 7.46875 
Q 49.3125 8.734375 54.109375 11.28125 
L 54.109375 2.78125 
Q 49.265625 0.734375 44.1875 -0.34375 
Q 39.109375 -1.421875 33.890625 -1.421875 
Q 20.796875 -1.421875 13.15625 6.1875 
Q 5.515625 13.8125 5.515625 26.8125 
Q 5.515625 40.234375 12.765625 48.109375 
Q 20.015625 56 32.328125 56 
Q 43.359375 56 49.78125 48.890625 
Q 56.203125 41.796875 56.203125 29.59375 
M 47.21875 32.234375 
Q 47.125 39.59375 43.09375 43.984375 
Q 39.0625 48.390625 32.421875 48.390625 
Q 24.90625 48.390625 20.390625 44.140625 
Q 15.875 39.890625 15.1875 32.171875 
z
" id="BitstreamVeraSans-Roman-65"/>
     </defs>
     <g transform="translate(104.95457625 223.73412875)scale(0.12 -0.12)">
      <use xlink:href="#BitstreamVeraSans-Roman-54"/>
      <use x="61.083984375" xlink:href="#BitstreamVeraSans-Roman-68"/>
      <use x="124.462890625" xlink:href="#BitstreamVeraSans-Roman-69"/>
      <use x="152.24609375" xlink:href="#BitstreamVeraSans-Roman-73"/>
      <use x="204.345703125" xlink:href="#BitstreamVeraSans-Roman-20"/>
      <use x="236.1328125" xlink:href="#BitstreamVeraSans-Roman-69"/>
      <use x="263.916015625" xlink:href="#BitstreamVeraSans-Roman-73"/>
      <use x="316.015625" xlink:href="#BitstreamVeraSans-Roman-20"/>
      <use x="347.802734375" xlink:href="#BitstreamVeraSans-Roman-74"/>
      <use x="387.01171875" xlink:href="#BitstreamVeraSans-Roman-68"/>
      <use x="450.390625" xlink:href="#BitstreamVeraSans-Roman-65"/>
      <use x="511.9140625" xlink:href="#BitstreamVeraSans-Roman-20"/>
      <use x="543.701171875" xlink:href="#BitstreamVeraSans-Roman-78"/>
      <use x="602.880859375" xlink:href="#BitstreamVeraSans-Roman-2d"/>
      <use x="638.96484375" xlink:href="#BitstreamVeraSans-Roman-61"/>
      <use x="700.244140625" xlink:href="#BitstreamVeraSans-Roman-78"/>
      <use x="759.423828125" xlink:href="#BitstreamVeraSans-Roman-69"/>
      <use x="787.20703125" xlink:href="#BitstreamVeraSans-Roman-73"/>
     </g>
    </g>
   </g>
   <g id="matplotlib.axis_2">
    <g id="ytick_1">
     <g id="line2d_19">
      <defs>
       <path d="M 0 0 
L 4 0 
" id="m99a8fdf14c" style="stroke:#000000;stroke-width:0.5;"/>
      </defs>
      <g>
       <use style="stroke:#000000;stroke-width:0.5;" x="43.71051375" xlink:href="#m99a8fdf14c" y="195.94175"/>
      </g>
     </g>
     <g id="line2d_20">
      <defs>
       <path d="M 0 0 
L -4 0 
" id="m66dbbf7cb8" style="stroke:#000000;stroke-width:0.5;"/>
      </defs>
      <g>
       <use style="stroke:#000000;stroke-width:0.5;" x="266.91051375" xlink:href="#m66dbbf7cb8" y="195.94175"/>
      </g>
     </g>
     <g id="text_7">
      <!-- 0.0 -->
      <defs>
       <path d="M 10.6875 12.40625 
L 21 12.40625 
L 21 0 
L 10.6875 0 
z
" id="BitstreamVeraSans-Roman-2e"/>
      </defs>
      <g transform="translate(23.81375 198.70002125)scale(0.09996 -0.09996)">
       <use xlink:href="#BitstreamVeraSans-Roman-30"/>
       <use x="63.623046875" xlink:href="#BitstreamVeraSans-Roman-2e"/>
       <use x="95.41015625" xlink:href="#BitstreamVeraSans-Roman-30"/>
      </g>
     </g>
    </g>
    <g id="ytick_2">
     <g id="line2d_21">
      <g>
       <use style="stroke:#000000;stroke-width:0.5;" x="43.71051375" xlink:href="#m99a8fdf14c" y="161.38175"/>
      </g>
     </g>
     <g id="line2d_22">
      <g>
       <use style="stroke:#000000;stroke-width:0.5;" x="266.91051375" xlink:href="#m66dbbf7cb8" y="161.38175"/>
      </g>
     </g>
     <g id="text_8">
      <!-- 0.2 -->
      <defs>
       <path d="M 19.1875 8.296875 
L 53.609375 8.296875 
L 53.609375 0 
L 7.328125 0 
L 7.328125 8.296875 
Q 12.9375 14.109375 22.625 23.890625 
Q 32.328125 33.6875 34.8125 36.53125 
Q 39.546875 41.84375 41.421875 45.53125 
Q 43.3125 49.21875 43.3125 52.78125 
Q 43.3125 58.59375 39.234375 62.25 
Q 35.15625 65.921875 28.609375 65.921875 
Q 23.96875 65.921875 18.8125 64.3125 
Q 13.671875 62.703125 7.8125 59.421875 
L 7.8125 69.390625 
Q 13.765625 71.78125 18.9375 73 
Q 24.125 74.21875 28.421875 74.21875 
Q 39.75 74.21875 46.484375 68.546875 
Q 53.21875 62.890625 53.21875 53.421875 
Q 53.21875 48.921875 51.53125 44.890625 
Q 49.859375 40.875 45.40625 35.40625 
Q 44.1875 33.984375 37.640625 27.21875 
Q 31.109375 20.453125 19.1875 8.296875 
" id="BitstreamVeraSans-Roman-32"/>
      </defs>
      <g transform="translate(23.81375 164.14002125)scale(0.09996 -0.09996)">
       <use xlink:href="#BitstreamVeraSans-Roman-30"/>
       <use x="63.623046875" xlink:href="#BitstreamVeraSans-Roman-2e"/>
       <use x="95.41015625" xlink:href="#BitstreamVeraSans-Roman-32"/>
      </g>
     </g>
    </g>
    <g id="ytick_3">
     <g id="line2d_23">
      <g>
       <use style="stroke:#000000;stroke-width:0.5;" x="43.71051375" xlink:href="#m99a8fdf14c" y="126.82175"/>
      </g>
     </g>
     <g id="line2d_24">
      <g>
       <use style="stroke:#000000;stroke-width:0.5;" x="266.91051375" xlink:href="#m66dbbf7cb8" y="126.82175"/>
      </g>
     </g>
     <g id="text_9">
      <!-- 0.4 -->
      <defs>
       <path d="M 37.796875 64.3125 
L 12.890625 25.390625 
L 37.796875 25.390625 
z
M 35.203125 72.90625 
L 47.609375 72.90625 
L 47.609375 25.390625 
L 58.015625 25.390625 
L 58.015625 17.1875 
L 47.609375 17.1875 
L 47.609375 0 
L 37.796875 0 
L 37.796875 17.1875 
L 4.890625 17.1875 
L 4.890625 26.703125 
z
" id="BitstreamVeraSans-Roman-34"/>
      </defs>
      <g transform="translate(23.81375 129.58002125)scale(0.09996 -0.09996)">
       <use xlink:href="#BitstreamVeraSans-Roman-30"/>
       <use x="63.623046875" xlink:href="#BitstreamVeraSans-Roman-2e"/>
       <use x="95.41015625" xlink:href="#BitstreamVeraSans-Roman-34"/>
      </g>
     </g>
    </g>
    <g id="ytick_4">
     <g id="line2d_25">
      <g>
       <use style="stroke:#000000;stroke-width:0.5;" x="43.71051375" xlink:href="#m99a8fdf14c" y="92.26175"/>
      </g>
     </g>
     <g id="line2d_26">
      <g>
       <use style="stroke:#000000;stroke-width:0.5;" x="266.91051375" xlink:href="#m66dbbf7cb8" y="92.26175"/>
      </g>
     </g>
     <g id="text_10">
      <!-- 0.6 -->
      <defs>
       <path d="M 33.015625 40.375 
Q 26.375 40.375 22.484375 35.828125 
Q 18.609375 31.296875 18.609375 23.390625 
Q 18.609375 15.53125 22.484375 10.953125 
Q 26.375 6.390625 33.015625 6.390625 
Q 39.65625 6.390625 43.53125 10.953125 
Q 47.40625 15.53125 47.40625 23.390625 
Q 47.40625 31.296875 43.53125 35.828125 
Q 39.65625 40.375 33.015625 40.375 
M 52.59375 71.296875 
L 52.59375 62.3125 
Q 48.875 64.0625 45.09375 64.984375 
Q 41.3125 65.921875 37.59375 65.921875 
Q 27.828125 65.921875 22.671875 59.328125 
Q 17.53125 52.734375 16.796875 39.40625 
Q 19.671875 43.65625 24.015625 45.921875 
Q 28.375 48.1875 33.59375 48.1875 
Q 44.578125 48.1875 50.953125 41.515625 
Q 57.328125 34.859375 57.328125 23.390625 
Q 57.328125 12.15625 50.6875 5.359375 
Q 44.046875 -1.421875 33.015625 -1.421875 
Q 20.359375 -1.421875 13.671875 8.265625 
Q 6.984375 17.96875 6.984375 36.375 
Q 6.984375 53.65625 15.1875 63.9375 
Q 23.390625 74.21875 37.203125 74.21875 
Q 40.921875 74.21875 44.703125 73.484375 
Q 48.484375 72.75 52.59375 71.296875 
" id="BitstreamVeraSans-Roman-36"/>
      </defs>
      <g transform="translate(23.81375 95.02002125)scale(0.09996 -0.09996)">
       <use xlink:href="#BitstreamVeraSans-Roman-30"/>
       <use x="63.623046875" xlink:href="#BitstreamVeraSans-Roman-2e"/>
       <use x="95.41015625" xlink:href="#BitstreamVeraSans-Roman-36"/>
      </g>
     </g>
    </g>
    <g id="ytick_5">
     <g id="line2d_27">
      <g>
       <use style="stroke:#000000;stroke-width:0.5;" x="43.71051375" xlink:href="#m99a8fdf14c" y="57.70175"/>
      </g>
     </g>
     <g id="line2d_28">
      <g>
       <use style="stroke:#000000;stroke-width:0.5;" x="266.91051375" xlink:href="#m66dbbf7cb8" y="57.70175"/>
      </g>
     </g>
     <g id="text_11">
      <!-- 0.8 -->
      <defs>
       <path d="M 31.78125 34.625 
Q 24.75 34.625 20.71875 30.859375 
Q 16.703125 27.09375 16.703125 20.515625 
Q 16.703125 13.921875 20.71875 10.15625 
Q 24.75 6.390625 31.78125 6.390625 
Q 38.8125 6.390625 42.859375 10.171875 
Q 46.921875 13.96875 46.921875 20.515625 
Q 46.921875 27.09375 42.890625 30.859375 
Q 38.875 34.625 31.78125 34.625 
M 21.921875 38.8125 
Q 15.578125 40.375 12.03125 44.71875 
Q 8.5 49.078125 8.5 55.328125 
Q 8.5 64.0625 14.71875 69.140625 
Q 20.953125 74.21875 31.78125 74.21875 
Q 42.671875 74.21875 48.875 69.140625 
Q 55.078125 64.0625 55.078125 55.328125 
Q 55.078125 49.078125 51.53125 44.71875 
Q 48 40.375 41.703125 38.8125 
Q 48.828125 37.15625 52.796875 32.3125 
Q 56.78125 27.484375 56.78125 20.515625 
Q 56.78125 9.90625 50.3125 4.234375 
Q 43.84375 -1.421875 31.78125 -1.421875 
Q 19.734375 -1.421875 13.25 4.234375 
Q 6.78125 9.90625 6.78125 20.515625 
Q 6.78125 27.484375 10.78125 32.3125 
Q 14.796875 37.15625 21.921875 38.8125 
M 18.3125 54.390625 
Q 18.3125 48.734375 21.84375 45.5625 
Q 25.390625 42.390625 31.78125 42.390625 
Q 38.140625 42.390625 41.71875 45.5625 
Q 45.3125 48.734375 45.3125 54.390625 
Q 45.3125 60.0625 41.71875 63.234375 
Q 38.140625 66.40625 31.78125 66.40625 
Q 25.390625 66.40625 21.84375 63.234375 
Q 18.3125 60.0625 18.3125 54.390625 
" id="BitstreamVeraSans-Roman-38"/>
      </defs>
      <g transform="translate(23.81375 60.46002125)scale(0.09996 -0.09996)">
       <use xlink:href="#BitstreamVeraSans-Roman-30"/>
       <use x="63.623046875" xlink:href="#BitstreamVeraSans-Roman-2e"/>
       <use x="95.41015625" xlink:href="#BitstreamVeraSans-Roman-38"/>
      </g>
     </g>
    </g>
    <g id="ytick_6">
     <g id="line2d_29">
      <g>
       <use style="stroke:#000000;stroke-width:0.5;" x="43.71051375" xlink:href="#m99a8fdf14c" y="23.14175"/>
      </g>
     </g>
     <g id="line2d_30">
      <g>
       <use style="stroke:#000000;stroke-width:0.5;" x="266.91051375" xlink:href="#m66dbbf7cb8" y="23.14175"/>
      </g>
     </g>
     <g id="text_12">
      <!-- 1.0 -->
      <g transform="translate(23.81375 25.90002125)scale(0.09996 -0.09996)">
       <use xlink:href="#BitstreamVeraSans-Roman-31"/>
       <use x="63.623046875" xlink:href="#BitstreamVeraSans-Roman-2e"/>
       <use x="95.41015625" xlink:href="#BitstreamVeraSans-Roman-30"/>
      </g>
     </g>
    </g>
    <g id="text_13">
     <!-- Random but decaying values -->
     <defs>
      <path d="M 44.390625 34.1875 
Q 47.5625 33.109375 50.5625 29.59375 
Q 53.5625 26.078125 56.59375 19.921875 
L 66.609375 0 
L 56 0 
L 46.6875 18.703125 
Q 43.0625 26.03125 39.671875 28.421875 
Q 36.28125 30.8125 30.421875 30.8125 
L 19.671875 30.8125 
L 19.671875 0 
L 9.8125 0 
L 9.8125 72.90625 
L 32.078125 72.90625 
Q 44.578125 72.90625 50.734375 67.671875 
Q 56.890625 62.453125 56.890625 51.90625 
Q 56.890625 45.015625 53.6875 40.46875 
Q 50.484375 35.9375 44.390625 34.1875 
M 19.671875 64.796875 
L 19.671875 38.921875 
L 32.078125 38.921875 
Q 39.203125 38.921875 42.84375 42.21875 
Q 46.484375 45.515625 46.484375 51.90625 
Q 46.484375 58.296875 42.84375 61.546875 
Q 39.203125 64.796875 32.078125 64.796875 
z
" id="BitstreamVeraSans-Roman-52"/>
      <path d="M 30.609375 48.390625 
Q 23.390625 48.390625 19.1875 42.75 
Q 14.984375 37.109375 14.984375 27.296875 
Q 14.984375 17.484375 19.15625 11.84375 
Q 23.34375 6.203125 30.609375 6.203125 
Q 37.796875 6.203125 41.984375 11.859375 
Q 46.1875 17.53125 46.1875 27.296875 
Q 46.1875 37.015625 41.984375 42.703125 
Q 37.796875 48.390625 30.609375 48.390625 
M 30.609375 56 
Q 42.328125 56 49.015625 48.375 
Q 55.71875 40.765625 55.71875 27.296875 
Q 55.71875 13.875 49.015625 6.21875 
Q 42.328125 -1.421875 30.609375 -1.421875 
Q 18.84375 -1.421875 12.171875 6.21875 
Q 5.515625 13.875 5.515625 27.296875 
Q 5.515625 40.765625 12.171875 48.375 
Q 18.84375 56 30.609375 56 
" id="BitstreamVeraSans-Roman-6f"/>
      <path d="M 45.40625 46.390625 
L 45.40625 75.984375 
L 54.390625 75.984375 
L 54.390625 0 
L 45.40625 0 
L 45.40625 8.203125 
Q 42.578125 3.328125 38.25 0.953125 
Q 33.9375 -1.421875 27.875 -1.421875 
Q 17.96875 -1.421875 11.734375 6.484375 
Q 5.515625 14.40625 5.515625 27.296875 
Q 5.515625 40.1875 11.734375 48.09375 
Q 17.96875 56 27.875 56 
Q 33.9375 56 38.25 53.625 
Q 42.578125 51.265625 45.40625 46.390625 
M 14.796875 27.296875 
Q 14.796875 17.390625 18.875 11.75 
Q 22.953125 6.109375 30.078125 6.109375 
Q 37.203125 6.109375 41.296875 11.75 
Q 45.40625 17.390625 45.40625 27.296875 
Q 45.40625 37.203125 41.296875 42.84375 
Q 37.203125 48.484375 30.078125 48.484375 
Q 22.953125 48.484375 18.875 42.84375 
Q 14.796875 37.203125 14.796875 27.296875 
" id="BitstreamVeraSans-Roman-64"/>
      <path d="M 52 44.1875 
Q 55.375 50.25 60.0625 53.125 
Q 64.75 56 71.09375 56 
Q 79.640625 56 84.28125 50.015625 
Q 88.921875 44.046875 88.921875 33.015625 
L 88.921875 0 
L 79.890625 0 
L 79.890625 32.71875 
Q 79.890625 40.578125 77.09375 44.375 
Q 74.3125 48.1875 68.609375 48.1875 
Q 61.625 48.1875 57.5625 43.546875 
Q 53.515625 38.921875 53.515625 30.90625 
L 53.515625 0 
L 44.484375 0 
L 44.484375 32.71875 
Q 44.484375 40.625 41.703125 44.40625 
Q 38.921875 48.1875 33.109375 48.1875 
Q 26.21875 48.1875 22.15625 43.53125 
Q 18.109375 38.875 18.109375 30.90625 
L 18.109375 0 
L 9.078125 0 
L 9.078125 54.6875 
L 18.109375 54.6875 
L 18.109375 46.1875 
Q 21.1875 51.21875 25.484375 53.609375 
Q 29.78125 56 35.6875 56 
Q 41.65625 56 45.828125 52.96875 
Q 50 49.953125 52 44.1875 
" id="BitstreamVeraSans-Roman-6d"/>
      <path d="M 32.171875 -5.078125 
Q 28.375 -14.84375 24.75 -17.8125 
Q 21.140625 -20.796875 15.09375 -20.796875 
L 7.90625 -20.796875 
L 7.90625 -13.28125 
L 13.1875 -13.28125 
Q 16.890625 -13.28125 18.9375 -11.515625 
Q 21 -9.765625 23.484375 -3.21875 
L 25.09375 0.875 
L 2.984375 54.6875 
L 12.5 54.6875 
L 29.59375 11.921875 
L 46.6875 54.6875 
L 56.203125 54.6875 
z
" id="BitstreamVeraSans-Roman-79"/>
      <path d="M 54.890625 33.015625 
L 54.890625 0 
L 45.90625 0 
L 45.90625 32.71875 
Q 45.90625 40.484375 42.875 44.328125 
Q 39.84375 48.1875 33.796875 48.1875 
Q 26.515625 48.1875 22.3125 43.546875 
Q 18.109375 38.921875 18.109375 30.90625 
L 18.109375 0 
L 9.078125 0 
L 9.078125 54.6875 
L 18.109375 54.6875 
L 18.109375 46.1875 
Q 21.34375 51.125 25.703125 53.5625 
Q 30.078125 56 35.796875 56 
Q 45.21875 56 50.046875 50.171875 
Q 54.890625 44.34375 54.890625 33.015625 
" id="BitstreamVeraSans-Roman-6e"/>
      <path d="M 2.984375 54.6875 
L 12.5 54.6875 
L 29.59375 8.796875 
L 46.6875 54.6875 
L 56.203125 54.6875 
L 35.6875 0 
L 23.484375 0 
z
" id="BitstreamVeraSans-Roman-76"/>
      <path d="M 48.78125 52.59375 
L 48.78125 44.1875 
Q 44.96875 46.296875 41.140625 47.34375 
Q 37.3125 48.390625 33.40625 48.390625 
Q 24.65625 48.390625 19.8125 42.84375 
Q 14.984375 37.3125 14.984375 27.296875 
Q 14.984375 17.28125 19.8125 11.734375 
Q 24.65625 6.203125 33.40625 6.203125 
Q 37.3125 6.203125 41.140625 7.25 
Q 44.96875 8.296875 48.78125 10.40625 
L 48.78125 2.09375 
Q 45.015625 0.34375 40.984375 -0.53125 
Q 36.96875 -1.421875 32.421875 -1.421875 
Q 20.0625 -1.421875 12.78125 6.34375 
Q 5.515625 14.109375 5.515625 27.296875 
Q 5.515625 40.671875 12.859375 48.328125 
Q 20.21875 56 33.015625 56 
Q 37.15625 56 41.109375 55.140625 
Q 45.0625 54.296875 48.78125 52.59375 
" id="BitstreamVeraSans-Roman-63"/>
      <path d="M 9.421875 75.984375 
L 18.40625 75.984375 
L 18.40625 0 
L 9.421875 0 
z
" id="BitstreamVeraSans-Roman-6c"/>
      <path d="M 8.5 21.578125 
L 8.5 54.6875 
L 17.484375 54.6875 
L 17.484375 21.921875 
Q 17.484375 14.15625 20.5 10.265625 
Q 23.53125 6.390625 29.59375 6.390625 
Q 36.859375 6.390625 41.078125 11.03125 
Q 45.3125 15.671875 45.3125 23.6875 
L 45.3125 54.6875 
L 54.296875 54.6875 
L 54.296875 0 
L 45.3125 0 
L 45.3125 8.40625 
Q 42.046875 3.421875 37.71875 1 
Q 33.40625 -1.421875 27.6875 -1.421875 
Q 18.265625 -1.421875 13.375 4.4375 
Q 8.5 10.296875 8.5 21.578125 
" id="BitstreamVeraSans-Roman-75"/>
      <path d="M 45.40625 27.984375 
Q 45.40625 37.75 41.375 43.109375 
Q 37.359375 48.484375 30.078125 48.484375 
Q 22.859375 48.484375 18.828125 43.109375 
Q 14.796875 37.75 14.796875 27.984375 
Q 14.796875 18.265625 18.828125 12.890625 
Q 22.859375 7.515625 30.078125 7.515625 
Q 37.359375 7.515625 41.375 12.890625 
Q 45.40625 18.265625 45.40625 27.984375 
M 54.390625 6.78125 
Q 54.390625 -7.171875 48.1875 -13.984375 
Q 42 -20.796875 29.203125 -20.796875 
Q 24.46875 -20.796875 20.265625 -20.09375 
Q 16.0625 -19.390625 12.109375 -17.921875 
L 12.109375 -9.1875 
Q 16.0625 -11.328125 19.921875 -12.34375 
Q 23.78125 -13.375 27.78125 -13.375 
Q 36.625 -13.375 41.015625 -8.765625 
Q 45.40625 -4.15625 45.40625 5.171875 
L 45.40625 9.625 
Q 42.625 4.78125 38.28125 2.390625 
Q 33.9375 0 27.875 0 
Q 17.828125 0 11.671875 7.65625 
Q 5.515625 15.328125 5.515625 27.984375 
Q 5.515625 40.671875 11.671875 48.328125 
Q 17.828125 56 27.875 56 
Q 33.9375 56 38.28125 53.609375 
Q 42.625 51.21875 45.40625 46.390625 
L 45.40625 54.6875 
L 54.390625 54.6875 
z
" id="BitstreamVeraSans-Roman-67"/>
      <path d="M 48.6875 27.296875 
Q 48.6875 37.203125 44.609375 42.84375 
Q 40.53125 48.484375 33.40625 48.484375 
Q 26.265625 48.484375 22.1875 42.84375 
Q 18.109375 37.203125 18.109375 27.296875 
Q 18.109375 17.390625 22.1875 11.75 
Q 26.265625 6.109375 33.40625 6.109375 
Q 40.53125 6.109375 44.609375 11.75 
Q 48.6875 17.390625 48.6875 27.296875 
M 18.109375 46.390625 
Q 20.953125 51.265625 25.265625 53.625 
Q 29.59375 56 35.59375 56 
Q 45.5625 56 51.78125 48.09375 
Q 58.015625 40.1875 58.015625 27.296875 
Q 58.015625 14.40625 51.78125 6.484375 
Q 45.5625 -1.421875 35.59375 -1.421875 
Q 29.59375 -1.421875 25.265625 0.953125 
Q 20.953125 3.328125 18.109375 8.203125 
L 18.109375 0 
L 9.078125 0 
L 9.078125 75.984375 
L 18.109375 75.984375 
z
" id="BitstreamVeraSans-Roman-62"/>
     </defs>
     <g transform="translate(16.318125 197.0189375)rotate(-90.0)scale(0.12 -0.12)">
      <use xlink:href="#BitstreamVeraSans-Roman-52"/>
      <use x="69.451171875" xlink:href="#BitstreamVeraSans-Roman-61"/>
      <use x="130.73046875" xlink:href="#BitstreamVeraSans-Roman-6e"/>
      <use x="194.109375" xlink:href="#BitstreamVeraSans-Roman-64"/>
      <use x="257.5859375" xlink:href="#BitstreamVeraSans-Roman-6f"/>
      <use x="318.767578125" xlink:href="#BitstreamVeraSans-Roman-6d"/>
      <use x="416.1796875" xlink:href="#BitstreamVeraSans-Roman-20"/>
      <use x="447.966796875" xlink:href="#BitstreamVeraSans-Roman-62"/>
      <use x="511.443359375" xlink:href="#BitstreamVeraSans-Roman-75"/>
      <use x="574.822265625" xlink:href="#BitstreamVeraSans-Roman-74"/>
      <use x="614.03125" xlink:href="#BitstreamVeraSans-Roman-20"/>
      <use x="645.818359375" xlink:href="#BitstreamVeraSans-Roman-64"/>
      <use x="709.294921875" xlink:href="#BitstreamVeraSans-Roman-65"/>
      <use x="770.818359375" xlink:href="#BitstreamVeraSans-Roman-63"/>
      <use x="825.798828125" xlink:href="#BitstreamVeraSans-Roman-61"/>
      <use x="887.078125" xlink:href="#BitstreamVeraSans-Roman-79"/>
      <use x="946.2578125" xlink:href="#BitstreamVeraSans-Roman-69"/>
      <use x="974.041015625" xlink:href="#BitstreamVeraSans-Roman-6e"/>
      <use x="1037.419921875" xlink:href="#BitstreamVeraSans-Roman-67"/>
      <use x="1100.896484375" xlink:href="#BitstreamVeraSans-Roman-20"/>
      <use x="1132.68359375" xlink:href="#BitstreamVeraSans-Roman-76"/>
      <use x="1191.86328125" xlink:href="#BitstreamVeraSans-Roman-61"/>
      <use x="1253.142578125" xlink:href="#BitstreamVeraSans-Roman-6c"/>
      <use x="1280.92578125" xlink:href="#BitstreamVeraSans-Roman-75"/>
      <use x="1344.3046875" xlink:href="#BitstreamVeraSans-Roman-65"/>
      <use x="1405.828125" xlink:href="#BitstreamVeraSans-Roman-73"/>
     </g>
    </g>
   </g>
   <g id="text_14">
    <!-- Diverging Datasets -->
    <defs>
     <path d="M 19.671875 64.796875 
L 19.671875 8.109375 
L 31.59375 8.109375 
Q 46.6875 8.109375 53.6875 14.9375 
Q 60.6875 21.78125 60.6875 36.53125 
Q 60.6875 51.171875 53.6875 57.984375 
Q 46.6875 64.796875 31.59375 64.796875 
z
M 9.8125 72.90625 
L 30.078125 72.90625 
Q 51.265625 72.90625 61.171875 64.09375 
Q 71.09375 55.28125 71.09375 36.53125 
Q 71.09375 17.671875 61.125 8.828125 
Q 51.171875 0 30.078125 0 
L 9.8125 0 
z
" id="BitstreamVeraSans-Roman-44"/>
     <path d="M 41.109375 46.296875 
Q 39.59375 47.171875 37.8125 47.578125 
Q 36.03125 48 33.890625 48 
Q 26.265625 48 22.1875 43.046875 
Q 18.109375 38.09375 18.109375 28.8125 
L 18.109375 0 
L 9.078125 0 
L 9.078125 54.6875 
L 18.109375 54.6875 
L 18.109375 46.1875 
Q 20.953125 51.171875 25.484375 53.578125 
Q 30.03125 56 36.53125 56 
Q 37.453125 56 38.578125 55.875 
Q 39.703125 55.765625 41.0625 55.515625 
z
" id="BitstreamVeraSans-Roman-72"/>
    </defs>
    <g transform="translate(86.17701375 18.14175)scale(0.144 -0.144)">
     <use xlink:href="#BitstreamVeraSans-Roman-44"/>
     <use x="77.001953125" xlink:href="#BitstreamVeraSans-Roman-69"/>
     <use x="104.78515625" xlink:href="#BitstreamVeraSans-Roman-76"/>
     <use x="163.96484375" xlink:href="#BitstreamVeraSans-Roman-65"/>
     <use x="225.48828125" xlink:href="#BitstreamVeraSans-Roman-72"/>
     <use x="266.5859375" xlink:href="#BitstreamVeraSans-Roman-67"/>
     <use x="330.0625" xlink:href="#BitstreamVeraSans-Roman-69"/>
     <use x="357.845703125" xlink:href="#BitstreamVeraSans-Roman-6e"/>
     <use x="421.224609375" xlink:href="#BitstreamVeraSans-Roman-67"/>
     <use x="484.701171875" xlink:href="#BitstreamVeraSans-Roman-20"/>
     <use x="516.48828125" xlink:href="#BitstreamVeraSans-Roman-44"/>
     <use x="593.490234375" xlink:href="#BitstreamVeraSans-Roman-61"/>
     <use x="654.76953125" xlink:href="#BitstreamVeraSans-Roman-74"/>
     <use x="693.978515625" xlink:href="#BitstreamVeraSans-Roman-61"/>
     <use x="755.2578125" xlink:href="#BitstreamVeraSans-Roman-73"/>
     <use x="807.357421875" xlink:href="#BitstreamVeraSans-Roman-65"/>
     <use x="868.880859375" xlink:href="#BitstreamVeraSans-Roman-74"/>
     <use x="908.08984375" xlink:href="#BitstreamVeraSans-Roman-73"/>
    </g>
   </g>
   <g id="legend_1">
    <g id="patch_7">
     <path d="M 48.568514 192.47175 
L 94.417624 192.47175 
Q 95.805624 192.47175 95.805624 191.08375 
L 95.805624 99.53821 
Q 95.805624 98.15021 94.417624 98.15021 
L 48.568514 98.15021 
Q 47.180514 98.15021 47.180514 99.53821 
L 47.180514 191.08375 
Q 47.180514 192.47175 48.568514 192.47175 
z
" style="fill:#ffffff;opacity:0.8;stroke:#000000;stroke-linejoin:miter;stroke-width:0.5;"/>
    </g>
    <g id="line2d_31">
     <path d="M 52.038514 104.825189 
L 61.754514 104.825189 
" style="fill:none;stroke:#4daf4a;stroke-linecap:square;stroke-width:2.0;"/>
    </g>
    <g id="line2d_32"/>
    <g id="text_15">
     <!-- Plot 1 -->
     <defs>
      <path d="M 19.671875 64.796875 
L 19.671875 37.40625 
L 32.078125 37.40625 
Q 38.96875 37.40625 42.71875 40.96875 
Q 46.484375 44.53125 46.484375 51.125 
Q 46.484375 57.671875 42.71875 61.234375 
Q 38.96875 64.796875 32.078125 64.796875 
z
M 9.8125 72.90625 
L 32.078125 72.90625 
Q 44.34375 72.90625 50.609375 67.359375 
Q 56.890625 61.8125 56.890625 51.125 
Q 56.890625 40.328125 50.609375 34.8125 
Q 44.34375 29.296875 32.078125 29.296875 
L 19.671875 29.296875 
L 19.671875 0 
L 9.8125 0 
z
" id="BitstreamVeraSans-Roman-50"/>
     </defs>
     <g transform="translate(69.38851375 107.25418875)scale(0.08327999999999999 -0.08327999999999999)">
      <use xlink:href="#BitstreamVeraSans-Roman-50"/>
      <use x="60.302734375" xlink:href="#BitstreamVeraSans-Roman-6c"/>
      <use x="88.0859375" xlink:href="#BitstreamVeraSans-Roman-6f"/>
      <use x="149.267578125" xlink:href="#BitstreamVeraSans-Roman-74"/>
      <use x="188.4765625" xlink:href="#BitstreamVeraSans-Roman-20"/>
      <use x="220.263671875" xlink:href="#BitstreamVeraSans-Roman-31"/>
     </g>
    </g>
    <g id="line2d_33">
     <path d="M 52.038514 116.355131 
L 61.754514 116.355131 
" style="fill:none;stroke:#419388;stroke-linecap:square;stroke-width:2.0;"/>
    </g>
    <g id="line2d_34"/>
    <g id="text_16">
     <!-- Plot 2 -->
     <g transform="translate(69.38851375 118.78413125)scale(0.08327999999999999 -0.08327999999999999)">
      <use xlink:href="#BitstreamVeraSans-Roman-50"/>
      <use x="60.302734375" xlink:href="#BitstreamVeraSans-Roman-6c"/>
      <use x="88.0859375" xlink:href="#BitstreamVeraSans-Roman-6f"/>
      <use x="149.267578125" xlink:href="#BitstreamVeraSans-Roman-74"/>
      <use x="188.4765625" xlink:href="#BitstreamVeraSans-Roman-20"/>
      <use x="220.263671875" xlink:href="#BitstreamVeraSans-Roman-32"/>
     </g>
    </g>
    <g id="line2d_35">
     <path d="M 52.038514 127.885074 
L 61.754514 127.885074 
" style="fill:none;stroke:#4577b5;stroke-linecap:square;stroke-width:2.0;"/>
    </g>
    <g id="line2d_36"/>
    <g id="text_17">
     <!-- Plot 3 -->
     <defs>
      <path d="M 40.578125 39.3125 
Q 47.65625 37.796875 51.625 33 
Q 55.609375 28.21875 55.609375 21.1875 
Q 55.609375 10.40625 48.1875 4.484375 
Q 40.765625 -1.421875 27.09375 -1.421875 
Q 22.515625 -1.421875 17.65625 -0.515625 
Q 12.796875 0.390625 7.625 2.203125 
L 7.625 11.71875 
Q 11.71875 9.328125 16.59375 8.109375 
Q 21.484375 6.890625 26.8125 6.890625 
Q 36.078125 6.890625 40.9375 10.546875 
Q 45.796875 14.203125 45.796875 21.1875 
Q 45.796875 27.640625 41.28125 31.265625 
Q 36.765625 34.90625 28.71875 34.90625 
L 20.21875 34.90625 
L 20.21875 43.015625 
L 29.109375 43.015625 
Q 36.375 43.015625 40.234375 45.921875 
Q 44.09375 48.828125 44.09375 54.296875 
Q 44.09375 59.90625 40.109375 62.90625 
Q 36.140625 65.921875 28.71875 65.921875 
Q 24.65625 65.921875 20.015625 65.03125 
Q 15.375 64.15625 9.8125 62.3125 
L 9.8125 71.09375 
Q 15.4375 72.65625 20.34375 73.4375 
Q 25.25 74.21875 29.59375 74.21875 
Q 40.828125 74.21875 47.359375 69.109375 
Q 53.90625 64.015625 53.90625 55.328125 
Q 53.90625 49.265625 50.4375 45.09375 
Q 46.96875 40.921875 40.578125 39.3125 
" id="BitstreamVeraSans-Roman-33"/>
     </defs>
     <g transform="translate(69.38851375 130.31407375)scale(0.08327999999999999 -0.08327999999999999)">
      <use xlink:href="#BitstreamVeraSans-Roman-50"/>
      <use x="60.302734375" xlink:href="#BitstreamVeraSans-Roman-6c"/>
      <use x="88.0859375" xlink:href="#BitstreamVeraSans-Roman-6f"/>
      <use x="149.267578125" xlink:href="#BitstreamVeraSans-Roman-74"/>
      <use x="188.4765625" xlink:href="#BitstreamVeraSans-Roman-20"/>
      <use x="220.263671875" xlink:href="#BitstreamVeraSans-Roman-33"/>
     </g>
    </g>
    <g id="line2d_37">
     <path d="M 52.038514 139.415016 
L 61.754514 139.415016 
" style="fill:none;stroke:#7c5ca9;stroke-linecap:square;stroke-width:2.0;"/>
    </g>
    <g id="line2d_38"/>
    <g id="text_18">
     <!-- Plot 4 -->
     <g transform="translate(69.38851375 141.84401625)scale(0.08327999999999999 -0.08327999999999999)">
      <use xlink:href="#BitstreamVeraSans-Roman-50"/>
      <use x="60.302734375" xlink:href="#BitstreamVeraSans-Roman-6c"/>
      <use x="88.0859375" xlink:href="#BitstreamVeraSans-Roman-6f"/>
      <use x="149.267578125" xlink:href="#BitstreamVeraSans-Roman-74"/>
      <use x="188.4765625" xlink:href="#BitstreamVeraSans-Roman-20"/>
      <use x="220.263671875" xlink:href="#BitstreamVeraSans-Roman-34"/>
     </g>
    </g>
    <g id="line2d_39">
     <path d="M 52.038514 150.944959 
L 61.754514 150.944959 
" style="fill:none;stroke:#ae3f7c;stroke-linecap:square;stroke-width:2.0;"/>
    </g>
    <g id="line2d_40"/>
    <g id="text_19">
     <!-- Plot 5 -->
     <g transform="translate(69.38851375 153.37395875)scale(0.08327999999999999 -0.08327999999999999)">
      <use xlink:href="#BitstreamVeraSans-Roman-50"/>
      <use x="60.302734375" xlink:href="#BitstreamVeraSans-Roman-6c"/>
      <use x="88.0859375" xlink:href="#BitstreamVeraSans-Roman-6f"/>
      <use x="149.267578125" xlink:href="#BitstreamVeraSans-Roman-74"/>
      <use x="188.4765625" xlink:href="#BitstreamVeraSans-Roman-20"/>
      <use x="220.263671875" xlink:href="#BitstreamVeraSans-Roman-35"/>
     </g>
    </g>
    <g id="line2d_41">
     <path d="M 52.038514 162.474901 
L 61.754514 162.474901 
" style="fill:none;stroke:#d92230;stroke-linecap:square;stroke-width:2.0;"/>
    </g>
    <g id="line2d_42"/>
    <g id="text_20">
     <!-- Plot 6 -->
     <g transform="translate(69.38851375 164.90390125)scale(0.08327999999999999 -0.08327999999999999)">
      <use xlink:href="#BitstreamVeraSans-Roman-50"/>
      <use x="60.302734375" xlink:href="#BitstreamVeraSans-Roman-6c"/>
      <use x="88.0859375" xlink:href="#BitstreamVeraSans-Roman-6f"/>
      <use x="149.267578125" xlink:href="#BitstreamVeraSans-Roman-74"/>
      <use x="188.4765625" xlink:href="#BitstreamVeraSans-Roman-20"/>
      <use x="220.263671875" xlink:href="#BitstreamVeraSans-Roman-36"/>
     </g>
    </g>
    <g id="line2d_43">
     <path d="M 52.038514 174.004844 
L 61.754514 174.004844 
" style="fill:none;stroke:#f04610;stroke-linecap:square;stroke-width:2.0;"/>
    </g>
    <g id="line2d_44"/>
    <g id="text_21">
     <!-- Plot 7 -->
     <defs>
      <path d="M 8.203125 72.90625 
L 55.078125 72.90625 
L 55.078125 68.703125 
L 28.609375 0 
L 18.3125 0 
L 43.21875 64.59375 
L 8.203125 64.59375 
z
" id="BitstreamVeraSans-Roman-37"/>
     </defs>
     <g transform="translate(69.38851375 176.43384375)scale(0.08327999999999999 -0.08327999999999999)">
      <use xlink:href="#BitstreamVeraSans-Roman-50"/>
      <use x="60.302734375" xlink:href="#BitstreamVeraSans-Roman-6c"/>
      <use x="88.0859375" xlink:href="#BitstreamVeraSans-Roman-6f"/>
      <use x="149.267578125" xlink:href="#BitstreamVeraSans-Roman-74"/>
      <use x="188.4765625" xlink:href="#BitstreamVeraSans-Roman-20"/>
      <use x="220.263671875" xlink:href="#BitstreamVeraSans-Roman-37"/>
     </g>
    </g>
    <g id="line2d_45">
     <path d="M 52.038514 185.534786 
L 61.754514 185.534786 
" style="fill:none;stroke:#ff7f00;stroke-linecap:square;stroke-width:2.0;"/>
    </g>
    <g id="line2d_46"/>
    <g id="text_22">
     <!-- Plot 8 -->
     <g transform="translate(69.38851375 187.96378625)scale(0.08327999999999999 -0.08327999999999999)">
      <use xlink:href="#BitstreamVeraSans-Roman-50"/>
      <use x="60.302734375" xlink:href="#BitstreamVeraSans-Roman-6c"/>
      <use x="88.0859375" xlink:href="#BitstreamVeraSans-Roman-6f"/>
      <use x="149.267578125" xlink:href="#BitstreamVeraSans-Roman-74"/>
      <use x="188.4765625" xlink:href="#BitstreamVeraSans-Roman-20"/>
      <use x="220.263671875" xlink:href="#BitstreamVeraSans-Roman-38"/>
     </g>
    </g>
   </g>
  </g>
 </g>
 <defs>
  <clipPath id="pa7bcaf5db4">
   <rect height="172.8" width="223.2" x="43.71051375" y="23.14175"/>
  </clipPath>
 </defs>
</svg>
