<?xml version="1.0" encoding="utf-8" standalone="no"?>
<!DOCTYPE svg PUBLIC "-//W3C//DTD SVG 1.1//EN"
  "http://www.w3.org/Graphics/SVG/1.1/DTD/svg11.dtd">
<!-- Created with matplotlib (http://matplotlib.org/) -->
<svg height="355pt" version="1.1" viewBox="0 0 510 355" width="510pt" xmlns="http://www.w3.org/2000/svg" xmlns:xlink="http://www.w3.org/1999/xlink">
 <defs>
  <style type="text/css">
*{stroke-linecap:butt;stroke-linejoin:round;stroke-miterlimit:100000;}
  </style>
 </defs>
 <g id="figure_1">
  <g id="patch_1">
   <path d="M 0 355.08035 
L 510.45525 355.08035 
L 510.45525 0 
L 0 0 
z
" style="fill:#ffffff;"/>
  </g>
  <g id="axes_1">
   <g id="patch_2">
    <path d="M 49.22025 313.3301 
L 495.62025 313.3301 
L 495.62025 25.3301 
L 49.22025 25.3301 
z
" style="fill:#ffffff;"/>
   </g>
   <g id="line2d_1">
    <path clip-path="url(#p0feb78dad5)" d="M 49.22025 26.618517 
L 50.713227 26.933646 
L 52.206203 27.946604 
L 53.69918 27.046107 
L 55.192156 26.478459 
L 56.685133 27.417384 
L 58.17811 27.347616 
L 59.671086 28.562591 
L 61.164063 28.383046 
L 62.657039 26.498549 
L 64.150016 28.253884 
L 65.642992 28.654322 
L 67.135969 28.530701 
L 68.628946 27.962138 
L 70.121922 27.988526 
L 71.614899 28.567048 
L 73.107875 28.701002 
L 74.600852 29.334338 
L 76.093829 33.411261 
L 77.586805 29.921214 
L 79.079782 30.633992 
L 80.572758 28.861679 
L 82.065735 30.621572 
L 83.558712 31.614418 
L 85.051688 33.12948 
L 86.544665 33.212312 
L 88.037641 30.459308 
L 89.530618 32.381086 
L 91.023594 36.885612 
L 92.516571 34.2931 
L 94.009548 35.450668 
L 95.502524 30.317248 
L 96.995501 37.323612 
L 98.488477 34.540909 
L 99.981454 35.300139 
L 101.474431 39.233251 
L 102.967407 36.378649 
L 104.460384 41.529014 
L 105.95336 39.147352 
L 107.446337 42.202732 
L 108.939314 36.718532 
L 110.43229 39.993849 
L 113.418243 48.849648 
L 114.91122 47.222433 
L 116.404196 49.672682 
L 117.897173 41.955677 
L 119.39015 41.265903 
L 120.883126 46.33593 
L 122.376103 59.748819 
L 123.869079 47.198042 
L 125.362056 56.857779 
L 126.855033 52.018783 
L 128.348009 55.444141 
L 129.840986 50.914472 
L 131.333962 78.296517 
L 132.826939 64.744583 
L 134.319916 81.558112 
L 135.812892 94.689694 
L 137.305869 65.166825 
L 138.798845 68.948522 
L 140.291822 99.113926 
L 141.784798 113.764806 
L 143.277775 72.255651 
L 144.770752 75.558393 
L 146.263728 117.049086 
L 147.756705 94.960957 
L 149.249681 107.348145 
L 150.742658 102.019431 
L 152.235635 99.690583 
L 153.728611 88.403669 
L 155.221588 103.091302 
L 156.714564 136.523104 
L 158.207541 129.065673 
L 159.700518 143.732872 
L 161.193494 178.865468 
L 162.686471 104.197277 
L 164.179447 128.932535 
L 165.672424 178.010323 
L 167.165401 140.087995 
L 168.658377 163.339437 
L 170.151354 167.395728 
L 171.64433 162.314512 
L 173.137307 135.806531 
L 174.630283 132.231427 
L 176.12326 177.470627 
L 177.616237 183.596217 
L 179.109213 249.113286 
L 180.60219 222.775066 
L 182.095166 232.634002 
L 183.588143 225.706931 
L 185.08112 230.976214 
L 186.574096 228.770632 
L 188.067073 232.126228 
L 189.560049 278.841443 
L 191.053026 283.933396 
L 192.546003 219.297651 
L 194.038979 251.388899 
L 195.531956 311.126156 
L 197.024932 304.830293 
L 198.517909 257.144583 
L 200.010885 292.638616 
L 201.503862 292.346608 
L 202.996839 283.998223 
L 204.489815 285.579693 
L 205.982792 310.434742 
L 207.475768 269.872831 
L 208.968745 300.48067 
L 210.461722 305.832412 
L 211.954698 310.302619 
L 213.447675 310.829489 
L 214.940651 295.230465 
L 216.433628 311.426653 
L 217.926605 312.846288 
L 219.419581 303.223095 
L 220.912558 312.761722 
L 222.405534 306.854358 
L 223.898511 312.328466 
L 225.391487 313.326868 
L 226.884464 313.315864 
L 228.377441 312.884825 
L 229.870417 311.686387 
L 231.363394 313.08731 
L 232.85637 313.06242 
L 234.349347 313.319046 
L 235.842324 312.760087 
L 237.3353 313.330044 
L 495.62025 313.3301 
L 495.62025 313.3301 
" style="fill:none;stroke:#e41a1c;stroke-linecap:square;stroke-width:2.0;"/>
   </g>
   <g id="line2d_2">
    <path clip-path="url(#p0feb78dad5)" d="M 49.22025 25.56726 
L 50.713227 25.717663 
L 52.206203 25.772342 
L 53.69918 25.596256 
L 55.192156 25.679208 
L 56.685133 25.598335 
L 58.17811 25.804676 
L 61.164063 25.542372 
L 62.657039 25.648983 
L 64.150016 26.062679 
L 65.642992 25.952814 
L 67.135969 26.109205 
L 68.628946 25.787603 
L 70.121922 26.154611 
L 73.107875 26.181613 
L 74.600852 26.473627 
L 76.093829 26.189676 
L 77.586805 26.547535 
L 79.079782 26.34469 
L 80.572758 26.688741 
L 82.065735 26.759749 
L 83.558712 26.570285 
L 85.051688 26.184472 
L 86.544665 26.703376 
L 88.037641 26.389946 
L 89.530618 26.5875 
L 91.023594 27.13342 
L 92.516571 27.825126 
L 94.009548 27.651743 
L 95.502524 26.590109 
L 96.995501 27.476706 
L 98.488477 27.863627 
L 99.981454 27.937078 
L 101.474431 27.698936 
L 102.967407 28.63304 
L 104.460384 29.255843 
L 105.95336 28.941161 
L 107.446337 29.381509 
L 108.939314 29.5775 
L 110.43229 33.134365 
L 111.925267 28.662005 
L 113.418243 31.568488 
L 114.91122 29.677122 
L 116.404196 29.723523 
L 117.897173 32.068876 
L 119.39015 32.703774 
L 120.883126 32.875007 
L 122.376103 29.977623 
L 123.869079 28.87549 
L 125.362056 35.060664 
L 126.855033 30.845454 
L 128.348009 31.839399 
L 129.840986 33.897326 
L 131.333962 32.35509 
L 132.826939 32.496512 
L 134.319916 34.07089 
L 135.812892 34.878576 
L 137.305869 34.878567 
L 138.798845 31.147448 
L 140.291822 35.490769 
L 141.784798 38.757164 
L 143.277775 33.633723 
L 144.770752 44.775743 
L 146.263728 35.362973 
L 147.756705 44.088365 
L 149.249681 39.497299 
L 150.742658 37.16164 
L 152.235635 47.686765 
L 153.728611 47.727373 
L 155.221588 45.941543 
L 156.714564 54.863231 
L 158.207541 46.787704 
L 159.700518 50.190737 
L 161.193494 55.406641 
L 162.686471 54.967296 
L 164.179447 54.24418 
L 165.672424 44.375902 
L 167.165401 51.170651 
L 168.658377 91.671142 
L 170.151354 56.970451 
L 171.64433 74.341398 
L 173.137307 78.472621 
L 174.630283 62.138562 
L 176.12326 68.2735 
L 177.616237 96.617753 
L 179.109213 75.153704 
L 180.60219 123.436395 
L 182.095166 77.795527 
L 183.588143 130.793136 
L 185.08112 88.380006 
L 186.574096 85.967997 
L 188.067073 89.236347 
L 189.560049 122.521545 
L 191.053026 152.365958 
L 192.546003 153.378614 
L 194.038979 144.70567 
L 195.531956 127.01632 
L 197.024932 168.301031 
L 198.517909 162.72583 
L 200.010885 137.206779 
L 201.503862 128.018064 
L 202.996839 193.010229 
L 204.489815 231.326374 
L 205.982792 146.841294 
L 207.475768 245.485844 
L 208.968745 196.311419 
L 210.461722 152.527584 
L 211.954698 198.573056 
L 213.447675 210.360027 
L 214.940651 225.416613 
L 216.433628 274.90392 
L 217.926605 207.582082 
L 219.419581 239.879493 
L 220.912558 205.251727 
L 222.405534 275.19947 
L 223.898511 275.515312 
L 225.391487 296.401805 
L 226.884464 290.118037 
L 228.377441 284.615171 
L 229.870417 268.865636 
L 231.363394 309.99264 
L 232.85637 296.978485 
L 234.349347 308.519865 
L 235.842324 295.406248 
L 237.3353 294.907005 
L 238.828277 305.665008 
L 240.321253 304.032612 
L 241.81423 312.893975 
L 243.307207 312.832168 
L 244.800183 313.153753 
L 246.29316 312.836779 
L 247.786136 311.987301 
L 249.279113 311.674482 
L 250.772089 311.12135 
L 252.265066 311.940597 
L 253.758043 313.308766 
L 255.251019 313.237193 
L 259.729949 313.329277 
L 261.222926 312.351785 
L 262.715902 308.506932 
L 264.208879 313.306925 
L 271.673762 313.330099 
L 495.62025 313.3301 
L 495.62025 313.3301 
" style="fill:none;stroke:#377eb8;stroke-linecap:square;stroke-width:2.0;"/>
   </g>
   <g id="line2d_3">
    <path clip-path="url(#p0feb78dad5)" d="M 49.22025 25.39 
L 56.685133 25.430502 
L 59.671086 25.429441 
L 64.150016 25.440571 
L 77.586805 25.551888 
L 80.572758 25.635032 
L 82.065735 25.489102 
L 85.051688 25.53844 
L 86.544665 25.633599 
L 89.530618 25.546235 
L 91.023594 25.790827 
L 94.009548 25.8155 
L 98.488477 25.877185 
L 99.981454 26.071096 
L 101.474431 25.687908 
L 102.967407 25.891648 
L 104.460384 26.257737 
L 105.95336 25.866989 
L 107.446337 25.816429 
L 111.925267 26.531862 
L 113.418243 26.268231 
L 116.404196 26.207174 
L 117.897173 26.872917 
L 119.39015 26.698245 
L 120.883126 26.107306 
L 122.376103 26.650059 
L 123.869079 26.730229 
L 125.362056 27.178377 
L 126.855033 26.776704 
L 128.348009 26.889628 
L 129.840986 27.898102 
L 131.333962 27.060447 
L 132.826939 27.851831 
L 134.319916 26.95336 
L 135.812892 26.825665 
L 137.305869 28.018723 
L 138.798845 28.408942 
L 140.291822 29.121703 
L 141.784798 27.893908 
L 143.277775 28.19924 
L 144.770752 28.696337 
L 147.756705 28.25388 
L 149.249681 27.385979 
L 152.235635 28.322039 
L 153.728611 29.986933 
L 155.221588 28.794035 
L 156.714564 29.544575 
L 158.207541 34.648791 
L 159.700518 31.499346 
L 161.193494 30.981158 
L 162.686471 31.811312 
L 164.179447 33.784416 
L 165.672424 32.938847 
L 167.165401 34.639393 
L 168.658377 34.993813 
L 170.151354 34.98095 
L 171.64433 32.054643 
L 173.137307 34.608744 
L 174.630283 33.475915 
L 176.12326 55.689586 
L 177.616237 37.640264 
L 179.109213 40.007138 
L 180.60219 36.747875 
L 182.095166 42.702574 
L 183.588143 42.546579 
L 185.08112 40.808107 
L 186.574096 53.207267 
L 188.067073 45.32578 
L 189.560049 50.046368 
L 191.053026 40.234188 
L 192.546003 44.388268 
L 194.038979 47.802073 
L 195.531956 45.488998 
L 198.517909 46.252726 
L 200.010885 54.212053 
L 201.503862 51.702637 
L 202.996839 74.686665 
L 204.489815 66.973387 
L 205.982792 74.079951 
L 207.475768 85.896652 
L 208.968745 86.583359 
L 210.461722 74.244864 
L 211.954698 64.805247 
L 213.447675 73.962858 
L 214.940651 65.504158 
L 216.433628 89.513117 
L 217.926605 103.947855 
L 219.419581 93.812198 
L 220.912558 125.555262 
L 222.405534 105.995243 
L 223.898511 122.51826 
L 225.391487 112.323056 
L 226.884464 153.610827 
L 228.377441 159.785029 
L 229.870417 85.524345 
L 231.363394 130.096214 
L 232.85637 144.867365 
L 234.349347 113.588102 
L 235.842324 141.403756 
L 237.3353 144.720823 
L 238.828277 214.760609 
L 240.321253 188.900163 
L 241.81423 191.662491 
L 243.307207 187.291836 
L 244.800183 181.767602 
L 246.29316 199.952661 
L 247.786136 241.400325 
L 249.279113 208.469487 
L 250.772089 253.922409 
L 252.265066 218.185913 
L 253.758043 238.084901 
L 255.251019 290.983241 
L 256.743996 277.733173 
L 258.236972 242.154708 
L 259.729949 281.6265 
L 261.222926 298.43462 
L 262.715902 285.464264 
L 264.208879 266.731289 
L 265.701855 304.247792 
L 267.194832 282.554733 
L 268.687809 292.883553 
L 270.180785 299.601856 
L 271.673762 311.06997 
L 273.166738 301.862028 
L 274.659715 307.179125 
L 276.152691 307.515861 
L 277.645668 308.850599 
L 279.138645 311.181971 
L 280.631621 311.374004 
L 282.124598 312.261259 
L 283.617574 313.327432 
L 285.110551 311.293453 
L 286.603528 312.733025 
L 288.096504 313.196216 
L 289.589481 313.330047 
L 291.082457 312.613009 
L 292.575434 312.527878 
L 294.068411 313.330092 
L 298.54734 313.329862 
L 423.957374 313.3301 
L 495.62025 313.3301 
L 495.62025 313.3301 
" style="fill:none;stroke:#4daf4a;stroke-linecap:square;stroke-width:2.0;"/>
   </g>
   <g id="line2d_4">
    <path clip-path="url(#p0feb78dad5)" d="M 49.22025 25.347827 
L 79.079782 25.369801 
L 83.558712 25.427783 
L 88.037641 25.433334 
L 108.939314 25.526803 
L 111.925267 25.571957 
L 114.91122 25.595513 
L 116.404196 25.793554 
L 117.897173 25.602527 
L 120.883126 25.829159 
L 122.376103 25.68995 
L 123.869079 25.816284 
L 125.362056 26.1549 
L 126.855033 25.852705 
L 128.348009 25.931341 
L 131.333962 25.776779 
L 132.826939 25.980875 
L 135.812892 25.788395 
L 137.305869 25.957116 
L 138.798845 26.009509 
L 140.291822 26.719132 
L 141.784798 25.818912 
L 143.277775 26.262849 
L 144.770752 26.122518 
L 146.263728 26.311684 
L 147.756705 26.789226 
L 149.249681 26.861782 
L 150.742658 26.491528 
L 152.235635 26.859304 
L 153.728611 26.931684 
L 155.221588 26.603072 
L 156.714564 26.681872 
L 158.207541 27.322768 
L 159.700518 28.831925 
L 161.193494 27.512813 
L 162.686471 27.197694 
L 164.179447 27.368148 
L 165.672424 29.162796 
L 167.165401 28.422857 
L 168.658377 28.406094 
L 170.151354 29.085851 
L 171.64433 28.323415 
L 173.137307 28.589018 
L 174.630283 29.033488 
L 176.12326 27.669142 
L 177.616237 28.877231 
L 179.109213 28.737385 
L 180.60219 29.451148 
L 182.095166 29.895443 
L 183.588143 30.570841 
L 188.067073 30.711909 
L 189.560049 31.659147 
L 191.053026 33.695404 
L 192.546003 31.753943 
L 194.038979 32.176344 
L 195.531956 37.106141 
L 197.024932 37.611963 
L 198.517909 29.990343 
L 200.010885 32.432576 
L 201.503862 37.867394 
L 202.996839 42.345739 
L 204.489815 40.136373 
L 205.982792 39.062931 
L 207.475768 42.520637 
L 208.968745 49.465145 
L 210.461722 35.782538 
L 211.954698 43.945084 
L 213.447675 60.14034 
L 214.940651 61.99189 
L 216.433628 43.296525 
L 217.926605 46.449001 
L 219.419581 40.403824 
L 220.912558 63.804916 
L 222.405534 64.874262 
L 223.898511 65.493817 
L 225.391487 65.68885 
L 226.884464 69.765412 
L 228.377441 69.017336 
L 229.870417 66.896761 
L 231.363394 86.359462 
L 232.85637 80.450464 
L 234.349347 97.704868 
L 235.842324 107.271093 
L 237.3353 93.600682 
L 238.828277 98.444796 
L 240.321253 83.705231 
L 241.81423 107.715248 
L 243.307207 102.865338 
L 244.800183 97.390639 
L 246.29316 168.317928 
L 247.786136 184.830186 
L 249.279113 124.871818 
L 250.772089 131.18704 
L 252.265066 175.980644 
L 253.758043 145.893884 
L 255.251019 138.826005 
L 256.743996 186.873339 
L 258.236972 187.775508 
L 259.729949 194.997874 
L 261.222926 165.013349 
L 262.715902 207.702588 
L 264.208879 204.86846 
L 265.701855 225.651222 
L 267.194832 202.063736 
L 268.687809 242.350617 
L 270.180785 179.830945 
L 271.673762 229.159622 
L 273.166738 230.618508 
L 274.659715 277.343611 
L 276.152691 283.839827 
L 277.645668 293.058906 
L 279.138645 257.498615 
L 280.631621 293.962362 
L 282.124598 267.281756 
L 283.617574 275.489382 
L 285.110551 280.555857 
L 286.603528 304.466241 
L 288.096504 293.013387 
L 289.589481 311.915785 
L 291.082457 304.77458 
L 292.575434 308.709896 
L 294.068411 302.448854 
L 295.561387 304.55145 
L 297.054364 308.73888 
L 298.54734 311.712779 
L 300.040317 301.723936 
L 301.533293 306.084133 
L 303.02627 312.483083 
L 306.012223 311.414882 
L 307.5052 312.995024 
L 308.998176 312.875275 
L 310.491153 313.203734 
L 311.98413 312.300666 
L 313.477106 312.957008 
L 314.970083 313.295703 
L 320.941989 313.3301 
L 326.913895 313.329593 
L 495.62025 313.3301 
L 495.62025 313.3301 
" style="fill:none;stroke:#984ea3;stroke-linecap:square;stroke-width:2.0;"/>
   </g>
   <g id="line2d_5">
    <path clip-path="url(#p0feb78dad5)" d="M 49.22025 25.333568 
L 128.348009 25.474095 
L 140.291822 25.603905 
L 141.784798 25.477893 
L 149.249681 25.657867 
L 150.742658 25.538167 
L 152.235635 25.559942 
L 153.728611 25.732233 
L 161.193494 25.648331 
L 162.686471 25.827802 
L 164.179447 25.563077 
L 165.672424 25.808918 
L 167.165401 25.806176 
L 168.658377 26.013753 
L 170.151354 25.827291 
L 171.64433 25.962799 
L 173.137307 26.341673 
L 174.630283 25.98242 
L 176.12326 26.15761 
L 177.616237 26.071721 
L 179.109213 26.479597 
L 180.60219 25.976867 
L 182.095166 26.01658 
L 183.588143 25.873822 
L 185.08112 26.01004 
L 186.574096 26.336849 
L 188.067073 26.467478 
L 189.560049 26.382538 
L 192.546003 26.757318 
L 198.517909 26.73735 
L 200.010885 28.074999 
L 201.503862 28.301751 
L 202.996839 27.779847 
L 204.489815 28.092215 
L 205.982792 27.718576 
L 207.475768 28.149712 
L 208.968745 27.243243 
L 210.461722 27.934958 
L 211.954698 27.82517 
L 213.447675 28.322174 
L 214.940651 29.730337 
L 216.433628 27.632293 
L 217.926605 29.65695 
L 219.419581 28.058823 
L 222.405534 30.584145 
L 223.898511 31.273268 
L 225.391487 31.329257 
L 226.884464 32.533921 
L 228.377441 31.751187 
L 229.870417 32.381259 
L 231.363394 31.897898 
L 232.85637 32.308685 
L 234.349347 33.280471 
L 235.842324 36.449694 
L 237.3353 40.378456 
L 238.828277 32.518642 
L 240.321253 36.082986 
L 241.81423 45.31432 
L 243.307207 43.185265 
L 244.800183 44.710566 
L 246.29316 43.856754 
L 249.279113 45.560457 
L 250.772089 49.539404 
L 252.265066 51.89633 
L 253.758043 52.579731 
L 255.251019 54.52875 
L 256.743996 65.224138 
L 258.236972 44.043018 
L 259.729949 49.806098 
L 261.222926 79.136243 
L 262.715902 66.204258 
L 264.208879 76.538819 
L 265.701855 58.990663 
L 267.194832 58.731643 
L 268.687809 81.996362 
L 270.180785 72.038852 
L 271.673762 94.637981 
L 273.166738 86.37611 
L 274.659715 113.578392 
L 276.152691 77.170327 
L 277.645668 123.065617 
L 279.138645 135.102431 
L 280.631621 82.830877 
L 282.124598 179.271164 
L 283.617574 98.628368 
L 285.110551 98.551011 
L 286.603528 109.363764 
L 288.096504 137.829669 
L 289.589481 139.630405 
L 291.082457 133.209491 
L 292.575434 116.644294 
L 294.068411 164.918332 
L 295.561387 159.5218 
L 297.054364 202.205956 
L 298.54734 154.700404 
L 300.040317 207.218519 
L 301.533293 196.06565 
L 303.02627 160.048078 
L 304.519247 222.500063 
L 306.012223 231.887122 
L 307.5052 150.448976 
L 308.998176 221.521158 
L 310.491153 200.867386 
L 311.98413 213.160627 
L 313.477106 258.705403 
L 314.970083 265.591967 
L 316.463059 253.245759 
L 317.956036 239.521619 
L 319.449013 285.26612 
L 320.941989 279.160613 
L 322.434966 307.61963 
L 323.927942 245.711836 
L 325.420919 254.428439 
L 326.913895 273.015442 
L 328.406872 282.404139 
L 329.899849 305.604632 
L 331.392825 304.781161 
L 332.885802 310.442054 
L 334.378778 306.808502 
L 335.871755 312.951192 
L 337.364732 300.220574 
L 338.857708 309.100353 
L 340.350685 297.274552 
L 341.843661 312.343604 
L 343.336638 313.04937 
L 344.829615 312.621938 
L 346.322591 313.320907 
L 347.815568 306.186125 
L 349.308544 312.954756 
L 350.801521 307.095557 
L 352.294497 313.317305 
L 353.787474 312.62943 
L 355.280451 310.663746 
L 356.773427 313.18576 
L 359.75938 313.29036 
L 361.252357 313.104566 
L 364.23831 313.330045 
L 365.731287 313.1272 
L 367.224263 313.33005 
L 368.71724 313.239277 
L 371.703193 313.330022 
L 495.62025 313.3301 
L 495.62025 313.3301 
" style="fill:none;stroke:#ff7f00;stroke-linecap:square;stroke-width:2.0;"/>
   </g>
   <g id="line2d_6">
    <path clip-path="url(#p0feb78dad5)" d="M 49.22025 25.330833 
L 164.179447 25.413677 
L 170.151354 25.467229 
L 173.137307 25.419673 
L 174.630283 25.589209 
L 176.12326 25.405371 
L 182.095166 25.492384 
L 185.08112 25.482377 
L 186.574096 25.545883 
L 188.067073 25.482548 
L 191.053026 25.58043 
L 192.546003 25.52502 
L 195.531956 25.858859 
L 197.024932 25.611005 
L 198.517909 25.673855 
L 200.010885 25.54622 
L 202.996839 25.859366 
L 204.489815 25.651386 
L 207.475768 26.065879 
L 210.461722 25.749653 
L 213.447675 26.207745 
L 216.433628 25.826041 
L 217.926605 26.090552 
L 219.419581 25.74371 
L 220.912558 26.498704 
L 222.405534 26.247576 
L 223.898511 26.138417 
L 225.391487 26.757625 
L 226.884464 26.209238 
L 228.377441 26.193686 
L 229.870417 26.425936 
L 231.363394 27.463781 
L 232.85637 26.215349 
L 234.349347 26.659961 
L 235.842324 27.310747 
L 237.3353 27.017931 
L 238.828277 28.032584 
L 240.321253 28.864137 
L 241.81423 26.83895 
L 243.307207 27.268131 
L 244.800183 27.116257 
L 246.29316 27.667948 
L 247.786136 29.633126 
L 249.279113 28.618051 
L 250.772089 27.088006 
L 252.265066 30.350883 
L 253.758043 30.912499 
L 255.251019 30.433397 
L 256.743996 29.664364 
L 258.236972 31.06742 
L 259.729949 29.831405 
L 262.715902 29.822179 
L 264.208879 31.739686 
L 265.701855 29.55456 
L 267.194832 32.559126 
L 268.687809 34.93071 
L 270.180785 31.347621 
L 271.673762 29.912524 
L 273.166738 30.561109 
L 274.659715 32.263091 
L 276.152691 40.336264 
L 277.645668 31.429218 
L 279.138645 42.260859 
L 280.631621 36.60103 
L 282.124598 40.109082 
L 283.617574 38.595754 
L 285.110551 44.04155 
L 286.603528 38.737944 
L 288.096504 36.641552 
L 289.589481 46.796086 
L 291.082457 54.373902 
L 292.575434 47.523705 
L 294.068411 55.377953 
L 295.561387 47.286071 
L 297.054364 41.025791 
L 298.54734 53.600262 
L 300.040317 59.040769 
L 301.533293 49.202536 
L 303.02627 45.833833 
L 304.519247 50.87177 
L 306.012223 80.805477 
L 307.5052 81.260042 
L 308.998176 54.843977 
L 310.491153 61.623457 
L 311.98413 64.721193 
L 313.477106 64.142184 
L 314.970083 73.761741 
L 316.463059 74.833481 
L 317.956036 64.628242 
L 319.449013 52.398897 
L 320.941989 97.599011 
L 322.434966 81.968369 
L 323.927942 90.264525 
L 325.420919 86.227917 
L 326.913895 138.34875 
L 328.406872 87.936148 
L 329.899849 121.30184 
L 331.392825 101.433701 
L 332.885802 113.095098 
L 334.378778 144.823527 
L 335.871755 113.898814 
L 337.364732 157.436721 
L 338.857708 129.940326 
L 340.350685 169.286388 
L 341.843661 219.043478 
L 343.336638 210.518809 
L 344.829615 144.75106 
L 346.322591 180.583831 
L 347.815568 212.345584 
L 349.308544 137.279551 
L 350.801521 191.217913 
L 352.294497 181.904903 
L 353.787474 257.654135 
L 355.280451 240.773439 
L 358.266404 217.642824 
L 359.75938 263.724485 
L 361.252357 234.675412 
L 362.745334 285.268686 
L 364.23831 282.138489 
L 365.731287 274.737671 
L 367.224263 265.599932 
L 368.71724 215.490322 
L 370.210217 299.124569 
L 371.703193 305.144462 
L 373.19617 303.404042 
L 374.689146 302.466842 
L 376.182123 285.009881 
L 377.675099 300.539064 
L 379.168076 298.706646 
L 380.661053 312.255292 
L 382.154029 304.375932 
L 383.647006 311.915381 
L 385.139982 312.019668 
L 386.632959 312.373138 
L 388.125936 310.997196 
L 389.618912 307.208537 
L 392.604865 313.323996 
L 394.097842 313.301355 
L 397.083795 312.885095 
L 398.576772 313.068905 
L 400.069748 312.493051 
L 401.562725 313.307332 
L 410.520584 313.33005 
L 495.62025 313.3301 
L 495.62025 313.3301 
" style="fill:none;stroke:#a65628;stroke-linecap:square;stroke-width:2.0;"/>
   </g>
   <g id="line2d_7">
    <path clip-path="url(#p0feb78dad5)" d="M 49.22025 25.330223 
L 180.60219 25.378632 
L 182.095166 25.493706 
L 183.588143 25.373227 
L 201.503862 25.465035 
L 202.996839 25.678083 
L 204.489815 25.446509 
L 207.475768 25.569444 
L 210.461722 25.501564 
L 211.954698 25.743282 
L 213.447675 25.507369 
L 214.940651 25.608965 
L 216.433628 25.493165 
L 219.419581 25.683699 
L 220.912558 25.637513 
L 222.405534 25.99423 
L 223.898511 25.710243 
L 225.391487 25.873387 
L 226.884464 25.611948 
L 228.377441 25.644609 
L 229.870417 25.864599 
L 231.363394 26.237988 
L 234.349347 25.835207 
L 235.842324 26.033026 
L 237.3353 26.484863 
L 238.828277 26.087943 
L 240.321253 25.972893 
L 243.307207 26.294048 
L 244.800183 25.884329 
L 246.29316 25.813411 
L 247.786136 26.0996 
L 249.279113 26.557142 
L 250.772089 26.252748 
L 252.265066 26.734408 
L 255.251019 27.067078 
L 256.743996 27.46304 
L 258.236972 27.731786 
L 259.729949 29.36392 
L 261.222926 27.569013 
L 262.715902 28.133314 
L 264.208879 27.960939 
L 265.701855 28.590914 
L 267.194832 30.55619 
L 268.687809 27.796693 
L 270.180785 30.235605 
L 271.673762 30.02636 
L 273.166738 33.137101 
L 274.659715 29.155399 
L 276.152691 30.993037 
L 277.645668 29.129457 
L 279.138645 31.892231 
L 280.631621 33.201542 
L 282.124598 32.248332 
L 283.617574 33.836152 
L 285.110551 32.195585 
L 286.603528 30.981503 
L 288.096504 34.124701 
L 289.589481 38.418451 
L 291.082457 38.559941 
L 292.575434 36.633618 
L 294.068411 41.127141 
L 295.561387 36.780533 
L 297.054364 36.062344 
L 298.54734 42.215574 
L 300.040317 39.932233 
L 301.533293 41.705565 
L 303.02627 45.380936 
L 304.519247 49.419947 
L 306.012223 39.240292 
L 307.5052 42.489188 
L 308.998176 41.728913 
L 310.491153 49.947255 
L 311.98413 49.916775 
L 313.477106 71.414187 
L 314.970083 53.097993 
L 316.463059 62.09516 
L 317.956036 60.107504 
L 319.449013 66.767366 
L 320.941989 81.588379 
L 322.434966 76.403984 
L 323.927942 91.19153 
L 325.420919 76.22791 
L 326.913895 76.185514 
L 328.406872 79.041934 
L 329.899849 82.347111 
L 331.392825 70.611341 
L 332.885802 90.3785 
L 334.378778 115.623863 
L 335.871755 111.56668 
L 337.364732 89.288045 
L 338.857708 121.865732 
L 340.350685 129.816159 
L 341.843661 130.580202 
L 343.336638 94.161244 
L 344.829615 96.367122 
L 346.322591 174.230682 
L 347.815568 139.68936 
L 349.308544 116.288899 
L 352.294497 166.592184 
L 353.787474 184.246797 
L 355.280451 183.018136 
L 356.773427 163.435269 
L 358.266404 211.992641 
L 359.75938 170.898789 
L 361.252357 155.859339 
L 362.745334 153.782343 
L 364.23831 219.930736 
L 365.731287 169.285971 
L 367.224263 223.603098 
L 368.71724 256.562684 
L 370.210217 233.040838 
L 371.703193 267.744731 
L 373.19617 250.724836 
L 374.689146 261.096317 
L 376.182123 266.989075 
L 377.675099 283.89313 
L 379.168076 291.455439 
L 380.661053 293.120221 
L 382.154029 261.159715 
L 383.647006 261.958562 
L 385.139982 293.560964 
L 386.632959 270.46586 
L 388.125936 295.886543 
L 389.618912 307.696793 
L 391.111889 262.615566 
L 392.604865 294.192433 
L 394.097842 308.413259 
L 395.590819 307.03766 
L 397.083795 312.886369 
L 398.576772 311.406111 
L 400.069748 300.060119 
L 401.562725 312.917563 
L 403.055702 312.316033 
L 404.548678 310.565354 
L 406.041655 310.079872 
L 407.534631 313.321428 
L 412.013561 313.265359 
L 414.999514 313.329665 
L 416.492491 313.076186 
L 417.985467 313.330096 
L 420.971421 313.330063 
L 459.788812 313.3301 
L 495.62025 313.3301 
L 495.62025 313.3301 
" style="fill:none;stroke:#f781bf;stroke-linecap:square;stroke-width:2.0;"/>
   </g>
   <g id="line2d_8">
    <path clip-path="url(#p0feb78dad5)" d="M 49.22025 25.330142 
L 220.912558 25.379301 
L 222.405534 25.463341 
L 225.391487 25.458812 
L 231.363394 25.486397 
L 241.81423 25.525055 
L 243.307207 25.919254 
L 244.800183 25.612233 
L 246.29316 25.56836 
L 247.786136 25.668927 
L 249.279113 25.519765 
L 250.772089 25.701619 
L 252.265066 25.648798 
L 253.758043 25.84529 
L 255.251019 25.550732 
L 256.743996 25.563609 
L 258.236972 26.068539 
L 259.729949 25.599168 
L 261.222926 25.963055 
L 262.715902 25.723138 
L 264.208879 25.832586 
L 265.701855 25.65167 
L 267.194832 25.774261 
L 268.687809 25.733946 
L 270.180785 25.816109 
L 271.673762 26.277427 
L 273.166738 26.150353 
L 274.659715 26.713113 
L 277.645668 25.970472 
L 279.138645 26.791452 
L 280.631621 26.371811 
L 283.617574 25.90778 
L 285.110551 26.220141 
L 286.603528 25.804821 
L 288.096504 26.546157 
L 289.589481 26.529244 
L 291.082457 26.71296 
L 292.575434 27.176749 
L 295.561387 27.416199 
L 297.054364 26.315049 
L 298.54734 26.443652 
L 300.040317 28.091017 
L 301.533293 27.426643 
L 303.02627 28.336923 
L 304.519247 28.465137 
L 306.012223 28.467643 
L 307.5052 27.570509 
L 308.998176 30.119154 
L 310.491153 28.640404 
L 311.98413 29.098972 
L 313.477106 28.770826 
L 314.970083 28.091022 
L 316.463059 28.25514 
L 317.956036 33.649942 
L 319.449013 29.816096 
L 320.941989 29.735113 
L 322.434966 32.211139 
L 323.927942 31.52248 
L 325.420919 30.603559 
L 326.913895 34.226954 
L 328.406872 30.38553 
L 329.899849 33.217473 
L 331.392825 33.465073 
L 332.885802 31.979628 
L 334.378778 34.531195 
L 335.871755 36.170785 
L 337.364732 35.062114 
L 338.857708 35.314738 
L 340.350685 33.458612 
L 341.843661 35.504499 
L 344.829615 43.674691 
L 346.322591 38.202693 
L 347.815568 47.013522 
L 349.308544 49.72605 
L 350.801521 46.736026 
L 352.294497 59.011937 
L 353.787474 49.457675 
L 355.280451 59.172234 
L 356.773427 46.570321 
L 358.266404 49.275373 
L 359.75938 47.715112 
L 361.252357 45.812893 
L 362.745334 56.575324 
L 364.23831 93.557164 
L 365.731287 68.39248 
L 367.224263 80.298279 
L 368.71724 67.610764 
L 370.210217 69.361144 
L 371.703193 76.298947 
L 373.19617 70.715515 
L 374.689146 108.733128 
L 376.182123 90.715895 
L 377.675099 114.798186 
L 379.168076 108.734796 
L 380.661053 78.018691 
L 382.154029 107.407024 
L 383.647006 111.664345 
L 385.139982 132.456462 
L 386.632959 74.720197 
L 388.125936 134.532278 
L 389.618912 125.028906 
L 391.111889 123.553276 
L 392.604865 109.893696 
L 394.097842 101.801907 
L 395.590819 126.634883 
L 397.083795 167.254699 
L 398.576772 136.570669 
L 400.069748 138.274752 
L 401.562725 193.274105 
L 403.055702 154.174777 
L 404.548678 158.489519 
L 406.041655 165.701673 
L 407.534631 246.392942 
L 409.027608 225.712901 
L 410.520584 163.169719 
L 412.013561 201.304485 
L 413.506538 248.345642 
L 414.999514 269.810957 
L 416.492491 263.094946 
L 417.985467 253.655867 
L 419.478444 224.865242 
L 420.971421 274.228644 
L 422.464397 266.660464 
L 423.957374 211.255362 
L 425.45035 281.509339 
L 426.943327 285.376788 
L 428.436304 279.808687 
L 429.92928 236.32537 
L 431.422257 280.508275 
L 432.915233 246.842127 
L 434.40821 283.652386 
L 435.901186 294.654957 
L 437.394163 256.353994 
L 438.88714 276.76385 
L 440.380116 303.025335 
L 441.873093 308.230099 
L 444.859046 311.031371 
L 446.352023 313.300414 
L 447.844999 311.661145 
L 449.337976 306.809905 
L 450.830952 313.328626 
L 452.323929 313.258322 
L 453.816906 310.39661 
L 455.309882 313.129042 
L 456.802859 313.326507 
L 458.295835 313.07403 
L 459.788812 313.329187 
L 461.281788 312.921252 
L 462.774765 313.330053 
L 465.760718 313.321365 
L 467.253695 313.077807 
L 468.746671 313.32268 
L 491.14132 313.3301 
L 495.62025 313.3301 
L 495.62025 313.3301 
" style="fill:none;stroke:#999999;stroke-linecap:square;stroke-width:2.0;"/>
   </g>
   <g id="patch_3">
    <path d="M 49.22025 313.3301 
L 49.22025 25.3301 
" style="fill:none;stroke:#000000;stroke-linecap:square;stroke-linejoin:miter;"/>
   </g>
   <g id="patch_4">
    <path d="M 49.22025 25.3301 
L 495.62025 25.3301 
" style="fill:none;stroke:#000000;stroke-linecap:square;stroke-linejoin:miter;"/>
   </g>
   <g id="patch_5">
    <path d="M 495.62025 313.3301 
L 495.62025 25.3301 
" style="fill:none;stroke:#000000;stroke-linecap:square;stroke-linejoin:miter;"/>
   </g>
   <g id="patch_6">
    <path d="M 49.22025 313.3301 
L 495.62025 313.3301 
" style="fill:none;stroke:#000000;stroke-linecap:square;stroke-linejoin:miter;"/>
   </g>
   <g id="matplotlib.axis_1">
    <g id="xtick_1">
     <g id="line2d_9">
      <defs>
       <path d="M 0 0 
L 0 -4 
" id="m870c5f6afb" style="stroke:#000000;stroke-width:0.5;"/>
      </defs>
      <g>
       <use style="stroke:#000000;stroke-width:0.5;" x="49.22025" xlink:href="#m870c5f6afb" y="313.3301"/>
      </g>
     </g>
     <g id="line2d_10">
      <defs>
       <path d="M 0 0 
L 0 4 
" id="m2200ad1279" style="stroke:#000000;stroke-width:0.5;"/>
      </defs>
      <g>
       <use style="stroke:#000000;stroke-width:0.5;" x="49.22025" xlink:href="#m2200ad1279" y="25.3301"/>
      </g>
     </g>
     <g id="text_1">
      <!-- −10 -->
      <defs>
       <path d="M 10.59375 35.5 
L 73.1875 35.5 
L 73.1875 27.203125 
L 10.59375 27.203125 
z
" id="BitstreamVeraSans-Roman-2212"/>
       <path d="M 31.78125 66.40625 
Q 24.171875 66.40625 20.328125 58.90625 
Q 16.5 51.421875 16.5 36.375 
Q 16.5 21.390625 20.328125 13.890625 
Q 24.171875 6.390625 31.78125 6.390625 
Q 39.453125 6.390625 43.28125 13.890625 
Q 47.125 21.390625 47.125 36.375 
Q 47.125 51.421875 43.28125 58.90625 
Q 39.453125 66.40625 31.78125 66.40625 
M 31.78125 74.21875 
Q 44.046875 74.21875 50.515625 64.515625 
Q 56.984375 54.828125 56.984375 36.375 
Q 56.984375 17.96875 50.515625 8.265625 
Q 44.046875 -1.421875 31.78125 -1.421875 
Q 19.53125 -1.421875 13.0625 8.265625 
Q 6.59375 17.96875 6.59375 36.375 
Q 6.59375 54.828125 13.0625 64.515625 
Q 19.53125 74.21875 31.78125 74.21875 
" id="BitstreamVeraSans-Roman-30"/>
       <path d="M 12.40625 8.296875 
L 28.515625 8.296875 
L 28.515625 63.921875 
L 10.984375 60.40625 
L 10.984375 69.390625 
L 28.421875 72.90625 
L 38.28125 72.90625 
L 38.28125 8.296875 
L 54.390625 8.296875 
L 54.390625 0 
L 12.40625 0 
z
" id="BitstreamVeraSans-Roman-31"/>
      </defs>
      <g transform="translate(36.5574375 326.448225)scale(0.12 -0.12)">
       <use xlink:href="#BitstreamVeraSans-Roman-2212"/>
       <use x="83.7890625" xlink:href="#BitstreamVeraSans-Roman-31"/>
       <use x="147.412109375" xlink:href="#BitstreamVeraSans-Roman-30"/>
      </g>
     </g>
    </g>
    <g id="xtick_2">
     <g id="line2d_11">
      <g>
       <use style="stroke:#000000;stroke-width:0.5;" x="160.82025" xlink:href="#m870c5f6afb" y="313.3301"/>
      </g>
     </g>
     <g id="line2d_12">
      <g>
       <use style="stroke:#000000;stroke-width:0.5;" x="160.82025" xlink:href="#m2200ad1279" y="25.3301"/>
      </g>
     </g>
     <g id="text_2">
      <!-- −5 -->
      <defs>
       <path d="M 10.796875 72.90625 
L 49.515625 72.90625 
L 49.515625 64.59375 
L 19.828125 64.59375 
L 19.828125 46.734375 
Q 21.96875 47.46875 24.109375 47.828125 
Q 26.265625 48.1875 28.421875 48.1875 
Q 40.625 48.1875 47.75 41.5 
Q 54.890625 34.8125 54.890625 23.390625 
Q 54.890625 11.625 47.5625 5.09375 
Q 40.234375 -1.421875 26.90625 -1.421875 
Q 22.3125 -1.421875 17.546875 -0.640625 
Q 12.796875 0.140625 7.71875 1.703125 
L 7.71875 11.625 
Q 12.109375 9.234375 16.796875 8.0625 
Q 21.484375 6.890625 26.703125 6.890625 
Q 35.15625 6.890625 40.078125 11.328125 
Q 45.015625 15.765625 45.015625 23.390625 
Q 45.015625 31 40.078125 35.4375 
Q 35.15625 39.890625 26.703125 39.890625 
Q 22.75 39.890625 18.8125 39.015625 
Q 14.890625 38.140625 10.796875 36.28125 
z
" id="BitstreamVeraSans-Roman-35"/>
      </defs>
      <g transform="translate(151.9749375 326.448225)scale(0.12 -0.12)">
       <use xlink:href="#BitstreamVeraSans-Roman-2212"/>
       <use x="83.7890625" xlink:href="#BitstreamVeraSans-Roman-35"/>
      </g>
     </g>
    </g>
    <g id="xtick_3">
     <g id="line2d_13">
      <g>
       <use style="stroke:#000000;stroke-width:0.5;" x="272.42025" xlink:href="#m870c5f6afb" y="313.3301"/>
      </g>
     </g>
     <g id="line2d_14">
      <g>
       <use style="stroke:#000000;stroke-width:0.5;" x="272.42025" xlink:href="#m2200ad1279" y="25.3301"/>
      </g>
     </g>
     <g id="text_3">
      <!-- 0 -->
      <g transform="translate(268.60275 326.448225)scale(0.12 -0.12)">
       <use xlink:href="#BitstreamVeraSans-Roman-30"/>
      </g>
     </g>
    </g>
    <g id="xtick_4">
     <g id="line2d_15">
      <g>
       <use style="stroke:#000000;stroke-width:0.5;" x="384.02025" xlink:href="#m870c5f6afb" y="313.3301"/>
      </g>
     </g>
     <g id="line2d_16">
      <g>
       <use style="stroke:#000000;stroke-width:0.5;" x="384.02025" xlink:href="#m2200ad1279" y="25.3301"/>
      </g>
     </g>
     <g id="text_4">
      <!-- 5 -->
      <g transform="translate(380.20275 326.448225)scale(0.12 -0.12)">
       <use xlink:href="#BitstreamVeraSans-Roman-35"/>
      </g>
     </g>
    </g>
    <g id="xtick_5">
     <g id="line2d_17">
      <g>
       <use style="stroke:#000000;stroke-width:0.5;" x="495.62025" xlink:href="#m870c5f6afb" y="313.3301"/>
      </g>
     </g>
     <g id="line2d_18">
      <g>
       <use style="stroke:#000000;stroke-width:0.5;" x="495.62025" xlink:href="#m2200ad1279" y="25.3301"/>
      </g>
     </g>
     <g id="text_5">
      <!-- 10 -->
      <g transform="translate(487.98525 326.448225)scale(0.12 -0.12)">
       <use xlink:href="#BitstreamVeraSans-Roman-31"/>
       <use x="63.623046875" xlink:href="#BitstreamVeraSans-Roman-30"/>
      </g>
     </g>
    </g>
    <g id="text_6">
     <!-- This is the x-axis -->
     <defs>
      <path d="M 9.421875 54.6875 
L 18.40625 54.6875 
L 18.40625 0 
L 9.421875 0 
z
M 9.421875 75.984375 
L 18.40625 75.984375 
L 18.40625 64.59375 
L 9.421875 64.59375 
z
" id="BitstreamVeraSans-Roman-69"/>
      <path d="M 34.28125 27.484375 
Q 23.390625 27.484375 19.1875 25 
Q 14.984375 22.515625 14.984375 16.5 
Q 14.984375 11.71875 18.140625 8.90625 
Q 21.296875 6.109375 26.703125 6.109375 
Q 34.1875 6.109375 38.703125 11.40625 
Q 43.21875 16.703125 43.21875 25.484375 
L 43.21875 27.484375 
z
M 52.203125 31.203125 
L 52.203125 0 
L 43.21875 0 
L 43.21875 8.296875 
Q 40.140625 3.328125 35.546875 0.953125 
Q 30.953125 -1.421875 24.3125 -1.421875 
Q 15.921875 -1.421875 10.953125 3.296875 
Q 6 8.015625 6 15.921875 
Q 6 25.140625 12.171875 29.828125 
Q 18.359375 34.515625 30.609375 34.515625 
L 43.21875 34.515625 
L 43.21875 35.40625 
Q 43.21875 41.609375 39.140625 45 
Q 35.0625 48.390625 27.6875 48.390625 
Q 23 48.390625 18.546875 47.265625 
Q 14.109375 46.140625 10.015625 43.890625 
L 10.015625 52.203125 
Q 14.9375 54.109375 19.578125 55.046875 
Q 24.21875 56 28.609375 56 
Q 40.484375 56 46.34375 49.84375 
Q 52.203125 43.703125 52.203125 31.203125 
" id="BitstreamVeraSans-Roman-61"/>
      <path d="M 18.3125 70.21875 
L 18.3125 54.6875 
L 36.8125 54.6875 
L 36.8125 47.703125 
L 18.3125 47.703125 
L 18.3125 18.015625 
Q 18.3125 11.328125 20.140625 9.421875 
Q 21.96875 7.515625 27.59375 7.515625 
L 36.8125 7.515625 
L 36.8125 0 
L 27.59375 0 
Q 17.1875 0 13.234375 3.875 
Q 9.28125 7.765625 9.28125 18.015625 
L 9.28125 47.703125 
L 2.6875 47.703125 
L 2.6875 54.6875 
L 9.28125 54.6875 
L 9.28125 70.21875 
z
" id="BitstreamVeraSans-Roman-74"/>
      <path d="M -0.296875 72.90625 
L 61.375 72.90625 
L 61.375 64.59375 
L 35.5 64.59375 
L 35.5 0 
L 25.59375 0 
L 25.59375 64.59375 
L -0.296875 64.59375 
z
" id="BitstreamVeraSans-Roman-54"/>
      <path d="M 54.890625 54.6875 
L 35.109375 28.078125 
L 55.90625 0 
L 45.3125 0 
L 29.390625 21.484375 
L 13.484375 0 
L 2.875 0 
L 24.125 28.609375 
L 4.6875 54.6875 
L 15.28125 54.6875 
L 29.78125 35.203125 
L 44.28125 54.6875 
z
" id="BitstreamVeraSans-Roman-78"/>
      <path d="M 56.203125 29.59375 
L 56.203125 25.203125 
L 14.890625 25.203125 
Q 15.484375 15.921875 20.484375 11.0625 
Q 25.484375 6.203125 34.421875 6.203125 
Q 39.59375 6.203125 44.453125 7.46875 
Q 49.3125 8.734375 54.109375 11.28125 
L 54.109375 2.78125 
Q 49.265625 0.734375 44.1875 -0.34375 
Q 39.109375 -1.421875 33.890625 -1.421875 
Q 20.796875 -1.421875 13.15625 6.1875 
Q 5.515625 13.8125 5.515625 26.8125 
Q 5.515625 40.234375 12.765625 48.109375 
Q 20.015625 56 32.328125 56 
Q 43.359375 56 49.78125 48.890625 
Q 56.203125 41.796875 56.203125 29.59375 
M 47.21875 32.234375 
Q 47.125 39.59375 43.09375 43.984375 
Q 39.0625 48.390625 32.421875 48.390625 
Q 24.90625 48.390625 20.390625 44.140625 
Q 15.875 39.890625 15.1875 32.171875 
z
" id="BitstreamVeraSans-Roman-65"/>
      <path d="M 44.28125 53.078125 
L 44.28125 44.578125 
Q 40.484375 46.53125 36.375 47.5 
Q 32.28125 48.484375 27.875 48.484375 
Q 21.1875 48.484375 17.84375 46.4375 
Q 14.5 44.390625 14.5 40.28125 
Q 14.5 37.15625 16.890625 35.375 
Q 19.28125 33.59375 26.515625 31.984375 
L 29.59375 31.296875 
Q 39.15625 29.25 43.1875 25.515625 
Q 47.21875 21.78125 47.21875 15.09375 
Q 47.21875 7.46875 41.1875 3.015625 
Q 35.15625 -1.421875 24.609375 -1.421875 
Q 20.21875 -1.421875 15.453125 -0.5625 
Q 10.6875 0.296875 5.421875 2 
L 5.421875 11.28125 
Q 10.40625 8.6875 15.234375 7.390625 
Q 20.0625 6.109375 24.8125 6.109375 
Q 31.15625 6.109375 34.5625 8.28125 
Q 37.984375 10.453125 37.984375 14.40625 
Q 37.984375 18.0625 35.515625 20.015625 
Q 33.0625 21.96875 24.703125 23.78125 
L 21.578125 24.515625 
Q 13.234375 26.265625 9.515625 29.90625 
Q 5.8125 33.546875 5.8125 39.890625 
Q 5.8125 47.609375 11.28125 51.796875 
Q 16.75 56 26.8125 56 
Q 31.78125 56 36.171875 55.265625 
Q 40.578125 54.546875 44.28125 53.078125 
" id="BitstreamVeraSans-Roman-73"/>
      <path d="M 54.890625 33.015625 
L 54.890625 0 
L 45.90625 0 
L 45.90625 32.71875 
Q 45.90625 40.484375 42.875 44.328125 
Q 39.84375 48.1875 33.796875 48.1875 
Q 26.515625 48.1875 22.3125 43.546875 
Q 18.109375 38.921875 18.109375 30.90625 
L 18.109375 0 
L 9.078125 0 
L 9.078125 75.984375 
L 18.109375 75.984375 
L 18.109375 46.1875 
Q 21.34375 51.125 25.703125 53.5625 
Q 30.078125 56 35.796875 56 
Q 45.21875 56 50.046875 50.171875 
Q 54.890625 44.34375 54.890625 33.015625 
" id="BitstreamVeraSans-Roman-68"/>
      <path id="BitstreamVeraSans-Roman-20"/>
      <path d="M 4.890625 31.390625 
L 31.203125 31.390625 
L 31.203125 23.390625 
L 4.890625 23.390625 
z
" id="BitstreamVeraSans-Roman-2d"/>
     </defs>
     <g transform="translate(211.993125 344.8856)scale(0.144 -0.144)">
      <use xlink:href="#BitstreamVeraSans-Roman-54"/>
      <use x="61.083984375" xlink:href="#BitstreamVeraSans-Roman-68"/>
      <use x="124.462890625" xlink:href="#BitstreamVeraSans-Roman-69"/>
      <use x="152.24609375" xlink:href="#BitstreamVeraSans-Roman-73"/>
      <use x="204.345703125" xlink:href="#BitstreamVeraSans-Roman-20"/>
      <use x="236.1328125" xlink:href="#BitstreamVeraSans-Roman-69"/>
      <use x="263.916015625" xlink:href="#BitstreamVeraSans-Roman-73"/>
      <use x="316.015625" xlink:href="#BitstreamVeraSans-Roman-20"/>
      <use x="347.802734375" xlink:href="#BitstreamVeraSans-Roman-74"/>
      <use x="387.01171875" xlink:href="#BitstreamVeraSans-Roman-68"/>
      <use x="450.390625" xlink:href="#BitstreamVeraSans-Roman-65"/>
      <use x="511.9140625" xlink:href="#BitstreamVeraSans-Roman-20"/>
      <use x="543.701171875" xlink:href="#BitstreamVeraSans-Roman-78"/>
      <use x="602.880859375" xlink:href="#BitstreamVeraSans-Roman-2d"/>
      <use x="638.96484375" xlink:href="#BitstreamVeraSans-Roman-61"/>
      <use x="700.244140625" xlink:href="#BitstreamVeraSans-Roman-78"/>
      <use x="759.423828125" xlink:href="#BitstreamVeraSans-Roman-69"/>
      <use x="787.20703125" xlink:href="#BitstreamVeraSans-Roman-73"/>
     </g>
    </g>
   </g>
   <g id="matplotlib.axis_2">
    <g id="ytick_1">
     <g id="line2d_19">
      <defs>
       <path d="M 0 0 
L 4 0 
" id="m2140fe2aa0" style="stroke:#000000;stroke-width:0.5;"/>
      </defs>
      <g>
       <use style="stroke:#000000;stroke-width:0.5;" x="49.22025" xlink:href="#m2140fe2aa0" y="313.3301"/>
      </g>
     </g>
     <g id="line2d_20">
      <defs>
       <path d="M 0 0 
L -4 0 
" id="m79d13d2469" style="stroke:#000000;stroke-width:0.5;"/>
      </defs>
      <g>
       <use style="stroke:#000000;stroke-width:0.5;" x="495.62025" xlink:href="#m79d13d2469" y="313.3301"/>
      </g>
     </g>
     <g id="text_7">
      <!-- 0.0 -->
      <defs>
       <path d="M 10.6875 12.40625 
L 21 12.40625 
L 21 0 
L 10.6875 0 
z
" id="BitstreamVeraSans-Roman-2e"/>
      </defs>
      <g transform="translate(26.1365 316.64135)scale(0.12 -0.12)">
       <use xlink:href="#BitstreamVeraSans-Roman-30"/>
       <use x="63.623046875" xlink:href="#BitstreamVeraSans-Roman-2e"/>
       <use x="95.41015625" xlink:href="#BitstreamVeraSans-Roman-30"/>
      </g>
     </g>
    </g>
    <g id="ytick_2">
     <g id="line2d_21">
      <g>
       <use style="stroke:#000000;stroke-width:0.5;" x="49.22025" xlink:href="#m2140fe2aa0" y="255.7301"/>
      </g>
     </g>
     <g id="line2d_22">
      <g>
       <use style="stroke:#000000;stroke-width:0.5;" x="495.62025" xlink:href="#m79d13d2469" y="255.7301"/>
      </g>
     </g>
     <g id="text_8">
      <!-- 0.2 -->
      <defs>
       <path d="M 19.1875 8.296875 
L 53.609375 8.296875 
L 53.609375 0 
L 7.328125 0 
L 7.328125 8.296875 
Q 12.9375 14.109375 22.625 23.890625 
Q 32.328125 33.6875 34.8125 36.53125 
Q 39.546875 41.84375 41.421875 45.53125 
Q 43.3125 49.21875 43.3125 52.78125 
Q 43.3125 58.59375 39.234375 62.25 
Q 35.15625 65.921875 28.609375 65.921875 
Q 23.96875 65.921875 18.8125 64.3125 
Q 13.671875 62.703125 7.8125 59.421875 
L 7.8125 69.390625 
Q 13.765625 71.78125 18.9375 73 
Q 24.125 74.21875 28.421875 74.21875 
Q 39.75 74.21875 46.484375 68.546875 
Q 53.21875 62.890625 53.21875 53.421875 
Q 53.21875 48.921875 51.53125 44.890625 
Q 49.859375 40.875 45.40625 35.40625 
Q 44.1875 33.984375 37.640625 27.21875 
Q 31.109375 20.453125 19.1875 8.296875 
" id="BitstreamVeraSans-Roman-32"/>
      </defs>
      <g transform="translate(26.1365 259.04135)scale(0.12 -0.12)">
       <use xlink:href="#BitstreamVeraSans-Roman-30"/>
       <use x="63.623046875" xlink:href="#BitstreamVeraSans-Roman-2e"/>
       <use x="95.41015625" xlink:href="#BitstreamVeraSans-Roman-32"/>
      </g>
     </g>
    </g>
    <g id="ytick_3">
     <g id="line2d_23">
      <g>
       <use style="stroke:#000000;stroke-width:0.5;" x="49.22025" xlink:href="#m2140fe2aa0" y="198.1301"/>
      </g>
     </g>
     <g id="line2d_24">
      <g>
       <use style="stroke:#000000;stroke-width:0.5;" x="495.62025" xlink:href="#m79d13d2469" y="198.1301"/>
      </g>
     </g>
     <g id="text_9">
      <!-- 0.4 -->
      <defs>
       <path d="M 37.796875 64.3125 
L 12.890625 25.390625 
L 37.796875 25.390625 
z
M 35.203125 72.90625 
L 47.609375 72.90625 
L 47.609375 25.390625 
L 58.015625 25.390625 
L 58.015625 17.1875 
L 47.609375 17.1875 
L 47.609375 0 
L 37.796875 0 
L 37.796875 17.1875 
L 4.890625 17.1875 
L 4.890625 26.703125 
z
" id="BitstreamVeraSans-Roman-34"/>
      </defs>
      <g transform="translate(26.1365 201.44135)scale(0.12 -0.12)">
       <use xlink:href="#BitstreamVeraSans-Roman-30"/>
       <use x="63.623046875" xlink:href="#BitstreamVeraSans-Roman-2e"/>
       <use x="95.41015625" xlink:href="#BitstreamVeraSans-Roman-34"/>
      </g>
     </g>
    </g>
    <g id="ytick_4">
     <g id="line2d_25">
      <g>
       <use style="stroke:#000000;stroke-width:0.5;" x="49.22025" xlink:href="#m2140fe2aa0" y="140.5301"/>
      </g>
     </g>
     <g id="line2d_26">
      <g>
       <use style="stroke:#000000;stroke-width:0.5;" x="495.62025" xlink:href="#m79d13d2469" y="140.5301"/>
      </g>
     </g>
     <g id="text_10">
      <!-- 0.6 -->
      <defs>
       <path d="M 33.015625 40.375 
Q 26.375 40.375 22.484375 35.828125 
Q 18.609375 31.296875 18.609375 23.390625 
Q 18.609375 15.53125 22.484375 10.953125 
Q 26.375 6.390625 33.015625 6.390625 
Q 39.65625 6.390625 43.53125 10.953125 
Q 47.40625 15.53125 47.40625 23.390625 
Q 47.40625 31.296875 43.53125 35.828125 
Q 39.65625 40.375 33.015625 40.375 
M 52.59375 71.296875 
L 52.59375 62.3125 
Q 48.875 64.0625 45.09375 64.984375 
Q 41.3125 65.921875 37.59375 65.921875 
Q 27.828125 65.921875 22.671875 59.328125 
Q 17.53125 52.734375 16.796875 39.40625 
Q 19.671875 43.65625 24.015625 45.921875 
Q 28.375 48.1875 33.59375 48.1875 
Q 44.578125 48.1875 50.953125 41.515625 
Q 57.328125 34.859375 57.328125 23.390625 
Q 57.328125 12.15625 50.6875 5.359375 
Q 44.046875 -1.421875 33.015625 -1.421875 
Q 20.359375 -1.421875 13.671875 8.265625 
Q 6.984375 17.96875 6.984375 36.375 
Q 6.984375 53.65625 15.1875 63.9375 
Q 23.390625 74.21875 37.203125 74.21875 
Q 40.921875 74.21875 44.703125 73.484375 
Q 48.484375 72.75 52.59375 71.296875 
" id="BitstreamVeraSans-Roman-36"/>
      </defs>
      <g transform="translate(26.1365 143.84135)scale(0.12 -0.12)">
       <use xlink:href="#BitstreamVeraSans-Roman-30"/>
       <use x="63.623046875" xlink:href="#BitstreamVeraSans-Roman-2e"/>
       <use x="95.41015625" xlink:href="#BitstreamVeraSans-Roman-36"/>
      </g>
     </g>
    </g>
    <g id="ytick_5">
     <g id="line2d_27">
      <g>
       <use style="stroke:#000000;stroke-width:0.5;" x="49.22025" xlink:href="#m2140fe2aa0" y="82.9301"/>
      </g>
     </g>
     <g id="line2d_28">
      <g>
       <use style="stroke:#000000;stroke-width:0.5;" x="495.62025" xlink:href="#m79d13d2469" y="82.9301"/>
      </g>
     </g>
     <g id="text_11">
      <!-- 0.8 -->
      <defs>
       <path d="M 31.78125 34.625 
Q 24.75 34.625 20.71875 30.859375 
Q 16.703125 27.09375 16.703125 20.515625 
Q 16.703125 13.921875 20.71875 10.15625 
Q 24.75 6.390625 31.78125 6.390625 
Q 38.8125 6.390625 42.859375 10.171875 
Q 46.921875 13.96875 46.921875 20.515625 
Q 46.921875 27.09375 42.890625 30.859375 
Q 38.875 34.625 31.78125 34.625 
M 21.921875 38.8125 
Q 15.578125 40.375 12.03125 44.71875 
Q 8.5 49.078125 8.5 55.328125 
Q 8.5 64.0625 14.71875 69.140625 
Q 20.953125 74.21875 31.78125 74.21875 
Q 42.671875 74.21875 48.875 69.140625 
Q 55.078125 64.0625 55.078125 55.328125 
Q 55.078125 49.078125 51.53125 44.71875 
Q 48 40.375 41.703125 38.8125 
Q 48.828125 37.15625 52.796875 32.3125 
Q 56.78125 27.484375 56.78125 20.515625 
Q 56.78125 9.90625 50.3125 4.234375 
Q 43.84375 -1.421875 31.78125 -1.421875 
Q 19.734375 -1.421875 13.25 4.234375 
Q 6.78125 9.90625 6.78125 20.515625 
Q 6.78125 27.484375 10.78125 32.3125 
Q 14.796875 37.15625 21.921875 38.8125 
M 18.3125 54.390625 
Q 18.3125 48.734375 21.84375 45.5625 
Q 25.390625 42.390625 31.78125 42.390625 
Q 38.140625 42.390625 41.71875 45.5625 
Q 45.3125 48.734375 45.3125 54.390625 
Q 45.3125 60.0625 41.71875 63.234375 
Q 38.140625 66.40625 31.78125 66.40625 
Q 25.390625 66.40625 21.84375 63.234375 
Q 18.3125 60.0625 18.3125 54.390625 
" id="BitstreamVeraSans-Roman-38"/>
      </defs>
      <g transform="translate(26.1365 86.24135)scale(0.12 -0.12)">
       <use xlink:href="#BitstreamVeraSans-Roman-30"/>
       <use x="63.623046875" xlink:href="#BitstreamVeraSans-Roman-2e"/>
       <use x="95.41015625" xlink:href="#BitstreamVeraSans-Roman-38"/>
      </g>
     </g>
    </g>
    <g id="ytick_6">
     <g id="line2d_29">
      <g>
       <use style="stroke:#000000;stroke-width:0.5;" x="49.22025" xlink:href="#m2140fe2aa0" y="25.3301"/>
      </g>
     </g>
     <g id="line2d_30">
      <g>
       <use style="stroke:#000000;stroke-width:0.5;" x="495.62025" xlink:href="#m79d13d2469" y="25.3301"/>
      </g>
     </g>
     <g id="text_12">
      <!-- 1.0 -->
      <g transform="translate(26.1365 28.64135)scale(0.12 -0.12)">
       <use xlink:href="#BitstreamVeraSans-Roman-31"/>
       <use x="63.623046875" xlink:href="#BitstreamVeraSans-Roman-2e"/>
       <use x="95.41015625" xlink:href="#BitstreamVeraSans-Roman-30"/>
      </g>
     </g>
    </g>
    <g id="text_13">
     <!-- Random but decaying values -->
     <defs>
      <path d="M 48.78125 52.59375 
L 48.78125 44.1875 
Q 44.96875 46.296875 41.140625 47.34375 
Q 37.3125 48.390625 33.40625 48.390625 
Q 24.65625 48.390625 19.8125 42.84375 
Q 14.984375 37.3125 14.984375 27.296875 
Q 14.984375 17.28125 19.8125 11.734375 
Q 24.65625 6.203125 33.40625 6.203125 
Q 37.3125 6.203125 41.140625 7.25 
Q 44.96875 8.296875 48.78125 10.40625 
L 48.78125 2.09375 
Q 45.015625 0.34375 40.984375 -0.53125 
Q 36.96875 -1.421875 32.421875 -1.421875 
Q 20.0625 -1.421875 12.78125 6.34375 
Q 5.515625 14.109375 5.515625 27.296875 
Q 5.515625 40.671875 12.859375 48.328125 
Q 20.21875 56 33.015625 56 
Q 37.15625 56 41.109375 55.140625 
Q 45.0625 54.296875 48.78125 52.59375 
" id="BitstreamVeraSans-Roman-63"/>
      <path d="M 30.609375 48.390625 
Q 23.390625 48.390625 19.1875 42.75 
Q 14.984375 37.109375 14.984375 27.296875 
Q 14.984375 17.484375 19.15625 11.84375 
Q 23.34375 6.203125 30.609375 6.203125 
Q 37.796875 6.203125 41.984375 11.859375 
Q 46.1875 17.53125 46.1875 27.296875 
Q 46.1875 37.015625 41.984375 42.703125 
Q 37.796875 48.390625 30.609375 48.390625 
M 30.609375 56 
Q 42.328125 56 49.015625 48.375 
Q 55.71875 40.765625 55.71875 27.296875 
Q 55.71875 13.875 49.015625 6.21875 
Q 42.328125 -1.421875 30.609375 -1.421875 
Q 18.84375 -1.421875 12.171875 6.21875 
Q 5.515625 13.875 5.515625 27.296875 
Q 5.515625 40.765625 12.171875 48.375 
Q 18.84375 56 30.609375 56 
" id="BitstreamVeraSans-Roman-6f"/>
      <path d="M 9.421875 75.984375 
L 18.40625 75.984375 
L 18.40625 0 
L 9.421875 0 
z
" id="BitstreamVeraSans-Roman-6c"/>
      <path d="M 45.40625 46.390625 
L 45.40625 75.984375 
L 54.390625 75.984375 
L 54.390625 0 
L 45.40625 0 
L 45.40625 8.203125 
Q 42.578125 3.328125 38.25 0.953125 
Q 33.9375 -1.421875 27.875 -1.421875 
Q 17.96875 -1.421875 11.734375 6.484375 
Q 5.515625 14.40625 5.515625 27.296875 
Q 5.515625 40.1875 11.734375 48.09375 
Q 17.96875 56 27.875 56 
Q 33.9375 56 38.25 53.625 
Q 42.578125 51.265625 45.40625 46.390625 
M 14.796875 27.296875 
Q 14.796875 17.390625 18.875 11.75 
Q 22.953125 6.109375 30.078125 6.109375 
Q 37.203125 6.109375 41.296875 11.75 
Q 45.40625 17.390625 45.40625 27.296875 
Q 45.40625 37.203125 41.296875 42.84375 
Q 37.203125 48.484375 30.078125 48.484375 
Q 22.953125 48.484375 18.875 42.84375 
Q 14.796875 37.203125 14.796875 27.296875 
" id="BitstreamVeraSans-Roman-64"/>
      <path d="M 48.6875 27.296875 
Q 48.6875 37.203125 44.609375 42.84375 
Q 40.53125 48.484375 33.40625 48.484375 
Q 26.265625 48.484375 22.1875 42.84375 
Q 18.109375 37.203125 18.109375 27.296875 
Q 18.109375 17.390625 22.1875 11.75 
Q 26.265625 6.109375 33.40625 6.109375 
Q 40.53125 6.109375 44.609375 11.75 
Q 48.6875 17.390625 48.6875 27.296875 
M 18.109375 46.390625 
Q 20.953125 51.265625 25.265625 53.625 
Q 29.59375 56 35.59375 56 
Q 45.5625 56 51.78125 48.09375 
Q 58.015625 40.1875 58.015625 27.296875 
Q 58.015625 14.40625 51.78125 6.484375 
Q 45.5625 -1.421875 35.59375 -1.421875 
Q 29.59375 -1.421875 25.265625 0.953125 
Q 20.953125 3.328125 18.109375 8.203125 
L 18.109375 0 
L 9.078125 0 
L 9.078125 75.984375 
L 18.109375 75.984375 
z
" id="BitstreamVeraSans-Roman-62"/>
      <path d="M 44.390625 34.1875 
Q 47.5625 33.109375 50.5625 29.59375 
Q 53.5625 26.078125 56.59375 19.921875 
L 66.609375 0 
L 56 0 
L 46.6875 18.703125 
Q 43.0625 26.03125 39.671875 28.421875 
Q 36.28125 30.8125 30.421875 30.8125 
L 19.671875 30.8125 
L 19.671875 0 
L 9.8125 0 
L 9.8125 72.90625 
L 32.078125 72.90625 
Q 44.578125 72.90625 50.734375 67.671875 
Q 56.890625 62.453125 56.890625 51.90625 
Q 56.890625 45.015625 53.6875 40.46875 
Q 50.484375 35.9375 44.390625 34.1875 
M 19.671875 64.796875 
L 19.671875 38.921875 
L 32.078125 38.921875 
Q 39.203125 38.921875 42.84375 42.21875 
Q 46.484375 45.515625 46.484375 51.90625 
Q 46.484375 58.296875 42.84375 61.546875 
Q 39.203125 64.796875 32.078125 64.796875 
z
" id="BitstreamVeraSans-Roman-52"/>
      <path d="M 8.5 21.578125 
L 8.5 54.6875 
L 17.484375 54.6875 
L 17.484375 21.921875 
Q 17.484375 14.15625 20.5 10.265625 
Q 23.53125 6.390625 29.59375 6.390625 
Q 36.859375 6.390625 41.078125 11.03125 
Q 45.3125 15.671875 45.3125 23.6875 
L 45.3125 54.6875 
L 54.296875 54.6875 
L 54.296875 0 
L 45.3125 0 
L 45.3125 8.40625 
Q 42.046875 3.421875 37.71875 1 
Q 33.40625 -1.421875 27.6875 -1.421875 
Q 18.265625 -1.421875 13.375 4.4375 
Q 8.5 10.296875 8.5 21.578125 
" id="BitstreamVeraSans-Roman-75"/>
      <path d="M 54.890625 33.015625 
L 54.890625 0 
L 45.90625 0 
L 45.90625 32.71875 
Q 45.90625 40.484375 42.875 44.328125 
Q 39.84375 48.1875 33.796875 48.1875 
Q 26.515625 48.1875 22.3125 43.546875 
Q 18.109375 38.921875 18.109375 30.90625 
L 18.109375 0 
L 9.078125 0 
L 9.078125 54.6875 
L 18.109375 54.6875 
L 18.109375 46.1875 
Q 21.34375 51.125 25.703125 53.5625 
Q 30.078125 56 35.796875 56 
Q 45.21875 56 50.046875 50.171875 
Q 54.890625 44.34375 54.890625 33.015625 
" id="BitstreamVeraSans-Roman-6e"/>
      <path d="M 45.40625 27.984375 
Q 45.40625 37.75 41.375 43.109375 
Q 37.359375 48.484375 30.078125 48.484375 
Q 22.859375 48.484375 18.828125 43.109375 
Q 14.796875 37.75 14.796875 27.984375 
Q 14.796875 18.265625 18.828125 12.890625 
Q 22.859375 7.515625 30.078125 7.515625 
Q 37.359375 7.515625 41.375 12.890625 
Q 45.40625 18.265625 45.40625 27.984375 
M 54.390625 6.78125 
Q 54.390625 -7.171875 48.1875 -13.984375 
Q 42 -20.796875 29.203125 -20.796875 
Q 24.46875 -20.796875 20.265625 -20.09375 
Q 16.0625 -19.390625 12.109375 -17.921875 
L 12.109375 -9.1875 
Q 16.0625 -11.328125 19.921875 -12.34375 
Q 23.78125 -13.375 27.78125 -13.375 
Q 36.625 -13.375 41.015625 -8.765625 
Q 45.40625 -4.15625 45.40625 5.171875 
L 45.40625 9.625 
Q 42.625 4.78125 38.28125 2.390625 
Q 33.9375 0 27.875 0 
Q 17.828125 0 11.671875 7.65625 
Q 5.515625 15.328125 5.515625 27.984375 
Q 5.515625 40.671875 11.671875 48.328125 
Q 17.828125 56 27.875 56 
Q 33.9375 56 38.28125 53.609375 
Q 42.625 51.21875 45.40625 46.390625 
L 45.40625 54.6875 
L 54.390625 54.6875 
z
" id="BitstreamVeraSans-Roman-67"/>
      <path d="M 52 44.1875 
Q 55.375 50.25 60.0625 53.125 
Q 64.75 56 71.09375 56 
Q 79.640625 56 84.28125 50.015625 
Q 88.921875 44.046875 88.921875 33.015625 
L 88.921875 0 
L 79.890625 0 
L 79.890625 32.71875 
Q 79.890625 40.578125 77.09375 44.375 
Q 74.3125 48.1875 68.609375 48.1875 
Q 61.625 48.1875 57.5625 43.546875 
Q 53.515625 38.921875 53.515625 30.90625 
L 53.515625 0 
L 44.484375 0 
L 44.484375 32.71875 
Q 44.484375 40.625 41.703125 44.40625 
Q 38.921875 48.1875 33.109375 48.1875 
Q 26.21875 48.1875 22.15625 43.53125 
Q 18.109375 38.875 18.109375 30.90625 
L 18.109375 0 
L 9.078125 0 
L 9.078125 54.6875 
L 18.109375 54.6875 
L 18.109375 46.1875 
Q 21.1875 51.21875 25.484375 53.609375 
Q 29.78125 56 35.6875 56 
Q 41.65625 56 45.828125 52.96875 
Q 50 49.953125 52 44.1875 
" id="BitstreamVeraSans-Roman-6d"/>
      <path d="M 2.984375 54.6875 
L 12.5 54.6875 
L 29.59375 8.796875 
L 46.6875 54.6875 
L 56.203125 54.6875 
L 35.6875 0 
L 23.484375 0 
z
" id="BitstreamVeraSans-Roman-76"/>
      <path d="M 32.171875 -5.078125 
Q 28.375 -14.84375 24.75 -17.8125 
Q 21.140625 -20.796875 15.09375 -20.796875 
L 7.90625 -20.796875 
L 7.90625 -13.28125 
L 13.1875 -13.28125 
Q 16.890625 -13.28125 18.9375 -11.515625 
Q 21 -9.765625 23.484375 -3.21875 
L 25.09375 0.875 
L 2.984375 54.6875 
L 12.5 54.6875 
L 29.59375 11.921875 
L 46.6875 54.6875 
L 56.203125 54.6875 
z
" id="BitstreamVeraSans-Roman-79"/>
     </defs>
     <g transform="translate(18.14175 274.302725)rotate(-90.0)scale(0.144 -0.144)">
      <use xlink:href="#BitstreamVeraSans-Roman-52"/>
      <use x="69.451171875" xlink:href="#BitstreamVeraSans-Roman-61"/>
      <use x="130.73046875" xlink:href="#BitstreamVeraSans-Roman-6e"/>
      <use x="194.109375" xlink:href="#BitstreamVeraSans-Roman-64"/>
      <use x="257.5859375" xlink:href="#BitstreamVeraSans-Roman-6f"/>
      <use x="318.767578125" xlink:href="#BitstreamVeraSans-Roman-6d"/>
      <use x="416.1796875" xlink:href="#BitstreamVeraSans-Roman-20"/>
      <use x="447.966796875" xlink:href="#BitstreamVeraSans-Roman-62"/>
      <use x="511.443359375" xlink:href="#BitstreamVeraSans-Roman-75"/>
      <use x="574.822265625" xlink:href="#BitstreamVeraSans-Roman-74"/>
      <use x="614.03125" xlink:href="#BitstreamVeraSans-Roman-20"/>
      <use x="645.818359375" xlink:href="#BitstreamVeraSans-Roman-64"/>
      <use x="709.294921875" xlink:href="#BitstreamVeraSans-Roman-65"/>
      <use x="770.818359375" xlink:href="#BitstreamVeraSans-Roman-63"/>
      <use x="825.798828125" xlink:href="#BitstreamVeraSans-Roman-61"/>
      <use x="887.078125" xlink:href="#BitstreamVeraSans-Roman-79"/>
      <use x="946.2578125" xlink:href="#BitstreamVeraSans-Roman-69"/>
      <use x="974.041015625" xlink:href="#BitstreamVeraSans-Roman-6e"/>
      <use x="1037.419921875" xlink:href="#BitstreamVeraSans-Roman-67"/>
      <use x="1100.896484375" xlink:href="#BitstreamVeraSans-Roman-20"/>
      <use x="1132.68359375" xlink:href="#BitstreamVeraSans-Roman-76"/>
      <use x="1191.86328125" xlink:href="#BitstreamVeraSans-Roman-61"/>
      <use x="1253.142578125" xlink:href="#BitstreamVeraSans-Roman-6c"/>
      <use x="1280.92578125" xlink:href="#BitstreamVeraSans-Roman-75"/>
      <use x="1344.3046875" xlink:href="#BitstreamVeraSans-Roman-65"/>
      <use x="1405.828125" xlink:href="#BitstreamVeraSans-Roman-73"/>
     </g>
    </g>
   </g>
   <g id="text_14">
    <!-- Qualitatively Different Lines -->
    <defs>
     <path d="M 9.8125 72.90625 
L 19.671875 72.90625 
L 19.671875 8.296875 
L 55.171875 8.296875 
L 55.171875 0 
L 9.8125 0 
z
" id="BitstreamVeraSans-Roman-4c"/>
     <path d="M 41.109375 46.296875 
Q 39.59375 47.171875 37.8125 47.578125 
Q 36.03125 48 33.890625 48 
Q 26.265625 48 22.1875 43.046875 
Q 18.109375 38.09375 18.109375 28.8125 
L 18.109375 0 
L 9.078125 0 
L 9.078125 54.6875 
L 18.109375 54.6875 
L 18.109375 46.1875 
Q 20.953125 51.171875 25.484375 53.578125 
Q 30.03125 56 36.53125 56 
Q 37.453125 56 38.578125 55.875 
Q 39.703125 55.765625 41.0625 55.515625 
z
" id="BitstreamVeraSans-Roman-72"/>
     <path d="M 19.671875 64.796875 
L 19.671875 8.109375 
L 31.59375 8.109375 
Q 46.6875 8.109375 53.6875 14.9375 
Q 60.6875 21.78125 60.6875 36.53125 
Q 60.6875 51.171875 53.6875 57.984375 
Q 46.6875 64.796875 31.59375 64.796875 
z
M 9.8125 72.90625 
L 30.078125 72.90625 
Q 51.265625 72.90625 61.171875 64.09375 
Q 71.09375 55.28125 71.09375 36.53125 
Q 71.09375 17.671875 61.125 8.828125 
Q 51.171875 0 30.078125 0 
L 9.8125 0 
z
" id="BitstreamVeraSans-Roman-44"/>
     <path d="M 37.109375 75.984375 
L 37.109375 68.5 
L 28.515625 68.5 
Q 23.6875 68.5 21.796875 66.546875 
Q 19.921875 64.59375 19.921875 59.515625 
L 19.921875 54.6875 
L 34.71875 54.6875 
L 34.71875 47.703125 
L 19.921875 47.703125 
L 19.921875 0 
L 10.890625 0 
L 10.890625 47.703125 
L 2.296875 47.703125 
L 2.296875 54.6875 
L 10.890625 54.6875 
L 10.890625 58.5 
Q 10.890625 67.625 15.140625 71.796875 
Q 19.390625 75.984375 28.609375 75.984375 
z
" id="BitstreamVeraSans-Roman-66"/>
     <path d="M 39.40625 66.21875 
Q 28.65625 66.21875 22.328125 58.203125 
Q 16.015625 50.203125 16.015625 36.375 
Q 16.015625 22.609375 22.328125 14.59375 
Q 28.65625 6.59375 39.40625 6.59375 
Q 50.140625 6.59375 56.421875 14.59375 
Q 62.703125 22.609375 62.703125 36.375 
Q 62.703125 50.203125 56.421875 58.203125 
Q 50.140625 66.21875 39.40625 66.21875 
M 53.21875 1.3125 
L 66.21875 -12.890625 
L 54.296875 -12.890625 
L 43.5 -1.21875 
Q 41.890625 -1.3125 41.03125 -1.359375 
Q 40.1875 -1.421875 39.40625 -1.421875 
Q 24.03125 -1.421875 14.8125 8.859375 
Q 5.609375 19.140625 5.609375 36.375 
Q 5.609375 53.65625 14.8125 63.9375 
Q 24.03125 74.21875 39.40625 74.21875 
Q 54.734375 74.21875 63.90625 63.9375 
Q 73.09375 53.65625 73.09375 36.375 
Q 73.09375 23.6875 67.984375 14.640625 
Q 62.890625 5.609375 53.21875 1.3125 
" id="BitstreamVeraSans-Roman-51"/>
    </defs>
    <g transform="translate(151.45485 20.3301)scale(0.1728 -0.1728)">
     <use xlink:href="#BitstreamVeraSans-Roman-51"/>
     <use x="78.7109375" xlink:href="#BitstreamVeraSans-Roman-75"/>
     <use x="142.08984375" xlink:href="#BitstreamVeraSans-Roman-61"/>
     <use x="203.369140625" xlink:href="#BitstreamVeraSans-Roman-6c"/>
     <use x="231.15234375" xlink:href="#BitstreamVeraSans-Roman-69"/>
     <use x="258.935546875" xlink:href="#BitstreamVeraSans-Roman-74"/>
     <use x="298.14453125" xlink:href="#BitstreamVeraSans-Roman-61"/>
     <use x="359.423828125" xlink:href="#BitstreamVeraSans-Roman-74"/>
     <use x="398.6328125" xlink:href="#BitstreamVeraSans-Roman-69"/>
     <use x="426.416015625" xlink:href="#BitstreamVeraSans-Roman-76"/>
     <use x="485.595703125" xlink:href="#BitstreamVeraSans-Roman-65"/>
     <use x="547.119140625" xlink:href="#BitstreamVeraSans-Roman-6c"/>
     <use x="574.90234375" xlink:href="#BitstreamVeraSans-Roman-79"/>
     <use x="634.08203125" xlink:href="#BitstreamVeraSans-Roman-20"/>
     <use x="665.869140625" xlink:href="#BitstreamVeraSans-Roman-44"/>
     <use x="742.87109375" xlink:href="#BitstreamVeraSans-Roman-69"/>
     <use x="770.654296875" xlink:href="#BitstreamVeraSans-Roman-66"/>
     <use x="805.859375" xlink:href="#BitstreamVeraSans-Roman-66"/>
     <use x="841.064453125" xlink:href="#BitstreamVeraSans-Roman-65"/>
     <use x="902.587890625" xlink:href="#BitstreamVeraSans-Roman-72"/>
     <use x="943.669921875" xlink:href="#BitstreamVeraSans-Roman-65"/>
     <use x="1005.193359375" xlink:href="#BitstreamVeraSans-Roman-6e"/>
     <use x="1068.572265625" xlink:href="#BitstreamVeraSans-Roman-74"/>
     <use x="1107.78125" xlink:href="#BitstreamVeraSans-Roman-20"/>
     <use x="1139.568359375" xlink:href="#BitstreamVeraSans-Roman-4c"/>
     <use x="1195.28125" xlink:href="#BitstreamVeraSans-Roman-69"/>
     <use x="1223.064453125" xlink:href="#BitstreamVeraSans-Roman-6e"/>
     <use x="1286.443359375" xlink:href="#BitstreamVeraSans-Roman-65"/>
     <use x="1347.966796875" xlink:href="#BitstreamVeraSans-Roman-73"/>
    </g>
   </g>
   <g id="legend_1">
    <g id="patch_7">
     <path d="M 56.21745 308.3321 
L 115.173546 308.3321 
Q 117.172746 308.3321 117.172746 306.3329 
L 117.172746 189.95447 
Q 117.172746 187.95527 115.173546 187.95527 
L 56.21745 187.95527 
Q 54.21825 187.95527 54.21825 189.95447 
L 54.21825 306.3329 
Q 54.21825 308.3321 56.21745 308.3321 
z
" style="fill:#ffffff;opacity:0.8;stroke:#000000;stroke-linejoin:miter;stroke-width:0.5;"/>
    </g>
    <g id="line2d_31">
     <path d="M 61.21545 196.050468 
L 75.20985 196.050468 
" style="fill:none;stroke:#e41a1c;stroke-linecap:square;stroke-width:2.0;"/>
    </g>
    <g id="line2d_32"/>
    <g id="text_15">
     <!-- Label -->
     <g transform="translate(86.20545 199.549068125)scale(0.09996 -0.09996)">
      <use xlink:href="#BitstreamVeraSans-Roman-4c"/>
      <use x="55.712890625" xlink:href="#BitstreamVeraSans-Roman-61"/>
      <use x="116.9921875" xlink:href="#BitstreamVeraSans-Roman-62"/>
      <use x="180.46875" xlink:href="#BitstreamVeraSans-Roman-65"/>
      <use x="241.9921875" xlink:href="#BitstreamVeraSans-Roman-6c"/>
     </g>
    </g>
    <g id="line2d_33">
     <path d="M 61.21545 210.722722 
L 75.20985 210.722722 
" style="fill:none;stroke:#377eb8;stroke-linecap:square;stroke-width:2.0;"/>
    </g>
    <g id="line2d_34"/>
    <g id="text_16">
     <!-- Label -->
     <g transform="translate(86.20545 214.221321875)scale(0.09996 -0.09996)">
      <use xlink:href="#BitstreamVeraSans-Roman-4c"/>
      <use x="55.712890625" xlink:href="#BitstreamVeraSans-Roman-61"/>
      <use x="116.9921875" xlink:href="#BitstreamVeraSans-Roman-62"/>
      <use x="180.46875" xlink:href="#BitstreamVeraSans-Roman-65"/>
      <use x="241.9921875" xlink:href="#BitstreamVeraSans-Roman-6c"/>
     </g>
    </g>
    <g id="line2d_35">
     <path d="M 61.21545 225.394976 
L 75.20985 225.394976 
" style="fill:none;stroke:#4daf4a;stroke-linecap:square;stroke-width:2.0;"/>
    </g>
    <g id="line2d_36"/>
    <g id="text_17">
     <!-- Label -->
     <g transform="translate(86.20545 228.893575625)scale(0.09996 -0.09996)">
      <use xlink:href="#BitstreamVeraSans-Roman-4c"/>
      <use x="55.712890625" xlink:href="#BitstreamVeraSans-Roman-61"/>
      <use x="116.9921875" xlink:href="#BitstreamVeraSans-Roman-62"/>
      <use x="180.46875" xlink:href="#BitstreamVeraSans-Roman-65"/>
      <use x="241.9921875" xlink:href="#BitstreamVeraSans-Roman-6c"/>
     </g>
    </g>
    <g id="line2d_37">
     <path d="M 61.21545 240.067229 
L 75.20985 240.067229 
" style="fill:none;stroke:#984ea3;stroke-linecap:square;stroke-width:2.0;"/>
    </g>
    <g id="line2d_38"/>
    <g id="text_18">
     <!-- Label -->
     <g transform="translate(86.20545 243.565829375)scale(0.09996 -0.09996)">
      <use xlink:href="#BitstreamVeraSans-Roman-4c"/>
      <use x="55.712890625" xlink:href="#BitstreamVeraSans-Roman-61"/>
      <use x="116.9921875" xlink:href="#BitstreamVeraSans-Roman-62"/>
      <use x="180.46875" xlink:href="#BitstreamVeraSans-Roman-65"/>
      <use x="241.9921875" xlink:href="#BitstreamVeraSans-Roman-6c"/>
     </g>
    </g>
    <g id="line2d_39">
     <path d="M 61.21545 254.739483 
L 75.20985 254.739483 
" style="fill:none;stroke:#ff7f00;stroke-linecap:square;stroke-width:2.0;"/>
    </g>
    <g id="line2d_40"/>
    <g id="text_19">
     <!-- Label -->
     <g transform="translate(86.20545 258.238083125)scale(0.09996 -0.09996)">
      <use xlink:href="#BitstreamVeraSans-Roman-4c"/>
      <use x="55.712890625" xlink:href="#BitstreamVeraSans-Roman-61"/>
      <use x="116.9921875" xlink:href="#BitstreamVeraSans-Roman-62"/>
      <use x="180.46875" xlink:href="#BitstreamVeraSans-Roman-65"/>
      <use x="241.9921875" xlink:href="#BitstreamVeraSans-Roman-6c"/>
     </g>
    </g>
    <g id="line2d_41">
     <path d="M 61.21545 269.411737 
L 75.20985 269.411737 
" style="fill:none;stroke:#a65628;stroke-linecap:square;stroke-width:2.0;"/>
    </g>
    <g id="line2d_42"/>
    <g id="text_20">
     <!-- Label -->
     <g transform="translate(86.20545 272.910336875)scale(0.09996 -0.09996)">
      <use xlink:href="#BitstreamVeraSans-Roman-4c"/>
      <use x="55.712890625" xlink:href="#BitstreamVeraSans-Roman-61"/>
      <use x="116.9921875" xlink:href="#BitstreamVeraSans-Roman-62"/>
      <use x="180.46875" xlink:href="#BitstreamVeraSans-Roman-65"/>
      <use x="241.9921875" xlink:href="#BitstreamVeraSans-Roman-6c"/>
     </g>
    </g>
    <g id="line2d_43">
     <path d="M 61.21545 284.083991 
L 75.20985 284.083991 
" style="fill:none;stroke:#f781bf;stroke-linecap:square;stroke-width:2.0;"/>
    </g>
    <g id="line2d_44"/>
    <g id="text_21">
     <!-- Label -->
     <g transform="translate(86.20545 287.582590625)scale(0.09996 -0.09996)">
      <use xlink:href="#BitstreamVeraSans-Roman-4c"/>
      <use x="55.712890625" xlink:href="#BitstreamVeraSans-Roman-61"/>
      <use x="116.9921875" xlink:href="#BitstreamVeraSans-Roman-62"/>
      <use x="180.46875" xlink:href="#BitstreamVeraSans-Roman-65"/>
      <use x="241.9921875" xlink:href="#BitstreamVeraSans-Roman-6c"/>
     </g>
    </g>
    <g id="line2d_45">
     <path d="M 61.21545 298.756244 
L 75.20985 298.756244 
" style="fill:none;stroke:#999999;stroke-linecap:square;stroke-width:2.0;"/>
    </g>
    <g id="line2d_46"/>
    <g id="text_22">
     <!-- Label -->
     <g transform="translate(86.20545 302.254844375)scale(0.09996 -0.09996)">
      <use xlink:href="#BitstreamVeraSans-Roman-4c"/>
      <use x="55.712890625" xlink:href="#BitstreamVeraSans-Roman-61"/>
      <use x="116.9921875" xlink:href="#BitstreamVeraSans-Roman-62"/>
      <use x="180.46875" xlink:href="#BitstreamVeraSans-Roman-65"/>
      <use x="241.9921875" xlink:href="#BitstreamVeraSans-Roman-6c"/>
     </g>
    </g>
   </g>
  </g>
 </g>
 <defs>
  <clipPath id="p0feb78dad5">
   <rect height="288.0" width="446.4" x="49.22025" y="25.3301"/>
  </clipPath>
 </defs>
</svg>
