<?xml version="1.0" encoding="utf-8" standalone="no"?>
<!DOCTYPE svg PUBLIC "-//W3C//DTD SVG 1.1//EN"
  "http://www.w3.org/Graphics/SVG/1.1/DTD/svg11.dtd">
<!-- Created with matplotlib (http://matplotlib.org/) -->
<svg height="355pt" version="1.1" viewBox="0 0 510 355" width="510pt" xmlns="http://www.w3.org/2000/svg" xmlns:xlink="http://www.w3.org/1999/xlink">
 <defs>
  <style type="text/css">
*{stroke-linecap:butt;stroke-linejoin:round;stroke-miterlimit:100000;}
  </style>
 </defs>
 <g id="figure_1">
  <g id="patch_1">
   <path d="M 0 355.08035 
L 510.45525 355.08035 
L 510.45525 0 
L 0 0 
z
" style="fill:#ffffff;"/>
  </g>
  <g id="axes_1">
   <g id="patch_2">
    <path d="M 49.22025 313.3301 
L 495.62025 313.3301 
L 495.62025 25.3301 
L 49.22025 25.3301 
z
" style="fill:#ffffff;"/>
   </g>
   <g id="line2d_1">
    <path clip-path="url(#pf607d164aa)" d="M 49.22025 26.565824 
L 50.713227 26.942142 
L 52.206203 26.720876 
L 53.69918 27.507853 
L 55.192156 26.597362 
L 56.685133 26.787823 
L 58.17811 26.711632 
L 59.671086 26.466059 
L 61.164063 27.611804 
L 62.657039 27.139721 
L 64.150016 28.6637 
L 65.642992 27.264693 
L 67.135969 27.825399 
L 68.628946 29.032003 
L 70.121922 27.814725 
L 71.614899 29.184804 
L 73.107875 28.508063 
L 74.600852 27.037453 
L 76.093829 29.335848 
L 77.586805 29.275805 
L 79.079782 29.404429 
L 80.572758 30.404018 
L 82.065735 29.56522 
L 85.051688 33.671873 
L 86.544665 32.803463 
L 88.037641 32.573047 
L 89.530618 30.669256 
L 91.023594 33.333261 
L 92.516571 31.095772 
L 94.009548 41.982522 
L 95.502524 30.888466 
L 98.488477 43.220123 
L 99.981454 34.159508 
L 101.474431 36.666113 
L 102.967407 41.327413 
L 104.460384 48.614948 
L 105.95336 53.925775 
L 107.446337 35.331845 
L 108.939314 45.365268 
L 110.43229 41.993573 
L 111.925267 59.13685 
L 113.418243 44.674319 
L 114.91122 44.034327 
L 116.404196 42.108879 
L 117.897173 53.189357 
L 119.39015 61.049271 
L 120.883126 51.810577 
L 122.376103 60.688326 
L 123.869079 65.040467 
L 125.362056 66.007946 
L 126.855033 72.299002 
L 128.348009 71.725955 
L 129.840986 74.492461 
L 131.333962 50.708538 
L 132.826939 61.463618 
L 134.319916 78.317123 
L 135.812892 84.89237 
L 137.305869 88.481904 
L 138.798845 110.109368 
L 140.291822 74.491941 
L 143.277775 103.882427 
L 144.770752 170.336679 
L 146.263728 103.063321 
L 147.756705 175.085153 
L 149.249681 124.866037 
L 150.742658 140.239378 
L 152.235635 96.133312 
L 153.728611 169.732831 
L 155.221588 230.037008 
L 156.714564 138.423916 
L 158.207541 203.778893 
L 159.700518 160.07478 
L 161.193494 196.898462 
L 162.686471 248.722977 
L 164.179447 223.4 
L 165.672424 229.195701 
L 167.165401 199.609733 
L 168.658377 246.563826 
L 170.151354 171.551554 
L 171.64433 243.512961 
L 173.137307 221.459644 
L 174.630283 234.413396 
L 176.12326 190.543444 
L 177.616237 258.567396 
L 179.109213 264.779339 
L 180.60219 284.62536 
L 182.095166 299.099407 
L 183.588143 293.439714 
L 185.08112 302.498089 
L 186.574096 261.98754 
L 188.067073 297.150385 
L 189.560049 297.762688 
L 191.053026 308.829311 
L 192.546003 312.964541 
L 194.038979 310.037818 
L 195.531956 305.473617 
L 197.024932 311.735815 
L 198.517909 312.735992 
L 200.010885 306.460251 
L 201.503862 313.233724 
L 202.996839 307.156249 
L 204.489815 308.836553 
L 205.982792 313.298208 
L 208.968745 313.297186 
L 210.461722 313.154708 
L 211.954698 308.67484 
L 213.447675 313.314911 
L 214.940651 312.603836 
L 216.433628 313.27226 
L 223.898511 313.330097 
L 438.88714 313.3301 
L 495.62025 313.3301 
L 495.62025 313.3301 
" style="fill:none;stroke:#e41a1c;stroke-linecap:square;stroke-width:2.0;"/>
   </g>
   <g id="line2d_2">
    <path clip-path="url(#pf607d164aa)" d="M 49.22025 25.582776 
L 52.206203 25.53471 
L 53.69918 25.65616 
L 55.192156 25.549973 
L 59.671086 25.684731 
L 61.164063 25.853081 
L 62.657039 25.775986 
L 65.642992 25.969697 
L 67.135969 25.770711 
L 68.628946 25.845791 
L 70.121922 26.496631 
L 71.614899 26.081471 
L 73.107875 25.790525 
L 74.600852 26.369339 
L 77.586805 26.281433 
L 79.079782 26.440949 
L 80.572758 26.241167 
L 82.065735 26.244716 
L 83.558712 26.564435 
L 85.051688 26.242156 
L 86.544665 26.476185 
L 88.037641 27.28537 
L 89.530618 26.972823 
L 91.023594 26.410797 
L 92.516571 26.830225 
L 94.009548 26.456613 
L 96.995501 26.558891 
L 98.488477 28.086974 
L 99.981454 29.965054 
L 101.474431 27.793641 
L 102.967407 26.965964 
L 104.460384 27.783417 
L 105.95336 29.183924 
L 107.446337 27.508341 
L 108.939314 29.005747 
L 110.43229 28.30523 
L 113.418243 30.911783 
L 114.91122 31.387361 
L 116.404196 28.391423 
L 117.897173 28.804759 
L 119.39015 36.469377 
L 120.883126 30.279731 
L 122.376103 30.583177 
L 123.869079 36.001389 
L 125.362056 31.123894 
L 126.855033 34.122451 
L 128.348009 33.990149 
L 129.840986 43.488978 
L 131.333962 33.979815 
L 132.826939 39.745684 
L 134.319916 37.130271 
L 135.812892 36.785527 
L 137.305869 43.385075 
L 138.798845 44.766658 
L 140.291822 40.533861 
L 141.784798 45.086347 
L 143.277775 43.12233 
L 144.770752 47.581724 
L 146.263728 44.747228 
L 147.756705 40.095285 
L 149.249681 42.964108 
L 150.742658 54.567068 
L 152.235635 58.940777 
L 153.728611 50.251567 
L 155.221588 68.082036 
L 156.714564 47.999369 
L 158.207541 48.806702 
L 159.700518 56.797215 
L 161.193494 51.050526 
L 162.686471 51.812092 
L 164.179447 55.460915 
L 165.672424 57.897924 
L 167.165401 84.639815 
L 168.658377 64.718498 
L 170.151354 103.732023 
L 171.64433 87.818689 
L 173.137307 64.25713 
L 174.630283 75.977678 
L 176.12326 113.265589 
L 177.616237 94.198738 
L 179.109213 102.472455 
L 180.60219 106.264636 
L 182.095166 94.181176 
L 183.588143 130.595116 
L 185.08112 94.479914 
L 186.574096 148.956309 
L 188.067073 145.122072 
L 189.560049 162.765925 
L 191.053026 126.850954 
L 192.546003 136.93293 
L 194.038979 144.997139 
L 195.531956 177.179747 
L 197.024932 161.133917 
L 198.517909 181.050907 
L 200.010885 166.669111 
L 201.503862 185.354693 
L 202.996839 198.470579 
L 204.489815 201.768604 
L 205.982792 194.571065 
L 207.475768 245.495101 
L 208.968745 227.717082 
L 210.461722 266.329451 
L 211.954698 186.766732 
L 213.447675 264.723206 
L 214.940651 281.238232 
L 216.433628 199.213325 
L 217.926605 261.359063 
L 219.419581 211.254493 
L 220.912558 236.517811 
L 222.405534 214.494035 
L 223.898511 270.442706 
L 225.391487 226.239716 
L 226.884464 274.96826 
L 228.377441 295.585997 
L 229.870417 247.199549 
L 231.363394 302.550244 
L 232.85637 308.020715 
L 234.349347 308.560185 
L 235.842324 285.297055 
L 237.3353 308.453339 
L 238.828277 300.424342 
L 240.321253 287.233333 
L 241.81423 308.839827 
L 243.307207 304.041646 
L 244.800183 305.216632 
L 246.29316 308.826579 
L 247.786136 311.452719 
L 249.279113 312.092965 
L 250.772089 311.371198 
L 252.265066 313.260893 
L 253.758043 312.682202 
L 255.251019 312.754973 
L 256.743996 310.623615 
L 258.236972 313.306263 
L 259.729949 313.123115 
L 261.222926 313.330096 
L 262.715902 313.327612 
L 264.208879 310.620765 
L 265.701855 312.120606 
L 267.194832 313.328975 
L 271.673762 313.299147 
L 276.152691 313.328804 
L 404.548678 313.3301 
L 495.62025 313.3301 
L 495.62025 313.3301 
" style="fill:none;stroke:#377eb8;stroke-linecap:square;stroke-width:2.0;"/>
   </g>
   <g id="line2d_3">
    <path clip-path="url(#pf607d164aa)" d="M 49.22025 25.373438 
L 50.713227 25.424195 
L 52.206203 25.379659 
L 61.164063 25.449596 
L 73.107875 25.557327 
L 76.093829 25.573655 
L 79.079782 25.602569 
L 80.572758 25.723221 
L 83.558712 25.529278 
L 85.051688 25.681796 
L 88.037641 25.614897 
L 89.530618 25.844648 
L 91.023594 25.773924 
L 92.516571 26.078827 
L 95.502524 25.874723 
L 96.995501 25.903906 
L 98.488477 26.144182 
L 99.981454 25.78522 
L 101.474431 26.145166 
L 102.967407 25.913017 
L 104.460384 26.287938 
L 105.95336 26.471425 
L 107.446337 26.540886 
L 108.939314 26.438848 
L 110.43229 26.817941 
L 111.925267 26.854252 
L 113.418243 27.020352 
L 114.91122 26.511403 
L 116.404196 26.460233 
L 117.897173 26.65418 
L 119.39015 26.47952 
L 120.883126 26.911014 
L 122.376103 26.732729 
L 123.869079 27.009755 
L 125.362056 29.302942 
L 126.855033 27.620325 
L 128.348009 27.856561 
L 129.840986 29.26194 
L 131.333962 29.331456 
L 132.826939 29.252222 
L 134.319916 29.001737 
L 135.812892 30.34432 
L 137.305869 29.558287 
L 138.798845 30.047899 
L 140.291822 29.406421 
L 141.784798 34.511484 
L 143.277775 34.067472 
L 144.770752 33.809856 
L 146.263728 32.785394 
L 147.756705 33.817373 
L 149.249681 33.598582 
L 150.742658 35.44698 
L 152.235635 33.789044 
L 153.728611 34.916743 
L 155.221588 32.725778 
L 156.714564 37.051618 
L 158.207541 34.372911 
L 159.700518 34.933956 
L 161.193494 38.935829 
L 162.686471 40.381242 
L 164.179447 35.824943 
L 165.672424 36.708281 
L 167.165401 41.280989 
L 168.658377 40.072004 
L 170.151354 58.804203 
L 171.64433 49.482493 
L 173.137307 50.34451 
L 174.630283 51.55392 
L 176.12326 59.304744 
L 177.616237 52.916949 
L 179.109213 79.954665 
L 180.60219 76.177767 
L 182.095166 56.201737 
L 183.588143 61.157926 
L 185.08112 68.237535 
L 186.574096 78.123245 
L 188.067073 64.091029 
L 189.560049 69.053374 
L 191.053026 83.272156 
L 192.546003 81.836434 
L 194.038979 89.754818 
L 195.531956 71.534737 
L 197.024932 88.133137 
L 198.517909 133.681785 
L 200.010885 100.529756 
L 201.503862 109.893432 
L 202.996839 109.842155 
L 204.489815 102.3827 
L 205.982792 154.254619 
L 207.475768 184.79997 
L 208.968745 121.617251 
L 210.461722 151.994482 
L 211.954698 117.790624 
L 213.447675 129.640072 
L 214.940651 145.242585 
L 216.433628 170.973896 
L 217.926605 143.578682 
L 219.419581 180.820392 
L 220.912558 191.87773 
L 222.405534 187.551305 
L 223.898511 155.237439 
L 225.391487 166.528091 
L 226.884464 187.582787 
L 228.377441 188.231633 
L 229.870417 214.886769 
L 231.363394 165.429946 
L 232.85637 229.937172 
L 234.349347 268.461082 
L 235.842324 212.956756 
L 237.3353 281.130982 
L 238.828277 246.261796 
L 240.321253 251.66977 
L 243.307207 281.399561 
L 244.800183 216.829499 
L 246.29316 301.626495 
L 247.786136 270.582566 
L 249.279113 305.458624 
L 250.772089 306.315252 
L 252.265066 302.307219 
L 253.758043 305.669598 
L 255.251019 299.821693 
L 256.743996 295.603389 
L 258.236972 311.426929 
L 259.729949 313.241914 
L 261.222926 308.844623 
L 262.715902 313.3282 
L 264.208879 310.070911 
L 265.701855 313.269217 
L 267.194832 308.28408 
L 268.687809 313.084929 
L 270.180785 313.32699 
L 271.673762 312.256273 
L 273.166738 313.30625 
L 276.152691 313.261399 
L 277.645668 313.079922 
L 279.138645 312.647132 
L 280.631621 313.327173 
L 355.280451 313.3301 
L 495.62025 313.3301 
L 495.62025 313.3301 
" style="fill:none;stroke:#4daf4a;stroke-linecap:square;stroke-width:2.0;"/>
   </g>
   <g id="line2d_4">
    <path clip-path="url(#pf607d164aa)" d="M 49.22025 25.342388 
L 95.502524 25.391922 
L 96.995501 25.506031 
L 105.95336 25.587686 
L 107.446337 25.634196 
L 108.939314 25.476855 
L 113.418243 25.662324 
L 114.91122 25.555232 
L 116.404196 25.583629 
L 117.897173 25.804213 
L 119.39015 25.642707 
L 120.883126 25.843496 
L 125.362056 25.715695 
L 126.855033 26.042138 
L 128.348009 25.75366 
L 129.840986 26.210917 
L 131.333962 25.883719 
L 132.826939 26.114742 
L 134.319916 25.864758 
L 135.812892 26.227218 
L 138.798845 26.367383 
L 140.291822 26.524424 
L 141.784798 26.122557 
L 143.277775 26.43264 
L 144.770752 26.490143 
L 146.263728 27.214776 
L 147.756705 26.005136 
L 149.249681 26.983176 
L 150.742658 26.756745 
L 152.235635 26.844815 
L 153.728611 27.164961 
L 155.221588 26.436413 
L 159.700518 26.747874 
L 161.193494 27.865672 
L 162.686471 27.190099 
L 164.179447 27.548938 
L 165.672424 27.73595 
L 167.165401 27.673785 
L 168.658377 28.818659 
L 170.151354 28.06005 
L 171.64433 30.147519 
L 173.137307 31.433935 
L 174.630283 28.247711 
L 176.12326 28.968353 
L 177.616237 31.149135 
L 179.109213 29.895633 
L 180.60219 30.746709 
L 182.095166 30.988973 
L 183.588143 33.207035 
L 185.08112 33.766705 
L 186.574096 30.83475 
L 188.067073 30.726138 
L 189.560049 31.143955 
L 191.053026 33.390773 
L 192.546003 38.455793 
L 194.038979 34.292859 
L 197.024932 37.215987 
L 198.517909 36.575543 
L 200.010885 39.238066 
L 201.503862 31.694501 
L 202.996839 39.183211 
L 204.489815 41.277534 
L 205.982792 45.067332 
L 207.475768 45.530678 
L 208.968745 42.180553 
L 210.461722 50.12847 
L 211.954698 39.922139 
L 213.447675 39.33595 
L 214.940651 40.743874 
L 216.433628 47.731153 
L 217.926605 52.533581 
L 219.419581 52.295432 
L 220.912558 45.111593 
L 222.405534 66.94602 
L 223.898511 57.344113 
L 225.391487 60.271527 
L 226.884464 55.750663 
L 228.377441 61.063717 
L 229.870417 67.795334 
L 231.363394 79.736599 
L 232.85637 57.059325 
L 234.349347 64.100835 
L 235.842324 72.901318 
L 237.3353 70.667625 
L 238.828277 65.723578 
L 240.321253 89.269481 
L 241.81423 72.084245 
L 243.307207 91.957768 
L 244.800183 93.862253 
L 246.29316 135.03338 
L 247.786136 116.460941 
L 249.279113 104.238029 
L 250.772089 87.841829 
L 252.265066 103.199726 
L 253.758043 140.073976 
L 255.251019 98.4948 
L 256.743996 153.427536 
L 258.236972 148.116007 
L 259.729949 151.012012 
L 261.222926 162.621496 
L 262.715902 175.879787 
L 264.208879 120.622164 
L 265.701855 201.465427 
L 267.194832 141.639416 
L 268.687809 194.897127 
L 270.180785 182.153326 
L 271.673762 204.343586 
L 273.166738 210.652658 
L 274.659715 172.965555 
L 276.152691 189.984168 
L 277.645668 238.290632 
L 279.138645 190.346979 
L 280.631621 210.092519 
L 282.124598 277.016956 
L 283.617574 228.684014 
L 285.110551 283.171471 
L 286.603528 219.333661 
L 288.096504 236.274034 
L 289.589481 249.709486 
L 291.082457 262.05377 
L 292.575434 302.239131 
L 294.068411 307.220431 
L 295.561387 299.510097 
L 297.054364 274.647026 
L 298.54734 301.082298 
L 300.040317 310.001355 
L 301.533293 304.856239 
L 303.02627 305.654948 
L 306.012223 300.428541 
L 307.5052 296.276755 
L 308.998176 304.157559 
L 310.491153 308.742265 
L 311.98413 312.961672 
L 313.477106 312.608288 
L 314.970083 310.080872 
L 316.463059 312.633378 
L 317.956036 312.319555 
L 319.449013 313.2994 
L 320.941989 313.178333 
L 323.927942 313.329388 
L 325.420919 313.143354 
L 326.913895 313.329806 
L 332.885802 313.287432 
L 337.364732 313.329853 
L 495.62025 313.3301 
L 495.62025 313.3301 
" style="fill:none;stroke:#984ea3;stroke-linecap:square;stroke-width:2.0;"/>
   </g>
   <g id="line2d_5">
    <path clip-path="url(#pf607d164aa)" d="M 49.22025 25.333707 
L 114.91122 25.395112 
L 117.897173 25.423885 
L 135.812892 25.504215 
L 141.784798 25.542805 
L 143.277775 25.505293 
L 144.770752 25.686669 
L 146.263728 25.676472 
L 147.756705 25.552503 
L 155.221588 25.776361 
L 156.714564 26.279459 
L 158.207541 25.819131 
L 159.700518 25.727157 
L 161.193494 25.999948 
L 162.686471 25.839397 
L 165.672424 26.306142 
L 167.165401 25.795684 
L 168.658377 26.144481 
L 170.151354 26.006139 
L 171.64433 26.11613 
L 173.137307 26.004381 
L 174.630283 27.160015 
L 176.12326 26.212552 
L 177.616237 26.450589 
L 179.109213 27.468303 
L 180.60219 26.205744 
L 182.095166 26.729616 
L 183.588143 27.616961 
L 185.08112 27.408146 
L 186.574096 27.484991 
L 188.067073 27.820725 
L 189.560049 28.448533 
L 191.053026 28.337131 
L 192.546003 28.618281 
L 194.038979 28.277179 
L 195.531956 29.22334 
L 197.024932 28.591912 
L 198.517909 29.149621 
L 201.503862 28.479993 
L 202.996839 32.169829 
L 204.489815 28.849827 
L 205.982792 30.522194 
L 207.475768 35.84154 
L 208.968745 34.07528 
L 210.461722 30.585476 
L 211.954698 30.985044 
L 213.447675 31.908684 
L 214.940651 34.103645 
L 216.433628 31.883305 
L 217.926605 36.000697 
L 219.419581 37.674341 
L 220.912558 46.060295 
L 222.405534 38.324226 
L 223.898511 33.778251 
L 225.391487 41.31967 
L 226.884464 42.256222 
L 228.377441 40.108211 
L 229.870417 47.481647 
L 231.363394 46.976116 
L 232.85637 40.688639 
L 234.349347 47.964464 
L 235.842324 44.16484 
L 237.3353 37.349808 
L 238.828277 50.436383 
L 240.321253 47.846702 
L 241.81423 59.278302 
L 244.800183 42.965443 
L 246.29316 58.941177 
L 249.279113 78.064537 
L 250.772089 61.790686 
L 252.265066 62.474145 
L 253.758043 83.958906 
L 255.251019 63.476693 
L 256.743996 85.054805 
L 258.236972 64.103781 
L 259.729949 74.835964 
L 261.222926 98.828441 
L 262.715902 79.39086 
L 264.208879 82.623434 
L 265.701855 74.880528 
L 267.194832 89.534142 
L 268.687809 120.920232 
L 270.180785 81.853487 
L 271.673762 139.198417 
L 273.166738 81.954415 
L 274.659715 137.789084 
L 276.152691 181.175275 
L 277.645668 144.582699 
L 279.138645 134.398993 
L 280.631621 133.225669 
L 282.124598 133.231955 
L 283.617574 101.486243 
L 285.110551 218.693578 
L 286.603528 147.511274 
L 288.096504 127.319469 
L 289.589481 219.472797 
L 292.575434 175.522455 
L 294.068411 179.757216 
L 295.561387 230.104544 
L 297.054364 213.832574 
L 298.54734 205.665729 
L 300.040317 167.773012 
L 301.533293 198.360228 
L 303.02627 186.686615 
L 304.519247 260.92597 
L 306.012223 242.022548 
L 307.5052 143.87887 
L 308.998176 237.253249 
L 310.491153 186.222537 
L 311.98413 262.52521 
L 313.477106 239.000317 
L 314.970083 268.066879 
L 316.463059 286.864715 
L 317.956036 291.984006 
L 319.449013 290.244046 
L 320.941989 281.134026 
L 322.434966 285.881176 
L 323.927942 307.538223 
L 325.420919 305.858944 
L 326.913895 308.214459 
L 328.406872 311.130337 
L 329.899849 305.923337 
L 331.392825 302.941868 
L 332.885802 303.249301 
L 334.378778 306.547406 
L 335.871755 312.681861 
L 337.364732 310.580763 
L 338.857708 313.040633 
L 340.350685 311.688071 
L 341.843661 311.316887 
L 343.336638 312.573766 
L 344.829615 313.32683 
L 346.322591 313.329691 
L 347.815568 313.130131 
L 350.801521 313.322898 
L 495.62025 313.3301 
L 495.62025 313.3301 
" style="fill:none;stroke:#ff7f00;stroke-linecap:square;stroke-width:2.0;"/>
   </g>
   <g id="line2d_6">
    <path clip-path="url(#pf607d164aa)" d="M 49.22025 25.330754 
L 158.207541 25.442923 
L 192.546003 25.610765 
L 194.038979 25.74421 
L 195.531956 25.644956 
L 197.024932 26.032753 
L 200.010885 25.601502 
L 201.503862 25.822547 
L 202.996839 25.757733 
L 207.475768 25.953492 
L 208.968745 25.83433 
L 213.447675 26.051934 
L 214.940651 26.405845 
L 216.433628 26.571226 
L 217.926605 26.094978 
L 219.419581 26.083045 
L 220.912558 26.863391 
L 222.405534 26.436148 
L 225.391487 26.533392 
L 226.884464 26.116593 
L 228.377441 26.473813 
L 229.870417 26.274796 
L 231.363394 27.870006 
L 232.85637 26.545978 
L 235.842324 27.519883 
L 237.3353 26.894557 
L 238.828277 26.73451 
L 240.321253 27.34598 
L 241.81423 29.655928 
L 243.307207 28.262118 
L 244.800183 27.887251 
L 246.29316 28.210106 
L 247.786136 29.726777 
L 249.279113 29.378478 
L 250.772089 27.992919 
L 252.265066 29.699264 
L 253.758043 28.021551 
L 256.743996 29.726131 
L 258.236972 29.456497 
L 259.729949 29.487677 
L 261.222926 31.192584 
L 262.715902 30.590035 
L 264.208879 31.325296 
L 265.701855 29.894017 
L 267.194832 33.224754 
L 268.687809 31.442462 
L 270.180785 35.270092 
L 271.673762 36.031701 
L 273.166738 34.709617 
L 274.659715 33.139393 
L 276.152691 33.502594 
L 277.645668 43.988373 
L 279.138645 43.203028 
L 280.631621 36.241397 
L 282.124598 41.569713 
L 283.617574 60.941689 
L 285.110551 39.785589 
L 286.603528 39.266321 
L 288.096504 40.997355 
L 289.589481 39.513888 
L 291.082457 42.318815 
L 292.575434 42.166784 
L 294.068411 49.821088 
L 295.561387 41.967036 
L 297.054364 47.971443 
L 298.54734 52.184955 
L 300.040317 76.202574 
L 301.533293 55.654125 
L 303.02627 46.251739 
L 304.519247 58.540959 
L 306.012223 60.735061 
L 307.5052 78.123189 
L 308.998176 58.997767 
L 310.491153 79.038279 
L 311.98413 77.06526 
L 313.477106 79.906872 
L 314.970083 97.518081 
L 316.463059 96.180547 
L 317.956036 91.765429 
L 319.449013 146.711067 
L 320.941989 109.775997 
L 322.434966 96.442777 
L 323.927942 153.751367 
L 325.420919 103.495951 
L 326.913895 177.847277 
L 328.406872 126.925396 
L 329.899849 133.592205 
L 331.392825 196.890588 
L 332.885802 157.35589 
L 334.378778 127.144948 
L 335.871755 117.677478 
L 337.364732 217.284165 
L 338.857708 179.117674 
L 340.350685 137.965461 
L 341.843661 253.397885 
L 343.336638 140.550681 
L 344.829615 200.039563 
L 346.322591 188.925174 
L 347.815568 153.534756 
L 349.308544 276.612471 
L 350.801521 167.915539 
L 352.294497 236.700608 
L 353.787474 277.000977 
L 355.280451 218.281105 
L 356.773427 191.087226 
L 358.266404 260.764377 
L 359.75938 198.347645 
L 361.252357 227.032222 
L 362.745334 236.148884 
L 364.23831 277.085706 
L 365.731287 248.336565 
L 367.224263 266.416057 
L 368.71724 298.656755 
L 370.210217 284.962807 
L 371.703193 243.553083 
L 373.19617 207.180866 
L 374.689146 279.583328 
L 376.182123 277.626191 
L 377.675099 301.396394 
L 379.168076 270.921843 
L 380.661053 300.10937 
L 382.154029 308.376296 
L 383.647006 313.039815 
L 385.139982 290.989787 
L 386.632959 310.107823 
L 388.125936 311.899007 
L 389.618912 312.00863 
L 391.111889 312.744171 
L 392.604865 313.276934 
L 394.097842 312.035146 
L 395.590819 313.327272 
L 397.083795 313.172527 
L 398.576772 313.330095 
L 400.069748 312.991522 
L 401.562725 313.283907 
L 406.041655 313.316323 
L 419.478444 313.3301 
L 495.62025 313.3301 
L 495.62025 313.3301 
" style="fill:none;stroke:#a65628;stroke-linecap:square;stroke-width:2.0;"/>
   </g>
   <g id="line2d_7">
    <path clip-path="url(#pf607d164aa)" d="M 49.22025 25.330222 
L 182.095166 25.373128 
L 183.588143 25.450395 
L 185.08112 25.379402 
L 189.560049 25.428988 
L 192.546003 25.419148 
L 210.461722 25.466661 
L 211.954698 25.622281 
L 213.447675 25.613072 
L 214.940651 25.733656 
L 216.433628 25.587292 
L 217.926605 25.730295 
L 223.898511 25.579579 
L 225.391487 25.619509 
L 226.884464 25.837237 
L 228.377441 25.758251 
L 229.870417 26.196686 
L 231.363394 25.88489 
L 232.85637 26.187161 
L 234.349347 25.898686 
L 235.842324 26.415695 
L 237.3353 26.071974 
L 240.321253 25.793538 
L 241.81423 26.052057 
L 243.307207 27.657262 
L 244.800183 26.194309 
L 246.29316 26.259052 
L 247.786136 26.960598 
L 249.279113 26.870111 
L 250.772089 26.995773 
L 252.265066 26.366589 
L 253.758043 26.328779 
L 255.251019 26.83399 
L 256.743996 26.686694 
L 258.236972 28.699596 
L 259.729949 27.235989 
L 262.715902 27.077194 
L 264.208879 27.696101 
L 265.701855 27.690841 
L 267.194832 27.89386 
L 268.687809 29.102713 
L 270.180785 27.505951 
L 271.673762 30.076834 
L 273.166738 30.796685 
L 274.659715 28.947023 
L 276.152691 28.870398 
L 277.645668 29.864153 
L 279.138645 29.63344 
L 280.631621 29.934846 
L 282.124598 32.639599 
L 283.617574 32.188429 
L 285.110551 32.557186 
L 286.603528 30.057662 
L 288.096504 32.097325 
L 289.589481 32.309705 
L 291.082457 31.008093 
L 292.575434 31.741538 
L 294.068411 36.423403 
L 295.561387 36.273245 
L 297.054364 38.087606 
L 298.54734 33.117405 
L 301.533293 38.452584 
L 303.02627 31.402315 
L 304.519247 36.944201 
L 306.012223 37.352024 
L 307.5052 39.997926 
L 308.998176 43.988532 
L 310.491153 52.737567 
L 311.98413 50.078617 
L 313.477106 55.508709 
L 316.463059 44.585665 
L 317.956036 48.44361 
L 319.449013 55.24422 
L 320.941989 70.38235 
L 322.434966 65.059921 
L 323.927942 65.022306 
L 325.420919 58.474599 
L 326.913895 45.777881 
L 328.406872 53.873104 
L 329.899849 80.404364 
L 331.392825 48.685974 
L 332.885802 65.749488 
L 334.378778 66.474837 
L 335.871755 78.878624 
L 337.364732 66.035682 
L 338.857708 80.513997 
L 340.350685 148.164766 
L 341.843661 96.282941 
L 343.336638 119.640695 
L 344.829615 87.410613 
L 346.322591 113.686628 
L 347.815568 154.35808 
L 349.308544 95.708718 
L 350.801521 149.876919 
L 352.294497 157.451286 
L 353.787474 140.885119 
L 355.280451 129.72627 
L 356.773427 115.513745 
L 358.266404 148.01912 
L 359.75938 153.36122 
L 361.252357 155.265612 
L 362.745334 169.619279 
L 365.731287 221.945605 
L 367.224263 195.583524 
L 368.71724 156.741161 
L 370.210217 219.618365 
L 371.703193 169.635114 
L 373.19617 220.156043 
L 374.689146 244.993867 
L 377.675099 259.810222 
L 379.168076 250.340626 
L 380.661053 235.43343 
L 382.154029 254.967329 
L 383.647006 293.942249 
L 385.139982 280.355672 
L 386.632959 255.167095 
L 388.125936 264.439391 
L 389.618912 301.30004 
L 391.111889 282.504723 
L 392.604865 301.99811 
L 394.097842 276.946267 
L 395.590819 296.915566 
L 397.083795 308.637054 
L 398.576772 290.537419 
L 400.069748 312.809671 
L 401.562725 308.079661 
L 403.055702 309.70816 
L 404.548678 306.98176 
L 406.041655 313.323223 
L 407.534631 313.300633 
L 409.027608 312.705788 
L 410.520584 312.255514 
L 412.013561 313.175291 
L 413.506538 313.016831 
L 414.999514 313.31868 
L 417.985467 313.264903 
L 419.478444 313.31421 
L 420.971421 312.990187 
L 422.464397 313.329677 
L 425.45035 313.299887 
L 444.859046 313.3301 
L 495.62025 313.3301 
L 495.62025 313.3301 
" style="fill:none;stroke:#f781bf;stroke-linecap:square;stroke-width:2.0;"/>
   </g>
   <g id="line2d_8">
    <path clip-path="url(#pf607d164aa)" d="M 49.22025 25.330143 
L 220.912558 25.427663 
L 225.391487 25.420252 
L 238.828277 25.528909 
L 240.321253 25.72287 
L 243.307207 25.535587 
L 244.800183 25.592196 
L 247.786136 25.520788 
L 252.265066 25.849002 
L 255.251019 25.638708 
L 258.236972 25.617189 
L 259.729949 26.078903 
L 264.208879 25.65301 
L 265.701855 25.912679 
L 268.687809 26.178735 
L 271.673762 25.840451 
L 273.166738 26.590264 
L 274.659715 26.233754 
L 276.152691 26.658127 
L 277.645668 25.824755 
L 279.138645 26.860536 
L 280.631621 26.400676 
L 282.124598 27.037168 
L 283.617574 26.706842 
L 285.110551 26.191149 
L 286.603528 26.490198 
L 289.589481 26.622104 
L 291.082457 26.432081 
L 292.575434 26.60666 
L 294.068411 27.112608 
L 295.561387 27.046261 
L 297.054364 27.767475 
L 298.54734 26.934499 
L 300.040317 27.150471 
L 303.02627 28.556684 
L 304.519247 27.871829 
L 306.012223 28.756298 
L 307.5052 28.975369 
L 308.998176 29.91645 
L 310.491153 28.893529 
L 311.98413 29.838142 
L 313.477106 30.505646 
L 314.970083 31.314475 
L 316.463059 32.303555 
L 317.956036 29.95017 
L 319.449013 29.72123 
L 320.941989 31.443125 
L 322.434966 31.615367 
L 323.927942 38.287053 
L 325.420919 40.495483 
L 326.913895 35.835936 
L 328.406872 37.791183 
L 329.899849 43.442822 
L 331.392825 34.651147 
L 332.885802 39.403634 
L 334.378778 39.215366 
L 335.871755 41.600727 
L 337.364732 44.390238 
L 338.857708 46.381582 
L 340.350685 52.829083 
L 341.843661 43.527443 
L 343.336638 40.938328 
L 344.829615 61.754291 
L 346.322591 40.881836 
L 347.815568 44.083542 
L 349.308544 59.166468 
L 350.801521 71.732309 
L 352.294497 61.462312 
L 353.787474 70.643378 
L 355.280451 75.619218 
L 356.773427 81.762413 
L 358.266404 70.300094 
L 359.75938 114.703451 
L 361.252357 79.355568 
L 362.745334 65.166868 
L 364.23831 105.031283 
L 365.731287 93.479948 
L 367.224263 106.93575 
L 368.71724 107.336486 
L 370.210217 82.491413 
L 371.703193 125.698358 
L 373.19617 119.898123 
L 374.689146 99.816434 
L 376.182123 108.659074 
L 377.675099 123.850757 
L 379.168076 113.693422 
L 380.661053 130.288343 
L 382.154029 165.712868 
L 383.647006 148.23044 
L 385.139982 184.639755 
L 386.632959 142.1133 
L 388.125936 178.315937 
L 389.618912 160.4714 
L 391.111889 159.871179 
L 392.604865 183.983429 
L 394.097842 186.006715 
L 395.590819 216.391907 
L 397.083795 197.872019 
L 398.576772 225.798288 
L 400.069748 262.11969 
L 401.562725 251.221648 
L 403.055702 231.24757 
L 404.548678 277.531208 
L 406.041655 211.850665 
L 407.534631 282.798325 
L 409.027608 279.833045 
L 410.520584 257.06276 
L 412.013561 290.616905 
L 413.506538 274.783393 
L 414.999514 292.666544 
L 416.492491 303.563574 
L 417.985467 296.321741 
L 419.478444 311.580571 
L 420.971421 306.685744 
L 422.464397 311.754854 
L 423.957374 311.539884 
L 425.45035 307.168077 
L 426.943327 304.383074 
L 428.436304 311.822905 
L 429.92928 312.850266 
L 431.422257 313.1617 
L 434.40821 309.181606 
L 435.901186 313.324 
L 437.394163 313.237809 
L 438.88714 313.026095 
L 440.380116 313.277421 
L 449.337976 313.262598 
L 450.830952 313.330099 
L 452.323929 312.500304 
L 453.816906 313.330094 
L 495.62025 313.3301 
L 495.62025 313.3301 
" style="fill:none;stroke:#999999;stroke-linecap:square;stroke-width:2.0;"/>
   </g>
   <g id="patch_3">
    <path d="M 49.22025 313.3301 
L 49.22025 25.3301 
" style="fill:none;stroke:#000000;stroke-linecap:square;stroke-linejoin:miter;"/>
   </g>
   <g id="patch_4">
    <path d="M 49.22025 313.3301 
L 495.62025 313.3301 
" style="fill:none;stroke:#000000;stroke-linecap:square;stroke-linejoin:miter;"/>
   </g>
   <g id="patch_5">
    <path d="M 49.22025 25.3301 
L 495.62025 25.3301 
" style="fill:none;stroke:#000000;stroke-linecap:square;stroke-linejoin:miter;"/>
   </g>
   <g id="patch_6">
    <path d="M 495.62025 313.3301 
L 495.62025 25.3301 
" style="fill:none;stroke:#000000;stroke-linecap:square;stroke-linejoin:miter;"/>
   </g>
   <g id="matplotlib.axis_1">
    <g id="xtick_1">
     <g id="line2d_9">
      <defs>
       <path d="M 0 0 
L 0 -4 
" id="mfca33015df" style="stroke:#000000;stroke-width:0.5;"/>
      </defs>
      <g>
       <use style="stroke:#000000;stroke-width:0.5;" x="49.22025" xlink:href="#mfca33015df" y="313.3301"/>
      </g>
     </g>
     <g id="line2d_10">
      <defs>
       <path d="M 0 0 
L 0 4 
" id="m4c158faadc" style="stroke:#000000;stroke-width:0.5;"/>
      </defs>
      <g>
       <use style="stroke:#000000;stroke-width:0.5;" x="49.22025" xlink:href="#m4c158faadc" y="25.3301"/>
      </g>
     </g>
     <g id="text_1">
      <!-- −10 -->
      <defs>
       <path d="M 10.59375 35.5 
L 73.1875 35.5 
L 73.1875 27.203125 
L 10.59375 27.203125 
z
" id="BitstreamVeraSans-Roman-2212"/>
       <path d="M 12.40625 8.296875 
L 28.515625 8.296875 
L 28.515625 63.921875 
L 10.984375 60.40625 
L 10.984375 69.390625 
L 28.421875 72.90625 
L 38.28125 72.90625 
L 38.28125 8.296875 
L 54.390625 8.296875 
L 54.390625 0 
L 12.40625 0 
z
" id="BitstreamVeraSans-Roman-31"/>
       <path d="M 31.78125 66.40625 
Q 24.171875 66.40625 20.328125 58.90625 
Q 16.5 51.421875 16.5 36.375 
Q 16.5 21.390625 20.328125 13.890625 
Q 24.171875 6.390625 31.78125 6.390625 
Q 39.453125 6.390625 43.28125 13.890625 
Q 47.125 21.390625 47.125 36.375 
Q 47.125 51.421875 43.28125 58.90625 
Q 39.453125 66.40625 31.78125 66.40625 
M 31.78125 74.21875 
Q 44.046875 74.21875 50.515625 64.515625 
Q 56.984375 54.828125 56.984375 36.375 
Q 56.984375 17.96875 50.515625 8.265625 
Q 44.046875 -1.421875 31.78125 -1.421875 
Q 19.53125 -1.421875 13.0625 8.265625 
Q 6.59375 17.96875 6.59375 36.375 
Q 6.59375 54.828125 13.0625 64.515625 
Q 19.53125 74.21875 31.78125 74.21875 
" id="BitstreamVeraSans-Roman-30"/>
      </defs>
      <g transform="translate(36.5574375 326.448225)scale(0.12 -0.12)">
       <use xlink:href="#BitstreamVeraSans-Roman-2212"/>
       <use x="83.7890625" xlink:href="#BitstreamVeraSans-Roman-31"/>
       <use x="147.412109375" xlink:href="#BitstreamVeraSans-Roman-30"/>
      </g>
     </g>
    </g>
    <g id="xtick_2">
     <g id="line2d_11">
      <g>
       <use style="stroke:#000000;stroke-width:0.5;" x="160.82025" xlink:href="#mfca33015df" y="313.3301"/>
      </g>
     </g>
     <g id="line2d_12">
      <g>
       <use style="stroke:#000000;stroke-width:0.5;" x="160.82025" xlink:href="#m4c158faadc" y="25.3301"/>
      </g>
     </g>
     <g id="text_2">
      <!-- −5 -->
      <defs>
       <path d="M 10.796875 72.90625 
L 49.515625 72.90625 
L 49.515625 64.59375 
L 19.828125 64.59375 
L 19.828125 46.734375 
Q 21.96875 47.46875 24.109375 47.828125 
Q 26.265625 48.1875 28.421875 48.1875 
Q 40.625 48.1875 47.75 41.5 
Q 54.890625 34.8125 54.890625 23.390625 
Q 54.890625 11.625 47.5625 5.09375 
Q 40.234375 -1.421875 26.90625 -1.421875 
Q 22.3125 -1.421875 17.546875 -0.640625 
Q 12.796875 0.140625 7.71875 1.703125 
L 7.71875 11.625 
Q 12.109375 9.234375 16.796875 8.0625 
Q 21.484375 6.890625 26.703125 6.890625 
Q 35.15625 6.890625 40.078125 11.328125 
Q 45.015625 15.765625 45.015625 23.390625 
Q 45.015625 31 40.078125 35.4375 
Q 35.15625 39.890625 26.703125 39.890625 
Q 22.75 39.890625 18.8125 39.015625 
Q 14.890625 38.140625 10.796875 36.28125 
z
" id="BitstreamVeraSans-Roman-35"/>
      </defs>
      <g transform="translate(151.9749375 326.448225)scale(0.12 -0.12)">
       <use xlink:href="#BitstreamVeraSans-Roman-2212"/>
       <use x="83.7890625" xlink:href="#BitstreamVeraSans-Roman-35"/>
      </g>
     </g>
    </g>
    <g id="xtick_3">
     <g id="line2d_13">
      <g>
       <use style="stroke:#000000;stroke-width:0.5;" x="272.42025" xlink:href="#mfca33015df" y="313.3301"/>
      </g>
     </g>
     <g id="line2d_14">
      <g>
       <use style="stroke:#000000;stroke-width:0.5;" x="272.42025" xlink:href="#m4c158faadc" y="25.3301"/>
      </g>
     </g>
     <g id="text_3">
      <!-- 0 -->
      <g transform="translate(268.60275 326.448225)scale(0.12 -0.12)">
       <use xlink:href="#BitstreamVeraSans-Roman-30"/>
      </g>
     </g>
    </g>
    <g id="xtick_4">
     <g id="line2d_15">
      <g>
       <use style="stroke:#000000;stroke-width:0.5;" x="384.02025" xlink:href="#mfca33015df" y="313.3301"/>
      </g>
     </g>
     <g id="line2d_16">
      <g>
       <use style="stroke:#000000;stroke-width:0.5;" x="384.02025" xlink:href="#m4c158faadc" y="25.3301"/>
      </g>
     </g>
     <g id="text_4">
      <!-- 5 -->
      <g transform="translate(380.20275 326.448225)scale(0.12 -0.12)">
       <use xlink:href="#BitstreamVeraSans-Roman-35"/>
      </g>
     </g>
    </g>
    <g id="xtick_5">
     <g id="line2d_17">
      <g>
       <use style="stroke:#000000;stroke-width:0.5;" x="495.62025" xlink:href="#mfca33015df" y="313.3301"/>
      </g>
     </g>
     <g id="line2d_18">
      <g>
       <use style="stroke:#000000;stroke-width:0.5;" x="495.62025" xlink:href="#m4c158faadc" y="25.3301"/>
      </g>
     </g>
     <g id="text_5">
      <!-- 10 -->
      <g transform="translate(487.98525 326.448225)scale(0.12 -0.12)">
       <use xlink:href="#BitstreamVeraSans-Roman-31"/>
       <use x="63.623046875" xlink:href="#BitstreamVeraSans-Roman-30"/>
      </g>
     </g>
    </g>
    <g id="text_6">
     <!-- This is the x-axis -->
     <defs>
      <path d="M 9.421875 54.6875 
L 18.40625 54.6875 
L 18.40625 0 
L 9.421875 0 
z
M 9.421875 75.984375 
L 18.40625 75.984375 
L 18.40625 64.59375 
L 9.421875 64.59375 
z
" id="BitstreamVeraSans-Roman-69"/>
      <path id="BitstreamVeraSans-Roman-20"/>
      <path d="M 34.28125 27.484375 
Q 23.390625 27.484375 19.1875 25 
Q 14.984375 22.515625 14.984375 16.5 
Q 14.984375 11.71875 18.140625 8.90625 
Q 21.296875 6.109375 26.703125 6.109375 
Q 34.1875 6.109375 38.703125 11.40625 
Q 43.21875 16.703125 43.21875 25.484375 
L 43.21875 27.484375 
z
M 52.203125 31.203125 
L 52.203125 0 
L 43.21875 0 
L 43.21875 8.296875 
Q 40.140625 3.328125 35.546875 0.953125 
Q 30.953125 -1.421875 24.3125 -1.421875 
Q 15.921875 -1.421875 10.953125 3.296875 
Q 6 8.015625 6 15.921875 
Q 6 25.140625 12.171875 29.828125 
Q 18.359375 34.515625 30.609375 34.515625 
L 43.21875 34.515625 
L 43.21875 35.40625 
Q 43.21875 41.609375 39.140625 45 
Q 35.0625 48.390625 27.6875 48.390625 
Q 23 48.390625 18.546875 47.265625 
Q 14.109375 46.140625 10.015625 43.890625 
L 10.015625 52.203125 
Q 14.9375 54.109375 19.578125 55.046875 
Q 24.21875 56 28.609375 56 
Q 40.484375 56 46.34375 49.84375 
Q 52.203125 43.703125 52.203125 31.203125 
" id="BitstreamVeraSans-Roman-61"/>
      <path d="M -0.296875 72.90625 
L 61.375 72.90625 
L 61.375 64.59375 
L 35.5 64.59375 
L 35.5 0 
L 25.59375 0 
L 25.59375 64.59375 
L -0.296875 64.59375 
z
" id="BitstreamVeraSans-Roman-54"/>
      <path d="M 44.28125 53.078125 
L 44.28125 44.578125 
Q 40.484375 46.53125 36.375 47.5 
Q 32.28125 48.484375 27.875 48.484375 
Q 21.1875 48.484375 17.84375 46.4375 
Q 14.5 44.390625 14.5 40.28125 
Q 14.5 37.15625 16.890625 35.375 
Q 19.28125 33.59375 26.515625 31.984375 
L 29.59375 31.296875 
Q 39.15625 29.25 43.1875 25.515625 
Q 47.21875 21.78125 47.21875 15.09375 
Q 47.21875 7.46875 41.1875 3.015625 
Q 35.15625 -1.421875 24.609375 -1.421875 
Q 20.21875 -1.421875 15.453125 -0.5625 
Q 10.6875 0.296875 5.421875 2 
L 5.421875 11.28125 
Q 10.40625 8.6875 15.234375 7.390625 
Q 20.0625 6.109375 24.8125 6.109375 
Q 31.15625 6.109375 34.5625 8.28125 
Q 37.984375 10.453125 37.984375 14.40625 
Q 37.984375 18.0625 35.515625 20.015625 
Q 33.0625 21.96875 24.703125 23.78125 
L 21.578125 24.515625 
Q 13.234375 26.265625 9.515625 29.90625 
Q 5.8125 33.546875 5.8125 39.890625 
Q 5.8125 47.609375 11.28125 51.796875 
Q 16.75 56 26.8125 56 
Q 31.78125 56 36.171875 55.265625 
Q 40.578125 54.546875 44.28125 53.078125 
" id="BitstreamVeraSans-Roman-73"/>
      <path d="M 4.890625 31.390625 
L 31.203125 31.390625 
L 31.203125 23.390625 
L 4.890625 23.390625 
z
" id="BitstreamVeraSans-Roman-2d"/>
      <path d="M 54.890625 54.6875 
L 35.109375 28.078125 
L 55.90625 0 
L 45.3125 0 
L 29.390625 21.484375 
L 13.484375 0 
L 2.875 0 
L 24.125 28.609375 
L 4.6875 54.6875 
L 15.28125 54.6875 
L 29.78125 35.203125 
L 44.28125 54.6875 
z
" id="BitstreamVeraSans-Roman-78"/>
      <path d="M 18.3125 70.21875 
L 18.3125 54.6875 
L 36.8125 54.6875 
L 36.8125 47.703125 
L 18.3125 47.703125 
L 18.3125 18.015625 
Q 18.3125 11.328125 20.140625 9.421875 
Q 21.96875 7.515625 27.59375 7.515625 
L 36.8125 7.515625 
L 36.8125 0 
L 27.59375 0 
Q 17.1875 0 13.234375 3.875 
Q 9.28125 7.765625 9.28125 18.015625 
L 9.28125 47.703125 
L 2.6875 47.703125 
L 2.6875 54.6875 
L 9.28125 54.6875 
L 9.28125 70.21875 
z
" id="BitstreamVeraSans-Roman-74"/>
      <path d="M 54.890625 33.015625 
L 54.890625 0 
L 45.90625 0 
L 45.90625 32.71875 
Q 45.90625 40.484375 42.875 44.328125 
Q 39.84375 48.1875 33.796875 48.1875 
Q 26.515625 48.1875 22.3125 43.546875 
Q 18.109375 38.921875 18.109375 30.90625 
L 18.109375 0 
L 9.078125 0 
L 9.078125 75.984375 
L 18.109375 75.984375 
L 18.109375 46.1875 
Q 21.34375 51.125 25.703125 53.5625 
Q 30.078125 56 35.796875 56 
Q 45.21875 56 50.046875 50.171875 
Q 54.890625 44.34375 54.890625 33.015625 
" id="BitstreamVeraSans-Roman-68"/>
      <path d="M 56.203125 29.59375 
L 56.203125 25.203125 
L 14.890625 25.203125 
Q 15.484375 15.921875 20.484375 11.0625 
Q 25.484375 6.203125 34.421875 6.203125 
Q 39.59375 6.203125 44.453125 7.46875 
Q 49.3125 8.734375 54.109375 11.28125 
L 54.109375 2.78125 
Q 49.265625 0.734375 44.1875 -0.34375 
Q 39.109375 -1.421875 33.890625 -1.421875 
Q 20.796875 -1.421875 13.15625 6.1875 
Q 5.515625 13.8125 5.515625 26.8125 
Q 5.515625 40.234375 12.765625 48.109375 
Q 20.015625 56 32.328125 56 
Q 43.359375 56 49.78125 48.890625 
Q 56.203125 41.796875 56.203125 29.59375 
M 47.21875 32.234375 
Q 47.125 39.59375 43.09375 43.984375 
Q 39.0625 48.390625 32.421875 48.390625 
Q 24.90625 48.390625 20.390625 44.140625 
Q 15.875 39.890625 15.1875 32.171875 
z
" id="BitstreamVeraSans-Roman-65"/>
     </defs>
     <g transform="translate(211.993125 344.8856)scale(0.144 -0.144)">
      <use xlink:href="#BitstreamVeraSans-Roman-54"/>
      <use x="61.083984375" xlink:href="#BitstreamVeraSans-Roman-68"/>
      <use x="124.462890625" xlink:href="#BitstreamVeraSans-Roman-69"/>
      <use x="152.24609375" xlink:href="#BitstreamVeraSans-Roman-73"/>
      <use x="204.345703125" xlink:href="#BitstreamVeraSans-Roman-20"/>
      <use x="236.1328125" xlink:href="#BitstreamVeraSans-Roman-69"/>
      <use x="263.916015625" xlink:href="#BitstreamVeraSans-Roman-73"/>
      <use x="316.015625" xlink:href="#BitstreamVeraSans-Roman-20"/>
      <use x="347.802734375" xlink:href="#BitstreamVeraSans-Roman-74"/>
      <use x="387.01171875" xlink:href="#BitstreamVeraSans-Roman-68"/>
      <use x="450.390625" xlink:href="#BitstreamVeraSans-Roman-65"/>
      <use x="511.9140625" xlink:href="#BitstreamVeraSans-Roman-20"/>
      <use x="543.701171875" xlink:href="#BitstreamVeraSans-Roman-78"/>
      <use x="602.880859375" xlink:href="#BitstreamVeraSans-Roman-2d"/>
      <use x="638.96484375" xlink:href="#BitstreamVeraSans-Roman-61"/>
      <use x="700.244140625" xlink:href="#BitstreamVeraSans-Roman-78"/>
      <use x="759.423828125" xlink:href="#BitstreamVeraSans-Roman-69"/>
      <use x="787.20703125" xlink:href="#BitstreamVeraSans-Roman-73"/>
     </g>
    </g>
   </g>
   <g id="matplotlib.axis_2">
    <g id="ytick_1">
     <g id="line2d_19">
      <defs>
       <path d="M 0 0 
L 4 0 
" id="mf367d1e1af" style="stroke:#000000;stroke-width:0.5;"/>
      </defs>
      <g>
       <use style="stroke:#000000;stroke-width:0.5;" x="49.22025" xlink:href="#mf367d1e1af" y="313.3301"/>
      </g>
     </g>
     <g id="line2d_20">
      <defs>
       <path d="M 0 0 
L -4 0 
" id="mbabb125e99" style="stroke:#000000;stroke-width:0.5;"/>
      </defs>
      <g>
       <use style="stroke:#000000;stroke-width:0.5;" x="495.62025" xlink:href="#mbabb125e99" y="313.3301"/>
      </g>
     </g>
     <g id="text_7">
      <!-- 0.0 -->
      <defs>
       <path d="M 10.6875 12.40625 
L 21 12.40625 
L 21 0 
L 10.6875 0 
z
" id="BitstreamVeraSans-Roman-2e"/>
      </defs>
      <g transform="translate(26.1365 316.64135)scale(0.12 -0.12)">
       <use xlink:href="#BitstreamVeraSans-Roman-30"/>
       <use x="63.623046875" xlink:href="#BitstreamVeraSans-Roman-2e"/>
       <use x="95.41015625" xlink:href="#BitstreamVeraSans-Roman-30"/>
      </g>
     </g>
    </g>
    <g id="ytick_2">
     <g id="line2d_21">
      <g>
       <use style="stroke:#000000;stroke-width:0.5;" x="49.22025" xlink:href="#mf367d1e1af" y="255.7301"/>
      </g>
     </g>
     <g id="line2d_22">
      <g>
       <use style="stroke:#000000;stroke-width:0.5;" x="495.62025" xlink:href="#mbabb125e99" y="255.7301"/>
      </g>
     </g>
     <g id="text_8">
      <!-- 0.2 -->
      <defs>
       <path d="M 19.1875 8.296875 
L 53.609375 8.296875 
L 53.609375 0 
L 7.328125 0 
L 7.328125 8.296875 
Q 12.9375 14.109375 22.625 23.890625 
Q 32.328125 33.6875 34.8125 36.53125 
Q 39.546875 41.84375 41.421875 45.53125 
Q 43.3125 49.21875 43.3125 52.78125 
Q 43.3125 58.59375 39.234375 62.25 
Q 35.15625 65.921875 28.609375 65.921875 
Q 23.96875 65.921875 18.8125 64.3125 
Q 13.671875 62.703125 7.8125 59.421875 
L 7.8125 69.390625 
Q 13.765625 71.78125 18.9375 73 
Q 24.125 74.21875 28.421875 74.21875 
Q 39.75 74.21875 46.484375 68.546875 
Q 53.21875 62.890625 53.21875 53.421875 
Q 53.21875 48.921875 51.53125 44.890625 
Q 49.859375 40.875 45.40625 35.40625 
Q 44.1875 33.984375 37.640625 27.21875 
Q 31.109375 20.453125 19.1875 8.296875 
" id="BitstreamVeraSans-Roman-32"/>
      </defs>
      <g transform="translate(26.1365 259.04135)scale(0.12 -0.12)">
       <use xlink:href="#BitstreamVeraSans-Roman-30"/>
       <use x="63.623046875" xlink:href="#BitstreamVeraSans-Roman-2e"/>
       <use x="95.41015625" xlink:href="#BitstreamVeraSans-Roman-32"/>
      </g>
     </g>
    </g>
    <g id="ytick_3">
     <g id="line2d_23">
      <g>
       <use style="stroke:#000000;stroke-width:0.5;" x="49.22025" xlink:href="#mf367d1e1af" y="198.1301"/>
      </g>
     </g>
     <g id="line2d_24">
      <g>
       <use style="stroke:#000000;stroke-width:0.5;" x="495.62025" xlink:href="#mbabb125e99" y="198.1301"/>
      </g>
     </g>
     <g id="text_9">
      <!-- 0.4 -->
      <defs>
       <path d="M 37.796875 64.3125 
L 12.890625 25.390625 
L 37.796875 25.390625 
z
M 35.203125 72.90625 
L 47.609375 72.90625 
L 47.609375 25.390625 
L 58.015625 25.390625 
L 58.015625 17.1875 
L 47.609375 17.1875 
L 47.609375 0 
L 37.796875 0 
L 37.796875 17.1875 
L 4.890625 17.1875 
L 4.890625 26.703125 
z
" id="BitstreamVeraSans-Roman-34"/>
      </defs>
      <g transform="translate(26.1365 201.44135)scale(0.12 -0.12)">
       <use xlink:href="#BitstreamVeraSans-Roman-30"/>
       <use x="63.623046875" xlink:href="#BitstreamVeraSans-Roman-2e"/>
       <use x="95.41015625" xlink:href="#BitstreamVeraSans-Roman-34"/>
      </g>
     </g>
    </g>
    <g id="ytick_4">
     <g id="line2d_25">
      <g>
       <use style="stroke:#000000;stroke-width:0.5;" x="49.22025" xlink:href="#mf367d1e1af" y="140.5301"/>
      </g>
     </g>
     <g id="line2d_26">
      <g>
       <use style="stroke:#000000;stroke-width:0.5;" x="495.62025" xlink:href="#mbabb125e99" y="140.5301"/>
      </g>
     </g>
     <g id="text_10">
      <!-- 0.6 -->
      <defs>
       <path d="M 33.015625 40.375 
Q 26.375 40.375 22.484375 35.828125 
Q 18.609375 31.296875 18.609375 23.390625 
Q 18.609375 15.53125 22.484375 10.953125 
Q 26.375 6.390625 33.015625 6.390625 
Q 39.65625 6.390625 43.53125 10.953125 
Q 47.40625 15.53125 47.40625 23.390625 
Q 47.40625 31.296875 43.53125 35.828125 
Q 39.65625 40.375 33.015625 40.375 
M 52.59375 71.296875 
L 52.59375 62.3125 
Q 48.875 64.0625 45.09375 64.984375 
Q 41.3125 65.921875 37.59375 65.921875 
Q 27.828125 65.921875 22.671875 59.328125 
Q 17.53125 52.734375 16.796875 39.40625 
Q 19.671875 43.65625 24.015625 45.921875 
Q 28.375 48.1875 33.59375 48.1875 
Q 44.578125 48.1875 50.953125 41.515625 
Q 57.328125 34.859375 57.328125 23.390625 
Q 57.328125 12.15625 50.6875 5.359375 
Q 44.046875 -1.421875 33.015625 -1.421875 
Q 20.359375 -1.421875 13.671875 8.265625 
Q 6.984375 17.96875 6.984375 36.375 
Q 6.984375 53.65625 15.1875 63.9375 
Q 23.390625 74.21875 37.203125 74.21875 
Q 40.921875 74.21875 44.703125 73.484375 
Q 48.484375 72.75 52.59375 71.296875 
" id="BitstreamVeraSans-Roman-36"/>
      </defs>
      <g transform="translate(26.1365 143.84135)scale(0.12 -0.12)">
       <use xlink:href="#BitstreamVeraSans-Roman-30"/>
       <use x="63.623046875" xlink:href="#BitstreamVeraSans-Roman-2e"/>
       <use x="95.41015625" xlink:href="#BitstreamVeraSans-Roman-36"/>
      </g>
     </g>
    </g>
    <g id="ytick_5">
     <g id="line2d_27">
      <g>
       <use style="stroke:#000000;stroke-width:0.5;" x="49.22025" xlink:href="#mf367d1e1af" y="82.9301"/>
      </g>
     </g>
     <g id="line2d_28">
      <g>
       <use style="stroke:#000000;stroke-width:0.5;" x="495.62025" xlink:href="#mbabb125e99" y="82.9301"/>
      </g>
     </g>
     <g id="text_11">
      <!-- 0.8 -->
      <defs>
       <path d="M 31.78125 34.625 
Q 24.75 34.625 20.71875 30.859375 
Q 16.703125 27.09375 16.703125 20.515625 
Q 16.703125 13.921875 20.71875 10.15625 
Q 24.75 6.390625 31.78125 6.390625 
Q 38.8125 6.390625 42.859375 10.171875 
Q 46.921875 13.96875 46.921875 20.515625 
Q 46.921875 27.09375 42.890625 30.859375 
Q 38.875 34.625 31.78125 34.625 
M 21.921875 38.8125 
Q 15.578125 40.375 12.03125 44.71875 
Q 8.5 49.078125 8.5 55.328125 
Q 8.5 64.0625 14.71875 69.140625 
Q 20.953125 74.21875 31.78125 74.21875 
Q 42.671875 74.21875 48.875 69.140625 
Q 55.078125 64.0625 55.078125 55.328125 
Q 55.078125 49.078125 51.53125 44.71875 
Q 48 40.375 41.703125 38.8125 
Q 48.828125 37.15625 52.796875 32.3125 
Q 56.78125 27.484375 56.78125 20.515625 
Q 56.78125 9.90625 50.3125 4.234375 
Q 43.84375 -1.421875 31.78125 -1.421875 
Q 19.734375 -1.421875 13.25 4.234375 
Q 6.78125 9.90625 6.78125 20.515625 
Q 6.78125 27.484375 10.78125 32.3125 
Q 14.796875 37.15625 21.921875 38.8125 
M 18.3125 54.390625 
Q 18.3125 48.734375 21.84375 45.5625 
Q 25.390625 42.390625 31.78125 42.390625 
Q 38.140625 42.390625 41.71875 45.5625 
Q 45.3125 48.734375 45.3125 54.390625 
Q 45.3125 60.0625 41.71875 63.234375 
Q 38.140625 66.40625 31.78125 66.40625 
Q 25.390625 66.40625 21.84375 63.234375 
Q 18.3125 60.0625 18.3125 54.390625 
" id="BitstreamVeraSans-Roman-38"/>
      </defs>
      <g transform="translate(26.1365 86.24135)scale(0.12 -0.12)">
       <use xlink:href="#BitstreamVeraSans-Roman-30"/>
       <use x="63.623046875" xlink:href="#BitstreamVeraSans-Roman-2e"/>
       <use x="95.41015625" xlink:href="#BitstreamVeraSans-Roman-38"/>
      </g>
     </g>
    </g>
    <g id="ytick_6">
     <g id="line2d_29">
      <g>
       <use style="stroke:#000000;stroke-width:0.5;" x="49.22025" xlink:href="#mf367d1e1af" y="25.3301"/>
      </g>
     </g>
     <g id="line2d_30">
      <g>
       <use style="stroke:#000000;stroke-width:0.5;" x="495.62025" xlink:href="#mbabb125e99" y="25.3301"/>
      </g>
     </g>
     <g id="text_12">
      <!-- 1.0 -->
      <g transform="translate(26.1365 28.64135)scale(0.12 -0.12)">
       <use xlink:href="#BitstreamVeraSans-Roman-31"/>
       <use x="63.623046875" xlink:href="#BitstreamVeraSans-Roman-2e"/>
       <use x="95.41015625" xlink:href="#BitstreamVeraSans-Roman-30"/>
      </g>
     </g>
    </g>
    <g id="text_13">
     <!-- Random but decaying values -->
     <defs>
      <path d="M 44.390625 34.1875 
Q 47.5625 33.109375 50.5625 29.59375 
Q 53.5625 26.078125 56.59375 19.921875 
L 66.609375 0 
L 56 0 
L 46.6875 18.703125 
Q 43.0625 26.03125 39.671875 28.421875 
Q 36.28125 30.8125 30.421875 30.8125 
L 19.671875 30.8125 
L 19.671875 0 
L 9.8125 0 
L 9.8125 72.90625 
L 32.078125 72.90625 
Q 44.578125 72.90625 50.734375 67.671875 
Q 56.890625 62.453125 56.890625 51.90625 
Q 56.890625 45.015625 53.6875 40.46875 
Q 50.484375 35.9375 44.390625 34.1875 
M 19.671875 64.796875 
L 19.671875 38.921875 
L 32.078125 38.921875 
Q 39.203125 38.921875 42.84375 42.21875 
Q 46.484375 45.515625 46.484375 51.90625 
Q 46.484375 58.296875 42.84375 61.546875 
Q 39.203125 64.796875 32.078125 64.796875 
z
" id="BitstreamVeraSans-Roman-52"/>
      <path d="M 30.609375 48.390625 
Q 23.390625 48.390625 19.1875 42.75 
Q 14.984375 37.109375 14.984375 27.296875 
Q 14.984375 17.484375 19.15625 11.84375 
Q 23.34375 6.203125 30.609375 6.203125 
Q 37.796875 6.203125 41.984375 11.859375 
Q 46.1875 17.53125 46.1875 27.296875 
Q 46.1875 37.015625 41.984375 42.703125 
Q 37.796875 48.390625 30.609375 48.390625 
M 30.609375 56 
Q 42.328125 56 49.015625 48.375 
Q 55.71875 40.765625 55.71875 27.296875 
Q 55.71875 13.875 49.015625 6.21875 
Q 42.328125 -1.421875 30.609375 -1.421875 
Q 18.84375 -1.421875 12.171875 6.21875 
Q 5.515625 13.875 5.515625 27.296875 
Q 5.515625 40.765625 12.171875 48.375 
Q 18.84375 56 30.609375 56 
" id="BitstreamVeraSans-Roman-6f"/>
      <path d="M 45.40625 46.390625 
L 45.40625 75.984375 
L 54.390625 75.984375 
L 54.390625 0 
L 45.40625 0 
L 45.40625 8.203125 
Q 42.578125 3.328125 38.25 0.953125 
Q 33.9375 -1.421875 27.875 -1.421875 
Q 17.96875 -1.421875 11.734375 6.484375 
Q 5.515625 14.40625 5.515625 27.296875 
Q 5.515625 40.1875 11.734375 48.09375 
Q 17.96875 56 27.875 56 
Q 33.9375 56 38.25 53.625 
Q 42.578125 51.265625 45.40625 46.390625 
M 14.796875 27.296875 
Q 14.796875 17.390625 18.875 11.75 
Q 22.953125 6.109375 30.078125 6.109375 
Q 37.203125 6.109375 41.296875 11.75 
Q 45.40625 17.390625 45.40625 27.296875 
Q 45.40625 37.203125 41.296875 42.84375 
Q 37.203125 48.484375 30.078125 48.484375 
Q 22.953125 48.484375 18.875 42.84375 
Q 14.796875 37.203125 14.796875 27.296875 
" id="BitstreamVeraSans-Roman-64"/>
      <path d="M 52 44.1875 
Q 55.375 50.25 60.0625 53.125 
Q 64.75 56 71.09375 56 
Q 79.640625 56 84.28125 50.015625 
Q 88.921875 44.046875 88.921875 33.015625 
L 88.921875 0 
L 79.890625 0 
L 79.890625 32.71875 
Q 79.890625 40.578125 77.09375 44.375 
Q 74.3125 48.1875 68.609375 48.1875 
Q 61.625 48.1875 57.5625 43.546875 
Q 53.515625 38.921875 53.515625 30.90625 
L 53.515625 0 
L 44.484375 0 
L 44.484375 32.71875 
Q 44.484375 40.625 41.703125 44.40625 
Q 38.921875 48.1875 33.109375 48.1875 
Q 26.21875 48.1875 22.15625 43.53125 
Q 18.109375 38.875 18.109375 30.90625 
L 18.109375 0 
L 9.078125 0 
L 9.078125 54.6875 
L 18.109375 54.6875 
L 18.109375 46.1875 
Q 21.1875 51.21875 25.484375 53.609375 
Q 29.78125 56 35.6875 56 
Q 41.65625 56 45.828125 52.96875 
Q 50 49.953125 52 44.1875 
" id="BitstreamVeraSans-Roman-6d"/>
      <path d="M 32.171875 -5.078125 
Q 28.375 -14.84375 24.75 -17.8125 
Q 21.140625 -20.796875 15.09375 -20.796875 
L 7.90625 -20.796875 
L 7.90625 -13.28125 
L 13.1875 -13.28125 
Q 16.890625 -13.28125 18.9375 -11.515625 
Q 21 -9.765625 23.484375 -3.21875 
L 25.09375 0.875 
L 2.984375 54.6875 
L 12.5 54.6875 
L 29.59375 11.921875 
L 46.6875 54.6875 
L 56.203125 54.6875 
z
" id="BitstreamVeraSans-Roman-79"/>
      <path d="M 54.890625 33.015625 
L 54.890625 0 
L 45.90625 0 
L 45.90625 32.71875 
Q 45.90625 40.484375 42.875 44.328125 
Q 39.84375 48.1875 33.796875 48.1875 
Q 26.515625 48.1875 22.3125 43.546875 
Q 18.109375 38.921875 18.109375 30.90625 
L 18.109375 0 
L 9.078125 0 
L 9.078125 54.6875 
L 18.109375 54.6875 
L 18.109375 46.1875 
Q 21.34375 51.125 25.703125 53.5625 
Q 30.078125 56 35.796875 56 
Q 45.21875 56 50.046875 50.171875 
Q 54.890625 44.34375 54.890625 33.015625 
" id="BitstreamVeraSans-Roman-6e"/>
      <path d="M 2.984375 54.6875 
L 12.5 54.6875 
L 29.59375 8.796875 
L 46.6875 54.6875 
L 56.203125 54.6875 
L 35.6875 0 
L 23.484375 0 
z
" id="BitstreamVeraSans-Roman-76"/>
      <path d="M 48.78125 52.59375 
L 48.78125 44.1875 
Q 44.96875 46.296875 41.140625 47.34375 
Q 37.3125 48.390625 33.40625 48.390625 
Q 24.65625 48.390625 19.8125 42.84375 
Q 14.984375 37.3125 14.984375 27.296875 
Q 14.984375 17.28125 19.8125 11.734375 
Q 24.65625 6.203125 33.40625 6.203125 
Q 37.3125 6.203125 41.140625 7.25 
Q 44.96875 8.296875 48.78125 10.40625 
L 48.78125 2.09375 
Q 45.015625 0.34375 40.984375 -0.53125 
Q 36.96875 -1.421875 32.421875 -1.421875 
Q 20.0625 -1.421875 12.78125 6.34375 
Q 5.515625 14.109375 5.515625 27.296875 
Q 5.515625 40.671875 12.859375 48.328125 
Q 20.21875 56 33.015625 56 
Q 37.15625 56 41.109375 55.140625 
Q 45.0625 54.296875 48.78125 52.59375 
" id="BitstreamVeraSans-Roman-63"/>
      <path d="M 9.421875 75.984375 
L 18.40625 75.984375 
L 18.40625 0 
L 9.421875 0 
z
" id="BitstreamVeraSans-Roman-6c"/>
      <path d="M 8.5 21.578125 
L 8.5 54.6875 
L 17.484375 54.6875 
L 17.484375 21.921875 
Q 17.484375 14.15625 20.5 10.265625 
Q 23.53125 6.390625 29.59375 6.390625 
Q 36.859375 6.390625 41.078125 11.03125 
Q 45.3125 15.671875 45.3125 23.6875 
L 45.3125 54.6875 
L 54.296875 54.6875 
L 54.296875 0 
L 45.3125 0 
L 45.3125 8.40625 
Q 42.046875 3.421875 37.71875 1 
Q 33.40625 -1.421875 27.6875 -1.421875 
Q 18.265625 -1.421875 13.375 4.4375 
Q 8.5 10.296875 8.5 21.578125 
" id="BitstreamVeraSans-Roman-75"/>
      <path d="M 45.40625 27.984375 
Q 45.40625 37.75 41.375 43.109375 
Q 37.359375 48.484375 30.078125 48.484375 
Q 22.859375 48.484375 18.828125 43.109375 
Q 14.796875 37.75 14.796875 27.984375 
Q 14.796875 18.265625 18.828125 12.890625 
Q 22.859375 7.515625 30.078125 7.515625 
Q 37.359375 7.515625 41.375 12.890625 
Q 45.40625 18.265625 45.40625 27.984375 
M 54.390625 6.78125 
Q 54.390625 -7.171875 48.1875 -13.984375 
Q 42 -20.796875 29.203125 -20.796875 
Q 24.46875 -20.796875 20.265625 -20.09375 
Q 16.0625 -19.390625 12.109375 -17.921875 
L 12.109375 -9.1875 
Q 16.0625 -11.328125 19.921875 -12.34375 
Q 23.78125 -13.375 27.78125 -13.375 
Q 36.625 -13.375 41.015625 -8.765625 
Q 45.40625 -4.15625 45.40625 5.171875 
L 45.40625 9.625 
Q 42.625 4.78125 38.28125 2.390625 
Q 33.9375 0 27.875 0 
Q 17.828125 0 11.671875 7.65625 
Q 5.515625 15.328125 5.515625 27.984375 
Q 5.515625 40.671875 11.671875 48.328125 
Q 17.828125 56 27.875 56 
Q 33.9375 56 38.28125 53.609375 
Q 42.625 51.21875 45.40625 46.390625 
L 45.40625 54.6875 
L 54.390625 54.6875 
z
" id="BitstreamVeraSans-Roman-67"/>
      <path d="M 48.6875 27.296875 
Q 48.6875 37.203125 44.609375 42.84375 
Q 40.53125 48.484375 33.40625 48.484375 
Q 26.265625 48.484375 22.1875 42.84375 
Q 18.109375 37.203125 18.109375 27.296875 
Q 18.109375 17.390625 22.1875 11.75 
Q 26.265625 6.109375 33.40625 6.109375 
Q 40.53125 6.109375 44.609375 11.75 
Q 48.6875 17.390625 48.6875 27.296875 
M 18.109375 46.390625 
Q 20.953125 51.265625 25.265625 53.625 
Q 29.59375 56 35.59375 56 
Q 45.5625 56 51.78125 48.09375 
Q 58.015625 40.1875 58.015625 27.296875 
Q 58.015625 14.40625 51.78125 6.484375 
Q 45.5625 -1.421875 35.59375 -1.421875 
Q 29.59375 -1.421875 25.265625 0.953125 
Q 20.953125 3.328125 18.109375 8.203125 
L 18.109375 0 
L 9.078125 0 
L 9.078125 75.984375 
L 18.109375 75.984375 
z
" id="BitstreamVeraSans-Roman-62"/>
     </defs>
     <g transform="translate(18.14175 274.302725)rotate(-90.0)scale(0.144 -0.144)">
      <use xlink:href="#BitstreamVeraSans-Roman-52"/>
      <use x="69.451171875" xlink:href="#BitstreamVeraSans-Roman-61"/>
      <use x="130.73046875" xlink:href="#BitstreamVeraSans-Roman-6e"/>
      <use x="194.109375" xlink:href="#BitstreamVeraSans-Roman-64"/>
      <use x="257.5859375" xlink:href="#BitstreamVeraSans-Roman-6f"/>
      <use x="318.767578125" xlink:href="#BitstreamVeraSans-Roman-6d"/>
      <use x="416.1796875" xlink:href="#BitstreamVeraSans-Roman-20"/>
      <use x="447.966796875" xlink:href="#BitstreamVeraSans-Roman-62"/>
      <use x="511.443359375" xlink:href="#BitstreamVeraSans-Roman-75"/>
      <use x="574.822265625" xlink:href="#BitstreamVeraSans-Roman-74"/>
      <use x="614.03125" xlink:href="#BitstreamVeraSans-Roman-20"/>
      <use x="645.818359375" xlink:href="#BitstreamVeraSans-Roman-64"/>
      <use x="709.294921875" xlink:href="#BitstreamVeraSans-Roman-65"/>
      <use x="770.818359375" xlink:href="#BitstreamVeraSans-Roman-63"/>
      <use x="825.798828125" xlink:href="#BitstreamVeraSans-Roman-61"/>
      <use x="887.078125" xlink:href="#BitstreamVeraSans-Roman-79"/>
      <use x="946.2578125" xlink:href="#BitstreamVeraSans-Roman-69"/>
      <use x="974.041015625" xlink:href="#BitstreamVeraSans-Roman-6e"/>
      <use x="1037.419921875" xlink:href="#BitstreamVeraSans-Roman-67"/>
      <use x="1100.896484375" xlink:href="#BitstreamVeraSans-Roman-20"/>
      <use x="1132.68359375" xlink:href="#BitstreamVeraSans-Roman-76"/>
      <use x="1191.86328125" xlink:href="#BitstreamVeraSans-Roman-61"/>
      <use x="1253.142578125" xlink:href="#BitstreamVeraSans-Roman-6c"/>
      <use x="1280.92578125" xlink:href="#BitstreamVeraSans-Roman-75"/>
      <use x="1344.3046875" xlink:href="#BitstreamVeraSans-Roman-65"/>
      <use x="1405.828125" xlink:href="#BitstreamVeraSans-Roman-73"/>
     </g>
    </g>
   </g>
   <g id="text_14">
    <!-- Qualitatively Different Lines -->
    <defs>
     <path d="M 39.40625 66.21875 
Q 28.65625 66.21875 22.328125 58.203125 
Q 16.015625 50.203125 16.015625 36.375 
Q 16.015625 22.609375 22.328125 14.59375 
Q 28.65625 6.59375 39.40625 6.59375 
Q 50.140625 6.59375 56.421875 14.59375 
Q 62.703125 22.609375 62.703125 36.375 
Q 62.703125 50.203125 56.421875 58.203125 
Q 50.140625 66.21875 39.40625 66.21875 
M 53.21875 1.3125 
L 66.21875 -12.890625 
L 54.296875 -12.890625 
L 43.5 -1.21875 
Q 41.890625 -1.3125 41.03125 -1.359375 
Q 40.1875 -1.421875 39.40625 -1.421875 
Q 24.03125 -1.421875 14.8125 8.859375 
Q 5.609375 19.140625 5.609375 36.375 
Q 5.609375 53.65625 14.8125 63.9375 
Q 24.03125 74.21875 39.40625 74.21875 
Q 54.734375 74.21875 63.90625 63.9375 
Q 73.09375 53.65625 73.09375 36.375 
Q 73.09375 23.6875 67.984375 14.640625 
Q 62.890625 5.609375 53.21875 1.3125 
" id="BitstreamVeraSans-Roman-51"/>
     <path d="M 19.671875 64.796875 
L 19.671875 8.109375 
L 31.59375 8.109375 
Q 46.6875 8.109375 53.6875 14.9375 
Q 60.6875 21.78125 60.6875 36.53125 
Q 60.6875 51.171875 53.6875 57.984375 
Q 46.6875 64.796875 31.59375 64.796875 
z
M 9.8125 72.90625 
L 30.078125 72.90625 
Q 51.265625 72.90625 61.171875 64.09375 
Q 71.09375 55.28125 71.09375 36.53125 
Q 71.09375 17.671875 61.125 8.828125 
Q 51.171875 0 30.078125 0 
L 9.8125 0 
z
" id="BitstreamVeraSans-Roman-44"/>
     <path d="M 9.8125 72.90625 
L 19.671875 72.90625 
L 19.671875 8.296875 
L 55.171875 8.296875 
L 55.171875 0 
L 9.8125 0 
z
" id="BitstreamVeraSans-Roman-4c"/>
     <path d="M 41.109375 46.296875 
Q 39.59375 47.171875 37.8125 47.578125 
Q 36.03125 48 33.890625 48 
Q 26.265625 48 22.1875 43.046875 
Q 18.109375 38.09375 18.109375 28.8125 
L 18.109375 0 
L 9.078125 0 
L 9.078125 54.6875 
L 18.109375 54.6875 
L 18.109375 46.1875 
Q 20.953125 51.171875 25.484375 53.578125 
Q 30.03125 56 36.53125 56 
Q 37.453125 56 38.578125 55.875 
Q 39.703125 55.765625 41.0625 55.515625 
z
" id="BitstreamVeraSans-Roman-72"/>
     <path d="M 37.109375 75.984375 
L 37.109375 68.5 
L 28.515625 68.5 
Q 23.6875 68.5 21.796875 66.546875 
Q 19.921875 64.59375 19.921875 59.515625 
L 19.921875 54.6875 
L 34.71875 54.6875 
L 34.71875 47.703125 
L 19.921875 47.703125 
L 19.921875 0 
L 10.890625 0 
L 10.890625 47.703125 
L 2.296875 47.703125 
L 2.296875 54.6875 
L 10.890625 54.6875 
L 10.890625 58.5 
Q 10.890625 67.625 15.140625 71.796875 
Q 19.390625 75.984375 28.609375 75.984375 
z
" id="BitstreamVeraSans-Roman-66"/>
    </defs>
    <g transform="translate(151.45485 20.3301)scale(0.1728 -0.1728)">
     <use xlink:href="#BitstreamVeraSans-Roman-51"/>
     <use x="78.7109375" xlink:href="#BitstreamVeraSans-Roman-75"/>
     <use x="142.08984375" xlink:href="#BitstreamVeraSans-Roman-61"/>
     <use x="203.369140625" xlink:href="#BitstreamVeraSans-Roman-6c"/>
     <use x="231.15234375" xlink:href="#BitstreamVeraSans-Roman-69"/>
     <use x="258.935546875" xlink:href="#BitstreamVeraSans-Roman-74"/>
     <use x="298.14453125" xlink:href="#BitstreamVeraSans-Roman-61"/>
     <use x="359.423828125" xlink:href="#BitstreamVeraSans-Roman-74"/>
     <use x="398.6328125" xlink:href="#BitstreamVeraSans-Roman-69"/>
     <use x="426.416015625" xlink:href="#BitstreamVeraSans-Roman-76"/>
     <use x="485.595703125" xlink:href="#BitstreamVeraSans-Roman-65"/>
     <use x="547.119140625" xlink:href="#BitstreamVeraSans-Roman-6c"/>
     <use x="574.90234375" xlink:href="#BitstreamVeraSans-Roman-79"/>
     <use x="634.08203125" xlink:href="#BitstreamVeraSans-Roman-20"/>
     <use x="665.869140625" xlink:href="#BitstreamVeraSans-Roman-44"/>
     <use x="742.87109375" xlink:href="#BitstreamVeraSans-Roman-69"/>
     <use x="770.654296875" xlink:href="#BitstreamVeraSans-Roman-66"/>
     <use x="805.859375" xlink:href="#BitstreamVeraSans-Roman-66"/>
     <use x="841.064453125" xlink:href="#BitstreamVeraSans-Roman-65"/>
     <use x="902.587890625" xlink:href="#BitstreamVeraSans-Roman-72"/>
     <use x="943.669921875" xlink:href="#BitstreamVeraSans-Roman-65"/>
     <use x="1005.193359375" xlink:href="#BitstreamVeraSans-Roman-6e"/>
     <use x="1068.572265625" xlink:href="#BitstreamVeraSans-Roman-74"/>
     <use x="1107.78125" xlink:href="#BitstreamVeraSans-Roman-20"/>
     <use x="1139.568359375" xlink:href="#BitstreamVeraSans-Roman-4c"/>
     <use x="1195.28125" xlink:href="#BitstreamVeraSans-Roman-69"/>
     <use x="1223.064453125" xlink:href="#BitstreamVeraSans-Roman-6e"/>
     <use x="1286.443359375" xlink:href="#BitstreamVeraSans-Roman-65"/>
     <use x="1347.966796875" xlink:href="#BitstreamVeraSans-Roman-73"/>
    </g>
   </g>
   <g id="legend_1">
    <g id="patch_7">
     <path d="M 56.21745 308.3321 
L 115.173546 308.3321 
Q 117.172746 308.3321 117.172746 306.3329 
L 117.172746 189.95447 
Q 117.172746 187.95527 115.173546 187.95527 
L 56.21745 187.95527 
Q 54.21825 187.95527 54.21825 189.95447 
L 54.21825 306.3329 
Q 54.21825 308.3321 56.21745 308.3321 
z
" style="fill:#ffffff;opacity:0.8;stroke:#000000;stroke-linejoin:miter;stroke-width:0.5;"/>
    </g>
    <g id="line2d_31">
     <path d="M 61.21545 196.050468 
L 75.20985 196.050468 
" style="fill:none;stroke:#e41a1c;stroke-linecap:square;stroke-width:2.0;"/>
    </g>
    <g id="line2d_32"/>
    <g id="text_15">
     <!-- Label -->
     <g transform="translate(86.20545 199.549068125)scale(0.09996 -0.09996)">
      <use xlink:href="#BitstreamVeraSans-Roman-4c"/>
      <use x="55.712890625" xlink:href="#BitstreamVeraSans-Roman-61"/>
      <use x="116.9921875" xlink:href="#BitstreamVeraSans-Roman-62"/>
      <use x="180.46875" xlink:href="#BitstreamVeraSans-Roman-65"/>
      <use x="241.9921875" xlink:href="#BitstreamVeraSans-Roman-6c"/>
     </g>
    </g>
    <g id="line2d_33">
     <path d="M 61.21545 210.722722 
L 75.20985 210.722722 
" style="fill:none;stroke:#377eb8;stroke-linecap:square;stroke-width:2.0;"/>
    </g>
    <g id="line2d_34"/>
    <g id="text_16">
     <!-- Label -->
     <g transform="translate(86.20545 214.221321875)scale(0.09996 -0.09996)">
      <use xlink:href="#BitstreamVeraSans-Roman-4c"/>
      <use x="55.712890625" xlink:href="#BitstreamVeraSans-Roman-61"/>
      <use x="116.9921875" xlink:href="#BitstreamVeraSans-Roman-62"/>
      <use x="180.46875" xlink:href="#BitstreamVeraSans-Roman-65"/>
      <use x="241.9921875" xlink:href="#BitstreamVeraSans-Roman-6c"/>
     </g>
    </g>
    <g id="line2d_35">
     <path d="M 61.21545 225.394976 
L 75.20985 225.394976 
" style="fill:none;stroke:#4daf4a;stroke-linecap:square;stroke-width:2.0;"/>
    </g>
    <g id="line2d_36"/>
    <g id="text_17">
     <!-- Label -->
     <g transform="translate(86.20545 228.893575625)scale(0.09996 -0.09996)">
      <use xlink:href="#BitstreamVeraSans-Roman-4c"/>
      <use x="55.712890625" xlink:href="#BitstreamVeraSans-Roman-61"/>
      <use x="116.9921875" xlink:href="#BitstreamVeraSans-Roman-62"/>
      <use x="180.46875" xlink:href="#BitstreamVeraSans-Roman-65"/>
      <use x="241.9921875" xlink:href="#BitstreamVeraSans-Roman-6c"/>
     </g>
    </g>
    <g id="line2d_37">
     <path d="M 61.21545 240.067229 
L 75.20985 240.067229 
" style="fill:none;stroke:#984ea3;stroke-linecap:square;stroke-width:2.0;"/>
    </g>
    <g id="line2d_38"/>
    <g id="text_18">
     <!-- Label -->
     <g transform="translate(86.20545 243.565829375)scale(0.09996 -0.09996)">
      <use xlink:href="#BitstreamVeraSans-Roman-4c"/>
      <use x="55.712890625" xlink:href="#BitstreamVeraSans-Roman-61"/>
      <use x="116.9921875" xlink:href="#BitstreamVeraSans-Roman-62"/>
      <use x="180.46875" xlink:href="#BitstreamVeraSans-Roman-65"/>
      <use x="241.9921875" xlink:href="#BitstreamVeraSans-Roman-6c"/>
     </g>
    </g>
    <g id="line2d_39">
     <path d="M 61.21545 254.739483 
L 75.20985 254.739483 
" style="fill:none;stroke:#ff7f00;stroke-linecap:square;stroke-width:2.0;"/>
    </g>
    <g id="line2d_40"/>
    <g id="text_19">
     <!-- Label -->
     <g transform="translate(86.20545 258.238083125)scale(0.09996 -0.09996)">
      <use xlink:href="#BitstreamVeraSans-Roman-4c"/>
      <use x="55.712890625" xlink:href="#BitstreamVeraSans-Roman-61"/>
      <use x="116.9921875" xlink:href="#BitstreamVeraSans-Roman-62"/>
      <use x="180.46875" xlink:href="#BitstreamVeraSans-Roman-65"/>
      <use x="241.9921875" xlink:href="#BitstreamVeraSans-Roman-6c"/>
     </g>
    </g>
    <g id="line2d_41">
     <path d="M 61.21545 269.411737 
L 75.20985 269.411737 
" style="fill:none;stroke:#a65628;stroke-linecap:square;stroke-width:2.0;"/>
    </g>
    <g id="line2d_42"/>
    <g id="text_20">
     <!-- Label -->
     <g transform="translate(86.20545 272.910336875)scale(0.09996 -0.09996)">
      <use xlink:href="#BitstreamVeraSans-Roman-4c"/>
      <use x="55.712890625" xlink:href="#BitstreamVeraSans-Roman-61"/>
      <use x="116.9921875" xlink:href="#BitstreamVeraSans-Roman-62"/>
      <use x="180.46875" xlink:href="#BitstreamVeraSans-Roman-65"/>
      <use x="241.9921875" xlink:href="#BitstreamVeraSans-Roman-6c"/>
     </g>
    </g>
    <g id="line2d_43">
     <path d="M 61.21545 284.083991 
L 75.20985 284.083991 
" style="fill:none;stroke:#f781bf;stroke-linecap:square;stroke-width:2.0;"/>
    </g>
    <g id="line2d_44"/>
    <g id="text_21">
     <!-- Label -->
     <g transform="translate(86.20545 287.582590625)scale(0.09996 -0.09996)">
      <use xlink:href="#BitstreamVeraSans-Roman-4c"/>
      <use x="55.712890625" xlink:href="#BitstreamVeraSans-Roman-61"/>
      <use x="116.9921875" xlink:href="#BitstreamVeraSans-Roman-62"/>
      <use x="180.46875" xlink:href="#BitstreamVeraSans-Roman-65"/>
      <use x="241.9921875" xlink:href="#BitstreamVeraSans-Roman-6c"/>
     </g>
    </g>
    <g id="line2d_45">
     <path d="M 61.21545 298.756244 
L 75.20985 298.756244 
" style="fill:none;stroke:#999999;stroke-linecap:square;stroke-width:2.0;"/>
    </g>
    <g id="line2d_46"/>
    <g id="text_22">
     <!-- Label -->
     <g transform="translate(86.20545 302.254844375)scale(0.09996 -0.09996)">
      <use xlink:href="#BitstreamVeraSans-Roman-4c"/>
      <use x="55.712890625" xlink:href="#BitstreamVeraSans-Roman-61"/>
      <use x="116.9921875" xlink:href="#BitstreamVeraSans-Roman-62"/>
      <use x="180.46875" xlink:href="#BitstreamVeraSans-Roman-65"/>
      <use x="241.9921875" xlink:href="#BitstreamVeraSans-Roman-6c"/>
     </g>
    </g>
   </g>
  </g>
 </g>
 <defs>
  <clipPath id="pf607d164aa">
   <rect height="288.0" width="446.4" x="49.22025" y="25.3301"/>
  </clipPath>
 </defs>
</svg>
