<?xml version="1.0" encoding="utf-8" standalone="no"?>
<!DOCTYPE svg PUBLIC "-//W3C//DTD SVG 1.1//EN"
  "http://www.w3.org/Graphics/SVG/1.1/DTD/svg11.dtd">
<!-- Created with matplotlib (http://matplotlib.org/) -->
<svg height="377pt" version="1.1" viewBox="0 0 505 377" width="505pt" xmlns="http://www.w3.org/2000/svg" xmlns:xlink="http://www.w3.org/1999/xlink">
 <defs>
  <style type="text/css">
*{stroke-linecap:butt;stroke-linejoin:round;stroke-miterlimit:100000;}
  </style>
 </defs>
 <g id="figure_1">
  <g id="patch_1">
   <path d="M 0 377.642188 
L 505.711562 377.642188 
L 505.711562 0 
L 0 0 
z
" style="fill:#ffffff;"/>
  </g>
  <g id="axes_1">
   <g id="patch_2">
    <path d="M 45.749063 338.118125 
L 492.149063 338.118125 
L 492.149063 21.318125 
L 45.749063 21.318125 
z
" style="fill:#ffffff;"/>
   </g>
   <g id="line2d_1">
    <path clip-path="url(#p8a76a910e2)" d="M 45.749062 22.735383 
L 47.242039 23.082025 
L 48.735016 24.19628 
L 50.227992 23.205733 
L 51.720969 22.58132 
L 53.213945 23.614138 
L 54.706922 23.537393 
L 56.199899 24.873865 
L 57.692875 24.676365 
L 59.185852 22.603419 
L 60.678828 24.534287 
L 62.171805 24.97477 
L 63.664782 24.838787 
L 65.157758 24.213367 
L 66.650735 24.242394 
L 68.143711 24.878768 
L 69.636688 25.026117 
L 71.129665 25.722787 
L 72.622641 30.207403 
L 74.115618 26.36835 
L 75.608594 27.152406 
L 77.101571 25.202862 
L 78.594547 27.138745 
L 80.087524 28.230875 
L 81.580501 29.897443 
L 83.073477 29.988558 
L 84.566454 26.960254 
L 86.05943 29.07421 
L 87.552407 34.029188 
L 89.045384 31.177425 
L 90.53836 32.45075 
L 92.031337 26.803987 
L 93.524313 34.510989 
L 95.01729 31.450015 
L 96.510267 32.285168 
L 98.003243 36.611592 
L 99.49622 33.471529 
L 100.989196 39.13693 
L 102.482173 36.517103 
L 103.975149 39.87802 
L 105.468126 33.8454 
L 106.961103 37.448248 
L 109.947056 47.189628 
L 111.440032 45.399691 
L 112.933009 48.094966 
L 114.425986 39.60626 
L 115.918962 38.847508 
L 117.411939 44.424538 
L 118.904915 59.178716 
L 120.397892 45.372861 
L 121.890869 55.998572 
L 123.383845 50.675676 
L 124.876822 54.44357 
L 126.369798 49.460934 
L 127.862775 79.581183 
L 129.355751 64.674057 
L 130.848728 83.168938 
L 132.341705 97.613678 
L 133.834681 65.138523 
L 135.327658 69.298389 
L 136.820634 102.480333 
L 138.313611 118.596301 
L 139.806588 72.936231 
L 141.299564 76.569247 
L 142.792541 122.20901 
L 144.285517 97.912068 
L 145.778494 111.537975 
L 147.271471 105.676389 
L 148.764447 103.114657 
L 150.257424 90.699051 
L 151.7504 106.855447 
L 153.243377 143.63043 
L 154.736353 135.427255 
L 156.22933 151.561175 
L 157.722307 190.20703 
L 159.215283 108.072019 
L 160.70826 135.280804 
L 162.201236 189.26637 
L 163.694213 147.551809 
L 165.18719 173.128396 
L 166.680166 177.590316 
L 168.173143 172.000978 
L 169.666119 142.8422 
L 171.159096 138.909585 
L 172.652073 188.672704 
L 174.145049 195.410854 
L 175.638026 267.479629 
L 177.131002 238.507588 
L 178.623979 249.352417 
L 180.116955 241.732639 
L 181.609932 247.52885 
L 183.102909 245.10271 
L 184.595885 248.793866 
L 186.088862 300.180603 
L 187.581838 305.781751 
L 189.074815 234.682431 
L 190.567792 269.982804 
L 192.060768 335.693786 
L 193.553745 328.768337 
L 195.046721 276.314056 
L 196.539698 315.357493 
L 198.032675 315.036284 
L 199.525651 305.853061 
L 201.018628 307.592677 
L 202.511604 334.933232 
L 204.004581 290.315129 
L 205.497557 323.983752 
L 206.990534 329.870669 
L 208.483511 334.787896 
L 209.976487 335.367453 
L 211.469464 318.208527 
L 212.96244 336.024334 
L 214.455417 337.585932 
L 215.948394 327.000419 
L 217.44137 337.492909 
L 218.934347 330.994809 
L 220.427323 337.016327 
L 221.9203 338.11457 
L 223.413277 338.102465 
L 224.906253 337.628322 
L 226.39923 336.310041 
L 227.892206 337.851056 
L 229.385183 337.823677 
L 230.878159 338.105965 
L 232.371136 337.491111 
L 233.864113 338.118064 
L 492.149062 338.118125 
L 492.149062 338.118125 
" style="fill:none;stroke:#0000ff;stroke-linecap:square;stroke-width:1.75;"/>
   </g>
   <g id="line2d_2">
    <path clip-path="url(#p8a76a910e2)" d="M 45.749062 21.579001 
L 47.242039 21.744444 
L 48.735016 21.804592 
L 50.227992 21.610896 
L 51.720969 21.702144 
L 53.213945 21.613183 
L 54.706922 21.840158 
L 57.692875 21.551624 
L 59.185852 21.668897 
L 60.678828 22.123962 
L 62.171805 22.00311 
L 63.664782 22.17514 
L 65.157758 21.821378 
L 66.650735 22.225087 
L 69.636688 22.254789 
L 71.129665 22.576005 
L 72.622641 22.263659 
L 74.115618 22.657304 
L 75.608594 22.434174 
L 77.101571 22.81263 
L 78.594547 22.890738 
L 80.087524 22.682329 
L 81.580501 22.257934 
L 83.073477 22.828729 
L 84.566454 22.483956 
L 86.05943 22.701265 
L 87.552407 23.301777 
L 89.045384 24.062653 
L 90.53836 23.871933 
L 92.031337 22.704135 
L 93.524313 23.679391 
L 95.01729 24.105005 
L 96.510267 24.1858 
L 98.003243 23.923844 
L 99.49622 24.951359 
L 100.989196 25.636443 
L 102.482173 25.290292 
L 103.975149 25.774674 
L 105.468126 25.990265 
L 106.961103 29.902817 
L 108.454079 24.983221 
L 109.947056 28.180352 
L 111.440032 26.09985 
L 112.933009 26.15089 
L 114.425986 28.730778 
L 115.918962 29.429167 
L 117.411939 29.617522 
L 118.904915 26.4304 
L 120.397892 25.218054 
L 121.890869 32.021746 
L 123.383845 27.385014 
L 124.876822 28.478354 
L 126.369798 30.742073 
L 127.862775 29.045615 
L 129.355751 29.201178 
L 130.848728 30.932994 
L 132.341705 31.821449 
L 133.834681 31.821438 
L 135.327658 27.717208 
L 136.820634 32.494861 
L 138.313611 36.087895 
L 139.806588 30.45211 
L 141.299564 42.708333 
L 142.792541 32.354286 
L 144.285517 41.952217 
L 145.778494 36.902044 
L 147.271471 34.332819 
L 148.764447 45.910457 
L 150.257424 45.955125 
L 151.7504 43.990712 
L 153.243377 53.804569 
L 154.736353 44.92149 
L 156.22933 48.664825 
L 157.722307 54.40232 
L 159.215283 53.919041 
L 160.70826 53.123613 
L 162.201236 42.268507 
L 163.694213 49.742731 
L 165.18719 94.293271 
L 166.680166 56.122512 
L 168.173143 75.230553 
L 169.666119 79.774898 
L 171.159096 61.807433 
L 172.652073 68.555865 
L 174.145049 99.734544 
L 175.638026 76.12409 
L 177.131002 129.23505 
L 178.623979 79.030095 
L 180.116955 137.327464 
L 181.609932 90.673022 
L 183.102909 88.019811 
L 184.595885 91.614997 
L 186.088862 128.228715 
L 187.581838 161.057569 
L 189.074815 162.171491 
L 190.567792 152.631252 
L 192.060768 133.172967 
L 193.553745 178.586149 
L 195.046721 172.453428 
L 196.539698 144.382472 
L 198.032675 134.274886 
L 199.525651 205.766266 
L 201.018628 247.914027 
L 202.511604 154.980438 
L 204.004581 263.489443 
L 205.497557 209.397576 
L 206.990534 161.235357 
L 208.483511 211.885377 
L 209.976487 224.851045 
L 211.469464 241.413289 
L 212.96244 295.849327 
L 214.455417 221.795306 
L 215.948394 257.322457 
L 217.44137 219.231915 
L 218.934347 296.174432 
L 220.427323 296.521858 
L 221.9203 319.497 
L 223.413277 312.584856 
L 224.906253 306.531703 
L 226.39923 289.207214 
L 227.892206 334.446918 
L 229.385183 320.131348 
L 230.878159 332.826867 
L 232.371136 318.401888 
L 233.864113 317.852721 
L 235.357089 329.686523 
L 236.850066 327.890888 
L 238.343042 337.638387 
L 239.836019 337.5704 
L 241.328996 337.924143 
L 242.821972 337.575472 
L 244.314949 336.641046 
L 245.807925 336.296945 
L 247.300902 335.6885 
L 248.793879 336.589672 
L 250.286855 338.094658 
L 251.779832 338.015927 
L 256.258761 338.117219 
L 257.751738 337.041979 
L 259.244715 332.81264 
L 260.737691 338.092633 
L 268.202574 338.118124 
L 492.149062 338.118125 
L 492.149062 338.118125 
" style="fill:none;stroke:#008000;stroke-linecap:square;stroke-width:1.75;"/>
   </g>
   <g id="line2d_3">
    <path clip-path="url(#p8a76a910e2)" d="M 45.749062 21.384015 
L 53.213945 21.428568 
L 56.199899 21.4274 
L 60.678828 21.439643 
L 74.115618 21.562092 
L 77.101571 21.65355 
L 78.594547 21.493027 
L 81.580501 21.547299 
L 83.073477 21.651974 
L 86.05943 21.555873 
L 87.552407 21.824924 
L 90.53836 21.852065 
L 95.01729 21.919919 
L 96.510267 22.133221 
L 98.003243 21.711714 
L 99.49622 21.935828 
L 100.989196 22.338525 
L 102.482173 21.908703 
L 103.975149 21.853087 
L 108.454079 22.640063 
L 109.947056 22.350069 
L 112.933009 22.282906 
L 114.425986 23.015223 
L 115.918962 22.823084 
L 117.411939 22.173052 
L 118.904915 22.77008 
L 120.397892 22.858267 
L 121.890869 23.351229 
L 123.383845 22.90939 
L 124.876822 23.033606 
L 126.369798 24.142927 
L 127.862775 23.221507 
L 129.355751 24.092029 
L 130.848728 23.103711 
L 132.341705 22.963247 
L 133.834681 24.275611 
L 135.327658 24.704851 
L 136.820634 25.488888 
L 138.313611 24.138314 
L 139.806588 24.474179 
L 141.299564 25.020986 
L 144.285517 24.534283 
L 145.778494 23.579592 
L 148.764447 24.609258 
L 150.257424 26.440641 
L 151.7504 25.128454 
L 153.243377 25.954048 
L 154.736353 31.568685 
L 156.22933 28.104296 
L 157.722307 27.534289 
L 159.215283 28.447459 
L 160.70826 30.617872 
L 162.201236 29.687747 
L 163.694213 31.558348 
L 165.18719 31.94821 
L 166.680166 31.93406 
L 168.173143 28.715123 
L 169.666119 31.524633 
L 171.159096 30.278522 
L 172.652073 54.71356 
L 174.145049 34.859306 
L 175.638026 37.462867 
L 177.131002 33.877678 
L 178.623979 40.427846 
L 180.116955 40.256252 
L 181.609932 38.343933 
L 183.102909 51.983008 
L 184.595885 43.313373 
L 186.088862 48.50602 
L 187.581838 37.712622 
L 189.074815 42.28211 
L 190.567792 46.037295 
L 192.060768 43.492913 
L 195.046721 44.333013 
L 196.539698 53.088274 
L 198.032675 50.327916 
L 199.525651 75.610347 
L 201.018628 67.125741 
L 202.511604 74.942961 
L 204.004581 87.941332 
L 205.497557 88.69671 
L 206.990534 75.124366 
L 208.483511 64.740787 
L 209.976487 74.814159 
L 211.469464 65.509589 
L 212.96244 91.919444 
L 214.455417 107.797655 
L 215.948394 96.648433 
L 217.44137 131.565803 
L 218.934347 110.049782 
L 220.427323 128.225101 
L 221.9203 117.010376 
L 223.413277 162.426925 
L 224.906253 169.218546 
L 226.39923 87.531794 
L 227.892206 136.56085 
L 229.385183 152.809117 
L 230.878159 118.401927 
L 232.371136 148.999147 
L 233.864113 152.64792 
L 235.357089 229.691685 
L 236.850066 201.245194 
L 238.343042 204.283756 
L 239.836019 199.476035 
L 241.328996 193.399378 
L 242.821972 213.402943 
L 244.314949 258.995372 
L 245.807925 222.77145 
L 247.300902 272.769664 
L 248.793879 233.459519 
L 250.286855 255.348406 
L 251.779832 313.53658 
L 253.272808 298.961505 
L 254.765785 259.825194 
L 256.258761 303.244165 
L 257.751738 321.733097 
L 259.244715 307.465705 
L 260.737691 286.859433 
L 262.230668 328.127586 
L 263.723644 304.265221 
L 265.216621 315.626924 
L 266.709598 323.017057 
L 268.202574 335.631982 
L 269.695551 325.503246 
L 271.188527 331.352053 
L 272.681504 331.722462 
L 274.174481 333.190674 
L 275.667457 335.755183 
L 277.160434 335.966419 
L 278.65341 336.942399 
L 280.146387 338.11519 
L 281.639364 335.877813 
L 283.13234 337.461343 
L 284.625317 337.970853 
L 286.118293 338.118067 
L 287.61127 337.329325 
L 289.104246 337.235681 
L 290.597223 338.118117 
L 295.076153 338.117863 
L 410.03535 338.118125 
L 492.149062 338.118125 
L 492.149062 338.118125 
" style="fill:none;stroke:#ff0000;stroke-linecap:square;stroke-width:1.75;"/>
   </g>
   <g id="line2d_4">
    <path clip-path="url(#p8a76a910e2)" d="M 45.749062 21.337625 
L 71.129665 21.354947 
L 77.101571 21.404733 
L 84.566454 21.431683 
L 105.468126 21.534499 
L 108.454079 21.584168 
L 111.440032 21.61008 
L 112.933009 21.827924 
L 114.425986 21.617795 
L 115.918962 21.798691 
L 117.411939 21.86709 
L 118.904915 21.71396 
L 120.397892 21.852928 
L 121.890869 22.225405 
L 123.383845 21.89299 
L 124.876822 21.979491 
L 127.862775 21.809472 
L 129.355751 22.033978 
L 130.848728 21.870913 
L 132.341705 21.82225 
L 133.834681 22.007843 
L 135.327658 22.065475 
L 136.820634 22.84606 
L 138.313611 21.855819 
L 139.806588 22.344149 
L 141.299564 22.189785 
L 142.792541 22.397868 
L 144.285517 22.923163 
L 145.778494 23.002975 
L 147.271471 22.595696 
L 148.764447 23.00025 
L 150.257424 23.079867 
L 151.7504 22.718394 
L 153.243377 22.805074 
L 154.736353 23.51006 
L 156.22933 25.170132 
L 157.722307 23.719109 
L 159.215283 23.372478 
L 160.70826 23.559978 
L 162.201236 25.53409 
L 163.694213 24.720158 
L 165.18719 24.701719 
L 166.680166 25.449452 
L 168.173143 24.610772 
L 169.666119 24.902934 
L 171.159096 25.391852 
L 172.652073 23.891071 
L 174.145049 25.21997 
L 175.638026 25.066138 
L 177.131002 25.851278 
L 178.623979 26.340002 
L 180.116955 27.08294 
L 184.595885 27.238114 
L 186.088862 28.280076 
L 187.581838 30.519959 
L 189.074815 28.384352 
L 190.567792 28.848994 
L 192.060768 34.27177 
L 193.553745 34.828174 
L 195.046721 26.444392 
L 196.539698 29.130849 
L 198.032675 35.109148 
L 199.525651 40.035328 
L 201.018628 37.605026 
L 202.511604 36.424239 
L 204.004581 40.227715 
L 205.497557 47.866675 
L 206.990534 32.815807 
L 208.483511 41.794607 
L 209.976487 59.609389 
L 211.469464 61.646094 
L 212.96244 41.081193 
L 214.455417 44.548917 
L 215.948394 37.899221 
L 217.44137 63.640423 
L 218.934347 64.816704 
L 220.427323 65.498214 
L 221.9203 65.71275 
L 223.413277 70.196969 
L 224.906253 69.374085 
L 226.39923 67.041453 
L 227.892206 88.450423 
L 229.385183 81.950525 
L 230.878159 100.93037 
L 232.371136 111.453217 
L 233.864113 96.415765 
L 235.357089 101.74429 
L 236.850066 85.530769 
L 238.343042 111.941788 
L 239.836019 106.606887 
L 241.328996 100.584717 
L 242.821972 178.604736 
L 244.314949 196.768219 
L 245.807925 130.814015 
L 247.300902 137.760758 
L 248.793879 187.033724 
L 250.286855 153.938288 
L 251.779832 146.163621 
L 253.272808 199.015688 
L 254.765785 200.008074 
L 256.258761 207.952677 
L 257.751738 174.969699 
L 259.244715 221.927861 
L 260.737691 218.810321 
L 262.230668 241.671359 
L 263.723644 215.725124 
L 265.216621 260.040693 
L 266.709598 191.269054 
L 268.202574 245.530599 
L 269.695551 247.135373 
L 271.188527 298.532988 
L 272.681504 305.678825 
L 274.174481 315.819812 
L 275.667457 276.703492 
L 277.160434 316.813613 
L 278.65341 287.464947 
L 280.146387 296.493336 
L 281.639364 302.066458 
L 283.13234 328.36788 
L 284.625317 315.769741 
L 286.118293 336.562379 
L 287.61127 328.707053 
L 289.104246 333.035901 
L 290.597223 326.148754 
L 292.0902 328.46161 
L 293.583176 333.067783 
L 295.076153 336.339071 
L 296.569129 325.351345 
L 298.062106 330.147561 
L 299.555083 337.186406 
L 302.541036 336.011385 
L 304.034012 337.749542 
L 305.526989 337.617818 
L 307.019966 337.979122 
L 308.512942 336.985748 
L 310.005919 337.707723 
L 311.498895 338.080288 
L 317.470802 338.118125 
L 321.949731 338.117935 
L 492.149062 338.118125 
L 492.149062 338.118125 
" style="fill:none;stroke:#00bfbf;stroke-linecap:square;stroke-width:1.75;"/>
   </g>
   <g id="line2d_5">
    <path clip-path="url(#p8a76a910e2)" d="M 45.749062 21.32194 
L 123.383845 21.434924 
L 127.862775 21.473423 
L 133.834681 21.538002 
L 136.820634 21.61931 
L 138.313611 21.480697 
L 142.792541 21.66371 
L 144.285517 21.730818 
L 148.764447 21.570951 
L 150.257424 21.760471 
L 157.722307 21.66818 
L 159.215283 21.865598 
L 160.70826 21.574399 
L 162.201236 21.844825 
L 163.694213 21.841809 
L 165.18719 22.070143 
L 166.680166 21.865035 
L 168.173143 22.014094 
L 169.666119 22.430856 
L 171.159096 22.035678 
L 172.652073 22.228387 
L 174.145049 22.133908 
L 175.638026 22.582572 
L 177.131002 22.029568 
L 178.623979 22.073253 
L 180.116955 21.916219 
L 181.609932 22.066059 
L 183.102909 22.425549 
L 184.595885 22.569241 
L 186.088862 22.475807 
L 189.074815 22.888065 
L 195.046721 22.8661 
L 196.539698 24.337514 
L 198.032675 24.586941 
L 199.525651 24.012847 
L 201.018628 24.356452 
L 202.511604 23.945448 
L 204.004581 24.419698 
L 205.497557 23.422582 
L 206.990534 24.183468 
L 208.483511 24.062702 
L 209.976487 24.609406 
L 211.469464 26.158386 
L 212.96244 23.850537 
L 214.455417 26.07766 
L 215.948394 24.31972 
L 218.934347 27.097575 
L 220.427323 27.85561 
L 221.9203 27.917198 
L 223.413277 29.242328 
L 224.906253 28.38132 
L 226.39923 29.0744 
L 227.892206 28.542702 
L 229.385183 28.994568 
L 230.878159 30.063533 
L 232.371136 33.549678 
L 233.864113 37.871316 
L 235.357089 29.225521 
L 236.850066 33.146299 
L 238.343042 43.300767 
L 239.836019 40.958806 
L 241.328996 42.636638 
L 242.821972 41.697445 
L 245.807925 43.571518 
L 247.300902 47.94836 
L 248.793879 50.540979 
L 250.286855 51.292719 
L 251.779832 53.43664 
L 253.272808 65.201566 
L 254.765785 41.902335 
L 256.258761 48.241723 
L 257.751738 80.504882 
L 259.244715 66.279699 
L 260.737691 77.647715 
L 262.230668 58.344744 
L 263.723644 58.059822 
L 265.216621 83.651014 
L 266.709598 72.697752 
L 268.202574 97.556794 
L 269.695551 88.468736 
L 271.188527 118.391246 
L 272.681504 78.342375 
L 274.174481 128.827194 
L 275.667457 142.067689 
L 277.160434 84.568979 
L 278.65341 190.653295 
L 280.146387 101.94622 
L 281.639364 101.861127 
L 283.13234 113.755155 
L 284.625317 145.067651 
L 286.118293 147.04846 
L 287.61127 139.985455 
L 289.104246 121.763738 
L 290.597223 174.86518 
L 292.0902 168.928995 
L 293.583176 215.881566 
L 295.076153 163.625459 
L 296.569129 221.395386 
L 298.062106 209.12723 
L 299.555083 169.507901 
L 301.048059 238.205084 
L 302.541036 248.53085 
L 304.034012 158.948889 
L 305.526989 237.128289 
L 307.019966 214.409139 
L 308.512942 227.931705 
L 310.005919 278.030958 
L 311.498895 285.606179 
L 312.991872 272.025349 
L 314.484848 256.928796 
L 315.977825 307.247747 
L 317.470802 300.53169 
L 318.963778 331.836608 
L 320.456755 263.738034 
L 321.949731 273.326298 
L 323.442708 293.772001 
L 324.935685 304.099568 
L 326.428661 329.62011 
L 327.921638 328.714292 
L 329.414614 334.941274 
L 330.907591 330.944368 
L 332.400568 337.701327 
L 333.893544 323.697646 
L 335.386521 333.465403 
L 336.879497 320.457022 
L 338.372474 337.032979 
L 339.86545 337.809322 
L 341.358427 337.339147 
L 342.851404 338.108012 
L 344.34438 330.259753 
L 345.837357 337.705246 
L 347.330333 331.260128 
L 348.82331 338.10405 
L 350.316287 337.347388 
L 351.809263 335.185136 
L 353.30224 337.959351 
L 354.795216 338.076147 
L 356.288193 338.074411 
L 357.78117 337.870038 
L 360.767123 338.118064 
L 362.260099 337.894935 
L 363.753076 338.118071 
L 365.246052 338.01822 
L 368.232006 338.118039 
L 492.149062 338.118125 
L 492.149062 338.118125 
" style="fill:none;stroke:#bf00bf;stroke-linecap:square;stroke-width:1.75;"/>
   </g>
   <g id="line2d_6">
    <path clip-path="url(#p8a76a910e2)" d="M 45.749062 21.318931 
L 160.70826 21.410059 
L 166.680166 21.468966 
L 169.666119 21.416655 
L 171.159096 21.603145 
L 172.652073 21.400923 
L 178.623979 21.496637 
L 181.609932 21.48563 
L 183.102909 21.555487 
L 184.595885 21.485818 
L 186.088862 21.597462 
L 189.074815 21.532537 
L 192.060768 21.89976 
L 193.553745 21.62712 
L 195.046721 21.696255 
L 196.539698 21.555858 
L 199.525651 21.900318 
L 201.018628 21.67154 
L 204.004581 22.127482 
L 206.990534 21.779633 
L 208.483511 22.093411 
L 209.976487 22.283534 
L 212.96244 21.86366 
L 214.455417 22.154623 
L 215.948394 21.773096 
L 217.44137 22.60359 
L 218.934347 22.327349 
L 220.427323 22.207273 
L 221.9203 22.888403 
L 223.413277 22.285177 
L 224.906253 22.268069 
L 226.39923 22.523544 
L 227.892206 23.665174 
L 229.385183 22.291899 
L 230.878159 22.780972 
L 232.371136 23.496837 
L 233.864113 23.174739 
L 235.357089 24.290858 
L 236.850066 25.205566 
L 238.343042 22.97786 
L 239.836019 23.449959 
L 241.328996 23.282897 
L 242.821972 23.889758 
L 244.314949 26.051454 
L 245.807925 24.934871 
L 247.300902 23.251821 
L 248.793879 26.840986 
L 250.286855 27.458763 
L 251.779832 26.931752 
L 253.272808 26.085815 
L 254.765785 27.629177 
L 256.258761 26.269561 
L 259.244715 26.259412 
L 260.737691 28.36867 
L 262.230668 25.965031 
L 263.723644 29.270053 
L 265.216621 31.878796 
L 266.709598 27.937399 
L 268.202574 26.358791 
L 269.695551 27.072235 
L 271.188527 28.944415 
L 272.681504 37.824905 
L 274.174481 28.027154 
L 275.667457 39.94196 
L 277.160434 33.716148 
L 278.65341 37.575005 
L 280.146387 35.910344 
L 281.639364 41.90072 
L 283.13234 36.066753 
L 284.625317 33.760722 
L 286.118293 44.930709 
L 287.61127 53.266307 
L 289.104246 45.73109 
L 290.597223 54.370764 
L 292.0902 45.469693 
L 293.583176 38.583385 
L 295.076153 52.415303 
L 296.569129 58.399861 
L 298.062106 47.577805 
L 299.555083 43.872231 
L 301.048059 49.413962 
L 302.541036 82.341039 
L 304.034012 82.841061 
L 305.526989 53.783389 
L 307.019966 61.240818 
L 308.512942 64.648328 
L 310.005919 64.011417 
L 311.498895 74.59293 
L 312.991872 75.771844 
L 314.484848 64.546081 
L 315.977825 51.093802 
L 317.470802 100.813927 
L 318.963778 83.620221 
L 320.456755 92.745992 
L 321.949731 88.305724 
L 323.442708 145.63864 
L 324.935685 90.184777 
L 326.428661 126.887039 
L 327.921638 105.032086 
L 329.414614 117.859623 
L 330.907591 152.760895 
L 332.400568 118.743711 
L 333.893544 166.635408 
L 335.386521 136.389374 
L 336.879497 179.670042 
L 338.372474 234.402841 
L 339.86545 225.025705 
L 341.358427 152.681181 
L 342.851404 192.097229 
L 344.34438 227.035158 
L 345.837357 144.462521 
L 347.330333 203.794719 
L 348.82331 193.550408 
L 350.316287 276.874564 
L 351.809263 258.305797 
L 354.795216 232.862121 
L 356.288193 283.551948 
L 357.78117 251.597969 
L 359.274146 307.250569 
L 360.767123 303.807353 
L 362.260099 295.666454 
L 363.753076 285.61494 
L 365.246052 230.494369 
L 366.739029 322.492041 
L 368.232006 329.113923 
L 369.724982 327.199461 
L 371.217959 326.168541 
L 372.710935 306.965884 
L 374.203912 324.047985 
L 375.696889 322.032326 
L 377.189865 336.935836 
L 378.682842 328.26854 
L 380.175818 336.561934 
L 381.668795 336.67665 
L 383.161772 337.065466 
L 384.654748 335.551931 
L 386.147725 331.384406 
L 389.133678 338.111411 
L 390.626654 338.086505 
L 393.612608 337.62862 
L 395.105584 337.83081 
L 396.598561 337.197371 
L 398.091537 338.093081 
L 405.55642 338.117655 
L 492.149062 338.118125 
L 492.149062 338.118125 
" style="fill:none;stroke:#bfbf00;stroke-linecap:square;stroke-width:1.75;"/>
   </g>
   <g id="line2d_7">
    <path clip-path="url(#p8a76a910e2)" d="M 45.749062 21.31826 
L 177.131002 21.371511 
L 178.623979 21.498092 
L 180.116955 21.365564 
L 198.032675 21.466553 
L 199.525651 21.700906 
L 201.018628 21.446175 
L 204.004581 21.581403 
L 206.990534 21.506736 
L 208.483511 21.772625 
L 209.976487 21.51312 
L 211.469464 21.624876 
L 212.96244 21.497496 
L 215.948394 21.707084 
L 217.44137 21.65628 
L 218.934347 22.048668 
L 220.427323 21.736282 
L 221.9203 21.91574 
L 223.413277 21.628158 
L 224.906253 21.664085 
L 226.39923 21.906074 
L 227.892206 22.316802 
L 229.385183 22.038647 
L 230.878159 21.873743 
L 232.371136 22.091344 
L 233.864113 22.588364 
L 235.357089 22.151752 
L 236.850066 22.025197 
L 238.343042 22.140644 
L 239.836019 22.378468 
L 241.328996 21.927777 
L 242.821972 21.849767 
L 244.314949 22.164575 
L 245.807925 22.667871 
L 247.300902 22.333038 
L 248.793879 22.862864 
L 251.779832 23.228801 
L 253.272808 23.664359 
L 254.765785 23.95998 
L 256.258761 25.755327 
L 257.751738 23.780929 
L 259.244715 24.401661 
L 260.737691 24.212048 
L 262.230668 24.905021 
L 263.723644 27.066824 
L 265.216621 24.031377 
L 266.709598 26.71418 
L 268.202574 26.484011 
L 269.695551 29.905827 
L 271.188527 25.525954 
L 272.681504 27.547356 
L 274.174481 25.497418 
L 275.667457 28.536469 
L 277.160434 29.976712 
L 278.65341 28.92818 
L 280.146387 30.674782 
L 281.639364 28.870158 
L 283.13234 27.534668 
L 284.625317 30.992186 
L 286.118293 35.715312 
L 287.61127 35.87095 
L 289.104246 33.751995 
L 290.597223 38.69487 
L 292.0902 33.913601 
L 293.583176 33.123594 
L 295.076153 39.892146 
L 296.569129 37.380472 
L 298.062106 39.331136 
L 299.555083 43.374045 
L 301.048059 47.816957 
L 302.541036 36.619336 
L 304.034012 40.193121 
L 305.526989 39.356819 
L 307.019966 48.396996 
L 308.512942 48.363467 
L 310.005919 72.010621 
L 311.498895 51.862807 
L 312.991872 61.759691 
L 314.484848 59.57327 
L 315.977825 66.899118 
L 317.470802 83.202232 
L 318.963778 77.499398 
L 320.456755 93.765698 
L 321.949731 77.305716 
L 323.442708 77.259081 
L 324.935685 80.401142 
L 326.428661 84.036837 
L 327.921638 71.12749 
L 329.414614 92.871365 
L 330.907591 120.641264 
L 332.400568 116.178364 
L 333.893544 91.671865 
L 335.386521 127.50732 
L 336.879497 136.25279 
L 338.372474 137.093237 
L 339.86545 97.032384 
L 341.358427 99.458849 
L 342.851404 185.108765 
L 344.34438 147.113311 
L 345.837357 121.372804 
L 348.82331 176.706417 
L 350.316287 196.126492 
L 351.809263 194.774964 
L 353.30224 173.233811 
L 354.795216 226.64692 
L 356.288193 181.443682 
L 357.78117 164.900288 
L 359.274146 162.615592 
L 360.767123 235.378825 
L 362.260099 179.669583 
L 363.753076 239.418423 
L 365.246052 275.673968 
L 366.739029 249.799937 
L 368.232006 287.974219 
L 369.724982 269.252334 
L 371.217959 280.660964 
L 372.710935 287.142997 
L 374.203912 305.737458 
L 375.696889 314.055998 
L 377.189865 315.887258 
L 378.682842 280.730702 
L 380.175818 281.609433 
L 381.668795 316.372075 
L 383.161772 290.967461 
L 384.654748 318.930213 
L 386.147725 331.921488 
L 387.640701 282.332138 
L 389.133678 317.066692 
L 390.626654 332.709599 
L 392.119631 331.196441 
L 393.612608 337.630021 
L 395.105584 336.001737 
L 396.598561 323.521146 
L 398.091537 337.664335 
L 399.584514 337.002652 
L 401.077491 335.076905 
L 402.570467 334.542874 
L 404.063444 338.108586 
L 408.542374 338.04691 
L 411.528327 338.117647 
L 413.021303 337.838819 
L 414.51428 338.118121 
L 416.007256 338.057602 
L 418.99321 338.113531 
L 492.149062 338.118125 
L 492.149062 338.118125 
" style="fill:none;stroke:#000000;stroke-linecap:square;stroke-width:1.75;"/>
   </g>
   <g id="line2d_8">
    <path clip-path="url(#p8a76a910e2)" d="M 45.749062 21.318171 
L 217.44137 21.372246 
L 218.934347 21.46469 
L 221.9203 21.459708 
L 227.892206 21.490051 
L 238.343042 21.532576 
L 239.836019 21.966194 
L 241.328996 21.628472 
L 242.821972 21.580211 
L 244.314949 21.690835 
L 245.807925 21.526756 
L 247.300902 21.726796 
L 248.793879 21.668692 
L 250.286855 21.884834 
L 251.779832 21.560821 
L 253.272808 21.574984 
L 254.765785 22.130408 
L 256.258761 21.6141 
L 257.751738 22.014376 
L 259.244715 21.750467 
L 260.737691 21.87086 
L 262.230668 21.671852 
L 263.723644 21.806702 
L 265.216621 21.762356 
L 266.709598 21.852735 
L 268.202574 22.360185 
L 269.695551 22.220403 
L 271.188527 22.839439 
L 274.174481 22.022534 
L 275.667457 22.925612 
L 277.160434 22.464007 
L 280.146387 21.953573 
L 281.639364 22.297171 
L 283.13234 21.840318 
L 284.625317 22.655787 
L 286.118293 22.637184 
L 287.61127 22.839271 
L 289.104246 23.349439 
L 292.0902 23.612834 
L 293.583176 22.401569 
L 295.076153 22.543032 
L 296.569129 24.355134 
L 298.062106 23.624322 
L 299.555083 24.62563 
L 301.048059 24.766666 
L 302.541036 24.769422 
L 304.034012 23.782575 
L 305.526989 26.586084 
L 307.019966 24.95946 
L 308.512942 25.463885 
L 310.005919 25.102924 
L 311.498895 24.35514 
L 312.991872 24.535669 
L 314.484848 30.469952 
L 315.977825 26.25272 
L 317.470802 26.163639 
L 318.963778 28.887268 
L 320.456755 28.129743 
L 321.949731 27.11893 
L 323.442708 31.104664 
L 324.935685 26.879098 
L 326.428661 29.994235 
L 327.921638 30.266595 
L 329.414614 28.632605 
L 330.907591 31.43933 
L 332.400568 33.242879 
L 333.893544 32.02334 
L 335.386521 32.301227 
L 336.879497 30.259488 
L 338.372474 32.509963 
L 341.358427 41.497175 
L 342.851404 35.477977 
L 344.34438 45.16989 
L 345.837357 48.15367 
L 347.330333 44.864643 
L 348.82331 58.368146 
L 350.316287 47.858458 
L 351.809263 58.544473 
L 353.30224 44.682368 
L 354.795216 47.657925 
L 356.288193 45.941638 
L 357.78117 43.849197 
L 359.274146 55.687872 
L 360.767123 96.367895 
L 362.260099 68.686743 
L 363.753076 81.783122 
L 365.246052 67.826856 
L 366.739029 69.752274 
L 368.232006 77.383856 
L 369.724982 71.242082 
L 371.217959 113.061456 
L 372.710935 93.242499 
L 374.203912 119.73302 
L 375.696889 113.063291 
L 377.189865 79.275575 
L 378.682842 111.602742 
L 380.175818 116.285795 
L 381.668795 139.157124 
L 383.161772 75.647232 
L 384.654748 141.440521 
L 386.147725 130.986811 
L 387.640701 129.363619 
L 389.133678 114.338081 
L 390.626654 105.437113 
L 392.119631 132.753387 
L 393.612608 177.435184 
L 395.105584 143.682751 
L 396.598561 145.557243 
L 398.091537 206.056531 
L 399.584514 163.04727 
L 401.077491 167.793486 
L 402.570467 175.726856 
L 404.063444 264.487251 
L 405.55642 241.739206 
L 407.049397 172.941706 
L 408.542374 214.889948 
L 410.03535 266.635221 
L 411.528327 290.247068 
L 413.021303 282.859456 
L 414.51428 272.476469 
L 416.007256 240.806781 
L 417.500233 295.106523 
L 418.99321 286.781526 
L 420.486186 225.835913 
L 421.979163 303.115288 
L 423.472139 307.369482 
L 424.965116 301.24457 
L 426.458093 253.412922 
L 427.951069 302.014118 
L 429.444046 264.981355 
L 430.937022 305.472639 
L 432.429999 317.575467 
L 433.922976 275.444408 
L 435.415952 297.89525 
L 436.908929 326.782884 
L 438.401905 332.508124 
L 441.387858 335.589523 
L 442.880835 338.085471 
L 444.373812 336.282275 
L 445.866788 330.945911 
L 447.359765 338.116504 
L 448.852741 338.039169 
L 450.345718 334.891286 
L 451.838695 337.896962 
L 453.331671 338.114173 
L 454.824648 337.836448 
L 456.317624 338.117121 
L 457.810601 337.668393 
L 459.303578 338.118073 
L 462.289531 338.108517 
L 463.782507 337.840603 
L 465.275484 338.109963 
L 486.177156 338.118125 
L 492.149062 338.118125 
L 492.149062 338.118125 
" style="fill:none;stroke:#0000ff;stroke-linecap:square;stroke-width:1.75;"/>
   </g>
   <g id="patch_3">
    <path d="M 45.749063 338.118125 
L 45.749063 21.318125 
" style="fill:none;stroke:#000000;stroke-linecap:square;stroke-linejoin:miter;"/>
   </g>
   <g id="patch_4">
    <path d="M 45.749062 21.318125 
L 492.149062 21.318125 
" style="fill:none;stroke:#000000;stroke-linecap:square;stroke-linejoin:miter;"/>
   </g>
   <g id="patch_5">
    <path d="M 492.149063 338.118125 
L 492.149063 21.318125 
" style="fill:none;stroke:#000000;stroke-linecap:square;stroke-linejoin:miter;"/>
   </g>
   <g id="patch_6">
    <path d="M 45.749062 338.118125 
L 492.149062 338.118125 
" style="fill:none;stroke:#000000;stroke-linecap:square;stroke-linejoin:miter;"/>
   </g>
   <g id="matplotlib.axis_1">
    <g id="xtick_1">
     <g id="line2d_9">
      <defs>
       <path d="M 0 0 
L 0 -4 
" id="m62889efb42" style="stroke:#000000;"/>
      </defs>
      <g>
       <use style="stroke:#000000;" x="45.7490625" xlink:href="#m62889efb42" y="338.118125"/>
      </g>
     </g>
     <g id="line2d_10">
      <defs>
       <path d="M 0 0 
L 0 4 
" id="m9bdf3df6c3" style="stroke:#000000;"/>
      </defs>
      <g>
       <use style="stroke:#000000;" x="45.7490625" xlink:href="#m9bdf3df6c3" y="21.318125"/>
      </g>
     </g>
     <g id="text_1">
      <!-- −10 -->
      <defs>
       <path d="M 10.59375 35.5 
L 73.1875 35.5 
L 73.1875 27.203125 
L 10.59375 27.203125 
z
" id="BitstreamVeraSans-Roman-2212"/>
       <path d="M 31.78125 66.40625 
Q 24.171875 66.40625 20.328125 58.90625 
Q 16.5 51.421875 16.5 36.375 
Q 16.5 21.390625 20.328125 13.890625 
Q 24.171875 6.390625 31.78125 6.390625 
Q 39.453125 6.390625 43.28125 13.890625 
Q 47.125 21.390625 47.125 36.375 
Q 47.125 51.421875 43.28125 58.90625 
Q 39.453125 66.40625 31.78125 66.40625 
M 31.78125 74.21875 
Q 44.046875 74.21875 50.515625 64.515625 
Q 56.984375 54.828125 56.984375 36.375 
Q 56.984375 17.96875 50.515625 8.265625 
Q 44.046875 -1.421875 31.78125 -1.421875 
Q 19.53125 -1.421875 13.0625 8.265625 
Q 6.59375 17.96875 6.59375 36.375 
Q 6.59375 54.828125 13.0625 64.515625 
Q 19.53125 74.21875 31.78125 74.21875 
" id="BitstreamVeraSans-Roman-30"/>
       <path d="M 12.40625 8.296875 
L 28.515625 8.296875 
L 28.515625 63.921875 
L 10.984375 60.40625 
L 10.984375 69.390625 
L 28.421875 72.90625 
L 38.28125 72.90625 
L 38.28125 8.296875 
L 54.390625 8.296875 
L 54.390625 0 
L 12.40625 0 
z
" id="BitstreamVeraSans-Roman-31"/>
      </defs>
      <g transform="translate(35.19671875 352.7165625)scale(0.1 -0.1)">
       <use xlink:href="#BitstreamVeraSans-Roman-2212"/>
       <use x="83.7890625" xlink:href="#BitstreamVeraSans-Roman-31"/>
       <use x="147.412109375" xlink:href="#BitstreamVeraSans-Roman-30"/>
      </g>
     </g>
    </g>
    <g id="xtick_2">
     <g id="line2d_11">
      <g>
       <use style="stroke:#000000;" x="157.3490625" xlink:href="#m62889efb42" y="338.118125"/>
      </g>
     </g>
     <g id="line2d_12">
      <g>
       <use style="stroke:#000000;" x="157.3490625" xlink:href="#m9bdf3df6c3" y="21.318125"/>
      </g>
     </g>
     <g id="text_2">
      <!-- −5 -->
      <defs>
       <path d="M 10.796875 72.90625 
L 49.515625 72.90625 
L 49.515625 64.59375 
L 19.828125 64.59375 
L 19.828125 46.734375 
Q 21.96875 47.46875 24.109375 47.828125 
Q 26.265625 48.1875 28.421875 48.1875 
Q 40.625 48.1875 47.75 41.5 
Q 54.890625 34.8125 54.890625 23.390625 
Q 54.890625 11.625 47.5625 5.09375 
Q 40.234375 -1.421875 26.90625 -1.421875 
Q 22.3125 -1.421875 17.546875 -0.640625 
Q 12.796875 0.140625 7.71875 1.703125 
L 7.71875 11.625 
Q 12.109375 9.234375 16.796875 8.0625 
Q 21.484375 6.890625 26.703125 6.890625 
Q 35.15625 6.890625 40.078125 11.328125 
Q 45.015625 15.765625 45.015625 23.390625 
Q 45.015625 31 40.078125 35.4375 
Q 35.15625 39.890625 26.703125 39.890625 
Q 22.75 39.890625 18.8125 39.015625 
Q 14.890625 38.140625 10.796875 36.28125 
z
" id="BitstreamVeraSans-Roman-35"/>
      </defs>
      <g transform="translate(149.97796875 352.7165625)scale(0.1 -0.1)">
       <use xlink:href="#BitstreamVeraSans-Roman-2212"/>
       <use x="83.7890625" xlink:href="#BitstreamVeraSans-Roman-35"/>
      </g>
     </g>
    </g>
    <g id="xtick_3">
     <g id="line2d_13">
      <g>
       <use style="stroke:#000000;" x="268.9490625" xlink:href="#m62889efb42" y="338.118125"/>
      </g>
     </g>
     <g id="line2d_14">
      <g>
       <use style="stroke:#000000;" x="268.9490625" xlink:href="#m9bdf3df6c3" y="21.318125"/>
      </g>
     </g>
     <g id="text_3">
      <!-- 0 -->
      <g transform="translate(265.7678125 352.7165625)scale(0.1 -0.1)">
       <use xlink:href="#BitstreamVeraSans-Roman-30"/>
      </g>
     </g>
    </g>
    <g id="xtick_4">
     <g id="line2d_15">
      <g>
       <use style="stroke:#000000;" x="380.5490625" xlink:href="#m62889efb42" y="338.118125"/>
      </g>
     </g>
     <g id="line2d_16">
      <g>
       <use style="stroke:#000000;" x="380.5490625" xlink:href="#m9bdf3df6c3" y="21.318125"/>
      </g>
     </g>
     <g id="text_4">
      <!-- 5 -->
      <g transform="translate(377.3678125 352.7165625)scale(0.1 -0.1)">
       <use xlink:href="#BitstreamVeraSans-Roman-35"/>
      </g>
     </g>
    </g>
    <g id="xtick_5">
     <g id="line2d_17">
      <g>
       <use style="stroke:#000000;" x="492.1490625" xlink:href="#m62889efb42" y="338.118125"/>
      </g>
     </g>
     <g id="line2d_18">
      <g>
       <use style="stroke:#000000;" x="492.1490625" xlink:href="#m9bdf3df6c3" y="21.318125"/>
      </g>
     </g>
     <g id="text_5">
      <!-- 10 -->
      <g transform="translate(485.7865625 352.7165625)scale(0.1 -0.1)">
       <use xlink:href="#BitstreamVeraSans-Roman-31"/>
       <use x="63.623046875" xlink:href="#BitstreamVeraSans-Roman-30"/>
      </g>
     </g>
    </g>
    <g id="text_6">
     <!-- This is the x-axis -->
     <defs>
      <path d="M 9.421875 54.6875 
L 18.40625 54.6875 
L 18.40625 0 
L 9.421875 0 
z
M 9.421875 75.984375 
L 18.40625 75.984375 
L 18.40625 64.59375 
L 9.421875 64.59375 
z
" id="BitstreamVeraSans-Roman-69"/>
      <path d="M 34.28125 27.484375 
Q 23.390625 27.484375 19.1875 25 
Q 14.984375 22.515625 14.984375 16.5 
Q 14.984375 11.71875 18.140625 8.90625 
Q 21.296875 6.109375 26.703125 6.109375 
Q 34.1875 6.109375 38.703125 11.40625 
Q 43.21875 16.703125 43.21875 25.484375 
L 43.21875 27.484375 
z
M 52.203125 31.203125 
L 52.203125 0 
L 43.21875 0 
L 43.21875 8.296875 
Q 40.140625 3.328125 35.546875 0.953125 
Q 30.953125 -1.421875 24.3125 -1.421875 
Q 15.921875 -1.421875 10.953125 3.296875 
Q 6 8.015625 6 15.921875 
Q 6 25.140625 12.171875 29.828125 
Q 18.359375 34.515625 30.609375 34.515625 
L 43.21875 34.515625 
L 43.21875 35.40625 
Q 43.21875 41.609375 39.140625 45 
Q 35.0625 48.390625 27.6875 48.390625 
Q 23 48.390625 18.546875 47.265625 
Q 14.109375 46.140625 10.015625 43.890625 
L 10.015625 52.203125 
Q 14.9375 54.109375 19.578125 55.046875 
Q 24.21875 56 28.609375 56 
Q 40.484375 56 46.34375 49.84375 
Q 52.203125 43.703125 52.203125 31.203125 
" id="BitstreamVeraSans-Roman-61"/>
      <path d="M 18.3125 70.21875 
L 18.3125 54.6875 
L 36.8125 54.6875 
L 36.8125 47.703125 
L 18.3125 47.703125 
L 18.3125 18.015625 
Q 18.3125 11.328125 20.140625 9.421875 
Q 21.96875 7.515625 27.59375 7.515625 
L 36.8125 7.515625 
L 36.8125 0 
L 27.59375 0 
Q 17.1875 0 13.234375 3.875 
Q 9.28125 7.765625 9.28125 18.015625 
L 9.28125 47.703125 
L 2.6875 47.703125 
L 2.6875 54.6875 
L 9.28125 54.6875 
L 9.28125 70.21875 
z
" id="BitstreamVeraSans-Roman-74"/>
      <path d="M -0.296875 72.90625 
L 61.375 72.90625 
L 61.375 64.59375 
L 35.5 64.59375 
L 35.5 0 
L 25.59375 0 
L 25.59375 64.59375 
L -0.296875 64.59375 
z
" id="BitstreamVeraSans-Roman-54"/>
      <path d="M 54.890625 54.6875 
L 35.109375 28.078125 
L 55.90625 0 
L 45.3125 0 
L 29.390625 21.484375 
L 13.484375 0 
L 2.875 0 
L 24.125 28.609375 
L 4.6875 54.6875 
L 15.28125 54.6875 
L 29.78125 35.203125 
L 44.28125 54.6875 
z
" id="BitstreamVeraSans-Roman-78"/>
      <path d="M 56.203125 29.59375 
L 56.203125 25.203125 
L 14.890625 25.203125 
Q 15.484375 15.921875 20.484375 11.0625 
Q 25.484375 6.203125 34.421875 6.203125 
Q 39.59375 6.203125 44.453125 7.46875 
Q 49.3125 8.734375 54.109375 11.28125 
L 54.109375 2.78125 
Q 49.265625 0.734375 44.1875 -0.34375 
Q 39.109375 -1.421875 33.890625 -1.421875 
Q 20.796875 -1.421875 13.15625 6.1875 
Q 5.515625 13.8125 5.515625 26.8125 
Q 5.515625 40.234375 12.765625 48.109375 
Q 20.015625 56 32.328125 56 
Q 43.359375 56 49.78125 48.890625 
Q 56.203125 41.796875 56.203125 29.59375 
M 47.21875 32.234375 
Q 47.125 39.59375 43.09375 43.984375 
Q 39.0625 48.390625 32.421875 48.390625 
Q 24.90625 48.390625 20.390625 44.140625 
Q 15.875 39.890625 15.1875 32.171875 
z
" id="BitstreamVeraSans-Roman-65"/>
      <path d="M 44.28125 53.078125 
L 44.28125 44.578125 
Q 40.484375 46.53125 36.375 47.5 
Q 32.28125 48.484375 27.875 48.484375 
Q 21.1875 48.484375 17.84375 46.4375 
Q 14.5 44.390625 14.5 40.28125 
Q 14.5 37.15625 16.890625 35.375 
Q 19.28125 33.59375 26.515625 31.984375 
L 29.59375 31.296875 
Q 39.15625 29.25 43.1875 25.515625 
Q 47.21875 21.78125 47.21875 15.09375 
Q 47.21875 7.46875 41.1875 3.015625 
Q 35.15625 -1.421875 24.609375 -1.421875 
Q 20.21875 -1.421875 15.453125 -0.5625 
Q 10.6875 0.296875 5.421875 2 
L 5.421875 11.28125 
Q 10.40625 8.6875 15.234375 7.390625 
Q 20.0625 6.109375 24.8125 6.109375 
Q 31.15625 6.109375 34.5625 8.28125 
Q 37.984375 10.453125 37.984375 14.40625 
Q 37.984375 18.0625 35.515625 20.015625 
Q 33.0625 21.96875 24.703125 23.78125 
L 21.578125 24.515625 
Q 13.234375 26.265625 9.515625 29.90625 
Q 5.8125 33.546875 5.8125 39.890625 
Q 5.8125 47.609375 11.28125 51.796875 
Q 16.75 56 26.8125 56 
Q 31.78125 56 36.171875 55.265625 
Q 40.578125 54.546875 44.28125 53.078125 
" id="BitstreamVeraSans-Roman-73"/>
      <path d="M 54.890625 33.015625 
L 54.890625 0 
L 45.90625 0 
L 45.90625 32.71875 
Q 45.90625 40.484375 42.875 44.328125 
Q 39.84375 48.1875 33.796875 48.1875 
Q 26.515625 48.1875 22.3125 43.546875 
Q 18.109375 38.921875 18.109375 30.90625 
L 18.109375 0 
L 9.078125 0 
L 9.078125 75.984375 
L 18.109375 75.984375 
L 18.109375 46.1875 
Q 21.34375 51.125 25.703125 53.5625 
Q 30.078125 56 35.796875 56 
Q 45.21875 56 50.046875 50.171875 
Q 54.890625 44.34375 54.890625 33.015625 
" id="BitstreamVeraSans-Roman-68"/>
      <path id="BitstreamVeraSans-Roman-20"/>
      <path d="M 4.890625 31.390625 
L 31.203125 31.390625 
L 31.203125 23.390625 
L 4.890625 23.390625 
z
" id="BitstreamVeraSans-Roman-2d"/>
     </defs>
     <g transform="translate(222.789453125 368.15453125)scale(0.11 -0.11)">
      <use xlink:href="#BitstreamVeraSans-Roman-54"/>
      <use x="61.083984375" xlink:href="#BitstreamVeraSans-Roman-68"/>
      <use x="124.462890625" xlink:href="#BitstreamVeraSans-Roman-69"/>
      <use x="152.24609375" xlink:href="#BitstreamVeraSans-Roman-73"/>
      <use x="204.345703125" xlink:href="#BitstreamVeraSans-Roman-20"/>
      <use x="236.1328125" xlink:href="#BitstreamVeraSans-Roman-69"/>
      <use x="263.916015625" xlink:href="#BitstreamVeraSans-Roman-73"/>
      <use x="316.015625" xlink:href="#BitstreamVeraSans-Roman-20"/>
      <use x="347.802734375" xlink:href="#BitstreamVeraSans-Roman-74"/>
      <use x="387.01171875" xlink:href="#BitstreamVeraSans-Roman-68"/>
      <use x="450.390625" xlink:href="#BitstreamVeraSans-Roman-65"/>
      <use x="511.9140625" xlink:href="#BitstreamVeraSans-Roman-20"/>
      <use x="543.701171875" xlink:href="#BitstreamVeraSans-Roman-78"/>
      <use x="602.880859375" xlink:href="#BitstreamVeraSans-Roman-2d"/>
      <use x="638.96484375" xlink:href="#BitstreamVeraSans-Roman-61"/>
      <use x="700.244140625" xlink:href="#BitstreamVeraSans-Roman-78"/>
      <use x="759.423828125" xlink:href="#BitstreamVeraSans-Roman-69"/>
      <use x="787.20703125" xlink:href="#BitstreamVeraSans-Roman-73"/>
     </g>
    </g>
   </g>
   <g id="matplotlib.axis_2">
    <g id="ytick_1">
     <g id="line2d_19">
      <defs>
       <path d="M 0 0 
L 4 0 
" id="med0a417de7" style="stroke:#000000;"/>
      </defs>
      <g>
       <use style="stroke:#000000;" x="45.7490625" xlink:href="#med0a417de7" y="338.118125"/>
      </g>
     </g>
     <g id="line2d_20">
      <defs>
       <path d="M 0 0 
L -4 0 
" id="me77affd3e1" style="stroke:#000000;"/>
      </defs>
      <g>
       <use style="stroke:#000000;" x="492.1490625" xlink:href="#me77affd3e1" y="338.118125"/>
      </g>
     </g>
     <g id="text_7">
      <!-- 0.0 -->
      <defs>
       <path d="M 10.6875 12.40625 
L 21 12.40625 
L 21 0 
L 10.6875 0 
z
" id="BitstreamVeraSans-Roman-2e"/>
      </defs>
      <g transform="translate(22.8459375 340.8775)scale(0.1 -0.1)">
       <use xlink:href="#BitstreamVeraSans-Roman-30"/>
       <use x="63.623046875" xlink:href="#BitstreamVeraSans-Roman-2e"/>
       <use x="95.41015625" xlink:href="#BitstreamVeraSans-Roman-30"/>
      </g>
     </g>
    </g>
    <g id="ytick_2">
     <g id="line2d_21">
      <g>
       <use style="stroke:#000000;" x="45.7490625" xlink:href="#med0a417de7" y="274.758125"/>
      </g>
     </g>
     <g id="line2d_22">
      <g>
       <use style="stroke:#000000;" x="492.1490625" xlink:href="#me77affd3e1" y="274.758125"/>
      </g>
     </g>
     <g id="text_8">
      <!-- 0.2 -->
      <defs>
       <path d="M 19.1875 8.296875 
L 53.609375 8.296875 
L 53.609375 0 
L 7.328125 0 
L 7.328125 8.296875 
Q 12.9375 14.109375 22.625 23.890625 
Q 32.328125 33.6875 34.8125 36.53125 
Q 39.546875 41.84375 41.421875 45.53125 
Q 43.3125 49.21875 43.3125 52.78125 
Q 43.3125 58.59375 39.234375 62.25 
Q 35.15625 65.921875 28.609375 65.921875 
Q 23.96875 65.921875 18.8125 64.3125 
Q 13.671875 62.703125 7.8125 59.421875 
L 7.8125 69.390625 
Q 13.765625 71.78125 18.9375 73 
Q 24.125 74.21875 28.421875 74.21875 
Q 39.75 74.21875 46.484375 68.546875 
Q 53.21875 62.890625 53.21875 53.421875 
Q 53.21875 48.921875 51.53125 44.890625 
Q 49.859375 40.875 45.40625 35.40625 
Q 44.1875 33.984375 37.640625 27.21875 
Q 31.109375 20.453125 19.1875 8.296875 
" id="BitstreamVeraSans-Roman-32"/>
      </defs>
      <g transform="translate(22.8459375 277.5175)scale(0.1 -0.1)">
       <use xlink:href="#BitstreamVeraSans-Roman-30"/>
       <use x="63.623046875" xlink:href="#BitstreamVeraSans-Roman-2e"/>
       <use x="95.41015625" xlink:href="#BitstreamVeraSans-Roman-32"/>
      </g>
     </g>
    </g>
    <g id="ytick_3">
     <g id="line2d_23">
      <g>
       <use style="stroke:#000000;" x="45.7490625" xlink:href="#med0a417de7" y="211.398125"/>
      </g>
     </g>
     <g id="line2d_24">
      <g>
       <use style="stroke:#000000;" x="492.1490625" xlink:href="#me77affd3e1" y="211.398125"/>
      </g>
     </g>
     <g id="text_9">
      <!-- 0.4 -->
      <defs>
       <path d="M 37.796875 64.3125 
L 12.890625 25.390625 
L 37.796875 25.390625 
z
M 35.203125 72.90625 
L 47.609375 72.90625 
L 47.609375 25.390625 
L 58.015625 25.390625 
L 58.015625 17.1875 
L 47.609375 17.1875 
L 47.609375 0 
L 37.796875 0 
L 37.796875 17.1875 
L 4.890625 17.1875 
L 4.890625 26.703125 
z
" id="BitstreamVeraSans-Roman-34"/>
      </defs>
      <g transform="translate(22.8459375 214.1575)scale(0.1 -0.1)">
       <use xlink:href="#BitstreamVeraSans-Roman-30"/>
       <use x="63.623046875" xlink:href="#BitstreamVeraSans-Roman-2e"/>
       <use x="95.41015625" xlink:href="#BitstreamVeraSans-Roman-34"/>
      </g>
     </g>
    </g>
    <g id="ytick_4">
     <g id="line2d_25">
      <g>
       <use style="stroke:#000000;" x="45.7490625" xlink:href="#med0a417de7" y="148.038125"/>
      </g>
     </g>
     <g id="line2d_26">
      <g>
       <use style="stroke:#000000;" x="492.1490625" xlink:href="#me77affd3e1" y="148.038125"/>
      </g>
     </g>
     <g id="text_10">
      <!-- 0.6 -->
      <defs>
       <path d="M 33.015625 40.375 
Q 26.375 40.375 22.484375 35.828125 
Q 18.609375 31.296875 18.609375 23.390625 
Q 18.609375 15.53125 22.484375 10.953125 
Q 26.375 6.390625 33.015625 6.390625 
Q 39.65625 6.390625 43.53125 10.953125 
Q 47.40625 15.53125 47.40625 23.390625 
Q 47.40625 31.296875 43.53125 35.828125 
Q 39.65625 40.375 33.015625 40.375 
M 52.59375 71.296875 
L 52.59375 62.3125 
Q 48.875 64.0625 45.09375 64.984375 
Q 41.3125 65.921875 37.59375 65.921875 
Q 27.828125 65.921875 22.671875 59.328125 
Q 17.53125 52.734375 16.796875 39.40625 
Q 19.671875 43.65625 24.015625 45.921875 
Q 28.375 48.1875 33.59375 48.1875 
Q 44.578125 48.1875 50.953125 41.515625 
Q 57.328125 34.859375 57.328125 23.390625 
Q 57.328125 12.15625 50.6875 5.359375 
Q 44.046875 -1.421875 33.015625 -1.421875 
Q 20.359375 -1.421875 13.671875 8.265625 
Q 6.984375 17.96875 6.984375 36.375 
Q 6.984375 53.65625 15.1875 63.9375 
Q 23.390625 74.21875 37.203125 74.21875 
Q 40.921875 74.21875 44.703125 73.484375 
Q 48.484375 72.75 52.59375 71.296875 
" id="BitstreamVeraSans-Roman-36"/>
      </defs>
      <g transform="translate(22.8459375 150.7975)scale(0.1 -0.1)">
       <use xlink:href="#BitstreamVeraSans-Roman-30"/>
       <use x="63.623046875" xlink:href="#BitstreamVeraSans-Roman-2e"/>
       <use x="95.41015625" xlink:href="#BitstreamVeraSans-Roman-36"/>
      </g>
     </g>
    </g>
    <g id="ytick_5">
     <g id="line2d_27">
      <g>
       <use style="stroke:#000000;" x="45.7490625" xlink:href="#med0a417de7" y="84.678125"/>
      </g>
     </g>
     <g id="line2d_28">
      <g>
       <use style="stroke:#000000;" x="492.1490625" xlink:href="#me77affd3e1" y="84.678125"/>
      </g>
     </g>
     <g id="text_11">
      <!-- 0.8 -->
      <defs>
       <path d="M 31.78125 34.625 
Q 24.75 34.625 20.71875 30.859375 
Q 16.703125 27.09375 16.703125 20.515625 
Q 16.703125 13.921875 20.71875 10.15625 
Q 24.75 6.390625 31.78125 6.390625 
Q 38.8125 6.390625 42.859375 10.171875 
Q 46.921875 13.96875 46.921875 20.515625 
Q 46.921875 27.09375 42.890625 30.859375 
Q 38.875 34.625 31.78125 34.625 
M 21.921875 38.8125 
Q 15.578125 40.375 12.03125 44.71875 
Q 8.5 49.078125 8.5 55.328125 
Q 8.5 64.0625 14.71875 69.140625 
Q 20.953125 74.21875 31.78125 74.21875 
Q 42.671875 74.21875 48.875 69.140625 
Q 55.078125 64.0625 55.078125 55.328125 
Q 55.078125 49.078125 51.53125 44.71875 
Q 48 40.375 41.703125 38.8125 
Q 48.828125 37.15625 52.796875 32.3125 
Q 56.78125 27.484375 56.78125 20.515625 
Q 56.78125 9.90625 50.3125 4.234375 
Q 43.84375 -1.421875 31.78125 -1.421875 
Q 19.734375 -1.421875 13.25 4.234375 
Q 6.78125 9.90625 6.78125 20.515625 
Q 6.78125 27.484375 10.78125 32.3125 
Q 14.796875 37.15625 21.921875 38.8125 
M 18.3125 54.390625 
Q 18.3125 48.734375 21.84375 45.5625 
Q 25.390625 42.390625 31.78125 42.390625 
Q 38.140625 42.390625 41.71875 45.5625 
Q 45.3125 48.734375 45.3125 54.390625 
Q 45.3125 60.0625 41.71875 63.234375 
Q 38.140625 66.40625 31.78125 66.40625 
Q 25.390625 66.40625 21.84375 63.234375 
Q 18.3125 60.0625 18.3125 54.390625 
" id="BitstreamVeraSans-Roman-38"/>
      </defs>
      <g transform="translate(22.8459375 87.4375)scale(0.1 -0.1)">
       <use xlink:href="#BitstreamVeraSans-Roman-30"/>
       <use x="63.623046875" xlink:href="#BitstreamVeraSans-Roman-2e"/>
       <use x="95.41015625" xlink:href="#BitstreamVeraSans-Roman-38"/>
      </g>
     </g>
    </g>
    <g id="ytick_6">
     <g id="line2d_29">
      <g>
       <use style="stroke:#000000;" x="45.7490625" xlink:href="#med0a417de7" y="21.318125"/>
      </g>
     </g>
     <g id="line2d_30">
      <g>
       <use style="stroke:#000000;" x="492.1490625" xlink:href="#me77affd3e1" y="21.318125"/>
      </g>
     </g>
     <g id="text_12">
      <!-- 1.0 -->
      <g transform="translate(22.8459375 24.0775)scale(0.1 -0.1)">
       <use xlink:href="#BitstreamVeraSans-Roman-31"/>
       <use x="63.623046875" xlink:href="#BitstreamVeraSans-Roman-2e"/>
       <use x="95.41015625" xlink:href="#BitstreamVeraSans-Roman-30"/>
      </g>
     </g>
    </g>
    <g id="text_13">
     <!-- Random but decaying values -->
     <defs>
      <path d="M 48.78125 52.59375 
L 48.78125 44.1875 
Q 44.96875 46.296875 41.140625 47.34375 
Q 37.3125 48.390625 33.40625 48.390625 
Q 24.65625 48.390625 19.8125 42.84375 
Q 14.984375 37.3125 14.984375 27.296875 
Q 14.984375 17.28125 19.8125 11.734375 
Q 24.65625 6.203125 33.40625 6.203125 
Q 37.3125 6.203125 41.140625 7.25 
Q 44.96875 8.296875 48.78125 10.40625 
L 48.78125 2.09375 
Q 45.015625 0.34375 40.984375 -0.53125 
Q 36.96875 -1.421875 32.421875 -1.421875 
Q 20.0625 -1.421875 12.78125 6.34375 
Q 5.515625 14.109375 5.515625 27.296875 
Q 5.515625 40.671875 12.859375 48.328125 
Q 20.21875 56 33.015625 56 
Q 37.15625 56 41.109375 55.140625 
Q 45.0625 54.296875 48.78125 52.59375 
" id="BitstreamVeraSans-Roman-63"/>
      <path d="M 30.609375 48.390625 
Q 23.390625 48.390625 19.1875 42.75 
Q 14.984375 37.109375 14.984375 27.296875 
Q 14.984375 17.484375 19.15625 11.84375 
Q 23.34375 6.203125 30.609375 6.203125 
Q 37.796875 6.203125 41.984375 11.859375 
Q 46.1875 17.53125 46.1875 27.296875 
Q 46.1875 37.015625 41.984375 42.703125 
Q 37.796875 48.390625 30.609375 48.390625 
M 30.609375 56 
Q 42.328125 56 49.015625 48.375 
Q 55.71875 40.765625 55.71875 27.296875 
Q 55.71875 13.875 49.015625 6.21875 
Q 42.328125 -1.421875 30.609375 -1.421875 
Q 18.84375 -1.421875 12.171875 6.21875 
Q 5.515625 13.875 5.515625 27.296875 
Q 5.515625 40.765625 12.171875 48.375 
Q 18.84375 56 30.609375 56 
" id="BitstreamVeraSans-Roman-6f"/>
      <path d="M 9.421875 75.984375 
L 18.40625 75.984375 
L 18.40625 0 
L 9.421875 0 
z
" id="BitstreamVeraSans-Roman-6c"/>
      <path d="M 45.40625 46.390625 
L 45.40625 75.984375 
L 54.390625 75.984375 
L 54.390625 0 
L 45.40625 0 
L 45.40625 8.203125 
Q 42.578125 3.328125 38.25 0.953125 
Q 33.9375 -1.421875 27.875 -1.421875 
Q 17.96875 -1.421875 11.734375 6.484375 
Q 5.515625 14.40625 5.515625 27.296875 
Q 5.515625 40.1875 11.734375 48.09375 
Q 17.96875 56 27.875 56 
Q 33.9375 56 38.25 53.625 
Q 42.578125 51.265625 45.40625 46.390625 
M 14.796875 27.296875 
Q 14.796875 17.390625 18.875 11.75 
Q 22.953125 6.109375 30.078125 6.109375 
Q 37.203125 6.109375 41.296875 11.75 
Q 45.40625 17.390625 45.40625 27.296875 
Q 45.40625 37.203125 41.296875 42.84375 
Q 37.203125 48.484375 30.078125 48.484375 
Q 22.953125 48.484375 18.875 42.84375 
Q 14.796875 37.203125 14.796875 27.296875 
" id="BitstreamVeraSans-Roman-64"/>
      <path d="M 48.6875 27.296875 
Q 48.6875 37.203125 44.609375 42.84375 
Q 40.53125 48.484375 33.40625 48.484375 
Q 26.265625 48.484375 22.1875 42.84375 
Q 18.109375 37.203125 18.109375 27.296875 
Q 18.109375 17.390625 22.1875 11.75 
Q 26.265625 6.109375 33.40625 6.109375 
Q 40.53125 6.109375 44.609375 11.75 
Q 48.6875 17.390625 48.6875 27.296875 
M 18.109375 46.390625 
Q 20.953125 51.265625 25.265625 53.625 
Q 29.59375 56 35.59375 56 
Q 45.5625 56 51.78125 48.09375 
Q 58.015625 40.1875 58.015625 27.296875 
Q 58.015625 14.40625 51.78125 6.484375 
Q 45.5625 -1.421875 35.59375 -1.421875 
Q 29.59375 -1.421875 25.265625 0.953125 
Q 20.953125 3.328125 18.109375 8.203125 
L 18.109375 0 
L 9.078125 0 
L 9.078125 75.984375 
L 18.109375 75.984375 
z
" id="BitstreamVeraSans-Roman-62"/>
      <path d="M 44.390625 34.1875 
Q 47.5625 33.109375 50.5625 29.59375 
Q 53.5625 26.078125 56.59375 19.921875 
L 66.609375 0 
L 56 0 
L 46.6875 18.703125 
Q 43.0625 26.03125 39.671875 28.421875 
Q 36.28125 30.8125 30.421875 30.8125 
L 19.671875 30.8125 
L 19.671875 0 
L 9.8125 0 
L 9.8125 72.90625 
L 32.078125 72.90625 
Q 44.578125 72.90625 50.734375 67.671875 
Q 56.890625 62.453125 56.890625 51.90625 
Q 56.890625 45.015625 53.6875 40.46875 
Q 50.484375 35.9375 44.390625 34.1875 
M 19.671875 64.796875 
L 19.671875 38.921875 
L 32.078125 38.921875 
Q 39.203125 38.921875 42.84375 42.21875 
Q 46.484375 45.515625 46.484375 51.90625 
Q 46.484375 58.296875 42.84375 61.546875 
Q 39.203125 64.796875 32.078125 64.796875 
z
" id="BitstreamVeraSans-Roman-52"/>
      <path d="M 8.5 21.578125 
L 8.5 54.6875 
L 17.484375 54.6875 
L 17.484375 21.921875 
Q 17.484375 14.15625 20.5 10.265625 
Q 23.53125 6.390625 29.59375 6.390625 
Q 36.859375 6.390625 41.078125 11.03125 
Q 45.3125 15.671875 45.3125 23.6875 
L 45.3125 54.6875 
L 54.296875 54.6875 
L 54.296875 0 
L 45.3125 0 
L 45.3125 8.40625 
Q 42.046875 3.421875 37.71875 1 
Q 33.40625 -1.421875 27.6875 -1.421875 
Q 18.265625 -1.421875 13.375 4.4375 
Q 8.5 10.296875 8.5 21.578125 
" id="BitstreamVeraSans-Roman-75"/>
      <path d="M 54.890625 33.015625 
L 54.890625 0 
L 45.90625 0 
L 45.90625 32.71875 
Q 45.90625 40.484375 42.875 44.328125 
Q 39.84375 48.1875 33.796875 48.1875 
Q 26.515625 48.1875 22.3125 43.546875 
Q 18.109375 38.921875 18.109375 30.90625 
L 18.109375 0 
L 9.078125 0 
L 9.078125 54.6875 
L 18.109375 54.6875 
L 18.109375 46.1875 
Q 21.34375 51.125 25.703125 53.5625 
Q 30.078125 56 35.796875 56 
Q 45.21875 56 50.046875 50.171875 
Q 54.890625 44.34375 54.890625 33.015625 
" id="BitstreamVeraSans-Roman-6e"/>
      <path d="M 45.40625 27.984375 
Q 45.40625 37.75 41.375 43.109375 
Q 37.359375 48.484375 30.078125 48.484375 
Q 22.859375 48.484375 18.828125 43.109375 
Q 14.796875 37.75 14.796875 27.984375 
Q 14.796875 18.265625 18.828125 12.890625 
Q 22.859375 7.515625 30.078125 7.515625 
Q 37.359375 7.515625 41.375 12.890625 
Q 45.40625 18.265625 45.40625 27.984375 
M 54.390625 6.78125 
Q 54.390625 -7.171875 48.1875 -13.984375 
Q 42 -20.796875 29.203125 -20.796875 
Q 24.46875 -20.796875 20.265625 -20.09375 
Q 16.0625 -19.390625 12.109375 -17.921875 
L 12.109375 -9.1875 
Q 16.0625 -11.328125 19.921875 -12.34375 
Q 23.78125 -13.375 27.78125 -13.375 
Q 36.625 -13.375 41.015625 -8.765625 
Q 45.40625 -4.15625 45.40625 5.171875 
L 45.40625 9.625 
Q 42.625 4.78125 38.28125 2.390625 
Q 33.9375 0 27.875 0 
Q 17.828125 0 11.671875 7.65625 
Q 5.515625 15.328125 5.515625 27.984375 
Q 5.515625 40.671875 11.671875 48.328125 
Q 17.828125 56 27.875 56 
Q 33.9375 56 38.28125 53.609375 
Q 42.625 51.21875 45.40625 46.390625 
L 45.40625 54.6875 
L 54.390625 54.6875 
z
" id="BitstreamVeraSans-Roman-67"/>
      <path d="M 52 44.1875 
Q 55.375 50.25 60.0625 53.125 
Q 64.75 56 71.09375 56 
Q 79.640625 56 84.28125 50.015625 
Q 88.921875 44.046875 88.921875 33.015625 
L 88.921875 0 
L 79.890625 0 
L 79.890625 32.71875 
Q 79.890625 40.578125 77.09375 44.375 
Q 74.3125 48.1875 68.609375 48.1875 
Q 61.625 48.1875 57.5625 43.546875 
Q 53.515625 38.921875 53.515625 30.90625 
L 53.515625 0 
L 44.484375 0 
L 44.484375 32.71875 
Q 44.484375 40.625 41.703125 44.40625 
Q 38.921875 48.1875 33.109375 48.1875 
Q 26.21875 48.1875 22.15625 43.53125 
Q 18.109375 38.875 18.109375 30.90625 
L 18.109375 0 
L 9.078125 0 
L 9.078125 54.6875 
L 18.109375 54.6875 
L 18.109375 46.1875 
Q 21.1875 51.21875 25.484375 53.609375 
Q 29.78125 56 35.6875 56 
Q 41.65625 56 45.828125 52.96875 
Q 50 49.953125 52 44.1875 
" id="BitstreamVeraSans-Roman-6d"/>
      <path d="M 2.984375 54.6875 
L 12.5 54.6875 
L 29.59375 8.796875 
L 46.6875 54.6875 
L 56.203125 54.6875 
L 35.6875 0 
L 23.484375 0 
z
" id="BitstreamVeraSans-Roman-76"/>
      <path d="M 32.171875 -5.078125 
Q 28.375 -14.84375 24.75 -17.8125 
Q 21.140625 -20.796875 15.09375 -20.796875 
L 7.90625 -20.796875 
L 7.90625 -13.28125 
L 13.1875 -13.28125 
Q 16.890625 -13.28125 18.9375 -11.515625 
Q 21 -9.765625 23.484375 -3.21875 
L 25.09375 0.875 
L 2.984375 54.6875 
L 12.5 54.6875 
L 29.59375 11.921875 
L 46.6875 54.6875 
L 56.203125 54.6875 
z
" id="BitstreamVeraSans-Roman-79"/>
     </defs>
     <g transform="translate(15.55828125 259.905546875)rotate(-90.0)scale(0.11 -0.11)">
      <use xlink:href="#BitstreamVeraSans-Roman-52"/>
      <use x="69.451171875" xlink:href="#BitstreamVeraSans-Roman-61"/>
      <use x="130.73046875" xlink:href="#BitstreamVeraSans-Roman-6e"/>
      <use x="194.109375" xlink:href="#BitstreamVeraSans-Roman-64"/>
      <use x="257.5859375" xlink:href="#BitstreamVeraSans-Roman-6f"/>
      <use x="318.767578125" xlink:href="#BitstreamVeraSans-Roman-6d"/>
      <use x="416.1796875" xlink:href="#BitstreamVeraSans-Roman-20"/>
      <use x="447.966796875" xlink:href="#BitstreamVeraSans-Roman-62"/>
      <use x="511.443359375" xlink:href="#BitstreamVeraSans-Roman-75"/>
      <use x="574.822265625" xlink:href="#BitstreamVeraSans-Roman-74"/>
      <use x="614.03125" xlink:href="#BitstreamVeraSans-Roman-20"/>
      <use x="645.818359375" xlink:href="#BitstreamVeraSans-Roman-64"/>
      <use x="709.294921875" xlink:href="#BitstreamVeraSans-Roman-65"/>
      <use x="770.818359375" xlink:href="#BitstreamVeraSans-Roman-63"/>
      <use x="825.798828125" xlink:href="#BitstreamVeraSans-Roman-61"/>
      <use x="887.078125" xlink:href="#BitstreamVeraSans-Roman-79"/>
      <use x="946.2578125" xlink:href="#BitstreamVeraSans-Roman-69"/>
      <use x="974.041015625" xlink:href="#BitstreamVeraSans-Roman-6e"/>
      <use x="1037.419921875" xlink:href="#BitstreamVeraSans-Roman-67"/>
      <use x="1100.896484375" xlink:href="#BitstreamVeraSans-Roman-20"/>
      <use x="1132.68359375" xlink:href="#BitstreamVeraSans-Roman-76"/>
      <use x="1191.86328125" xlink:href="#BitstreamVeraSans-Roman-61"/>
      <use x="1253.142578125" xlink:href="#BitstreamVeraSans-Roman-6c"/>
      <use x="1280.92578125" xlink:href="#BitstreamVeraSans-Roman-75"/>
      <use x="1344.3046875" xlink:href="#BitstreamVeraSans-Roman-65"/>
      <use x="1405.828125" xlink:href="#BitstreamVeraSans-Roman-73"/>
     </g>
    </g>
   </g>
   <g id="text_14">
    <!-- Qualitatively Different Lines -->
    <defs>
     <path d="M 9.8125 72.90625 
L 19.671875 72.90625 
L 19.671875 8.296875 
L 55.171875 8.296875 
L 55.171875 0 
L 9.8125 0 
z
" id="BitstreamVeraSans-Roman-4c"/>
     <path d="M 41.109375 46.296875 
Q 39.59375 47.171875 37.8125 47.578125 
Q 36.03125 48 33.890625 48 
Q 26.265625 48 22.1875 43.046875 
Q 18.109375 38.09375 18.109375 28.8125 
L 18.109375 0 
L 9.078125 0 
L 9.078125 54.6875 
L 18.109375 54.6875 
L 18.109375 46.1875 
Q 20.953125 51.171875 25.484375 53.578125 
Q 30.03125 56 36.53125 56 
Q 37.453125 56 38.578125 55.875 
Q 39.703125 55.765625 41.0625 55.515625 
z
" id="BitstreamVeraSans-Roman-72"/>
     <path d="M 19.671875 64.796875 
L 19.671875 8.109375 
L 31.59375 8.109375 
Q 46.6875 8.109375 53.6875 14.9375 
Q 60.6875 21.78125 60.6875 36.53125 
Q 60.6875 51.171875 53.6875 57.984375 
Q 46.6875 64.796875 31.59375 64.796875 
z
M 9.8125 72.90625 
L 30.078125 72.90625 
Q 51.265625 72.90625 61.171875 64.09375 
Q 71.09375 55.28125 71.09375 36.53125 
Q 71.09375 17.671875 61.125 8.828125 
Q 51.171875 0 30.078125 0 
L 9.8125 0 
z
" id="BitstreamVeraSans-Roman-44"/>
     <path d="M 37.109375 75.984375 
L 37.109375 68.5 
L 28.515625 68.5 
Q 23.6875 68.5 21.796875 66.546875 
Q 19.921875 64.59375 19.921875 59.515625 
L 19.921875 54.6875 
L 34.71875 54.6875 
L 34.71875 47.703125 
L 19.921875 47.703125 
L 19.921875 0 
L 10.890625 0 
L 10.890625 47.703125 
L 2.296875 47.703125 
L 2.296875 54.6875 
L 10.890625 54.6875 
L 10.890625 58.5 
Q 10.890625 67.625 15.140625 71.796875 
Q 19.390625 75.984375 28.609375 75.984375 
z
" id="BitstreamVeraSans-Roman-66"/>
     <path d="M 39.40625 66.21875 
Q 28.65625 66.21875 22.328125 58.203125 
Q 16.015625 50.203125 16.015625 36.375 
Q 16.015625 22.609375 22.328125 14.59375 
Q 28.65625 6.59375 39.40625 6.59375 
Q 50.140625 6.59375 56.421875 14.59375 
Q 62.703125 22.609375 62.703125 36.375 
Q 62.703125 50.203125 56.421875 58.203125 
Q 50.140625 66.21875 39.40625 66.21875 
M 53.21875 1.3125 
L 66.21875 -12.890625 
L 54.296875 -12.890625 
L 43.5 -1.21875 
Q 41.890625 -1.3125 41.03125 -1.359375 
Q 40.1875 -1.421875 39.40625 -1.421875 
Q 24.03125 -1.421875 14.8125 8.859375 
Q 5.609375 19.140625 5.609375 36.375 
Q 5.609375 53.65625 14.8125 63.9375 
Q 24.03125 74.21875 39.40625 74.21875 
Q 54.734375 74.21875 63.90625 63.9375 
Q 73.09375 53.65625 73.09375 36.375 
Q 73.09375 23.6875 67.984375 14.640625 
Q 62.890625 5.609375 53.21875 1.3125 
" id="BitstreamVeraSans-Roman-51"/>
    </defs>
    <g transform="translate(184.9453125 16.318125)scale(0.12 -0.12)">
     <use xlink:href="#BitstreamVeraSans-Roman-51"/>
     <use x="78.7109375" xlink:href="#BitstreamVeraSans-Roman-75"/>
     <use x="142.08984375" xlink:href="#BitstreamVeraSans-Roman-61"/>
     <use x="203.369140625" xlink:href="#BitstreamVeraSans-Roman-6c"/>
     <use x="231.15234375" xlink:href="#BitstreamVeraSans-Roman-69"/>
     <use x="258.935546875" xlink:href="#BitstreamVeraSans-Roman-74"/>
     <use x="298.14453125" xlink:href="#BitstreamVeraSans-Roman-61"/>
     <use x="359.423828125" xlink:href="#BitstreamVeraSans-Roman-74"/>
     <use x="398.6328125" xlink:href="#BitstreamVeraSans-Roman-69"/>
     <use x="426.416015625" xlink:href="#BitstreamVeraSans-Roman-76"/>
     <use x="485.595703125" xlink:href="#BitstreamVeraSans-Roman-65"/>
     <use x="547.119140625" xlink:href="#BitstreamVeraSans-Roman-6c"/>
     <use x="574.90234375" xlink:href="#BitstreamVeraSans-Roman-79"/>
     <use x="634.08203125" xlink:href="#BitstreamVeraSans-Roman-20"/>
     <use x="665.869140625" xlink:href="#BitstreamVeraSans-Roman-44"/>
     <use x="742.87109375" xlink:href="#BitstreamVeraSans-Roman-69"/>
     <use x="770.654296875" xlink:href="#BitstreamVeraSans-Roman-66"/>
     <use x="805.859375" xlink:href="#BitstreamVeraSans-Roman-66"/>
     <use x="841.064453125" xlink:href="#BitstreamVeraSans-Roman-65"/>
     <use x="902.587890625" xlink:href="#BitstreamVeraSans-Roman-72"/>
     <use x="943.669921875" xlink:href="#BitstreamVeraSans-Roman-65"/>
     <use x="1005.193359375" xlink:href="#BitstreamVeraSans-Roman-6e"/>
     <use x="1068.572265625" xlink:href="#BitstreamVeraSans-Roman-74"/>
     <use x="1107.78125" xlink:href="#BitstreamVeraSans-Roman-20"/>
     <use x="1139.568359375" xlink:href="#BitstreamVeraSans-Roman-4c"/>
     <use x="1195.28125" xlink:href="#BitstreamVeraSans-Roman-69"/>
     <use x="1223.064453125" xlink:href="#BitstreamVeraSans-Roman-6e"/>
     <use x="1286.443359375" xlink:href="#BitstreamVeraSans-Roman-65"/>
     <use x="1347.966796875" xlink:href="#BitstreamVeraSans-Roman-73"/>
    </g>
   </g>
   <g id="legend_1">
    <g id="patch_7">
     <path d="M 50.749063 333.118125 
L 113.72875 333.118125 
L 113.72875 212.693125 
L 50.749063 212.693125 
z
" style="fill:#ffffff;stroke:#000000;stroke-linejoin:miter;stroke-width:0.3;"/>
    </g>
    <g id="line2d_31">
     <path d="M 57.749063 220.791563 
L 71.749063 220.791563 
" style="fill:none;stroke:#0000ff;stroke-linecap:square;stroke-width:1.75;"/>
    </g>
    <g id="line2d_32"/>
    <g id="text_15">
     <!-- Label -->
     <g transform="translate(82.7490625 224.2915625)scale(0.1 -0.1)">
      <use xlink:href="#BitstreamVeraSans-Roman-4c"/>
      <use x="55.712890625" xlink:href="#BitstreamVeraSans-Roman-61"/>
      <use x="116.9921875" xlink:href="#BitstreamVeraSans-Roman-62"/>
      <use x="180.46875" xlink:href="#BitstreamVeraSans-Roman-65"/>
      <use x="241.9921875" xlink:href="#BitstreamVeraSans-Roman-6c"/>
     </g>
    </g>
    <g id="line2d_33">
     <path d="M 57.749063 235.469688 
L 71.749063 235.469688 
" style="fill:none;stroke:#008000;stroke-linecap:square;stroke-width:1.75;"/>
    </g>
    <g id="line2d_34"/>
    <g id="text_16">
     <!-- Label -->
     <g transform="translate(82.7490625 238.9696875)scale(0.1 -0.1)">
      <use xlink:href="#BitstreamVeraSans-Roman-4c"/>
      <use x="55.712890625" xlink:href="#BitstreamVeraSans-Roman-61"/>
      <use x="116.9921875" xlink:href="#BitstreamVeraSans-Roman-62"/>
      <use x="180.46875" xlink:href="#BitstreamVeraSans-Roman-65"/>
      <use x="241.9921875" xlink:href="#BitstreamVeraSans-Roman-6c"/>
     </g>
    </g>
    <g id="line2d_35">
     <path d="M 57.749063 250.147813 
L 71.749063 250.147813 
" style="fill:none;stroke:#ff0000;stroke-linecap:square;stroke-width:1.75;"/>
    </g>
    <g id="line2d_36"/>
    <g id="text_17">
     <!-- Label -->
     <g transform="translate(82.7490625 253.6478125)scale(0.1 -0.1)">
      <use xlink:href="#BitstreamVeraSans-Roman-4c"/>
      <use x="55.712890625" xlink:href="#BitstreamVeraSans-Roman-61"/>
      <use x="116.9921875" xlink:href="#BitstreamVeraSans-Roman-62"/>
      <use x="180.46875" xlink:href="#BitstreamVeraSans-Roman-65"/>
      <use x="241.9921875" xlink:href="#BitstreamVeraSans-Roman-6c"/>
     </g>
    </g>
    <g id="line2d_37">
     <path d="M 57.749063 264.825938 
L 71.749063 264.825938 
" style="fill:none;stroke:#00bfbf;stroke-linecap:square;stroke-width:1.75;"/>
    </g>
    <g id="line2d_38"/>
    <g id="text_18">
     <!-- Label -->
     <g transform="translate(82.7490625 268.3259375)scale(0.1 -0.1)">
      <use xlink:href="#BitstreamVeraSans-Roman-4c"/>
      <use x="55.712890625" xlink:href="#BitstreamVeraSans-Roman-61"/>
      <use x="116.9921875" xlink:href="#BitstreamVeraSans-Roman-62"/>
      <use x="180.46875" xlink:href="#BitstreamVeraSans-Roman-65"/>
      <use x="241.9921875" xlink:href="#BitstreamVeraSans-Roman-6c"/>
     </g>
    </g>
    <g id="line2d_39">
     <path d="M 57.749063 279.504063 
L 71.749063 279.504063 
" style="fill:none;stroke:#bf00bf;stroke-linecap:square;stroke-width:1.75;"/>
    </g>
    <g id="line2d_40"/>
    <g id="text_19">
     <!-- Label -->
     <g transform="translate(82.7490625 283.0040625)scale(0.1 -0.1)">
      <use xlink:href="#BitstreamVeraSans-Roman-4c"/>
      <use x="55.712890625" xlink:href="#BitstreamVeraSans-Roman-61"/>
      <use x="116.9921875" xlink:href="#BitstreamVeraSans-Roman-62"/>
      <use x="180.46875" xlink:href="#BitstreamVeraSans-Roman-65"/>
      <use x="241.9921875" xlink:href="#BitstreamVeraSans-Roman-6c"/>
     </g>
    </g>
    <g id="line2d_41">
     <path d="M 57.749063 294.182188 
L 71.749063 294.182188 
" style="fill:none;stroke:#bfbf00;stroke-linecap:square;stroke-width:1.75;"/>
    </g>
    <g id="line2d_42"/>
    <g id="text_20">
     <!-- Label -->
     <g transform="translate(82.7490625 297.6821875)scale(0.1 -0.1)">
      <use xlink:href="#BitstreamVeraSans-Roman-4c"/>
      <use x="55.712890625" xlink:href="#BitstreamVeraSans-Roman-61"/>
      <use x="116.9921875" xlink:href="#BitstreamVeraSans-Roman-62"/>
      <use x="180.46875" xlink:href="#BitstreamVeraSans-Roman-65"/>
      <use x="241.9921875" xlink:href="#BitstreamVeraSans-Roman-6c"/>
     </g>
    </g>
    <g id="line2d_43">
     <path d="M 57.749063 308.860313 
L 71.749063 308.860313 
" style="fill:none;stroke:#000000;stroke-linecap:square;stroke-width:1.75;"/>
    </g>
    <g id="line2d_44"/>
    <g id="text_21">
     <!-- Label -->
     <g transform="translate(82.7490625 312.3603125)scale(0.1 -0.1)">
      <use xlink:href="#BitstreamVeraSans-Roman-4c"/>
      <use x="55.712890625" xlink:href="#BitstreamVeraSans-Roman-61"/>
      <use x="116.9921875" xlink:href="#BitstreamVeraSans-Roman-62"/>
      <use x="180.46875" xlink:href="#BitstreamVeraSans-Roman-65"/>
      <use x="241.9921875" xlink:href="#BitstreamVeraSans-Roman-6c"/>
     </g>
    </g>
    <g id="line2d_45">
     <path d="M 57.749063 323.538438 
L 71.749063 323.538438 
" style="fill:none;stroke:#0000ff;stroke-linecap:square;stroke-width:1.75;"/>
    </g>
    <g id="line2d_46"/>
    <g id="text_22">
     <!-- Label -->
     <g transform="translate(82.7490625 327.0384375)scale(0.1 -0.1)">
      <use xlink:href="#BitstreamVeraSans-Roman-4c"/>
      <use x="55.712890625" xlink:href="#BitstreamVeraSans-Roman-61"/>
      <use x="116.9921875" xlink:href="#BitstreamVeraSans-Roman-62"/>
      <use x="180.46875" xlink:href="#BitstreamVeraSans-Roman-65"/>
      <use x="241.9921875" xlink:href="#BitstreamVeraSans-Roman-6c"/>
     </g>
    </g>
   </g>
  </g>
 </g>
 <defs>
  <clipPath id="p8a76a910e2">
   <rect height="316.8" width="446.4" x="45.7490625" y="21.318125"/>
  </clipPath>
 </defs>
</svg>
