<?xml version="1.0" encoding="utf-8" standalone="no"?>
<!DOCTYPE svg PUBLIC "-//W3C//DTD SVG 1.1//EN"
  "http://www.w3.org/Graphics/SVG/1.1/DTD/svg11.dtd">
<!-- Created with matplotlib (http://matplotlib.org/) -->
<svg height="377pt" version="1.1" viewBox="0 0 505 377" width="505pt" xmlns="http://www.w3.org/2000/svg" xmlns:xlink="http://www.w3.org/1999/xlink">
 <defs>
  <style type="text/css">
*{stroke-linecap:butt;stroke-linejoin:round;stroke-miterlimit:100000;}
  </style>
 </defs>
 <g id="figure_1">
  <g id="patch_1">
   <path d="M 0 377.642188 
L 505.711562 377.642188 
L 505.711562 0 
L 0 0 
z
" style="fill:#ffffff;"/>
  </g>
  <g id="axes_1">
   <g id="patch_2">
    <path d="M 45.749063 338.118125 
L 492.149063 338.118125 
L 492.149063 21.318125 
L 45.749063 21.318125 
z
" style="fill:#ffffff;"/>
   </g>
   <g id="line2d_1">
    <path clip-path="url(#pbb110ef883)" d="M 45.749062 22.590217 
L 47.242039 22.425963 
L 48.735016 22.307993 
L 50.227992 23.18259 
L 53.213945 24.207466 
L 54.706922 23.368911 
L 56.199899 23.731715 
L 57.692875 23.831965 
L 59.185852 23.664572 
L 60.678828 23.972474 
L 62.171805 23.212521 
L 63.664782 25.423212 
L 65.157758 23.353399 
L 66.650735 23.947593 
L 68.143711 26.24304 
L 69.636688 24.555027 
L 71.129665 25.716322 
L 72.622641 26.44047 
L 74.115618 29.282054 
L 75.608594 27.138681 
L 77.101571 26.695209 
L 78.594547 26.766272 
L 80.087524 28.357715 
L 81.580501 29.473072 
L 83.073477 33.36262 
L 84.566454 26.641014 
L 86.05943 27.045785 
L 87.552407 30.44914 
L 89.045384 24.925132 
L 90.53836 28.658469 
L 92.031337 33.286831 
L 93.524313 33.781242 
L 95.01729 32.038407 
L 96.510267 29.667206 
L 98.003243 34.605496 
L 99.49622 48.192105 
L 100.989196 46.442214 
L 102.482173 30.634146 
L 103.975149 31.008707 
L 105.468126 35.35124 
L 106.961103 41.340171 
L 108.454079 53.510422 
L 109.947056 40.634602 
L 111.440032 40.362938 
L 114.425986 59.014461 
L 115.918962 62.963159 
L 117.411939 51.366746 
L 118.904915 60.483972 
L 120.397892 62.220648 
L 121.890869 58.089419 
L 123.383845 55.817677 
L 124.876822 62.060196 
L 126.369798 81.181705 
L 127.862775 58.248991 
L 129.355751 55.530027 
L 130.848728 72.700282 
L 132.341705 85.003302 
L 133.834681 54.207635 
L 135.327658 82.59566 
L 136.820634 77.833634 
L 138.313611 76.079131 
L 139.806588 123.618783 
L 141.299564 88.60003 
L 142.792541 130.970189 
L 144.285517 95.061777 
L 145.778494 116.06602 
L 147.271471 111.347185 
L 148.764447 105.171305 
L 150.257424 116.510313 
L 151.7504 84.31358 
L 153.243377 150.931926 
L 154.736353 116.066137 
L 156.22933 139.130462 
L 157.722307 155.039217 
L 159.215283 102.781234 
L 160.70826 135.378887 
L 162.201236 201.638413 
L 163.694213 219.120915 
L 165.18719 206.434386 
L 166.680166 252.472489 
L 168.173143 229.047111 
L 169.666119 197.780926 
L 171.159096 218.496465 
L 172.652073 228.947701 
L 174.145049 238.347143 
L 175.638026 250.135304 
L 177.131002 213.042353 
L 178.623979 211.051241 
L 180.116955 263.078007 
L 181.609932 251.708453 
L 183.102909 271.412145 
L 184.595885 301.298603 
L 186.088862 321.217439 
L 187.581838 321.460361 
L 189.074815 283.373945 
L 190.567792 329.377854 
L 192.060768 307.945267 
L 193.553745 335.382263 
L 195.046721 331.71838 
L 196.539698 301.268474 
L 198.032675 298.687674 
L 199.525651 336.176642 
L 201.018628 318.509293 
L 202.511604 332.125962 
L 205.497557 337.503105 
L 206.990534 336.999658 
L 208.483511 337.66702 
L 209.976487 337.584774 
L 211.469464 335.299599 
L 212.96244 337.865291 
L 214.455417 334.79827 
L 215.948394 337.550801 
L 217.44137 338.115074 
L 218.934347 337.914371 
L 220.427323 338.077791 
L 221.9203 337.573181 
L 223.413277 338.040897 
L 226.39923 338.118125 
L 236.850066 338.118125 
L 492.149062 338.118125 
L 492.149062 338.118125 
" style="fill:none;stroke:#0000ff;stroke-linecap:square;stroke-width:1.75;"/>
   </g>
   <g id="line2d_2">
    <path clip-path="url(#pbb110ef883)" d="M 45.749062 21.75967 
L 47.242039 21.735302 
L 48.735016 21.544466 
L 50.227992 21.712212 
L 51.720969 22.00012 
L 53.213945 21.725948 
L 57.692875 21.599723 
L 59.185852 21.82928 
L 60.678828 21.84 
L 62.171805 21.99344 
L 63.664782 21.733458 
L 65.157758 22.070908 
L 66.650735 21.747647 
L 68.143711 22.355726 
L 69.636688 22.719777 
L 71.129665 22.475374 
L 74.115618 22.310948 
L 75.608594 22.689756 
L 77.101571 22.18313 
L 78.594547 23.090061 
L 80.087524 22.217653 
L 81.580501 22.338344 
L 83.073477 22.961426 
L 84.566454 22.744203 
L 86.05943 22.743875 
L 87.552407 22.900534 
L 90.53836 23.729832 
L 92.031337 23.229851 
L 93.524313 23.300891 
L 95.01729 24.595227 
L 96.510267 23.897439 
L 99.49622 23.7827 
L 100.989196 25.168946 
L 102.482173 23.986691 
L 103.975149 25.8456 
L 105.468126 23.879794 
L 106.961103 24.970063 
L 108.454079 25.795338 
L 109.947056 24.291569 
L 111.440032 26.407825 
L 112.933009 31.059537 
L 114.425986 26.431628 
L 115.918962 25.370484 
L 117.411939 26.844821 
L 118.904915 26.444102 
L 120.397892 30.989774 
L 121.890869 37.214351 
L 123.383845 33.610939 
L 124.876822 28.947066 
L 126.369798 31.905354 
L 127.862775 38.470993 
L 129.355751 35.996259 
L 130.848728 37.024597 
L 132.341705 35.693681 
L 133.834681 35.075883 
L 135.327658 40.314729 
L 136.820634 38.921195 
L 138.313611 45.631115 
L 139.806588 39.162886 
L 141.299564 45.463564 
L 142.792541 45.566068 
L 144.285517 55.191137 
L 147.271471 50.116605 
L 148.764447 58.242725 
L 150.257424 49.110694 
L 151.7504 46.858835 
L 153.243377 59.577685 
L 154.736353 54.082505 
L 156.22933 64.917531 
L 157.722307 72.920979 
L 159.215283 58.03153 
L 160.70826 69.754281 
L 162.201236 79.357092 
L 163.694213 84.139009 
L 165.18719 80.70912 
L 166.680166 74.327521 
L 168.173143 74.952008 
L 169.666119 103.495837 
L 171.159096 106.325144 
L 172.652073 95.452151 
L 174.145049 110.837962 
L 175.638026 83.565489 
L 177.131002 72.52807 
L 178.623979 84.488409 
L 180.116955 77.913026 
L 181.609932 112.535995 
L 183.102909 110.523574 
L 184.595885 104.121349 
L 186.088862 107.832763 
L 187.581838 149.613595 
L 189.074815 155.661587 
L 190.567792 125.678418 
L 192.060768 110.323646 
L 193.553745 137.656949 
L 195.046721 160.025446 
L 196.539698 161.897481 
L 198.032675 127.102905 
L 199.525651 182.993271 
L 201.018628 140.489061 
L 202.511604 178.344422 
L 204.004581 209.944991 
L 205.497557 209.26343 
L 206.990534 171.432292 
L 208.483511 236.817552 
L 209.976487 266.975559 
L 211.469464 228.397692 
L 212.96244 302.561255 
L 214.455417 242.746253 
L 215.948394 263.671055 
L 217.44137 268.708227 
L 218.934347 296.168526 
L 220.427323 274.154636 
L 221.9203 307.990548 
L 224.906253 275.379801 
L 227.892206 312.433639 
L 229.385183 335.603229 
L 230.878159 280.69957 
L 232.371136 328.021436 
L 233.864113 328.81876 
L 235.357089 334.125259 
L 236.850066 318.727444 
L 238.343042 331.986874 
L 239.836019 335.695205 
L 241.328996 337.383114 
L 242.821972 338.078836 
L 244.314949 338.109535 
L 245.807925 337.352225 
L 247.300902 337.865962 
L 248.793879 336.22953 
L 251.779832 338.118067 
L 275.667457 338.118125 
L 492.149062 338.118125 
L 492.149062 338.118125 
" style="fill:none;stroke:#008000;stroke-linecap:square;stroke-width:1.75;"/>
   </g>
   <g id="line2d_3">
    <path clip-path="url(#pbb110ef883)" d="M 45.749062 21.395464 
L 59.185852 21.471016 
L 60.678828 21.715961 
L 62.171805 21.390745 
L 68.143711 21.788529 
L 69.636688 21.457787 
L 72.622641 21.58453 
L 75.608594 21.544226 
L 77.101571 21.785682 
L 78.594547 21.83524 
L 83.073477 21.593579 
L 84.566454 22.352721 
L 86.05943 21.770972 
L 87.552407 21.728609 
L 89.045384 22.00133 
L 90.53836 21.87271 
L 92.031337 21.907538 
L 93.524313 22.586763 
L 95.01729 21.9475 
L 96.510267 22.04514 
L 98.003243 22.000747 
L 99.49622 22.496334 
L 100.989196 22.422659 
L 102.482173 22.618932 
L 103.975149 23.599 
L 105.468126 22.596897 
L 108.454079 22.495154 
L 109.947056 22.294307 
L 111.440032 23.198944 
L 112.933009 22.828958 
L 114.425986 23.246128 
L 117.411939 23.687842 
L 118.904915 23.273992 
L 120.397892 22.660429 
L 121.890869 25.426926 
L 123.383845 24.3848 
L 124.876822 23.735801 
L 126.369798 25.065182 
L 127.862775 23.308267 
L 129.355751 25.117228 
L 130.848728 24.192936 
L 132.341705 25.401328 
L 133.834681 25.714301 
L 135.327658 27.563444 
L 136.820634 25.895441 
L 138.313611 28.125281 
L 139.806588 27.316701 
L 141.299564 33.711286 
L 142.792541 28.919546 
L 144.285517 25.808996 
L 145.778494 35.056795 
L 147.271471 30.951467 
L 148.764447 31.767102 
L 150.257424 30.34014 
L 151.7504 30.55173 
L 153.243377 27.831333 
L 154.736353 29.186178 
L 156.22933 36.153665 
L 157.722307 34.603455 
L 159.215283 36.472243 
L 160.70826 31.488658 
L 162.201236 43.036143 
L 163.694213 44.687603 
L 165.18719 34.748898 
L 166.680166 36.327136 
L 168.173143 38.685431 
L 169.666119 45.763684 
L 171.159096 48.008496 
L 172.652073 35.288909 
L 174.145049 39.520831 
L 175.638026 57.165445 
L 177.131002 50.924441 
L 178.623979 45.376886 
L 180.116955 40.744539 
L 181.609932 51.954477 
L 183.102909 46.942837 
L 184.595885 66.419842 
L 186.088862 57.07272 
L 187.581838 75.957735 
L 189.074815 71.904622 
L 190.567792 103.323401 
L 192.060768 53.088401 
L 193.553745 83.439674 
L 195.046721 90.794635 
L 196.539698 83.552856 
L 198.032675 78.101353 
L 199.525651 108.646474 
L 201.018628 64.235442 
L 202.511604 60.427817 
L 204.004581 160.067081 
L 205.497557 95.723053 
L 206.990534 82.586988 
L 208.483511 67.184595 
L 209.976487 73.915694 
L 211.469464 114.179526 
L 212.96244 99.514967 
L 214.455417 133.190623 
L 215.948394 153.704874 
L 217.44137 237.351442 
L 218.934347 120.742106 
L 220.427323 169.398067 
L 221.9203 159.39842 
L 223.413277 183.405748 
L 224.906253 160.521391 
L 226.39923 193.270617 
L 227.892206 200.263958 
L 229.385183 264.090276 
L 230.878159 218.015527 
L 232.371136 274.367791 
L 233.864113 289.6561 
L 235.357089 213.211788 
L 236.850066 237.365768 
L 238.343042 222.10372 
L 239.836019 242.320495 
L 241.328996 249.614933 
L 242.821972 299.619773 
L 244.314949 266.526014 
L 247.300902 282.176538 
L 248.793879 318.84629 
L 250.286855 330.320141 
L 251.779832 286.392716 
L 253.272808 298.028643 
L 254.765785 320.181744 
L 256.258761 321.253644 
L 257.751738 326.703835 
L 259.244715 334.327017 
L 260.737691 303.91012 
L 262.230668 315.605333 
L 263.723644 324.435086 
L 265.216621 325.897427 
L 266.709598 337.721491 
L 268.202574 331.379003 
L 269.695551 335.999224 
L 272.681504 337.313164 
L 274.174481 335.573297 
L 275.667457 337.093209 
L 278.65341 338.062283 
L 280.146387 337.583878 
L 281.639364 335.691791 
L 283.13234 337.856926 
L 284.625317 338.11537 
L 286.118293 338.118015 
L 287.61127 337.663561 
L 289.104246 338.117924 
L 290.597223 338.11809 
L 292.0902 337.884037 
L 293.583176 338.117574 
L 492.149062 338.118125 
L 492.149062 338.118125 
" style="fill:none;stroke:#ff0000;stroke-linecap:square;stroke-width:1.75;"/>
   </g>
   <g id="line2d_4">
    <path clip-path="url(#pbb110ef883)" d="M 45.749062 21.330514 
L 78.594547 21.394803 
L 80.087524 21.503152 
L 83.073477 21.398905 
L 93.524313 21.478776 
L 95.01729 21.408399 
L 96.510267 21.509772 
L 99.49622 21.472588 
L 103.975149 21.534653 
L 112.933009 21.580399 
L 114.425986 21.773998 
L 115.918962 21.525722 
L 117.411939 21.662989 
L 118.904915 21.637251 
L 120.397892 21.927454 
L 121.890869 21.712728 
L 124.876822 21.940962 
L 126.369798 21.577137 
L 127.862775 21.87123 
L 130.848728 21.943743 
L 132.341705 22.171538 
L 135.327658 22.186994 
L 136.820634 22.45885 
L 138.313611 21.99745 
L 139.806588 22.070447 
L 141.299564 23.030015 
L 142.792541 22.352933 
L 144.285517 23.074555 
L 145.778494 22.541731 
L 147.271471 23.183237 
L 148.764447 22.81483 
L 150.257424 22.952339 
L 151.7504 23.380228 
L 153.243377 23.595943 
L 154.736353 24.072847 
L 156.22933 23.847445 
L 157.722307 22.940356 
L 159.215283 24.858581 
L 160.70826 26.082934 
L 162.201236 24.356551 
L 163.694213 24.816783 
L 165.18719 25.970207 
L 166.680166 26.280086 
L 168.173143 26.002861 
L 169.666119 26.232686 
L 171.159096 27.2836 
L 172.652073 27.419762 
L 174.145049 25.843636 
L 175.638026 24.767192 
L 177.131002 28.450752 
L 178.623979 30.438865 
L 180.116955 30.044525 
L 181.609932 29.817566 
L 183.102909 29.060659 
L 184.595885 31.784107 
L 186.088862 34.17925 
L 187.581838 28.217228 
L 189.074815 31.682115 
L 190.567792 40.890117 
L 192.060768 38.452272 
L 193.553745 33.31798 
L 195.046721 45.340574 
L 196.539698 42.792381 
L 198.032675 36.250169 
L 199.525651 44.155855 
L 201.018628 40.088557 
L 202.511604 62.216536 
L 204.004581 41.544755 
L 206.990534 49.732989 
L 208.483511 54.102905 
L 209.976487 46.851579 
L 211.469464 38.023582 
L 212.96244 61.557412 
L 214.455417 70.675892 
L 215.948394 60.463633 
L 217.44137 67.561743 
L 218.934347 54.072103 
L 220.427323 68.131995 
L 221.9203 60.784724 
L 223.413277 70.000148 
L 224.906253 108.990549 
L 226.39923 79.283612 
L 227.892206 68.643819 
L 229.385183 93.781541 
L 230.878159 84.818771 
L 232.371136 97.215812 
L 233.864113 133.041135 
L 235.357089 114.698107 
L 236.850066 130.427003 
L 238.343042 112.375712 
L 239.836019 130.656422 
L 241.328996 120.335259 
L 242.821972 133.983504 
L 244.314949 158.721756 
L 245.807925 120.116509 
L 247.300902 178.861829 
L 248.793879 202.987288 
L 250.286855 161.61282 
L 251.779832 186.369838 
L 253.272808 187.661105 
L 254.765785 231.459344 
L 256.258761 138.595296 
L 257.751738 235.686713 
L 259.244715 270.640667 
L 260.737691 195.394659 
L 262.230668 274.311883 
L 263.723644 204.024526 
L 265.216621 262.773598 
L 266.709598 297.22419 
L 268.202574 221.271152 
L 269.695551 214.649439 
L 271.188527 293.451345 
L 272.681504 263.45331 
L 274.174481 268.033867 
L 275.667457 310.14667 
L 277.160434 311.107436 
L 278.65341 268.324106 
L 280.146387 242.237757 
L 281.639364 292.601883 
L 283.13234 290.028798 
L 284.625317 309.749958 
L 286.118293 334.244052 
L 287.61127 312.054879 
L 289.104246 315.690741 
L 290.597223 317.474285 
L 292.0902 332.057757 
L 293.583176 333.408502 
L 295.076153 335.849276 
L 296.569129 334.509756 
L 298.062106 331.135136 
L 299.555083 335.099875 
L 301.048059 335.205033 
L 302.541036 335.470106 
L 304.034012 337.169893 
L 305.526989 338.115872 
L 307.019966 337.647295 
L 308.512942 336.054955 
L 310.005919 338.084391 
L 312.991872 336.807976 
L 314.484848 335.69032 
L 315.977825 338.113473 
L 348.82331 338.118125 
L 492.149062 338.118125 
L 492.149062 338.118125 
" style="fill:none;stroke:#00bfbf;stroke-linecap:square;stroke-width:1.75;"/>
   </g>
   <g id="line2d_5">
    <path clip-path="url(#pbb110ef883)" d="M 45.749062 21.321506 
L 108.454079 21.360802 
L 111.440032 21.381665 
L 124.876822 21.454281 
L 126.369798 21.390574 
L 130.848728 21.47204 
L 141.299564 21.557871 
L 147.271471 21.556675 
L 148.764447 22.209503 
L 150.257424 21.541495 
L 153.243377 21.874831 
L 156.22933 21.78443 
L 157.722307 22.16091 
L 159.215283 21.804476 
L 160.70826 21.719017 
L 162.201236 22.295649 
L 163.694213 22.084217 
L 166.680166 22.022638 
L 168.173143 22.109643 
L 169.666119 22.416375 
L 171.159096 22.418666 
L 172.652073 22.206527 
L 174.145049 22.880575 
L 175.638026 22.402159 
L 177.131002 22.339639 
L 178.623979 23.203747 
L 180.116955 23.70287 
L 181.609932 22.586324 
L 183.102909 22.678435 
L 184.595885 23.712752 
L 186.088862 23.078997 
L 189.074815 23.413683 
L 190.567792 22.523563 
L 192.060768 23.869669 
L 193.553745 23.255385 
L 195.046721 22.844244 
L 196.539698 24.347702 
L 198.032675 25.032358 
L 199.525651 25.320187 
L 201.018628 25.870606 
L 202.511604 25.677981 
L 204.004581 25.337175 
L 205.497557 25.266702 
L 206.990534 25.779581 
L 209.976487 25.113902 
L 211.469464 26.082087 
L 212.96244 27.645948 
L 214.455417 29.689359 
L 215.948394 31.298813 
L 217.44137 29.140055 
L 218.934347 28.721921 
L 220.427323 27.876055 
L 221.9203 28.17224 
L 223.413277 37.207313 
L 224.906253 31.14494 
L 226.39923 28.622498 
L 227.892206 33.294025 
L 229.385183 30.403545 
L 230.878159 33.461816 
L 232.371136 31.991705 
L 233.864113 40.216827 
L 235.357089 38.258793 
L 236.850066 41.730437 
L 238.343042 38.259601 
L 239.836019 37.805992 
L 241.328996 41.444326 
L 242.821972 39.184034 
L 244.314949 47.342511 
L 245.807925 42.93884 
L 247.300902 55.889201 
L 248.793879 48.779571 
L 250.286855 48.035444 
L 251.779832 48.961296 
L 253.272808 45.446079 
L 254.765785 44.570679 
L 256.258761 44.472067 
L 257.751738 59.881844 
L 259.244715 68.728223 
L 260.737691 66.116533 
L 262.230668 77.461949 
L 263.723644 81.662875 
L 265.216621 63.05214 
L 266.709598 50.690827 
L 268.202574 91.326685 
L 269.695551 75.691162 
L 271.188527 84.320857 
L 272.681504 85.92897 
L 274.174481 126.441624 
L 275.667457 105.781093 
L 277.160434 131.533431 
L 278.65341 106.199364 
L 280.146387 111.524761 
L 281.639364 82.517053 
L 283.13234 189.516823 
L 284.625317 120.573822 
L 286.118293 164.208613 
L 287.61127 216.252069 
L 289.104246 205.052927 
L 290.597223 128.427162 
L 292.0902 154.347321 
L 295.076153 273.62634 
L 296.569129 193.545204 
L 298.062106 249.946881 
L 299.555083 194.054183 
L 301.048059 218.243452 
L 302.541036 160.260707 
L 304.034012 216.202402 
L 305.526989 188.919883 
L 307.019966 305.5543 
L 308.512942 223.77077 
L 310.005919 254.243872 
L 311.498895 223.891298 
L 312.991872 254.344214 
L 314.484848 257.322209 
L 315.977825 294.304589 
L 317.470802 272.443262 
L 318.963778 285.92747 
L 320.456755 279.07553 
L 321.949731 329.718032 
L 323.442708 313.043033 
L 324.935685 319.555084 
L 326.428661 336.218166 
L 327.921638 319.465659 
L 329.414614 315.85296 
L 330.907591 335.524825 
L 332.400568 327.198526 
L 333.893544 335.531626 
L 335.386521 314.129616 
L 336.879497 337.084993 
L 338.372474 337.226713 
L 339.86545 313.755246 
L 341.358427 337.231372 
L 342.851404 335.512738 
L 344.34438 330.731976 
L 345.837357 336.963628 
L 347.330333 337.648066 
L 348.82331 336.619667 
L 350.316287 337.487672 
L 351.809263 338.117946 
L 353.30224 338.011913 
L 356.288193 338.118005 
L 369.724982 338.117818 
L 492.149062 338.118125 
L 492.149062 338.118125 
" style="fill:none;stroke:#bf00bf;stroke-linecap:square;stroke-width:1.75;"/>
   </g>
   <g id="line2d_6">
    <path clip-path="url(#pbb110ef883)" d="M 45.749062 21.319081 
L 145.778494 21.382318 
L 151.7504 21.461432 
L 153.243377 21.383782 
L 159.215283 21.422839 
L 169.666119 21.530437 
L 177.131002 21.561404 
L 178.623979 21.877839 
L 180.116955 21.880361 
L 181.609932 21.585224 
L 184.595885 21.714243 
L 186.088862 21.924632 
L 187.581838 21.776517 
L 189.074815 21.982504 
L 190.567792 21.58691 
L 192.060768 21.944275 
L 195.046721 21.894388 
L 196.539698 22.098186 
L 198.032675 21.896539 
L 199.525651 21.962561 
L 202.511604 22.504347 
L 204.004581 22.225367 
L 205.497557 22.549542 
L 206.990534 23.03741 
L 208.483511 22.765957 
L 209.976487 22.299582 
L 211.469464 22.460379 
L 214.455417 23.24014 
L 215.948394 24.332102 
L 217.44137 23.926888 
L 220.427323 23.637305 
L 221.9203 24.503447 
L 223.413277 24.786037 
L 224.906253 23.383347 
L 226.39923 23.767492 
L 227.892206 27.113707 
L 229.385183 26.212055 
L 230.878159 26.029149 
L 232.371136 25.627776 
L 233.864113 24.980116 
L 235.357089 26.745037 
L 236.850066 27.241427 
L 238.343042 26.282781 
L 239.836019 29.077986 
L 241.328996 28.249921 
L 242.821972 29.178002 
L 244.314949 27.902241 
L 245.807925 37.399047 
L 247.300902 29.200207 
L 248.793879 29.361213 
L 250.286855 28.116965 
L 251.779832 29.159871 
L 253.272808 28.807399 
L 254.765785 33.431345 
L 256.258761 36.111286 
L 257.751738 30.754515 
L 259.244715 30.41771 
L 260.737691 36.131463 
L 263.723644 28.529492 
L 265.216621 35.547765 
L 266.709598 46.42123 
L 268.202574 55.373451 
L 269.695551 40.326578 
L 271.188527 41.065454 
L 272.681504 40.714847 
L 274.174481 49.956786 
L 275.667457 43.042391 
L 277.160434 55.318299 
L 278.65341 44.207471 
L 280.146387 46.774015 
L 281.639364 47.536869 
L 283.13234 46.040228 
L 284.625317 74.066854 
L 286.118293 73.105213 
L 287.61127 69.328889 
L 289.104246 87.43298 
L 290.597223 47.287878 
L 292.0902 66.227087 
L 293.583176 70.969864 
L 295.076153 102.319138 
L 296.569129 120.081657 
L 298.062106 101.353575 
L 299.555083 94.049582 
L 301.048059 107.427422 
L 302.541036 115.006638 
L 304.034012 118.572996 
L 305.526989 155.548036 
L 307.019966 137.643313 
L 308.512942 116.12187 
L 310.005919 146.175823 
L 311.498895 192.403774 
L 312.991872 142.228557 
L 314.484848 143.667358 
L 315.977825 212.455724 
L 317.470802 216.128855 
L 318.963778 170.53438 
L 320.456755 168.77048 
L 321.949731 191.913619 
L 323.442708 218.04108 
L 324.935685 186.537946 
L 326.428661 187.022589 
L 327.921638 205.29441 
L 329.414614 199.871729 
L 330.907591 226.595669 
L 332.400568 235.772494 
L 333.893544 272.357038 
L 335.386521 248.719502 
L 336.879497 245.148291 
L 338.372474 277.172754 
L 339.86545 164.627051 
L 341.358427 321.650865 
L 342.851404 293.475211 
L 344.34438 258.536636 
L 345.837357 279.073527 
L 347.330333 288.080352 
L 348.82331 316.044934 
L 350.316287 309.071079 
L 351.809263 282.648123 
L 353.30224 273.505971 
L 354.795216 323.560372 
L 356.288193 323.367351 
L 357.78117 299.497366 
L 359.274146 334.461414 
L 360.767123 336.057423 
L 362.260099 338.033294 
L 363.753076 337.783033 
L 365.246052 336.127084 
L 366.739029 335.436376 
L 368.232006 337.649067 
L 369.724982 335.402369 
L 371.217959 337.957473 
L 372.710935 336.9326 
L 374.203912 336.405013 
L 375.696889 335.287233 
L 377.189865 338.103149 
L 378.682842 338.118007 
L 380.175818 337.84923 
L 381.668795 338.118016 
L 383.161772 337.992406 
L 386.147725 338.106749 
L 387.640701 336.81136 
L 389.133678 338.118124 
L 407.049397 338.118125 
L 492.149062 338.118125 
L 492.149062 338.118125 
" style="fill:none;stroke:#bfbf00;stroke-linecap:square;stroke-width:1.75;"/>
   </g>
   <g id="line2d_7">
    <path clip-path="url(#pbb110ef883)" d="M 45.749062 21.318286 
L 177.131002 21.374992 
L 178.623979 21.439501 
L 180.116955 21.376519 
L 183.102909 21.419174 
L 190.567792 21.406274 
L 193.553745 21.448891 
L 198.032675 21.450633 
L 211.469464 21.616827 
L 212.96244 21.850141 
L 214.455417 21.588935 
L 215.948394 21.761017 
L 221.9203 21.58711 
L 227.892206 21.853525 
L 229.385183 22.146772 
L 230.878159 22.197052 
L 232.371136 22.039714 
L 233.864113 22.788977 
L 235.357089 22.387755 
L 236.850066 22.332194 
L 238.343042 22.68367 
L 239.836019 22.787972 
L 241.328996 23.258916 
L 242.821972 22.838568 
L 244.314949 23.019995 
L 245.807925 22.912444 
L 247.300902 23.315572 
L 248.793879 22.50323 
L 250.286855 22.937988 
L 251.779832 23.66938 
L 253.272808 22.995649 
L 254.765785 23.132798 
L 257.751738 23.668979 
L 259.244715 24.226037 
L 260.737691 26.013273 
L 262.230668 24.670113 
L 263.723644 24.679947 
L 265.216621 23.913383 
L 266.709598 24.353474 
L 268.202574 25.657403 
L 269.695551 28.596625 
L 271.188527 25.871767 
L 272.681504 25.367657 
L 274.174481 24.443512 
L 275.667457 26.256939 
L 277.160434 29.87753 
L 278.65341 27.792668 
L 280.146387 28.220957 
L 281.639364 27.971244 
L 283.13234 27.418853 
L 284.625317 28.982882 
L 286.118293 27.7122 
L 287.61127 30.198986 
L 289.104246 29.148773 
L 290.597223 33.92027 
L 292.0902 33.560652 
L 293.583176 33.38567 
L 295.076153 32.026891 
L 296.569129 33.17455 
L 298.062106 36.946082 
L 299.555083 36.728431 
L 301.048059 40.244116 
L 302.541036 35.197051 
L 304.034012 45.037369 
L 305.526989 34.655292 
L 307.019966 35.104013 
L 308.512942 56.154494 
L 310.005919 41.61156 
L 311.498895 56.24378 
L 312.991872 54.423026 
L 314.484848 57.252418 
L 315.977825 55.369574 
L 317.470802 55.400864 
L 318.963778 55.921489 
L 320.456755 97.321063 
L 321.949731 60.322467 
L 323.442708 61.423048 
L 324.935685 53.240942 
L 326.428661 103.411356 
L 327.921638 51.824254 
L 329.414614 77.493911 
L 330.907591 79.491128 
L 332.400568 93.560858 
L 333.893544 119.624305 
L 335.386521 93.146771 
L 336.879497 102.383105 
L 338.372474 66.986615 
L 339.86545 90.068223 
L 341.358427 127.699073 
L 342.851404 101.839588 
L 344.34438 126.913528 
L 345.837357 110.759798 
L 347.330333 97.606746 
L 348.82331 132.156066 
L 350.316287 120.296295 
L 351.809263 201.797093 
L 353.30224 147.219269 
L 354.795216 183.043695 
L 356.288193 112.570293 
L 357.78117 190.973422 
L 359.274146 231.840307 
L 360.767123 215.281554 
L 362.260099 209.79004 
L 363.753076 217.639302 
L 365.246052 206.654755 
L 366.739029 234.215794 
L 368.232006 233.62309 
L 369.724982 223.623417 
L 371.217959 258.990764 
L 372.710935 252.369177 
L 374.203912 193.897363 
L 375.696889 287.609095 
L 377.189865 207.529677 
L 378.682842 257.840821 
L 380.175818 272.159814 
L 381.668795 213.79177 
L 383.161772 320.803969 
L 384.654748 302.89338 
L 386.147725 305.266942 
L 387.640701 311.510702 
L 389.133678 308.168651 
L 390.626654 337.549903 
L 392.119631 333.32443 
L 393.612608 337.450926 
L 395.105584 337.874542 
L 396.598561 328.880866 
L 398.091537 332.677451 
L 399.584514 324.110591 
L 401.077491 330.821588 
L 402.570467 330.432926 
L 404.063444 338.05305 
L 405.55642 338.111125 
L 408.542374 337.300331 
L 410.03535 338.092719 
L 411.528327 337.979612 
L 413.021303 338.099518 
L 414.51428 337.456523 
L 416.007256 338.094386 
L 420.486186 338.106837 
L 421.979163 337.943416 
L 423.472139 338.117795 
L 492.149062 338.118125 
L 492.149062 338.118125 
" style="fill:none;stroke:#000000;stroke-linecap:square;stroke-width:1.75;"/>
   </g>
   <g id="line2d_8">
    <path clip-path="url(#pbb110ef883)" d="M 45.749062 21.318165 
L 220.427323 21.39155 
L 224.906253 21.400904 
L 227.892206 21.405342 
L 233.864113 21.393163 
L 238.343042 21.528556 
L 241.328996 21.499712 
L 244.314949 21.657591 
L 247.300902 21.576887 
L 250.286855 21.637356 
L 251.779832 21.577511 
L 256.258761 21.768399 
L 262.230668 21.767961 
L 263.723644 21.838867 
L 265.216621 21.735974 
L 266.709598 21.996935 
L 269.695551 21.957754 
L 271.188527 21.746866 
L 272.681504 21.910274 
L 275.667457 21.738631 
L 280.146387 22.206631 
L 281.639364 22.015255 
L 283.13234 22.733695 
L 284.625317 22.428773 
L 287.61127 22.669378 
L 289.104246 23.003617 
L 290.597223 22.545226 
L 292.0902 22.711856 
L 293.583176 22.57732 
L 295.076153 23.232884 
L 296.569129 23.387251 
L 298.062106 23.732583 
L 302.541036 23.423878 
L 304.034012 25.87497 
L 305.526989 23.585938 
L 307.019966 23.244999 
L 308.512942 26.359436 
L 310.005919 25.057922 
L 311.498895 25.817973 
L 312.991872 25.740502 
L 314.484848 26.571377 
L 315.977825 25.642467 
L 317.470802 25.8349 
L 318.963778 25.479688 
L 320.456755 29.368387 
L 321.949731 29.895952 
L 323.442708 29.297499 
L 324.935685 30.961637 
L 326.428661 31.651862 
L 327.921638 35.823889 
L 329.414614 33.904811 
L 330.907591 32.183046 
L 332.400568 31.607917 
L 333.893544 29.358649 
L 335.386521 28.821467 
L 336.879497 29.172583 
L 338.372474 33.447367 
L 339.86545 35.653081 
L 341.358427 38.252027 
L 342.851404 36.003007 
L 344.34438 34.382285 
L 345.837357 41.464576 
L 347.330333 46.222881 
L 348.82331 29.809727 
L 350.316287 41.329161 
L 351.809263 48.066449 
L 353.30224 48.196285 
L 354.795216 45.031723 
L 356.288193 54.111094 
L 357.78117 50.52023 
L 359.274146 37.758305 
L 360.767123 76.254685 
L 362.260099 54.999415 
L 363.753076 46.628429 
L 365.246052 53.92792 
L 366.739029 67.532728 
L 368.232006 80.000101 
L 369.724982 80.36092 
L 371.217959 60.445874 
L 372.710935 108.424958 
L 374.203912 99.398137 
L 375.696889 80.076041 
L 377.189865 66.859909 
L 378.682842 62.510287 
L 380.175818 97.497434 
L 381.668795 127.280509 
L 383.161772 120.926081 
L 384.654748 70.694339 
L 386.147725 132.221274 
L 387.640701 113.700679 
L 389.133678 92.014856 
L 390.626654 87.227995 
L 392.119631 106.282011 
L 393.612608 175.261944 
L 395.105584 147.505437 
L 396.598561 96.884901 
L 398.091537 186.623367 
L 399.584514 160.535719 
L 401.077491 180.145132 
L 402.570467 201.841566 
L 404.063444 149.076532 
L 405.55642 182.003434 
L 407.049397 205.246574 
L 408.542374 185.957047 
L 410.03535 144.459098 
L 411.528327 171.675682 
L 413.021303 206.040608 
L 414.51428 218.137373 
L 416.007256 262.028954 
L 417.500233 159.605925 
L 418.99321 176.556662 
L 420.486186 210.86885 
L 421.979163 288.83878 
L 423.472139 232.3764 
L 424.965116 259.708339 
L 426.458093 311.82814 
L 427.951069 312.469401 
L 429.444046 287.256984 
L 430.937022 295.706612 
L 432.429999 269.539362 
L 433.922976 299.554385 
L 435.415952 313.944232 
L 436.908929 333.137081 
L 438.401905 332.546709 
L 439.894882 328.641148 
L 441.387858 299.388905 
L 442.880835 331.69377 
L 444.373812 323.072747 
L 445.866788 337.024282 
L 447.359765 324.080828 
L 448.852741 337.722533 
L 450.345718 327.501642 
L 451.838695 337.867037 
L 453.331671 336.23971 
L 454.824648 336.614295 
L 456.317624 330.628529 
L 457.810601 337.32825 
L 459.303578 337.677243 
L 460.796554 337.461251 
L 462.289531 338.107286 
L 481.698226 338.118098 
L 492.149062 338.118125 
L 492.149062 338.118125 
" style="fill:none;stroke:#0000ff;stroke-linecap:square;stroke-width:1.75;"/>
   </g>
   <g id="patch_3">
    <path d="M 45.749062 338.118125 
L 492.149062 338.118125 
" style="fill:none;stroke:#000000;stroke-linecap:square;stroke-linejoin:miter;"/>
   </g>
   <g id="patch_4">
    <path d="M 45.749063 338.118125 
L 45.749063 21.318125 
" style="fill:none;stroke:#000000;stroke-linecap:square;stroke-linejoin:miter;"/>
   </g>
   <g id="patch_5">
    <path d="M 45.749062 21.318125 
L 492.149062 21.318125 
" style="fill:none;stroke:#000000;stroke-linecap:square;stroke-linejoin:miter;"/>
   </g>
   <g id="patch_6">
    <path d="M 492.149063 338.118125 
L 492.149063 21.318125 
" style="fill:none;stroke:#000000;stroke-linecap:square;stroke-linejoin:miter;"/>
   </g>
   <g id="matplotlib.axis_1">
    <g id="xtick_1">
     <g id="line2d_9">
      <defs>
       <path d="M 0 0 
L 0 -4 
" id="mdfeef8e1cf" style="stroke:#000000;"/>
      </defs>
      <g>
       <use style="stroke:#000000;" x="45.7490625" xlink:href="#mdfeef8e1cf" y="338.118125"/>
      </g>
     </g>
     <g id="line2d_10">
      <defs>
       <path d="M 0 0 
L 0 4 
" id="m4f9ecde4bd" style="stroke:#000000;"/>
      </defs>
      <g>
       <use style="stroke:#000000;" x="45.7490625" xlink:href="#m4f9ecde4bd" y="21.318125"/>
      </g>
     </g>
     <g id="text_1">
      <!-- −10 -->
      <defs>
       <path d="M 10.59375 35.5 
L 73.1875 35.5 
L 73.1875 27.203125 
L 10.59375 27.203125 
z
" id="BitstreamVeraSans-Roman-2212"/>
       <path d="M 12.40625 8.296875 
L 28.515625 8.296875 
L 28.515625 63.921875 
L 10.984375 60.40625 
L 10.984375 69.390625 
L 28.421875 72.90625 
L 38.28125 72.90625 
L 38.28125 8.296875 
L 54.390625 8.296875 
L 54.390625 0 
L 12.40625 0 
z
" id="BitstreamVeraSans-Roman-31"/>
       <path d="M 31.78125 66.40625 
Q 24.171875 66.40625 20.328125 58.90625 
Q 16.5 51.421875 16.5 36.375 
Q 16.5 21.390625 20.328125 13.890625 
Q 24.171875 6.390625 31.78125 6.390625 
Q 39.453125 6.390625 43.28125 13.890625 
Q 47.125 21.390625 47.125 36.375 
Q 47.125 51.421875 43.28125 58.90625 
Q 39.453125 66.40625 31.78125 66.40625 
M 31.78125 74.21875 
Q 44.046875 74.21875 50.515625 64.515625 
Q 56.984375 54.828125 56.984375 36.375 
Q 56.984375 17.96875 50.515625 8.265625 
Q 44.046875 -1.421875 31.78125 -1.421875 
Q 19.53125 -1.421875 13.0625 8.265625 
Q 6.59375 17.96875 6.59375 36.375 
Q 6.59375 54.828125 13.0625 64.515625 
Q 19.53125 74.21875 31.78125 74.21875 
" id="BitstreamVeraSans-Roman-30"/>
      </defs>
      <g transform="translate(35.19671875 352.7165625)scale(0.1 -0.1)">
       <use xlink:href="#BitstreamVeraSans-Roman-2212"/>
       <use x="83.7890625" xlink:href="#BitstreamVeraSans-Roman-31"/>
       <use x="147.412109375" xlink:href="#BitstreamVeraSans-Roman-30"/>
      </g>
     </g>
    </g>
    <g id="xtick_2">
     <g id="line2d_11">
      <g>
       <use style="stroke:#000000;" x="157.3490625" xlink:href="#mdfeef8e1cf" y="338.118125"/>
      </g>
     </g>
     <g id="line2d_12">
      <g>
       <use style="stroke:#000000;" x="157.3490625" xlink:href="#m4f9ecde4bd" y="21.318125"/>
      </g>
     </g>
     <g id="text_2">
      <!-- −5 -->
      <defs>
       <path d="M 10.796875 72.90625 
L 49.515625 72.90625 
L 49.515625 64.59375 
L 19.828125 64.59375 
L 19.828125 46.734375 
Q 21.96875 47.46875 24.109375 47.828125 
Q 26.265625 48.1875 28.421875 48.1875 
Q 40.625 48.1875 47.75 41.5 
Q 54.890625 34.8125 54.890625 23.390625 
Q 54.890625 11.625 47.5625 5.09375 
Q 40.234375 -1.421875 26.90625 -1.421875 
Q 22.3125 -1.421875 17.546875 -0.640625 
Q 12.796875 0.140625 7.71875 1.703125 
L 7.71875 11.625 
Q 12.109375 9.234375 16.796875 8.0625 
Q 21.484375 6.890625 26.703125 6.890625 
Q 35.15625 6.890625 40.078125 11.328125 
Q 45.015625 15.765625 45.015625 23.390625 
Q 45.015625 31 40.078125 35.4375 
Q 35.15625 39.890625 26.703125 39.890625 
Q 22.75 39.890625 18.8125 39.015625 
Q 14.890625 38.140625 10.796875 36.28125 
z
" id="BitstreamVeraSans-Roman-35"/>
      </defs>
      <g transform="translate(149.97796875 352.7165625)scale(0.1 -0.1)">
       <use xlink:href="#BitstreamVeraSans-Roman-2212"/>
       <use x="83.7890625" xlink:href="#BitstreamVeraSans-Roman-35"/>
      </g>
     </g>
    </g>
    <g id="xtick_3">
     <g id="line2d_13">
      <g>
       <use style="stroke:#000000;" x="268.9490625" xlink:href="#mdfeef8e1cf" y="338.118125"/>
      </g>
     </g>
     <g id="line2d_14">
      <g>
       <use style="stroke:#000000;" x="268.9490625" xlink:href="#m4f9ecde4bd" y="21.318125"/>
      </g>
     </g>
     <g id="text_3">
      <!-- 0 -->
      <g transform="translate(265.7678125 352.7165625)scale(0.1 -0.1)">
       <use xlink:href="#BitstreamVeraSans-Roman-30"/>
      </g>
     </g>
    </g>
    <g id="xtick_4">
     <g id="line2d_15">
      <g>
       <use style="stroke:#000000;" x="380.5490625" xlink:href="#mdfeef8e1cf" y="338.118125"/>
      </g>
     </g>
     <g id="line2d_16">
      <g>
       <use style="stroke:#000000;" x="380.5490625" xlink:href="#m4f9ecde4bd" y="21.318125"/>
      </g>
     </g>
     <g id="text_4">
      <!-- 5 -->
      <g transform="translate(377.3678125 352.7165625)scale(0.1 -0.1)">
       <use xlink:href="#BitstreamVeraSans-Roman-35"/>
      </g>
     </g>
    </g>
    <g id="xtick_5">
     <g id="line2d_17">
      <g>
       <use style="stroke:#000000;" x="492.1490625" xlink:href="#mdfeef8e1cf" y="338.118125"/>
      </g>
     </g>
     <g id="line2d_18">
      <g>
       <use style="stroke:#000000;" x="492.1490625" xlink:href="#m4f9ecde4bd" y="21.318125"/>
      </g>
     </g>
     <g id="text_5">
      <!-- 10 -->
      <g transform="translate(485.7865625 352.7165625)scale(0.1 -0.1)">
       <use xlink:href="#BitstreamVeraSans-Roman-31"/>
       <use x="63.623046875" xlink:href="#BitstreamVeraSans-Roman-30"/>
      </g>
     </g>
    </g>
    <g id="text_6">
     <!-- This is the x-axis -->
     <defs>
      <path d="M 4.890625 31.390625 
L 31.203125 31.390625 
L 31.203125 23.390625 
L 4.890625 23.390625 
z
" id="BitstreamVeraSans-Roman-2d"/>
      <path d="M 34.28125 27.484375 
Q 23.390625 27.484375 19.1875 25 
Q 14.984375 22.515625 14.984375 16.5 
Q 14.984375 11.71875 18.140625 8.90625 
Q 21.296875 6.109375 26.703125 6.109375 
Q 34.1875 6.109375 38.703125 11.40625 
Q 43.21875 16.703125 43.21875 25.484375 
L 43.21875 27.484375 
z
M 52.203125 31.203125 
L 52.203125 0 
L 43.21875 0 
L 43.21875 8.296875 
Q 40.140625 3.328125 35.546875 0.953125 
Q 30.953125 -1.421875 24.3125 -1.421875 
Q 15.921875 -1.421875 10.953125 3.296875 
Q 6 8.015625 6 15.921875 
Q 6 25.140625 12.171875 29.828125 
Q 18.359375 34.515625 30.609375 34.515625 
L 43.21875 34.515625 
L 43.21875 35.40625 
Q 43.21875 41.609375 39.140625 45 
Q 35.0625 48.390625 27.6875 48.390625 
Q 23 48.390625 18.546875 47.265625 
Q 14.109375 46.140625 10.015625 43.890625 
L 10.015625 52.203125 
Q 14.9375 54.109375 19.578125 55.046875 
Q 24.21875 56 28.609375 56 
Q 40.484375 56 46.34375 49.84375 
Q 52.203125 43.703125 52.203125 31.203125 
" id="BitstreamVeraSans-Roman-61"/>
      <path id="BitstreamVeraSans-Roman-20"/>
      <path d="M 18.3125 70.21875 
L 18.3125 54.6875 
L 36.8125 54.6875 
L 36.8125 47.703125 
L 18.3125 47.703125 
L 18.3125 18.015625 
Q 18.3125 11.328125 20.140625 9.421875 
Q 21.96875 7.515625 27.59375 7.515625 
L 36.8125 7.515625 
L 36.8125 0 
L 27.59375 0 
Q 17.1875 0 13.234375 3.875 
Q 9.28125 7.765625 9.28125 18.015625 
L 9.28125 47.703125 
L 2.6875 47.703125 
L 2.6875 54.6875 
L 9.28125 54.6875 
L 9.28125 70.21875 
z
" id="BitstreamVeraSans-Roman-74"/>
      <path d="M -0.296875 72.90625 
L 61.375 72.90625 
L 61.375 64.59375 
L 35.5 64.59375 
L 35.5 0 
L 25.59375 0 
L 25.59375 64.59375 
L -0.296875 64.59375 
z
" id="BitstreamVeraSans-Roman-54"/>
      <path d="M 54.890625 33.015625 
L 54.890625 0 
L 45.90625 0 
L 45.90625 32.71875 
Q 45.90625 40.484375 42.875 44.328125 
Q 39.84375 48.1875 33.796875 48.1875 
Q 26.515625 48.1875 22.3125 43.546875 
Q 18.109375 38.921875 18.109375 30.90625 
L 18.109375 0 
L 9.078125 0 
L 9.078125 75.984375 
L 18.109375 75.984375 
L 18.109375 46.1875 
Q 21.34375 51.125 25.703125 53.5625 
Q 30.078125 56 35.796875 56 
Q 45.21875 56 50.046875 50.171875 
Q 54.890625 44.34375 54.890625 33.015625 
" id="BitstreamVeraSans-Roman-68"/>
      <path d="M 9.421875 54.6875 
L 18.40625 54.6875 
L 18.40625 0 
L 9.421875 0 
z
M 9.421875 75.984375 
L 18.40625 75.984375 
L 18.40625 64.59375 
L 9.421875 64.59375 
z
" id="BitstreamVeraSans-Roman-69"/>
      <path d="M 54.890625 54.6875 
L 35.109375 28.078125 
L 55.90625 0 
L 45.3125 0 
L 29.390625 21.484375 
L 13.484375 0 
L 2.875 0 
L 24.125 28.609375 
L 4.6875 54.6875 
L 15.28125 54.6875 
L 29.78125 35.203125 
L 44.28125 54.6875 
z
" id="BitstreamVeraSans-Roman-78"/>
      <path d="M 44.28125 53.078125 
L 44.28125 44.578125 
Q 40.484375 46.53125 36.375 47.5 
Q 32.28125 48.484375 27.875 48.484375 
Q 21.1875 48.484375 17.84375 46.4375 
Q 14.5 44.390625 14.5 40.28125 
Q 14.5 37.15625 16.890625 35.375 
Q 19.28125 33.59375 26.515625 31.984375 
L 29.59375 31.296875 
Q 39.15625 29.25 43.1875 25.515625 
Q 47.21875 21.78125 47.21875 15.09375 
Q 47.21875 7.46875 41.1875 3.015625 
Q 35.15625 -1.421875 24.609375 -1.421875 
Q 20.21875 -1.421875 15.453125 -0.5625 
Q 10.6875 0.296875 5.421875 2 
L 5.421875 11.28125 
Q 10.40625 8.6875 15.234375 7.390625 
Q 20.0625 6.109375 24.8125 6.109375 
Q 31.15625 6.109375 34.5625 8.28125 
Q 37.984375 10.453125 37.984375 14.40625 
Q 37.984375 18.0625 35.515625 20.015625 
Q 33.0625 21.96875 24.703125 23.78125 
L 21.578125 24.515625 
Q 13.234375 26.265625 9.515625 29.90625 
Q 5.8125 33.546875 5.8125 39.890625 
Q 5.8125 47.609375 11.28125 51.796875 
Q 16.75 56 26.8125 56 
Q 31.78125 56 36.171875 55.265625 
Q 40.578125 54.546875 44.28125 53.078125 
" id="BitstreamVeraSans-Roman-73"/>
      <path d="M 56.203125 29.59375 
L 56.203125 25.203125 
L 14.890625 25.203125 
Q 15.484375 15.921875 20.484375 11.0625 
Q 25.484375 6.203125 34.421875 6.203125 
Q 39.59375 6.203125 44.453125 7.46875 
Q 49.3125 8.734375 54.109375 11.28125 
L 54.109375 2.78125 
Q 49.265625 0.734375 44.1875 -0.34375 
Q 39.109375 -1.421875 33.890625 -1.421875 
Q 20.796875 -1.421875 13.15625 6.1875 
Q 5.515625 13.8125 5.515625 26.8125 
Q 5.515625 40.234375 12.765625 48.109375 
Q 20.015625 56 32.328125 56 
Q 43.359375 56 49.78125 48.890625 
Q 56.203125 41.796875 56.203125 29.59375 
M 47.21875 32.234375 
Q 47.125 39.59375 43.09375 43.984375 
Q 39.0625 48.390625 32.421875 48.390625 
Q 24.90625 48.390625 20.390625 44.140625 
Q 15.875 39.890625 15.1875 32.171875 
z
" id="BitstreamVeraSans-Roman-65"/>
     </defs>
     <g transform="translate(222.789453125 368.15453125)scale(0.11 -0.11)">
      <use xlink:href="#BitstreamVeraSans-Roman-54"/>
      <use x="61.083984375" xlink:href="#BitstreamVeraSans-Roman-68"/>
      <use x="124.462890625" xlink:href="#BitstreamVeraSans-Roman-69"/>
      <use x="152.24609375" xlink:href="#BitstreamVeraSans-Roman-73"/>
      <use x="204.345703125" xlink:href="#BitstreamVeraSans-Roman-20"/>
      <use x="236.1328125" xlink:href="#BitstreamVeraSans-Roman-69"/>
      <use x="263.916015625" xlink:href="#BitstreamVeraSans-Roman-73"/>
      <use x="316.015625" xlink:href="#BitstreamVeraSans-Roman-20"/>
      <use x="347.802734375" xlink:href="#BitstreamVeraSans-Roman-74"/>
      <use x="387.01171875" xlink:href="#BitstreamVeraSans-Roman-68"/>
      <use x="450.390625" xlink:href="#BitstreamVeraSans-Roman-65"/>
      <use x="511.9140625" xlink:href="#BitstreamVeraSans-Roman-20"/>
      <use x="543.701171875" xlink:href="#BitstreamVeraSans-Roman-78"/>
      <use x="602.880859375" xlink:href="#BitstreamVeraSans-Roman-2d"/>
      <use x="638.96484375" xlink:href="#BitstreamVeraSans-Roman-61"/>
      <use x="700.244140625" xlink:href="#BitstreamVeraSans-Roman-78"/>
      <use x="759.423828125" xlink:href="#BitstreamVeraSans-Roman-69"/>
      <use x="787.20703125" xlink:href="#BitstreamVeraSans-Roman-73"/>
     </g>
    </g>
   </g>
   <g id="matplotlib.axis_2">
    <g id="ytick_1">
     <g id="line2d_19">
      <defs>
       <path d="M 0 0 
L 4 0 
" id="ma2ccaabb2b" style="stroke:#000000;"/>
      </defs>
      <g>
       <use style="stroke:#000000;" x="45.7490625" xlink:href="#ma2ccaabb2b" y="338.118125"/>
      </g>
     </g>
     <g id="line2d_20">
      <defs>
       <path d="M 0 0 
L -4 0 
" id="md744dac27a" style="stroke:#000000;"/>
      </defs>
      <g>
       <use style="stroke:#000000;" x="492.1490625" xlink:href="#md744dac27a" y="338.118125"/>
      </g>
     </g>
     <g id="text_7">
      <!-- 0.0 -->
      <defs>
       <path d="M 10.6875 12.40625 
L 21 12.40625 
L 21 0 
L 10.6875 0 
z
" id="BitstreamVeraSans-Roman-2e"/>
      </defs>
      <g transform="translate(22.8459375 340.8775)scale(0.1 -0.1)">
       <use xlink:href="#BitstreamVeraSans-Roman-30"/>
       <use x="63.623046875" xlink:href="#BitstreamVeraSans-Roman-2e"/>
       <use x="95.41015625" xlink:href="#BitstreamVeraSans-Roman-30"/>
      </g>
     </g>
    </g>
    <g id="ytick_2">
     <g id="line2d_21">
      <g>
       <use style="stroke:#000000;" x="45.7490625" xlink:href="#ma2ccaabb2b" y="274.758125"/>
      </g>
     </g>
     <g id="line2d_22">
      <g>
       <use style="stroke:#000000;" x="492.1490625" xlink:href="#md744dac27a" y="274.758125"/>
      </g>
     </g>
     <g id="text_8">
      <!-- 0.2 -->
      <defs>
       <path d="M 19.1875 8.296875 
L 53.609375 8.296875 
L 53.609375 0 
L 7.328125 0 
L 7.328125 8.296875 
Q 12.9375 14.109375 22.625 23.890625 
Q 32.328125 33.6875 34.8125 36.53125 
Q 39.546875 41.84375 41.421875 45.53125 
Q 43.3125 49.21875 43.3125 52.78125 
Q 43.3125 58.59375 39.234375 62.25 
Q 35.15625 65.921875 28.609375 65.921875 
Q 23.96875 65.921875 18.8125 64.3125 
Q 13.671875 62.703125 7.8125 59.421875 
L 7.8125 69.390625 
Q 13.765625 71.78125 18.9375 73 
Q 24.125 74.21875 28.421875 74.21875 
Q 39.75 74.21875 46.484375 68.546875 
Q 53.21875 62.890625 53.21875 53.421875 
Q 53.21875 48.921875 51.53125 44.890625 
Q 49.859375 40.875 45.40625 35.40625 
Q 44.1875 33.984375 37.640625 27.21875 
Q 31.109375 20.453125 19.1875 8.296875 
" id="BitstreamVeraSans-Roman-32"/>
      </defs>
      <g transform="translate(22.8459375 277.5175)scale(0.1 -0.1)">
       <use xlink:href="#BitstreamVeraSans-Roman-30"/>
       <use x="63.623046875" xlink:href="#BitstreamVeraSans-Roman-2e"/>
       <use x="95.41015625" xlink:href="#BitstreamVeraSans-Roman-32"/>
      </g>
     </g>
    </g>
    <g id="ytick_3">
     <g id="line2d_23">
      <g>
       <use style="stroke:#000000;" x="45.7490625" xlink:href="#ma2ccaabb2b" y="211.398125"/>
      </g>
     </g>
     <g id="line2d_24">
      <g>
       <use style="stroke:#000000;" x="492.1490625" xlink:href="#md744dac27a" y="211.398125"/>
      </g>
     </g>
     <g id="text_9">
      <!-- 0.4 -->
      <defs>
       <path d="M 37.796875 64.3125 
L 12.890625 25.390625 
L 37.796875 25.390625 
z
M 35.203125 72.90625 
L 47.609375 72.90625 
L 47.609375 25.390625 
L 58.015625 25.390625 
L 58.015625 17.1875 
L 47.609375 17.1875 
L 47.609375 0 
L 37.796875 0 
L 37.796875 17.1875 
L 4.890625 17.1875 
L 4.890625 26.703125 
z
" id="BitstreamVeraSans-Roman-34"/>
      </defs>
      <g transform="translate(22.8459375 214.1575)scale(0.1 -0.1)">
       <use xlink:href="#BitstreamVeraSans-Roman-30"/>
       <use x="63.623046875" xlink:href="#BitstreamVeraSans-Roman-2e"/>
       <use x="95.41015625" xlink:href="#BitstreamVeraSans-Roman-34"/>
      </g>
     </g>
    </g>
    <g id="ytick_4">
     <g id="line2d_25">
      <g>
       <use style="stroke:#000000;" x="45.7490625" xlink:href="#ma2ccaabb2b" y="148.038125"/>
      </g>
     </g>
     <g id="line2d_26">
      <g>
       <use style="stroke:#000000;" x="492.1490625" xlink:href="#md744dac27a" y="148.038125"/>
      </g>
     </g>
     <g id="text_10">
      <!-- 0.6 -->
      <defs>
       <path d="M 33.015625 40.375 
Q 26.375 40.375 22.484375 35.828125 
Q 18.609375 31.296875 18.609375 23.390625 
Q 18.609375 15.53125 22.484375 10.953125 
Q 26.375 6.390625 33.015625 6.390625 
Q 39.65625 6.390625 43.53125 10.953125 
Q 47.40625 15.53125 47.40625 23.390625 
Q 47.40625 31.296875 43.53125 35.828125 
Q 39.65625 40.375 33.015625 40.375 
M 52.59375 71.296875 
L 52.59375 62.3125 
Q 48.875 64.0625 45.09375 64.984375 
Q 41.3125 65.921875 37.59375 65.921875 
Q 27.828125 65.921875 22.671875 59.328125 
Q 17.53125 52.734375 16.796875 39.40625 
Q 19.671875 43.65625 24.015625 45.921875 
Q 28.375 48.1875 33.59375 48.1875 
Q 44.578125 48.1875 50.953125 41.515625 
Q 57.328125 34.859375 57.328125 23.390625 
Q 57.328125 12.15625 50.6875 5.359375 
Q 44.046875 -1.421875 33.015625 -1.421875 
Q 20.359375 -1.421875 13.671875 8.265625 
Q 6.984375 17.96875 6.984375 36.375 
Q 6.984375 53.65625 15.1875 63.9375 
Q 23.390625 74.21875 37.203125 74.21875 
Q 40.921875 74.21875 44.703125 73.484375 
Q 48.484375 72.75 52.59375 71.296875 
" id="BitstreamVeraSans-Roman-36"/>
      </defs>
      <g transform="translate(22.8459375 150.7975)scale(0.1 -0.1)">
       <use xlink:href="#BitstreamVeraSans-Roman-30"/>
       <use x="63.623046875" xlink:href="#BitstreamVeraSans-Roman-2e"/>
       <use x="95.41015625" xlink:href="#BitstreamVeraSans-Roman-36"/>
      </g>
     </g>
    </g>
    <g id="ytick_5">
     <g id="line2d_27">
      <g>
       <use style="stroke:#000000;" x="45.7490625" xlink:href="#ma2ccaabb2b" y="84.678125"/>
      </g>
     </g>
     <g id="line2d_28">
      <g>
       <use style="stroke:#000000;" x="492.1490625" xlink:href="#md744dac27a" y="84.678125"/>
      </g>
     </g>
     <g id="text_11">
      <!-- 0.8 -->
      <defs>
       <path d="M 31.78125 34.625 
Q 24.75 34.625 20.71875 30.859375 
Q 16.703125 27.09375 16.703125 20.515625 
Q 16.703125 13.921875 20.71875 10.15625 
Q 24.75 6.390625 31.78125 6.390625 
Q 38.8125 6.390625 42.859375 10.171875 
Q 46.921875 13.96875 46.921875 20.515625 
Q 46.921875 27.09375 42.890625 30.859375 
Q 38.875 34.625 31.78125 34.625 
M 21.921875 38.8125 
Q 15.578125 40.375 12.03125 44.71875 
Q 8.5 49.078125 8.5 55.328125 
Q 8.5 64.0625 14.71875 69.140625 
Q 20.953125 74.21875 31.78125 74.21875 
Q 42.671875 74.21875 48.875 69.140625 
Q 55.078125 64.0625 55.078125 55.328125 
Q 55.078125 49.078125 51.53125 44.71875 
Q 48 40.375 41.703125 38.8125 
Q 48.828125 37.15625 52.796875 32.3125 
Q 56.78125 27.484375 56.78125 20.515625 
Q 56.78125 9.90625 50.3125 4.234375 
Q 43.84375 -1.421875 31.78125 -1.421875 
Q 19.734375 -1.421875 13.25 4.234375 
Q 6.78125 9.90625 6.78125 20.515625 
Q 6.78125 27.484375 10.78125 32.3125 
Q 14.796875 37.15625 21.921875 38.8125 
M 18.3125 54.390625 
Q 18.3125 48.734375 21.84375 45.5625 
Q 25.390625 42.390625 31.78125 42.390625 
Q 38.140625 42.390625 41.71875 45.5625 
Q 45.3125 48.734375 45.3125 54.390625 
Q 45.3125 60.0625 41.71875 63.234375 
Q 38.140625 66.40625 31.78125 66.40625 
Q 25.390625 66.40625 21.84375 63.234375 
Q 18.3125 60.0625 18.3125 54.390625 
" id="BitstreamVeraSans-Roman-38"/>
      </defs>
      <g transform="translate(22.8459375 87.4375)scale(0.1 -0.1)">
       <use xlink:href="#BitstreamVeraSans-Roman-30"/>
       <use x="63.623046875" xlink:href="#BitstreamVeraSans-Roman-2e"/>
       <use x="95.41015625" xlink:href="#BitstreamVeraSans-Roman-38"/>
      </g>
     </g>
    </g>
    <g id="ytick_6">
     <g id="line2d_29">
      <g>
       <use style="stroke:#000000;" x="45.7490625" xlink:href="#ma2ccaabb2b" y="21.318125"/>
      </g>
     </g>
     <g id="line2d_30">
      <g>
       <use style="stroke:#000000;" x="492.1490625" xlink:href="#md744dac27a" y="21.318125"/>
      </g>
     </g>
     <g id="text_12">
      <!-- 1.0 -->
      <g transform="translate(22.8459375 24.0775)scale(0.1 -0.1)">
       <use xlink:href="#BitstreamVeraSans-Roman-31"/>
       <use x="63.623046875" xlink:href="#BitstreamVeraSans-Roman-2e"/>
       <use x="95.41015625" xlink:href="#BitstreamVeraSans-Roman-30"/>
      </g>
     </g>
    </g>
    <g id="text_13">
     <!-- Random but decaying values -->
     <defs>
      <path d="M 48.6875 27.296875 
Q 48.6875 37.203125 44.609375 42.84375 
Q 40.53125 48.484375 33.40625 48.484375 
Q 26.265625 48.484375 22.1875 42.84375 
Q 18.109375 37.203125 18.109375 27.296875 
Q 18.109375 17.390625 22.1875 11.75 
Q 26.265625 6.109375 33.40625 6.109375 
Q 40.53125 6.109375 44.609375 11.75 
Q 48.6875 17.390625 48.6875 27.296875 
M 18.109375 46.390625 
Q 20.953125 51.265625 25.265625 53.625 
Q 29.59375 56 35.59375 56 
Q 45.5625 56 51.78125 48.09375 
Q 58.015625 40.1875 58.015625 27.296875 
Q 58.015625 14.40625 51.78125 6.484375 
Q 45.5625 -1.421875 35.59375 -1.421875 
Q 29.59375 -1.421875 25.265625 0.953125 
Q 20.953125 3.328125 18.109375 8.203125 
L 18.109375 0 
L 9.078125 0 
L 9.078125 75.984375 
L 18.109375 75.984375 
z
" id="BitstreamVeraSans-Roman-62"/>
      <path d="M 45.40625 46.390625 
L 45.40625 75.984375 
L 54.390625 75.984375 
L 54.390625 0 
L 45.40625 0 
L 45.40625 8.203125 
Q 42.578125 3.328125 38.25 0.953125 
Q 33.9375 -1.421875 27.875 -1.421875 
Q 17.96875 -1.421875 11.734375 6.484375 
Q 5.515625 14.40625 5.515625 27.296875 
Q 5.515625 40.1875 11.734375 48.09375 
Q 17.96875 56 27.875 56 
Q 33.9375 56 38.25 53.625 
Q 42.578125 51.265625 45.40625 46.390625 
M 14.796875 27.296875 
Q 14.796875 17.390625 18.875 11.75 
Q 22.953125 6.109375 30.078125 6.109375 
Q 37.203125 6.109375 41.296875 11.75 
Q 45.40625 17.390625 45.40625 27.296875 
Q 45.40625 37.203125 41.296875 42.84375 
Q 37.203125 48.484375 30.078125 48.484375 
Q 22.953125 48.484375 18.875 42.84375 
Q 14.796875 37.203125 14.796875 27.296875 
" id="BitstreamVeraSans-Roman-64"/>
      <path d="M 32.171875 -5.078125 
Q 28.375 -14.84375 24.75 -17.8125 
Q 21.140625 -20.796875 15.09375 -20.796875 
L 7.90625 -20.796875 
L 7.90625 -13.28125 
L 13.1875 -13.28125 
Q 16.890625 -13.28125 18.9375 -11.515625 
Q 21 -9.765625 23.484375 -3.21875 
L 25.09375 0.875 
L 2.984375 54.6875 
L 12.5 54.6875 
L 29.59375 11.921875 
L 46.6875 54.6875 
L 56.203125 54.6875 
z
" id="BitstreamVeraSans-Roman-79"/>
      <path d="M 54.890625 33.015625 
L 54.890625 0 
L 45.90625 0 
L 45.90625 32.71875 
Q 45.90625 40.484375 42.875 44.328125 
Q 39.84375 48.1875 33.796875 48.1875 
Q 26.515625 48.1875 22.3125 43.546875 
Q 18.109375 38.921875 18.109375 30.90625 
L 18.109375 0 
L 9.078125 0 
L 9.078125 54.6875 
L 18.109375 54.6875 
L 18.109375 46.1875 
Q 21.34375 51.125 25.703125 53.5625 
Q 30.078125 56 35.796875 56 
Q 45.21875 56 50.046875 50.171875 
Q 54.890625 44.34375 54.890625 33.015625 
" id="BitstreamVeraSans-Roman-6e"/>
      <path d="M 52 44.1875 
Q 55.375 50.25 60.0625 53.125 
Q 64.75 56 71.09375 56 
Q 79.640625 56 84.28125 50.015625 
Q 88.921875 44.046875 88.921875 33.015625 
L 88.921875 0 
L 79.890625 0 
L 79.890625 32.71875 
Q 79.890625 40.578125 77.09375 44.375 
Q 74.3125 48.1875 68.609375 48.1875 
Q 61.625 48.1875 57.5625 43.546875 
Q 53.515625 38.921875 53.515625 30.90625 
L 53.515625 0 
L 44.484375 0 
L 44.484375 32.71875 
Q 44.484375 40.625 41.703125 44.40625 
Q 38.921875 48.1875 33.109375 48.1875 
Q 26.21875 48.1875 22.15625 43.53125 
Q 18.109375 38.875 18.109375 30.90625 
L 18.109375 0 
L 9.078125 0 
L 9.078125 54.6875 
L 18.109375 54.6875 
L 18.109375 46.1875 
Q 21.1875 51.21875 25.484375 53.609375 
Q 29.78125 56 35.6875 56 
Q 41.65625 56 45.828125 52.96875 
Q 50 49.953125 52 44.1875 
" id="BitstreamVeraSans-Roman-6d"/>
      <path d="M 48.78125 52.59375 
L 48.78125 44.1875 
Q 44.96875 46.296875 41.140625 47.34375 
Q 37.3125 48.390625 33.40625 48.390625 
Q 24.65625 48.390625 19.8125 42.84375 
Q 14.984375 37.3125 14.984375 27.296875 
Q 14.984375 17.28125 19.8125 11.734375 
Q 24.65625 6.203125 33.40625 6.203125 
Q 37.3125 6.203125 41.140625 7.25 
Q 44.96875 8.296875 48.78125 10.40625 
L 48.78125 2.09375 
Q 45.015625 0.34375 40.984375 -0.53125 
Q 36.96875 -1.421875 32.421875 -1.421875 
Q 20.0625 -1.421875 12.78125 6.34375 
Q 5.515625 14.109375 5.515625 27.296875 
Q 5.515625 40.671875 12.859375 48.328125 
Q 20.21875 56 33.015625 56 
Q 37.15625 56 41.109375 55.140625 
Q 45.0625 54.296875 48.78125 52.59375 
" id="BitstreamVeraSans-Roman-63"/>
      <path d="M 9.421875 75.984375 
L 18.40625 75.984375 
L 18.40625 0 
L 9.421875 0 
z
" id="BitstreamVeraSans-Roman-6c"/>
      <path d="M 45.40625 27.984375 
Q 45.40625 37.75 41.375 43.109375 
Q 37.359375 48.484375 30.078125 48.484375 
Q 22.859375 48.484375 18.828125 43.109375 
Q 14.796875 37.75 14.796875 27.984375 
Q 14.796875 18.265625 18.828125 12.890625 
Q 22.859375 7.515625 30.078125 7.515625 
Q 37.359375 7.515625 41.375 12.890625 
Q 45.40625 18.265625 45.40625 27.984375 
M 54.390625 6.78125 
Q 54.390625 -7.171875 48.1875 -13.984375 
Q 42 -20.796875 29.203125 -20.796875 
Q 24.46875 -20.796875 20.265625 -20.09375 
Q 16.0625 -19.390625 12.109375 -17.921875 
L 12.109375 -9.1875 
Q 16.0625 -11.328125 19.921875 -12.34375 
Q 23.78125 -13.375 27.78125 -13.375 
Q 36.625 -13.375 41.015625 -8.765625 
Q 45.40625 -4.15625 45.40625 5.171875 
L 45.40625 9.625 
Q 42.625 4.78125 38.28125 2.390625 
Q 33.9375 0 27.875 0 
Q 17.828125 0 11.671875 7.65625 
Q 5.515625 15.328125 5.515625 27.984375 
Q 5.515625 40.671875 11.671875 48.328125 
Q 17.828125 56 27.875 56 
Q 33.9375 56 38.28125 53.609375 
Q 42.625 51.21875 45.40625 46.390625 
L 45.40625 54.6875 
L 54.390625 54.6875 
z
" id="BitstreamVeraSans-Roman-67"/>
      <path d="M 44.390625 34.1875 
Q 47.5625 33.109375 50.5625 29.59375 
Q 53.5625 26.078125 56.59375 19.921875 
L 66.609375 0 
L 56 0 
L 46.6875 18.703125 
Q 43.0625 26.03125 39.671875 28.421875 
Q 36.28125 30.8125 30.421875 30.8125 
L 19.671875 30.8125 
L 19.671875 0 
L 9.8125 0 
L 9.8125 72.90625 
L 32.078125 72.90625 
Q 44.578125 72.90625 50.734375 67.671875 
Q 56.890625 62.453125 56.890625 51.90625 
Q 56.890625 45.015625 53.6875 40.46875 
Q 50.484375 35.9375 44.390625 34.1875 
M 19.671875 64.796875 
L 19.671875 38.921875 
L 32.078125 38.921875 
Q 39.203125 38.921875 42.84375 42.21875 
Q 46.484375 45.515625 46.484375 51.90625 
Q 46.484375 58.296875 42.84375 61.546875 
Q 39.203125 64.796875 32.078125 64.796875 
z
" id="BitstreamVeraSans-Roman-52"/>
      <path d="M 8.5 21.578125 
L 8.5 54.6875 
L 17.484375 54.6875 
L 17.484375 21.921875 
Q 17.484375 14.15625 20.5 10.265625 
Q 23.53125 6.390625 29.59375 6.390625 
Q 36.859375 6.390625 41.078125 11.03125 
Q 45.3125 15.671875 45.3125 23.6875 
L 45.3125 54.6875 
L 54.296875 54.6875 
L 54.296875 0 
L 45.3125 0 
L 45.3125 8.40625 
Q 42.046875 3.421875 37.71875 1 
Q 33.40625 -1.421875 27.6875 -1.421875 
Q 18.265625 -1.421875 13.375 4.4375 
Q 8.5 10.296875 8.5 21.578125 
" id="BitstreamVeraSans-Roman-75"/>
      <path d="M 30.609375 48.390625 
Q 23.390625 48.390625 19.1875 42.75 
Q 14.984375 37.109375 14.984375 27.296875 
Q 14.984375 17.484375 19.15625 11.84375 
Q 23.34375 6.203125 30.609375 6.203125 
Q 37.796875 6.203125 41.984375 11.859375 
Q 46.1875 17.53125 46.1875 27.296875 
Q 46.1875 37.015625 41.984375 42.703125 
Q 37.796875 48.390625 30.609375 48.390625 
M 30.609375 56 
Q 42.328125 56 49.015625 48.375 
Q 55.71875 40.765625 55.71875 27.296875 
Q 55.71875 13.875 49.015625 6.21875 
Q 42.328125 -1.421875 30.609375 -1.421875 
Q 18.84375 -1.421875 12.171875 6.21875 
Q 5.515625 13.875 5.515625 27.296875 
Q 5.515625 40.765625 12.171875 48.375 
Q 18.84375 56 30.609375 56 
" id="BitstreamVeraSans-Roman-6f"/>
      <path d="M 2.984375 54.6875 
L 12.5 54.6875 
L 29.59375 8.796875 
L 46.6875 54.6875 
L 56.203125 54.6875 
L 35.6875 0 
L 23.484375 0 
z
" id="BitstreamVeraSans-Roman-76"/>
     </defs>
     <g transform="translate(15.55828125 259.905546875)rotate(-90.0)scale(0.11 -0.11)">
      <use xlink:href="#BitstreamVeraSans-Roman-52"/>
      <use x="69.451171875" xlink:href="#BitstreamVeraSans-Roman-61"/>
      <use x="130.73046875" xlink:href="#BitstreamVeraSans-Roman-6e"/>
      <use x="194.109375" xlink:href="#BitstreamVeraSans-Roman-64"/>
      <use x="257.5859375" xlink:href="#BitstreamVeraSans-Roman-6f"/>
      <use x="318.767578125" xlink:href="#BitstreamVeraSans-Roman-6d"/>
      <use x="416.1796875" xlink:href="#BitstreamVeraSans-Roman-20"/>
      <use x="447.966796875" xlink:href="#BitstreamVeraSans-Roman-62"/>
      <use x="511.443359375" xlink:href="#BitstreamVeraSans-Roman-75"/>
      <use x="574.822265625" xlink:href="#BitstreamVeraSans-Roman-74"/>
      <use x="614.03125" xlink:href="#BitstreamVeraSans-Roman-20"/>
      <use x="645.818359375" xlink:href="#BitstreamVeraSans-Roman-64"/>
      <use x="709.294921875" xlink:href="#BitstreamVeraSans-Roman-65"/>
      <use x="770.818359375" xlink:href="#BitstreamVeraSans-Roman-63"/>
      <use x="825.798828125" xlink:href="#BitstreamVeraSans-Roman-61"/>
      <use x="887.078125" xlink:href="#BitstreamVeraSans-Roman-79"/>
      <use x="946.2578125" xlink:href="#BitstreamVeraSans-Roman-69"/>
      <use x="974.041015625" xlink:href="#BitstreamVeraSans-Roman-6e"/>
      <use x="1037.419921875" xlink:href="#BitstreamVeraSans-Roman-67"/>
      <use x="1100.896484375" xlink:href="#BitstreamVeraSans-Roman-20"/>
      <use x="1132.68359375" xlink:href="#BitstreamVeraSans-Roman-76"/>
      <use x="1191.86328125" xlink:href="#BitstreamVeraSans-Roman-61"/>
      <use x="1253.142578125" xlink:href="#BitstreamVeraSans-Roman-6c"/>
      <use x="1280.92578125" xlink:href="#BitstreamVeraSans-Roman-75"/>
      <use x="1344.3046875" xlink:href="#BitstreamVeraSans-Roman-65"/>
      <use x="1405.828125" xlink:href="#BitstreamVeraSans-Roman-73"/>
     </g>
    </g>
   </g>
   <g id="text_14">
    <!-- Qualitatively Different Lines -->
    <defs>
     <path d="M 19.671875 64.796875 
L 19.671875 8.109375 
L 31.59375 8.109375 
Q 46.6875 8.109375 53.6875 14.9375 
Q 60.6875 21.78125 60.6875 36.53125 
Q 60.6875 51.171875 53.6875 57.984375 
Q 46.6875 64.796875 31.59375 64.796875 
z
M 9.8125 72.90625 
L 30.078125 72.90625 
Q 51.265625 72.90625 61.171875 64.09375 
Q 71.09375 55.28125 71.09375 36.53125 
Q 71.09375 17.671875 61.125 8.828125 
Q 51.171875 0 30.078125 0 
L 9.8125 0 
z
" id="BitstreamVeraSans-Roman-44"/>
     <path d="M 37.109375 75.984375 
L 37.109375 68.5 
L 28.515625 68.5 
Q 23.6875 68.5 21.796875 66.546875 
Q 19.921875 64.59375 19.921875 59.515625 
L 19.921875 54.6875 
L 34.71875 54.6875 
L 34.71875 47.703125 
L 19.921875 47.703125 
L 19.921875 0 
L 10.890625 0 
L 10.890625 47.703125 
L 2.296875 47.703125 
L 2.296875 54.6875 
L 10.890625 54.6875 
L 10.890625 58.5 
Q 10.890625 67.625 15.140625 71.796875 
Q 19.390625 75.984375 28.609375 75.984375 
z
" id="BitstreamVeraSans-Roman-66"/>
     <path d="M 9.8125 72.90625 
L 19.671875 72.90625 
L 19.671875 8.296875 
L 55.171875 8.296875 
L 55.171875 0 
L 9.8125 0 
z
" id="BitstreamVeraSans-Roman-4c"/>
     <path d="M 39.40625 66.21875 
Q 28.65625 66.21875 22.328125 58.203125 
Q 16.015625 50.203125 16.015625 36.375 
Q 16.015625 22.609375 22.328125 14.59375 
Q 28.65625 6.59375 39.40625 6.59375 
Q 50.140625 6.59375 56.421875 14.59375 
Q 62.703125 22.609375 62.703125 36.375 
Q 62.703125 50.203125 56.421875 58.203125 
Q 50.140625 66.21875 39.40625 66.21875 
M 53.21875 1.3125 
L 66.21875 -12.890625 
L 54.296875 -12.890625 
L 43.5 -1.21875 
Q 41.890625 -1.3125 41.03125 -1.359375 
Q 40.1875 -1.421875 39.40625 -1.421875 
Q 24.03125 -1.421875 14.8125 8.859375 
Q 5.609375 19.140625 5.609375 36.375 
Q 5.609375 53.65625 14.8125 63.9375 
Q 24.03125 74.21875 39.40625 74.21875 
Q 54.734375 74.21875 63.90625 63.9375 
Q 73.09375 53.65625 73.09375 36.375 
Q 73.09375 23.6875 67.984375 14.640625 
Q 62.890625 5.609375 53.21875 1.3125 
" id="BitstreamVeraSans-Roman-51"/>
     <path d="M 41.109375 46.296875 
Q 39.59375 47.171875 37.8125 47.578125 
Q 36.03125 48 33.890625 48 
Q 26.265625 48 22.1875 43.046875 
Q 18.109375 38.09375 18.109375 28.8125 
L 18.109375 0 
L 9.078125 0 
L 9.078125 54.6875 
L 18.109375 54.6875 
L 18.109375 46.1875 
Q 20.953125 51.171875 25.484375 53.578125 
Q 30.03125 56 36.53125 56 
Q 37.453125 56 38.578125 55.875 
Q 39.703125 55.765625 41.0625 55.515625 
z
" id="BitstreamVeraSans-Roman-72"/>
    </defs>
    <g transform="translate(184.9453125 16.318125)scale(0.12 -0.12)">
     <use xlink:href="#BitstreamVeraSans-Roman-51"/>
     <use x="78.7109375" xlink:href="#BitstreamVeraSans-Roman-75"/>
     <use x="142.08984375" xlink:href="#BitstreamVeraSans-Roman-61"/>
     <use x="203.369140625" xlink:href="#BitstreamVeraSans-Roman-6c"/>
     <use x="231.15234375" xlink:href="#BitstreamVeraSans-Roman-69"/>
     <use x="258.935546875" xlink:href="#BitstreamVeraSans-Roman-74"/>
     <use x="298.14453125" xlink:href="#BitstreamVeraSans-Roman-61"/>
     <use x="359.423828125" xlink:href="#BitstreamVeraSans-Roman-74"/>
     <use x="398.6328125" xlink:href="#BitstreamVeraSans-Roman-69"/>
     <use x="426.416015625" xlink:href="#BitstreamVeraSans-Roman-76"/>
     <use x="485.595703125" xlink:href="#BitstreamVeraSans-Roman-65"/>
     <use x="547.119140625" xlink:href="#BitstreamVeraSans-Roman-6c"/>
     <use x="574.90234375" xlink:href="#BitstreamVeraSans-Roman-79"/>
     <use x="634.08203125" xlink:href="#BitstreamVeraSans-Roman-20"/>
     <use x="665.869140625" xlink:href="#BitstreamVeraSans-Roman-44"/>
     <use x="742.87109375" xlink:href="#BitstreamVeraSans-Roman-69"/>
     <use x="770.654296875" xlink:href="#BitstreamVeraSans-Roman-66"/>
     <use x="805.859375" xlink:href="#BitstreamVeraSans-Roman-66"/>
     <use x="841.064453125" xlink:href="#BitstreamVeraSans-Roman-65"/>
     <use x="902.587890625" xlink:href="#BitstreamVeraSans-Roman-72"/>
     <use x="943.669921875" xlink:href="#BitstreamVeraSans-Roman-65"/>
     <use x="1005.193359375" xlink:href="#BitstreamVeraSans-Roman-6e"/>
     <use x="1068.572265625" xlink:href="#BitstreamVeraSans-Roman-74"/>
     <use x="1107.78125" xlink:href="#BitstreamVeraSans-Roman-20"/>
     <use x="1139.568359375" xlink:href="#BitstreamVeraSans-Roman-4c"/>
     <use x="1195.28125" xlink:href="#BitstreamVeraSans-Roman-69"/>
     <use x="1223.064453125" xlink:href="#BitstreamVeraSans-Roman-6e"/>
     <use x="1286.443359375" xlink:href="#BitstreamVeraSans-Roman-65"/>
     <use x="1347.966796875" xlink:href="#BitstreamVeraSans-Roman-73"/>
    </g>
   </g>
   <g id="legend_1">
    <g id="patch_7">
     <path d="M 50.749063 333.118125 
L 113.72875 333.118125 
L 113.72875 212.693125 
L 50.749063 212.693125 
z
" style="fill:#ffffff;stroke:#000000;stroke-linejoin:miter;stroke-width:0.3;"/>
    </g>
    <g id="line2d_31">
     <path d="M 57.749063 220.791563 
L 71.749063 220.791563 
" style="fill:none;stroke:#0000ff;stroke-linecap:square;stroke-width:1.75;"/>
    </g>
    <g id="line2d_32"/>
    <g id="text_15">
     <!-- Label -->
     <g transform="translate(82.7490625 224.2915625)scale(0.1 -0.1)">
      <use xlink:href="#BitstreamVeraSans-Roman-4c"/>
      <use x="55.712890625" xlink:href="#BitstreamVeraSans-Roman-61"/>
      <use x="116.9921875" xlink:href="#BitstreamVeraSans-Roman-62"/>
      <use x="180.46875" xlink:href="#BitstreamVeraSans-Roman-65"/>
      <use x="241.9921875" xlink:href="#BitstreamVeraSans-Roman-6c"/>
     </g>
    </g>
    <g id="line2d_33">
     <path d="M 57.749063 235.469688 
L 71.749063 235.469688 
" style="fill:none;stroke:#008000;stroke-linecap:square;stroke-width:1.75;"/>
    </g>
    <g id="line2d_34"/>
    <g id="text_16">
     <!-- Label -->
     <g transform="translate(82.7490625 238.9696875)scale(0.1 -0.1)">
      <use xlink:href="#BitstreamVeraSans-Roman-4c"/>
      <use x="55.712890625" xlink:href="#BitstreamVeraSans-Roman-61"/>
      <use x="116.9921875" xlink:href="#BitstreamVeraSans-Roman-62"/>
      <use x="180.46875" xlink:href="#BitstreamVeraSans-Roman-65"/>
      <use x="241.9921875" xlink:href="#BitstreamVeraSans-Roman-6c"/>
     </g>
    </g>
    <g id="line2d_35">
     <path d="M 57.749063 250.147813 
L 71.749063 250.147813 
" style="fill:none;stroke:#ff0000;stroke-linecap:square;stroke-width:1.75;"/>
    </g>
    <g id="line2d_36"/>
    <g id="text_17">
     <!-- Label -->
     <g transform="translate(82.7490625 253.6478125)scale(0.1 -0.1)">
      <use xlink:href="#BitstreamVeraSans-Roman-4c"/>
      <use x="55.712890625" xlink:href="#BitstreamVeraSans-Roman-61"/>
      <use x="116.9921875" xlink:href="#BitstreamVeraSans-Roman-62"/>
      <use x="180.46875" xlink:href="#BitstreamVeraSans-Roman-65"/>
      <use x="241.9921875" xlink:href="#BitstreamVeraSans-Roman-6c"/>
     </g>
    </g>
    <g id="line2d_37">
     <path d="M 57.749063 264.825938 
L 71.749063 264.825938 
" style="fill:none;stroke:#00bfbf;stroke-linecap:square;stroke-width:1.75;"/>
    </g>
    <g id="line2d_38"/>
    <g id="text_18">
     <!-- Label -->
     <g transform="translate(82.7490625 268.3259375)scale(0.1 -0.1)">
      <use xlink:href="#BitstreamVeraSans-Roman-4c"/>
      <use x="55.712890625" xlink:href="#BitstreamVeraSans-Roman-61"/>
      <use x="116.9921875" xlink:href="#BitstreamVeraSans-Roman-62"/>
      <use x="180.46875" xlink:href="#BitstreamVeraSans-Roman-65"/>
      <use x="241.9921875" xlink:href="#BitstreamVeraSans-Roman-6c"/>
     </g>
    </g>
    <g id="line2d_39">
     <path d="M 57.749063 279.504063 
L 71.749063 279.504063 
" style="fill:none;stroke:#bf00bf;stroke-linecap:square;stroke-width:1.75;"/>
    </g>
    <g id="line2d_40"/>
    <g id="text_19">
     <!-- Label -->
     <g transform="translate(82.7490625 283.0040625)scale(0.1 -0.1)">
      <use xlink:href="#BitstreamVeraSans-Roman-4c"/>
      <use x="55.712890625" xlink:href="#BitstreamVeraSans-Roman-61"/>
      <use x="116.9921875" xlink:href="#BitstreamVeraSans-Roman-62"/>
      <use x="180.46875" xlink:href="#BitstreamVeraSans-Roman-65"/>
      <use x="241.9921875" xlink:href="#BitstreamVeraSans-Roman-6c"/>
     </g>
    </g>
    <g id="line2d_41">
     <path d="M 57.749063 294.182188 
L 71.749063 294.182188 
" style="fill:none;stroke:#bfbf00;stroke-linecap:square;stroke-width:1.75;"/>
    </g>
    <g id="line2d_42"/>
    <g id="text_20">
     <!-- Label -->
     <g transform="translate(82.7490625 297.6821875)scale(0.1 -0.1)">
      <use xlink:href="#BitstreamVeraSans-Roman-4c"/>
      <use x="55.712890625" xlink:href="#BitstreamVeraSans-Roman-61"/>
      <use x="116.9921875" xlink:href="#BitstreamVeraSans-Roman-62"/>
      <use x="180.46875" xlink:href="#BitstreamVeraSans-Roman-65"/>
      <use x="241.9921875" xlink:href="#BitstreamVeraSans-Roman-6c"/>
     </g>
    </g>
    <g id="line2d_43">
     <path d="M 57.749063 308.860313 
L 71.749063 308.860313 
" style="fill:none;stroke:#000000;stroke-linecap:square;stroke-width:1.75;"/>
    </g>
    <g id="line2d_44"/>
    <g id="text_21">
     <!-- Label -->
     <g transform="translate(82.7490625 312.3603125)scale(0.1 -0.1)">
      <use xlink:href="#BitstreamVeraSans-Roman-4c"/>
      <use x="55.712890625" xlink:href="#BitstreamVeraSans-Roman-61"/>
      <use x="116.9921875" xlink:href="#BitstreamVeraSans-Roman-62"/>
      <use x="180.46875" xlink:href="#BitstreamVeraSans-Roman-65"/>
      <use x="241.9921875" xlink:href="#BitstreamVeraSans-Roman-6c"/>
     </g>
    </g>
    <g id="line2d_45">
     <path d="M 57.749063 323.538438 
L 71.749063 323.538438 
" style="fill:none;stroke:#0000ff;stroke-linecap:square;stroke-width:1.75;"/>
    </g>
    <g id="line2d_46"/>
    <g id="text_22">
     <!-- Label -->
     <g transform="translate(82.7490625 327.0384375)scale(0.1 -0.1)">
      <use xlink:href="#BitstreamVeraSans-Roman-4c"/>
      <use x="55.712890625" xlink:href="#BitstreamVeraSans-Roman-61"/>
      <use x="116.9921875" xlink:href="#BitstreamVeraSans-Roman-62"/>
      <use x="180.46875" xlink:href="#BitstreamVeraSans-Roman-65"/>
      <use x="241.9921875" xlink:href="#BitstreamVeraSans-Roman-6c"/>
     </g>
    </g>
   </g>
  </g>
 </g>
 <defs>
  <clipPath id="pbb110ef883">
   <rect height="316.8" width="446.4" x="45.7490625" y="21.318125"/>
  </clipPath>
 </defs>
</svg>
